<svg version="1.1" xmlns="http://www.w3.org/2000/svg" xmlns:xlink="http://www.w3.org/1999/xlink" width="89.63942" height="85.37989" viewBox="0,0,89.63942,85.37989"><defs><linearGradient x1="292.32917" y1="151.47599" x2="309.65754" y2="149.75833" gradientUnits="userSpaceOnUse" id="color-1"><stop offset="0" stop-color="#30200a"/><stop offset="1" stop-color="#291b04"/></linearGradient><linearGradient x1="337.37926" y1="150.76025" x2="320.05089" y2="152.47791" gradientUnits="userSpaceOnUse" id="color-2"><stop offset="0" stop-color="#30200a"/><stop offset="1" stop-color="#291b04"/></linearGradient><linearGradient x1="315.17926" y1="161.75867" x2="312.93976" y2="139.48183" gradientUnits="userSpaceOnUse" id="color-3"><stop offset="0" stop-color="#30200a"/><stop offset="1" stop-color="#291b04"/></linearGradient><radialGradient cx="319.0936" cy="211.98577" r="6.44121" gradientUnits="userSpaceOnUse" id="color-4"><stop offset="0" stop-color="#232323"/><stop offset="1" stop-color="#0e0e0e"/></radialGradient><linearGradient x1="308.00156" y1="208.99198" x2="308.55184" y2="214.46572" gradientUnits="userSpaceOnUse" id="color-5"><stop offset="0" stop-color="#723737"/><stop offset="1" stop-color="#ffffff"/></linearGradient><linearGradient x1="311.14297" y1="206.18189" x2="311.80028" y2="212.72021" gradientUnits="userSpaceOnUse" id="color-6"><stop offset="0" stop-color="#723737"/><stop offset="1" stop-color="#ffffff"/></linearGradient><linearGradient x1="314.73245" y1="205.82608" x2="315.38975" y2="212.36439" gradientUnits="userSpaceOnUse" id="color-7"><stop offset="0" stop-color="#723737"/><stop offset="1" stop-color="#ffffff"/></linearGradient><linearGradient x1="318.45014" y1="205.45758" x2="319.10744" y2="211.9959" gradientUnits="userSpaceOnUse" id="color-8"><stop offset="0" stop-color="#723737"/><stop offset="1" stop-color="#ffffff"/></linearGradient><linearGradient x1="322.49472" y1="205.12094" x2="323.152" y2="211.65925" gradientUnits="userSpaceOnUse" id="color-9"><stop offset="0" stop-color="#723737"/><stop offset="1" stop-color="#ffffff"/></linearGradient><linearGradient x1="326.38538" y1="205.18527" x2="327.04267" y2="211.72358" gradientUnits="userSpaceOnUse" id="color-10"><stop offset="0" stop-color="#723737"/><stop offset="1" stop-color="#ffffff"/></linearGradient><linearGradient x1="330.94852" y1="207.36019" x2="331.49879" y2="212.83394" gradientUnits="userSpaceOnUse" id="color-11"><stop offset="0" stop-color="#723737"/><stop offset="1" stop-color="#ffffff"/></linearGradient><linearGradient x1="303.87113" y1="204.59171" x2="304.3076" y2="208.93333" gradientUnits="userSpaceOnUse" id="color-12"><stop offset="0" stop-color="#723737"/><stop offset="1" stop-color="#ffffff"/></linearGradient><linearGradient x1="305.86674" y1="204.26534" x2="306.30321" y2="208.60695" gradientUnits="userSpaceOnUse" id="color-13"><stop offset="0" stop-color="#723737"/><stop offset="1" stop-color="#ffffff"/></linearGradient><linearGradient x1="307.78114" y1="203.98985" x2="308.21761" y2="208.33146" gradientUnits="userSpaceOnUse" id="color-14"><stop offset="0" stop-color="#723737"/><stop offset="1" stop-color="#ffffff"/></linearGradient><linearGradient x1="309.44343" y1="203.78223" x2="309.87989" y2="208.12384" gradientUnits="userSpaceOnUse" id="color-15"><stop offset="0" stop-color="#723737"/><stop offset="1" stop-color="#ffffff"/></linearGradient><linearGradient x1="311.58856" y1="203.65531" x2="312.02502" y2="207.99692" gradientUnits="userSpaceOnUse" id="color-16"><stop offset="0" stop-color="#723737"/><stop offset="1" stop-color="#ffffff"/></linearGradient><linearGradient x1="313.508" y1="203.64441" x2="314.00913" y2="208.62939" gradientUnits="userSpaceOnUse" id="color-17"><stop offset="0" stop-color="#723737"/><stop offset="1" stop-color="#ffffff"/></linearGradient><linearGradient x1="315.36256" y1="203.41773" x2="315.86371" y2="208.40271" gradientUnits="userSpaceOnUse" id="color-18"><stop offset="0" stop-color="#723737"/><stop offset="1" stop-color="#ffffff"/></linearGradient><linearGradient x1="317.65643" y1="203.48239" x2="318.0929" y2="207.824" gradientUnits="userSpaceOnUse" id="color-19"><stop offset="0" stop-color="#723737"/><stop offset="1" stop-color="#ffffff"/></linearGradient><linearGradient x1="319.7845" y1="203.18573" x2="320.22096" y2="207.52735" gradientUnits="userSpaceOnUse" id="color-20"><stop offset="0" stop-color="#723737"/><stop offset="1" stop-color="#ffffff"/></linearGradient><linearGradient x1="322.34362" y1="203.14633" x2="322.78009" y2="207.48795" gradientUnits="userSpaceOnUse" id="color-21"><stop offset="0" stop-color="#723737"/><stop offset="1" stop-color="#ffffff"/></linearGradient><linearGradient x1="326.10396" y1="203.20214" x2="326.54042" y2="207.54375" gradientUnits="userSpaceOnUse" id="color-22"><stop offset="0" stop-color="#723737"/><stop offset="1" stop-color="#ffffff"/></linearGradient><linearGradient x1="324.47162" y1="203.27824" x2="324.90808" y2="207.61986" gradientUnits="userSpaceOnUse" id="color-23"><stop offset="0" stop-color="#723737"/><stop offset="1" stop-color="#ffffff"/></linearGradient><linearGradient x1="327.9029" y1="203.49522" x2="328.33936" y2="207.83683" gradientUnits="userSpaceOnUse" id="color-24"><stop offset="0" stop-color="#723737"/><stop offset="1" stop-color="#ffffff"/></linearGradient><linearGradient x1="330.00955" y1="203.41497" x2="330.44602" y2="207.75658" gradientUnits="userSpaceOnUse" id="color-25"><stop offset="0" stop-color="#723737"/><stop offset="1" stop-color="#ffffff"/></linearGradient><linearGradient x1="332.14608" y1="203.63174" x2="332.58255" y2="207.97335" gradientUnits="userSpaceOnUse" id="color-26"><stop offset="0" stop-color="#723737"/><stop offset="1" stop-color="#ffffff"/></linearGradient><linearGradient x1="334.12167" y1="204.14291" x2="334.51367" y2="208.04221" gradientUnits="userSpaceOnUse" id="color-27"><stop offset="0" stop-color="#723737"/><stop offset="1" stop-color="#ffffff"/></linearGradient><linearGradient x1="316.7021" y1="156.28733" x2="321.77831" y2="206.78149" gradientUnits="userSpaceOnUse" id="color-28"><stop offset="0" stop-color="#30200a"/><stop offset="1" stop-color="#291b04"/></linearGradient><linearGradient x1="335.9932" y1="204.72878" x2="336.38519" y2="208.62809" gradientUnits="userSpaceOnUse" id="color-29"><stop offset="0" stop-color="#723737"/><stop offset="1" stop-color="#ffffff"/></linearGradient><radialGradient cx="304.12913" cy="180.29893" r="12.25488" gradientUnits="userSpaceOnUse" id="color-30"><stop offset="0" stop-color="#000000" stop-opacity="0"/><stop offset="1" stop-color="#000000" stop-opacity="0.45882"/></radialGradient><radialGradient cx="331.8409" cy="178.17398" r="12.08837" gradientUnits="userSpaceOnUse" id="color-31"><stop offset="0" stop-color="#000000" stop-opacity="0"/><stop offset="1" stop-color="#000000" stop-opacity="0.45882"/></radialGradient><radialGradient cx="307.00251" cy="184.7783" r="3.22623" gradientUnits="userSpaceOnUse" id="color-32"><stop offset="0" stop-color="#ffffff"/><stop offset="1" stop-color="#ffffff" stop-opacity="0"/></radialGradient><radialGradient cx="307.13635" cy="184.80641" r="1.53164" gradientUnits="userSpaceOnUse" id="color-33"><stop offset="0" stop-color="#ffffff"/><stop offset="1" stop-color="#ffffff" stop-opacity="0"/></radialGradient><radialGradient cx="330.17028" cy="182.38817" r="3.22622" gradientUnits="userSpaceOnUse" id="color-34"><stop offset="0" stop-color="#ffffff"/><stop offset="1" stop-color="#ffffff" stop-opacity="0"/></radialGradient><radialGradient cx="330.04469" cy="182.44198" r="1.53164" gradientUnits="userSpaceOnUse" id="color-35"><stop offset="0" stop-color="#ffffff"/><stop offset="1" stop-color="#ffffff" stop-opacity="0"/></radialGradient><linearGradient x1="317.53436" y1="197.80606" x2="343.3338" y2="195.24871" gradientUnits="userSpaceOnUse" id="color-36"><stop offset="0" stop-color="#3b0602" stop-opacity="0"/><stop offset="1" stop-color="#3b0602"/></linearGradient><radialGradient cx="138.68682" cy="205.04775" r="2.60767" gradientUnits="userSpaceOnUse" id="color-37"><stop offset="0" stop-color="#ffffff" stop-opacity="0.12941"/><stop offset="1" stop-color="#ffffff" stop-opacity="0"/></radialGradient><radialGradient cx="176.13635" cy="188.84799" r="2.60767" gradientUnits="userSpaceOnUse" id="color-38"><stop offset="0" stop-color="#ffffff" stop-opacity="0.12941"/><stop offset="1" stop-color="#ffffff" stop-opacity="0"/></radialGradient><radialGradient cx="174.72575" cy="205.37946" r="2.60767" gradientUnits="userSpaceOnUse" id="color-39"><stop offset="0" stop-color="#ffffff" stop-opacity="0.12941"/><stop offset="1" stop-color="#ffffff" stop-opacity="0"/></radialGradient><radialGradient cx="139.26634" cy="188.51631" r="2.60768" gradientUnits="userSpaceOnUse" id="color-40"><stop offset="0" stop-color="#ffffff" stop-opacity="0.12941"/><stop offset="1" stop-color="#ffffff" stop-opacity="0"/></radialGradient><radialGradient cx="307.24732" cy="184.67367" r="13.79594" gradientUnits="userSpaceOnUse" id="color-41"><stop offset="0" stop-color="#ffffff" stop-opacity="0.42745"/><stop offset="1" stop-color="#ffffff" stop-opacity="0"/></radialGradient><radialGradient cx="330.20767" cy="182.16785" r="13.79593" gradientUnits="userSpaceOnUse" id="color-42"><stop offset="0" stop-color="#ffffff" stop-opacity="0.42745"/><stop offset="1" stop-color="#ffffff" stop-opacity="0"/></radialGradient></defs><g transform="translate(-275.1803,-137.31009)"><g data-paper-data="{&quot;isPaintingLayer&quot;:true}" fill-rule="nonzero" stroke-linecap="butt" stroke-linejoin="miter" stroke-miterlimit="10" stroke-dasharray="" stroke-dashoffset="0" style="mix-blend-mode: normal"><path d="M275.9303,221.93998v-83.87989h88.13942v83.87989z" fill="#000000" stroke="#ffffff" stroke-width="0"/><path d="M351.62482,207.49427c0.22605,2.24858 -8.37217,1.09994 -16.16498,3.71895c-7.19029,2.41651 -7.32644,6.50605 -15.46434,6.85824c-12.01737,0.52008 -15.30043,-7.45466 -17.14913,-6.38488c-9.38351,5.4299 -15.59206,-3.76932 -16.0868,-8.69058c-0.49474,-4.92126 16.28879,-3.22167 33.81197,-4.95865c12.71843,-1.2607 25.12709,-3.96963 30.40856,-0.40739c1.99522,1.34574 0.50907,8.51494 0.64472,9.86431z" fill="#1c1306" stroke="none" stroke-width="0"/><path d="M327.18953,221.03472c0.86522,-1.62018 0.60672,-4.68889 0.42828,-6.46433c-0.12235,-1.2196 -0.1717,-2.36786 0.48198,-3.40654c0.37003,-0.58796 1.59327,-1.81968 1.52282,-2.57293c-0.026,-0.76496 0.56717,-1.11816 0.93546,-1.69073c0.77803,-1.20959 2.06597,-2.53603 2.5858,-3.89348c0.50668,-1.30024 1.44367,-2.34539 2.05704,-3.59887c0.24086,-0.49222 0.52903,-1.13118 0.96574,-1.22237c0,0 0.16025,-0.01588 0.17624,0.14324c0.016,0.15912 -0.14425,0.175 -0.14425,0.175c-0.15545,-0.01913 -0.54374,0.70518 -0.7078,1.04342c-0.60567,1.24872 -1.54485,2.28369 -2.04653,3.57485c-0.54817,1.38947 -1.81587,2.7083 -2.6148,3.95036c-0.31158,0.48441 -0.93993,0.84967 -0.8853,1.50111c0.02547,0.90568 -1.14611,2.05024 -1.56966,2.75725c-0.60903,1.01666 -0.55517,2.02265 -0.43626,3.20794c0.18847,1.87531 0.41218,4.92231 -0.46258,6.64277c-0.40549,0.77547 -0.68398,0.62329 -0.28619,-0.1467z" data-paper-data="{&quot;index&quot;:null}" fill="#3d0238" stroke="none" stroke-width="0.5"/><path d="M326.84513,221.13709c-0.19656,-2.40652 1.19286,-4.11541 2.5757,-5.92284c0.52611,-0.68709 0.22806,-1.42388 0.60752,-2.06564c0.79485,-1.34424 2.16509,-1.76126 1.98199,-3.58665c-0.20451,-2.15165 1.36502,-4.324 1.74976,-6.02804c0.49822,-2.16581 2.09282,-3.1493 4.12141,-3.35037c0,0 0.15691,-0.01555 0.1729,0.14357c0.016,0.15912 -0.14091,0.17467 -0.14091,0.17467c-1.90972,0.1893 -3.37401,1.05338 -3.84619,3.10598c-0.39378,1.6763 -1.94242,3.83127 -1.74307,5.92398c0.19513,1.9453 -1.188,2.36635 -2.02515,3.78209c-0.3661,0.61915 -0.09892,1.40405 -0.6287,2.09702c-1.33663,1.74702 -2.70141,3.37886 -2.51091,5.70109c0.11716,1.43151 -0.19898,1.43467 -0.31437,0.02512z" data-paper-data="{&quot;index&quot;:null}" fill="#023d18" stroke="none" stroke-width="0.5"/><path d="M325.92744,220.5229c0.07539,-0.25595 0.60835,-0.49863 0.65898,-0.69586c0.07933,-0.30903 -0.19346,-0.54767 -0.01348,-0.98304c0.63825,-0.18306 0.18002,-0.94634 -0.08657,-1.5559c-0.59892,-1.36943 -1.19845,-2.7386 -1.7966,-4.10837c-0.51955,-1.30275 -0.66908,-3.23206 -0.92033,-4.6208c-0.10434,-0.57671 0.41618,-1.42923 0.25919,-1.70776c-0.25697,-0.5979 -0.44996,-2.30684 -0.14177,-2.85037c0.02178,-0.03841 -0.42046,-0.75217 -0.38599,-0.87577c0.13058,-0.4683 0.07801,-1.49154 0.16533,-2.29522c0.43053,-1.27533 0.83667,-2.51616 1.0522,-3.84304c0.07925,-0.48787 0.58878,-0.92322 0.35568,-1.39425c0,0 -0.06415,-0.14667 0.08356,-0.21038c0.14771,-0.0637 0.21186,0.08298 0.21186,0.08298c0.25724,0.64369 -0.23302,0.95622 -0.33313,1.57258c-0.21811,1.34276 -0.66515,2.56596 -1.05486,3.85737c-0.08345,0.80625 0.07368,1.8419 -0.17755,2.33817c-0.03793,0.07493 0.43108,0.72509 0.38253,0.88489c-0.16737,0.55093 -0.12682,1.99044 0.13797,2.60657c0.21356,0.57978 -0.37187,1.0359 -0.238,1.77774c0.24077,1.3342 0.36366,3.3308 0.89991,4.5526c0.54633,1.25099 2.94994,5.3934 1.81817,6.01122c-0.1235,0.33782 0.17165,0.54002 0.09388,0.84021c-0.0642,0.24785 -0.59618,0.43897 -0.65997,0.69963c-0.30834,1.25998 -0.65684,1.09099 -0.31099,-0.08321z" data-paper-data="{&quot;index&quot;:null}" fill="#3c0202" stroke="none" stroke-width="0.5"/><path d="M330.09193,221.50623c0.02727,-0.15751 -0.23753,-0.66063 -0.22498,-0.89966c0.02384,-0.45393 0.30553,-0.33835 0.14424,-0.7074c-0.64014,-1.97721 -1.15084,-4.47929 -1.79091,-6.2504c-0.67535,-2.08597 -0.99006,-3.7768 -1.72931,-6.06013c-0.63686,-1.96765 -0.21908,-4.17531 -0.85824,-6.26386c-0.17941,-1.20739 0.04954,-4.70076 0.95429,-5.29981c0,0 0.09735,-0.05871 0.14536,0.08957c0.04801,0.14828 -0.04935,0.20698 -0.04935,0.20698c-0.74097,0.38479 -1.04788,4.04637 -0.84628,4.9189c0.6409,2.07402 0.22063,4.28966 0.84893,6.23082c0.7371,2.27669 1.05922,3.99044 1.7293,6.06011c0.57838,1.93435 1.12657,4.19845 1.79091,6.2504c0.07705,0.28846 -0.11276,0.57141 -0.12231,0.87116c-0.01004,0.31524 0.24972,0.6379 0.22195,0.93546c-0.08827,0.94595 -0.36574,0.79648 -0.21361,-0.08214z" data-paper-data="{&quot;index&quot;:null}" fill="#02153d" stroke="none" stroke-width="0.5"/><path d="M313.21058,221.95743c-0.59935,-0.55137 -0.54438,-1.92501 -1.09625,-2.60559c-1.2,-1.51479 -1.5873,-4.54558 -1.77587,-6.42089c-0.1194,-1.18525 -0.26686,-2.18195 -1.06627,-3.05901c-0.55593,-0.60993 -1.93226,-1.50192 -2.08759,-2.39473c-0.07613,-0.64931 -0.76479,-0.88402 -1.16667,-1.29771c-1.03043,-1.06073 -2.53565,-2.1047 -3.34962,-3.35915c-0.74884,-1.16721 -1.87551,-1.99739 -2.71782,-3.10259c-0.22815,-0.29936 -0.75298,-0.93316 -0.90155,-0.88389c0,0 -0.16025,0.01588 -0.17624,-0.14324c-0.016,-0.15912 0.14425,-0.175 0.14425,-0.175c0.44625,0.00367 0.85593,0.57345 1.19003,1.00868c0.8508,1.10834 1.97737,1.94894 2.7329,3.12407c0.77981,1.22863 2.30639,2.27608 3.30988,3.30908c0.47501,0.48898 1.12678,0.71876 1.25358,1.47374c0.0809,0.75221 1.52521,1.71951 2.00499,2.22323c0.84756,0.88987 1.02778,2.02516 1.15063,3.24471c0.17853,1.77543 0.53604,4.83432 1.70673,6.2527c0.54323,0.67672 0.51663,2.03137 1.06653,2.57352c0.6199,0.61116 0.39195,0.79654 -0.22164,0.23207z" fill="#3d0238" stroke="none" stroke-width="0.5"/><path d="M306.33128,217.04539c-0.13159,-1.32636 -1.00448,-3.12915 -1.44926,-4.41063c-0.2473,-0.71252 -0.98237,-0.8274 -1.08054,-1.437c-0.07127,-0.66615 -0.74256,-1.94265 -1.15917,-2.34268c-0.12084,-0.11603 -0.03051,-0.91073 -0.10041,-0.9578c-0.46298,-0.3117 -0.83422,-1.29202 -1.30289,-1.95559c-0.97426,-0.93893 -1.96509,-1.79056 -2.81473,-2.85739c-0.39001,-0.48971 -0.97149,-0.52527 -1.0629,-1.21181c0,0 -0.016,-0.15912 0.14425,-0.175c0.16025,-0.01588 0.17624,0.14324 0.17624,0.14324c0.02772,0.52411 0.68634,0.65759 0.99504,1.0452c0.8396,1.05422 1.80336,1.94103 2.80537,2.84617c0.47078,0.65945 0.92722,1.57833 1.27113,1.92401c0.09078,0.09124 0.05504,0.92851 0.09292,0.95151c0.53592,0.32539 1.20638,1.91095 1.27554,2.55737c-0.00034,0.31918 0.87266,0.81158 1.06468,1.36564c0.4624,1.33418 1.27899,3.0911 1.46491,4.48007c0.15019,1.48553 0.29889,2.97121 0.44823,4.45682c0.06648,0.66127 -0.63129,-3.06538 -0.76841,-4.42212z" fill="#3c0202" stroke="none" stroke-width="0.5"/><path d="M302.48641,220.75747c-0.22328,-2.22102 -0.71598,-3.90233 -0.9616,-6.34552c-0.20965,-2.08301 -1.95339,-3.68945 -2.21759,-5.89441c-0.20112,-0.8815 -2.57013,-3.79913 -3.75651,-3.62527c0,0 -0.16025,0.01588 -0.17624,-0.14324c-0.016,-0.15912 0.14425,-0.175 0.14425,-0.175c1.51788,-0.10198 3.69358,2.72489 4.10359,3.8772c0.2743,2.21618 2.01049,3.81751 2.223,5.92893c0.24634,2.45031 0.73657,4.10702 0.9616,6.34554c0.1029,1.94582 -0.04846,2.07512 -0.32049,0.03177z" fill="#02153d" stroke="none" stroke-width="0.5"/><path d="M312.29873,220.92449c-0.27556,-2.3138 -1.93827,-3.64554 -3.59632,-5.09572c-0.65728,-0.57531 -0.55162,-1.39717 -1.03376,-1.93223c-1.10247,-1.22349 -2.54213,-1.36472 -2.73811,-3.30994c-0.2212,-2.09055 -2.16828,-3.89901 -2.88801,-5.46493c-0.87148,-1.91941 -2.4789,-2.47901 -4.38862,-2.28971c0,0 -0.15691,0.01555 -0.1729,-0.14357c-0.016,-0.15912 0.14091,-0.17467 0.14091,-0.17467c2.02858,-0.20108 3.78751,0.44998 4.70707,2.47526c0.71638,1.5949 2.68741,3.41629 2.91528,5.56562c0.18391,1.82532 1.61012,1.96514 2.65689,3.12683c0.49974,0.5546 0.35425,1.33536 1.00676,1.90562c1.71537,1.50032 3.41757,2.90275 3.70398,5.30037c0.1675,1.40438 -0.14303,1.46333 -0.31316,0.03707z" fill="#023d18" stroke="none" stroke-width="0.5"/><g stroke="none" stroke-width="0"><path d="M309.73532,150.53665c0.18202,1.81053 0.69008,6.12619 -1.08882,5.84009c-2.16416,-0.34806 -6.89298,-5.53102 -9.32168,-5.29028c-4.42505,0.43863 -7.62253,-3.07516 -7.47183,-4.56265c0.29954,-2.95653 7.9537,-1.63425 8.26342,-1.51549c4.21836,1.61747 9.46471,3.99449 9.61891,5.52833z" fill="url(#color-1)"/><path d="M327.24051,144.56954c0.27997,-0.17721 10.55356,-1.77664 11.43576,1.06275c0.44386,1.42856 -3.80713,5.68068 -8.23217,6.1193c-2.4287,0.24074 -6.52351,4.58414 -8.57568,5.35014c-1.68684,0.62964 -3.12785,1.65618 -3.30986,-0.15435c-0.01684,-0.16756 -1.30073,-0.65417 -1.20985,-0.86171c0.33694,-0.76938 0.63744,-3.85884 2.62874,-5.70894c2.38844,-2.21909 5.41078,-4.63477 7.26306,-5.80719z" data-paper-data="{&quot;index&quot;:null}" fill="url(#color-2)"/><path d="M314.66718,157.73822c-0.81328,0.04366 -2.53207,-2.21454 -3.19933,-2.25651c-0.39772,-0.02502 -0.22845,2.04633 -0.5628,2.03053c-3.76432,-0.17783 -4.03733,-3.30271 -4.53693,-8.27233c-0.61842,-6.15158 1.77611,-10.88978 6.73216,-11.38105c0.1162,-0.01152 -0.21609,-0.18852 -0.09994,-0.19611c6.7648,-0.44198 10.16667,2.66627 10.77058,8.67361c0.61842,6.15158 -3.79602,11.11692 -9.10374,11.40185z" data-paper-data="{&quot;index&quot;:null}" fill="url(#color-3)"/></g><path d="M345.727,164.25639c0.90113,8.96373 -15.99376,14.76325 -27.85287,15.93878c-11.85911,1.17553 -27.71621,-2.02031 -28.61734,-10.98403c-0.90113,-8.96373 15.22481,-15.97268 27.08392,-17.1482c11.85911,-1.17553 28.48516,3.22973 29.38629,12.19346z" fill="#1c1306" stroke="none" stroke-width="0"/><path d="M315.78023,210.89366l1.25235,-0.05025z" fill="#0c0f12" stroke="none" stroke-width="0"/><path d="M321.75021,210.37886l-1.00188,0.0402z" fill="#0c0f12" stroke="none" stroke-width="0"/><path d="M315.0365,210.25755l1.35511,-0.05437z" fill="#151a1f" stroke="none" stroke-width="0"/><path d="M322.85532,209.11l1.17794,-0.04727z" fill="#151a1f" stroke="none" stroke-width="0"/><path d="M318.94088,209.57115c1.56218,0.35531 -1.89883,-0.43187 -0.00001,0z" fill="#1b191a" stroke="none" stroke-width="0"/><path d="M323.69318,206.37712c0,0 0.93601,2.05348 0.86829,2.86209c-0.07518,0.89786 -1.29931,2.28541 -1.29931,2.28541l-8.60638,-0.0821c0,0 -1.03419,-1.01716 -1.10282,-1.76187c-0.08041,-0.8723 0.65006,-3.14998 0.65006,-3.14998z" fill="#1d1a14" stroke="none" stroke-width="0"/><path d="M322.33777,208.53002c0.12343,-0.01606 0.14236,0.14272 0.14236,0.14272l0.02503,0.20989c0.22878,1.98023 -0.10964,3.80985 0.90596,5.60468c0.87178,1.67897 -0.51448,4.26541 -0.5057,6.22408c0.58689,1.93634 0.34234,2.03416 -0.24512,0.04489c-0.01469,-0.92654 -0.01456,-2.40878 0.29388,-3.16737c0.37492,-0.9221 0.78838,-1.90053 0.25406,-2.92905c-0.40231,-0.71069 -1.02113,-2.7416 -1.07561,-3.56502c-0.04746,-0.71728 0.21753,-1.43705 0.12569,-2.18009l-0.02503,-0.20989c0,0 -0.01894,-0.15878 0.10449,-0.17484z" fill="#360f11" stroke="none" stroke-width="0.5"/><path d="M317.3959,210.9842c0.11265,0.07617 0.05879,0.21641 0.05879,0.21641l-0.0586,0.15258c-0.43385,1.11026 0.12445,2.50069 0.02168,3.6298c-0.019,1.17296 0.56785,2.77785 0.68265,3.91744c0.07839,0.77825 0.78318,1.59051 0.44288,2.43776c0.01737,1.37502 -0.25266,1.42954 -0.24291,-0.09003c0.32026,-0.76569 -0.36967,-1.59433 -0.44749,-2.32153c-0.12789,-1.19508 -0.6819,-2.74079 -0.68441,-3.97941c0.10676,-1.18744 -0.44643,-2.56056 0.00229,-3.74635l0.0586,-0.15258c0,0 0.05387,-0.14025 0.16652,-0.06409z" fill="#360f11" stroke="none" stroke-width="0.5"/><path d="M325.5034,211.35041c0.34444,3.4262 -2.24611,6.48814 -5.78614,6.83905c-3.54004,0.35091 -6.68902,-2.14212 -7.03345,-5.56831c-0.34444,-3.4262 2.24611,-6.48814 5.78614,-6.83905c3.54004,-0.35091 6.68902,2.14212 7.03345,5.56831z" fill="url(#color-4)" stroke="none" stroke-width="0"/><path d="M309.76432,208.49583c0.15196,1.51153 -0.43366,5.89268 -1.21247,5.96988c-0.77881,0.0772 -1.49472,-1.98934 -1.64668,-3.50087c-0.15196,-1.51153 2.7072,-3.98054 2.85915,-2.46901z" fill="url(#color-5)" stroke="none" stroke-width="0"/><path d="M313.25579,207.96886c0.18151,1.8055 -0.52525,4.65914 -1.45553,4.75135c-0.93027,0.09222 -1.78543,-2.37624 -1.96694,-4.18175c-0.18151,-1.8055 3.24096,-2.37511 3.42246,-0.5696z" fill="url(#color-6)" stroke="none" stroke-width="0"/><path d="M316.84529,207.61305c0.18151,1.8055 -0.52525,4.65914 -1.45553,4.75135c-0.93027,0.09222 -1.78543,-2.37624 -1.96694,-4.18175c-0.18151,-1.8055 3.24096,-2.37511 3.42246,-0.5696z" fill="url(#color-7)" stroke="none" stroke-width="0"/><path d="M320.56298,207.24454c0.18151,1.8055 -0.52525,4.65914 -1.45553,4.75135c-0.93027,0.09222 -1.78543,-2.37624 -1.96694,-4.18175c-0.18151,-1.8055 3.24096,-2.37511 3.42246,-0.5696z" fill="url(#color-8)" stroke="none" stroke-width="0"/><path d="M324.60754,206.90791c0.18151,1.8055 -0.52525,4.65914 -1.45553,4.75135c-0.93027,0.09222 -1.78543,-2.37624 -1.96694,-4.18175c-0.18151,-1.8055 3.24096,-2.37511 3.42246,-0.5696z" fill="url(#color-9)" stroke="none" stroke-width="0"/><path d="M328.49821,206.97222c0.18151,1.8055 -0.52525,4.65914 -1.45553,4.75135c-0.93027,0.09222 -1.78543,-2.37624 -1.96694,-4.18174c-0.18151,-1.8055 3.24096,-2.37511 3.42246,-0.5696z" fill="url(#color-10)" stroke="none" stroke-width="0"/><path d="M332.41605,209.07892c0.15196,1.51153 -0.13843,3.67782 -0.91724,3.75502c-0.77881,0.0772 -2.22506,-4.10255 -2.37701,-5.61408c-0.15196,-1.51153 3.1423,0.34753 3.29425,1.85906z" data-paper-data="{&quot;index&quot;:null}" fill="url(#color-11)" stroke="none" stroke-width="0"/><path d="M333.10972,208.44849c0.18249,3.1326 -5.1075,-0.80696 -12.36366,-0.33567c-7.25615,0.4713 -14.59361,4.85147 -14.77609,1.71886c-0.18249,-3.1326 6.35967,-6.67596 13.61582,-7.14726c7.25615,-0.4713 13.34144,2.63146 13.52393,5.76406z" fill="#080808" stroke="none" stroke-width="0"/><path d="M305.13095,206.65926c0.12053,1.19891 -0.2869,1.83111 -0.86216,1.88813c-0.57526,0.05702 -1.32267,-2.26339 -1.4432,-3.4623c-0.12053,-1.19891 1.99028,-1.58088 2.28113,-0.53987c0.02795,0.10004 0.01366,2.00891 0.02422,2.11403z" fill="url(#color-12)" stroke="none" stroke-width="0"/><path d="M307.12656,206.33288c0.12053,1.19891 -0.2869,1.83111 -0.86216,1.88813c-0.57526,0.05702 -1.32267,-2.26338 -1.4432,-3.46229c-0.12053,-1.19891 1.99028,-1.58088 2.28113,-0.53987c0.02795,0.10004 0.01366,2.00891 0.02422,2.11402z" fill="url(#color-13)" stroke="none" stroke-width="0"/><path d="M309.04098,206.05742c0.12053,1.19891 -0.2869,1.83111 -0.86216,1.88813c-0.57526,0.05702 -1.32267,-2.26338 -1.4432,-3.46229c-0.12053,-1.19891 1.99028,-1.58088 2.28113,-0.53987c0.02795,0.10004 0.01366,2.00891 0.02422,2.11402z" fill="url(#color-14)" stroke="none" stroke-width="0"/><path d="M310.70326,205.84979c0.12053,1.19891 -0.2869,1.83111 -0.86216,1.88813c-0.57526,0.05702 -1.32267,-2.26339 -1.4432,-3.46229c-0.12053,-1.19891 1.99029,-1.58088 2.28114,-0.53987c0.02795,0.10004 0.01365,2.00891 0.02422,2.11403z" fill="url(#color-15)" stroke="none" stroke-width="0"/><path d="M312.84839,205.72287c0.12053,1.19891 -0.2869,1.83111 -0.86216,1.88813c-0.57526,0.05702 -1.32267,-2.26338 -1.4432,-3.46229c-0.12053,-1.19891 1.99028,-1.58088 2.28113,-0.53987c0.02795,0.10004 0.01366,2.00891 0.02422,2.11402z" fill="url(#color-16)" stroke="none" stroke-width="0"/><path d="M314.80015,206.03367c0.13838,1.37657 -0.2603,2.09561 -0.83557,2.15263c-0.57526,0.05702 -1.35799,-2.61471 -1.49638,-3.99128c-0.13838,-1.37657 1.96988,-1.78389 2.27651,-0.5859c0.02947,0.11513 0.0433,2.30385 0.05544,2.42455z" fill="url(#color-17)" stroke="none" stroke-width="0"/><path d="M316.65473,205.80697c0.13838,1.37657 -0.2603,2.09561 -0.83557,2.15263c-0.57526,0.05702 -1.35799,-2.61471 -1.49638,-3.99128c-0.13838,-1.37657 1.96987,-1.78389 2.2765,-0.5859c0.02947,0.11513 0.04331,2.30385 0.05544,2.42455z" fill="url(#color-18)" stroke="none" stroke-width="0"/><path d="M318.91625,205.54994c0.12053,1.19891 -0.2869,1.83111 -0.86216,1.88813c-0.57526,0.05702 -1.32267,-2.26338 -1.4432,-3.46229c-0.12053,-1.19891 1.99029,-1.58088 2.28114,-0.53987c0.02795,0.10004 0.01365,2.00891 0.02422,2.11403z" fill="url(#color-19)" stroke="none" stroke-width="0"/><path d="M321.04433,205.25328c0.12053,1.19891 -0.2869,1.83111 -0.86216,1.88813c-0.57526,0.05702 -1.32267,-2.26338 -1.4432,-3.46229c-0.12053,-1.19891 1.99029,-1.58088 2.28114,-0.53987c0.02795,0.10004 0.01366,2.00891 0.02422,2.11402z" fill="url(#color-20)" stroke="none" stroke-width="0"/><path d="M321.12314,203.34333c0.07787,-1.07757 2.22307,-1.11747 2.34359,0.08144c0.12053,1.19891 -0.1502,3.62023 -0.72545,3.67725c-0.57526,0.05702 -1.1005,-0.48274 -1.22103,-1.68164c-0.01057,-0.10511 -0.40459,-1.97351 -0.39711,-2.07706z" data-paper-data="{&quot;index&quot;:null}" fill="url(#color-21)" stroke="none" stroke-width="0"/><path d="M324.88349,203.39914c0.07787,-1.07757 2.22307,-1.11747 2.34359,0.08144c0.12053,1.19891 -0.1502,3.62023 -0.72545,3.67725c-0.57526,0.05702 -1.1005,-0.48274 -1.22103,-1.68164c-0.01057,-0.10511 -0.40459,-1.9735 -0.39711,-2.07706z" data-paper-data="{&quot;index&quot;:null}" fill="url(#color-22)" stroke="none" stroke-width="0"/><path d="M323.25115,203.47524c0.07787,-1.07757 2.22307,-1.11747 2.3436,0.08144c0.12053,1.19891 -0.1502,3.62023 -0.72545,3.67725c-0.57526,0.05702 -1.1005,-0.48274 -1.22103,-1.68164c-0.01057,-0.10511 -0.40459,-1.9735 -0.39711,-2.07706z" data-paper-data="{&quot;index&quot;:null}" fill="url(#color-23)" stroke="none" stroke-width="0"/><path d="M326.68242,203.69222c0.07787,-1.07757 2.22307,-1.11747 2.3436,0.08144c0.12053,1.19891 -0.1502,3.62023 -0.72545,3.67725c-0.57526,0.05702 -1.1005,-0.48274 -1.22103,-1.68164c-0.01057,-0.10511 -0.40459,-1.9735 -0.39711,-2.07706z" data-paper-data="{&quot;index&quot;:null}" fill="url(#color-24)" stroke="none" stroke-width="0"/><path d="M328.78909,203.61197c0.07787,-1.07757 2.22307,-1.11747 2.34359,0.08144c0.12053,1.19891 -0.1502,3.62023 -0.72545,3.67725c-0.57526,0.05702 -1.1005,-0.48274 -1.22103,-1.68164c-0.01057,-0.10511 -0.40459,-1.9735 -0.39711,-2.07706z" data-paper-data="{&quot;index&quot;:null}" fill="url(#color-25)" stroke="none" stroke-width="0"/><path d="M330.9256,203.82874c0.07787,-1.07757 2.22307,-1.11747 2.3436,0.08144c0.12053,1.19891 -0.1502,3.62023 -0.72545,3.67725c-0.57526,0.05702 -1.1005,-0.48274 -1.22103,-1.68164c-0.01057,-0.10511 -0.40459,-1.9735 -0.39711,-2.07706z" data-paper-data="{&quot;index&quot;:null}" fill="url(#color-26)" stroke="none" stroke-width="0"/><path d="M333.02554,204.31982c0.06994,-0.96778 1.99658,-1.00362 2.10483,0.07315c0.10824,1.07676 -0.13489,3.25142 -0.65154,3.30263c-0.51665,0.05121 -0.98839,-0.43355 -1.09663,-1.51032c-0.00949,-0.0944 -0.36338,-1.77245 -0.35665,-1.86545z" data-paper-data="{&quot;index&quot;:null}" fill="url(#color-27)" stroke="none" stroke-width="0"/><path d="M288.34071,209.0246c-4.42383,-4.25921 -7.63206,-30.06218 1.60706,-44.51714c4.39258,-5.06467 8.89334,-11.25194 24.8409,-13.04254c20.27657,-2.27666 28.37164,4.5434 32.15383,10.99402c4.12159,7.45477 15.94174,41.16545 3.54652,45.88105c-4.33564,1.64943 -1.96137,-2.53045 -7.01977,-4.24347c-1.94367,-0.65822 -5.62647,1.66832 -8.87118,0.82704c-10.49503,-2.72114 -21.18845,-1.58049 -31.80217,-0.28044c-0.38858,0.04759 -1.74342,-1.40172 -3.12219,-1.1037c-2.29534,0.49614 -4.9593,2.82828 -5.5599,2.90838c-5.46458,0.72878 -3.04654,5.2019 -5.77309,2.5768z" fill="url(#color-28)" stroke="none" stroke-width="0"/><path d="M334.89705,204.90571c0.06994,-0.96778 1.99659,-1.00362 2.10484,0.07315c0.10824,1.07676 -0.13489,3.25142 -0.65155,3.30263c-0.51665,0.05121 -0.98839,-0.43356 -1.09663,-1.51032c-0.00949,-0.0944 -0.36338,-1.77245 -0.35666,-1.86545z" data-paper-data="{&quot;index&quot;:null}" fill="url(#color-29)" stroke="none" stroke-width="0"/><path d="M328.46768,171.27051c8.93523,-0.72499 15.51776,4.64009 16.11851,10.61591c0.60075,5.97582 -4.19083,11.98624 -10.38589,12.60032c-6.19506,0.61408 -12.02464,-3.7007 -12.62539,-9.67652c-0.60075,-5.97582 0.6876,-13.03623 6.89278,-13.53971z" data-paper-data="{&quot;index&quot;:null}" fill="#000000" stroke="none" stroke-width="0"/><path d="M314.91047,185.17815c0.60075,5.97582 -4.25482,11.34976 -10.44988,11.96384c-6.19506,0.61408 -12.08863,-4.33718 -12.68938,-10.313c-0.60075,-5.97582 4.78383,-12.52714 13.68705,-13.57037c6.18295,-0.72449 8.85145,5.94371 9.4522,11.91953z" fill="#000000" stroke="none" stroke-width="0"/><path d="M330.83014,204.21191c-4.15936,-0.39094 -8.23562,0.47731 -12.55086,0.77732c-3.65452,0.25408 -8.58205,-0.46795 -11.94557,0.41446c-4.63074,1.21487 -7.32553,2.44759 -7.52452,0.46817c-0.16637,-1.65493 2.92772,-7.26736 5.85674,-9.4797c2.83442,-2.14089 4.98339,-2.54485 6.70975,-4.31597c4.54191,-4.65969 3.13634,-8.0098 6.73054,-8.36608c3.11567,-0.30884 4.38986,4.07674 7.9748,7.07951c2.57342,2.1555 5.55852,2.91373 8.15788,5.14968c3.49619,3.00739 3.92328,6.87109 5.95035,8.8842c1.68519,1.67358 -3.58942,-0.06931 -9.3591,-0.6116z" fill="#710d03" stroke="none" stroke-width="0"/><path d="M305.13374,190.2921c-6.73518,0.66762 -13.67037,1.02301 -14.22521,-4.49607c-0.55483,-5.51907 4.108,-13.67314 13.52324,-15.36555c9.17857,-1.64986 9.43651,6.768 9.99134,12.28707c0.55483,5.51907 -2.55421,6.90692 -9.28939,7.57454z" fill="url(#color-30)" stroke="none" stroke-width="0"/><path d="M322.3696,182.58041c-0.55945,-5.56494 -2.63783,-13.54577 6.56297,-13.71159c9.43805,-0.17009 16.22112,6.58657 16.78057,12.15151c0.55945,5.56494 -6.21559,6.57133 -12.85926,7.22988c-6.64367,0.65855 -9.92484,-0.10485 -10.48428,-5.66979z" data-paper-data="{&quot;index&quot;:null}" fill="url(#color-31)" stroke="none" stroke-width="0"/><path d="M310.21301,184.46007c0.16882,1.67925 -1.13172,3.18302 -2.90483,3.35878c-1.77311,0.17576 -3.34735,-1.04306 -3.51616,-2.7223c-0.16882,-1.67925 1.13172,-3.18302 2.90483,-3.35878c1.77311,-0.17576 3.34735,1.04306 3.51616,2.7223z" fill="url(#color-32)" stroke="none" stroke-width="0"/><path d="M308.66051,184.65532c0.08015,0.79722 -0.53728,1.51113 -1.37906,1.59457c-0.84178,0.08344 -1.58914,-0.49519 -1.66929,-1.29241c-0.08015,-0.79722 0.53728,-1.51113 1.37906,-1.59457c0.84178,-0.08344 1.58914,0.49519 1.66929,1.29241z" fill="url(#color-33)" stroke="#000000" stroke-width="0.5"/><path d="M307.39578,184.91401c0.0091,0.09046 -0.06097,0.17148 -0.15649,0.18094c-0.09552,0.00947 -0.18033,-0.05619 -0.18943,-0.14666c-0.0091,-0.09046 0.06097,-0.17148 0.15649,-0.18094c0.09552,-0.00947 0.18033,0.05619 0.18943,0.14666z" fill="#000000" stroke="none" stroke-width="0"/><path d="M329.86462,179.34763c1.7731,-0.17576 3.34735,1.04305 3.51616,2.7223c0.16882,1.67924 -1.13172,3.18302 -2.90483,3.35878c-1.7731,0.17576 -3.34734,-1.04305 -3.51615,-2.7223c-0.16882,-1.67924 1.13171,-3.18302 2.90482,-3.35878z" data-paper-data="{&quot;index&quot;:null}" fill="url(#color-34)" stroke="none" stroke-width="0"/><path d="M329.89957,180.99849c0.84178,-0.08344 1.58914,0.49519 1.66929,1.29241c0.08015,0.79722 -0.53728,1.51113 -1.37906,1.59457c-0.84178,0.08344 -1.58914,-0.49519 -1.66929,-1.29241c-0.08015,-0.79722 0.53728,-1.51113 1.37906,-1.59457z" data-paper-data="{&quot;index&quot;:null}" fill="url(#color-35)" stroke="#000000" stroke-width="0.5"/><path d="M329.94174,182.28675c0.09552,-0.00947 0.18032,0.05619 0.18941,0.14666c0.0091,0.09046 -0.06096,0.17148 -0.15648,0.18094c-0.09552,0.00947 -0.18033,-0.05619 -0.18943,-0.14666c-0.0091,-0.09046 0.06097,-0.17148 0.15649,-0.18094z" data-paper-data="{&quot;index&quot;:null}" fill="#000000" stroke="none" stroke-width="0"/><path d="M340.65599,205.37076c0.07785,0.77437 -3.77447,-0.45545 -5.51315,-0.6494c-2.73531,-0.30513 -3.96379,-0.47859 -6.51728,-0.56507c-4.29861,-0.14559 -8.78608,0.80713 -8.88265,0.74125c-1.11981,-0.76392 -0.17761,-3.59035 -0.75324,-6.84404c-1.09348,-6.1808 -2.83618,-14.17235 -0.69169,-14.38492c2.96267,-0.29367 3.01058,3.01478 7.01678,6.53278c4.38975,3.85479 7.73363,3.95368 10.68789,7.3846c0.93874,1.09021 4.64148,7.66684 4.65334,7.78479z" fill="url(#color-36)" stroke="none" stroke-width="0"/><path d="" fill="#080707" stroke="none" stroke-width="0"/><path d="M275.9303,221.93998v-83.87989h88.13942v83.87989z" fill="none" stroke="#ffffff" stroke-width="1.5"/><path d="" data-paper-data="{&quot;index&quot;:null}" fill="url(#color-37)" stroke="none" stroke-width="0"/><path d="" data-paper-data="{&quot;index&quot;:null}" fill="#2c2c2f" stroke="none" stroke-width="0"/><path d="" data-paper-data="{&quot;index&quot;:null}" fill="#5e6574" stroke="none" stroke-width="0"/><path d="" data-paper-data="{&quot;index&quot;:null}" fill="url(#color-38)" stroke="none" stroke-width="0"/><path d="" data-paper-data="{&quot;index&quot;:null}" fill="url(#color-39)" stroke="none" stroke-width="0"/><path d="" data-paper-data="{&quot;index&quot;:null}" fill="#2c2c2f" stroke="none" stroke-width="0"/><path d="" data-paper-data="{&quot;index&quot;:null}" fill="#5e6574" stroke="none" stroke-width="0"/><path d="" data-paper-data="{&quot;index&quot;:null}" fill="#2c2c2f" stroke="none" stroke-width="0"/><path d="" data-paper-data="{&quot;index&quot;:null}" fill="#5e6574" stroke="none" stroke-width="0"/><path d="" data-paper-data="{&quot;index&quot;:null}" fill="url(#color-40)" stroke="none" stroke-width="0"/><path d="" fill="#3a3a3d" stroke="none" stroke-width="0"/><path d="M319.45139,184.67367c0,7.61929 -5.46395,13.79594 -12.2041,13.79594c-6.74015,0 -12.2041,-6.17665 -12.2041,-13.79594c0,-7.61929 5.46395,-13.79594 12.2041,-13.79594c6.74015,0 12.2041,6.17665 12.2041,13.79594z" fill="url(#color-41)" stroke="none" stroke-width="NaN"/><path d="M342.41175,182.16785c0,7.61929 -5.46395,13.79594 -12.2041,13.79594c-6.74015,0 -12.2041,-6.17665 -12.2041,-13.79594c0,-7.61929 5.46395,-13.79594 12.2041,-13.79594c6.74015,0 12.2041,6.17665 12.2041,13.79594z" fill="url(#color-42)" stroke="none" stroke-width="NaN"/></g></g></svg>