<svg version="1.1" xmlns="http://www.w3.org/2000/svg" xmlns:xlink="http://www.w3.org/1999/xlink" width="526.47431" height="399.42228" viewBox="0,0,526.47431,399.42228"><defs><radialGradient cx="325.56954" cy="246.86397" r="35.29564" gradientUnits="userSpaceOnUse" id="color-1"><stop offset="0" stop-color="#5a0709"/><stop offset="1" stop-color="#5e0808"/></radialGradient><radialGradient cx="379.76524" cy="236.44171" r="62.62328" gradientUnits="userSpaceOnUse" id="color-2"><stop offset="0" stop-color="#7d0a0c"/><stop offset="1" stop-color="#7b0a0a"/></radialGradient><radialGradient cx="284.92276" cy="32.33361" r="51.53163" gradientUnits="userSpaceOnUse" id="color-3"><stop offset="0" stop-color="#d0060c"/><stop offset="1" stop-color="#600000"/></radialGradient><radialGradient cx="340.16069" cy="70.37483" r="153.95398" gradientUnits="userSpaceOnUse" id="color-4"><stop offset="0" stop-color="#d0060c"/><stop offset="1" stop-color="#600000"/></radialGradient><radialGradient cx="302" cy="125" r="9.125" gradientUnits="userSpaceOnUse" id="color-5"><stop offset="0" stop-color="#000000"/><stop offset="1" stop-color="#000000" stop-opacity="0"/></radialGradient><radialGradient cx="359.12605" cy="127.00001" r="5.34209" gradientUnits="userSpaceOnUse" id="color-6"><stop offset="0" stop-color="#000000"/><stop offset="1" stop-color="#000000" stop-opacity="0"/></radialGradient></defs><g transform="translate(-46.0874,-11.07772)"><g data-paper-data="{&quot;isPaintingLayer&quot;:true}" fill-rule="nonzero" stroke-width="0" stroke-linejoin="miter" stroke-miterlimit="10" stroke-dasharray="" stroke-dashoffset="0" style="mix-blend-mode: normal"><path d="M323.13642,278.46324c0,0 22.78879,22.71382 31.44583,23.66442c15.26718,1.67644 134.71338,-72.4197 134.71338,-72.4197l18.64798,149.13118c0,0 -22.97414,-102.81807 -42.56216,-102.39335c-19.58321,0.42462 -93.98515,51.54015 -115.11029,49.17567c-19.86638,-2.22358 -34.57671,-34.46414 -34.57671,-34.46414" data-paper-data="{&quot;index&quot;:null}" fill="#7d0a0c" stroke="#000000" stroke-linecap="round"/><path d="M308.94361,296.15731c0,0 -14.71033,32.24057 -34.57671,34.46414c-21.12513,2.36448 -95.52708,-48.75105 -115.11029,-49.17567c-19.58802,-0.42472 -42.56216,102.39335 -42.56216,102.39335l18.64798,-149.13118c0,0 119.4462,74.09614 134.71338,72.4197c8.65704,-0.9506 31.44583,-23.66441 31.44583,-23.66441" data-paper-data="{&quot;index&quot;:null}" fill="#7d0a0c" stroke="#000000" stroke-linecap="round"/><path d="M299.5,410.5v-335h29v335z" fill="#410506" stroke="none" stroke-linecap="butt"/><path d="M280.94361,202.15731c0,0 -14.71033,32.24056 -34.57671,34.46414c-21.12514,2.36447 -95.52708,-48.75105 -115.11029,-49.17567c-19.58802,-0.42472 -42.56215,102.39335 -42.56215,102.39335l18.64797,-149.13117c0,0 119.4462,74.09614 134.71338,72.4197c8.65704,-0.95059 31.44584,-23.66441 31.44584,-23.66441" data-paper-data="{&quot;index&quot;:null}" fill="#7d0a0c" stroke="#000000" stroke-linecap="round"/><path d="M251.00468,129.50444c0,0 -20.28771,29.05608 -40.22916,27.65754c-21.20496,-1.48715 -85.15941,-65.19173 -104.34438,-69.14387c-19.18968,-3.95311 -60.34374,93.02993 -60.34374,93.02993l45.2578,-143.31638c0,0 104.11129,94.43764 119.43031,95.54425c8.68644,0.62748 35.20051,-17.60026 35.20051,-17.60026" fill="#7d0a0c" stroke="#000000" stroke-linecap="round"/><path d="M364.75407,187.79122c0,0 22.7888,22.71382 31.44584,23.66441c15.26717,1.67643 134.71337,-72.4197 134.71337,-72.4197l18.64797,149.13117c0,0 -22.97414,-102.81807 -42.56215,-102.39335c-19.58321,0.42461 -93.98515,51.54013 -115.11029,49.17567c-19.86638,-2.22359 -34.57671,-34.46414 -34.57671,-34.46414" data-paper-data="{&quot;index&quot;:null}" fill="#7d0a0c" stroke="#000000" stroke-linecap="round"/><path d="M362.42319,123.76461c0,0 30.47839,9.75633 38.66492,6.94484c14.4374,-4.95823 88.86688,-117.78363 88.86688,-117.78363l82.60672,118.80163c0,0 -66.02969,-77.67863 -83.41536,-69.13073c-17.3814,8.5458 -61.55106,83.03567 -81.54784,89.85834c-18.80525,6.41613 -46.24439,-14.80399 -46.24439,-14.80399" data-paper-data="{&quot;index&quot;:null}" fill="#7d0a0c" stroke="#000000" stroke-linecap="round"/><g stroke="#000000"><path d="M372.71163,219.06489l-69.17947,45.17842l29.64831,-70.59127" fill="url(#color-1)" stroke-linecap="round"/><path d="M298.37681,283.56008c0,0 29.53299,-2.35187 39.53113,-14.71803c9.99813,-12.36613 12.76346,-30.60452 14.11825,-51.63776c1.35479,-21.03325 -9.88277,-14.11825 -9.88277,-14.11825l55.42848,-24.96808c0,0 8.20963,34.9124 1.04454,54.61644c-7.16509,19.70404 -18.65898,52.25664 -47.19003,66.72308c-28.53106,14.46647 -53.04959,-15.89738 -53.04959,-15.89738z" fill="url(#color-2)" stroke-linecap="round"/><path d="M322.37783,56.96207c0,9.84047 -34.12311,45.88432 -51.53161,45.88432c-28.46014,0 -51.53165,-20.54312 -51.53165,-45.88432c0,-25.3412 23.07149,-45.88435 51.53165,-45.88435c28.46014,0 51.53161,20.54312 51.53161,45.88435z" fill="url(#color-3)" stroke-linecap="butt"/><path d="M322.3778,40.7261c57.24234,-4.17037 126.47495,93.029 79.06224,144.00621c-22.22501,23.89592 -81.88589,28.23649 -81.88589,28.23649c0,0 -33.24663,21.48974 -38.11929,53.64937c-4.87265,32.15963 15.5301,81.88589 15.5301,81.88589c0,0 -67.00441,-55.47527 -70.59127,-84.70954c-7.76443,-63.28326 14.06469,-59.56179 16.94189,-86.12138c7.76704,-44.52643 -37.75865,-128.4362 79.06224,-136.9471z" fill="url(#color-4)" stroke-linecap="round"/></g><path d="M340.95443,130.99493c0,26.39904 -24.04126,39.54966 -44.75436,39.54966c-20.71305,0 -37.50436,-21.40066 -37.50436,-47.79966c0,-26.39904 16.79126,-47.79966 37.50436,-47.79966c20.71305,0 44.75436,29.65062 44.75436,56.04966z" fill="#000000" stroke="#000000" stroke-linecap="butt"/><path d="M380.52148,130.1071c0.47943,17.28761 -13.70665,23.0314 -23.52169,23.0314c-9.81502,0 -18.77169,-13.73715 -18.77169,-23.2814c0,-9.54426 11.45665,-26.5314 21.27169,-26.5314c9.81502,0 20.27169,-0.26285 21.02169,26.7814z" fill="#000000" stroke="#000000" stroke-linecap="butt"/><path d="M286.625,125c0,-8.21524 6.65976,-14.875 14.875,-14.875c8.21524,0 14.875,6.65976 14.875,14.875c0,8.21524 -6.65976,14.875 -14.875,14.875c-8.21524,0 -14.875,-6.65976 -14.875,-14.875z" fill="#ff0004" stroke="none" stroke-linecap="butt"/><path d="M292.875,125c0,-5.0396 4.0854,-9.125 9.125,-9.125c5.0396,0 9.125,4.0854 9.125,9.125c0,5.0396 -4.0854,9.125 -9.125,9.125c-5.0396,0 -9.125,-4.0854 -9.125,-9.125z" fill="url(#color-5)" stroke="none" stroke-linecap="butt"/><path d="M297.25,116.60476c0,2.35904 -1.71624,4.27143 -3.83333,4.27143c-2.11709,0 -3.83333,-1.91238 -3.83333,-4.27143c0,-2.35904 1.71624,-4.27143 3.83333,-4.27143c2.11709,0 3.83333,1.91238 3.83333,4.27143z" fill="#d1d1d1" stroke="none" stroke-linecap="butt"/><g stroke="none" stroke-linecap="butt"><path d="M350.125,127.00001c0,-4.80948 3.89885,-8.70833 8.70833,-8.70833c4.80948,0 8.70833,3.89885 8.70833,8.70833c0,4.80948 -3.89885,8.70833 -8.70833,8.70833c-4.80948,0 -8.70833,-3.89885 -8.70833,-8.70833z" fill="#ff0004"/><path d="M353.78396,127.00001c0,-2.95035 2.39173,-5.34209 5.34209,-5.34209c2.95035,0 5.34209,2.39173 5.34209,5.34209c0,2.95035 -2.39173,5.34209 -5.34209,5.34209c-2.95035,0 -5.34209,-2.39173 -5.34209,-5.34209z" fill="url(#color-6)"/><path d="M356.34523,122.08514c0,1.38106 -1.00475,2.50064 -2.24416,2.50064c-1.23942,0 -2.24416,-1.11957 -2.24416,-2.50064c0,-1.38106 1.00475,-2.50064 2.24416,-2.50064c1.23942,0 2.24416,1.11957 2.24416,2.50064z" fill="#d1d1d1"/></g></g></g></svg>