<svg version="1.1" xmlns="http://www.w3.org/2000/svg" xmlns:xlink="http://www.w3.org/1999/xlink" width="421.75925" height="300.53853" viewBox="0,0,421.75925,300.53853"><defs><linearGradient x1="247.70066" y1="211.62204" x2="297.04854" y2="211.62204" gradientUnits="userSpaceOnUse" id="color-1"><stop offset="0" stop-color="#c08775"/><stop offset="1" stop-color="#b0746f"/></linearGradient><linearGradient x1="259.71852" y1="252.38455" x2="259.71852" y2="322.84035" gradientUnits="userSpaceOnUse" id="color-2"><stop offset="0" stop-color="#5f5f5f"/><stop offset="1" stop-color="#a4a4a4"/></linearGradient><linearGradient x1="257.65176" y1="235.87331" x2="257.65176" y2="275.82204" gradientUnits="userSpaceOnUse" id="color-3"><stop offset="0" stop-color="#a4a4a4"/><stop offset="1" stop-color="#5f5f5f"/></linearGradient><linearGradient x1="397.94053" y1="212.12204" x2="348.59265" y2="212.12204" gradientUnits="userSpaceOnUse" id="color-4"><stop offset="0" stop-color="#c08775"/><stop offset="1" stop-color="#b0746f"/></linearGradient><linearGradient x1="385.92267" y1="252.88455" x2="385.92267" y2="323.34035" gradientUnits="userSpaceOnUse" id="color-5"><stop offset="0" stop-color="#5f5f5f"/><stop offset="1" stop-color="#a4a4a4"/></linearGradient><linearGradient x1="387.98943" y1="236.37331" x2="387.98943" y2="276.32204" gradientUnits="userSpaceOnUse" id="color-6"><stop offset="0" stop-color="#a4a4a4"/><stop offset="1" stop-color="#5f5f5f"/></linearGradient><linearGradient x1="285.15144" y1="231.41059" x2="285.15144" y2="268.41059" gradientUnits="userSpaceOnUse" id="color-7"><stop offset="0" stop-color="#383551"/><stop offset="1" stop-color="#2a284d"/></linearGradient><linearGradient x1="355.73386" y1="230.16059" x2="355.73386" y2="267.16059" gradientUnits="userSpaceOnUse" id="color-8"><stop offset="0" stop-color="#383551"/><stop offset="1" stop-color="#2a284d"/></linearGradient><linearGradient x1="322.03589" y1="169.21789" x2="322.03589" y2="236.21789" gradientUnits="userSpaceOnUse" id="color-9"><stop offset="0" stop-color="#383551"/><stop offset="1" stop-color="#2a284d"/></linearGradient><linearGradient x1="322.20256" y1="171.1487" x2="322.20256" y2="233.88455" gradientUnits="userSpaceOnUse" id="color-10"><stop offset="0" stop-color="#c08775"/><stop offset="1" stop-color="#b0746f"/></linearGradient><radialGradient cx="323.3216" cy="203.67669" r="25.16667" gradientUnits="userSpaceOnUse" id="color-11"><stop offset="0" stop-color="#875f52" stop-opacity="0"/><stop offset="1" stop-color="#875f52"/></radialGradient><radialGradient cx="321.33961" cy="205.83781" r="19.73238" gradientUnits="userSpaceOnUse" id="color-12"><stop offset="0" stop-color="#5e0c0c"/><stop offset="1" stop-color="#3c0a08"/></radialGradient><radialGradient cx="280.10964" cy="282.39694" r="24.69291" gradientUnits="userSpaceOnUse" id="color-13"><stop offset="0" stop-color="#707070"/><stop offset="1" stop-color="#575757"/></radialGradient><radialGradient cx="357.02644" cy="297.15652" r="24.69291" gradientUnits="userSpaceOnUse" id="color-14"><stop offset="0" stop-color="#707070"/><stop offset="1" stop-color="#575757"/></radialGradient><linearGradient x1="322.18012" y1="29.73071" x2="322.18012" y2="197.20813" gradientUnits="userSpaceOnUse" id="color-15"><stop offset="0" stop-color="#383551"/><stop offset="1" stop-color="#2a284d"/></linearGradient><linearGradient x1="380.24269" y1="119.13738" x2="380.24269" y2="160.02602" gradientUnits="userSpaceOnUse" id="color-16"><stop offset="0" stop-color="#383551"/><stop offset="1" stop-color="#2a284d"/></linearGradient><linearGradient x1="393.05999" y1="121.65856" x2="393.05999" y2="139.69299" gradientUnits="userSpaceOnUse" id="color-17"><stop offset="0" stop-color="#2e2a52"/><stop offset="1" stop-color="#1c1b34"/></linearGradient><linearGradient x1="389.59149" y1="114.01088" x2="389.59149" y2="124.88092" gradientUnits="userSpaceOnUse" id="color-18"><stop offset="0" stop-color="#2e2a52"/><stop offset="1" stop-color="#1c1b34"/></linearGradient><linearGradient x1="387.71645" y1="127.42842" x2="387.71645" y2="160.94439" gradientUnits="userSpaceOnUse" id="color-19"><stop offset="0" stop-color="#2e2a52"/><stop offset="1" stop-color="#1c1b34"/></linearGradient><linearGradient x1="394.25999" y1="126.22685" x2="394.25999" y2="154.19903" gradientUnits="userSpaceOnUse" id="color-20"><stop offset="0" stop-color="#2e2a52"/><stop offset="1" stop-color="#1c1b34"/></linearGradient><linearGradient x1="263.66901" y1="117.71047" x2="263.66901" y2="158.5991" gradientUnits="userSpaceOnUse" id="color-21"><stop offset="0" stop-color="#383551"/><stop offset="1" stop-color="#2a284d"/></linearGradient><linearGradient x1="250.85172" y1="120.23164" x2="250.85172" y2="138.26606" gradientUnits="userSpaceOnUse" id="color-22"><stop offset="0" stop-color="#2e2a52"/><stop offset="1" stop-color="#1c1b34"/></linearGradient><linearGradient x1="254.32022" y1="112.58398" x2="254.32022" y2="123.45403" gradientUnits="userSpaceOnUse" id="color-23"><stop offset="0" stop-color="#2e2a52"/><stop offset="1" stop-color="#1c1b34"/></linearGradient><linearGradient x1="256.19525" y1="126.00151" x2="256.19525" y2="159.51747" gradientUnits="userSpaceOnUse" id="color-24"><stop offset="0" stop-color="#2e2a52"/><stop offset="1" stop-color="#1c1b34"/></linearGradient><linearGradient x1="249.65173" y1="124.79992" x2="249.65173" y2="152.77211" gradientUnits="userSpaceOnUse" id="color-25"><stop offset="0" stop-color="#2e2a52"/><stop offset="1" stop-color="#1c1b34"/></linearGradient><linearGradient x1="310.96057" y1="85.59575" x2="310.96057" y2="127.68977" gradientUnits="userSpaceOnUse" id="color-26"><stop offset="0" stop-color="#000000"/><stop offset="1" stop-color="#000000" stop-opacity="0"/></linearGradient><linearGradient x1="294.70062" y1="88.96097" x2="294.70062" y2="128.54274" gradientUnits="userSpaceOnUse" id="color-27"><stop offset="0" stop-color="#2d2a41"/><stop offset="1" stop-color="#2a284d"/></linearGradient><linearGradient x1="348.21982" y1="91.21201" x2="348.21982" y2="131.50721" gradientUnits="userSpaceOnUse" id="color-28"><stop offset="0" stop-color="#2d2a41"/><stop offset="1" stop-color="#2a284d"/></linearGradient><linearGradient x1="323.13885" y1="121.08448" x2="323.13885" y2="188.54265" gradientUnits="userSpaceOnUse" id="color-29"><stop offset="0" stop-color="#c08775"/><stop offset="1" stop-color="#b0746f"/></linearGradient><linearGradient x1="321.05818" y1="130.37289" x2="321.05818" y2="141.40715" gradientUnits="userSpaceOnUse" id="color-30"><stop offset="0" stop-color="#191919"/><stop offset="1" stop-color="#000000"/></linearGradient><linearGradient x1="258.94624" y1="52.91809" x2="258.94624" y2="64.33342" gradientUnits="userSpaceOnUse" id="color-31"><stop offset="0" stop-color="#c08775"/><stop offset="1" stop-color="#b0746f"/></linearGradient><linearGradient x1="384.70703" y1="52.06195" x2="384.70703" y2="63.47727" gradientUnits="userSpaceOnUse" id="color-32"><stop offset="0" stop-color="#c08775"/><stop offset="1" stop-color="#b0746f"/></linearGradient></defs><g transform="translate(-201.49865,-29.73074)"><g data-paper-data="{&quot;isPaintingLayer&quot;:true}" fill-rule="nonzero" stroke-linecap="butt" stroke-linejoin="miter" stroke-miterlimit="10" stroke-dasharray="" stroke-dashoffset="0" style="mix-blend-mode: normal"><text transform="translate(427.5079,97.93182) scale(0.5,0.5)" font-size="40" xml:space="preserve" fill="#000000" fill-rule="nonzero" stroke="none" stroke-width="1" stroke-linecap="butt" stroke-linejoin="miter" stroke-miterlimit="10" stroke-dasharray="" stroke-dashoffset="0" font-family="Pixel" font-weight="normal" text-anchor="start" style="mix-blend-mode: normal"><tspan x="0" dy="0">*STOOOOOOOOOP</tspan></text><text transform="translate(427.5,95.5) scale(0.5,0.5)" font-size="40" xml:space="preserve" fill="#ffffff" fill-rule="nonzero" stroke="none" stroke-width="1" stroke-linecap="butt" stroke-linejoin="miter" stroke-miterlimit="10" stroke-dasharray="" stroke-dashoffset="0" font-family="Pixel" font-weight="normal" text-anchor="start" style="mix-blend-mode: normal"><tspan x="0" dy="0">*STOOOOOOOOOP</tspan></text><path d="M263.67654,196.48602c5.77547,-18.08571 20.82307,-34.07543 24.1232,-34.07543c6.63445,0 17.3517,18.80514 17.3517,28.83051c0,10.02537 -34.20878,34.16949 -40.84322,34.16949c-0.44395,0 -4.54273,-16.67726 -0.63168,-28.92457z" fill="#23213d" stroke="none" stroke-width="0"/><g stroke="none"><g><path d="M249.13236,245.02204c-4.41828,0 2.8,-17.31573 2.8,-25.6c0,-3.41062 9.10557,-10.9962 17.06834,-18.74099c11.37845,-11.06696 23.13238,-22.45901 25.73166,-22.45901c2.29191,0 5.02591,3.52464 -3.46126,16.15885c-3.55907,5.29811 -14.80428,14.23709 -20.1419,20.8386c-6.4715,8.00387 -2.59684,16.41766 -2.59684,18.60255c0,8.28427 -14.98172,11.2 -19.4,11.2z" fill="url(#color-1)" stroke-width="0"/><path d="M282.03627,288.05122c0,8.10018 -10.55668,34.33334 -17,34.33334c-6.44332,0 -25.66666,2.76684 -25.66666,-5.33334c0,-2.33215 -3.23544,-4.4367 -1.9928,-10.99863c0.03735,-0.19722 1.81443,-4.43235 1.96436,-6.735c0.49486,-7.60007 -0.24646,-20.53151 -0.09683,-21.22123c3.53548,-16.29771 26.77685,-25.71181 31.12527,-25.71181c6.44332,0 11.66666,27.56649 11.66666,35.66666z" fill="url(#color-2)" stroke-width="0"/><path d="M256.38534,259.17204c-1.8,0.84019 -3.44622,2.62074 -5.93903,6.07181c-3.48187,4.82032 -7.4252,10.57819 -10.16097,10.57819c-4.69442,0 -0.28648,-13.79855 -1.9,-16.85c-3.2,-6.05178 19.00676,-22.74476 25.1,-23.05c8.91019,-0.44636 14.26024,2.26585 12.94447,4.36583c-0.3005,0.4796 -0.76999,4.04398 -0.34964,7.1304c0.43912,3.22422 1.75802,5.98164 0.88375,6.77871c-3.05818,2.78811 -5.97681,1.22168 -10.25785,1.67205c-4.04594,0.42564 -9.52241,2.93039 -10.32072,3.30302z" fill="url(#color-3)" stroke-width="0"/><path d="M248.03627,311.38455c-1,0 -1,-1 -1,-1l0.04291,-0.71021c-0.72341,-0.9921 -1.03128,-2.38846 -1.79259,-3.29465c-0.65559,-0.78036 -1.92794,-1.12333 -2.22357,-2.09871c-0.21179,-0.69879 0.84078,-2.52942 1.10834,-3.06502c0.38817,-0.53234 0.3155,-1.29026 0.6077,-1.88076c0.82899,-1.67526 1.98247,-3.05344 2.27013,-5.11083c0.64786,-4.63377 -0.65626,-9.30884 -0.67958,-13.83982c0,0 0,-1 1,-1c0.05953,0 0.11551,0.00355 0.16816,0.01021c0.83151,-0.1735 1.11386,0.67356 1.11386,0.67356c0.40491,1.36028 1.62095,2.2304 2.29317,3.56504c0.54312,1.07831 0.5648,2.12952 0.74524,3.25767c0.73012,4.56489 2.13522,9.0273 0.98305,13.73605l0.02986,0.0908c0,0 0,1 -1,1c-1,0 -1,-1 -1,-1l0.02985,-0.57587c1.12271,-4.37932 0.39507,-11.6356 -1.60503,-15.67294c-0.03152,-0.06363 -0.06373,-0.12593 -0.09653,-0.187c0.76089,6.12233 0.00528,12.92953 -3.13005,17.93773c-0.2735,0.54642 -1.14076,1.04369 -0.89166,1.60165c0.29396,0.65847 1.31638,0.67931 1.77643,1.23461c0.9009,1.08745 1.44488,2.82066 2.20741,4.03869l0.0429,1.28978c0,0 0,1 -1,1z" fill="#000000" stroke-width="0.5"/><path d="M255.03627,269.38455c1,0 1,1 1,1l-0.05131,0.35044c0.59463,1.78387 1.19443,3.62531 1.67507,5.35978c0.87703,3.16485 -0.34203,6.56611 0.69666,9.79627c0,4.97995 0.68856,10.05602 0.67957,15.16018c-0.00317,1.8039 -0.96168,3.91567 0.16539,5.4453c0,0 0.5547,0.83205 -0.27735,1.38675c-0.83205,0.5547 -1.38675,-0.27735 -1.38675,-0.27735c-1.39633,-2.23093 -0.49658,-4.07396 -0.50128,-6.5547c-0.00946,-4.99178 -0.65375,-9.97207 -0.65375,-14.83981c-1.0967,-3.13826 0.26121,-6.52709 -0.63667,-9.53706c-0.51388,-1.72266 -1.0649,-3.52681 -1.65825,-5.30689l-0.05132,-0.98289c0,0 0,-1 1,-1z" fill="#000000" stroke-width="0.5"/><path d="M265.05338,274.10254c0.94869,-0.31623 1.26491,0.63246 1.26491,0.63246l0.37174,1.15604c0.01032,1.9772 0.66775,3.97325 0.33334,5.98703c-0.04561,0.27464 -1.07567,2.45015 -1.01384,2.61006c0.27262,0.70518 1.42532,0.69096 1.84417,1.32037c0.87977,1.32208 0.84925,3.39822 0.84925,4.90939c0,0 0,1 -1,1c-1,0 -1,-1 -1,-1c0,-1.05462 0.13112,-2.83727 -0.48408,-3.75729c-0.5465,-0.81728 -1.85819,-1.07593 -2.15583,-2.01297c-0.28526,-0.89806 0.83333,-2.47748 0.98616,-3.38994c0.3006,-1.79474 -0.34327,-3.58373 -0.33334,-5.3463l-0.29493,-0.84396c0,0 -0.31623,-0.94868 0.63245,-1.26491z" fill="#000000" stroke-width="0.5"/></g><path d="M248.64863,250.78152c0.375,0.33072 0.04428,0.70572 0.04428,0.70572l-0.37517,0.23775c-0.01273,4.64383 -4.90054,8.44091 -8.77622,10.37875c0,0 -0.44721,0.22361 -0.67082,-0.22361c-0.2236,-0.44722 0.2236,-0.67082 0.2236,-0.67082c3.53303,-1.76652 8.21264,-5.25419 8.22343,-9.48697l0.62518,-0.89654c0,0 0.33071,-0.375 0.70571,-0.04428z" fill="#000000" stroke-width="0.5"/><path d="M273.36546,251.15425c-0.49774,0.04755 -0.54528,-0.45019 -0.54528,-0.45019l0.40411,-0.05401c-0.64723,-0.09418 -1.11069,-0.69293 -1.64074,-1.07612c-0.21489,-0.15535 -0.46616,-0.21342 -0.73323,-0.23204l-0.00617,0.30514l-0.99854,-0.02021c-0.27205,-0.00473 -0.49114,-0.22673 -0.49114,-0.49992c0,-0.15847 0.07372,-0.29971 0.18873,-0.39132l0.77372,-0.62659l0.00887,0.01095l0.03394,-0.04202c1.57763,-0.80468 2.73038,-2.36621 4.45817,-2.42141c0,0 0.5,0 0.5,0.5c0,0.5 -0.5,0.5 -0.5,0.5c-1.13806,-0.05356 -2.31513,1.23485 -3.44318,1.98305c0.74121,0.07584 0.95468,1.01265 1.94044,1.01462l0.50047,0.95478c0,0 0.04755,0.49774 -0.45019,0.54528z" fill="#000000" stroke-width="0.5"/></g><path d="M298.02644,275.15652c0,4.69442 -10.6708,14 -20.75,14c-10.0792,0 -18.75,-13.30558 -18.75,-18c0,-4.69442 8.6708,1 18.75,1c10.0792,0 20.75,-1.69442 20.75,3z" fill="#454545" stroke="none" stroke-width="0"/><path d="M373.84347,222.91059c-6.63444,0 -40.84322,-24.14412 -40.84322,-34.16949c0,-10.02537 10.71726,-28.83051 17.3517,-28.83051c3.30013,0 18.34773,15.98972 24.1232,34.07543c3.91105,12.24731 -0.18774,28.92457 -0.63168,28.92457z" data-paper-data="{&quot;index&quot;:null}" fill="#23213d" stroke="none" stroke-width="0"/><g data-paper-data="{&quot;index&quot;:null}" stroke="none"><g><path d="M377.10883,234.32204c0,-2.18489 3.87466,-10.59868 -2.59684,-18.60255c-5.33762,-6.60151 -16.58283,-15.54049 -20.14189,-20.8386c-8.48717,-12.63421 -5.75317,-16.15885 -3.46127,-16.15885c2.59927,0 14.35321,11.39205 25.73165,22.45901c7.96278,7.74479 17.06835,15.33037 17.06835,18.74099c0,8.28427 7.21828,25.6 2.8,25.6c-4.41828,0 -19.4,-2.91573 -19.4,-11.2z" fill="url(#color-4)" stroke-width="0"/><path d="M375.27159,252.88455c4.34842,0 27.58979,9.4141 31.12527,25.7118c0.14963,0.68973 -0.59169,13.62116 -0.09683,21.22123c0.14993,2.30264 1.92701,6.53778 1.96436,6.735c1.24264,6.56194 -1.9928,8.66648 -1.9928,10.99864c0,8.10017 -19.22335,5.33334 -25.66667,5.33334c-6.44332,0 -17,-26.23316 -17,-34.33334c0,-8.10018 5.22334,-35.66666 11.66667,-35.66666z" fill="url(#color-5)" stroke-width="0"/><path d="M378.93513,256.36903c-4.28105,-0.45038 -7.19968,1.11606 -10.25785,-1.67205c-0.87427,-0.79706 0.44462,-3.55448 0.88374,-6.77871c0.42035,-3.08642 -0.04914,-6.6508 -0.34964,-7.1304c-1.31577,-2.09997 4.03429,-4.81218 12.94447,-4.36583c6.09324,0.30524 28.3,16.99822 25.1,23.05c-1.61352,3.05145 2.79442,16.85 -1.9,16.85c-2.73577,0 -6.67909,-5.75788 -10.16096,-10.57819c-2.49281,-3.45106 -4.13903,-5.23162 -5.93903,-6.07181c-0.79832,-0.37262 -6.27478,-2.87738 -10.32072,-3.30301z" fill="url(#color-6)" stroke-width="0"/><path d="M396.60492,310.88455l0.04291,-1.28979c0.76253,-1.21803 1.30651,-2.95124 2.20741,-4.03868c0.46004,-0.5553 1.48247,-0.57614 1.77643,-1.23461c0.2491,-0.55797 -0.61816,-1.05524 -0.89166,-1.60166c-3.13533,-5.0082 -3.89093,-11.8154 -3.13005,-17.93773c-0.0328,0.06107 -0.065,0.12336 -0.09653,0.187c-2.00011,4.03734 -2.72775,11.29361 -1.60503,15.67294l0.02985,0.57587c0,0 0,1 -1,1c-1,0 -1,-1 -1,-1l0.02986,-0.0908c-1.15217,-4.70875 0.25293,-9.17115 0.98306,-13.73605c0.18044,-1.12815 0.20212,-2.17936 0.74524,-3.25768c0.67222,-1.33465 1.88826,-2.20476 2.29317,-3.56504c0,0 0.28235,-0.84706 1.11386,-0.67356c0.05265,-0.00666 0.10863,-0.01021 0.16816,-0.01021c1,0 1,1 1,1c-0.02332,4.53098 -1.32744,9.20605 -0.67958,13.83982c0.28765,2.0574 1.44114,3.43556 2.27013,5.11083c0.2922,0.59049 0.21953,1.34841 0.6077,1.88075c0.26756,0.5356 1.32013,2.36623 1.10834,3.06502c-0.29563,0.97538 -1.56798,1.31835 -2.22357,2.09872c-0.7613,0.9062 -1.06918,2.30255 -1.79259,3.29465l0.04291,0.71022c0,0 0,1 -1,1c-1,0 -1,-1 -1,-1z" fill="#000000" stroke-width="0.5"/><path d="M391.60492,270.88455l-0.05132,0.98289c-0.59336,1.78008 -1.14438,3.58424 -1.65825,5.30689c-0.89788,3.00998 0.46002,6.39881 -0.63668,9.53706c0,4.86775 -0.64429,9.84803 -0.65375,14.83982c-0.0047,2.48074 0.89505,4.32377 -0.50128,6.5547c0,0 -0.5547,0.83205 -1.38675,0.27735c-0.83205,-0.5547 -0.27735,-1.38675 -0.27735,-1.38675c1.12707,-1.52963 0.16856,-3.6414 0.16539,-5.4453c-0.00898,-5.10416 0.67957,-10.18023 0.67957,-15.16018c1.03869,-3.23016 -0.18036,-6.63142 0.69666,-9.79627c0.48064,-1.73446 1.08045,-3.57591 1.67507,-5.35978l-0.05131,-0.35044c0,0 0,-1 1,-1c1,0 1,1 1,1z" fill="#000000" stroke-width="0.5"/><path d="M381.22027,275.86745l-0.29492,0.84395c0.00993,1.76257 -0.63394,3.55156 -0.33334,5.3463c0.15283,0.91246 1.27142,2.49188 0.98616,3.38994c-0.29764,0.93703 -1.60933,1.19568 -2.15583,2.01297c-0.61521,0.92002 -0.48408,2.70266 -0.48408,3.75728c0,0 0,1 -1,1c-1,0 -1,-1 -1,-1c0,-1.51117 -0.03052,-3.5873 0.84925,-4.90938c0.41884,-0.62941 1.57155,-0.6152 1.84417,-1.32037c0.06182,-0.15992 -0.96823,-2.33542 -1.01384,-2.61006c-0.33442,-2.01378 0.32301,-4.00983 0.33334,-5.98703l0.37174,-1.15605c0,0 0.31622,-0.94868 1.26491,-0.63245c0.94869,0.31623 0.63245,1.26491 0.63245,1.26491z" fill="#000000" stroke-width="0.5"/></g><path d="M397.69827,251.3258l0.62518,0.89654c0.01079,4.23278 4.6904,7.72045 8.22343,9.48697c0,0 0.44721,0.2236 0.22361,0.67082c-0.22361,0.44721 -0.67082,0.22361 -0.67082,0.22361c-3.87568,-1.93783 -8.76348,-5.73492 -8.77622,-10.37875l-0.37517,-0.23775c0,0 -0.33072,-0.375 0.04428,-0.70572c0.375,-0.33072 0.70571,0.04428 0.70571,0.04428z" fill="#000000" stroke-width="0.5"/><path d="M371.82554,251.10897l0.50047,-0.95478c0.98576,-0.00197 1.19924,-0.93878 1.94044,-1.01462c-1.12805,-0.7482 -2.30512,-2.03661 -3.44318,-1.98305c0,0 -0.5,0 -0.5,-0.5c0,-0.5 0.5,-0.5 0.5,-0.5c1.7278,0.0552 2.88054,1.61673 4.45817,2.42141l0.03394,0.04202l0.00887,-0.01095l0.77372,0.62659c0.11502,0.0916 0.18873,0.23285 0.18873,0.39132c0,0.27319 -0.21909,0.49519 -0.49114,0.49992l-0.99854,0.02021l-0.00617,-0.30514c-0.26707,0.01862 -0.51833,0.0767 -0.73323,0.23204c-0.53005,0.38319 -0.9935,0.98194 -1.64074,1.07612l0.40411,0.05401c0,0 -0.04754,0.49774 -0.54528,0.45019c-0.49773,-0.04755 -0.45019,-0.54528 -0.45019,-0.54528z" fill="#000000" stroke-width="0.5"/></g><path d="M360.77644,277.65652c10.0792,0 18.75,-5.69442 18.75,-1c0,4.69442 -8.6708,18 -18.75,18c-10.0792,0 -20.75,-9.30558 -20.75,-14c0,-4.69442 10.6708,-3 20.75,-3z" data-paper-data="{&quot;index&quot;:null}" fill="#454545" stroke="none" stroke-width="0"/><path d="M328.15744,234.4136c0,3.15114 -6.7161,5.82965 -11.17135,9.86302c-2.96282,2.68227 -1.81028,8.63698 -3.07865,8.63698c-1.5405,0 -4.96863,-4.88346 -3.4564,-8.45179c1.60513,-3.78754 6.2064,-7.34668 6.2064,-10.04821c0,-5.2467 2.57437,-9.5 5.75,-9.5c3.17564,0 5.75,4.2533 5.75,9.5z" fill="#1b192f" stroke="none" stroke-width="0"/><path d="M288.40145,254.91058c0,0.87445 -5.19764,7.00912 -4.12553,8.96966c6.00802,10.98665 11.66522,19.37297 10.16885,25.35373c-1.74536,6.97593 -13.19358,-0.91476 -16.15507,0.08115c-1.64955,0.55473 -5.31537,-17.65454 -6.88826,-17.65454c-5.59163,0 -7.15539,-2.83065 -6.46264,-8.55598c0.23096,-1.9088 2.71264,-4.13935 2.71264,-6.69402c0,-3.17437 13.48306,-9.21511 16.44054,-13.62213c6.56169,-9.77774 14.67005,-21.12786 19.80946,-21.12786c0.32835,0 7.8633,-0.06301 6.21259,8.7277c-0.70274,3.7424 -21.71259,21.66297 -21.71259,24.5223z" fill="url(#color-7)" stroke="none" stroke-width="0"/><path d="M330.77127,229.13829c-1.65071,-8.79071 5.88424,-8.7277 6.21259,-8.7277c5.13941,0 13.99777,4.60012 20.55946,14.37786c2.95749,4.40702 15.94054,4.44777 15.94054,7.62214c0,2.55468 4.98168,10.53522 5.21263,12.44402c0.69275,5.72533 0.62899,6.05598 -4.96263,6.05598c-1.57288,0 -9.48871,27.70926 -11.13826,27.15454c-2.96148,-0.99592 -14.40971,6.89478 -16.15506,-0.08115c-1.49637,-5.98076 6.16083,-18.11708 12.16885,-29.10374c1.07211,-1.96053 -27.13537,-25.99955 -27.83811,-29.74195z" data-paper-data="{&quot;index&quot;:null}" fill="url(#color-8)" stroke="none" stroke-width="0"/><g stroke="none"><g stroke-width="0"><path d="M357.53589,198.05122c0,18.50154 -16.18255,35.83334 -34.5,35.83334c-18.31744,0 -36.16667,-14.33179 -36.16667,-32.83334c0,-18.50154 14.84922,-37.16666 33.16667,-37.16666c18.31744,0 37.5,15.66512 37.5,34.16666z" fill="url(#color-9)"/><path d="M354.86922,201.76977c0,16.58157 -14.96123,32.11478 -31.89623,32.11478c-16.935,0 -33.4371,-12.84453 -33.4371,-29.4261c0,-16.58157 13.72852,-33.30975 30.66352,-33.30975c16.935,0 34.66981,14.0395 34.66981,30.62107z" fill="url(#color-10)"/><path d="M348.48827,189.14646c-3.33334,3.32672 -6.49356,7.59995 -16.43259,17.75727c-1.33605,1.36539 -1.72833,3.4857 -3.16782,5.03393c-1.05479,1.13446 15.51201,10.56799 13.19202,10.78612c-0.30216,0.02841 -20.48701,-10.03395 -20.84412,-9.88578c-0.49679,0.20612 -0.90762,2.99348 -1.5286,3.22237c-0.65585,0.24174 -1.59171,-3.52572 -2.31994,-3.21687c-7.36007,3.12153 -18.2126,9.12697 -19.96528,8.08077c-1.09777,-0.65528 13.08751,-10.99453 12.73301,-11.44448c-6.04028,-7.66666 -10.66666,-19.14382 -12.66666,-25c-1.78493,-5.22645 14.95972,20 20.66666,20c2.05104,0 5.80415,-2.18834 11.05218,-5.16274c9.35436,-5.30174 21.78536,-12.66983 19.28116,-10.17059z" fill="url(#color-11)"/><path d="M346.1533,191.67094c-3.55691,2.85104 -11.96986,10.61948 -21.49479,20.26603c-0.82702,0.83758 13.8854,7.45856 12.06637,7.61961c-0.23692,0.02097 -16.74072,-7.06428 -17.02072,-6.95488c-0.38951,0.15218 -0.37288,2.21013 -0.85977,2.37912c-0.51423,0.17848 -1.58677,-2.60307 -2.15775,-2.37504c-2.45875,0.98194 -5.25557,0.86768 -7.82782,2.05206c-1.46103,0.67272 -2.8496,1.56518 -4.06263,2.40582c-1.66376,1.153 -2.99728,2.2085 -3.73452,2.46579c-0.76421,0.32216 1.75311,-1.1177 4.36863,-3.21675c3.2288,-2.59124 6.78474,-6.00686 6.63118,-6.19039c-4.73599,-5.66038 -9.94611,-18.28458 -12.48676,-22.70606c-1.34543,-2.34143 4.55151,6.73846 10.42502,13.31957c2.96169,3.3185 6.42266,6.25809 7.92263,6.25809c0.31563,0 3.03153,-0.76805 5.53444,-2.15006c2.42989,-1.34169 4.62009,-3.2818 6.77429,-4.3622c6.93241,-3.47681 17.16051,-9.80325 15.92222,-8.8107z" fill="url(#color-12)"/></g><path d="M334.00283,204.8159c0.22361,0.11181 0.1118,0.33541 0.1118,0.33541l-0.11764,0.23387c-0.04167,0.125 -0.08333,0.25 -0.125,0.375c-0.87275,1.71239 -3.02392,2.0295 -4.59229,3.11234c0,0 -0.20801,0.13868 -0.34669,-0.06934c-0.13868,-0.20801 0.06934,-0.34669 0.06934,-0.34669c1.44494,-0.91871 3.68648,-1.40192 4.4077,-2.88766c0.04167,-0.125 0.08333,-0.25 0.125,-0.375l0.13236,-0.26613c0,0 0.11181,-0.22361 0.33541,-0.11181z" fill="#000000" stroke-width="0.5"/><path d="M325.8178,201.61273c0.17677,0.17677 0,0.35356 0,0.35356l-0.29534,0.28589c-1.14106,0.38927 -1.80431,0.71526 -3.13787,0.25c-0.13993,-0.1378 -0.2209,-0.32496 -0.33924,-0.4817c-0.14604,-0.19341 -0.02887,0.49352 -0.12407,0.71639c-0.12143,0.28429 -0.50686,0.68803 -0.70245,0.94882c-0.8518,1.13573 -1.65736,1.72882 -3.07781,1.72882c0,0 -0.25,0 -0.25,-0.25c0,-0.25 0.25,-0.25 0.25,-0.25c2.45765,0 2.09451,-2.06468 3.42219,-3.14617c0.70271,-0.57241 0.72065,-0.06504 1.08425,0.30851c1.15562,0.36345 1.61161,0.07064 2.61213,-0.25l0.20466,-0.21411c0,0 0.17678,-0.17677 0.35355,0z" fill="#000000" stroke-width="0.5"/><path d="M307.86463,212.1777c0.11181,0.2236 -0.1118,0.33541 -0.1118,0.33541l-0.21562,0.1042c-0.33182,0.33182 -1.45528,1.40744 -1.83497,1.589c-0.35025,1.04522 -1.16071,0.79458 -1.79003,1.286c-0.86941,0.67889 -1.38828,2.31883 -2.40938,2.8958c0,0 -0.2236,0.1118 -0.33541,-0.11181c-0.11181,-0.2236 0.1118,-0.33541 0.1118,-0.33541c0.97348,-0.36697 1.51901,-2.25378 2.34063,-2.85421c0.68249,-0.49876 1.31733,-0.2289 1.70997,-1.214c0.50689,-0.2637 1.47939,-1.22536 1.91503,-1.661l0.28437,-0.14579c0,0 0.2236,-0.1118 0.33541,0.11181z" fill="#000000" stroke-width="0.5"/><path d="M305.62783,201.01311c-0.2236,0.11181 -0.33541,-0.11181 -0.33541,-0.11181l-0.03283,-0.14914c-0.52128,-0.06334 -0.43273,-0.72311 -0.79534,-1.03589c0,0 -0.17677,-0.17678 0,-0.35356c0.17677,-0.17677 0.35355,0 0.35355,0c0.27406,0.2983 0.41681,1.01459 0.70466,0.96411l0.21717,0.35086c0,0 0.1118,0.2236 -0.1118,0.33541z" fill="#000000" stroke-width="0.5"/><path d="M305.64103,192.7895c0,0.25 -0.25,0.25 -0.25,0.25l-0.38143,-0.03733c-0.71009,-1.4202 -2.58897,-2.47576 -3.57658,-3.94899c0,0 -0.13868,-0.20801 0.06934,-0.34669c0.20801,-0.13868 0.34669,0.06933 0.34669,0.06933c0.94925,1.43273 2.75779,2.46976 3.42342,3.80102l0.11856,-0.03734c0,0 0.25,0 0.25,0.25z" fill="#000000" stroke-width="0.5"/><path d="M330.38791,217.36891c-0.04982,0.24499 -0.29481,0.19515 -0.29481,0.19515l-0.21628,-0.05082c-1.21735,0.27248 -3.27606,-1.00177 -4.53752,-1.25834c0,0 -0.24498,-0.04982 -0.19515,-0.29481c0.04982,-0.24499 0.29481,-0.19516 0.29481,-0.19516c1.0804,0.21974 3.42684,1.57977 4.42228,1.24855l0.33152,0.0606c0,0 0.24498,0.04982 0.19515,0.29481z" fill="#000000" stroke-width="0.5"/></g><path d="M201.49865,322.82204c0,-11.87412 48.7746,-39.5 67,-39.5c18.2254,0 45,-3.37412 47,33.5c0.64309,11.85669 -114,17.87412 -114,6z" fill="#0f1110" stroke="none" stroke-width="0"/><path d="M324.50135,317.82204c2,-36.87412 28.77461,-33.5 47,-33.5c18.22539,0 67,27.62588 67,39.5c0,11.87412 -114.64309,5.8567 -114,-6z" data-paper-data="{&quot;index&quot;:null}" fill="#0f1110" stroke="none" stroke-width="0"/><path d="M288.85519,276.01564c4.07264,-1.3942 6.06029,-4.044 10.00815,-2.80289c1.12862,0.35481 1.09347,3.41121 2.05287,6.52056c0.91839,2.97645 2.84515,6.01171 3.31966,6.32018c2.07771,1.35065 -1.63282,6.06353 -9.90248,9.41066c-5.65522,2.28894 -32.82641,-3.50089 -32.47229,-10.33746c0.17856,-3.44716 -9.62995,-14.10657 -5.37202,-16.08334c2.4814,-1.152 8.48265,2.41001 13.67055,5.31595c3.71423,2.08049 5.95716,3.00228 7.94359,3.00638c0.881,0.00182 6.90297,-0.03241 10.75196,-1.35005z" data-paper-data="{&quot;index&quot;:null}" fill="url(#color-13)" stroke="none" stroke-width="0"/><path d="M360.61604,281.86569c1.98642,-0.0041 4.22935,-0.9259 7.94359,-3.00638c5.18791,-2.90594 11.18916,-6.46796 13.67055,-5.31595c4.25793,1.97677 -5.55057,12.63619 -5.37201,16.08335c0.35412,6.83657 -26.81707,12.6264 -32.47229,10.33745c-8.26966,-3.34713 -11.98019,-8.06001 -9.90248,-9.41066c0.47452,-0.30847 2.40127,-3.34373 3.31966,-6.32018c0.95939,-3.10935 0.92425,-6.16575 2.05286,-6.52056c3.94786,-1.24111 5.93552,1.40868 10.00815,2.80289c3.84898,1.31764 9.87096,1.35186 10.75196,1.35005z" data-paper-data="{&quot;index&quot;:null}" fill="url(#color-14)" stroke="none" stroke-width="0"/><path d="M275.24865,326.82204c-3.57329,0 -6.71793,-11.7153 -15.07863,-19.49072c-7.14598,-6.64573 -23.92137,-10.70064 -20.92137,-14.00928c2.06062,-2.27262 6.70433,-5.75 10.5,-5.75c2.85922,0 14.66828,4.88717 23.1199,12.88744c9.42062,8.91752 15.45775,21.21802 16.56889,24.90498c0.20262,0.67232 -7.56137,1.45758 -14.18878,1.45758z" fill="#9d9d9d" stroke="none" stroke-width="0"/><path d="M351.89714,326.61446c1.11113,-3.68696 7.14827,-15.98745 16.56889,-24.90497c8.45162,-8.00027 20.26067,-12.88745 23.11989,-12.88745c3.79567,0 8.43938,3.47739 10.5,5.75c3,3.30864 -13.77538,7.36355 -20.92136,14.00928c-8.3607,7.77542 -11.50535,19.49072 -15.07864,19.49072c-6.62741,0 -14.39141,-0.78526 -14.18878,-1.45758z" data-paper-data="{&quot;index&quot;:null}" fill="#9d9d9d" stroke="none" stroke-width="0"/><g><path d="M394.43223,41.43087c0.09506,-0.02846 -5.17429,30.02983 -3.91597,31.18565c5.51607,5.06673 22.98973,22.27686 24.53232,28.09279c3.47852,13.11481 6.29781,32.13136 3.01195,36.7913c-1.57049,2.22725 -26.76348,-24.17016 -26.63535,-24.01661c5.61612,6.7291 10.35607,14.28915 12.99689,22.85967c3.84534,12.47965 -12.11244,52.43008 -14.44621,59.0282c-0.17435,0.4929 -4.84472,-21.88243 -15.03904,-31.18443c-5.55749,-5.07104 -2.1524,-33.36736 -5.05813,-56.46092c-1.19946,-9.53278 -9.92961,-10.351 -15.50992,-12.62143c-0.15106,-0.06146 -29.6268,29.29713 -33.7785,29.67322c-3.38971,-1.48005 -19.74,-31.02274 -31.06265,-32.68347c-16.34901,0.19967 -19.4084,14.49179 -19.90687,15.96501c-5.42272,16.02676 11.45849,42.64065 2.77257,59.32114c-0.75927,1.45809 -2.15275,6.84822 -3.32736,8.07369c-9.50042,9.91179 -15.29344,24.07369 -17.94582,21.43063c-0.47764,-0.47595 -9.34832,-24.306 -7.91907,-45.88959c0.4782,-7.22152 -0.17963,-10.31155 2.80179,-15.93532c2.95323,-5.57059 2.38055,-9.07032 2.38055,-9.36957c0,-1.41028 -19.76863,17.42424 -22.60505,17.28146c-1.15045,-0.05791 -2.89077,-27.47039 6.28087,-46.45636c7.38515,-15.28783 21.38637,-19.99386 21.05969,-21.67652c-2.22314,-11.45105 -3.97034,-31.13571 -3.6587,-31.93625c0.65874,-1.69222 36.0925,12.02249 36.38404,10.7291c3.41484,-15.14923 22.10315,-23.90152 34.97011,-23.90152c10.16814,0 29.31726,10.671 34.6029,21.81237c0.76608,1.61478 30.62275,-7.59936 39.01498,-10.11222z" fill="url(#color-15)" stroke="#000000" stroke-width="0"/><path d="M375.63583,119.53591c0.12689,-1.05754 3.44638,0.14057 4.31524,1.82563c2.25308,4.36965 3.43169,6.88629 4.17722,12.43355c1.538,11.4439 0.21335,28.90058 0.13621,25.88673c-0.10868,-4.24608 0.42299,2.74452 -0.02404,-1.52183c-0.2501,-2.38684 -0.5741,-13.34082 -2.48868,-19.7521c-0.07024,-0.2352 -6.52435,-15.46837 -6.11594,-18.87198z" data-paper-data="{&quot;index&quot;:null}" fill="url(#color-16)" stroke="#000000" stroke-width="0"/><path d="M372.56039,123.8372c-0.92751,-0.68242 2.43869,-2.30557 4.35984,-2.17071c4.98188,0.34968 7.27815,1.04918 12.72743,3.37383c11.24176,4.79573 26.55392,16.06126 23.72903,14.50666c-3.97989,-2.19023 2.71846,1.10197 -1.42025,-0.79826c-2.31544,-1.0631 -12.33889,-6.87075 -19.07271,-8.62106c-0.24702,-0.0642 -17.33818,-4.09411 -20.32333,-6.29046z" data-paper-data="{&quot;index&quot;:null}" fill="url(#color-17)" stroke="#000000" stroke-width="0"/><path d="M371.56751,124.88092c-1.05901,0.00625 -0.18981,-2.99949 1.07611,-3.94279c3.28277,-2.44614 5.18638,-3.18195 10.18606,-4.44446c10.31428,-2.60453 27.79696,-2.70809 24.95158,-2.30791c-4.00876,0.56381 2.45229,-0.67182 -1.44264,0.18907c-2.17905,0.48162 -12.48667,1.68948 -17.85073,4.0662c-0.19678,0.08719 -13.51202,6.41976 -16.92039,6.43989z" data-paper-data="{&quot;index&quot;:null}" fill="url(#color-18)" stroke="#000000" stroke-width="0"/><path d="M374.31847,128.33407c-0.38416,-1.00041 3.15231,-1.32473 4.72353,-0.1815c4.0744,2.96458 6.31444,4.72208 9.59319,9.37572c6.76399,9.60037 13.7948,25.78996 12.30709,23.12361c-2.09599,-3.75652 1.67066,2.27961 -0.73787,-1.35264c-1.34747,-2.03209 -6.79374,-11.70474 -11.52605,-16.64003c-0.17359,-0.18105 -13.1235,-11.10542 -14.35989,-14.32516z" data-paper-data="{&quot;index&quot;:null}" fill="url(#color-19)" stroke="#000000" stroke-width="0"/><path d="M374.70209,127.34582c-0.7645,-0.9152 3.50977,-1.50261 5.56099,-0.82608c5.31916,1.75437 7.57397,3.07622 12.68172,6.84689c10.5372,7.77882 23.15826,22.88707 20.63824,20.59915c-3.55034,-3.22339 2.5692,1.82602 -1.26086,-1.16617c-2.14275,-1.67402 -10.97775,-10.07011 -17.70008,-13.65957c-0.24661,-0.13168 -17.45954,-8.84872 -19.92001,-11.79421z" data-paper-data="{&quot;index&quot;:null}" fill="url(#color-20)" stroke="#000000" stroke-width="0"/><path d="M262.15993,136.98097c-1.91458,6.41128 -2.23859,17.36526 -2.48868,19.75211c-0.44704,4.26635 0.08465,-2.72426 -0.02403,1.52182c-0.07715,3.01384 -1.4018,-14.44284 0.13619,-25.88673c0.74552,-5.54726 1.92415,-8.06391 4.17723,-12.43355c0.86885,-1.68506 4.18835,-2.88317 4.31524,-1.82563c0.4084,3.4036 -6.04571,18.63678 -6.11595,18.87198z" fill="url(#color-21)" stroke="#000000" stroke-width="0"/><path d="M374.72112,135.95427c0,5.92209 5.26049,33.21525 -6.22406,42.42565c-4.58639,3.67819 -15.70265,6.85769 -24.90954,5.24803c-8.77192,-1.53361 -15.5602,-7.78358 -23.18962,-7.54167c-7.88191,0.24991 -32.32238,6.54036 -39.07182,2.74281c-7.71546,-4.34107 -7.67651,-12.59327 -8.26058,-20.7292c-0.6012,-8.37462 -1.70939,-16.62605 -1.70939,-20.36196c0,-10.54036 29.24889,0.17836 49.04179,0.17836c19.7929,0 54.32322,-12.50236 54.32322,-1.96201z" fill="#000000" stroke="none" stroke-width="0"/><path d="M251.02797,128.70073c-6.73381,1.75033 -16.75727,7.55797 -19.0727,8.62106c-4.1387,1.90023 2.55964,-1.39198 -1.42025,0.79826c-2.82489,1.55461 12.48726,-9.71092 23.72903,-14.50666c5.44928,-2.32466 7.74555,-3.02415 12.72743,-3.37383c1.92115,-0.13486 5.28735,1.48829 4.35984,2.17071c-2.98514,2.19634 -20.07631,6.22624 -20.32333,6.29045z" fill="url(#color-22)" stroke="#000000" stroke-width="0"/><path d="M255.42381,117.01412c-5.36406,-2.37672 -15.67167,-3.58456 -17.85073,-4.06619c-3.89494,-0.86089 2.56612,0.37474 -1.44263,-0.18908c-2.84537,-0.40018 14.63729,-0.29663 24.95156,2.3079c4.9997,1.26251 6.9033,1.99833 10.18607,4.44447c1.26592,0.9433 2.13513,3.94903 1.0761,3.94279c-3.40837,-0.02012 -16.72361,-6.3527 -16.92038,-6.4399z" fill="url(#color-23)" stroke="#000000" stroke-width="0"/><path d="M373.69057,112.61562c0,9.29303 -2.64006,19.3641 -15.22826,25.65091c-10.89677,5.44208 -29.24685,6.7627 -41.95902,6.7627c-27.39756,0 -48.72743,-16.0762 -48.72743,-33.41362c0,-9.28112 12.81036,-21.45194 23.3304,-20.8337c9.13169,0.53666 16.08683,35.22205 28.81782,35.22205c13.21205,0 17.8835,-28.15309 30.54848,-28.82204c13.99018,-0.73894 17.22433,4.54395 19.8811,9.75718c1.01745,1.99648 3.33691,5.67652 3.33691,5.67652z" fill="#000000" stroke="none" stroke-width="0"/><path d="M255.23336,141.23232c-4.73231,4.93529 -10.17858,14.60793 -11.52605,16.64003c-2.40851,3.63225 1.35812,-2.40387 -0.73787,1.35265c-1.48772,2.66635 5.5431,-13.52325 12.3071,-23.12361c3.27874,-4.65364 5.51878,-6.41115 9.59319,-9.37572c1.57121,-1.14322 5.10769,-0.81891 4.72353,0.1815c-1.23639,3.21974 -14.18628,14.14412 -14.35989,14.32516z" fill="url(#color-24)" stroke="#000000" stroke-width="0"/><path d="M249.2896,137.71312c-6.72233,3.58945 -15.55731,11.98555 -17.70008,13.65956c-3.83006,2.9922 2.28948,-2.0572 -1.26087,1.16618c-2.52,2.28794 10.10105,-12.82032 20.63826,-20.59915c5.10774,-3.77067 7.36257,-5.09253 12.68173,-6.84688c2.05122,-0.67653 6.32549,-0.08913 5.56099,0.82607c-2.46047,2.94549 -19.67342,11.66253 -19.92002,11.79422z" fill="url(#color-25)" stroke="#000000" stroke-width="0"/><path d="M370.64851,110.23797c-6.92852,5.53857 -38.39297,19.3549 -51.01974,19.53266c-3.4201,0.04816 -9.1796,-10.88018 -12.69214,-10.88018c-26.04331,0 -35.83823,8.41338 -35.83823,-3.21056c0,-8.49823 4.89745,-17.28817 21.36027,-22.93575c1.57244,-0.53942 13.15131,11.52691 17.85468,12.75001c0.23825,0.06195 0.65629,-1.41376 -0.2359,-3.03462c-0.57643,-1.04719 -1.77385,-1.97636 -2.54996,-2.96268c-1.11279,-1.41422 -1.55295,-2.71414 -1.34555,-2.68287c0.95199,0.14356 0.04326,-4.32362 0.9646,-4.06048c0.1926,0.055 -0.55847,2.21576 -0.17854,3.14279c0.55961,1.36547 2.28328,1.65901 2.54769,1.72203c0.2623,0.06252 0.66699,0.65632 1.12851,1.0142c0.57652,0.44705 1.24169,0.71051 1.82865,1.23724c0.64747,0.58104 1.19976,1.18459 1.43293,1.12146c0.17074,-0.04623 0.58713,0.99462 0.8487,2.49503c0.2197,1.26029 0.25612,2.82149 0.673,4.56426c0.54719,2.28754 0.78759,5.64064 1.42739,7.72932c1.06578,3.47932 2.49583,4.99775 2.84108,3.59078c0.12373,-0.50424 -0.44609,-1.361 -0.50541,-2.46871c-0.05252,-0.98068 -0.0319,-2.85281 0.30792,-4.13712c0.36001,-1.36064 1.03725,-2.14884 0.85614,-3.7293c-0.12989,-1.13356 -0.90845,-2.14057 -1.13589,-3.30645c-0.15984,-0.81937 -1.83255,-1.5531 -1.99501,-2.35062c-0.46633,-2.28918 -0.25865,-4.18219 -0.24155,-6.13292c0.01853,-2.11339 -0.12838,-4.22568 -0.01665,-5.11322c0.25197,-2.00171 -1.06167,-6.79409 -0.73577,-8.14201c0.12534,-0.51839 1.67506,3.04827 1.79885,2.6229c0.39612,-1.36118 0.06587,-2.5786 0.53351,-2.56394c0.2343,0.00735 0.53987,6.83782 1.53406,11.96603c0.52039,2.68424 0.94521,3.80974 1.53033,5.52399c0.31908,0.93482 -0.08248,2.05871 0.20418,2.89177c0.29549,0.8587 1.02355,1.2548 1.06855,1.31197c0.09073,0.11529 0.23645,0.88623 0.06838,1.91685c-0.14328,0.87858 -0.58332,1.94588 -0.734,2.95657c-0.29211,1.95941 -0.15618,3.83225 -0.0628,4.05616c0.84062,2.01563 -0.56865,6.57856 -0.37167,6.56941c0.23502,-0.01092 1.50868,-3.13677 2.24402,-6.31028c0.34668,-1.49611 -0.3408,-3.40639 0.13969,-4.64471c0.38396,-0.98953 0.52505,-0.35739 1.05334,-0.74334c0.67023,-0.48966 1.48421,-1.51369 1.68198,-1.67124c0.99215,-0.79035 0.58356,-1.58959 2.91911,-2.44801c0.05856,-0.02151 0.08769,-0.52882 0.19537,-1.0578c0.13079,-0.64253 0.4841,-1.55093 0.71869,-2.46182c0.4321,-1.67789 0.78961,-3.36414 0.92861,-3.41224c0.23161,-0.08016 -0.28655,-1.06175 0.09137,-1.25877c0.37991,-0.19806 1.05338,-2.95925 1.46936,-3.09775c0.94998,-0.31628 -1.51522,3.06628 -0.42561,3.09432c0.23774,0.00612 2.25569,-0.7949 3.21939,-1.37189c0.88582,-0.53035 0.72132,-0.84126 0.96094,-0.82326c0.71269,0.05352 -2.87966,3.19503 -2.14062,3.31895c0.12441,0.02087 -1.25002,-0.22898 -1.79398,0.83285c-0.44555,0.86973 -0.08563,3.08906 0.02156,3.10545c6.64365,1.0168 20.12011,-2.38308 24.03348,-2.53547c10.59406,-0.41254 16.28011,8.28481 13.5327,10.48105z" fill="url(#color-26)" stroke="none" stroke-width="0"/><path d="M366.10597,151.86498l-0.04395,-0.14702c-0.36238,-1.22305 -0.31909,-2.27335 -0.55305,-3.48163c-0.23283,-1.20246 -1.12151,-2.07874 -1.43191,-3.28628c-0.28926,-1.12527 -0.35224,-2.24464 -0.74588,-3.37835c-0.93633,-2.69672 -3.44663,-3.91997 -2.30813,-6.70175c0,0 0.20967,-0.49261 0.76071,-0.19801c0.55104,0.2946 0.34138,0.78722 0.34138,0.78722c-0.95929,2.14814 1.52245,3.67875 2.31632,5.92044c0.41445,1.17029 0.49534,2.32514 0.77923,3.48928c0.29786,1.22144 1.18465,2.08593 1.4447,3.34292c0.24308,1.175 0.16769,2.18606 0.52548,3.37124l0.04395,0.14702c0,0 0.1704,0.57001 -0.39402,0.63748c-0.56443,0.06747 -0.73483,-0.50254 -0.73483,-0.50254z" fill="#000000" stroke="none" stroke-width="0.5"/><path d="M314.28354,97.25808c-0.18862,0.00017 -0.18881,-0.17819 -0.18881,-0.17819l-0.00014,-0.12406c-0.00105,-1.01832 -0.23274,-3.13968 -0.98965,-3.84734c-0.5809,-0.99819 -1.54637,-1.70828 -2.30002,-2.67075c-0.57415,-0.73323 -0.43871,-1.8147 -1.18189,-2.50685c0,0 -0.13337,-0.12613 0,-0.25225c0.13337,-0.12613 0.26675,0 0.26675,0c0.6525,0.62502 0.81386,1.49011 1.04932,2.29619c0.30541,1.04548 1.90485,2.02047 2.46871,2.92098c0.79572,0.839 1.06286,2.9184 1.06402,4.05967l0.00012,0.12405c0,0 0.00019,0.17836 -0.18844,0.17853z" fill="#000000" stroke="none" stroke-width="0.5"/><path d="M316.25787,83.4263c0.18743,-0.03432 0.2086,0.26951 0.2086,0.26951l0.03001,0.43096c0.14227,2.07133 0.72566,3.73729 0.72566,5.86611c0,4.27596 -0.02704,8.55464 0.00575,12.83026c0.05318,1.42575 0.44966,0.99926 1.09772,1.54696c1.06714,0.9019 2.29262,3.52228 2.29165,5.1176c-0.00068,1.11508 0.20247,2.46825 -0.58631,2.82519c-0.91664,1.45104 -0.66438,4.79015 -0.18246,6.76897c0.15872,0.65168 -0.28775,2.43758 0.20298,2.25737c0,0 0.18863,-0.00001 0.18863,0.30576c0,0.30576 -0.18863,0.30577 -0.18863,0.30577c-1.12479,-0.19727 -0.24224,-1.49558 -0.5515,-2.63488c-0.63371,-2.33451 -0.68856,-5.7979 0.34637,-7.53631c0.39407,-0.11391 0.73776,-2.8754 0.44132,-3.31225c-0.29576,-0.43583 -0.49211,-1.32012 -0.7474,-1.77451c-0.77838,-1.38545 -2.5989,-1.70955 -2.68932,-3.84603c-0.0337,-4.28344 -0.00604,-8.57011 -0.00604,-12.8539c0,-2.09452 -0.57844,-3.74534 -0.72327,-5.79747l-0.03002,-0.43096c0,0 -0.02117,-0.30383 0.16626,-0.33815z" fill="#000000" stroke="none" stroke-width="0.5"/><path d="M316.22921,129.42655c-0.15901,-0.00133 -0.15742,-0.13609 -0.15742,-0.13609l0.2117,-14.80286c-0.00808,-1.85864 -1.69583,-6.56136 -1.69583,-8.49921c-0.00002,-1.76153 -0.03679,-3.94157 -1.72185,-4.99122c-0.18705,-0.58267 -1.18263,-0.99851 -1.76616,-1.36814c-0.61235,-0.38788 -0.75137,-0.9468 -1.41894,-1.36011c-0.44137,-0.27325 -1.16987,-0.31553 -1.68154,-0.5684c-0.33731,-0.31973 -1.03133,-0.91505 -1.23857,-1.25744c-0.50339,-0.83161 0.19448,-2.39949 0.19448,-3.26811c0,0 0,-0.13477 0.15901,-0.13477c0.15902,0 0.15902,0.13477 0.15902,0.13477c0,0.80625 -0.69042,2.3837 -0.22955,3.14508c0.18266,0.30177 0.84437,0.86932 1.15815,1.17267c0.53768,0.2745 1.15608,0.26019 1.66266,0.55617c0.67884,0.39664 0.83853,0.99138 1.42584,1.36436c0.61396,0.3899 1.61669,0.81449 1.83536,1.42843c1.7235,1.01314 1.7801,3.37565 1.78011,5.14672c0,1.94038 1.79365,6.79712 1.80184,8.6779l-0.31772,14.62684c0,0 -0.00158,0.13475 -0.16059,0.13342z" fill="#000000" stroke="none" stroke-width="0.5"/><path d="M318.13017,131.96704c-11.98142,0.55081 -15.02493,-31.94748 -29.83369,-31.94748c-17.08441,0 -15.88837,28.09127 -20.99995,21.31456c-6.41316,-8.50228 6.74489,-32.37314 23.82929,-32.37314c17.08441,0 30.06022,29.46209 30.06022,37.78602c0,0.61132 0.45236,3.14554 -0.32112,4.41748c-0.62937,1.03497 -2.40827,0.89628 -3.16332,0.94543z" fill="url(#color-27)" stroke="#000000" stroke-width="0"/><path d="M332.57781,95.01121c0.18862,0.00001 0.18862,0.17837 0.18862,0.17837v0.00091c-0.00005,0.89051 -0.35419,1.16384 -0.39325,2.22284c-0.16839,0.61231 -0.52029,0.3696 -0.76459,0.76606c-0.11935,0.1937 0.06169,0.79021 -0.00703,1.02681c-0.49331,1.69804 -1.01465,3.35368 -1.25591,5.13215c-0.40827,0.45953 -0.37216,1.10849 -0.61302,1.62357c-0.22082,0.47222 -0.91326,0.6034 -1.20875,0.91219c-0.97012,1.01379 -1.95431,2.15724 -3.08658,3.12606c-0.28218,0.13491 -0.40944,0.45889 -0.64823,0.65488c-0.18992,0.15588 -0.57665,-0.16816 -0.75449,0c-0.02537,0.02399 0.05524,0.86119 0.05524,0.94407c0,1.18909 0,2.37819 0,3.56729c0,0 0,0.17837 -0.18862,0.17837c-0.18862,0 -0.18862,-0.17837 -0.18862,-0.17837c0,-1.18909 0,-2.37819 0,-3.56729c0,-0.2153 -0.10127,-1.0483 0.05525,-1.19631c0.17783,-0.16816 0.60315,0.18995 0.75448,0c0.23253,-0.29189 0.17584,-0.45137 0.70144,-0.6967c1.09944,-0.95878 2.05852,-2.08564 3.02182,-3.07282c0.26315,-0.26967 0.96558,-0.399 1.13978,-0.81068c0.21877,-0.51701 0.2107,-1.1681 0.6133,-1.62417c0.15553,-1.75264 0.75619,-3.4242 1.23918,-5.08674c0.08913,-0.30678 -0.12598,-0.83755 0.0454,-1.11281c0.27382,-0.43976 0.62045,-0.09777 0.71579,-0.63086c0.03209,-0.99485 0.39018,-1.42113 0.3902,-2.17756v-0.00091c0,0 0.00001,-0.17836 0.18863,-0.17835z" fill="#000000" stroke="none" stroke-width="0.5"/><path d="M328.84124,90.09657c0.18812,0.01301 0.17436,0.1909 0.17436,0.1909l-0.00102,0.01321c-0.13909,1.01635 -3.25926,1.84692 -4.25874,2.27653c0,0 -0.17172,0.07381 -0.24977,-0.08857c-0.07806,-0.16237 0.09366,-0.23618 0.09366,-0.23618c0.70553,-0.30326 4.05238,-1.35098 4.0386,-1.9778l0.00101,-0.01322c0,0 0.01376,-0.17789 0.20188,-0.16488z" fill="#000000" stroke="none" stroke-width="0.5"/><path d="M326.79248,99.46915c-0.0351,-0.17525 0.15023,-0.20844 0.15023,-0.20844l0.00659,-0.00117c0.11344,-0.00214 0.23602,-0.14208 0.21713,-0.24787c0,-0.99205 -0.53135,-3.98811 0.18511,-4.7421c0.32378,-0.34073 1.36519,-0.53498 1.81969,-0.70688c0,0 0.17512,-0.06624 0.24518,0.09936c0.07005,0.16561 -0.10508,0.23185 -0.10508,0.23185c-0.41118,0.15554 -1.38429,0.32815 -1.68294,0.61798c-0.5862,0.56887 -0.08471,3.68997 -0.08471,4.49979c-0.02378,0.25802 -0.26051,0.52825 -0.52417,0.59836l-0.0066,0.00117c0,0 -0.18533,0.0332 -0.22043,-0.14206z" fill="#000000" stroke="none" stroke-width="0.5"/><path d="M319.49974,128.52506c0,-8.43696 16.08827,-37.31305 33.50707,-37.31305c17.41881,0 28.58074,26.90932 22.04206,35.52707c-5.21164,6.86875 -1.73854,-24.31829 -19.15735,-24.31829c-15.09861,0 -25.76459,29.49562 -32.15438,29.08213c-1.71592,-0.11104 -4.2374,-1.85403 -4.2374,-2.97783z" data-paper-data="{&quot;index&quot;:null}" fill="url(#color-28)" stroke="#000000" stroke-width="0"/><path d="M318.71821,84.5359c0.18862,-0.00247 0.19015,0.30328 0.19015,0.30328l0.00229,0.45739c0.01928,3.85866 0.6037,7.584 0.8426,11.35059c0.06954,1.63622 1.36533,3.60637 1.78684,4.99564c0.21278,0.70133 -0.0817,1.6468 0.21037,2.36737c0.48999,1.20882 1.29701,2.2113 1.29579,3.78619c-0.05457,1.48198 -0.55719,2.10297 -0.74773,3.41135c-0.3119,2.14181 0.00505,5.05605 0.00505,7.26811c0,0 0,0.30576 -0.18862,0.30576c-0.18862,0 -0.18863,-0.30576 -0.18863,-0.30576c0,-2.26506 -0.31488,-5.21173 0.00505,-7.40861c0.19175,-1.31669 0.68438,-1.84558 0.73794,-3.29533c0.03949,-1.37288 -0.82263,-2.37772 -1.23582,-3.43011c-0.30268,-0.77095 -0.02145,-1.73536 -0.23193,-2.42907c-0.4556,-1.50168 -1.68281,-3.40976 -1.82359,-5.20298c-0.23976,-3.78006 -0.82516,-7.53014 -0.84457,-11.40818l-0.00229,-0.45739c0,0 -0.00153,-0.30576 0.18708,-0.30824z" fill="#000000" stroke="none" stroke-width="0.5"/><path d="M373.52211,178.39213c-9.07363,10.08427 -18.74298,10.81192 -30.67948,9.93957c-11.9365,-0.87235 -22.63229,-7.45013 -28.22523,-8.49887c-5.59293,-1.04874 -32.69304,7.95124 -38.26263,-0.29559c-0.08718,-0.12909 -3.55683,-7.92117 1.00369,-6.17988c0.4864,0.18571 1.48788,1.50606 3.10302,2.32645c2.48931,1.2644 6.23982,2.12711 10.28075,1.93071c0.63807,-0.03101 18.25604,-5.84701 30.30555,-5.90361c17.32538,-0.08139 24.2521,11.67255 37.60783,8.66783c13.35573,-3.00472 13.83312,-10.17394 13.4406,-19.93829c-0.18518,-4.60643 0.44163,-13.67069 -11.082,-14.56566c-12.90324,-1.00211 -18.95878,0.93629 -31.02397,2.60728c-3.89988,0.54012 -2.2157,4.1157 -9.85491,3.5905c-8.29179,-0.57006 -5.36547,-3.87964 -10.10768,-5.08343c-4.74221,-1.20379 -15.65235,0.63098 -21.00696,-2.81485c-1.99896,-1.28638 -9.87248,-6.89398 -11.36874,-5.75034c-4.62365,3.53403 -2.29718,13.85558 -2.01373,23.13421c0.28344,9.27864 3.33622,12.8091 3.24156,12.95391c-1.52641,2.33491 -1.52092,6.13585 -2.59052,4.8431c-1.16994,-1.41402 -5.39522,-4.13847 -5.775,-9.18782c-0.64571,-8.58501 1.6921,-9.73416 0.39311,-15.75672c-1.29899,-6.02257 -8.13091,-14.69269 -8.29973,-20.90094c-0.15065,-5.5404 2.67647,-10.2667 5.89438,-11.96074c8.34732,-0.96366 8.81746,6.33143 15.03521,11.20813c3.1148,1.75877 5.09686,4.88976 9.69337,5.73776c7.43296,1.3713 14.98518,-4.23421 17.04622,-5.52721c3.43868,-2.15726 7.64249,-1.46082 13.21693,-1.46082c10.26118,0 11.80766,6.74139 19.34378,9.17169c4.08134,1.31618 22.21037,-8.66699 28.58744,-13.21056c14.66646,-6.01404 11.54166,40.42773 2.09715,50.9242z" fill="url(#color-29)" stroke="none" stroke-width="0"/><path d="M326.18243,134.99819c0,2.55449 -2.19988,6.40896 -5.02992,6.40896c-2.83004,0 -5.21855,-3.85447 -5.21855,-6.40896c0,-2.55449 2.2942,-4.62532 5.12424,-4.62532c2.83004,0 5.12424,2.07083 5.12424,4.62532z" fill="url(#color-30)" stroke="none" stroke-width="0"/><path d="M320.54262,131.09525c-1.198,0 -2.77275,1.06168 -2.77275,0.96317c0,-0.0985 1.77596,-1.3199 2.97395,-1.3199c1.198,0 3.27574,0.98357 3.27574,1.08208c0,0.0985 -2.27895,-0.72535 -3.47694,-0.72535z" fill-opacity="0.22745" fill="#ffffff" stroke="none" stroke-width="0"/><path d="M280.52463,58.76845c0,3.15226 -18.32375,14.26916 -20.82389,14.26916c-2.50016,0 -6.1217,-23.40142 -3.62155,-23.40142c2.50016,0 24.44545,5.98001 24.44545,9.13226z" fill="url(#color-31)" stroke="#000000" stroke-width="0"/><path d="M387.57409,48.78003c2.50016,0 -1.1214,23.40142 -3.62155,23.40142c-2.50016,0 -20.8239,-11.1169 -20.8239,-14.26916c0,-3.15225 21.94529,-9.13226 24.44545,-9.13226z" data-paper-data="{&quot;index&quot;:null}" fill="url(#color-32)" stroke="#000000" stroke-width="0"/></g></g></g></svg>