<svg version="1.1" xmlns="http://www.w3.org/2000/svg" xmlns:xlink="http://www.w3.org/1999/xlink" width="61.91344" height="51.44812" viewBox="0,0,61.91344,51.44812"><g transform="translate(-289.04328,-150.94263)"><g data-paper-data="{&quot;isPaintingLayer&quot;:true}" fill-rule="nonzero" stroke-linecap="butt" stroke-linejoin="miter" stroke-miterlimit="10" stroke-dasharray="" stroke-dashoffset="0" style="mix-blend-mode: normal"><path d="M289.54328,201.89074v-50.44811h60.91344v50.44812z" fill="#262626" stroke="#ffffff" stroke-width="1"/><text transform="translate(291.95125,198.69304) scale(0.20775,0.20775)" font-size="40" xml:space="preserve" fill="#ffffff" fill-rule="nonzero" stroke="none" stroke-width="1" stroke-linecap="butt" stroke-linejoin="miter" stroke-miterlimit="10" stroke-dasharray="" stroke-dashoffset="0" font-family="Serif" font-weight="normal" text-anchor="start" style="mix-blend-mode: normal"><tspan x="0" dy="0">DISABLE CAM</tspan></text><g stroke="none" stroke-width="0"><path d="M307.90943,172.70943c0,-6.67744 5.41312,-12.09057 12.09057,-12.09057c6.67744,0 12.09057,5.41312 12.09057,12.09057c0,6.67744 -5.41312,12.09057 -12.09057,12.09057c-6.67744,0 -12.09057,-5.41312 -12.09057,-12.09057z" fill="#ffffff"/><path d="M309.92452,172.70943c0,-5.56453 4.51094,-10.07548 10.07548,-10.07548c5.56453,0 10.07548,4.51094 10.07548,10.07548c0,5.56453 -4.51094,10.07548 -10.07548,10.07548c-5.56453,0 -10.07548,-4.51094 -10.07548,-10.07548z" fill="#262626"/><path d="M316.74837,166.57255v-6.96124h6.50326v6.96124z" fill="#262626"/><path d="M318.85506,166.98474v-8.88474h2.28988v8.88474z" fill="#ffffff"/></g></g></g></svg>