<svg version="1.1" xmlns="http://www.w3.org/2000/svg" xmlns:xlink="http://www.w3.org/1999/xlink" width="67.16667" height="91.57356" viewBox="0,0,67.16667,91.57356"><defs><linearGradient x1="321.15696" y1="167.46317" x2="321.15696" y2="216.82665" gradientUnits="userSpaceOnUse" id="color-1"><stop offset="0" stop-color="#333333"/><stop offset="1" stop-color="#242424"/></linearGradient><radialGradient cx="333.86384" cy="157.45323" r="11.45834" gradientUnits="userSpaceOnUse" id="color-2"><stop offset="0" stop-color="#8a8a8a"/><stop offset="1" stop-color="#818181"/></radialGradient><radialGradient cx="304.52813" cy="158.92348" r="11.45834" gradientUnits="userSpaceOnUse" id="color-3"><stop offset="0" stop-color="#8a8a8a"/><stop offset="1" stop-color="#818181"/></radialGradient><radialGradient cx="320.68099" cy="183.77944" r="11.45833" gradientUnits="userSpaceOnUse" id="color-4"><stop offset="0" stop-color="#8a8a8a"/><stop offset="1" stop-color="#818181"/></radialGradient></defs><g transform="translate(-286.42057,-133.08822)"><g data-paper-data="{&quot;isPaintingLayer&quot;:true}" fill-rule="nonzero" stroke-linejoin="miter" stroke-miterlimit="10" stroke-dasharray="" stroke-dashoffset="0" style="mix-blend-mode: normal"><path d="M337.77044,166.35988c0,9.72619 -7.80046,17.61083 -17.42281,17.61083c-9.62235,0 -17.42281,-7.88464 -17.42281,-17.61083c0,-9.72619 7.80046,-17.61083 17.42281,-17.61083c9.62235,0 17.42281,7.88464 17.42281,17.61083z" fill="#252525" stroke="none" stroke-width="0" stroke-linecap="butt"/><g stroke-width="0"><path d="M330.20833,166.67156c0,5.63791 -4.57043,10.20834 -10.20834,10.20834c-5.63791,0 -10.20832,-4.57042 -10.20832,-10.20834c0,-5.63791 4.57041,-10.20834 10.20832,-10.20834c5.63791,0 10.20834,4.57043 10.20834,10.20834z" fill="#000000" stroke="#000000" stroke-linecap="butt"/><g><path d="M291.65495,220.41002c0,0 -1.89697,-11.02531 0,-12.5c9.84073,-7.65012 37.59262,-11.78122 56,0c1.5798,1.01111 0,12.5 0,12.5c0,0 -7.11744,4.35179 -28.75,4.25c-21.0226,-0.09892 -27.25,-4.25 -27.25,-4.25z" fill="#242424" stroke="none" stroke-linecap="butt"/><path d="M343.15896,212.33044c0,0 -4.87435,4.26001 -22.75441,4.48477c-21.27262,0.26742 -21.2496,-4.24358 -21.2496,-4.24358c0,0 7.42039,-45.78111 20.93984,-45.10096c13.78478,0.69349 23.06417,44.85977 23.06417,44.85977z" fill="url(#color-1)" stroke="#000000" stroke-linecap="round"/></g></g><g data-paper-data="{&quot;index&quot;:null}" stroke="#000000" stroke-width="0" stroke-linecap="round"><path d="M328.27539,147.88181c5.37137,-3.54756 11.3862,-1.89448 14.65285,3.61577c3.26665,5.51025 3.09509,12.2076 -2.88648,16.15817c-5.98158,3.95057 -18.23496,-2.20837 -18.23496,-2.20837c0,0 1.09722,-14.01801 6.46859,-17.56557z" fill="url(#color-2)"/><path d="M298.75626,168.38544c-5.67203,-3.04383 -7.07205,-9.12256 -3.77264,-14.61325c3.29941,-5.49069 9.27564,-8.51865 15.59203,-5.12904c6.31639,3.38961 6.71167,17.09806 6.71167,17.09806c0,0 -12.85903,5.68805 -18.53106,2.64423z" fill="url(#color-3)"/><path d="M320.31879,169.31752c0,0 12.0711,6.50895 12.26338,13.67479c0.19229,7.16584 -5.19684,11.14593 -11.58441,11.62839c-6.38757,0.48246 -11.19029,-3.4981 -11.36295,-9.93292c-0.17266,-6.43482 10.68398,-15.37026 10.68398,-15.37026z" data-paper-data="{&quot;index&quot;:null}" fill="url(#color-4)"/></g><g><path d="M351.33724,166.67156c0,17.30492 -14.02841,31.33334 -31.33333,31.33334c-17.30492,0 -31.33334,-14.02841 -31.33334,-31.33334c0,-17.30492 14.02841,-31.33334 31.33334,-31.33334c17.30492,0 31.33333,14.02841 31.33333,31.33334z" fill="none" stroke="#000000" stroke-width="4.5" stroke-linecap="butt"/><path d="M296.54993,146.07675c0,0 16.93178,13.42172 24.18337,20.45039c7.53498,7.30334 20.12562,22.4939 20.12562,22.4939" fill="none" stroke="#4f4f4f" stroke-width="2" stroke-linecap="round"/><path d="M307.40886,138.58183c0,0 10.93275,22.14976 13.90994,28.54194c4.13439,8.87677 10.09006,27.45806 10.09006,27.45806" fill="none" stroke="#4f4f4f" stroke-width="2" stroke-linecap="round"/><path d="M351.33724,166.67156c0,17.30492 -14.02841,31.33334 -31.33333,31.33334c-17.30492,0 -31.33334,-14.02841 -31.33334,-31.33334c0,-17.30492 14.02841,-31.33334 31.33334,-31.33334c17.30492,0 31.33333,14.02841 31.33333,31.33334z" fill="none" stroke="#4f4f4f" stroke-width="2" stroke-linecap="butt"/><path d="M319.82943,136.02833c0,0 0.72048,20.27653 0.83124,30.54633c0.11146,10.33448 -0.16457,31.2677 -0.16457,31.2677" fill="none" stroke="#4f4f4f" stroke-width="2" stroke-linecap="round"/><path d="M288.66276,167.39094c0,0 21.59755,-0.94556 31.99999,-1.00134c10.31911,-0.05533 30.16668,0.668 30.16668,0.668" fill="none" stroke="#4f4f4f" stroke-width="2" stroke-linecap="round"/><path d="M297.43285,188.29639c0,0 15.32306,-14.40743 22.58692,-21.80015c7.28346,-7.41267 22.63853,-21.36616 22.63853,-21.36616" fill="none" stroke="#4f4f4f" stroke-width="2" stroke-linecap="round"/><path d="M332.15886,138.33183l-23.75,56.5" fill="none" stroke="#4f4f4f" stroke-width="2" stroke-linecap="round"/><path d="M290.90886,156.58183c0,0 22.43227,7.25616 29.83811,10.01332c10.6438,3.96263 26.91189,13.23668 26.91189,13.23668" fill="none" stroke="#4f4f4f" stroke-width="2" stroke-linecap="round"/><path d="M348.15886,155.33183c0,0 -17.42818,7.5459 -27.95119,11.74587c-7.01832,2.80117 -29.04881,11.00413 -29.04881,11.00413" fill="none" stroke="#4f4f4f" stroke-width="2" stroke-linecap="round"/><path d="M326.33724,166.67156c0,3.4978 -2.83553,6.33334 -6.33334,6.33334c-3.49781,0 -6.33333,-2.83553 -6.33333,-6.33334c0,-3.4978 2.83552,-6.33334 6.33333,-6.33334c3.49781,0 6.33334,2.83553 6.33334,6.33334z" fill="#4f4f4f" stroke="#000000" stroke-width="0" stroke-linecap="butt"/><path d="M343.58724,166.67156c0,13.02472 -10.55862,23.58334 -23.58333,23.58334c-13.02472,0 -23.58334,-10.55862 -23.58334,-23.58334c0,-13.02472 10.55862,-23.58334 23.58334,-23.58334c13.02471,0 23.58333,10.55862 23.58333,23.58334z" fill="none" stroke="#4f4f4f" stroke-width="2" stroke-linecap="butt"/></g></g></g></svg>