<svg version="1.1" xmlns="http://www.w3.org/2000/svg" xmlns:xlink="http://www.w3.org/1999/xlink" width="266.69656" height="261.22304" viewBox="0,0,266.69656,261.22304"><defs><radialGradient cx="382.39198" cy="172.38534" r="6.95633" gradientUnits="userSpaceOnUse" id="color-1"><stop offset="0" stop-color="#ffffff" stop-opacity="0.22745"/><stop offset="1" stop-color="#ffffff" stop-opacity="0"/></radialGradient><radialGradient cx="245.77746" cy="217.96773" r="6.95633" gradientUnits="userSpaceOnUse" id="color-2"><stop offset="0" stop-color="#ffffff" stop-opacity="0.22745"/><stop offset="1" stop-color="#ffffff" stop-opacity="0"/></radialGradient><radialGradient cx="260.33213" cy="203.05783" r="6.95633" gradientUnits="userSpaceOnUse" id="color-3"><stop offset="0" stop-color="#ffffff" stop-opacity="0.22745"/><stop offset="1" stop-color="#ffffff" stop-opacity="0"/></radialGradient><linearGradient x1="212.27511" y1="253.53568" x2="255.53707" y2="242.24255" gradientUnits="userSpaceOnUse" id="color-4"><stop offset="0" stop-color="#695d1f"/><stop offset="1" stop-color="#61530f"/></linearGradient><linearGradient x1="255.85134" y1="79.36192" x2="267.32407" y2="65.5759" gradientUnits="userSpaceOnUse" id="color-5"><stop offset="0" stop-color="#5c5117"/><stop offset="1" stop-color="#4f4204"/></linearGradient><linearGradient x1="259.02133" y1="63.84039" x2="262.59598" y2="86.94793" gradientUnits="userSpaceOnUse" id="color-6"><stop offset="0" stop-color="#000000" stop-opacity="0"/><stop offset="1" stop-color="#000000" stop-opacity="0.35294"/></linearGradient><linearGradient x1="274.04469" y1="70.64839" x2="299.42332" y2="74.79922" gradientUnits="userSpaceOnUse" id="color-7"><stop offset="0" stop-color="#000000"/><stop offset="1" stop-color="#524815"/></linearGradient><radialGradient cx="283.27522" cy="70.46691" r="20.10161" gradientUnits="userSpaceOnUse" id="color-8"><stop offset="0" stop-color="#94822b"/><stop offset="1" stop-color="#61530f"/></radialGradient><radialGradient cx="295.21002" cy="120.95267" r="51.19099" gradientUnits="userSpaceOnUse" id="color-9"><stop offset="0" stop-color="#94822b"/><stop offset="1" stop-color="#61530f"/></radialGradient><linearGradient x1="249.1721" y1="163.28751" x2="310.5431" y2="155.75273" gradientUnits="userSpaceOnUse" id="color-10"><stop offset="0" stop-color="#302a08" stop-opacity="0"/><stop offset="1" stop-color="#302a08" stop-opacity="0.16863"/></linearGradient><linearGradient x1="295.95123" y1="127.93811" x2="299.16751" y2="154.13484" gradientUnits="userSpaceOnUse" id="color-11"><stop offset="0" stop-color="#541300"/><stop offset="1" stop-color="#b5560e"/></linearGradient><linearGradient x1="301.1404" y1="160.56021" x2="303.15662" y2="189.35536" gradientUnits="userSpaceOnUse" id="color-12"><stop offset="0" stop-color="#541300"/><stop offset="1" stop-color="#b5560e"/></linearGradient><linearGradient x1="322.81198" y1="118.77085" x2="300.21841" y2="120.97893" gradientUnits="userSpaceOnUse" id="color-13"><stop offset="0" stop-color="#ffffff"/><stop offset="1" stop-color="#6a6a6a"/></linearGradient><radialGradient cx="311.84547" cy="120.2781" r="5.18324" gradientUnits="userSpaceOnUse" id="color-14"><stop offset="0" stop-color="#7c3780"/><stop offset="1" stop-color="#27021e"/></radialGradient><linearGradient x1="262.5564" y1="133.75612" x2="283.0775" y2="123.48509" gradientUnits="userSpaceOnUse" id="color-15"><stop offset="0" stop-color="#ffffff"/><stop offset="1" stop-color="#6a6a6a"/></linearGradient><radialGradient cx="271.14348" cy="129.70598" r="5.23958" gradientUnits="userSpaceOnUse" id="color-16"><stop offset="0" stop-color="#7c3780"/><stop offset="1" stop-color="#27021e"/></radialGradient><radialGradient cx="329.39011" cy="242.51095" r="63.32133" gradientUnits="userSpaceOnUse" id="color-17"><stop offset="0" stop-color="#94822b"/><stop offset="1" stop-color="#61530f"/></radialGradient><radialGradient cx="335.65955" cy="237.67845" r="59.76034" gradientUnits="userSpaceOnUse" id="color-18"><stop offset="0" stop-color="#ffffff"/><stop offset="1" stop-color="#696969"/></radialGradient><linearGradient x1="241.39439" y1="212.76568" x2="262.85832" y2="205.32236" gradientUnits="userSpaceOnUse" id="color-19"><stop offset="0" stop-color="#94822b"/><stop offset="1" stop-color="#61530f"/></linearGradient><linearGradient x1="420.51213" y1="201.16989" x2="383.58436" y2="209.25758" gradientUnits="userSpaceOnUse" id="color-20"><stop offset="0" stop-color="#837426"/><stop offset="1" stop-color="#61530f"/></linearGradient><linearGradient x1="382.11037" y1="169.18301" x2="362.10163" y2="176.1217" gradientUnits="userSpaceOnUse" id="color-21"><stop offset="0" stop-color="#94822b"/><stop offset="1" stop-color="#61530f"/></linearGradient><linearGradient x1="235.24223" y1="218.53944" x2="253.53289" y2="271.28328" gradientUnits="userSpaceOnUse" id="color-22"><stop offset="0" stop-color="#61530f"/><stop offset="1" stop-color="#837426"/></linearGradient><linearGradient x1="248.76238" y1="236.72187" x2="255.16841" y2="255.19459" gradientUnits="userSpaceOnUse" id="color-23"><stop offset="0" stop-color="#65591d"/><stop offset="1" stop-color="#61530f"/></linearGradient><linearGradient x1="230.24839" y1="237.14087" x2="237.35907" y2="257.6456" gradientUnits="userSpaceOnUse" id="color-24"><stop offset="0" stop-color="#837426"/><stop offset="1" stop-color="#61530f"/></linearGradient><linearGradient x1="250.96269" y1="232.02693" x2="258.07338" y2="252.53166" gradientUnits="userSpaceOnUse" id="color-25"><stop offset="0" stop-color="#837426"/><stop offset="1" stop-color="#61530f"/></linearGradient><linearGradient x1="268.75311" y1="225.44363" x2="275.8638" y2="245.94837" gradientUnits="userSpaceOnUse" id="color-26"><stop offset="0" stop-color="#837426"/><stop offset="1" stop-color="#61530f"/></linearGradient><radialGradient cx="249.96553" cy="229.861" r="41.75578" gradientUnits="userSpaceOnUse" id="color-27"><stop offset="0" stop-color="#2f455c" stop-opacity="0.38824"/><stop offset="1" stop-color="#2f455c" stop-opacity="0"/></radialGradient><linearGradient x1="252.50134" y1="94.08797" x2="252.50134" y2="153.18353" gradientUnits="userSpaceOnUse" id="color-28"><stop offset="0" stop-color="#d9cd61"/><stop offset="1" stop-color="#d9672f"/></linearGradient><linearGradient x1="240.70203" y1="122.61933" x2="240.70203" y2="152.61933" gradientUnits="userSpaceOnUse" id="color-29"><stop offset="0" stop-color="#d99a48"/><stop offset="1" stop-color="#d9672f"/></linearGradient><linearGradient x1="261.01968" y1="101.21933" x2="261.01968" y2="124.61934" gradientUnits="userSpaceOnUse" id="color-30"><stop offset="0" stop-color="#d9cd61"/><stop offset="1" stop-color="#d9a24c"/></linearGradient><linearGradient x1="241.90133" y1="219.13969" x2="241.90133" y2="235.50941" gradientUnits="userSpaceOnUse" id="color-31"><stop offset="0" stop-color="#d9cd61"/><stop offset="1" stop-color="#d9672f"/></linearGradient><linearGradient x1="222.26096" y1="222.14289" x2="222.26096" y2="233.11461" gradientUnits="userSpaceOnUse" id="color-32"><stop offset="0" stop-color="#d9cd61"/><stop offset="1" stop-color="#d9672f"/></linearGradient><linearGradient x1="459.87453" y1="254.42276" x2="414.70707" y2="248.56373" gradientUnits="userSpaceOnUse" id="color-33"><stop offset="0" stop-color="#837426"/><stop offset="1" stop-color="#61530f"/></linearGradient></defs><g transform="translate(-206.2055,-49.38848)"><g data-paper-data="{&quot;isPaintingLayer&quot;:true}" fill-rule="nonzero" stroke-linecap="butt" stroke-linejoin="miter" stroke-miterlimit="10" stroke-dasharray="" stroke-dashoffset="0" style="mix-blend-mode: normal"><path d="M338.81043,145.21747c-0.8493,-2.6253 -0.00578,-6.96356 -0.91466,-8.33782c-0.35897,-0.54278 -1.10755,0.91886 -1.45202,0.3216c-0.29128,-0.50505 0.29431,-4.22676 -0.08041,-5.47804c-0.80854,-2.69989 -0.85695,-13.45403 -2.25387,-13.848c-1.27742,-0.36026 -0.3902,2.93663 -1.31265,0.63659c-2.20168,-5.48969 -5.51678,-12.27948 -6.29342,-14.3474c-2.44832,-6.51907 1.62524,-6.66779 1.62524,-6.66779c0,0 20.3114,0.79884 24.69268,19.28324c1.6178,6.82544 -9.45572,29.48171 -9.45572,29.48171c0,0 -1.20785,9.30298 -4.55518,-1.04409z" data-paper-data="{&quot;index&quot;:null}" fill="#d9cd61" stroke="none" stroke-width="0"/><path d="M351.81885,115.83822c-3.35819,-2.63328 -2.93227,-11.38388 -9.06025,-12.05799c-7.06099,-0.77675 -11.58769,-1.5209 -15.42596,0.168c-0.64152,0.28227 -0.00351,1.1886 -0.3086,0.52096c-0.20595,-0.45068 -2.31324,-0.91052 -2.38826,-2.69732c-0.08351,-1.98954 1.90181,-5.3002 2.43637,-5.31772c4.46987,-0.1465 14.32258,0.97492 14.73739,1.07895c5.26105,1.31942 7.92248,5.86075 8.15953,7.16633c0.15245,0.83961 5.48786,5.9441 5.13336,8.83504c-0.36201,2.95226 -1.48977,4.86946 -1.84826,5.78592c-0.54804,1.40101 -0.77551,-2.96479 -1.43532,-3.48216z" data-paper-data="{&quot;index&quot;:null}" fill="#503615" stroke="none" stroke-width="0"/><path d="M343.58579,146.29328c0.02305,0.07913 0.07091,0.19303 0.13274,0.33034c-0.08702,-0.55674 -0.20239,-1.10882 -0.38383,-1.65913c0.05021,0.47987 0.13513,0.93062 0.25109,1.32879zM348.97251,129.15072c0.40113,-1.41338 1.32741,-2.60566 1.48366,-4.09548c0,0 0.04705,-0.42763 0.47467,-0.38059c0.42762,0.04704 0.38058,0.47467 0.38058,0.47467c-0.17785,1.55451 -1.09894,2.7616 -1.50978,4.23127c-0.58223,2.08274 -0.63229,4.06819 -0.34494,6.17718c0.14656,0.71058 0.49971,2.41635 0.16544,3.07476c-0.56836,1.11949 -1.68707,0.83648 -2.13397,-0.17283c-0.20409,-0.46093 -0.30581,-1.08438 -0.34345,-1.77291c-0.11963,-0.05222 -0.22553,-0.06773 -0.3093,-0.03091c-0.5733,0.25201 -1.01,0.71141 -1.34656,1.29482c-0.20891,0.43165 -0.36178,0.79395 -0.42148,0.92207c-0.68446,1.88377 -0.74256,4.40351 -0.93739,5.81536c0.52875,1.36751 0.55728,2.8368 0.74893,4.28384l-0.01993,0.05069l0.01739,0.00191l-0.05645,0.51315c-0.02598,0.23617 -0.2385,0.40657 -0.47467,0.38058c-0.11809,-0.01299 -0.21973,-0.07262 -0.2886,-0.15851l-0.30446,-0.37973l0.13012,-0.10433c-2.0181,-2.58442 -2.02603,-8.94745 0.50113,-10.92016c0.36212,-0.81972 1.44346,-3.36485 2.77524,-3.41231c0.057,-1.01862 0.17856,-2.01082 0.26067,-2.712l-0.08907,-0.65378c-0.00588,-0.03708 -0.00696,-0.07556 -0.00266,-0.11468c0.02598,-0.23617 0.2385,-0.40657 0.47467,-0.38059c0.15078,0.01659 0.27476,0.10922 0.33793,0.23549l0.28258,0.54486l-0.17308,0.08976l0.01173,0.08607c0.06465,0.13579 0.12422,0.27758 0.17926,0.42432c0.04818,-1.10054 0.21528,-2.19668 0.53181,-3.31199zM343.68814,141.1159c-0.33938,1.07258 -0.45495,2.30073 -0.38876,3.41619c0.09764,-1.10391 0.18806,-2.27641 0.38876,-3.41619z" data-paper-data="{&quot;index&quot;:null}" fill="#d9cd61" stroke="none" stroke-width="0.5"/><path d="M328.69347,104.13732l-0.06455,-0.07405c0.65962,1.35282 0.14643,3.27352 -0.2084,4.92691c0.37308,-0.51958 0.52081,-1.20863 1.14693,-1.48935c2.6336,-1.1808 1.82574,3.84229 1.62937,5.37399c0.62415,-1.16073 1.45666,-1.93395 2.43074,-0.05577c1.11707,0.56515 1.28321,2.44608 1.21995,4.33172c0.09199,-0.28768 0.19755,-0.56803 0.31935,-0.83912c0,0 0.17986,-0.39081 0.57067,-0.21095c0.39081,0.17986 0.21095,0.57066 0.21095,0.57066c-0.9615,2.02655 -0.85099,4.7903 -1.09557,7.01368l-0.05645,0.51315c-0.02598,0.23617 -0.2385,0.40657 -0.47467,0.38058c-0.23617,-0.02598 -0.40657,-0.2385 -0.38058,-0.47467l0.05645,-0.51315c0.00651,-0.05917 0.01281,-0.11858 0.01893,-0.17824c-0.43954,-2.49434 0.37059,-4.94802 -0.19144,-7.4943c-0.18371,-0.83228 0.03097,-2.14226 -0.7915,-2.47679c-1.12099,-2.16145 -1.51228,0.8593 -1.92048,1.74818l-0.05071,0.46096c-0.02598,0.23617 -0.2385,0.40657 -0.47467,0.38059c-0.19236,-0.02116 -0.34108,-0.16607 -0.3756,-0.34672l-0.11252,-0.52227l0.15458,-0.0333l0.00941,-0.08552l0.01063,0.00117c-0.32479,-1.49136 0.17684,-3.32411 0.34518,-4.80941c0.03699,-0.32644 0.07396,-2.03878 -0.38228,-2.03293c-0.73616,0.00942 -0.80276,1.1165 -1.32233,1.49169c-0.03816,0.84758 -0.42611,1.70946 -0.78167,2.48206l-0.22336,0.48533c-0.07296,0.16882 -0.24962,0.27793 -0.44199,0.25678c-0.23617,-0.02598 -0.40657,-0.2385 -0.38058,-0.47467l0.05645,-0.51315l0.13823,0.0152c-0.02375,-2.43234 1.63553,-5.62958 0.58318,-7.4862l-0.02691,-0.41616c0,0 0.04705,-0.42762 0.47467,-0.38058c0.42762,0.04704 0.38058,0.47467 0.38058,0.47467z" data-paper-data="{&quot;index&quot;:null}" fill="#d9cd61" stroke="none" stroke-width="0.5"/><path d="M336.80127,106.76043c1.41703,0.15588 2.4099,1.69901 2.21765,3.44669c-0.19225,1.74768 -1.49683,3.03807 -2.91386,2.88219c-1.41703,-0.15588 -2.4099,-1.699 -2.21765,-3.44668c0.19225,-1.74768 1.49683,-3.03807 2.91386,-2.88219z" data-paper-data="{&quot;index&quot;:null}" fill="#8f2323" stroke="none" stroke-width="0"/><path d="M341.04837,124.02032c1.18086,0.1299 1.97807,1.69027 1.78062,3.48517c-0.19745,1.79491 -1.31479,3.14466 -2.49564,3.01476c-1.18086,-0.1299 -1.97807,-1.69027 -1.78062,-3.48517c0.19745,-1.7949 1.31479,-3.14466 2.49564,-3.01476z" data-paper-data="{&quot;index&quot;:null}" fill="#8f2323" stroke="none" stroke-width="0"/><path d="M348.68288,116.03102c1.36765,0.15045 2.22361,2.56987 1.91185,5.40393c-0.31176,2.83406 -1.67319,5.00956 -3.04084,4.85911c-1.36765,-0.15045 -2.22361,-2.56987 -1.91186,-5.40393c0.31176,-2.83406 1.6732,-5.00956 3.04085,-4.8591z" data-paper-data="{&quot;index&quot;:null}" fill="#8f2323" stroke="none" stroke-width="0"/><path d="M344.90737,107.82526c0.89745,0.09873 1.49441,1.36577 1.33333,2.83004c-0.16108,1.46426 -1.01918,2.57126 -1.91663,2.47253c-0.89745,-0.09873 -1.49441,-1.36578 -1.33333,-2.83004c0.16108,-1.46426 1.01918,-2.57125 1.91663,-2.47253z" data-paper-data="{&quot;index&quot;:null}" fill="#8f2323" stroke="none" stroke-width="0"/><path d="M342.55697,139.4209c0.90926,0.10002 1.51368,1.38728 1.35001,2.87516c-0.16368,1.48788 -1.03346,2.61297 -1.94272,2.51294c-0.90926,-0.10002 -1.51368,-1.38728 -1.35001,-2.87516c0.16368,-1.48788 1.03346,-2.61297 1.94272,-2.51295z" data-paper-data="{&quot;index&quot;:null}" fill="#8f2323" stroke="none" stroke-width="0"/><path d="M353.48391,170.83641c3.60221,10.38748 -13.75264,50.944 -34.52762,58.14841c-20.77498,7.20441 -46.46197,-20.21912 -50.06418,-30.6066c-3.6022,-10.38748 18.85847,-5.1949 39.63346,-12.39931c20.77498,-7.20441 41.35614,-25.52997 44.95835,-15.14249z" fill="#362f09" stroke="none" stroke-width="0"/><g stroke="none"><path d="M389.08062,170.06583c1.42336,4.10449 -0.91648,8.64338 -5.22618,10.13791c-4.30971,1.49453 -8.95727,-0.62125 -10.38063,-4.72573c-1.42336,-4.10449 0.91648,-8.64337 5.22618,-10.1379c4.30971,-1.49453 8.95727,0.62125 10.38063,4.72572z" fill="#3d3d3d" stroke-width="NaN"/><path d="M388.8329,170.15174c1.18613,3.4204 -0.73601,7.1932 -4.29322,8.42677c-3.55722,1.23358 -7.40246,-0.5392 -8.58859,-3.95959c-1.18613,-3.4204 0.73601,-7.1932 4.29322,-8.42677c3.55722,-1.23358 7.40246,0.5392 8.58859,3.95959z" fill="url(#color-1)" stroke-width="0"/></g><g stroke="none"><path d="M252.4661,215.64822c1.42336,4.10449 -0.91648,8.64337 -5.22618,10.1379c-4.30971,1.49453 -8.95727,-0.62125 -10.38063,-4.72573c-1.42336,-4.10449 0.91648,-8.64337 5.22618,-10.1379c4.30971,-1.49453 8.95727,0.62125 10.38063,4.72573z" fill="#3d3d3d" stroke-width="NaN"/><path d="M252.21837,215.73413c1.18614,3.4204 -0.73601,7.19319 -4.29322,8.42677c-3.55722,1.23358 -7.40246,-0.53919 -8.58859,-3.95958c-1.18614,-3.4204 0.73601,-7.1932 4.29322,-8.42678c3.55722,-1.23358 7.40245,0.5392 8.58859,3.95959z" fill="url(#color-2)" stroke-width="0"/></g><g stroke="none"><path d="M306.99469,199.61102l-8.46521,-24.41066l14.4063,-4.99586l8.4652,24.41066z" fill="#3d3d3d" stroke-width="0"/><path d="M295.48747,199.05255l5.3539,-24.71284l7.47132,1.61862l-5.3539,24.71284z" fill="#585858" stroke-width="0"/><path d="M324.85884,195.76641l-19.50446,-16.09238l4.86514,-5.8967l19.50446,16.09239z" data-paper-data="{&quot;index&quot;:null}" fill="#585858" stroke-width="0"/><path d="M312.8794,171.38637c1.42336,4.10449 -0.91649,8.64337 -5.22618,10.1379c-4.30971,1.49453 -8.95727,-0.62125 -10.38063,-4.72573c-1.42336,-4.10449 0.91649,-8.64337 5.22618,-10.1379c4.30971,-1.49453 8.95727,0.62125 10.38063,4.72573z" fill="#3d3d3d" stroke-width="NaN"/></g><g stroke="none"><path d="M267.02077,200.73833c1.42336,4.10449 -0.91648,8.64337 -5.22618,10.1379c-4.30971,1.49453 -8.95727,-0.62125 -10.38063,-4.72573c-1.42336,-4.10449 0.91648,-8.64337 5.22618,-10.1379c4.30971,-1.49453 8.95727,0.62125 10.38063,4.72573z" fill="#3d3d3d" stroke-width="NaN"/><path d="M266.77304,200.82424c1.18614,3.4204 -0.73601,7.1932 -4.29322,8.42677c-3.55722,1.23358 -7.40246,-0.5392 -8.58859,-3.95959c-1.18614,-3.4204 0.73601,-7.1932 4.29322,-8.42677c3.55722,-1.23358 7.40246,0.5392 8.58859,3.95959z" fill="url(#color-3)" stroke-width="0"/></g><path d="M259.99044,227.58177c6.87229,14.91743 -1.72315,41.50706 -13.66962,44.62557c-11.94645,3.11851 -29.12229,8.45301 -35.99457,-6.46443c-6.87229,-14.91743 11.69169,-47.48382 23.63815,-50.60233c5.40632,-1.41127 2.95549,2.81881 15.40992,4.04018c7.85708,0.77052 6.85386,0.2344 10.61612,8.401z" fill="url(#color-4)" stroke="none" stroke-width="0"/><g stroke="none" stroke-width="0"><path d="M263.00018,66.2448c9.61046,7.34506 19.15692,15.71662 15.9888,19.52352c-3.16812,3.80689 -10.19139,-3.2683 -19.80186,-10.61334c-9.61046,-7.34506 -16.45449,-7.59503 -13.28638,-11.40193c3.16812,-3.80689 7.48898,-4.85332 17.09944,2.49175z" fill="url(#color-5)"/><path d="M275.5503,84.94394c-4.07367,0.63018 3.10603,2.52166 1.12158,2.19967c-3.74733,-0.60801 -14.66412,-10.0106 -19.7604,-13.33869c-6.78043,-4.4279 -12.9868,-7.62914 -10.66112,-7.98892c1.55355,-0.24034 7.37231,1.30145 12.89046,4.70543c8.95137,5.52186 18.57882,14.0869 16.40948,14.42249z" fill="url(#color-6)"/><path d="M292.57596,81.88142c-9.80468,7.81754 -6.43349,8.66879 -13.33047,7.54075c-6.89696,-1.12805 -8.26521,-7.39478 -5.27915,-18.48281c2.98606,-11.08804 15.28783,-15.7265 22.18479,-14.59846c3.78293,0.61872 6.77749,4.93961 5.29895,10.89054c-1.2171,4.89871 -3.11833,10.06073 -8.87413,14.64998z" fill="url(#color-7)"/><path d="M291.81111,77.4634c-5.91954,11.44244 -2.35709,11.22639 -9.38066,12.31291c-7.02357,1.08652 -11.0244,-5.04663 -12.97862,-17.6792c-1.95422,-12.63258 7.70378,-21.55755 14.72737,-22.64407c3.85237,-0.59596 8.55498,2.95728 9.7214,9.69629c0.96019,5.54747 1.38557,11.59685 -2.08947,18.31408z" fill="url(#color-8)"/><path d="M344.99645,163.15298c-17.36307,19.09092 -89.58318,39.44447 -99.75587,3.92006c-3.97412,-10.13482 -17.59536,-42.21476 3.73387,-74.51209c7.62138,-11.5405 20.80069,-6.40042 33.9562,-9.21573c13.28199,-2.84238 20.44806,-9.58991 30.18119,-7.43169c17.23436,3.82156 32.3881,26.62367 37.55815,45.47193c5.05952,18.4453 -0.39789,35.96689 -5.67353,41.76753z" fill="url(#color-9)"/><path d="M310.5431,155.75273c1.78066,14.50359 -10.51419,27.9478 -27.46132,30.02848c-16.94714,2.08067 -32.12902,-7.9901 -33.90969,-22.4937c-1.78066,-14.50359 10.51419,-27.9478 27.46133,-30.02848c16.94714,-2.08067 32.12902,7.99009 33.90969,22.4937z" fill="url(#color-10)"/><path d="M280.12218,170.6249c-1.64618,-2.04856 -3.92568,-14.62614 -3.0496,-17.54228c2.05278,-6.83293 12.10403,-4.79564 21.30095,-6.93599c6.0959,-1.41867 14.74733,-4.52778 18.91313,-0.87764c3.97508,3.48302 5.7416,8.07127 4.63444,14.93254c-1.89353,10.4633 -35.13338,18.71819 -41.79893,10.42336z" fill="#2b0001"/><path d="M278.99157,171.52725l-0.50614,-4.12262l2.79737,-0.34344l0.50615,4.12262z" fill="#b3b3b3"/><path d="M282.20847,172.20419l-0.59547,-4.85014l5.70893,-0.70091l0.59547,4.85014z" fill="#b3b3b3"/><path d="M288.61354,171.92874l-0.59547,-4.85014l5.70893,-0.70091l0.59547,4.85013z" fill="#b3b3b3"/><path d="M320.97563,161.98822l-1.8685,-3.78171l2.59812,-1.0067l1.8685,3.78171z" data-paper-data="{&quot;index&quot;:null}" fill="#b3b3b3"/><path d="M315.42714,165.40924l-2.19822,-4.44908l5.3023,-2.05446l2.19822,4.44907z" data-paper-data="{&quot;index&quot;:null}" fill="#b3b3b3"/><path d="M309.92223,168.72269l-2.19823,-4.44907l5.3023,-2.05447l2.19822,4.44908z" data-paper-data="{&quot;index&quot;:null}" fill="#b3b3b3"/><path d="M279.58839,102.32298c-0.80047,7.28834 -6.27831,2.35025 -13.1756,4.10296c-4.59633,1.168 -8.17862,4.44508 -11.04164,4.59288c-1.43325,0.07397 -2.63343,-1.49599 -3.51656,-2.85586c-0.7961,-1.22584 6.4014,-6.60841 13.29872,-8.36115c6.8973,-1.75272 15.28391,-5.20743 14.4351,2.52117z" fill="#000000"/><path d="M273.64757,158.86371c-2.66937,-6.89336 6.63108,-13.51715 9.99798,-18.84238c2.94284,-4.65451 2.86716,-10.2558 7.44528,-11.41177c4.29417,-1.08427 6.29048,1.21535 13.7045,6.4043c0.79039,0.55319 20.91134,6.6673 17.98514,11.01602c-2.81894,4.18932 -16.38278,3.80947 -26.10658,5.53489c-10.17027,1.80465 -22.65051,8.66678 -23.02632,7.29894z" fill="url(#color-11)"/><path d="M291.32723,134.87041c0.39949,1.45401 -2.5324,4.6568 -3.63774,4.9359c-0.46499,0.11741 -1.08709,-0.97561 -1.03537,-2.36375c0.07122,-1.91161 1.00697,-4.33527 1.64732,-4.49695c1.10534,-0.2791 2.6263,0.47079 3.02579,1.9248z" fill="#571e03"/><path d="M324.0085,159.13609c0.53305,7.61273 5.07746,16.82225 -2.81557,23.46106c-2.49115,2.09529 -9.56237,4.34472 -14.07586,5.67744c-6.00047,1.77178 -13.57104,3.86693 -17.53779,2.77067c-8.96126,-2.47656 -10.38087,-12.77435 -10.86697,-19.7167c-0.04051,-0.5786 12.06571,0.94852 24.22385,-1.53612c10.88887,-2.22526 20.9747,-12.05107 21.07235,-10.65635z" fill="url(#color-12)"/><path d="M294.20335,133.57355c-0.10862,-1.62256 1.32051,-2.95093 2.67641,-3.08136c0.7855,-0.07556 2.7756,2.0303 3.59206,3.94054c0.5929,1.38716 0.3111,2.72716 -0.2593,2.78203c-1.35591,0.13043 -5.90055,-2.01868 -6.00918,-3.64121z" data-paper-data="{&quot;index&quot;:null}" fill="#571e03"/><path d="M291.33502,100.74292c-4.75173,-6.34028 4.89277,-7.40525 12.26763,-9.23225c7.37488,-1.82701 16.88899,-0.62828 16.76851,0.83058c-0.13365,1.61835 -0.45756,3.5747 -1.84154,4.20797c-2.76461,1.26499 -7.80594,0.14571 -12.72051,1.36322c-7.37484,1.82701 -9.99303,8.80957 -14.47409,2.83046z" data-paper-data="{&quot;index&quot;:null}" fill="#000000"/><path d="M296.37553,122.46841c-0.66331,-7.00517 1.88784,-17.41329 9.2455,-18.05375c7.35764,-0.64045 22.20632,6.31877 22.15602,18.12255c-0.02995,7.0254 -7.83357,11.95608 -15.14051,13.02044c-11.5976,1.98139 -16.26101,-13.08925 -16.26101,-13.08925z" data-paper-data="{&quot;index&quot;:null}" fill="#000000"/><g><path d="M310.51129,109.60265c6.23904,-0.60975 11.74626,3.495 12.3007,9.16821c0.55444,5.6732 -4.05384,10.76654 -10.29288,11.37628c-6.23904,0.60975 -11.74625,-3.495 -12.3007,-9.1682c-0.55444,-5.6732 4.05382,-10.76655 10.29287,-11.37629z" data-paper-data="{&quot;index&quot;:null}" fill="url(#color-13)"/><path d="M303.71808,115.18659c-2.82913,3.01324 -3.12287,7.59301 -3.8875,7.69458c-1.02751,0.13647 -1.44496,-3.20951 -0.05733,-6.06178c1.18058,-2.42669 3.18617,-5.38896 5.23791,-6.75581c2.92113,-1.946 8.43043,-2.73595 12.70589,-1.3483c3.16838,1.02833 4.79743,5.30151 4.87209,6.06549c0.17941,1.83565 -3.45092,-5.27081 -11.98741,-3.00771c-1.87581,0.4973 -5.31048,1.73801 -6.88364,3.41353z" data-paper-data="{&quot;index&quot;:null}" fill="#060406"/><path d="M300.76901,123.59476c1.18398,0.84892 2.87237,3.10138 5.56383,4.28132c0.73516,0.3223 6.5141,1.73412 10.18354,0.34609c4.08955,-1.54694 6.07271,-5.88695 6.16727,-4.91944c0.07467,0.76398 -0.69621,5.27171 -3.60554,6.89401c-3.92589,2.18917 -9.48389,2.48085 -12.72653,1.13723c-5.34255,-1.27653 -8.94157,-10.14769 -5.58256,-7.73921z" data-paper-data="{&quot;index&quot;:null}" fill="#060406"/></g><path d="M312.92913,115.42585c2.75844,0.61607 4.5094,3.28789 3.9109,5.96771c-0.5985,2.67982 -3.31984,4.35285 -6.07826,3.73678c-2.75844,-0.61606 -4.50939,-3.2879 -3.91089,-5.96772c0.5985,-2.67982 3.31983,-4.35284 6.07825,-3.73677z" data-paper-data="{&quot;index&quot;:null}" fill="url(#color-14)"/><path d="M312.64098,118.2132c1.2024,0.26853 1.96217,1.44867 1.69701,2.63596c-0.26516,1.18726 -1.45485,1.93205 -2.65724,1.66351c-1.20239,-0.26854 -1.96217,-1.44868 -1.69701,-2.63595c0.13098,-0.58649 0.48757,-1.06501 0.95985,-1.36674c0.48377,-0.30907 1.08895,-0.43265 1.69738,-0.29676z" data-paper-data="{&quot;index&quot;:null}" fill="#000000"/><path d="M310.5161,116.06738c0.53047,0.11847 0.86837,0.62699 0.75473,1.13582c-0.11364,0.50883 -0.63578,0.82527 -1.16625,0.70679c-0.53046,-0.11847 -0.86838,-0.62698 -0.75475,-1.13581c0.11363,-0.50883 0.6358,-0.82528 1.16627,-0.70679z" data-paper-data="{&quot;index&quot;:null}" fill="#ffffff"/><path d="M308.97378,118.07116c0.24755,0.05529 0.39911,0.32011 0.3385,0.59148c-0.06059,0.27138 -0.31043,0.44654 -0.55796,0.39126c-0.24755,-0.05529 -0.3991,-0.32011 -0.3385,-0.59148c0.06059,-0.27138 0.31042,-0.44654 0.55796,-0.39126z" data-paper-data="{&quot;index&quot;:null}" fill="#ffffff"/><g><path d="M275.09695,143.60517c-7.42727,0.7428 -16.28715,-2.1852 -18.03445,-9.06874c-2.93573,-11.56542 9.92681,-22.02234 17.30015,-23.19332c7.37335,-1.17099 12.42078,8.41397 13.48315,15.44716c0,0 -0.88885,15.92235 -12.74884,16.8149z" fill="#000000"/><path d="M283.0775,123.48509c2.57904,5.15281 0.07595,11.62925 -5.5908,14.46552c-5.66674,2.83626 -12.35127,0.95834 -14.93032,-4.19447c-2.57904,-5.15281 -0.07594,-11.62925 5.5908,-14.46551c5.66674,-2.83626 12.35127,-0.95833 14.93032,4.19448z" fill="url(#color-15)"/><path d="M269.23796,121.19644c-8.52247,2.6581 -7.80398,10.69281 -8.63847,9.02554c-0.34731,-0.69391 -1.25332,-5.22714 0.9043,-7.81235c2.91152,-3.48853 8.05084,-5.77784 11.59776,-5.68493c2.4913,0.06527 5.80178,1.52053 8.11808,2.96157c2.72251,1.69376 4.16621,4.78148 3.21354,5.21775c-0.70893,0.32463 -3.42522,-3.43604 -7.46783,-4.49167c-2.24792,-0.58698 -5.85465,0.2 -7.72738,0.78409z" fill="#060406"/><path d="M284.01426,126.01973c1.5779,-3.86878 3.27301,5.65911 -0.6114,9.6269c-2.05146,2.89497 -6.96427,5.63684 -11.5018,5.87664c-3.3626,0.17771 -6.44839,-3.26451 -6.79569,-3.95842c-0.43983,-0.87876 3.59301,1.76747 7.92493,0.89005c3.88691,-0.7873 8.07189,-5.10572 8.52749,-5.77718c1.66794,-2.45826 1.90031,-5.29435 2.4565,-6.65801z" data-paper-data="{&quot;index&quot;:null}" fill="#060406"/><path d="M275.76965,127.39055c1.24235,2.48215 0.17826,5.53098 -2.3767,6.80977c-2.55494,1.27878 -5.63326,0.30326 -6.87561,-2.17889c-1.24235,-2.48215 -0.17827,-5.53098 2.37669,-6.80977c2.55494,-1.27878 5.63326,-0.30325 6.87561,2.1789z" fill="url(#color-16)"/><path d="M272.60679,128.99077c0.55041,1.09969 0.09376,2.44303 -1.01994,3.00044c-1.1137,0.55741 -2.46272,0.11783 -3.01312,-0.98186c-0.55041,-1.09969 -0.09377,-2.44303 1.01993,-3.00045c1.1137,-0.55741 2.46272,-0.11782 3.01313,0.98187z" fill="#000000"/><path d="M269.64604,127.36569c0.23589,0.4713 0.02878,1.05271 -0.46255,1.29863c-0.49134,0.24592 -1.08086,0.06323 -1.31676,-0.40807c-0.23589,-0.4713 -0.0288,-1.05271 0.46254,-1.29863c0.49134,-0.24592 1.08087,-0.06323 1.31676,0.40807z" fill="#ffffff"/><path d="M268.11663,129.70621c0.12581,0.25135 0.04192,0.54816 -0.18738,0.66293c-0.22928,0.11476 -0.51716,0.00404 -0.64295,-0.24732c-0.12581,-0.25135 -0.04191,-0.54816 0.18737,-0.66292c0.22928,-0.11476 0.51716,-0.00404 0.64296,0.24732z" fill="#ffffff"/></g></g><path d="M359.01111,167.35853c7.44297,25.72046 53.44799,78.38838 40.60023,105.92101c-8.26938,16.29632 -45.80005,28.08374 -52.61952,30.05714c-29.09906,8.42066 -69.60789,16.20405 -79.32905,-17.38907c-5.84381,-20.19429 -0.49287,-59.26072 -4.09355,-81.06416c-3.76414,-9.43717 -2.33083,-16.24362 3.90899,-17.17871c5.07799,-0.76098 12.82406,5.15742 21.80908,6.14906c6.70357,0.73985 14.16814,-3.04282 21.34463,-4.80324c7.42113,-1.82044 16.12313,-4.88213 22.05209,-9.04899c9.46346,-6.65091 14.78504,-14.5583 16.81174,-15.88435c2.41767,-1.58185 8.27973,-1.02856 9.51536,3.24132z" fill="url(#color-17)" stroke="none" stroke-width="0"/><path d="M355.83188,164.23666c1.22291,4.22597 -1.93996,11.75409 1.08886,18.01623c13.00302,26.88402 42.88897,66.25841 32.67238,86.0132c-8.07937,14.42945 -38.97822,25.94068 -45.41419,27.80312c-27.46263,7.94711 -58.82699,10.07017 -67.28127,-19.14508c-5.08223,-17.56254 -4.27968,-47.7778 -7.22593,-66.79338c-3.34422,-8.18687 -15.82653,-13.66091 -7.36316,-22.40782c15.01402,-1.96487 16.87385,4.59347 25.07838,13.7206c22.33341,1.15885 42.37218,-10.81446 48.01621,-14.57945c9.00867,-6.00944 -7.90896,-17.67473 14.12598,-25.57623c1.99777,-1.82958 5.22815,-0.76465 6.30274,2.9488z" fill="url(#color-18)" stroke="none" stroke-width="0"/><path d="M280.42885,217.51217l-0.58868,-2.03431l2.0343,-0.58868l0.58869,2.03431z" fill="#324a1e" stroke="none" stroke-width="0"/><path d="M352.93969,274.57396l-0.70641,-2.44116l0.81372,-0.23548l0.70643,2.44116z" fill="#324a1e" stroke="none" stroke-width="0"/><path d="M298.97767,283.13453l-1.17737,-4.06861l2.44117,-0.70642l1.17737,4.06861z" fill="#324a1e" stroke="none" stroke-width="0"/><path d="M285.0922,271.7201l-0.23548,-0.81372l1.22059,-0.35321l0.23547,0.81372z" fill="#324a1e" stroke="none" stroke-width="0"/><path d="M373.84304,227.95924l-0.82416,-2.84803l1.62745,-0.47096l0.82416,2.84803z" fill="#324a1e" stroke="none" stroke-width="0"/><path d="M327.14796,269.25053l-0.35321,-1.22058l2.84803,-0.82416l0.35321,1.22058z" fill="#324a1e" stroke="none" stroke-width="0"/><path d="M354.28991,260.95527l-0.94189,-3.25489l1.22058,-0.35321l0.9419,3.25489z" fill="#324a1e" stroke="none" stroke-width="0"/><path d="M316.94949,212.67596l-0.47094,-1.62745l2.0343,-0.58868l0.47095,1.62744z" fill="#324a1e" stroke="none" stroke-width="0"/><path d="M279.29324,225.77756l-1.05963,-3.66175l2.84803,-0.82416l1.05963,3.66175z" fill="#4a1e1e" stroke="none" stroke-width="0"/><path d="M331.57562,202.27041l-0.58868,-2.0343l1.22059,-0.35321l0.58868,2.0343z" fill="#4a1e1e" stroke="none" stroke-width="0"/><path d="M283.6733,213.48677l-0.35321,-1.22059l2.84803,-0.82415l0.35321,1.22057z" fill="#4a1e1e" stroke="none" stroke-width="0"/><path d="M324.34168,282.40871l-0.9419,-3.25489l2.0343,-0.58868l0.9419,3.25489z" fill="#4a1e1e" stroke="none" stroke-width="0"/><path d="M341.01255,274.49798l-0.11773,-0.40687l2.84803,-0.82416l0.11773,0.40686z" fill="#4a1e1e" stroke="none" stroke-width="0"/><path d="M371.27077,258.68696l-0.94189,-3.25489l2.44116,-0.70643l0.9419,3.25489z" fill="#4a1e1e" stroke="none" stroke-width="0"/><path d="M288.45439,268.10156l-0.70642,-2.44117l3.66175,-1.05963l0.70643,2.44117z" fill="#4a1e1e" stroke="none" stroke-width="0"/><path d="M279.81491,259.57835l-0.11774,-0.40686l2.0343,-0.58868l0.11773,0.40686z" fill="#4a1e1e" stroke="none" stroke-width="0"/><path d="M340.47896,254.36951l-0.70642,-2.44117l3.25489,-0.9419l0.70643,2.44116z" fill="#4a1e1e" stroke="none" stroke-width="0"/><path d="M358.93071,205.37771l-0.58868,-2.03431l0.81372,-0.23547l0.58868,2.0343z" fill="#1e2a4a" stroke="none" stroke-width="0"/><path d="M366.45399,245.08916l-0.47096,-1.62744l2.84803,-0.82417l0.47096,1.62745z" fill="#1e2a4a" stroke="none" stroke-width="0"/><path d="M293.98344,217.1172l-0.58868,-2.0343l1.62745,-0.47096l0.58868,2.0343z" fill="#1e2a4a" stroke="none" stroke-width="0"/><path d="M310.3443,203.56406l-0.35321,-1.22058l0.81372,-0.23548l0.35321,1.22058z" fill="#1e2a4a" stroke="none" stroke-width="0"/><path d="M337.04664,202.89187l-0.35321,-1.22057l1.22059,-0.35321l0.35321,1.22058z" fill="#1e2a4a" stroke="none" stroke-width="0"/><path d="M353.10794,186.77984l-0.94189,-3.25489l1.22058,-0.35321l0.9419,3.25489z" fill="#1e2a4a" stroke="none" stroke-width="0"/><path d="M373.73429,247.39171l-0.23548,-0.81372l2.0343,-0.58868l0.23548,0.81372z" fill="#1e2a4a" stroke="none" stroke-width="0"/><path d="M302.54402,271.07921l-0.58868,-2.0343l2.44117,-0.70642l0.58868,2.03431z" fill="#3a4a1e" stroke="none" stroke-width="0"/><path d="M293.71227,257.32047l-0.58868,-2.0343l2.0343,-0.58868l0.58868,2.0343z" fill="#3a4a1e" stroke="none" stroke-width="0"/><path d="M311.18496,262.84659l-0.94189,-3.25489l2.0343,-0.58868l0.94189,3.25489z" fill="#4a431e" stroke="none" stroke-width="0"/><path d="M337.0721,279.16571l-0.47096,-1.62745l4.06861,-1.17737l0.47095,1.62743z" fill="#4a431e" stroke="none" stroke-width="0"/><g fill="#f0ba11"><path d="M302.83202,243.92942c1.86805,4.54332 -8.3319,7.00936 -10.80364,7.72464c-2.47173,0.71528 -2.30924,-2.97348 -3.67475,-7.69224c-0.97181,-3.35829 -1.99045,-6.27478 -2.31803,-8.03444c-0.0576,-0.30945 2.82026,-4.81277 6.16667,-2.58459c0.33783,0.22494 1.55471,3.06662 2.34663,5.74175c0.48978,1.65452 0.63375,3.68731 0.8574,3.66965c3.14777,-0.2486 5.72439,-2.96256 7.42571,1.17525z" stroke="#25055b" stroke-width="7.5"/><path d="M317.4394,237.81263c1.23546,4.26936 -7.27428,5.56949 -11.22264,6.71206c-1.97605,0.57183 -1.79248,-1.46329 -2.71641,-4.38536c-0.92217,-2.91653 -1.97121,-6.37167 -2.58836,-8.50432c-1.23546,-4.26936 7.23766,-6.56674 11.18602,-7.70931c1.286,-0.37213 2.2951,2.14258 2.48309,4.62756c0.11188,1.47894 -5.18268,2.79495 -5.05745,3.5715c0.12973,0.80445 3.88506,-1.34538 4.23246,-0.56969c1.41957,3.16967 -3.37045,3.37819 -2.84794,4.2454c0.89741,1.48942 4.71089,-4.27827 6.53122,2.01217z" stroke="#25055b" stroke-width="7.5"/><path d="M331.69569,217.95284c0.66431,1.74949 -2.52956,4.93006 -6.68461,6.50781c-4.15506,1.57775 -7.78685,4.1305 -8.92212,0.75355c-0.59632,-1.77382 0.61768,-5.0067 8.30907,-7.85976c4.16708,-1.54574 6.63333,-1.1511 7.29765,0.59839z" stroke="#25055b" stroke-width="7.5"/><path d="M329.19302,228.36431c1.08683,3.75576 2.4871,4.76044 -1.5378,7.31095c-2.25229,0.6318 -2.93897,-0.20339 -3.17609,-0.7831c-0.45353,-1.10876 -4.49227,-12.30448 -2.88725,-12.76893c0.81975,-0.23722 4.01235,-2.46394 5.20788,-1.20028c1.14522,1.21051 1.86152,5.60383 2.39326,7.44136z" stroke="#25055b" stroke-width="7.5"/><path d="M356.22146,210.01717c0.07163,0.90054 -0.68741,1.58136 -2.51866,1.98254c-0.81327,0.17817 -1.69481,0.48123 -2.63314,0.55268c-1.55908,0.11872 -3.31614,-0.33319 -3.49034,-0.14551c-0.9037,0.97371 1.59549,1.03777 3.56566,0.77944c2.69741,-0.3537 6.24748,0.51342 6.58286,1.59082c1.57655,5.06481 -3.24791,9.06643 -5.38878,9.68595c-1.65272,0.47826 -10.85357,3.88929 -9.73789,-3.82618c0.24743,-1.7111 8.48896,-0.50395 7.37721,-1.89549c-0.92563,-1.15858 -8.21545,0.95443 -9.09544,-2.52188c-1.09479,-4.32482 2.89335,-8.11265 7.06642,-9.32024c4.17307,-1.20759 7.9184,-1.32932 8.27211,3.11787z" stroke="#25055b" stroke-width="7.5"/><path d="M337.11249,209.72031c0.31583,1.09142 -1.2206,4.06964 -1.94285,4.27865c-0.72226,0.20901 -0.82949,-2.1046 -1.14533,-3.19602c-0.31583,-1.09142 0.49694,-1.78154 1.2192,-1.99056c0.72226,-0.20901 1.55316,-0.18349 1.86899,0.90793z" stroke="#25055b" stroke-width="7.5"/><path d="M349.23323,235.06236c1.07542,3.06329 1.26495,5.77919 -0.63529,6.2939c-2.25157,0.60986 -3.0477,-2.04258 -3.94876,-5.15633c-0.90105,-3.11375 -2.1177,-6.11576 0.67511,-6.80934c3.08754,-0.76678 2.83521,2.61328 3.90895,5.67177z" stroke="#25055b" stroke-width="7.5"/><path d="M356.22035,231.78063c1.07542,3.06329 1.26494,5.77919 -0.6353,6.2939c-2.25157,0.60986 -3.0477,-2.04259 -3.94876,-5.15633c-0.90105,-3.11375 -2.1177,-6.11575 0.67511,-6.80934c3.08754,-0.76678 2.8352,2.61329 3.90894,5.67178z" stroke="#25055b" stroke-width="7.5"/><path d="M363.0499,228.60749c1.07542,3.06329 1.26496,5.7792 -0.63529,6.2939c-2.25157,0.60986 -3.04771,-2.04259 -3.94876,-5.15633c-0.90105,-3.11375 -2.1177,-6.11576 0.67511,-6.80935c3.08754,-0.76678 2.83521,2.61328 3.90894,5.67177z" stroke="#25055b" stroke-width="7.5"/><path d="M351.38764,244.68402c0.2661,0.91954 -0.23381,1.87207 -1.11658,2.12752c-0.88276,0.25545 -1.8141,-0.2829 -2.0802,-1.20244c-0.2661,-0.91954 0.23381,-1.87207 1.11657,-2.12752c0.88276,-0.25545 1.8141,0.2829 2.0802,1.20244z" stroke="#25055b" stroke-width="7.5"/><path d="M358.32577,241.66843c0.2661,0.91954 -0.23381,1.87207 -1.11658,2.12752c-0.88276,0.25545 -1.8141,-0.2829 -2.08019,-1.20245c-0.2661,-0.91954 0.2338,-1.87207 1.11656,-2.12752c0.88276,-0.25545 1.81411,0.2829 2.08021,1.20245z" stroke="#25055b" stroke-width="7.5"/><path d="M365.40464,238.48612c0.2661,0.91954 -0.23381,1.87207 -1.11658,2.12752c-0.88276,0.25545 -1.8141,-0.2829 -2.0802,-1.20245c-0.2661,-0.91954 0.23381,-1.87206 1.11657,-2.12751c0.88276,-0.25545 1.8141,0.2829 2.0802,1.20244z" stroke="#25055b" stroke-width="7.5"/><path d="M342.06275,234.73319c0.7511,1.99021 -2.77166,5.57486 -7.3741,7.33346c-4.60244,1.7586 -8.61634,4.62751 -9.90286,0.78704c-0.67579,-2.0173 0.64781,-5.67639 9.16787,-8.85513c4.61602,-1.72219 7.35799,-1.25559 8.10908,0.73462z" stroke="#25055b" stroke-width="7.5"/><path d="M339.15171,244.82536c1.23563,4.26994 2.91949,5.38558 -2.05094,8.39943c-2.76234,0.77666 -3.57989,-0.1622 -3.85522,-0.8196c-0.52661,-1.25736 -5.18444,-13.96669 -3.21562,-14.53643c1.00556,-0.29099 4.95306,-2.91454 6.38099,-1.49776c1.36785,1.35718 2.13625,6.36528 2.74079,8.45438z" stroke="#25055b" stroke-width="7.5"/><path d="M315.69822,251.69392c0.2194,0.75817 -0.36626,2.90798 0.61525,3.55976c0.7777,0.51643 1.88106,-0.49667 2.91004,-0.31135c1.28489,0.2314 2.42872,1.64825 2.38815,2.3616c-0.05824,1.02428 -2.40416,-0.38741 -3.49234,0.55993c-2.00239,1.74328 -3.44457,5.601 -4.65233,5.85177c-1.07891,0.22402 -2.90771,1.15122 -4.40328,-4.01696c-1.49556,-5.16818 1.39241,-14.77732 4.48208,-15.6714c1.83301,-0.53044 2.71558,2.04343 2.67624,4.0194c-0.02193,1.10219 0.97892,2.25404 1.03311,3.47155c0.0028,0.06286 0.44278,0.23453 0.20012,0.41985c-0.14517,0.11086 -0.59584,0.04125 -0.99971,0.15855c-0.19455,0.0565 -0.42801,0.13426 -0.54723,0.45086c-0.12843,0.34107 -0.13564,0.92012 -0.14809,0.91054c-4.44887,-3.42239 -0.11052,-1.93171 -0.062,-1.76408z" stroke="#25055b" stroke-width="7.5"/><path d="M318.18584,252.28366c-0.00552,0.01434 -0.58232,-0.15593 -0.87032,-0.36631c-0.26735,-0.19529 -0.48261,-0.05466 -0.67726,0.00146c-0.40409,0.11652 -0.50665,0.03088 -0.68797,0.0168c-0.30311,-0.02354 -0.02012,-0.39441 -0.05076,-0.44707c-0.59337,-1.02021 -0.34942,-2.484 -0.94679,-3.3703c-1.07094,-1.58891 -3.53837,-3.43009 -1.70537,-3.96052c1.25937,-0.36444 3.48324,-1.44297 5.60766,-0.48256c3.08754,1.39583 6.5045,5.23572 7.3608,8.19483c1.4455,4.99516 -0.20911,6.67668 -1.24171,7.06072c-1.15593,0.42991 -3.86187,-1.45086 -6.47537,-1.81942c-1.42027,-0.20029 -4.32914,3.14707 -4.91637,2.34331c-0.40898,-0.55977 4.38901,-3.79642 4.77736,-4.62547c0.49012,-1.0463 -0.83556,-3.28222 -1.04762,-4.015c-0.04688,-0.16202 2.84948,-3.65436 0.87372,1.46952z" data-paper-data="{&quot;index&quot;:null}" stroke="#25055b" stroke-width="7.5"/><path d="M308.28812,262.56626c1.06369,3.67575 -7.4029,5.12502 -11.35125,6.26758c-1.97605,0.57183 -1.71889,-1.209 -2.5244,-3.72188c-0.80399,-2.50811 -1.71348,-5.48102 -2.24483,-7.31716c-1.06369,-3.67575 7.40369,-5.99297 11.35205,-7.13554c1.286,-0.37213 2.19091,1.78249 2.28462,3.94168c0.05577,1.28505 -5.23077,2.62878 -5.13571,3.30105c0.09848,0.69642 3.89327,-1.31701 4.20814,-0.65374c1.28664,2.71031 -3.45966,3.06991 -2.97496,3.80647c0.83247,1.26502 4.81912,-3.90427 6.38634,1.51153z" stroke="#25055b" stroke-width="7.5"/><path d="M303.23888,243.81168c1.86805,4.54332 -8.33189,7.00937 -10.80364,7.72463c-2.47173,0.71528 -2.30924,-2.97348 -3.67476,-7.69224c-0.97181,-3.35829 -1.99045,-6.27477 -2.31802,-8.03444c-0.0576,-0.30945 2.82026,-4.81277 6.16666,-2.58459c0.33783,0.22494 1.55472,3.06663 2.34663,5.74175c0.48978,1.65452 0.63375,3.68731 0.85739,3.66964c3.14777,-0.2486 5.7244,-2.96256 7.42571,1.17525z" stroke="none" stroke-width="0"/><path d="M317.84628,237.6949c1.23546,4.26936 -7.27428,5.56948 -11.22262,6.71205c-1.97605,0.57183 -1.79248,-1.46329 -2.71641,-4.38536c-0.92217,-2.91653 -1.97122,-6.37167 -2.58836,-8.50433c-1.23546,-4.26936 7.23766,-6.56673 11.18601,-7.7093c1.286,-0.37213 2.2951,2.14258 2.48309,4.62756c0.11188,1.47894 -5.18268,2.79495 -5.05745,3.57149c0.12973,0.80445 3.88507,-1.34538 4.23246,-0.56969c1.41957,3.16967 -3.37045,3.37819 -2.84795,4.2454c0.89741,1.48942 4.71089,-4.27826 6.53122,2.01218z" stroke="none" stroke-width="0"/><path d="M332.10254,217.83509c0.66431,1.74949 -2.52956,4.93005 -6.68462,6.50781c-4.15506,1.57775 -7.78686,4.1305 -8.92212,0.75355c-0.59632,-1.77382 0.61768,-5.00671 8.30908,-7.85977c4.16708,-1.54574 6.63333,-1.15109 7.29765,0.5984z" stroke="none" stroke-width="0"/><path d="M329.59988,228.24658c1.08683,3.75576 2.4871,4.76044 -1.53779,7.31095c-2.25229,0.6318 -2.93898,-0.20339 -3.1761,-0.7831c-0.45353,-1.10876 -4.49227,-12.30448 -2.88725,-12.76893c0.81975,-0.23722 4.01235,-2.46395 5.20788,-1.20028c1.14522,1.21051 1.86151,5.60383 2.39326,7.44137z" stroke="none" stroke-width="0"/><path d="M356.62832,209.89944c0.07163,0.90054 -0.68742,1.58136 -2.51866,1.98253c-0.81327,0.17817 -1.6948,0.48123 -2.63313,0.55268c-1.55908,0.11872 -3.31614,-0.3332 -3.49034,-0.14552c-0.9037,0.97371 1.59548,1.03778 3.56565,0.77945c2.69741,-0.3537 6.24748,0.51341 6.58285,1.59081c1.57655,5.06481 -3.24791,9.06643 -5.38878,9.68596c-1.65272,0.47826 -10.85356,3.88929 -9.73788,-3.82618c0.24743,-1.7111 8.48896,-0.50395 7.37721,-1.89549c-0.92563,-1.15858 -8.21544,0.95443 -9.09544,-2.52188c-1.09479,-4.32482 2.89335,-8.11265 7.0664,-9.32025c4.17307,-1.20759 7.9184,-1.32932 8.27211,3.11787z" stroke="none" stroke-width="0"/><path d="M337.51937,209.60258c0.31583,1.09142 -1.2206,4.06963 -1.94286,4.27864c-0.72226,0.20901 -0.82949,-2.1046 -1.14533,-3.19602c-0.31583,-1.09142 0.49694,-1.78154 1.2192,-1.99056c0.72226,-0.20901 1.55316,-0.18348 1.86899,0.90793z" stroke="none" stroke-width="0"/><path d="M349.6401,234.94463c1.07542,3.06329 1.26496,5.77919 -0.63529,6.2939c-2.25157,0.60986 -3.04771,-2.04259 -3.94876,-5.15633c-0.90105,-3.11375 -2.11769,-6.11575 0.67512,-6.80934c3.08754,-0.76678 2.8352,2.61328 3.90894,5.67177z" stroke="none" stroke-width="0"/><path d="M356.62721,231.6629c1.07542,3.06329 1.26495,5.7792 -0.6353,6.2939c-2.25157,0.60986 -3.04771,-2.04259 -3.94876,-5.15633c-0.90105,-3.11375 -2.11769,-6.11576 0.67512,-6.80935c3.08754,-0.76678 2.83521,2.61328 3.90894,5.67177z" stroke="none" stroke-width="0"/><path d="M363.45676,228.48975c1.07542,3.06329 1.26495,5.77918 -0.63529,6.29389c-2.25157,0.60986 -3.04771,-2.04259 -3.94876,-5.15633c-0.90105,-3.11375 -2.11771,-6.11574 0.6751,-6.80933c3.08754,-0.76678 2.83521,2.61328 3.90895,5.67177z" stroke="none" stroke-width="0"/><path d="M351.7945,244.56629c0.2661,0.91954 -0.23381,1.87207 -1.11658,2.12752c-0.88276,0.25545 -1.8141,-0.2829 -2.08019,-1.20245c-0.2661,-0.91954 0.23381,-1.87207 1.11657,-2.12752c0.88276,-0.25545 1.8141,0.2829 2.0802,1.20245z" stroke="none" stroke-width="0"/><path d="M358.73265,241.5507c0.2661,0.91954 -0.23381,1.87207 -1.11658,2.12752c-0.88276,0.25545 -1.8141,-0.2829 -2.0802,-1.20244c-0.2661,-0.91954 0.23381,-1.87207 1.11658,-2.12752c0.88276,-0.25545 1.8141,0.2829 2.0802,1.20244z" stroke="none" stroke-width="0"/><path d="M365.81152,238.36839c0.2661,0.91954 -0.23381,1.87208 -1.11658,2.12753c-0.88276,0.25545 -1.8141,-0.2829 -2.08019,-1.20245c-0.2661,-0.91954 0.23381,-1.87207 1.11657,-2.12752c0.88276,-0.25545 1.8141,0.2829 2.0802,1.20244z" stroke="none" stroke-width="0"/><path d="M342.46961,234.61546c0.7511,1.99021 -2.77166,5.57486 -7.3741,7.33346c-4.60244,1.7586 -8.61633,4.62751 -9.90286,0.78705c-0.67579,-2.0173 0.6478,-5.67639 9.16786,-8.85513c4.61602,-1.72219 7.35799,-1.25559 8.1091,0.73461z" stroke="none" stroke-width="0"/><path d="M339.55857,244.70762c1.23563,4.26994 2.91949,5.38557 -2.05094,8.39942c-2.76234,0.77666 -3.57988,-0.1622 -3.85522,-0.8196c-0.52661,-1.25736 -5.18446,-13.96669 -3.21562,-14.53643c1.00556,-0.29099 4.95306,-2.91453 6.38099,-1.49776c1.36785,1.35718 2.13625,6.36527 2.74079,8.45437z" stroke="none" stroke-width="0"/><path d="M316.10508,251.5762c0.2194,0.75817 -0.36626,2.90799 0.61524,3.55975c0.7777,0.51643 1.88106,-0.49667 2.91004,-0.31136c1.28489,0.2314 2.42872,1.64825 2.38816,2.3616c-0.05824,1.02428 -2.40417,-0.38742 -3.49234,0.55993c-2.00239,1.74328 -3.44457,5.601 -4.65233,5.85178c-1.07891,0.22402 -2.90771,1.15121 -4.40328,-4.01697c-1.49556,-5.16818 1.39242,-14.77731 4.48208,-15.6714c1.83301,-0.53044 2.71558,2.04343 2.67625,4.0194c-0.02193,1.10219 0.97892,2.25403 1.0331,3.47154c0.0028,0.06286 0.44278,0.23453 0.20011,0.41985c-0.14517,0.11086 -0.59584,0.04125 -0.99971,0.15855c-0.19455,0.0565 -0.42801,0.13427 -0.54723,0.45086c-0.12843,0.34107 -0.13564,0.92011 -0.14809,0.91053c-4.44887,-3.42239 -0.11052,-1.9317 -0.062,-1.76407z" stroke="none" stroke-width="0"/><path d="M318.59272,252.16593c-0.00552,0.01434 -0.58231,-0.15593 -0.87033,-0.3663c-0.26735,-0.19529 -0.48261,-0.05467 -0.67726,0.00146c-0.40409,0.11652 -0.50666,0.03088 -0.68797,0.0168c-0.30311,-0.02354 -0.02012,-0.39441 -0.05076,-0.44707c-0.59337,-1.02021 -0.34942,-2.484 -0.94679,-3.37029c-1.07094,-1.58891 -3.53837,-3.43009 -1.70536,-3.96053c1.25937,-0.36444 3.48323,-1.44297 5.60765,-0.48256c3.08754,1.39583 6.50452,5.23572 7.36082,8.19482c1.4455,4.99516 -0.20911,6.67667 -1.24172,7.06072c-1.15593,0.42991 -3.86186,-1.45085 -6.47537,-1.81942c-1.42027,-0.20029 -4.32914,3.14708 -4.91637,2.34332c-0.40898,-0.55977 4.38902,-3.79643 4.77737,-4.62547c0.49012,-1.0463 -0.83556,-3.28222 -1.04762,-4.01499c-0.04688,-0.16202 2.84947,-3.65436 0.87372,1.46952z" data-paper-data="{&quot;index&quot;:null}" stroke="none" stroke-width="0"/><path d="M308.69498,262.44852c1.06369,3.67575 -7.4029,5.12502 -11.35125,6.26758c-1.97605,0.57183 -1.7189,-1.209 -2.52441,-3.72188c-0.80399,-2.50811 -1.71349,-5.48103 -2.24483,-7.31716c-1.06369,-3.67575 7.4037,-5.99296 11.35206,-7.13553c1.286,-0.37213 2.1909,1.78248 2.28461,3.94168c0.05577,1.28504 -5.23077,2.62878 -5.13571,3.30105c0.09848,0.69642 3.89327,-1.31701 4.20814,-0.65374c1.28664,2.71031 -3.45966,3.06991 -2.97496,3.80647c0.83247,1.26502 4.81912,-3.90428 6.38635,1.51153z" stroke="none" stroke-width="0"/></g><path d="M257.70809,217.92867c-3.38544,1.17401 -20.16935,-4.07789 -21.10364,-6.77206c-2.17874,-6.28272 14.02906,-17.22424 19.95616,-19.27966c5.92711,-2.05542 7.07458,23.99631 1.14749,26.05172z" fill="url(#color-19)" stroke="none" stroke-width="0"/><path d="M373.06724,181.53561c8.18961,-7.27596 4.01898,-13.7814 8.63374,-14.79209c10.19733,-2.23336 45.4332,11.09526 48.68906,30.86685c1.23772,7.5162 -3.35945,3.1197 -8.33437,10.4875c-6.00392,8.89169 -6.98245,12.73984 -13.30324,14.12419c-10.19733,2.23336 -21.95774,-6.71114 -33.19502,-23.87244c-5.75717,-8.7922 -3.25619,-17.28332 -2.49017,-16.81403z" data-paper-data="{&quot;index&quot;:null}" fill="url(#color-20)" stroke="none" stroke-width="0"/><path d="M358.95207,162.64419c5.52526,-1.91607 23.70514,-3.26035 25.73617,2.59643c0.87095,2.51151 -8.38484,16.04288 -11.54075,17.1373c-5.52526,1.91607 -19.72069,-17.81766 -14.19543,-19.73372z" data-paper-data="{&quot;index&quot;:null}" fill="url(#color-21)" stroke="none" stroke-width="0"/><g stroke="none" stroke-width="0"><path d="M258.06097,240.76968c2.70265,7.7935 -1.69306,16.39551 -9.81808,19.21313c-8.12502,2.81762 -16.90259,-1.21612 -19.60524,-9.00962c-2.70265,-7.7935 1.69305,-16.39551 9.81807,-19.21313c8.12502,-2.81762 16.90259,1.21612 19.60524,9.00962z" fill="#272206"/><path d="M273.80933,235.22506c4.39754,12.68095 -5.92506,31.08141 -21.09178,36.34097c-15.16672,5.25956 -33.90589,-5.01984 -37.815,-17.16348c-3.66099,-11.37284 1.48515,-21.36046 4.85759,-24.71179c7.17034,-7.12548 16.0209,-12.44901 23.71585,-13.4693c3.36344,-0.44597 17.39296,1.44047 18.55635,4.30321c2.32162,5.71275 -9.85345,14.95825 -3.0936,14.82949c1.34225,-0.02556 -7.57514,-6.18697 -19.43935,-0.29648c-5.12558,2.5448 -6.86184,9.61488 -6.18741,12.45273c1.62691,6.8457 7.22006,12.13514 15.49276,9.60414c9.19021,-2.81171 14.56622,-16.89696 3.19225,-22.61818c-14.80125,-7.44517 -16.92631,1.98358 -15.32614,-0.28468c-7.5996,0.73898 -5.08033,-12.85537 21.30886,-15.48882c7.36639,-0.73511 15.15976,14.57059 15.82961,16.50221z" fill="url(#color-22)"/></g><path d="M345.25285,243.9879c-2.69567,-2.69282 -4.38814,-8.55632 -6.36998,-9.67382c-0.78274,-0.44136 -0.78337,1.82632 -1.58256,1.30885c-0.67581,-0.43758 -2.29743,-5.38092 -3.54528,-6.6833c-2.6925,-2.81017 -9.51783,-15.99922 -11.48286,-15.60466c-1.79692,0.36082 1.3679,3.85536 -1.21307,1.60837c-6.16019,-5.36304 -14.50698,-11.62375 -16.76267,-13.67713c-7.11099,-6.47323 -2.19714,-9.21888 -2.19714,-9.21888c0,0 25.47037,-11.79668 42.4853,8.16885c6.28282,7.37234 6.92459,42.18934 6.92459,42.18934c0,0 4.36811,12.19559 -6.25633,1.58238z" data-paper-data="{&quot;index&quot;:null}" fill="#d9cd61" stroke="none" stroke-width="0"/><path d="M340.75987,201.68938c-5.78475,-1.1242 -10.76652,-12.14883 -18.72346,-9.12214c-9.16841,3.48752 -15.20101,5.42068 -18.85667,9.91156c-0.611,0.75059 0.74349,1.4633 -0.0516,0.83454c-0.5367,-0.42442 -3.4164,0.3361 -4.63274,-1.81313c-1.35435,-2.39309 -0.99676,-7.71176 -0.35067,-8.06961c5.40242,-2.99224 18.21939,-7.81245 18.79474,-7.94555c7.29725,-1.68802 13.42592,2.22 14.53871,3.67575c0.71564,0.93618 10.4856,3.85416 11.86864,7.63087c1.41237,3.85682 1.23226,6.92306 1.36816,8.27515c0.20776,2.06698 -2.81856,-3.15656 -3.95511,-3.37744z" data-paper-data="{&quot;index&quot;:null}" fill="#503615" stroke="none" stroke-width="0"/><path d="M351.79979,242.30598c0.0781,0.08276 0.2086,0.19267 0.37099,0.32256c-0.45722,-0.62963 -0.94639,-1.23569 -1.51564,-1.79801c0.36363,0.55829 0.7516,1.05895 1.14465,1.47545zM347.63638,217.84451c-0.39612,-1.98977 -0.0076,-4.03813 -0.75283,-5.96779c0,0 -0.21121,-0.55526 0.34404,-0.76647c0.55525,-0.21121 0.76646,0.34404 0.76646,0.34404c0.75937,2.02276 0.38656,4.08607 0.80615,6.15114c0.59462,2.92651 1.7822,5.39862 3.46227,7.81033c0.62721,0.78126 2.13448,2.65591 2.13781,3.67557c0.00565,1.73371 -1.54758,2.08964 -2.73193,1.1301c-0.54086,-0.4382 -1.05814,-1.14058 -1.53759,-1.96328c-0.17991,0.01107 -0.31984,0.05864 -0.39964,0.1566c-0.54618,0.67047 -0.79397,1.50992 -0.84064,2.43883c0.01475,0.66204 0.05478,1.20357 0.062,1.39862c0.34377,2.74625 1.85761,5.88019 2.50636,7.73828c1.51033,1.34836 2.46978,3.13653 3.61576,4.79472l0.00738,0.07485l0.02258,-0.00859l0.25345,0.6663c0.11665,0.30666 -0.03739,0.64982 -0.34404,0.76647c-0.15333,0.05832 -0.31579,0.04898 -0.45448,-0.01328l-0.61318,-0.27524l0.09431,-0.21011c-4.1067,-1.90724 -8.11966,-9.72401 -6.25426,-13.7389c-0.07058,-1.23547 -0.34258,-5.04437 1.26464,-5.94059c-0.57079,-1.288 -1.04559,-2.58414 -1.38578,-3.49773l-0.52081,-0.74762c-0.03056,-0.04189 -0.0561,-0.0885 -0.07542,-0.1393c-0.11665,-0.30666 0.03739,-0.64982 0.34404,-0.76647c0.19579,-0.07448 0.40646,-0.03861 0.56356,0.07687l0.69016,0.49198l-0.15629,0.21924l0.06857,0.09843c0.1649,0.12625 0.32734,0.26307 0.48731,0.40882c-0.63315,-1.38315 -1.11739,-2.8357 -1.42997,-4.40584zM348.66832,235.8773c0.25761,1.53198 0.88822,3.1144 1.67136,4.44393c-0.57448,-1.41842 -1.201,-2.91658 -1.67136,-4.44393z" data-paper-data="{&quot;index&quot;:null}" fill="#d9cd61" stroke="none" stroke-width="0.5"/><path d="M306.97152,199.85509l-0.12593,-0.05042c1.66195,1.24796 2.23949,3.93185 2.84352,6.18753c0.13172,-0.87341 -0.12018,-1.81338 0.47286,-2.55237c2.49448,-3.10839 4.66163,3.5745 5.38389,5.58089c0.03698,-1.8195 0.57388,-3.29375 2.9529,-1.59782c1.72872,-0.00808 3.11631,2.19953 4.22487,4.55724c-0.06791,-0.41151 -0.11453,-0.82255 -0.13536,-1.23241c0,0 -0.02478,-0.59355 0.56877,-0.61834c0.59355,-0.02479 0.61834,0.56877 0.61834,0.56877c0.09305,3.09606 1.96768,6.42387 3.06584,9.31083l0.25345,0.66631c0.11665,0.30666 -0.03739,0.64982 -0.34404,0.76647c-0.30665,0.11665 -0.64982,-0.03739 -0.76646,-0.34404l-0.25345,-0.6663c-0.02922,-0.07683 -0.05886,-0.15383 -0.08886,-0.23102c-2.10959,-2.78965 -2.65743,-6.31551 -4.95027,-9.09193c-0.74944,-0.9075 -1.30972,-2.65286 -2.5312,-2.54664c-2.73782,-1.95171 -1.31835,2.00774 -1.26091,3.3572l0.22767,0.59853c0.11665,0.30666 -0.03739,0.64982 -0.34404,0.76646c-0.24977,0.09501 -0.52376,0.01045 -0.67985,-0.18989l-0.46689,-0.57122l0.16907,-0.13818l-0.04225,-0.11105l0.0138,-0.00525c-1.33753,-1.62891 -1.87393,-4.19742 -2.60146,-6.12913c-0.1599,-0.42455 -1.19176,-2.5527 -1.74893,-2.25848c-0.899,0.47474 -0.28436,1.8775 -0.68699,2.66558c0.48633,1.06589 0.55169,2.36943 0.60069,3.54285l0.03078,0.73711c0.01653,0.25343 -0.13199,0.49871 -0.38177,0.59372c-0.30665,0.11665 -0.64982,-0.03739 -0.76647,-0.34404l-0.25345,-0.6663l0.17948,-0.06827c-1.55948,-2.97502 -1.53131,-7.94913 -3.99297,-9.56932l-0.29489,-0.49463c0,0 -0.21121,-0.55525 0.34404,-0.76646c0.55525,-0.21121 0.76647,0.34404 0.76647,0.34404z" data-paper-data="{&quot;index&quot;:null}" fill="#d9cd61" stroke="none" stroke-width="0.5"/><path d="M318.58832,197.97862c1.83995,-0.69989 4.03129,0.57234 4.89449,2.84162c0.8632,2.26928 0.07138,4.67627 -1.76857,5.37616c-1.83995,0.69989 -4.03129,-0.57235 -4.89449,-2.84163c-0.8632,-2.26928 -0.07138,-4.67626 1.76857,-5.37615z" data-paper-data="{&quot;index&quot;:null}" fill="#8f2323" stroke="none" stroke-width="0"/><path d="M334.66793,216.52335c1.5333,-0.58324 3.49496,0.83328 4.38148,3.16389c0.88653,2.33061 0.36222,4.69276 -1.17107,5.276c-1.5333,0.58324 -3.49496,-0.83328 -4.38148,-3.16389c-0.88653,-2.33061 -0.36222,-4.69276 1.17107,-5.27599z" data-paper-data="{&quot;index&quot;:null}" fill="#8f2323" stroke="none" stroke-width="0"/><path d="M339.02626,201.89933c1.77583,-0.6755 4.35018,1.76005 5.74996,5.43997c1.39978,3.67991 1.09493,7.21067 -0.68091,7.88617c-1.77583,0.6755 -4.35018,-1.76005 -5.74996,-5.43997c-1.39978,-3.67991 -1.09492,-7.21067 0.68091,-7.88617z" data-paper-data="{&quot;index&quot;:null}" fill="#8f2323" stroke="none" stroke-width="0"/><path d="M329.22267,194.18772c1.1653,-0.44326 2.69625,0.7387 3.41947,2.63998c0.72322,1.90129 0.36484,3.80192 -0.80046,4.24518c-1.1653,0.44326 -2.69626,-0.7387 -3.41948,-2.63998c-0.72322,-1.90129 -0.36484,-3.80192 0.80047,-4.24518z" data-paper-data="{&quot;index&quot;:null}" fill="#8f2323" stroke="none" stroke-width="0"/><path d="M346.21144,234.50538c1.18064,-0.44909 2.73347,0.753 3.46836,2.68495c0.73489,1.93195 0.37353,3.86218 -0.80711,4.31128c-1.18064,0.44909 -2.73348,-0.753 -3.46837,-2.68495c-0.73489,-1.93195 -0.37353,-3.86218 0.80711,-4.31127z" data-paper-data="{&quot;index&quot;:null}" fill="#8f2323" stroke="none" stroke-width="0"/><g stroke="none" stroke-width="0"><path d="M280.53406,235.84416c1.53769,5.17551 -12.12752,11.24166 -25.90051,16.0179c-9.35588,3.24446 -30.28142,7.83945 -40.73191,4.38119c-4.9339,-1.63272 -3.89206,-7.14706 -4.45938,-8.78303c-1.76898,-5.1011 27.34527,-5.55096 41.11824,-10.32719c13.77298,-4.77623 26.2604,-13.7865 29.97356,-1.28887z" fill="url(#color-23)"/><path d="M241.65463,244.67067c1.96356,5.66222 0.04037,11.47129 -4.29556,12.97492c-4.33594,1.50362 -9.44269,-1.86757 -11.40625,-7.52979c-1.96356,-5.66222 2.46241,-9.02813 6.79834,-10.53177c4.33594,-1.50364 6.93992,-0.57557 8.90348,5.08665z" fill="url(#color-24)"/><path d="M262.36893,239.55674c1.96356,5.66222 0.04037,11.47129 -4.29556,12.97493c-4.33594,1.50362 -9.4427,-1.86757 -11.40625,-7.52979c-1.96356,-5.66222 2.46241,-9.02813 6.79835,-10.53177c4.33594,-1.50364 6.93992,-0.57557 8.90347,5.08665z" fill="url(#color-25)"/><path d="M268.30025,228.91175c4.33594,-1.50364 9.89554,-1.60054 11.8591,4.06168c1.96356,5.66222 0.04038,11.47129 -4.29556,12.97493c-4.33594,1.50362 -9.4427,-1.86758 -11.40627,-7.5298c-1.96356,-5.66222 -0.49322,-8.00317 3.84271,-9.5068z" data-paper-data="{&quot;index&quot;:null}" fill="url(#color-26)"/></g><g stroke="none" stroke-width="0"><path d="M294.99832,227.04901c0.40167,2.96361 -22.08818,7.02382 -46.80053,9.86271c-24.71233,2.83889 -41.89035,4.53555 -41.99163,0.33751c-0.12935,-5.36064 18.71841,-7.58122 43.43075,-10.42011c24.71233,-2.83889 44.69816,-4.67366 45.36141,0.21989z" fill="#8c899c"/><path d="M292.38069,224.98846c0.13307,1.1584 -18.68973,3.46259 -41.60013,6.09448c-22.9104,2.6319 -43.20487,4.68645 -43.33794,3.52806c-0.13307,-1.1584 18.96756,-5.38351 41.87794,-8.0154c22.9104,-2.63189 42.92706,-2.76554 43.06014,-1.60716z" fill="url(#color-27)"/></g><path d="M243.21598,148.51934c0,0 -9.91358,-27.58125 -7.17718,-35.26083c7.41063,-20.79757 30.97718,-19.13917 30.97718,-19.13917c0,0 4.68713,0.6895 1.0302,7.9096c-1.16002,2.2903 -5.85271,9.713 -9.0939,15.77524c-1.35798,2.53993 0.08598,-1.15612 -1.43555,-0.90226c-1.66388,0.27761 -3.0865,12.69531 -4.36369,15.71165c-0.59192,1.39793 -0.38837,5.77193 -0.78906,6.31838c-0.47385,0.64622 -1.15291,-1.1375 -1.63659,-0.55606c-1.22465,1.47213 -0.80148,6.59116 -2.11628,9.51614c-5.18201,11.5282 -5.39513,0.62731 -5.39513,0.62731z" fill="url(#color-28)" stroke="none" stroke-width="0"/><path d="M235.21591,116.13849c-0.29769,-1.10431 -1.3569,-3.4625 -1.39993,-6.91915c-0.04214,-3.38484 6.77036,-8.60382 7.05319,-9.55442c0.43979,-1.47817 4.09155,-6.38637 10.33714,-7.24205c0.49244,-0.06746 12.01744,-0.11086 17.1627,0.62644c0.61533,0.08818 2.48817,4.16517 2.13884,6.45299c-0.31373,2.05469 -2.80665,2.31813 -3.10185,2.8126c-0.43732,0.73254 0.41494,-0.23343 -0.29031,-0.64106c-4.21959,-2.43891 -9.54368,-2.15449 -17.79971,-2.15449c-7.16511,0 -7.78513,10.16338 -11.99937,12.77874c-0.82799,0.51386 -1.64561,5.5286 -2.1007,3.84041z" fill="#503615" stroke="none" stroke-width="0"/><path d="M243.41653,147.0248c-0.27954,0.6127 -0.48299,1.23584 -0.65427,1.86796c0.08888,-0.15078 0.15865,-0.27629 0.19532,-0.36477c0.18456,-0.44526 0.33996,-0.9552 0.45894,-1.5032zM239.10654,131.93306c0.08223,-0.16252 0.16908,-0.31876 0.26102,-0.46742l0.02448,-0.09795l-0.18855,-0.1257l0.3957,-0.59355c0.08902,-0.13785 0.24402,-0.22911 0.42033,-0.22911c0.27614,0 0.5,0.22386 0.5,0.5c0,0.04575 -0.00614,0.09006 -0.01765,0.13215l-0.18599,0.74397c0.00576,0.82048 0.02009,1.98218 -0.04351,3.1662c1.53252,0.22408 2.4583,3.30181 2.77248,4.29482c2.66884,2.60017 1.85103,9.95013 -0.80884,12.67935l0.13707,0.13707l-0.4,0.4c-0.09048,0.09048 -0.21549,0.14644 -0.35356,0.14644c-0.27614,0 -0.5,-0.22386 -0.5,-0.5v-0.6h0.02033l-0.01658,-0.06109c0.40531,-1.64736 0.62498,-3.34114 1.40963,-4.85379c-0.04566,-1.65582 0.20745,-4.57416 -0.3439,-6.8374c-0.05268,-0.1556 -0.18324,-0.59358 -0.36974,-1.1188c-0.31468,-0.71677 -0.7608,-1.30299 -1.39108,-1.66698c-0.0921,-0.05319 -0.21641,-0.04874 -0.36125,-0.00361c-0.13099,0.79065 -0.32773,1.49798 -0.62208,2.00454c-0.64455,1.10923 -1.97294,1.29401 -2.48727,-0.07153c-0.3025,-0.80312 0.32226,-2.72886 0.58188,-3.53113c0.59998,-2.39993 0.79447,-4.70001 0.38652,-7.18012c-0.28786,-1.75007 -1.19855,-3.26163 -1.20646,-5.08009c0,0 0,-0.5 0.5,-0.5c0.5,0 0.5,0.5 0.5,0.5c-0.00883,1.74099 0.90975,3.2361 1.19355,4.91991c0.22394,1.32871 0.27767,2.61628 0.19348,3.89381zM243.51229,146.52975c0.21822,-1.28024 0.24078,-2.71376 -0.01498,-3.996c0.08702,1.34225 0.04247,2.70828 0.01498,3.996z" fill="url(#color-29)" stroke="none" stroke-width="0.5"/><path d="M266.01952,101.21934c0.5,0 0.5,0.5 0.5,0.5l-0.08398,0.47735c-1.45168,2.01116 0.05891,5.91567 -0.27765,8.72265h0.16162v0.6c0,0.27614 -0.22386,0.5 -0.5,0.5c-0.22492,0 -0.41515,-0.14851 -0.47798,-0.35282l-0.19636,-0.58907c-0.31258,-0.93775 -0.65123,-1.98274 -0.5876,-2.96677c-0.55256,-0.49948 -0.4888,-1.7869 -1.33806,-1.89135c-0.52634,-0.06473 -0.70125,1.91817 -0.7,2.3c0.00572,1.73731 0.35233,3.91836 -0.21243,5.6h0.01243v0.1l0.17435,0.05812l-0.19636,0.58906c-0.06284,0.20431 -0.25307,0.35282 -0.47799,0.35282c-0.27614,0 -0.5,-0.22386 -0.5,-0.5v-0.53897c-0.35861,-1.07876 -0.42678,-4.61825 -1.9965,-2.26367c-0.99267,0.28195 -0.91115,1.8226 -1.22915,2.76076c-0.97288,2.8702 -0.3488,5.80779 -1.17357,8.63357c-0.00051,0.06969 -0.00078,0.13914 -0.00078,0.20832v0.6c0,0.27614 -0.22386,0.5 -0.5,0.5c-0.27614,0 -0.5,-0.22386 -0.5,-0.5v-0.6c0,-2.59967 0.47891,-5.7785 -0.37434,-8.24189c0,0 -0.15811,-0.47434 0.31623,-0.63246c0.47434,-0.15811 0.63246,0.31623 0.63246,0.31623c0.10626,0.32866 0.19258,0.66596 0.26229,1.01c0.16655,-2.18644 0.59753,-4.3383 1.95986,-4.84924c1.364,-2.04601 2.22751,-1.04694 2.80106,0.37333c-0.03221,-1.79447 -0.32714,-7.70013 2.56531,-6.00131c0.68765,0.40387 0.77076,1.21868 1.13574,1.86635c-0.19981,-1.95521 -0.54859,-4.23933 0.38537,-5.71837l-0.08397,0.07735c0,0 0,-0.5 0.5,-0.5z" fill="url(#color-30)" stroke="none" stroke-width="0.5"/><path d="M258.81952,107.41934c0,2.04345 -1.34314,3.7 -3,3.7c-1.65686,0 -3,-1.65654 -3,-3.7c0,-2.04345 1.34314,-3.7 3,-3.7c1.65686,0 3,1.65655 3,3.7z" fill="#8f2323" stroke="none" stroke-width="0"/><path d="M251.21952,126.91934c0,2.09868 -1.11929,3.8 -2.5,3.8c-1.38071,0 -2.5,-1.70132 -2.5,-3.8c0,-2.09868 1.11929,-3.8 2.5,-3.8c1.38071,0 2.5,1.70132 2.5,3.8z" fill="#8f2323" stroke="none" stroke-width="0"/><path d="M243.81043,118.91934c0,3.31371 -1.29634,6 -2.89545,6c-1.59912,0 -2.89545,-2.68629 -2.89545,-6c0,-3.31371 1.29634,-6 2.89545,-6c1.59912,0 2.89545,2.68629 2.89545,6z" fill="#8f2323" stroke="none" stroke-width="0"/><path d="M248.21952,107.01934c0,1.71209 -0.85066,3.1 -1.9,3.1c-1.04934,0 -1.9,-1.38791 -1.9,-3.1c0,-1.71209 0.85066,-3.1 1.9,-3.1c1.04934,0 1.9,1.38791 1.9,3.1z" fill="#8f2323" stroke="none" stroke-width="0"/><path d="M246.94452,143.86934c0,1.7397 -0.86185,3.15 -1.925,3.15c-1.06315,0 -1.925,-1.4103 -1.925,-3.15c0,-1.7397 0.86185,-3.15 1.925,-3.15c1.06315,0 1.925,1.4103 1.925,3.15z" fill="#8f2323" stroke="none" stroke-width="0"/><path d="M213.83314,232.55471c0,0 21.18722,-12.92666 29.36184,-13.34886c22.13822,-1.14337 30.37294,12.9106 30.37294,12.9106c0,0 1.308,2.88904 -6.82635,2.65928c-2.58031,-0.07288 -11.32919,-0.84843 -18.22973,-1.14c-2.89115,-0.12216 1.0957,-0.25197 0.23308,-1.06516c-0.94332,-0.88927 -12.91879,1.52859 -16.21335,1.57743c-1.52688,0.02264 -5.4534,1.28158 -6.12034,1.19256c-0.78871,-0.10527 0.56579,-0.96318 -0.16758,-1.09103c-1.85683,-0.32372 -6.37562,1.25657 -9.60198,1.25983c-12.71602,0.01287 -2.80854,-2.95465 -2.80854,-2.95465z" data-paper-data="{&quot;index&quot;:null}" fill="url(#color-31)" stroke="none" stroke-width="0"/><path d="M240.21351,219.4817c0.88938,-0.4602 2.61329,-1.68774 5.7651,-2.61455c3.08633,-0.90756 10.69197,1.66825 11.68071,1.58368c1.53748,-0.1315 7.54977,0.69851 10.91976,4.08513c0.26571,0.26702 5.0763,6.91704 6.53011,10.08334c0.17386,0.37867 -2.78932,2.52495 -5.03177,2.92c-2.01394,0.35479 -3.28745,-1.01735 -3.86306,-1.05896c-0.85274,-0.06163 0.38581,0.17892 0.46765,-0.33507c0.48968,-3.07526 -1.97503,-6.07833 -5.39263,-10.85024c-2.966,-4.14137 -12.5421,-1.84784 -16.68478,-3.60122c-0.81393,-0.3445 -5.75072,0.49141 -4.3911,-0.21211z" data-paper-data="{&quot;index&quot;:null}" fill="#503615" stroke="none" stroke-width="0"/><path d="M215.2866,232.28066c-0.67754,-0.00171 -1.33315,0.0433 -1.98368,0.10924c0.17505,0.01203 0.31902,0.01961 0.41533,0.01772c0.48469,-0.0095 1.0166,-0.05275 1.56835,-0.12696zM227.34103,225.85168c0.18307,0.00512 0.36228,0.01455 0.53666,0.0289l0.09995,-0.01141l0.03721,-0.14178l0.70806,0.07384c0.16325,0.01548 0.31108,0.08126 0.38407,0.18316c0.11431,0.15961 0.00171,0.3474 -0.2515,0.41946c-0.04195,0.01194 -0.08513,0.01995 -0.12849,0.02428l-0.75918,0.08662c-0.74996,0.21741 -1.80926,0.52882 -2.92129,0.801c0.42891,0.94425 -2.01001,2.28241 -2.79051,2.7231c-1.27948,2.22102 -8.35766,3.66614 -11.96131,2.84089l-0.06894,0.11499l-0.53238,-0.12682c-0.12042,-0.02869 -0.22348,-0.08634 -0.28064,-0.16614c-0.11431,-0.15961 -0.0017,-0.34741 0.25151,-0.41946l0.55017,-0.15656l0.00842,0.01176l0.04914,-0.02553c1.67834,-0.19557 3.32242,-0.51056 5.03426,-0.45173c1.49943,-0.45843 4.2802,-1.07362 6.12728,-1.98283c0.12088,-0.07105 0.46844,-0.26079 0.87284,-0.50563c0.52699,-0.36891 0.87987,-0.77972 0.95273,-1.239c0.01065,-0.06711 -0.0449,-0.1378 -0.14624,-0.20974c-0.77922,0.13059 -1.50925,0.20144 -2.09559,0.16348c-1.28394,-0.08312 -2.00326,-0.8027 -0.96403,-1.45628c0.61121,-0.3844 2.63567,-0.52577 3.47879,-0.58505c2.449,-0.27943 4.6386,-0.76716 6.74389,-1.65008c1.48558,-0.62302 2.49465,-1.54381 4.15884,-2.02286c0,0 0.45848,-0.13046 0.66546,0.15853c0.20697,0.289 -0.25151,0.41946 -0.25151,0.41946c-1.60008,0.44917 -2.59079,1.37022 -4.0173,1.9736c-1.12567,0.47613 -2.28409,0.84315 -3.49039,1.12783zM215.78018,232.20683c1.26426,-0.20792 2.58809,-0.56892 3.65798,-1.05132c-1.19477,0.40053 -2.46582,0.73121 -3.65798,1.05132z" data-paper-data="{&quot;index&quot;:null}" fill="url(#color-32)" stroke="none" stroke-width="0.5"/><path d="M257.97938,230.84931c-1.87377,0.53319 -3.94876,0.1891 -4.63461,-0.76854c-0.68586,-0.95765 0.27713,-2.16621 2.1509,-2.6994c1.87377,-0.53319 3.94875,-0.1891 4.63461,0.76855c0.68586,0.95765 -0.27713,2.16621 -2.1509,2.6994z" data-paper-data="{&quot;index&quot;:null}" fill="#8f2323" stroke="none" stroke-width="0"/><path d="M236.9526,231.54466c-1.92441,0.5476 -3.94779,0.34458 -4.51934,-0.45346c-0.57155,-0.79804 0.52517,-1.8889 2.44958,-2.4365c1.92441,-0.5476 3.94779,-0.34458 4.51934,0.45346c0.57155,0.79804 -0.52517,1.8889 -2.44958,2.4365z" data-paper-data="{&quot;index&quot;:null}" fill="#8f2323" stroke="none" stroke-width="0"/><path d="M241.2213,225.17485c-3.03854,0.86464 -6.0384,0.81629 -6.70035,-0.10799c-0.66196,-0.92427 1.26465,-2.37447 4.30319,-3.23911c3.03854,-0.86464 6.03839,-0.81629 6.70034,0.10798c0.66196,0.92427 -1.26464,2.37447 -4.30318,3.23911z" data-paper-data="{&quot;index&quot;:null}" fill="#8f2323" stroke="none" stroke-width="0"/><path d="M253.95829,224.61823c-1.56992,0.44673 -3.19471,0.31721 -3.62909,-0.28931c-0.43437,-0.60651 0.48616,-1.46033 2.05607,-1.90706c1.56992,-0.44673 3.19472,-0.31721 3.62909,0.28931c0.43437,0.60651 -0.48616,1.46033 -2.05608,1.90706z" data-paper-data="{&quot;index&quot;:null}" fill="#8f2323" stroke="none" stroke-width="0"/><path d="M219.64046,233.49647c-1.59524,0.45393 -3.24519,0.32377 -3.68529,-0.29072c-0.4401,-0.61449 0.49634,-1.48062 2.09158,-1.93455c1.59524,-0.45393 3.24518,-0.32378 3.68528,0.29071c0.4401,0.61449 -0.49634,1.48062 -2.09157,1.93456z" data-paper-data="{&quot;index&quot;:null}" fill="#8f2323" stroke="none" stroke-width="0"/><path d="M414.06421,212.8467c12.24838,-4.9175 10.16678,-13.99212 15.81123,-13.25993c12.47266,1.61793 47.00465,31.07413 42.64931,54.82006c-1.65569,9.02705 -5.07936,2.17033 -13.7197,8.50042c-10.42746,7.63934 -13.10339,11.60481 -20.83454,10.60195c-12.47266,-1.61793 -22.16821,-16.5476 -27.92613,-40.58209c-2.94995,-12.31352 3.34219,-20.92439 4.01984,-20.08043z" data-paper-data="{&quot;index&quot;:null}" fill="url(#color-33)" stroke="none" stroke-width="0"/></g></g></svg>