<svg version="1.1" xmlns="http://www.w3.org/2000/svg" xmlns:xlink="http://www.w3.org/1999/xlink" width="186.07478" height="153.75471" viewBox="0,0,186.07478,153.75471"><defs><linearGradient x1="378.62222" y1="185.49074" x2="390.58998" y2="243.5455" gradientUnits="userSpaceOnUse" id="color-1"><stop offset="0" stop-color="#893330"/><stop offset="1" stop-color="#000000"/></linearGradient><linearGradient x1="362.50759" y1="192.45306" x2="368.66931" y2="222.34315" gradientUnits="userSpaceOnUse" id="color-2"><stop offset="0" stop-color="#893330"/><stop offset="1" stop-color="#000000"/></linearGradient><linearGradient x1="348.6233" y1="186.15689" x2="357.44079" y2="198.12222" gradientUnits="userSpaceOnUse" id="color-3"><stop offset="0" stop-color="#2a294e"/><stop offset="1" stop-color="#2b2a50"/></linearGradient><radialGradient cx="300.21752" cy="210.90185" r="5.42857" gradientUnits="userSpaceOnUse" id="color-4"><stop offset="0" stop-color="#644d3d"/><stop offset="1" stop-color="#000000"/></radialGradient><linearGradient x1="292.56166" y1="207.56825" x2="292.56166" y2="256.26324" gradientUnits="userSpaceOnUse" id="color-5"><stop offset="0" stop-color="#29284d"/><stop offset="1" stop-color="#2c2b51"/></linearGradient><linearGradient x1="299.78296" y1="193.53737" x2="299.78296" y2="208.40063" gradientUnits="userSpaceOnUse" id="color-6"><stop offset="0" stop-color="#2a294e"/><stop offset="1" stop-color="#2b2a50"/></linearGradient><linearGradient x1="336.24725" y1="198.57728" x2="336.24725" y2="268.60917" gradientUnits="userSpaceOnUse" id="color-7"><stop offset="0" stop-color="#575c88"/><stop offset="1" stop-color="#353951"/></linearGradient><linearGradient x1="313.11588" y1="189.68878" x2="313.11588" y2="211.92861" gradientUnits="userSpaceOnUse" id="color-8"><stop offset="0" stop-color="#6c2828"/><stop offset="1" stop-color="#5f2323"/></linearGradient><linearGradient x1="340.01175" y1="181.28439" x2="340.01175" y2="203.4162" gradientUnits="userSpaceOnUse" id="color-9"><stop offset="0" stop-color="#6c2828"/><stop offset="1" stop-color="#5d2222"/></linearGradient><linearGradient x1="326.69603" y1="190.19195" x2="326.69603" y2="202.31695" gradientUnits="userSpaceOnUse" id="color-10"><stop offset="0" stop-color="#6c2828"/><stop offset="1" stop-color="#5d2222"/></linearGradient><radialGradient cx="310.01483" cy="142.12465" r="29.94646" gradientUnits="userSpaceOnUse" id="color-11"><stop offset="0" stop-color="#2c2b52"/><stop offset="1" stop-color="#262547"/></radialGradient><linearGradient x1="329.54817" y1="139.46103" x2="324.38873" y2="184.82859" gradientUnits="userSpaceOnUse" id="color-12"><stop offset="0" stop-color="#000000"/><stop offset="1" stop-color="#1c1c2d"/></linearGradient><linearGradient x1="329.60907" y1="139.62773" x2="324.44964" y2="184.99527" gradientUnits="userSpaceOnUse" id="color-13"><stop offset="0" stop-color="#000000" stop-opacity="0.47451"/><stop offset="1" stop-color="#000000" stop-opacity="0"/></linearGradient><radialGradient cx="319.1014" cy="200.34062" r="27.47118" gradientUnits="userSpaceOnUse" id="color-14"><stop offset="0" stop-color="#2c2b52"/><stop offset="1" stop-color="#262547"/></radialGradient><linearGradient x1="315.38684" y1="189.74863" x2="314.52184" y2="197.35473" gradientUnits="userSpaceOnUse" id="color-15"><stop offset="0" stop-color="#e8e8e8"/><stop offset="1" stop-color="#919191"/></linearGradient><linearGradient x1="325.95079" y1="191.69713" x2="325.80699" y2="199.35496" gradientUnits="userSpaceOnUse" id="color-16"><stop offset="0" stop-color="#e8e8e8"/><stop offset="1" stop-color="#919191"/></linearGradient><linearGradient x1="334.18118" y1="189.41566" x2="333.31617" y2="197.02175" gradientUnits="userSpaceOnUse" id="color-17"><stop offset="0" stop-color="#e8e8e8"/><stop offset="1" stop-color="#919191"/></linearGradient><linearGradient x1="340.90849" y1="186.73048" x2="340.17103" y2="193.21508" gradientUnits="userSpaceOnUse" id="color-18"><stop offset="0" stop-color="#e8e8e8"/><stop offset="1" stop-color="#919191"/></linearGradient><linearGradient x1="347.34241" y1="175.88805" x2="346.60495" y2="182.37263" gradientUnits="userSpaceOnUse" id="color-19"><stop offset="0" stop-color="#e8e8e8"/><stop offset="1" stop-color="#919191"/></linearGradient><linearGradient x1="344.72536" y1="180.98211" x2="343.9879" y2="187.46671" gradientUnits="userSpaceOnUse" id="color-20"><stop offset="0" stop-color="#e8e8e8"/><stop offset="1" stop-color="#919191"/></linearGradient><linearGradient x1="307.74005" y1="184.9251" x2="306.87505" y2="192.5312" gradientUnits="userSpaceOnUse" id="color-21"><stop offset="0" stop-color="#e8e8e8"/><stop offset="1" stop-color="#919191"/></linearGradient><linearGradient x1="300.82085" y1="168.82586" x2="299.95585" y2="176.43194" gradientUnits="userSpaceOnUse" id="color-22"><stop offset="0" stop-color="#e8e8e8"/><stop offset="1" stop-color="#919191"/></linearGradient><linearGradient x1="301.26938" y1="174.12476" x2="300.40438" y2="181.73087" gradientUnits="userSpaceOnUse" id="color-23"><stop offset="0" stop-color="#e8e8e8"/><stop offset="1" stop-color="#919191"/></linearGradient><linearGradient x1="303.31423" y1="179.53333" x2="302.44922" y2="187.13942" gradientUnits="userSpaceOnUse" id="color-24"><stop offset="0" stop-color="#e8e8e8"/><stop offset="1" stop-color="#919191"/></linearGradient><linearGradient x1="313.21367" y1="172.52666" x2="312.68958" y2="175.92363" gradientUnits="userSpaceOnUse" id="color-25"><stop offset="0" stop-color="#e8e8e8"/><stop offset="1" stop-color="#919191"/></linearGradient><linearGradient x1="324.5585" y1="185.26143" x2="324.19894" y2="188.42308" gradientUnits="userSpaceOnUse" id="color-26"><stop offset="0" stop-color="#e8e8e8"/><stop offset="1" stop-color="#919191"/></linearGradient><linearGradient x1="312.72959" y1="174.67618" x2="312.2055" y2="178.07317" gradientUnits="userSpaceOnUse" id="color-27"><stop offset="0" stop-color="#e8e8e8"/><stop offset="1" stop-color="#919191"/></linearGradient><linearGradient x1="319.69596" y1="184.61258" x2="319.3364" y2="187.77423" gradientUnits="userSpaceOnUse" id="color-28"><stop offset="0" stop-color="#e8e8e8"/><stop offset="1" stop-color="#919191"/></linearGradient><linearGradient x1="312.2583" y1="177.97742" x2="311.73422" y2="181.37438" gradientUnits="userSpaceOnUse" id="color-29"><stop offset="0" stop-color="#e8e8e8"/><stop offset="1" stop-color="#919191"/></linearGradient><linearGradient x1="316.36343" y1="183.17295" x2="315.20029" y2="186.41189" gradientUnits="userSpaceOnUse" id="color-30"><stop offset="0" stop-color="#e8e8e8"/><stop offset="1" stop-color="#919191"/></linearGradient><linearGradient x1="312.99977" y1="180.9373" x2="312.42102" y2="184.32806" gradientUnits="userSpaceOnUse" id="color-31"><stop offset="0" stop-color="#e8e8e8"/><stop offset="1" stop-color="#919191"/></linearGradient><linearGradient x1="328.51629" y1="185.14615" x2="327.91024" y2="188.5338" gradientUnits="userSpaceOnUse" id="color-32"><stop offset="0" stop-color="#e8e8e8"/><stop offset="1" stop-color="#919191"/></linearGradient><linearGradient x1="334.59518" y1="176.6836" x2="334.07109" y2="180.08058" gradientUnits="userSpaceOnUse" id="color-33"><stop offset="0" stop-color="#e8e8e8"/><stop offset="1" stop-color="#919191"/></linearGradient><linearGradient x1="334.26807" y1="179.13854" x2="333.74398" y2="182.53553" gradientUnits="userSpaceOnUse" id="color-34"><stop offset="0" stop-color="#e8e8e8"/><stop offset="1" stop-color="#919191"/></linearGradient><linearGradient x1="334.02482" y1="181.69889" x2="333.50072" y2="185.09585" gradientUnits="userSpaceOnUse" id="color-35"><stop offset="0" stop-color="#e8e8e8"/><stop offset="1" stop-color="#919191"/></linearGradient><linearGradient x1="332.24538" y1="183.98868" x2="331.64617" y2="187.37711" gradientUnits="userSpaceOnUse" id="color-36"><stop offset="0" stop-color="#e8e8e8"/><stop offset="1" stop-color="#919191"/></linearGradient><linearGradient x1="320.70879" y1="105.35545" x2="317.41162" y2="134.34787" gradientUnits="userSpaceOnUse" id="color-37"><stop offset="0" stop-color="#313059"/><stop offset="1" stop-color="#2a2a4c"/></linearGradient><linearGradient x1="352.72181" y1="112.46278" x2="349.42464" y2="141.4552" gradientUnits="userSpaceOnUse" id="color-38"><stop offset="0" stop-color="#303056"/><stop offset="1" stop-color="#2a2a4d"/></linearGradient><linearGradient x1="320.47024" y1="107.45304" x2="317.80083" y2="130.92549" gradientUnits="userSpaceOnUse" id="color-39"><stop offset="0" stop-color="#535681"/><stop offset="1" stop-color="#31354b"/></linearGradient><linearGradient x1="352.75668" y1="115.59791" x2="350.21282" y2="137.96637" gradientUnits="userSpaceOnUse" id="color-40"><stop offset="0" stop-color="#535681"/><stop offset="1" stop-color="#31354b"/></linearGradient><linearGradient x1="357.79886" y1="93.67083" x2="355.38746" y2="114.8746" gradientUnits="userSpaceOnUse" id="color-41"><stop offset="0" stop-color="#4c4f75"/><stop offset="1" stop-color="#404463"/></linearGradient><linearGradient x1="280.36742" y1="239.03028" x2="288.91236" y2="203.55413" gradientUnits="userSpaceOnUse" id="color-42"><stop offset="0" stop-color="#2a284d"/><stop offset="1" stop-color="#29284c"/></linearGradient><radialGradient cx="250.00316" cy="174.83416" r="20.76682" gradientUnits="userSpaceOnUse" id="color-43"><stop offset="0" stop-color="#717774"/><stop offset="1" stop-color="#292b2a"/></radialGradient><linearGradient x1="251.29951" y1="170.01994" x2="237.91261" y2="174.52208" gradientUnits="userSpaceOnUse" id="color-44"><stop offset="0" stop-color="#3b3838"/><stop offset="1" stop-color="#535755"/></linearGradient><linearGradient x1="264.67314" y1="181.44668" x2="250.61688" y2="182.82505" gradientUnits="userSpaceOnUse" id="color-45"><stop offset="0" stop-color="#3b3838"/><stop offset="1" stop-color="#535755"/></linearGradient><radialGradient cx="233.33365" cy="168.13075" r="9.3594" gradientUnits="userSpaceOnUse" id="color-46"><stop offset="0" stop-color="#5c615f"/><stop offset="1" stop-color="#434342"/></radialGradient><radialGradient cx="272.40451" cy="163.31993" r="20.76684" gradientUnits="userSpaceOnUse" id="color-47"><stop offset="0" stop-color="#717774"/><stop offset="1" stop-color="#292b2a"/></radialGradient><linearGradient x1="276.08559" y1="159.95738" x2="262.37727" y2="156.55731" gradientUnits="userSpaceOnUse" id="color-48"><stop offset="0" stop-color="#3b3838"/><stop offset="1" stop-color="#535755"/></linearGradient><linearGradient x1="281.2199" y1="176.78188" x2="268.6264" y2="170.38797" gradientUnits="userSpaceOnUse" id="color-49"><stop offset="0" stop-color="#3b3838"/><stop offset="1" stop-color="#535755"/></linearGradient><radialGradient cx="261.95198" cy="148.70652" r="9.3594" gradientUnits="userSpaceOnUse" id="color-50"><stop offset="0" stop-color="#5c615f"/><stop offset="1" stop-color="#434342"/></radialGradient><radialGradient cx="295.95337" cy="158.64425" r="20.76684" gradientUnits="userSpaceOnUse" id="color-51"><stop offset="0" stop-color="#717774"/><stop offset="1" stop-color="#292b2a"/></radialGradient><linearGradient x1="300.8245" y1="157.58155" x2="290.67057" y2="147.76442" gradientUnits="userSpaceOnUse" id="color-52"><stop offset="0" stop-color="#3b3838"/><stop offset="1" stop-color="#535755"/></linearGradient><linearGradient x1="296.82759" y1="174.71191" x2="289.13976" y2="162.8639" gradientUnits="userSpaceOnUse" id="color-53"><stop offset="0" stop-color="#3b3838"/><stop offset="1" stop-color="#535755"/></linearGradient><radialGradient cx="294.24038" cy="140.75922" r="9.3594" gradientUnits="userSpaceOnUse" id="color-54"><stop offset="0" stop-color="#5c615f"/><stop offset="1" stop-color="#434342"/></radialGradient><radialGradient cx="278.13068" cy="211.44628" r="23.73303" gradientUnits="userSpaceOnUse" id="color-55"><stop offset="0" stop-color="#747a77"/><stop offset="1" stop-color="#1f2120"/></radialGradient><radialGradient cx="276.426" cy="208.50626" r="22.69314" gradientUnits="userSpaceOnUse" id="color-56"><stop offset="0" stop-color="#444444"/><stop offset="1" stop-color="#272727"/></radialGradient><radialGradient cx="306.73725" cy="185.71381" r="20.76684" gradientUnits="userSpaceOnUse" id="color-57"><stop offset="0" stop-color="#717774"/><stop offset="1" stop-color="#292b2a"/></radialGradient><linearGradient x1="302.38323" y1="183.55758" x2="316.50132" y2="183.95514" gradientUnits="userSpaceOnUse" id="color-58"><stop offset="0" stop-color="#3b3838"/><stop offset="1" stop-color="#535755"/></linearGradient><radialGradient cx="318.6107" cy="177.24012" r="9.35937" gradientUnits="userSpaceOnUse" id="color-59"><stop offset="0" stop-color="#5c615f"/><stop offset="1" stop-color="#434342"/></radialGradient></defs><g transform="translate(-219.43133,-88.14444)"><g data-paper-data="{&quot;isPaintingLayer&quot;:true}" fill-rule="nonzero" stroke-linejoin="miter" stroke-miterlimit="10" stroke-dasharray="" stroke-dashoffset="0" style="mix-blend-mode: normal"><g><path d="M384.51,216.99602c0.12717,-0.83978 -0.28903,-1.71242 -0.79294,-2.53521c0.25431,1.27925 0.31946,2.63628 0.25436,3.92887c0.25817,-0.46325 0.46904,-0.93439 0.53858,-1.39365zM374.19408,202.05928c-0.50405,-0.32403 -1.01713,-0.62934 -1.53827,-0.91761c0.64599,1.45829 1.0541,3.09717 1.37527,4.58864c0.14743,0.13885 0.29568,0.27772 0.44487,0.41658c0.19419,0.27683 0.38691,0.55322 0.57795,0.82928c0.00478,0.00176 0.00957,0.00352 0.01435,0.00528c-0.07696,-1.68442 -0.03341,-3.4803 -0.85947,-4.91254c-0.0049,-0.00321 -0.0098,-0.00641 -0.0147,-0.00962zM383.90736,211.93998c0.81382,1.58794 2.34969,3.31915 2.09052,5.24637c-0.13074,0.9722 -0.7206,1.91863 -1.26271,2.81037c3.85688,0.39431 7.72788,3.27667 8.95175,6.97641c0.39718,-0.34099 0.76201,-0.76101 1.08309,-1.26725l-0.03429,-0.02082c0,0 0.19306,-0.72472 0.91779,-0.53166c0.72472,0.19306 0.53166,0.91779 0.53166,0.91779l-0.1622,0.45935c-0.49468,0.73156 -1.05988,1.32082 -1.67314,1.78048c0.30334,0.40531 0.5871,0.80204 0.84592,1.1602c1.19873,1.65887 2.26566,3.20878 1.46658,5.23265c-0.51076,0.44144 -1.08926,0.79968 -1.67733,1.14238c-0.00867,0.17843 -0.0177,0.35711 -0.02692,0.53642c1.70751,0.80433 -1.55855,1.18842 -1.54375,0.91564c-0.06481,-0.02857 -0.12988,-0.05726 -0.19518,-0.08609l-0.4145,0.01317c-0.23925,0.19115 -2.03575,-0.12633 -2.03575,-0.12633l0.26488,-0.26747c0.14366,-0.15195 0.29365,-0.29331 0.44874,-0.42623c-0.04195,-0.02106 -0.08398,-0.04235 -0.12613,-0.06384c-0.71143,-0.36282 -1.40944,-0.73291 -2.09268,-1.11575c-0.03806,0.23157 -0.08633,0.46521 -0.14525,0.70088c-0.08184,0.20313 -0.16383,0.40591 -0.24634,0.60831c1.36605,2.17426 0.52584,3.63138 -0.70692,1.67909c-0.02018,0.04597 -0.04044,0.09193 -0.06079,0.13787l-1.60233,0.22344l0.23084,-0.83091c0.01261,-0.02846 0.02519,-0.05693 0.03773,-0.0854c-1.1283,0.643 -2.60034,0.3181 -3.52194,-0.67802c-1.76843,-1.91142 -1.50899,-4.94967 -1.42406,-7.35097c-0.18448,-0.19528 -0.3666,-0.39457 -0.54635,-0.59811c-1.17812,-1.17497 -2.31139,-2.26918 -3.37785,-3.34936c-0.52574,-0.27147 -0.90698,-0.71525 -1.19931,-1.24359c-1.03822,-1.1074 -1.9972,-2.22705 -2.85323,-3.43105c-0.31471,-0.14714 -0.60929,-0.32734 -0.87444,-0.55107c-1.98858,-1.67799 -3.39215,-4.5995 -4.02665,-7.67409c-0.25543,-0.14452 -0.51523,-0.27762 -0.77981,-0.39739c-3.77895,-1.71058 -6.41144,-3.51108 -8.54565,-7.19957c-1.83831,-2.63737 -2.75013,-5.42438 -2.95383,-8.62042l-0.0084,-0.00341c0,0 -0.04165,-0.20202 0.02469,-0.41601c-1.12553,-0.25282 -2.2549,-0.45705 -3.39276,-0.51907c0,0 -0.74876,-0.04296 -0.70581,-0.79172c0.04295,-0.74877 0.79173,-0.70582 0.79173,-0.70582c0.25436,0.01525 0.50819,0.03707 0.76155,0.06451c-0.1583,-0.16014 -0.38088,-0.49442 -0.09138,-0.93427c0.41233,-0.62648 1.03882,-0.21415 1.03882,-0.21415c0.25663,0.16902 0.51598,0.33476 0.77741,0.49805c0.01282,-0.02333 0.02707,-0.04697 0.04285,-0.07093c0.41233,-0.62648 1.03882,-0.21415 1.03882,-0.21415c0.9135,0.60587 1.90729,1.07939 2.91585,1.53109c1.52488,0.36176 3.16771,0.59242 4.76686,0.91556c-0.40861,-0.79878 -1.09388,-1.45407 -1.90057,-2.00386c-0.72755,0.09415 -1.35405,0.18683 -1.53495,0.19837c-0.80098,0.04757 -1.57537,-0.01526 -2.37502,0.03581l-0.22107,0.05327c0,0 -0.73455,0.15143 -0.88598,-0.58313c-0.15143,-0.73455 0.58313,-0.88598 0.58313,-0.88598l0.43187,-0.08133c0.53745,-0.03192 1.06294,-0.01414 1.59211,-0.0144c-0.83233,-0.35935 -1.6465,-0.65815 -2.31916,-0.92658c0,0 -0.69517,-0.28146 -0.41372,-0.97664c0.28146,-0.69518 0.97664,-0.41372 0.97664,-0.41372c0.13092,0.05364 0.26424,0.10781 0.39956,0.16268c-0.14261,-0.15689 -0.25288,-0.40374 -0.10942,-0.75808c0.28146,-0.69518 0.97665,-0.41372 0.97665,-0.41372c0.17097,0.06941 0.34464,0.13141 0.51991,0.18877c0.33888,-0.19288 0.72138,0.01186 0.72138,0.01186c0.26156,0.14029 0.52617,0.28364 0.79273,0.43025c0.47441,0.14455 0.93671,0.31292 1.36438,0.56004c5.49878,1.7608 11.11299,5.6888 14.74528,9.77853c4.95379,4.89004 7.34449,11.67374 12.52326,16.49862c2.13559,1.39769 4.79928,2.60031 6.6274,4.37636l-0.09405,-0.12731c0,0 0.72472,0.19306 0.53166,0.91779c-0.19306,0.72472 -0.91779,0.53166 -0.91779,0.53166l-0.57421,-0.25523c-1.72674,-1.74512 -4.44276,-2.90376 -6.49822,-4.26259c-5.26924,-4.85847 -7.69183,-11.70595 -12.68853,-16.64931c-2.18876,-2.50465 -5.28122,-5.03566 -8.61514,-6.95076c1.02164,0.97444 1.8909,2.04744 2.50087,3.23574c1.03321,0.74479 2.0508,1.57778 3.12525,2.14981c0.57379,0.45022 1.04066,0.9426 1.41879,1.4701c4.08811,2.79221 6.34922,6.55274 8.5966,10.9379zM376.79641,207.60381c1.39023,0.50677 2.76144,1.06083 4.04489,1.92303c0.03153,0.02118 0.06277,0.04265 0.09374,0.06443c-1.23257,-2.12823 -2.59022,-4.04997 -4.39226,-5.70637c0.2509,1.17227 0.29544,2.42732 0.25363,3.71891zM379.99654,210.76634c-1.05586,-0.67625 -2.1622,-1.15507 -3.28529,-1.58061c-0.00531,0.07572 -0.01074,0.15151 -0.01628,0.22734c1.92972,2.96062 3.60299,5.93542 4.78805,9.10766c0.31151,0.17283 0.62013,0.35143 0.92581,0.53551c0.3038,-3.06001 -0.02584,-6.76145 -2.41228,-8.28989zM371.64758,207.13829c-0.34632,-0.11472 -0.67508,-0.24427 -0.98875,-0.38698c0.0986,0.97386 0.19532,1.96597 0.32235,2.95058c0.22953,0.84421 0.45416,1.68852 0.66944,2.53433c0.66394,0.35504 1.35307,0.65753 1.99736,1.04808c-0.30219,-1.80858 -0.5325,-3.64324 -0.76217,-5.5462c-0.41629,-0.18223 -0.8296,-0.37969 -1.23822,-0.59981zM363.66003,200.52343c-1.61852,-1.56356 -3.53798,-2.74576 -5.48452,-3.87961c0.1964,2.87875 1.05263,5.35167 2.71142,7.73687c0.91401,1.57605 2.41171,3.95207 4.01256,4.91363c0.87641,0.52642 1.84042,0.89075 2.78306,1.28938c-1.31679,-1.96599 -2.26107,-4.52903 -2.65728,-6.46219c-0.07725,-0.73809 -0.07319,-1.48439 -0.04147,-2.23164c-0.42272,-0.45809 -0.85869,-0.91716 -1.32376,-1.36644zM364.70896,199.45117c0.1326,0.12801 0.26259,0.25709 0.3904,0.38692c0.00472,-0.09403 0.00909,-0.18798 0.01302,-0.28181c-0.53151,-0.42423 -1.07937,-0.84036 -1.64864,-1.24686c-0.15127,-0.10801 -0.30498,-0.21187 -0.46081,-0.3121c0.59377,0.45127 1.16548,0.932 1.70606,1.45384zM383.39343,222.12108c0.00091,0.00979 0.00185,0.01957 0.00281,0.02935c0.62129,0.23476 1.25072,0.48431 1.87854,0.7499c-0.54888,-0.44418 -1.11067,-0.87157 -1.68489,-1.27951c-0.02274,0.00475 -0.04628,0.00832 -0.07064,0.01056c-0.04008,0.16829 -0.0821,0.33172 -0.12582,0.4897zM395.44712,233.82446c0.25853,-0.59424 -0.02037,-1.37015 -0.46348,-2.11572c0.03417,0.21119 0.0582,0.42588 0.0716,0.64414c0.01283,0.61035 0.00914,1.19809 -0.00467,1.77581c0.13461,-0.09675 0.26702,-0.19778 0.39656,-0.30422zM387.18925,226.52391c-0.42443,0.00701 -0.84868,-0.00675 -1.2727,-0.0339c1.3544,1.09007 3.07604,1.73936 4.72097,1.66712c-0.12158,-0.12969 -0.23205,-0.24996 -0.32659,-0.35878c-0.36301,-0.41777 -0.73518,-0.83055 -1.11624,-1.23702c-0.09822,-0.06316 -0.19747,-0.12571 -0.29765,-0.18766c-0.61219,0.0398 -1.22507,0.14228 -1.70777,0.15024zM389.3662,233.55944c0.86251,0.50071 1.75161,0.97703 2.66446,1.44216c0.21496,0.10953 0.4274,0.21451 0.63742,0.31603c0.11952,-0.26584 0.23125,-0.53817 0.35164,-0.8221c0.02302,-0.83323 0.22413,-1.75553 0.2083,-2.55629c-0.00676,-0.3419 -0.1451,-0.71594 -0.3613,-1.09939c-0.17106,0.20775 -0.359,0.41926 -0.56976,0.64699l-0.26925,0.42764c0,0 -0.41233,0.62648 -1.03882,0.21415c-0.62648,-0.41233 -0.21415,-1.03882 -0.21415,-1.03882l0.42187,-0.62241c0.28326,-0.3054 0.53798,-0.58031 0.76658,-0.87207c-0.03935,-0.04616 -0.079,-0.09208 -0.11885,-0.13773c-1.25821,0.27545 -2.58038,0.18287 -3.83546,-0.20339c0.7906,1.33336 1.29288,2.76948 1.3573,4.30522zM380.84825,225.99118c-0.15688,-0.02449 -0.36143,-0.03595 -0.58948,-0.04223c0.50814,0.4953 1.02891,0.99829 1.56002,1.51557c-0.01238,-0.2929 -0.02944,-0.58329 -0.05106,-0.87127c-0.10064,-0.18974 -0.2022,-0.37869 -0.30489,-0.56681c-0.20496,-0.01496 -0.40984,-0.02698 -0.6146,-0.03525zM370.9039,204.81634c-0.04788,0.10441 -0.0936,0.21079 -0.13721,0.31904c0.28744,0.1539 0.58877,0.29493 0.90659,0.42119c-0.25797,-0.24722 -0.51417,-0.49403 -0.76938,-0.74023zM369.79554,201.66668c0.13092,0.12343 0.26154,0.24721 0.39195,0.37128c0.08997,-0.75501 0.05925,-1.47001 -0.07195,-2.14777c-0.33743,-0.14783 -0.67738,-0.29016 -1.01962,-0.42739c0.23352,0.72885 0.46086,1.46596 0.69962,2.20388zM386.38474,225.01868c-0.82053,-0.39065 -1.66248,-0.75039 -2.49728,-1.08158c0.14507,0.31667 0.31769,0.62224 0.51403,0.9143c0.66076,0.07801 1.32204,0.14402 1.98326,0.16729zM386.39839,221.88434c1.15666,0.94808 2.25767,1.96684 3.29889,3.03405c0.40289,0.01812 0.79869,0.07263 1.17396,0.19181c-1.08362,-1.46624 -2.70246,-2.63089 -4.47286,-3.22586zM371.47185,203.27222c0.19117,0.18491 0.38255,0.37028 0.57443,0.556c-0.12611,-0.45092 -0.26727,-0.90011 -0.4279,-1.33601c-0.03727,0.25604 -0.08594,0.51602 -0.14652,0.78001zM386.05013,234.89763c-0.53987,-0.93191 -1.03534,-1.86161 -1.5074,-2.78434c-0.41403,-0.32809 -0.81953,-0.66852 -1.21608,-1.02306c0.09594,2.79178 0.75251,6.71953 3.21988,4.56516c-0.16313,-0.25242 -0.32837,-0.50506 -0.49639,-0.75775zM372.6879,215.74515c0.11138,0.28973 0.22794,0.57295 0.34949,0.85019c0.48212,0.77865 1.07453,1.48563 1.80893,2.09563c-0.1101,-0.38225 -0.21373,-0.76378 -0.31157,-1.14496c-0.60327,-0.58019 -1.21576,-1.19557 -1.84686,-1.80086zM380.00757,223.57105c-0.87386,-0.57004 -1.779,-1.10752 -2.69118,-1.63455c0.14186,0.55404 0.31655,1.13244 0.53514,1.58823c0.27106,0.28742 0.54781,0.57372 0.82979,0.86026c0.51266,0.11225 1.25876,0.0486 1.88327,0.07449c-0.18075,-0.29881 -0.36612,-0.59502 -0.55702,-0.88844zM379.92701,219.39088c-1.12042,-0.52988 -2.14335,-1.19538 -3.13269,-1.91154c0.00648,0.025 0.01304,0.04996 0.01972,0.07488c0.85978,0.74677 1.62504,1.52726 2.31865,2.33657c0.42601,0.10127 0.86174,0.14895 1.30344,0.16552c-0.05469,-0.16345 -0.11078,-0.3263 -0.16824,-0.48856c-0.11324,-0.05978 -0.22688,-0.11874 -0.34089,-0.17687zM366.62729,198.84858c0.01883,0.01552 0.03765,0.03104 0.05645,0.04657c-0.01317,-0.1056 -0.02615,-0.21298 -0.03905,-0.32182c-0.00451,-0.00148 -0.00901,-0.00296 -0.01353,-0.00444c-0.00054,0.09307 -0.00186,0.1863 -0.00387,0.27968zM366.2275,195.66693c0.01539,0.04174 0.03029,0.08378 0.0447,0.12615c0.00329,-0.00005 0.00657,-0.00011 0.00986,-0.00016c-0.00079,-0.00453 -0.00157,-0.00907 -0.00237,-0.0136c-0.01727,-0.03757 -0.03466,-0.07504 -0.0522,-0.11239zM366.50763,203.89222c0.32172,1.55078 1.04819,3.62013 2.0587,5.30799c-0.00237,-0.69674 0.03972,-1.37919 0.12852,-2.03412c-0.19582,-0.68595 -0.39094,-1.37331 -0.58185,-2.06318c-0.57675,-0.4917 -1.11162,-1.02803 -1.6371,-1.5869c0.00834,0.12574 0.01883,0.25115 0.03174,0.37621zM367.123,201.25699c-0.19638,-0.1748 -0.39426,-0.34866 -0.59397,-0.52146c-0.01308,0.20219 -0.02585,0.40445 -0.03721,0.60661c0.29753,0.33276 0.5914,0.66284 0.8885,0.98521c-0.08825,-0.3557 -0.17418,-0.71244 -0.25733,-1.07036zM375.13834,209.78478c-0.19838,-0.3017 -0.3992,-0.60355 -0.60221,-0.90579c0.14602,1.16996 0.29773,2.31537 0.47435,3.44803c0.04605,-0.83925 0.10339,-1.68558 0.12786,-2.54224zM379.42037,217.427c-0.82087,-1.87851 -1.81263,-3.69355 -2.9154,-5.49432c-0.07681,1.16591 -0.11789,2.32058 -0.03982,3.43187c0.95453,0.73457 1.91695,1.45327 2.95522,2.06245zM361.82986,191.4175c-0.14009,-0.03659 -0.27987,-0.07141 -0.4193,-0.10444c0.53861,0.25341 1.07276,0.52939 1.58169,0.83633c0.03123,-0.00422 0.06258,-0.00841 0.09403,-0.01255c-0.42119,-0.24977 -0.842,-0.48928 -1.25642,-0.71933zM365.51981,194.34984c-0.18526,-0.29919 -0.38295,-0.58595 -0.59479,-0.85728c-0.04722,0.00101 -0.0962,0.00259 -0.14673,0.00467c0.27194,0.26505 0.52113,0.54844 0.74152,0.8526zM386.86318,231.33596c-0.75872,-2.06384 -1.96108,-3.70771 -3.41941,-5.10261c-0.06792,-0.00827 -0.13583,-0.01652 -0.20374,-0.02471c0.00022,0.00267 0.00046,0.00534 0.00068,0.00801c0.83283,1.59453 1.61697,3.23966 2.47148,4.90972c0.48738,0.37766 0.98689,0.73798 1.49784,1.08427c-0.118,-0.28929 -0.2385,-0.57989 -0.34688,-0.87468zM367.62142,195.52044c0.00172,0.01098 0.00343,0.02196 0.00515,0.03294c0.05046,0.10726 0.09993,0.21507 0.1485,0.32343c0.07467,0.01197 0.14834,0.02539 0.2209,0.04039c-0.12134,-0.13426 -0.2463,-0.26649 -0.37455,-0.39677z" fill="#000000" stroke="none" stroke-width="0.5" stroke-linecap="butt"/><path d="M393.69683,232.98266c-2.07297,-0.37689 -4.56755,-2.47077 -6.01585,-3.89325c-4.50201,-3.58701 -8.83989,-8.93124 -10.83814,-14.45206c-2.07583,-5.81374 1.40527,-11.70442 -1.81673,-17.27289c-2.35741,-3.38023 -7.33595,-7.49981 -11.76476,-7.18563c0,0 -0.74859,0.04602 -0.79461,-0.70257c-0.04602,-0.74859 0.70257,-0.7946 0.70257,-0.7946c5.02675,-0.2721 10.42315,3.99458 13.12238,7.87763c3.38217,5.83199 -0.18898,11.63501 1.96266,17.5705c1.89122,5.29879 6.1123,10.40374 10.42259,13.83799c1.21435,1.2082 3.5118,3.22842 5.27219,3.53625c0.69175,0.12097 1.56977,-0.23758 2.25228,-0.28413c2.4982,-0.17041 7.65323,1.20796 9.1046,3.23285c1.76436,2.54852 -8.63899,-0.9301 -11.60918,-1.47009z" fill="url(#color-1)" stroke="none" stroke-width="0.5" stroke-linecap="butt"/><path d="M372.62734,221.50737c-0.74998,0.00442 -0.75441,-0.74556 -0.75441,-0.74556l-0.00103,-0.51183c-0.1105,-1.43942 0.19504,-3.32493 -0.58434,-4.64753c-2.00237,-3.398 -6.45672,-4.25014 -7.84641,-8.15423c-0.33174,-4.86106 -1.16094,-10.11537 -5.84193,-12.61526c0,0 -0.66124,-0.35391 -0.30732,-1.01516c0.35392,-0.66124 1.01517,-0.30732 1.01517,-0.30732c5.06107,2.71445 6.31648,8.29992 6.60319,13.63489c1.28006,3.50206 5.84054,4.5009 7.67526,7.7052c0.90997,1.58926 0.64081,3.55784 0.78173,5.28113l0.00566,0.62127c0,0 0.00442,0.74998 -0.74556,0.75441z" fill="url(#color-2)" stroke="none" stroke-width="0.5" stroke-linecap="butt"/><path d="M349.35601,187.35093c8.00049,-7.11595 16.06695,-1.32189 16.06695,-1.32189c0,0 -1.43213,3.83472 -3.06492,6.1094c-1.63277,2.27468 -6.39984,7.07632 -6.39984,7.07632c0,0 -2.92376,-2.80715 -5.67158,-3.39791c-2.74782,-0.59076 -9.67725,0.04694 -9.67725,0.04694c0,0 5.76144,-5.85773 8.74663,-8.51287z" data-paper-data="{&quot;index&quot;:null}" fill="url(#color-3)" stroke="#000000" stroke-width="0" stroke-linecap="round"/></g><g><path d="M301.07465,210.61612c0,2.99812 -2.36649,5.42857 -5.28571,5.42857c-2.91922,0 -5.28571,-2.43046 -5.28571,-5.42857c0,-2.99811 2.36649,-5.42857 5.28571,-5.42857c2.91922,0 5.28571,2.43045 5.28571,5.42857z" fill="url(#color-4)" stroke="#000000" stroke-width="0" stroke-linecap="butt"/><path d="" fill="#141930" stroke="none" stroke-width="0.5" stroke-linecap="butt"/><path d="M287.57452,211.23491l13.66667,2.66667c0,0 3.87002,9.72192 4.5,17.66667c0.62998,7.94474 -27.24043,9.61663 -26.5,-0.16667c1.11613,-14.74758 8,-23.83333 8,-23.83333z" fill="url(#color-5)" stroke="#000000" stroke-width="0" stroke-linecap="round"/><path d="" fill="#511311" stroke="none" stroke-width="0.5" stroke-linecap="butt"/><path d="M305.54035,237.34179c0.27735,0.41602 -0.27736,-0.41602 0,0z" fill="#80848b" stroke="none" stroke-width="0.5" stroke-linecap="butt"/><path d="M309.38294,195.10063c0,0 -5.18592,5.09431 -6.5,7.2c-1.31408,2.10569 -1.8,6.1 -1.8,6.1c0,0 -4.71964,-1.03744 -6.6,-1.9c-1.88037,-0.86255 -4.3,-3.1 -4.3,-3.1c0,0 4.57384,-10.78233 12.1,-9.8c2.80821,0.36653 7.1,1.5 7.1,1.5z" fill="url(#color-6)" stroke="#000000" stroke-width="0" stroke-linecap="round"/></g><g stroke-width="0"><path d="M299.73362,220.41324c-0.75214,-10.75512 0.11901,-28.50226 21.85487,-34.50773c19.90569,-5.4998 29.81,1.60172 30.94513,2.90773c3.11455,3.5834 6.47812,10.76269 8.8,15.8c2.32189,5.03731 9.39315,17.41831 10.6,19.9c1.20685,2.48168 -71.76825,2.07378 -72.2,-4.1z" fill="#2c2b52" stroke="#000000" stroke-linecap="round"/><path d="M307.93618,221.19353c-0.54061,-8.40189 0.21054,-18.17255 15.83347,-22.86402c20.55747,-6.42144 26.55132,6.37626 27.36721,7.39652c2.23863,2.79935 5.38904,18.12233 6.25648,20.06102c0.86744,1.93868 -49.14683,0.22944 -49.45716,-4.59352z" fill="url(#color-7)" stroke="#000000" stroke-linecap="round"/><path d="M322.50853,199.97853c0,0 -11.01864,10.59759 -13.86915,11.94288c-0.73904,0.34878 1.79785,-12.0713 1.79785,-12.0713c0,0 -7.28795,-9.22055 -6.67774,-9.88819c1.44761,-1.58388 16.95118,4.23779 16.95118,4.23779z" fill="url(#color-8)" stroke="#000000" stroke-linecap="round"/><path d="M330.91183,191.97659c0,0 11.89704,-11.52012 13.8561,-10.64472c0.8258,0.369 -2.18171,11.73067 -2.18171,11.73067c0,0 7.27833,10.37883 6.46151,10.35362c-3.15051,-0.09726 -17.48072,-5.42312 -17.48072,-5.42312z" data-paper-data="{&quot;index&quot;:null}" fill="url(#color-9)" stroke="#000000" stroke-linecap="round"/><path d="M333.13353,196.25445c0,3.34822 -2.88216,6.0625 -6.4375,6.0625c-3.55534,0 -6.4375,-2.71428 -6.4375,-6.0625c0,-3.34822 2.88216,-6.0625 6.4375,-6.0625c3.55534,0 6.4375,2.71428 6.4375,6.0625z" fill="url(#color-10)" stroke="none" stroke-linecap="butt"/><path d="M334.17759,219.57746c0,1.86396 -1.53902,3.375 -3.4375,3.375c-1.89848,0 -3.4375,-1.51104 -3.4375,-3.375c0,-1.86396 1.53902,-3.375 3.4375,-3.375c1.89848,0 3.4375,1.51104 3.4375,3.375z" fill="#000000" stroke="none" stroke-linecap="butt"/><path d="M330.92759,208.82746c0,1.86396 -1.53902,3.375 -3.4375,3.375c-1.89848,0 -3.4375,-1.51104 -3.4375,-3.375c0,-1.86396 1.53902,-3.375 3.4375,-3.375c1.89848,0 3.4375,1.51104 3.4375,3.375z" fill="#000000" stroke="none" stroke-linecap="butt"/></g><g><path d="M306.25277,196.08203l-8.56506,-11.70949l0.36627,-13.54537l29.69941,-4.50625l22.71632,12.64788l-12.58749,20.7103l-15.94299,1.5417z" fill="#171825" stroke="#000000" stroke-width="0.5" stroke-linecap="round"/><path d="M295.9886,172.10656c0,0 -0.92169,-10.09224 1.21178,-15.96532c2.79161,-7.68479 6.20205,-20.22628 17.34077,-26.81227c6.20405,-3.66826 26.16442,-0.18124 32.91489,6.15872c10.17359,9.55492 8.03057,14.94254 8.32595,25.90673c0.27987,10.38874 -1.82135,14.90112 -4.07101,19.86723c-2.21533,4.89032 -3.5185,2.6192 -3.5185,2.6192z" fill="url(#color-11)" stroke="#000000" stroke-width="0" stroke-linecap="round"/><path d="M298.99821,176.5845c0,0 -0.89637,-8.63215 1.00313,-13.63955c2.48545,-6.55205 5.50294,-17.2518 15.56452,-22.81454c5.60409,-3.09833 23.72595,0.00203 29.88558,5.46179c9.28315,8.22838 5.26364,11.44871 5.59727,20.82243c0.31611,8.88175 -2.66012,10.21107 -4.67042,14.44251c-1.97962,4.16685 -47.38007,-4.27263 -47.38007,-4.27263z" fill="url(#color-12)" stroke="#000000" stroke-width="0" stroke-linecap="round"/><path d="M312.10071,168.52649c-0.68015,-0.31605 -0.3641,-0.9962 -0.3641,-0.9962l0.12153,-0.05472c-0.03464,-0.72855 -0.18218,-1.4494 -0.33942,-2.16162c0.68893,-1.6252 1.98846,-2.93924 2.69384,-4.50225c0.51717,-1.14596 0.06865,-3.13167 -0.07036,-4.30469c-0.4176,-3.52377 -0.65852,-6.882 -2.08998,-10.18189c0,0 -0.29614,-0.68906 0.39292,-0.98519c0.68906,-0.29615 0.9852,0.39291 0.9852,0.39291c1.01539,2.38214 1.47035,4.7781 1.79858,7.24423c0.18349,-2.44376 0.26076,-4.88645 -0.14981,-7.33751c0,0 -0.12323,-0.73981 0.61657,-0.86305c0.7398,-0.12323 0.86305,0.61657 0.86305,0.61657c0.86625,5.23188 -0.43059,10.37423 -0.31379,15.60747c0.00529,0.23727 0.0118,0.47423 0.0187,0.71098c0.07391,-0.65556 0.1791,-1.27973 0.34265,-1.85197c0.70408,-2.43426 0.60566,-4.89889 1.26289,-7.32418c0.29101,-1.07386 1.25044,-2.91467 1.05088,-4.02069c-0.30488,-1.68977 -0.85939,-2.76376 -0.65568,-4.5894c0,0 0.08475,-0.7452 0.82994,-0.66045c0.7452,0.08475 0.66045,0.82994 0.66045,0.82994c-0.19565,1.68487 0.43021,2.61383 0.64684,4.18542c0.24473,1.77548 -0.99837,3.84257 -1.32659,5.5677c-0.41414,2.17674 -0.41477,4.26114 -1.02648,6.42385c-1.0785,3.77352 0.02148,8.73983 -2.67068,11.88903c0.22896,0.3389 0.44474,0.64864 0.54699,0.87213l0.15586,0.1599c0,0 0.46701,0.58686 -0.11985,1.05387c-0.58686,0.46701 -1.05387,-0.11985 -1.05387,-0.11985l-0.34735,-0.47245c-0.12937,-0.28585 -0.29035,-0.56005 -0.45749,-0.8311c-0.20671,-0.02533 -0.44339,-0.13844 -0.57072,-0.48685c-0.07477,-0.20455 -0.06842,-0.37141 -0.02176,-0.50522c-0.29124,-0.55633 -0.48178,-1.14194 -0.3635,-1.82639c0.22694,-1.31328 1.42753,-2.24496 1.55796,-3.6237c0.1391,-1.19805 0.12426,-2.38555 0.09003,-3.57504c-0.59416,0.88965 -1.29329,1.76208 -1.78215,2.64974c0.18381,0.63116 0.30757,1.28554 0.34413,1.9419l-0.2592,0.76466c0,0 -0.31605,0.68015 -0.9962,0.3641zM314.6097,170.33351c-0.03197,0.11432 -0.0275,0.24483 0.00376,0.38604c0.52199,-0.75108 0.84415,-1.63733 1.05206,-2.59379c-0.37061,0.72524 -0.82904,1.39695 -1.05582,2.20775z" fill="#130302" stroke="none" stroke-width="0.5" stroke-linecap="butt"/><path d="M310.86082,170.14954c-0.7452,-0.08475 -0.66045,-0.82994 -0.66045,-0.82994l0.05411,-0.00106c-0.35803,-1.30758 -0.92054,-2.29962 -1.49028,-3.54861c0.18545,-1.65216 1.19577,-1.86236 1.65574,-3.22766c1.36919,-4.06409 1.09069,-10.34305 -0.73254,-14.31556c0,0 -0.31073,-0.6826 0.37188,-0.99333c0.6826,-0.31073 0.99333,0.37187 0.99333,0.37187c1.37715,3.04694 2.3418,9.03436 1.57797,12.30606c-0.21924,0.93906 -0.47907,2.26268 -0.8098,3.16732c-0.36128,0.98823 -1.45678,1.42188 -1.5772,2.44334c0.59625,1.1718 1.10972,2.12971 1.45766,3.40042l-0.01046,0.56671c0,0 -0.08475,0.7452 -0.82994,0.66045z" fill="#130302" stroke="none" stroke-width="0.5" stroke-linecap="butt"/><path d="M335.67738,170.95635c0.19308,0.10629 0.39655,0.31634 0.35004,0.72533c-0.08475,0.7452 -0.82994,0.66045 -0.82994,0.66045l-0.7398,-0.45061c-0.47729,-1.05453 -0.97955,-2.01596 -1.44447,-3.01378c-0.35124,1.76548 0.30677,3.99607 0.94944,5.71308c0.0406,0.06908 0.05908,0.11963 0.05908,0.11963l-0.01029,0.00985c0.07543,0.19885 0.1503,0.39025 0.22292,0.57261l-0.78671,-0.03276l-0.60876,0.58289c-1.06083,-2.71456 -2.15645,-6.3551 -0.64903,-8.93992c-0.03573,-0.09975 -0.07082,-0.20048 -0.10523,-0.30228c0.33278,-1.09008 0.9821,-1.65455 1.76493,-2.07262c1.72805,-2.67481 3.25901,-5.92963 3.29107,-8.86c0.03123,-2.85499 -1.33993,-6.22705 -2.03205,-8.98716c0,0 -0.1823,-0.7275 0.5452,-0.90981c0.72751,-0.18231 0.90981,0.5452 0.90981,0.5452c0.72542,2.8969 2.08813,6.36126 2.07701,9.36226c-0.00939,2.53207 -1.04042,5.2781 -2.39549,7.75129c0.24954,-0.13604 0.49599,-0.28911 0.73511,-0.46804c4.63023,-3.4652 5.36881,-7.6703 3.11198,-12.87288c0,0 -0.29614,-0.68906 0.39292,-0.9852c0.68906,-0.29615 0.98519,0.39292 0.98519,0.39292c2.26219,5.30718 1.81661,9.57426 -2.33731,13.66241c-0.58658,0.57731 -2.59226,1.40636 -4.02522,2.17783c-0.41535,0.64448 -0.84165,1.2572 -1.26338,1.82733c0.57321,1.30678 1.22473,2.49745 1.833,3.79197z" fill="#2b0705" stroke="none" stroke-width="0.5" stroke-linecap="butt"/><path d="M341.25594,172.16846c-0.7452,-0.08475 -0.66045,-0.82994 -0.66045,-0.82994l0.01234,-0.01827c-0.06311,-1.28241 -0.11363,-3.11639 0.36351,-4.31003c0.76775,-1.9207 2.50928,-2.95851 3.0066,-5.14628c0.74271,-3.2673 -0.15165,-5.98494 -0.24641,-9.18448c0,0 -0.0215,-0.74969 0.7282,-0.77119c0.74969,-0.0215 0.77118,0.72821 0.77118,0.72821c0.09152,3.3112 0.9828,6.17011 0.21003,9.55857c-0.83759,3.67267 -3.55602,5.04072 -3.33513,9.04738l-0.01994,0.2656c0,0 -0.08475,0.7452 -0.82994,0.66045z" fill="#130302" stroke="none" stroke-width="0.5" stroke-linecap="butt"/><path d="M335.75329,172.94169c-0.68015,-0.31605 -0.3641,-0.9962 -0.3641,-0.9962l0.12153,-0.05472c-0.03464,-0.72855 -0.18218,-1.4494 -0.33942,-2.16162c0.68893,-1.6252 1.98846,-2.93924 2.69384,-4.50225c0.51717,-1.14596 0.06865,-3.13167 -0.07036,-4.30469c-0.4176,-3.52377 -0.65852,-6.882 -2.08998,-10.18189c0,0 -0.29614,-0.68906 0.39292,-0.9852c0.68906,-0.29615 0.9852,0.39292 0.9852,0.39292c1.01539,2.38214 1.47035,4.7781 1.79858,7.24423c0.18349,-2.44376 0.26076,-4.88645 -0.14981,-7.33751c0,0 -0.12323,-0.7398 0.61657,-0.86304c0.7398,-0.12323 0.86305,0.61657 0.86305,0.61657c0.86625,5.23188 -0.43059,10.37423 -0.31379,15.60747c0.00529,0.23727 0.0118,0.47422 0.0187,0.71098c0.07391,-0.65556 0.1791,-1.27973 0.34265,-1.85196c0.70408,-2.43426 0.60566,-4.89889 1.26289,-7.32418c0.29101,-1.07386 1.25044,-2.91468 1.05088,-4.02069c-0.30488,-1.68977 -0.85939,-2.76375 -0.65568,-4.58939c0,0 0.08475,-0.7452 0.82994,-0.66045c0.7452,0.08475 0.66045,0.82994 0.66045,0.82994c-0.19565,1.68487 0.43021,2.61383 0.64684,4.18542c0.24473,1.77548 -0.99837,3.84257 -1.32659,5.5677c-0.41414,2.17674 -0.41477,4.26114 -1.02648,6.42385c-1.0785,3.77352 0.02148,8.73983 -2.67068,11.88903c0.22896,0.3389 0.44474,0.64864 0.54699,0.87213l0.15586,0.1599c0,0 0.46701,0.58686 -0.11985,1.05387c-0.58686,0.46701 -1.05387,-0.11985 -1.05387,-0.11985l-0.34735,-0.47245c-0.12937,-0.28585 -0.29035,-0.56005 -0.45749,-0.83111c-0.20671,-0.02533 -0.44339,-0.13844 -0.57072,-0.48684c-0.07477,-0.20455 -0.06842,-0.37141 -0.02176,-0.50522c-0.29124,-0.55633 -0.48178,-1.14194 -0.3635,-1.82639c0.22694,-1.31328 1.42753,-2.24496 1.55796,-3.6237c0.1391,-1.19805 0.12426,-2.38555 0.09003,-3.57504c-0.59416,0.88965 -1.29329,1.76209 -1.78215,2.64975c0.18381,0.63116 0.30757,1.28554 0.34413,1.9419l-0.2592,0.76466c0,0 -0.31605,0.68015 -0.9962,0.3641zM338.26228,174.74872c-0.03197,0.11432 -0.0275,0.24483 0.00376,0.38604c0.52199,-0.75108 0.84415,-1.63733 1.05206,-2.59379c-0.37061,0.72524 -0.82904,1.39695 -1.05582,2.20776z" fill="#130302" stroke="none" stroke-width="0.5" stroke-linecap="butt"/><path d="M346.45464,174.31456c0.20586,0.07873 0.43629,0.2588 0.44646,0.6703c0.01854,0.74977 -0.73125,0.7683 -0.73125,0.7683l-0.79473,-0.3446c-0.61776,-0.97886 -1.24745,-1.8621 -1.84518,-2.78653c-0.10514,1.79701 0.85336,3.91593 1.72603,5.52825c0.04972,0.06284 0.07497,0.11037 0.07497,0.11037l-0.00883,0.01117c0.10206,0.18659 0.20253,0.36587 0.29954,0.5365l-0.78374,0.07574l-0.52283,0.66107c-1.42403,-2.5429 -3.00986,-5.9982 -1.8722,-8.76574c-0.04911,-0.09388 -0.09771,-0.18882 -0.14579,-0.28493c0.17971,-1.12548 0.74525,-1.77389 1.46316,-2.29563c1.34383,-2.88702 2.41266,-6.32144 2.04145,-9.2284c-0.36165,-2.83215 -2.1835,-5.98363 -3.24859,-8.62234c0,0 -0.28061,-0.69552 0.41492,-0.97614c0.69552,-0.28062 0.97614,0.41492 0.97614,0.41492c1.11688,2.76963 2.94304,6.01369 3.34469,8.98771c0.3389,2.50931 -0.30474,5.37103 -1.30685,8.00706c0.22846,-0.16907 0.45154,-0.35456 0.66377,-0.56468c4.10974,-4.06898 4.26306,-8.3357 1.31225,-13.17853c0,0 -0.38808,-0.64179 0.25372,-1.02988c0.64178,-0.38809 1.02987,0.25372 1.02987,0.25372c2.97049,4.94569 3.11591,9.23351 -0.43639,13.85403c-0.50163,0.65248 -2.37424,1.74947 -3.68749,2.71067c-0.32278,0.69548 -0.66077,1.36098 -1.0001,1.9837c0.74746,1.21554 1.55653,2.30532 2.33702,3.5039z" fill="#130302" stroke="none" stroke-width="0.5" stroke-linecap="butt"/><path d="M319.83546,170.88261c-0.7452,-0.08475 -0.66045,-0.82994 -0.66045,-0.82994l0.05411,-0.00106c-0.35803,-1.30758 -0.92054,-2.29962 -1.49028,-3.54861c0.18545,-1.65216 1.19577,-1.86237 1.65574,-3.22766c1.36919,-4.06409 1.09069,-10.34304 -0.73254,-14.31555c0,0 -0.31073,-0.6826 0.37188,-0.99333c0.6826,-0.31073 0.99333,0.37187 0.99333,0.37187c1.37715,3.04694 2.3418,9.03436 1.57797,12.30606c-0.21924,0.93906 -0.47907,2.26268 -0.8098,3.16732c-0.36128,0.98823 -1.45678,1.42189 -1.5772,2.44335c0.59625,1.1718 1.10972,2.12971 1.45766,3.40042l-0.01046,0.56671c0,0 -0.08475,0.7452 -0.82994,0.66045z" fill="#2b0705" stroke="none" stroke-width="0.5" stroke-linecap="butt"/><path d="M326.44354,167.56962c-0.68015,-0.31605 -0.3641,-0.99621 -0.3641,-0.99621l0.12153,-0.05472c-0.03464,-0.72855 -0.18218,-1.4494 -0.33942,-2.16162c0.68893,-1.6252 1.98846,-2.93924 2.69385,-4.50225c0.51717,-1.14596 0.06865,-3.13167 -0.07036,-4.30469c-0.4176,-3.52377 -0.65852,-6.882 -2.08998,-10.18189c0,0 -0.29614,-0.68906 0.39292,-0.9852c0.68906,-0.29614 0.9852,0.39291 0.9852,0.39291c1.01539,2.38214 1.47035,4.7781 1.79858,7.24423c0.18349,-2.44376 0.26076,-4.88645 -0.14981,-7.33751c0,0 -0.12323,-0.7398 0.61657,-0.86304c0.7398,-0.12323 0.86305,0.61657 0.86305,0.61657c0.86625,5.23189 -0.43059,10.37423 -0.3138,15.60748c0.00529,0.23727 0.0118,0.47422 0.0187,0.71098c0.07391,-0.65556 0.1791,-1.27973 0.34265,-1.85196c0.70408,-2.43426 0.60566,-4.89889 1.26289,-7.32418c0.29101,-1.07386 1.25044,-2.91468 1.05088,-4.02069c-0.30488,-1.68976 -0.85939,-2.76375 -0.65568,-4.58939c0,0 0.08475,-0.7452 0.82994,-0.66045c0.7452,0.08475 0.66045,0.82994 0.66045,0.82994c-0.19565,1.68487 0.43021,2.61383 0.64685,4.18541c0.24473,1.77548 -0.99837,3.84258 -1.32659,5.5677c-0.41414,2.17674 -0.41477,4.26114 -1.02648,6.42385c-1.0785,3.77352 0.02148,8.73983 -2.67068,11.88903c0.22896,0.3389 0.44474,0.64864 0.54699,0.87213l0.15586,0.1599c0,0 0.46701,0.58686 -0.11985,1.05387c-0.58686,0.46701 -1.05387,-0.11985 -1.05387,-0.11985l-0.34735,-0.47246c-0.12937,-0.28585 -0.29035,-0.56005 -0.45749,-0.8311c-0.20671,-0.02533 -0.44339,-0.13844 -0.57072,-0.48685c-0.07477,-0.20455 -0.06842,-0.37141 -0.02176,-0.50522c-0.29124,-0.55633 -0.48178,-1.14194 -0.3635,-1.8264c0.22694,-1.31328 1.42753,-2.24496 1.55796,-3.6237c0.1391,-1.19805 0.12426,-2.38555 0.09003,-3.57504c-0.59416,0.88965 -1.29329,1.76209 -1.78215,2.64975c0.18381,0.63116 0.30757,1.28554 0.34413,1.9419l-0.2592,0.76465c0,0 -0.31606,0.68015 -0.99621,0.3641zM328.95252,169.37664c-0.03197,0.11432 -0.0275,0.24483 0.00376,0.38604c0.52199,-0.75108 0.84415,-1.63733 1.05206,-2.59379c-0.37061,0.72524 -0.82904,1.39695 -1.05582,2.20776z" fill="#130302" stroke="none" stroke-width="0.5" stroke-linecap="butt"/><path d="M309.28322,163.27236c-0.01051,-0.70909 0.0001,-1.45543 0.03809,-2.22122c-0.71497,-1.46196 -1.86183,-3.30446 -2.00213,-4.11543c-0.99356,-5.7429 1.13083,-9.47029 6.06183,-12.46511c0,0 0.64219,-0.38742 1.02961,0.25477c0.38742,0.64219 -0.25477,1.02961 -0.25477,1.02961c-4.86571,2.91293 -6.71586,6.76069 -4.97221,12.27488c0.09005,0.28476 0.20115,0.55276 0.32467,0.80873c0.33992,-2.79952 1.10218,-5.63197 2.57003,-7.69519c1.73969,-2.44532 4.86587,-4.46664 7.14348,-6.39818c0,0 0.57209,-0.485 1.05708,0.08708c0.48499,0.57209 -0.08708,1.05708 -0.08708,1.05708c-2.17082,1.83976 -5.25009,3.78115 -6.88836,6.11953c-1.68152,2.40013 -2.33399,5.93735 -2.4883,9.11807c0.39258,0.79593 0.59134,1.63304 0.22657,2.71283c-0.08729,0.06269 -0.17449,0.1241 -0.26166,0.18433c-0.28116,2.97901 -3.29297,5.29916 -5.73688,6.88706l-0.15506,-0.82845l-0.65843,-0.43181c0.16528,-0.10587 0.33765,-0.21779 0.51482,-0.33544l-0.00262,-0.01401c0,0 0.04447,-0.03032 0.11773,-0.0628c1.52281,-1.02089 3.35737,-2.45019 4.10069,-4.08963c-0.95929,0.53999 -1.9277,1.02865 -2.93006,1.60751l-0.8638,-0.06489c0,0 -0.65499,-0.36537 -0.28962,-1.02035c0.20052,-0.35947 0.48829,-0.41161 0.70713,-0.38548c1.24866,-0.69757 2.47197,-1.28555 3.69927,-2.01352z" data-paper-data="{&quot;index&quot;:null}" fill="#130302" stroke="none" stroke-width="0.5" stroke-linecap="butt"/><path d="M299.05914,176.75118c0,0 -0.89637,-8.63215 1.00313,-13.63955c2.48545,-6.55205 5.50294,-17.2518 15.56452,-22.81454c5.60409,-3.09833 23.72595,0.00203 29.88558,5.46179c9.28316,8.22837 4.62852,11.50229 4.96215,20.87601c0.31611,8.88175 -2.13507,10.01917 -4.14537,14.25061c-0.96945,2.04058 -11.54655,-1.33645 -22.88404,-2.83686c-11.81359,-1.56341 -24.38596,-1.29745 -24.38596,-1.29745z" fill="url(#color-13)" stroke="#000000" stroke-width="0" stroke-linecap="round"/><path d="M318.25419,149.38771c-0.07132,0.62715 -0.66932,1.07411 -1.33565,0.99833c-0.66633,-0.07578 -1.1487,-0.6456 -1.07737,-1.27275c0.07132,-0.62715 0.66932,-1.07411 1.33565,-0.99833c0.66633,0.07578 1.1487,0.6456 1.07737,1.27275z" fill="#ff0000" stroke="none" stroke-width="0" stroke-linecap="butt"/><path d="M340.69776,153.61751c-0.07132,0.62715 -0.66931,1.07411 -1.33564,0.99833c-0.66633,-0.07578 -1.1487,-0.6456 -1.07737,-1.27275c0.07132,-0.62715 0.66932,-1.0741 1.33565,-0.99832c0.66633,0.07578 1.14869,0.6456 1.07736,1.27274z" fill="#ff0000" stroke="none" stroke-width="0" stroke-linecap="butt"/><path d="M295.66488,171.66114c0,0 1.63816,-0.06606 2.29556,0.11297c0.51738,0.1409 1.33037,0.87449 1.33037,0.87449c0,0 -2.44576,22.28174 21.9632,24.80133c7.33773,1.17361 12.76753,0.07275 16.47167,-2.68376c5.95191,-4.42925 9.62425,-16.59811 9.62425,-16.59811c0,0 1.71751,0.25163 2.02456,0.86099c0.40721,0.80813 0.20422,3.56204 0.20422,3.56204c0,0 -3.42424,12.78445 -7.74503,16.42647c-6.81988,5.7485 -13.10453,5.74774 -24.21506,4.16545c-10.88448,-1.5501 -17.33273,-10.5295 -20.82362,-15.54183c-3.49089,-5.01233 -1.13011,-15.98005 -1.13011,-15.98005z" fill="url(#color-14)" stroke="#000000" stroke-width="0" stroke-linecap="round"/><path d="M323.35373,174.93789c4.35648,0.62811 10.91623,2.83499 10.91623,2.83499l-0.4338,11.18932c0,0 -3.80541,4.779 -12.51444,3.1058c-8.94813,-1.71914 -11.42017,-7.25357 -11.42017,-7.25357l2.33624,-10.21812c0,0 6.75946,-0.28653 11.11594,0.34158z" fill="#0a0a0a" stroke="#000000" stroke-width="0" stroke-linecap="round"/><path d="M315.80024,189.81453c3.34897,0.86207 1.31984,7.83568 1.31984,7.83568l-5.32717,-1.33779c0,0 0.94563,-7.28602 4.00734,-6.49789z" fill="url(#color-15)" stroke="#000000" stroke-width="0" stroke-linecap="round"/><path d="M326.39558,191.72924c3.63662,0.58756 2.19491,7.70914 2.19491,7.70914l-5.78134,-0.90121c0,0 0.26176,-7.34508 3.58644,-6.80794z" fill="url(#color-16)" stroke="#000000" stroke-width="0" stroke-linecap="round"/><path d="M334.59461,189.48155c3.34897,0.86207 1.31984,7.83568 1.31984,7.83568c0,0 -2.16659,0.68656 -3.00952,0.721c-0.56287,0.023 -1.55646,-0.53445 -1.55646,-0.53445c0,0 0.18443,-8.81037 3.24614,-8.02224z" fill="url(#color-17)" stroke="#000000" stroke-width="0" stroke-linecap="round"/><path d="M341.19329,186.77899c2.30098,0.67194 0.76976,6.63991 0.76976,6.63991c0,0 -1.51136,0.62351 -2.09511,0.66822c-0.3898,0.02986 -1.06695,-0.42608 -1.06695,-0.42608c0,0 0.28868,-7.49634 2.39229,-6.88205z" fill="url(#color-18)" stroke="#000000" stroke-width="0" stroke-linecap="round"/><path d="M345.34674,182.83131c0,0 0.33647,-7.49091 2.25585,-6.89756c2.09946,0.64902 0.6405,6.62521 0.6405,6.62521c0,0 -1.38925,0.6374 -1.92395,0.68768c-0.35705,0.03358 -0.9724,-0.41533 -0.9724,-0.41533z" fill="url(#color-19)" stroke="#000000" stroke-width="0" stroke-linecap="round"/><path d="M345.01015,181.03058c2.30098,0.67194 0.76976,6.63991 0.76976,6.63991c0,0 -1.51136,0.62351 -2.09511,0.66822c-0.3898,0.02986 -1.06695,-0.42608 -1.06695,-0.42608c0,0 0.28868,-7.49634 2.39229,-6.88205z" fill="url(#color-20)" stroke="#000000" stroke-width="0" stroke-linecap="round"/><path d="M304.32842,191.15019c0,0 0.76334,-6.94731 3.82505,-6.15918c3.34896,0.86207 0.84558,8.21308 0.84558,8.21308c0,0 -0.91788,0.08572 -1.66354,-0.10153c-0.97026,-0.24366 -3.00709,-1.95239 -3.00709,-1.95239z" fill="url(#color-21)" stroke="#000000" stroke-width="0" stroke-linecap="round"/><path d="M298.24075,175.14551c0,0 0.77157,-6.94636 2.86404,-6.26846c2.2888,0.74151 0.29824,8.15083 0.29824,8.15083c0,0 -0.63859,0.11748 -1.14835,-0.04294c-0.66332,-0.20875 -2.01394,-1.83944 -2.01394,-1.83944z" fill="url(#color-22)" stroke="#000000" stroke-width="0" stroke-linecap="round"/><path d="M298.21933,180.39095c0,0 0.76692,-6.9469 3.40722,-6.2067c2.88802,0.80965 0.60761,8.18602 0.60761,8.18602c0,0 -0.79645,0.09953 -1.43955,-0.07605c-0.8368,-0.22848 -2.57527,-1.90328 -2.57527,-1.90328z" fill="url(#color-23)" stroke="#000000" stroke-width="0" stroke-linecap="round"/><path d="M303.67135,179.59283c2.88802,0.80965 0.60761,8.18602 0.60761,8.18602c0,0 -0.79645,0.09953 -1.43955,-0.07605c-0.8368,-0.22848 -2.57528,-1.90328 -2.57528,-1.90328c0,0 0.76692,-6.94689 3.40722,-6.20669z" fill="url(#color-24)" stroke="#000000" stroke-width="0" stroke-linecap="round"/><path d="M313.37058,172.56957c1.263,0.49547 0.30831,3.57035 0.30831,3.57035c0,0 -0.84854,0.23971 -1.17279,0.2282c-0.21652,-0.00769 -0.58361,-0.29052 -0.58361,-0.29052c0,0 0.29342,-3.961 1.44809,-3.50804z" fill="url(#color-25)" stroke="#000000" stroke-width="0" stroke-linecap="round"/><path d="M324.79535,185.29621c1.92418,0.41886 0.88992,3.2959 0.88992,3.2959c0,0 -1.223,0.24872 -1.70289,0.24831c-0.32046,-0.00028 -0.89663,-0.25055 -0.89663,-0.25055c0,0 -0.04953,-3.67658 1.7096,-3.29366z" fill="url(#color-26)" stroke="#000000" stroke-width="0" stroke-linecap="round"/><path d="M312.8865,174.71912c1.263,0.49547 0.30831,3.57035 0.30831,3.57035c0,0 -0.84854,0.23971 -1.17279,0.2282c-0.21652,-0.00768 -0.58361,-0.29052 -0.58361,-0.29052c0,0 0.29342,-3.961 1.44809,-3.50804z" fill="url(#color-27)" stroke="#000000" stroke-width="0" stroke-linecap="round"/><path d="M319.93277,184.64737c1.92419,0.41885 0.88992,3.29589 0.88992,3.29589c0,0 -1.223,0.24872 -1.70289,0.24831c-0.32046,-0.00028 -0.89663,-0.25055 -0.89663,-0.25055c0,0 -0.04954,-3.67657 1.7096,-3.29365z" fill="url(#color-28)" stroke="#000000" stroke-width="0" stroke-linecap="round"/><path d="M312.41524,178.02033c1.263,0.49547 0.30831,3.57035 0.30831,3.57035c0,0 -0.84854,0.23971 -1.17279,0.2282c-0.21652,-0.00769 -0.58361,-0.29052 -0.58361,-0.29052c0,0 0.29342,-3.961 1.44809,-3.50804z" fill="url(#color-29)" stroke="#000000" stroke-width="0" stroke-linecap="round"/><path d="M313.98706,186.31118c0,0 0.86029,-3.88249 2.61703,-3.04282c1.92156,0.91845 0.11883,3.69032 0.11883,3.69032c0,0 -1.34913,-0.04169 -1.8542,-0.16123c-0.33727,-0.07982 -0.88167,-0.48627 -0.88167,-0.48627z" fill="url(#color-30)" stroke="#000000" stroke-width="0" stroke-linecap="round"/><path d="M311.62124,183.80737c0,0 -0.03344,-3.32721 1.59963,-2.81984c1.78629,0.55498 0.59162,3.60257 0.59162,3.60257c0,0 -1.10544,0.01879 -1.55882,-0.00741c-0.30275,-0.01749 -0.63244,-0.77533 -0.63244,-0.77533z" fill="url(#color-31)" stroke="#000000" stroke-width="0" stroke-linecap="round"/><path d="M328.76949,185.20002c2.04795,0.58474 0.7333,3.61869 0.7333,3.61869c0,0 -1.33715,0.18415 -1.85509,0.15061c-0.34587,-0.02239 -0.95049,-0.33224 -0.95049,-0.33224c0,0 0.2,-3.97163 2.07228,-3.43705z" fill="url(#color-32)" stroke="#000000" stroke-width="0" stroke-linecap="round"/><path d="M334.75212,176.72653c1.263,0.49547 0.30831,3.57035 0.30831,3.57035c0,0 -0.84854,0.23971 -1.17279,0.2282c-0.21652,-0.00768 -0.58361,-0.29052 -0.58361,-0.29052c0,0 0.29342,-3.961 1.44809,-3.50804z" fill="url(#color-33)" stroke="#000000" stroke-width="0" stroke-linecap="round"/><path d="M334.425,179.18148c1.263,0.49547 0.30831,3.57035 0.30831,3.57035c0,0 -0.84854,0.23971 -1.17279,0.2282c-0.21652,-0.00768 -0.58361,-0.29052 -0.58361,-0.29052c0,0 0.29342,-3.961 1.44809,-3.50804z" fill="url(#color-34)" stroke="#000000" stroke-width="0" stroke-linecap="round"/><path d="M334.18175,181.74182c1.263,0.49547 0.30831,3.57035 0.30831,3.57035c0,0 -0.84854,0.23971 -1.17279,0.2282c-0.21652,-0.00769 -0.58361,-0.29052 -0.58361,-0.29052c0,0 0.29342,-3.961 1.44809,-3.50804z" fill="url(#color-35)" stroke="#000000" stroke-width="0" stroke-linecap="round"/><path d="M332.49059,184.04163c1.98253,0.5773 0.69787,3.61466 0.69787,3.61466c0,0 -1.29643,0.18878 -1.79823,0.15707c-0.33509,-0.02116 -0.91991,-0.32876 -0.91991,-0.32876c0,0 0.20779,-3.97074 2.02026,-3.44297z" fill="url(#color-36)" stroke="#000000" stroke-width="0" stroke-linecap="round"/><path d="M333.79181,186.06084c0,0 -0.24994,2.71798 -5.2232,3.07656c-4.97326,0.35858 -10.58436,-1.04523 -13.11731,-2.08379c-2.53295,-1.03857 -4.37259,-4.81907 -4.37259,-4.81907" fill="none" stroke="#2b2b2b" stroke-width="1" stroke-linecap="round"/><path d="M305.16162,126.13979c0,0 -0.21964,-9.30307 1.6824,-14.79352c1.90204,-5.49045 3.35675,-7.02272 5.80917,-6.83178c2.45242,0.19093 15.49507,0.87476 20.00439,7.97819c1.55505,2.44963 -0.11291,7.27706 -1.45381,11.80019c-1.3409,4.52314 -2.21837,7.57825 -5.80442,9.73983c-3.58605,2.16158 -14.76442,-1.0906 -17.62366,-3.34618c-2.85924,-2.25559 -2.61409,-4.54673 -2.61409,-4.54673z" fill="url(#color-37)" stroke="#000000" stroke-width="0" stroke-linecap="round"/><path d="M337.43926,133.27722c0,0 -0.19399,-9.30016 1.6824,-14.79353c1.87639,-5.49337 3.3054,-7.02856 5.70818,-6.84326c2.40276,0.18528 15.18207,0.83916 19.58469,7.93046c1.51825,2.44545 -0.12727,7.27543 -1.45157,11.80044c-1.32431,4.52503 -2.19114,7.58134 -5.71015,9.75055c-3.51901,2.16921 -14.46558,-1.05661 -17.2623,-3.30508c-2.79671,-2.24848 -2.55124,-4.53959 -2.55124,-4.53959z" fill="url(#color-38)" stroke="#000000" stroke-width="0" stroke-linecap="round"/><path d="M309.53294,124.46779c0,0 -0.01794,-7.51365 1.36208,-11.97694c1.38002,-4.46329 2.39753,-5.72203 4.07341,-5.60267c1.67588,0.11936 10.5934,0.48628 13.57878,6.16158c1.02951,1.95715 -0.18085,5.88138 -1.16302,9.55511c-0.98217,3.67373 -1.62625,6.15471 -4.11153,7.95227c-2.4853,1.79756 -10.09022,-0.67106 -12.01517,-2.45286c-1.92495,-1.7818 -1.72454,-3.6365 -1.72454,-3.6365z" fill="url(#color-39)" stroke="#000000" stroke-width="0" stroke-linecap="round"/><path d="M341.91579,131.76486c0,0 -0.0576,-7.16486 1.29802,-11.41362c1.35562,-4.24875 2.36587,-5.44369 4.04138,-5.32101c1.6755,0.12268 10.58961,0.51964 13.60316,5.94719c1.03923,1.87171 -0.14968,5.60734 -1.11186,9.1053c-0.96218,3.49795 -1.59277,5.86034 -4.06707,7.56131c-2.47431,1.70097 -10.0877,-0.69319 -12.0209,-2.40241c-1.9332,-1.70923 -1.74271,-3.47675 -1.74271,-3.47675z" fill="url(#color-40)" stroke="#000000" stroke-width="0" stroke-linecap="round"/><path d="M309.4467,105.1769c0,0 -0.05783,-8.13356 3.55615,-8.65359c3.61399,-0.52003 15.75967,3.53406 20.43863,6.12652c1.91216,1.05946 -1.33719,9.27375 -2.33181,9.68745c-2.04943,0.85244 -7.90259,0.86941 -12.86167,-1.16183c-4.83343,-1.97977 -8.8013,-5.99854 -8.8013,-5.99854z" fill="#2e2d54" stroke="#000000" stroke-width="0" stroke-linecap="round"/><path d="M359.34412,88.26323c5.8794,0.90313 7.49631,4.87259 8.83708,11.77588c1.34077,6.9033 -4.71452,16.87259 -4.71452,16.87259c0,0 -17.9399,-2.26502 -19.87551,-7.14481c-0.75749,-1.9097 0.18065,-8.18853 2.60856,-13.10432c2.42792,-4.91579 7.26499,-9.30246 13.14439,-8.39933z" fill="#2c2c51" stroke="#000000" stroke-width="0" stroke-linecap="round"/><path d="M358.98883,93.81228c4.4799,0.68815 5.71194,3.71274 6.73355,8.97281c1.02161,5.26008 -3.59231,12.85633 -3.59231,12.85633c0,0 -13.66958,-1.72586 -15.14445,-5.4441c-0.57718,-1.45512 0.13765,-6.23937 1.98764,-9.98503c1.85,-3.74566 5.53567,-7.08815 10.01557,-6.4z" fill="url(#color-41)" stroke="#000000" stroke-width="0" stroke-linecap="round"/></g><path d="M278.94664,204.09897c1.99496,-0.25216 17.3085,-3.42574 17.3085,-3.42574c0,0 10.67038,26.30679 9.95422,35.32221c-0.33745,4.24803 -26.08719,8.45183 -30.03042,4.00427c-8.56096,-10.05944 -14.59366,-30.18483 -14.59366,-30.18483c0,0 15.47213,-5.47714 17.36136,-5.71592z" fill="url(#color-42)" stroke="#000000" stroke-width="0" stroke-linecap="round"/><g stroke="#000000" stroke-width="0" stroke-linecap="round"><g data-paper-data="{&quot;index&quot;:null}"><path d="M263.74103,194.7802l-18.79485,-17.53252l-17.50085,-8.95644l5.27757,-6.89894l16.547,8.74713l20.43561,17.15741z" fill="url(#color-43)"/><path d="M244.36031,180.20906l-5.78706,-3.72262l0.04115,-2.76728l3.13411,-8.01864l3.39437,-1.46546l5.54495,3.966l0.5435,3.54247l-4.30077,7.43917z" fill="url(#color-44)"/><path d="M255.6215,189.81566l-4.80238,-4.92798l0.66203,-2.68725l4.85604,-7.10912l3.63689,-0.66514l4.5118,5.11075l-0.26658,3.574l-5.86264,6.28229z" fill="url(#color-45)"/><path d="M236.93236,161.97526l-4.73208,9.52787c0,0 -16.14775,-5.55768 -12.12538,-13.90054c4.16351,-8.63563 16.85747,4.37267 16.85747,4.37267z" fill="url(#color-46)"/></g><g data-paper-data="{&quot;index&quot;:null}"><path d="M273.26628,187.52392l-6.42332,-24.8873l-9.94242,-16.9601l8.15878,-2.98029l9.25062,16.27088l8.00848,25.45299z" fill="url(#color-47)"/><path d="M264.75695,164.81879l-2.87858,-6.24993l1.52229,-2.31131l6.95328,-5.0767l3.65001,0.58898l2.54364,6.325l-1.44603,3.27924l-7.62556,3.96093z" fill="url(#color-48)"/><path d="M269.08853,178.97294l-1.40034,-6.73698l2.00278,-1.91008l7.91636,-3.38412l3.42425,1.3942l1.05704,6.73485l-2.14601,2.87038l-8.32066,2.14582z" fill="url(#color-49)"/><path d="M268.29545,145.45066l-9.11204,5.49027c0,0 -10.62849,-13.36682 -2.75193,-18.23942c8.153,-5.04357 11.86399,12.74915 11.86399,12.74915z" fill="url(#color-50)"/></g><g data-paper-data="{&quot;index&quot;:null}"><path d="M284.5589,180.01574l6.92582,-24.75214l-0.09464,-19.65934l8.55314,1.5139l-0.15811,18.71605l-5.8382,26.03663z" fill="url(#color-51)"/><path d="M288.58554,156.10512l0.64448,-6.85074l2.47624,-1.23601l8.56173,-0.90436l2.86226,2.34026l-0.9719,6.74768l-2.89574,2.11165l-8.5837,-0.39809z" fill="url(#color-52)"/><path d="M285.2335,170.52272l2.16762,-6.53066l2.6907,-0.6479l8.54595,1.04295l2.26308,2.92366l-2.46352,6.35662l-3.29625,1.40681l-8.27463,-2.31702z" fill="url(#color-53)"/><path d="M290.72454,141.30363c0,0 -2.49047,-16.89481 6.76762,-17.1595c9.58301,-0.27397 3.86913,16.98013 3.86913,16.98013z" fill="url(#color-54)"/></g><g data-paper-data="{&quot;index&quot;:null}"><path d="M287.8962,177.29115l9.15517,0.01876c0,0 4.38198,13.49774 6.67714,23.37516c3.09493,13.31929 -25.67837,34.22909 -43.9432,18.15c-13.26848,-11.68064 28.11089,-41.54391 28.11089,-41.54391z" fill="url(#color-55)"/><path d="M261.26767,222.0514c0,0 -3.58226,-1.01765 -5.11611,-8.79767c-1.53384,-7.78003 -0.62234,-20.30955 -0.62234,-20.30955c0,0 9.38457,-8.8114 16.90917,-11.58982c7.52459,-2.77842 18.85789,-4.81942 18.85789,-4.81942c0,0 8.14262,22.30009 5.46344,28.38714c-2.67918,6.08703 -11.43416,9.93572 -15.83366,14.11549c-4.3995,4.17974 -19.65841,3.01384 -19.65841,3.01384z" fill="url(#color-56)"/></g><g><path d="M305.06596,198.06315c0,0 -3.11152,-0.33463 -4.91672,-1.84393c-1.23102,-1.02924 -2.97272,-3.572 -2.97272,-3.572l8.89136,-11.63767l13.27229,-13.19705l7.06182,5.05756l-12.92134,14.21085z" fill="url(#color-57)"/><path d="M309.237,191.0456l-6.2853,-5.85942l-0.51445,-3.5468l4.14546,-5.4121l3.67433,0.41064l5.33864,6.75426l0.84729,2.63469l-4.44807,5.25002z" fill="url(#color-58)"/><path d="M313.37165,172.40354c0,0 8.34306,-16.14765 14.8464,-9.10382c6.28288,6.80501 -7.53872,16.83497 -7.53872,16.83497l-7.30766,-7.73119z" fill="url(#color-59)"/></g></g></g></g></svg>