<svg version="1.1" xmlns="http://www.w3.org/2000/svg" xmlns:xlink="http://www.w3.org/1999/xlink" width="738.73873" height="449.51788" viewBox="0,0,738.73873,449.51788"><g transform="translate(43.70354,9.18919)"><g data-paper-data="{&quot;isPaintingLayer&quot;:true}" fill-rule="nonzero" stroke-linecap="butt" stroke-linejoin="miter" stroke-miterlimit="10" stroke-dasharray="" stroke-dashoffset="0" style="mix-blend-mode: normal"><path d="M-14.83483,369.18919v-378.37838h669.66967v378.37838z" fill="#00babd" stroke="none" stroke-width="NaN"/><path d="M264.10426,344.23259c0,53.07241 -67.56063,96.0961 -150.9009,96.0961c-83.34027,0 -150.9009,-43.02369 -150.9009,-96.0961c0,-53.07241 67.56063,-96.0961 150.9009,-96.0961c83.34027,0 150.9009,43.02369 150.9009,96.0961z" fill="#078f15" stroke="none" stroke-width="0"/><path d="M-30.19003,383.27163l-13.51351,-127.62763c0,0 29.84212,42.04204 111.11111,42.04204c53.01242,0 212.75427,-67.70357 353.83202,-75.12871c141.07775,-7.42514 273.7956,42.09568 273.7956,42.09568l-6.00601,118.61862z" fill="#08a018" stroke="none" stroke-width="0"/><g stroke-width="0.30736"><path d="M420.0013,47.379c-0.9835,-6.9155 5.5017,-17.0583 16.4436,-17.0583c15.8289,0 29.076,18.841 63.5307,15.0912l6.9155,9.0978l-12.1406,2.5818l-18.0111,1.0143h-17.3349c0,0 -14.999,-1.168 -22.8366,-1.0143c-12.8168,0.2459 -15.4601,-4.1493 -16.5666,-9.7125z" fill="#ffffff" stroke="#e3deee"/><path d="M557.8201,51.4976c-4.5488,3.9649 -16.044,6.5467 -26.5249,6.5467c-5.1021,0 -29.6906,0.0307 -54.4943,0.0307c7.8068,-2.7047 15.1219,-9.3744 18.257,-11.7103c3.9341,-2.9506 10.0813,-10.0813 15.0297,-11.8639c5.5324,-1.9671 7.8684,0.1844 12.0791,0.3995c3.7498,0.1844 9.5896,-5.1636 20.8696,-5.348c7.3151,-0.1229 12.6631,1.9056 16.2284,6.5467c3.9649,5.1636 3.0736,11.4644 -1.4446,15.3986z" fill="#e3deee" stroke="none"/><path d="M439.7951,48.5777c7.6532,4.1801 12.2943,7.7761 19.6094,9.5281c-19.7016,0 -36.4525,0 -39.2188,-0.0308c-5.5324,-0.0614 -12.5709,-3.9649 -9.4973,-8.5138c4.1801,-6.1471 18.2263,-6.9462 29.1067,-0.9835z" fill="#e3deee" stroke="none"/></g><g data-paper-data="{&quot;index&quot;:null}" stroke-width="0.30736"><path d="M142.50234,123.48502c-4.79223,-0.09398 -13.96323,0.62018 -13.96323,0.62018h-10.59927l-11.01272,-0.62018l-7.42326,-1.57862l4.22842,-5.56277c21.06701,2.29278 29.16683,-9.22738 38.84527,-9.22738c6.69032,0 10.65564,6.20172 10.05429,10.43014c-0.67656,3.40157 -2.29278,6.08897 -10.1295,5.93862z" fill="#ffffff" stroke="#e3deee"/><path d="M67.4805,110.64935c2.17997,-2.83776 5.44996,-4.07807 9.92271,-4.00292c6.89705,0.11275 10.46775,3.38274 12.76053,3.26999c2.57459,-0.13152 4.00292,-1.44704 7.38566,-0.24427c3.02565,1.08995 6.7843,5.44996 9.18977,7.25407c1.91693,1.42826 6.38968,5.50639 11.16308,7.16016c-15.166,0 -30.20041,-0.01877 -33.32004,-0.01877c-6.40845,0 -13.43709,-1.57862 -16.21841,-4.00292c-2.76261,-2.40553 -3.30759,-6.2581 -0.88329,-9.41533z" fill="#e3deee" stroke="none"/><path d="M158.32613,118.88069c1.87932,2.78138 -2.4243,5.16814 -5.80704,5.20569c-1.69143,0.01883 -11.93361,0.01883 -23.97998,0.01883c4.47275,-1.07124 7.31051,-3.26999 11.98999,-5.82587c6.65272,-3.64584 15.24114,-3.15724 17.79703,0.60135z" fill="#e3deee" stroke="none"/></g></g></g></svg>