<svg version="1.1" xmlns="http://www.w3.org/2000/svg" xmlns:xlink="http://www.w3.org/1999/xlink" width="761.75676" height="474.9063" viewBox="0,0,761.75676,474.9063"><defs><linearGradient x1="325.00001" y1="-12.44745" x2="325.00001" y2="382.44745" gradientUnits="userSpaceOnUse" id="color-1"><stop offset="0" stop-color="#777777"/><stop offset="1" stop-color="#696969"/></linearGradient><linearGradient x1="320" y1="-17.44745" x2="320" y2="377.44745" gradientUnits="userSpaceOnUse" id="color-2"><stop offset="0" stop-color="#777777"/><stop offset="1" stop-color="#696969"/></linearGradient><linearGradient x1="322.16582" y1="-4.35368" x2="322.16582" y2="319.64632" gradientUnits="userSpaceOnUse" id="color-3"><stop offset="0" stop-color="#000000" stop-opacity="0"/><stop offset="1" stop-color="#000000" stop-opacity="0.74902"/></linearGradient><linearGradient x1="320" y1="99.66967" x2="320" y2="228.7988" gradientUnits="userSpaceOnUse" id="color-4"><stop offset="0" stop-color="#cfcfcf"/><stop offset="1" stop-color="#a5a5a5"/></linearGradient><linearGradient x1="320" y1="-44.47447" x2="320" y2="404.47448" gradientUnits="userSpaceOnUse" id="color-5"><stop offset="0" stop-color="#000000" stop-opacity="0.61961"/><stop offset="1" stop-color="#000000" stop-opacity="0.74902"/></linearGradient></defs><g transform="translate(55.21256,70.43182)"><g data-paper-data="{&quot;isPaintingLayer&quot;:true}" fill-rule="nonzero" stroke-linejoin="miter" stroke-miterlimit="10" stroke-dasharray="" stroke-dashoffset="0" style="mix-blend-mode: normal"><path d="M-28.60359,382.44745v-394.89489h707.20721v394.89489z" fill="url(#color-1)" stroke="none" stroke-width="NaN" stroke-linecap="butt"/><path d="M-33.6036,377.44745v-394.89489h707.20721v394.89489z" fill="url(#color-2)" stroke="none" stroke-width="NaN" stroke-linecap="butt"/><path d="M-4.83418,319.64632v-324h654v324z" fill="url(#color-3)" stroke="none" stroke-width="0" stroke-linecap="butt"/><path d="M23.45345,228.7988v-129.12913c0,0 187.4892,36.03604 284.79528,36.03604c100.30082,0 308.29781,-36.03604 308.29781,-36.03604v129.12913c0,0 -208.32574,31.53153 -309.68031,31.53153c-96.0588,0 -283.41278,-31.53153 -283.41278,-31.53153z" fill="url(#color-4)" stroke="none" stroke-width="0" stroke-linecap="butt"/><path d="M-52.71256,390.77914v-76.57658h756.75676v76.57658z" fill="#ffffff" stroke="#ff0000" stroke-width="5" stroke-linecap="butt"/><path d="M96.69265,179.06743l-0.75075,-2.5c1.19246,0.02229 2.41721,-0.20964 3.57739,0.06688c1.08866,0.25947 1.93377,1.17097 3.003,1.5015c2.21063,0.68336 2.68253,-0.96095 4.85724,-1.5015c1.02777,-0.25546 2.13845,0.17307 3.17693,-0.0346c1.55199,-0.31036 2.94316,-1.24227 4.5045,-1.5015c1.42408,-0.23644 2.91161,0.29997 4.33058,0.0346c2.01208,-0.3763 3.6121,-1.93037 5.46235,-2.80595c0.77437,-0.36645 1.76158,-0.41366 2.35327,-1.0332c0.77296,-0.80934 1.001,-2.002 1.5015,-3.003c1.38948,-0.69474 4.00285,-1.20046 3.77227,-2.73674c-0.11156,-0.74332 -0.87013,-1.22926 -1.23757,-1.88497c-1.09419,-1.95263 -2.04558,-3.9828 -3.003,-6.00601c-0.36645,-0.77437 -0.41366,-1.76158 -1.0332,-2.35327c-0.80934,-0.77296 -2.21164,-0.71014 -3.003,-1.5015c-0.79136,-0.79136 -0.71014,-2.21164 -1.5015,-3.003c-0.79136,-0.79136 -2.21164,-0.71014 -3.003,-1.5015c-0.79136,-0.79136 -0.72854,-2.19366 -1.5015,-3.003c-1.45628,-1.52482 -4.01976,-1.46886 -5.70001,-2.74266c-0.98124,-0.74388 -1.39993,-2.16411 -2.49794,-2.72141c-0.77983,-0.39581 -1.77128,0.33157 -2.62068,0.12342c-2.08114,-0.50998 -5.01385,-2.59801 -7.47792,-1.62493c-2.87344,1.13475 -1.00634,2.14764 -1.52659,4.27069c-0.4457,1.81882 -1.48617,3.5597 -1.43462,5.43162c-0.02229,1.19246 0.20964,2.41721 -0.06688,3.57739c-0.25947,1.08866 -1.23007,1.91726 -1.5015,3.003c-0.24278,0.97111 0.25128,2.03405 0,3.003c-1.01814,3.92596 -4.17647,6.4201 -3.003,10.86325c0.27451,1.03938 1.14501,1.84646 1.46685,2.87217c0.80479,2.56484 1.18315,5.24922 1.5843,7.90726c0.28539,1.89101 -0.53652,3.88806 -0.04815,5.73708c0.28579,1.08205 1.23096,1.91704 1.5015,3.003c0.25237,1.01302 -0.19164,2.11097 0.02685,3.13183c0.29865,1.39539 1.27187,2.60062 1.5015,4.00901c0.84525,5.18416 -0.0002,10.37486 -1.58977,15.24514c0,0 -0.79057,2.37171 -3.16228,1.58114c-2.37171,-0.79057 -1.58114,-3.16228 -1.58114,-3.16228c1.36331,-3.99091 2.14287,-8.49764 1.41323,-12.77288c-0.24007,-1.40665 -1.20257,-2.61368 -1.5015,-4.00901c-0.20071,-0.93684 0.26002,-1.94488 0.02685,-2.87418c-0.27237,-1.0855 -1.24203,-1.91434 -1.5015,-3.003c-0.67811,-2.84511 0.373,-3.61466 -0.04815,-6.27493c-0.37777,-2.38627 -0.68447,-4.80604 -1.41871,-7.10775c-0.35355,-1.10834 -1.26588,-2.0023 -1.53615,-3.13383c-0.08753,-0.36645 -0.09081,-6.78832 0,-7.15477c0.5384,-2.17259 2.4831,-3.82892 3.003,-6.00601c0.23251,-0.97362 -0.24278,-2.03189 0,-3.003c0.45418,-1.81672 1.48617,-3.5597 1.43462,-5.43162c0.02229,-1.19246 -0.20964,-2.41721 0.06688,-3.57739c0.25947,-1.08866 1.22562,-1.91839 1.5015,-3.003c0.27836,-1.09435 -0.44212,-2.40796 0.12342,-3.38533c1.02843,-1.77734 2.55424,-3.37096 4.35599,-4.35599c0.36066,-0.19718 6.9621,-0.26047 7.5371,-0.12342c1.08866,0.25947 1.91839,1.22562 3.003,1.5015c1.09435,0.27836 2.37309,-0.37702 3.38533,0.12342c1.436,0.70994 2.22181,2.32978 3.50807,3.2846c2.2318,1.65671 4.13729,1.16518 6.312,3.26334c0.80541,0.77706 0.71014,2.21164 1.5015,3.003c0.79136,0.79136 2.21164,0.71014 3.003,1.5015c0.79136,0.79136 0.71014,2.21164 1.5015,3.003c0.79136,0.79136 2.22594,0.69609 3.003,1.5015c0.96049,0.99553 1.3301,2.4262 1.9698,3.65274c2.52656,4.84433 6.85194,9.72687 2.5347,14.89781c-0.71726,0.85909 -2.002,1.001 -3.003,1.5015c-0.5005,1.001 -0.69609,2.22594 -1.5015,3.003c-1.626,1.56876 -7.95921,4.69719 -10.20239,5.16986c-1.52601,0.32155 -3.14028,-0.2227 -4.67843,0.0346c-1.56103,0.26113 -2.95253,1.19107 -4.5045,1.5015c-0.92478,0.18498 -1.91447,-0.26464 -2.82908,-0.0346c-2.36327,0.59442 -4.76985,2.002 -7.15477,1.5015c-1.83271,-0.38461 -3.5597,-1.48617 -5.43162,-1.43462z" fill="#c43cb9" stroke="none" stroke-width="0.5" stroke-linecap="butt"/><path d="M181.14402,181.33586c3.4227,1.81541 4.80567,0.43219 8.46536,1.30445c0.97814,0.23313 1.93221,0.64441 2.89584,0.96731c0.10385,-1.83535 0.56751,-3.70736 0.10266,-5.46732c-0.28579,-1.08205 -1.23007,-1.91726 -1.5015,-3.003c-0.24278,-0.97111 0.24278,-2.03189 0,-3.003c-0.27143,-1.08574 -1.23007,-1.91726 -1.5015,-3.003c-0.24278,-0.97111 0.24278,-2.03189 0,-3.003c-0.27143,-1.08574 -1.23007,-1.91726 -1.5015,-3.003c-0.24278,-0.97111 0.24278,-2.03189 0,-3.003c-0.04732,-0.18926 -0.11588,-0.37071 -0.19821,-0.54709c-0.34568,0.74292 -0.7077,1.53496 -1.06497,2.43091c-1.47772,3.70578 -2.79055,7.09667 -4.57814,10.67184c-0.91543,1.83086 -2.33049,3.47137 -2.80595,5.46235c-0.23251,0.97362 0.24278,2.03189 0,3.003c-0.00183,0.00732 -0.00369,0.01463 -0.00559,0.02192zM191.46361,189.00806c-1.08866,-0.25947 -1.92096,-1.21571 -3.003,-1.5015c-1.93562,-0.51125 -4.06278,0.48156 -6.00601,0c-1.27232,-0.3153 -2.36444,-1.13237 -3.54665,-1.69856l-0.38347,0.26393c0,0 -0.36368,0 -0.81361,-0.13871c-0.35322,4.79417 1.39472,10.08505 0.24373,14.72961c-0.5384,2.17259 -2.4831,3.82892 -3.003,6.00601c-0.23251,0.97362 0,2.002 0,3.003c-1.67423,3.34846 -1.43462,4.76676 -1.43462,8.43463l-2.5,5.503l-2.5,-5.503c0,-3.78861 -0.15253,-6.14157 1.56838,-9.58339c0,-1.001 -0.25128,-2.03405 0,-3.003c0.56188,-2.16663 2.45363,-3.83617 3.003,-6.00601c0.59673,-2.35689 -0.06688,-5.99362 -0.06688,-8.43463c0,-1.34551 -0.01318,-7.66935 0.06688,-8.08189c0.21321,-1.09866 1.23007,-1.91726 1.5015,-3.003c0.24278,-0.97111 -0.25128,-2.03405 0,-3.003c0.1035,-0.39911 2.88692,-5.92338 3.20006,-6.54966c1.74143,-3.48286 2.98223,-6.73829 4.43087,-10.34919c1.27046,-3.16676 2.90765,-4.60426 2.8127,-8.0523c0,0 0,-2.5 2.5,-2.5c1.41869,0 2.03231,0.80507 2.29771,1.5015c0.01417,0.03718 0.02735,0.07406 0.0396,0.11048c1.66419,0.48355 1.66419,2.38952 1.66419,2.38952c-0.05155,1.87192 0.98044,3.61491 1.43462,5.43162c0.24278,0.97111 -0.24278,2.03189 0,3.003c0.27143,1.08574 1.23007,1.91726 1.5015,3.003c0.24278,0.97111 -0.24278,2.03189 0,3.003c0.27143,1.08574 1.23007,1.91726 1.5015,3.003c0.24278,0.97111 -0.24278,2.03189 0,3.003c0.27143,1.08574 1.24203,1.91434 1.5015,3.003c0.5802,2.43431 -0.50708,5.05692 0,7.50751c0.22677,1.09594 1.24203,1.91434 1.5015,3.003c1.12991,4.74073 -1.18301,10.34254 0,15.01502c0.54937,2.16984 2.03619,3.98727 3.003,6.00601c0,1.87198 0.42729,3.8086 1.30445,5.46235l1.5015,3.003c0,0 1.11803,2.23607 -1.11803,3.3541c-2.23607,1.11803 -3.3541,-1.11803 -3.3541,-1.11803l-1.5015,-3.003c-0.97421,-2.03419 -1.69856,-4.29422 -1.69856,-6.54966c-0.57255,-1.07946 -2.80509,-5.20736 -3.003,-6.00601c-1.13282,-4.57124 1.08056,-10.01516 0.10494,-14.57522c-0.92571,0.04181 -1.85735,0.13036 -2.7507,-0.08256z" fill="#c43cb9" stroke="none" stroke-width="0.5" stroke-linecap="butt"/><path d="M288.34276,233.44352c-1.82354,1.71017 -3.53372,-0.11337 -3.53372,-0.11337l-1.86598,-2.00216c-0.99242,-1.4864 -2.07166,-2.91836 -2.97725,-4.4592c-0.46025,-0.78311 -0.45538,-1.85721 -1.10699,-2.49005c-0.80284,-0.77971 -2.21164,-0.71014 -3.003,-1.5015c-0.79136,-0.79136 -0.71014,-2.21164 -1.5015,-3.003c-0.79136,-0.79136 -2.21164,-0.71014 -3.003,-1.5015c-0.79136,-0.79136 -0.71443,-2.20737 -1.5015,-3.003c-0.69598,-0.70355 -1.91201,-0.63854 -2.69701,-1.24116c-1.33467,-1.02459 -2.54474,-2.23466 -3.56933,-3.56933c-0.60262,-0.785 -0.53761,-2.00103 -1.24116,-2.69701c-0.79563,-0.78707 -2.21542,-0.70638 -3.003,-1.5015c-0.87938,-0.8878 -1.02458,-2.30006 -1.76184,-3.30899c-0.61241,-0.83808 -1.30399,-1.60886 -2.03358,-2.3474l-0.05935,0.11869l-2.95456,-1.47728c-0.3692,-0.17502 -0.68867,-0.43782 -0.93147,-0.76146c0.24886,2.26259 0.42365,4.51054 -0.07032,6.58306c-0.25947,1.08866 -1.21571,1.92096 -1.5015,3.003c-0.96721,3.66193 0.29117,8.78526 1.44009,12.14856c0,0 0.79057,2.37171 -1.58114,3.16228c-2.37171,0.79057 -3.16228,-1.58114 -3.16228,-1.58114c-1.42137,-4.35493 -2.68073,-10.18848 -1.56292,-14.87847c0.25947,-1.08866 1.21571,-1.92096 1.5015,-3.003c1.22692,-4.64524 -1.12696,-10.28668 0,-15.01502c0.25947,-1.08866 1.21571,-1.92096 1.5015,-3.003c0.46239,-1.75064 -0.06688,-3.62095 -0.06688,-5.43162c0,-5.00501 0,-10.01001 0,-15.01502c0,-1.21289 -0.08625,-6.67336 0.37337,-7.32033c2.55904,-3.60216 7.50626,-2.72406 11.13564,-2.68717c1.19261,0.01212 2.41973,-0.22 3.57739,0.06688c7.32871,1.81615 14.9257,9.89821 18.1782,16.3301c0.29201,0.57746 3.1213,6.20773 3.20006,6.54966c0.74021,3.21363 -0.47627,6.11778 -1.62493,9.0386c-0.42754,1.08716 -3.41058,6.7643 -3.99837,7.17592c-1.0254,0.71807 -2.53132,-0.0082 -3.74295,0.3065c-2.16642,0.56269 -3.98727,2.03619 -6.00601,3.003c-2.00165,0.03742 -4.07038,-0.51125 -6.00601,0c-0.92068,0.24317 -1.66054,0.97173 -2.53136,1.34346c0.6753,1.21212 1.27806,2.52965 2.22324,3.46466c0.79563,0.78707 2.21542,0.70638 3.003,1.5015c0.87938,0.8878 1.02458,2.30006 1.76184,3.30899c1.3995,1.91522 4.06039,2.52923 5.74567,4.19851c0.79512,0.78758 0.71014,2.21164 1.5015,3.003c0.79136,0.79136 2.21164,0.71014 3.003,1.5015c0.79136,0.79136 0.71014,2.21164 1.5015,3.003c0.79136,0.79136 2.22115,0.70075 3.003,1.5015c2.00819,2.05674 2.87316,4.98422 4.46576,7.37725l1.59602,1.68935c0,0 1.71017,1.82354 -0.11337,3.53372zM262.03418,193.15082c0.76284,-0.18182 4.84611,-0.03194 6.00601,0c1.0635,-0.56409 5.22989,-2.81704 6.00601,-3.003c0.74029,-0.17738 1.6085,0.69514 2.26306,0.3065c0.5953,-0.35346 0.31432,-1.355 0.57976,-1.99441c0.40645,-0.97907 1.02728,-1.8602 1.42787,-2.84168c0.44358,-1.08679 1.8634,-4.26134 1.37808,-5.97642c-2.00559,-7.08753 -8.82893,-14.62343 -15.20143,-17.85783c-3.02009,-1.53287 -4.51642,-1.19602 -7.89098,-1.23757c-1.29731,-0.01597 -3.2807,-0.83519 -3.87938,0.31583c-0.26602,0.51144 0.32764,1.11401 0.37337,1.68868c0.07941,0.99785 0,2.002 0,3.003c0,5.00501 0,10.01001 0,15.01502c0,0.65459 0.01871,6.22129 -0.06688,6.58039c-0.25947,1.08866 -1.21571,1.92096 -1.5015,3.003c-0.48874,1.8504 -0.40928,3.85888 -0.20798,5.90474c0.39212,-0.86777 1.26523,-1.47162 2.27937,-1.47162h3.003c1.87192,0.05155 3.61002,-1.00046 5.43162,-1.43462z" fill="#c43cb9" stroke="none" stroke-width="0.5" stroke-linecap="butt"/><path d="M349.69565,231.11698c-2.5,0 -2.5,-2.5 -2.5,-2.5v-1.5015c0,-1.81068 0.01704,-3.62163 0.06688,-5.43162c-2.40375,-4.80751 -1.56838,-10.27733 -1.56838,-15.5894c0,-8.00801 0,-16.01602 0,-24.02402c0,-4.38774 -0.42636,-8.57479 0.54024,-12.64429c-0.21605,0.02381 -0.4304,0.05567 -0.64278,0.097c-1.73636,0.33784 -3.31327,1.53471 -5.08218,1.52749c-1.24726,-0.00509 -2.19201,-1.25217 -3.40016,-1.56209c-2.86039,-0.73375 -6.30955,0.75716 -9.22236,-0.06047c-0.8057,-0.22616 -1.19485,-1.32109 -2.01201,-1.5015c-3.18557,-0.70329 -6.58382,0.6804 -9.78665,0.06047c-1.28692,-0.24909 -2.36444,-1.13237 -3.54665,-1.69856c0,0 -2.23607,-1.11803 -1.11803,-3.3541c1.11803,-2.23607 3.3541,-1.11803 3.3541,-1.11803c4.32729,2.29521 7.95241,0.37916 12.6727,1.36492c0.81917,0.17107 1.21617,1.2428 2.01201,1.5015c2.51279,0.81683 6.15197,-0.70514 8.79566,-0.06047c0.96431,0.23515 1.61329,1.44617 2.60584,1.44091c1.39828,-0.00741 2.5572,-1.19379 3.92683,-1.47551c1.28835,-0.26501 2.70667,-0.12153 4.1269,0.03581c0.49627,-0.17455 1.11923,-0.18483 1.86889,0.18238c0.9889,0.06571 1.95047,0.05117 2.83929,-0.18359c1.08205,-0.28579 1.90558,-1.28202 3.003,-1.5015c1.47234,-0.29447 3.02867,0.27645 4.5045,0c2.20004,-0.4121 3.98727,-2.03619 6.00601,-3.003l3.57739,-0.06688c0,0 2.5,0 2.5,2.5c0,2.5 -2.5,2.5 -2.5,2.5l-2.42862,-0.06688c-1.01424,0.53796 -5.29947,2.85395 -6.00601,3.003c-1.46916,0.30995 -3.03216,-0.29447 -4.5045,0c-1.09742,0.21948 -1.91434,1.24203 -3.003,1.5015c-1.12059,0.26708 -2.29599,0.25214 -3.48429,0.1633c-1.32996,3.82783 -0.59609,8.34047 -0.59609,12.4186c0,8.00801 0,16.01602 0,24.02402c0,4.99012 -0.81111,9.94917 1.43462,14.44063c0.041,2.19319 0.06688,4.38681 0.06688,6.58039v1.5015c0,0 0,2.5 -2.5,2.5z" fill="#c43cb9" stroke="none" stroke-width="0.5" stroke-linecap="butt"/><path d="M438.28424,158.54941c2.5,0 2.5,2.5 2.5,2.5l-0.06688,3.57739c-1.48307,3.0967 -3.35669,6.20336 -4.62793,9.39134c-2.16842,5.43789 -4.1885,12.2721 -7.7891,17.02158c-0.74388,0.98124 -2.16411,1.39993 -2.72141,2.49794c-0.39581,0.77983 0.33983,1.77335 0.12342,2.62068c-0.80036,3.13375 -3.24883,6.64721 -4.70156,9.55266c-2.8734,5.7468 -5.59925,11.42803 -9.16495,16.78523c0,0 -1.38675,2.08013 -3.46688,0.69338c-2.08013,-1.38675 -0.69338,-3.46688 -0.69338,-3.46688c3.45601,-5.17518 6.0739,-10.68946 8.85307,-16.2478c1.26005,-2.5201 3.64103,-5.73752 4.30745,-8.46536c0.26798,-1.09693 -0.37702,-2.37309 0.12342,-3.38533c0.70994,-1.436 2.32978,-2.22181 3.2846,-3.50807c0.12188,-0.16419 0.23758,-0.33216 0.34801,-0.50333c-0.92319,-0.10565 -1.58917,-0.77163 -1.58917,-0.77163l-0.85177,-1.0332c-1.21758,-0.6566 -2.66223,-1.00413 -3.65274,-1.9698c-0.89475,-0.87231 -1.01208,-2.30931 -1.76184,-3.30899c-1.51649,-2.02199 -3.29483,-3.90082 -5.3471,-5.37606c-0.71825,-0.51631 -1.76415,-0.43647 -2.47047,-0.96897c-3.59132,-2.70752 -6.04977,-6.91689 -9.63411,-9.60515c-0.99968,-0.74976 -2.42539,-0.87824 -3.30899,-1.76184c-0.8836,-0.8836 -1.01208,-2.30931 -1.76184,-3.30899c-0.76931,-1.02575 -1.82844,-1.79801 -2.74266,-2.69701c0,0 -1.76777,-1.76777 0,-3.53553c1.76777,-1.76777 3.53553,0 3.53553,0c1.08778,1.103 2.33385,2.06967 3.26334,3.30899c0.59378,0.79171 0.54139,1.99724 1.24116,2.69701c0.69978,0.69978 1.90531,0.64738 2.69701,1.24116c3.53591,2.65193 5.9203,6.84718 9.44897,9.47793c0.70917,0.52871 1.75656,0.44668 2.47047,0.96897c0.28398,0.20776 6.41475,6.3024 6.66491,6.63595c0.59378,0.79171 0.55448,1.98439 1.24116,2.69701c0.59445,0.6169 1.56885,0.6888 2.35327,1.0332l2.15123,1.9698c0,0 0.02553,0.02553 0.06739,0.07352c0.13831,-0.31212 0.28134,-0.6214 0.43328,-0.92529c3.13816,-6.27632 5.5142,-12.75842 8.81195,-18.97587l-0.06688,-2.42862c0,0 0,-2.5 2.5,-2.5z" fill="#c43cb9" stroke="none" stroke-width="0.5" stroke-linecap="butt"/><path d="M483.32929,199.58544c-2.5,0 -2.5,-2.5 -2.5,-2.5c0,-3.003 0,-9.00901 0,-12.01201c0,-1.81068 0.52927,-3.68098 0.06688,-5.43162c-0.28579,-1.08205 -1.24203,-1.91434 -1.5015,-3.003c-0.9012,-3.78113 0.97891,-8.30577 0,-12.01201c-0.28579,-1.08205 -1.28202,-1.90558 -1.5015,-3.003c-0.29447,-1.47234 0.27645,-3.02867 0,-4.5045c-0.17085,-0.9121 -0.86963,-1.63957 -1.30445,-2.45935c0,0 -1.11803,-2.23607 1.11803,-3.3541c2.23607,-1.11803 3.3541,1.11803 3.3541,1.11803c0.56619,1.18222 1.42797,2.26408 1.69856,3.54665c0.30995,1.46916 -0.29447,3.03216 0,4.5045c0.21948,1.09742 1.24203,1.91434 1.5015,3.003c0.9012,3.78113 -0.97891,8.30577 0,12.01201c0.28579,1.08205 1.24203,1.91434 1.5015,3.003c1.10214,4.62422 0.06688,10.82348 0.06688,15.5894v3.003c0,0 0,2.5 -2.5,2.5z" fill="#c43cb9" stroke="none" stroke-width="0.5" stroke-linecap="butt"/><path d="M531.37733,189.07493c-2.5,0 -2.5,-2.5 -2.5,-2.5c0,-4.004 0,-9.50951 0,-13.51351c0,-2.31115 0.65707,-4.6986 0.06688,-6.93313c-0.28579,-1.08205 -1.2883,-1.90435 -1.5015,-3.003c-0.47674,-2.45667 0.63906,-5.08798 0,-7.50751c-0.28579,-1.08205 -1.24203,-1.91434 -1.5015,-3.003c-0.88635,-3.71882 -0.06688,-8.75163 -0.06688,-12.58639c0,0 0,-2.5 2.5,-2.5c2.5,0 2.5,2.5 2.5,2.5c0,3.35592 -0.91672,8.22005 -0.06688,11.43763c0.28579,1.08205 1.24203,1.91434 1.5015,3.003c0.5802,2.43431 -0.50708,5.05692 0,7.50751c0.22677,1.09594 1.24203,1.91434 1.5015,3.003c0.62461,2.62065 0.06688,5.38783 0.06688,8.08189c0,4.004 0,8.00801 0,12.01201v1.5015c0,0 0,2.5 -2.5,2.5z" fill="#c43cb9" stroke="none" stroke-width="0.5" stroke-linecap="butt"/><path d="M529.16825,211.35271c0,-1.72589 1.39911,-3.125 3.125,-3.125c1.72589,0 3.125,1.39911 3.125,3.125c0,1.72589 -1.39911,3.125 -3.125,3.125c-1.72589,0 -3.125,-1.39911 -3.125,-3.125z" fill="#c43cb9" stroke="none" stroke-width="0.5" stroke-linecap="butt"/><path d="M482.50158,214.01938c0,-1.72589 1.39911,-3.125 3.125,-3.125c1.72589,0 3.125,1.39911 3.125,3.125c0,1.72589 -1.39911,3.125 -3.125,3.125c-1.72589,0 -3.125,-1.39911 -3.125,-3.125z" fill="#c43cb9" stroke="none" stroke-width="0.5" stroke-linecap="butt"/><path d="M25.36552,103.99235v-148.64865" fill="none" stroke="#ffffff" stroke-width="0.5" stroke-linecap="round"/><path d="M615.45561,102.49085l3.003,-172.67267" fill="none" stroke="#ffffff" stroke-width="0.5" stroke-linecap="round"/><g data-paper-data="{&quot;index&quot;:null}" fill="#000000" stroke="none" stroke-width="0" stroke-linecap="butt"><path d="M179.73843,351.13287v-34.57317h36.56504v34.57317z"/><path d="M143.11653,386.5597v-35.99593h36.56503v35.99593z"/><g><path d="M106.55147,351.13286v-34.57317h36.56504v34.57317z"/><path d="M69.92954,386.55968v-35.99593h36.56503v35.99593z"/></g><g><path d="M33.3645,351.13287v-34.57317h36.56504v34.57317z"/><path d="M-2.91597,386.5597v-35.99593h36.56503v35.99593z"/></g></g><g data-paper-data="{&quot;index&quot;:null}" fill="#000000" stroke="none" stroke-width="0" stroke-linecap="butt"><path d="M399.45314,351.62837v-34.57317h36.56504v34.57317z"/><path d="M362.83125,387.0552v-35.99592h36.56502v35.99593z"/><g><path d="M326.26619,351.62835v-34.57317h36.56504v34.57317z"/><path d="M289.64426,387.05518v-35.99593h36.56502v35.99593z"/></g><g><path d="M253.07921,351.62837v-34.57317h36.56504v34.57317z"/><path d="M216.79875,387.0552v-35.99592h36.56502v35.99593z"/></g></g><g data-paper-data="{&quot;index&quot;:null}" fill="#000000" stroke="none" stroke-width="0" stroke-linecap="butt"><path d="M618.16786,351.62236v-34.57317h36.56504v34.57317z"/><path d="M581.54596,387.04919v-35.99592h36.56503v35.99593z"/><g><path d="M544.9809,351.62234v-34.57317h36.56504v34.57317z"/><path d="M508.35897,387.04917v-35.99593h36.56503v35.99593z"/></g><g><path d="M471.79393,351.62236v-34.57317h36.56504v34.57317z"/><path d="M435.51346,387.04919v-35.99592h36.56502v35.99593z"/></g></g><path d="M-36.60661,404.47448v-448.94895h713.21321v448.94895z" fill="url(#color-5)" stroke="none" stroke-width="0" stroke-linecap="butt"/></g></g></svg>