<svg version="1.1" xmlns="http://www.w3.org/2000/svg" xmlns:xlink="http://www.w3.org/1999/xlink" width="713.21321" height="503" viewBox="0,0,713.21321,503"><defs><linearGradient x1="324.06068" y1="166.35785" x2="324.06068" y2="412.6041" gradientUnits="userSpaceOnUse" id="color-1"><stop offset="0" stop-color="#585858"/><stop offset="1" stop-color="#333333"/></linearGradient><radialGradient cx="462.21066" cy="202.71788" r="49.07899" gradientUnits="userSpaceOnUse" id="color-2"><stop offset="0" stop-color="#ff4040"/><stop offset="1" stop-color="#ff0000"/></radialGradient><radialGradient cx="534.21066" cy="240.71788" r="49.07899" gradientUnits="userSpaceOnUse" id="color-3"><stop offset="0" stop-color="#64ff40"/><stop offset="1" stop-color="#42ff00"/></radialGradient></defs><g transform="translate(36.60659,70.25711)"><g data-paper-data="{&quot;isPaintingLayer&quot;:true}" fill-rule="nonzero" stroke-linejoin="miter" stroke-miterlimit="10" stroke-dasharray="" stroke-dashoffset="0" style="mix-blend-mode: normal"><path d="M-26.53986,412.6041v-246.24624h701.2012v246.24624z" data-paper-data="{&quot;index&quot;:null}" fill="url(#color-1)" stroke="none" stroke-width="0" stroke-linecap="butt"/><path d="M195.89135,173.74289l-203,52l-8,-272l210,6z" data-paper-data="{&quot;index&quot;:null}" fill="#6f6f6f" stroke="#000000" stroke-width="0" stroke-linecap="round"/><path d="M645.89136,-14.2571c0,0 6.14207,304.3552 -0.84731,386.57235c-4.22025,49.64337 -37.15269,60.42764 -37.15269,60.42764l-413,-259l-2,-244l453,56z" data-paper-data="{&quot;index&quot;:null}" fill="#666666" stroke="#000000" stroke-width="0" stroke-linecap="round"/><path d="M417.91421,198.12978l-123.17453,-68.45551l-0.75223,-35.77222l125.32664,65.51165z" data-paper-data="{&quot;index&quot;:null}" fill="#ffffff" stroke="#000000" stroke-width="0" stroke-linecap="round"/><text transform="translate(295.01864,124.90168) rotate(27.50986) scale(0.46622,0.75332) skewX(29.6468)" font-size="40" xml:space="preserve" fill="#000000" fill-rule="nonzero" stroke="none" stroke-width="1" stroke-linecap="butt" stroke-linejoin="miter" stroke-miterlimit="10" stroke-dasharray="" stroke-dashoffset="0" font-family="Serif" font-weight="normal" text-anchor="start" style="mix-blend-mode: normal"><tspan x="0" dy="0">OFFICE POWER</tspan></text><path d="M45.12276,212.45526l-3.73141,-103.2555l105.69156,-21.30104l0.46152,98.76583z" data-paper-data="{&quot;index&quot;:null}" fill="#2d2d2d" stroke="#000000" stroke-width="0" stroke-linecap="round"/><path d="M494.39937,265.29714l-64.84185,-35.00578l-0.4503,-90.65245l68.5402,35.82783z" data-paper-data="{&quot;index&quot;:null}" fill="#323232" stroke="#000000" stroke-width="0" stroke-linecap="round"/><path d="M486.44354,251.79687l-50.65123,-27.34478l-0.35175,-70.8132l53.5402,27.98692z" data-paper-data="{&quot;index&quot;:null}" fill="url(#color-2)" stroke="#000000" stroke-width="0" stroke-linecap="round"/><text transform="translate(438.24952,208.42836) rotate(22.02819) scale(0.63384,1.02418) skewX(29.64649)" font-size="40" xml:space="preserve" fill="#ffffff" fill-rule="nonzero" stroke="none" stroke-width="1" stroke-linecap="butt" stroke-linejoin="miter" stroke-miterlimit="10" stroke-dasharray="" stroke-dashoffset="0" font-family="Serif" font-weight="normal" text-anchor="start" style="mix-blend-mode: normal"><tspan x="0" dy="0">OFF</tspan></text><g><path d="M566.39937,303.29714l-64.84185,-35.00578l-0.4503,-90.65245l68.5402,35.82783z" data-paper-data="{&quot;index&quot;:null}" fill="#323232" stroke="#000000" stroke-width="0" stroke-linecap="round"/><path d="M558.44353,289.79687l-50.65123,-27.34478l-0.35175,-70.8132l53.5402,27.98692z" data-paper-data="{&quot;index&quot;:null}" fill="url(#color-3)" stroke="#000000" stroke-width="0" stroke-linecap="round"/><text transform="translate(513.24952,247.42836) rotate(22.02819) scale(0.63384,1.02418) skewX(29.64649)" font-size="40" xml:space="preserve" fill="#ffffff" fill-rule="nonzero" stroke="none" stroke-width="1" stroke-linecap="butt" stroke-linejoin="miter" stroke-miterlimit="10" stroke-dasharray="" stroke-dashoffset="0" font-family="Serif" font-weight="normal" text-anchor="start" style="mix-blend-mode: normal"><tspan x="0" dy="0">ON</tspan></text></g><path d="M140.5862,189.14511l-88.21827,21.59778l-3.47658,-96.20379l91.26028,-18.39257z" data-paper-data="{&quot;index&quot;:null}" fill="#000000" stroke="#000000" stroke-width="0" stroke-linecap="round"/><path d="M-36.60659,424.91393v-489.82786h713.21321v489.82786z" data-paper-data="{&quot;index&quot;:null}" fill-opacity="0.61961" fill="#000000" stroke="none" stroke-width="0" stroke-linecap="butt"/></g></g></svg>