<svg version="1.1" xmlns="http://www.w3.org/2000/svg" xmlns:xlink="http://www.w3.org/1999/xlink" width="231.74525" height="234.36673" viewBox="0,0,231.74525,234.36673"><defs><linearGradient x1="240.54283" y1="250.68684" x2="228.90611" y2="243.52858" gradientUnits="userSpaceOnUse" id="color-1"><stop offset="0" stop-color="#000000"/><stop offset="1" stop-color="#2d2d2d"/></linearGradient><linearGradient x1="270.34225" y1="192.48256" x2="295.70837" y2="198.67974" gradientUnits="userSpaceOnUse" id="color-2"><stop offset="0" stop-color="#246980"/><stop offset="1" stop-color="#003763"/></linearGradient><linearGradient x1="210.09194" y1="271.01685" x2="222.99446" y2="274.16905" gradientUnits="userSpaceOnUse" id="color-3"><stop offset="0" stop-color="#1a4c5d"/><stop offset="1" stop-color="#003763"/></linearGradient><linearGradient x1="212.41339" y1="275.59398" x2="224.50903" y2="278.54905" gradientUnits="userSpaceOnUse" id="color-4"><stop offset="0" stop-color="#1a4c5d"/><stop offset="1" stop-color="#003763"/></linearGradient><linearGradient x1="220.15685" y1="278.15317" x2="230.08915" y2="280.57973" gradientUnits="userSpaceOnUse" id="color-5"><stop offset="0" stop-color="#1a4c5d"/><stop offset="1" stop-color="#003763"/></linearGradient><linearGradient x1="217.09093" y1="254.19805" x2="241.30549" y2="260.11389" gradientUnits="userSpaceOnUse" id="color-6"><stop offset="0" stop-color="#1a4c5d"/><stop offset="1" stop-color="#003763"/></linearGradient><linearGradient x1="229.36151" y1="265.25278" x2="243.50926" y2="268.70921" gradientUnits="userSpaceOnUse" id="color-7"><stop offset="0" stop-color="#1a4c5d"/><stop offset="1" stop-color="#003763"/></linearGradient><linearGradient x1="291.15011" y1="184.64202" x2="286.48546" y2="203.73521" gradientUnits="userSpaceOnUse" id="color-8"><stop offset="0" stop-color="#2b2b2b"/><stop offset="1" stop-color="#000000"/></linearGradient><linearGradient x1="234.80111" y1="208.53316" x2="289.35212" y2="221.86047" gradientUnits="userSpaceOnUse" id="color-9"><stop offset="0" stop-color="#1a4c5d"/><stop offset="1" stop-color="#003763"/></linearGradient><linearGradient x1="405.75997" y1="239.34792" x2="416.58774" y2="231.01644" gradientUnits="userSpaceOnUse" id="color-10"><stop offset="0" stop-color="#000000"/><stop offset="1" stop-color="#2d2d2d"/></linearGradient><linearGradient x1="345.47715" y1="193.37012" x2="370.05975" y2="184.56437" gradientUnits="userSpaceOnUse" id="color-11"><stop offset="0" stop-color="#246980"/><stop offset="1" stop-color="#003763"/></linearGradient><linearGradient x1="425.65893" y1="260.87444" x2="438.16291" y2="256.39538" gradientUnits="userSpaceOnUse" id="color-12"><stop offset="0" stop-color="#1a4c5d"/><stop offset="1" stop-color="#003763"/></linearGradient><linearGradient x1="424.60884" y1="265.38837" x2="436.33085" y2="261.18942" gradientUnits="userSpaceOnUse" id="color-13"><stop offset="0" stop-color="#1a4c5d"/><stop offset="1" stop-color="#003763"/></linearGradient><linearGradient x1="419.27061" y1="267.98928" x2="428.89611" y2="264.54132" gradientUnits="userSpaceOnUse" id="color-14"><stop offset="0" stop-color="#1a4c5d"/><stop offset="1" stop-color="#003763"/></linearGradient><linearGradient x1="405.98343" y1="248.80313" x2="429.45004" y2="240.39713" gradientUnits="userSpaceOnUse" id="color-15"><stop offset="0" stop-color="#1a4c5d"/><stop offset="1" stop-color="#003763"/></linearGradient><linearGradient x1="404.687" y1="257.58126" x2="418.39775" y2="252.66992" gradientUnits="userSpaceOnUse" id="color-16"><stop offset="0" stop-color="#1a4c5d"/><stop offset="1" stop-color="#003763"/></linearGradient><linearGradient x1="348.54837" y1="178.93395" x2="355.17649" y2="197.43737" gradientUnits="userSpaceOnUse" id="color-17"><stop offset="0" stop-color="#2b2b2b"/><stop offset="1" stop-color="#000000"/></linearGradient><linearGradient x1="354.21347" y1="215.76265" x2="407.07946" y2="196.82548" gradientUnits="userSpaceOnUse" id="color-18"><stop offset="0" stop-color="#1a4c5d"/><stop offset="1" stop-color="#003763"/></linearGradient><linearGradient x1="279.37818" y1="224.18868" x2="364.92667" y2="224.18868" gradientUnits="userSpaceOnUse" id="color-19"><stop offset="0" stop-color="#1a4c5d"/><stop offset="1" stop-color="#003763"/></linearGradient><linearGradient x1="321.69284" y1="195.52098" x2="321.69284" y2="271.79862" gradientUnits="userSpaceOnUse" id="color-20"><stop offset="0" stop-color="#abbac0"/><stop offset="1" stop-color="#678388"/></linearGradient><linearGradient x1="328.81492" y1="189.99336" x2="327.91399" y2="205.69189" gradientUnits="userSpaceOnUse" id="color-21"><stop offset="0" stop-color="#f43c1f"/><stop offset="1" stop-color="#7c1518"/></linearGradient><linearGradient x1="310.02639" y1="190.27561" x2="311.46705" y2="205.93896" gradientUnits="userSpaceOnUse" id="color-22"><stop offset="0" stop-color="#f43c1f"/><stop offset="1" stop-color="#7c1518"/></linearGradient><linearGradient x1="319.28073" y1="194.49173" x2="320.22745" y2="204.78478" gradientUnits="userSpaceOnUse" id="color-23"><stop offset="0" stop-color="#f43c1f"/><stop offset="1" stop-color="#7c1518"/></linearGradient><radialGradient cx="320.41204" cy="220.2192" r="3.375" gradientUnits="userSpaceOnUse" id="color-24"><stop offset="0" stop-color="#1a1a1a"/><stop offset="1" stop-color="#000000"/></radialGradient><linearGradient x1="349.87138" y1="172.9692" x2="349.87138" y2="276.7192" gradientUnits="userSpaceOnUse" id="color-25"><stop offset="0" stop-color="#23222c"/><stop offset="1" stop-color="#000003"/></linearGradient><linearGradient x1="293.87138" y1="175.7192" x2="293.87138" y2="279.4692" gradientUnits="userSpaceOnUse" id="color-26"><stop offset="0" stop-color="#23222c"/><stop offset="1" stop-color="#000003"/></linearGradient><linearGradient x1="290.72994" y1="165.65726" x2="355.46357" y2="171.08775" gradientUnits="userSpaceOnUse" id="color-27"><stop offset="0" stop-color="#1a4c5d"/><stop offset="1" stop-color="#003763"/></linearGradient><linearGradient x1="324.81307" y1="184.35018" x2="324.40768" y2="189.18256" gradientUnits="userSpaceOnUse" id="color-28"><stop offset="0" stop-color="#d6e1d3"/><stop offset="1" stop-color="#3b4737"/></linearGradient><linearGradient x1="330.428" y1="182.71253" x2="329.97298" y2="188.13664" gradientUnits="userSpaceOnUse" id="color-29"><stop offset="0" stop-color="#d6e1d3"/><stop offset="1" stop-color="#3b4737"/></linearGradient><linearGradient x1="344.54339" y1="176.86752" x2="344.04132" y2="182.85237" gradientUnits="userSpaceOnUse" id="color-30"><stop offset="0" stop-color="#d6e1d3"/><stop offset="1" stop-color="#3b4737"/></linearGradient><linearGradient x1="335.51303" y1="180.97296" x2="334.9896" y2="187.21243" gradientUnits="userSpaceOnUse" id="color-31"><stop offset="0" stop-color="#d6e1d3"/><stop offset="1" stop-color="#3b4737"/></linearGradient><linearGradient x1="340.53648" y1="179.29087" x2="340.03512" y2="185.26734" gradientUnits="userSpaceOnUse" id="color-32"><stop offset="0" stop-color="#d6e1d3"/><stop offset="1" stop-color="#3b4737"/></linearGradient><linearGradient x1="319.22529" y1="185.1955" x2="318.84642" y2="189.71185" gradientUnits="userSpaceOnUse" id="color-33"><stop offset="0" stop-color="#d6e1d3"/><stop offset="1" stop-color="#3b4737"/></linearGradient><linearGradient x1="314.12813" y1="184.46499" x2="313.71588" y2="189.37914" gradientUnits="userSpaceOnUse" id="color-34"><stop offset="0" stop-color="#d6e1d3"/><stop offset="1" stop-color="#3b4737"/></linearGradient><linearGradient x1="309.40466" y1="183.41029" x2="308.99242" y2="188.32445" gradientUnits="userSpaceOnUse" id="color-35"><stop offset="0" stop-color="#d6e1d3"/><stop offset="1" stop-color="#3b4737"/></linearGradient><linearGradient x1="305.16683" y1="182.28366" x2="304.82938" y2="186.30621" gradientUnits="userSpaceOnUse" id="color-36"><stop offset="0" stop-color="#d6e1d3"/><stop offset="1" stop-color="#3b4737"/></linearGradient><linearGradient x1="348.45991" y1="173.39234" x2="348.05464" y2="178.22335" gradientUnits="userSpaceOnUse" id="color-37"><stop offset="0" stop-color="#d6e1d3"/><stop offset="1" stop-color="#3b4737"/></linearGradient><linearGradient x1="328.61843" y1="173.13831" x2="326.79239" y2="202.04036" gradientUnits="userSpaceOnUse" id="color-38"><stop offset="0" stop-color="#a4b4ba"/><stop offset="1" stop-color="#7e969b"/></linearGradient><linearGradient x1="328.95205" y1="162.09329" x2="328.09936" y2="172.25759" gradientUnits="userSpaceOnUse" id="color-39"><stop offset="0" stop-color="#3b4737"/><stop offset="1" stop-color="#d6e1d3"/></linearGradient><radialGradient cx="294.79026" cy="107.06609" r="4.70833" gradientUnits="userSpaceOnUse" id="color-40"><stop offset="0" stop-color="#888888"/><stop offset="1" stop-color="#474747"/></radialGradient><radialGradient cx="323.82028" cy="100.0309" r="4.70834" gradientUnits="userSpaceOnUse" id="color-41"><stop offset="0" stop-color="#888888"/><stop offset="1" stop-color="#525252"/></radialGradient><linearGradient x1="282.71625" y1="133.53369" x2="356.65422" y2="139.73633" gradientUnits="userSpaceOnUse" id="color-42"><stop offset="0" stop-color="#1a4c5d"/><stop offset="1" stop-color="#003763"/></linearGradient><radialGradient cx="328.55893" cy="139.4968" r="5.90909" gradientUnits="userSpaceOnUse" id="color-43"><stop offset="0" stop-color="#e1e5ce"/><stop offset="1" stop-color="#869474"/></radialGradient><radialGradient cx="328.58849" cy="139.40027" r="3.17647" gradientUnits="userSpaceOnUse" id="color-44"><stop offset="0" stop-color="#f2337a"/><stop offset="1" stop-color="#820026"/></radialGradient><linearGradient x1="328.85403" y1="136.23491" x2="328.32295" y2="142.56561" gradientUnits="userSpaceOnUse" id="color-45"><stop offset="0" stop-color="#000000" stop-opacity="0"/><stop offset="1" stop-color="#000000"/></linearGradient><linearGradient x1="329.70457" y1="136.34592" x2="330.02352" y2="139.07204" gradientUnits="userSpaceOnUse" id="color-46"><stop offset="0" stop-color="#e1e5ce"/><stop offset="1" stop-color="#869474"/></linearGradient><radialGradient cx="306.76642" cy="144.47579" r="5.90909" gradientUnits="userSpaceOnUse" id="color-47"><stop offset="0" stop-color="#e1e5ce"/><stop offset="1" stop-color="#869474"/></radialGradient><radialGradient cx="306.79599" cy="144.37927" r="3.17647" gradientUnits="userSpaceOnUse" id="color-48"><stop offset="0" stop-color="#f2337a"/><stop offset="1" stop-color="#820026"/></radialGradient><linearGradient x1="307.06153" y1="141.21391" x2="306.53045" y2="147.54461" gradientUnits="userSpaceOnUse" id="color-49"><stop offset="0" stop-color="#000000" stop-opacity="0"/><stop offset="1" stop-color="#000000"/></linearGradient><linearGradient x1="307.91207" y1="141.32492" x2="308.23102" y2="144.05104" gradientUnits="userSpaceOnUse" id="color-50"><stop offset="0" stop-color="#e1e5ce"/><stop offset="1" stop-color="#869474"/></linearGradient><linearGradient x1="310.00027" y1="77.22531" x2="337.30515" y2="79.51591" gradientUnits="userSpaceOnUse" id="color-51"><stop offset="0" stop-color="#1a4c5d"/><stop offset="1" stop-color="#003763"/></linearGradient><linearGradient x1="326.01009" y1="68.77753" x2="323.51134" y2="98.56355" gradientUnits="userSpaceOnUse" id="color-52"><stop offset="0" stop-color="#a6b6bb"/><stop offset="1" stop-color="#759095"/></linearGradient><linearGradient x1="258.8339" y1="89.13609" x2="301.28692" y2="92.69746" gradientUnits="userSpaceOnUse" id="color-53"><stop offset="0" stop-color="#1a4c5d"/><stop offset="1" stop-color="#003763"/></linearGradient><linearGradient x1="291.61669" y1="87.23482" x2="290.14321" y2="104.79937" gradientUnits="userSpaceOnUse" id="color-54"><stop offset="0" stop-color="#a3b4b9"/><stop offset="1" stop-color="#799398"/></linearGradient><linearGradient x1="258.65503" y1="87.81774" x2="289.67024" y2="90.4196" gradientUnits="userSpaceOnUse" id="color-55"><stop offset="0" stop-color="#1a4c5d"/><stop offset="1" stop-color="#003763"/></linearGradient><linearGradient x1="319.2947" y1="164.53576" x2="318.59807" y2="172.83992" gradientUnits="userSpaceOnUse" id="color-56"><stop offset="0" stop-color="#3b4737"/><stop offset="1" stop-color="#d6e1d3"/></linearGradient><linearGradient x1="321.92754" y1="146.9978" x2="319.70409" y2="173.50223" gradientUnits="userSpaceOnUse" id="color-57"><stop offset="0" stop-color="#abbac0"/><stop offset="1" stop-color="#678388"/></linearGradient><radialGradient cx="319.25624" cy="152.82283" r="7.77812" gradientUnits="userSpaceOnUse" id="color-58"><stop offset="0" stop-color="#1d1d1d"/><stop offset="1" stop-color="#000000"/></radialGradient></defs><g transform="translate(-208.65262,-56.43191)"><g data-paper-data="{&quot;isPaintingLayer&quot;:true}" fill-rule="nonzero" stroke-linejoin="miter" stroke-miterlimit="10" stroke-dasharray="" stroke-dashoffset="0" style="mix-blend-mode: normal"><g data-paper-data="{&quot;index&quot;:null}"><path d="M224.06626,253.01316l9.6797,-18.96917l11.63671,7.15826l-9.67969,18.96917z" fill="url(#color-1)" stroke="none" stroke-width="0" stroke-linecap="butt"/><path d="M276.37482,180.04782c0,0 9.86675,-0.19279 16.90172,10.49287c5.22839,7.94161 -0.72391,17.13596 -0.72391,17.13596l-25.49798,-1.73741z" fill="url(#color-2)" stroke="#000000" stroke-width="0" stroke-linecap="round"/><g stroke-width="0"><path d="M219.33004,277.30258c0,0 -3.57615,7.27846 -8.25984,5.3877c-4.14991,-1.6753 -1.69861,-8.51766 -1.69861,-8.51766l7.44027,-12.99676l8.64024,2.93362l-6.12206,13.19308z" fill="url(#color-3)" stroke="#000000" stroke-linecap="round"/><path d="M221.71604,281.52609c0,0 -3.15989,7.46859 -7.94277,5.84506c-4.23781,-1.43854 -2.17638,-8.40829 -2.17638,-8.40829l6.69529,-13.39575l8.79197,2.44155l-5.36809,13.51742z" fill="url(#color-4)" stroke="#000000" stroke-linecap="round"/><path d="M229.39993,283.35628c0,0 -1.48236,7.9729 -6.50231,7.41433c-4.44787,-0.49495 -3.9312,-7.74478 -3.9312,-7.74478l3.66246,-14.52101l9.11116,0.49658l-2.3401,14.35482z" fill="url(#color-5)" stroke="#000000" stroke-linecap="round"/><g><path d="M227.85118,272.07795c-0.8127,-0.03062 -4.41344,-2.73952 -7.68334,-5.00371c-5.48592,-3.79865 -4.76988,-2.0651 -4.60947,-5.49586c0.31314,-6.69687 7.22411,-19.98602 12.8712,-19.77326c5.10894,0.19249 14.53601,10.23587 14.50618,10.87407c-0.31312,6.69687 -9.43747,19.61152 -15.08457,19.39876z" fill="url(#color-6)" stroke="none" stroke-linecap="butt"/><path d="M243.49666,262.55547c0.55695,2.3448 -1.82824,5.89858 -1.82824,5.89858c0,0 2.09325,2.30442 0.41266,5.23899c-1.68058,2.93456 -1.9541,7.79176 -6.61702,5.59476c-2.66855,-1.25733 -2.88911,-3.77339 -2.429,-6.00626c0.33211,-1.61163 1.93905,-3.74404 1.93905,-3.74404c0,0 -5.9517,-3.94979 -4.39455,-9.24009c1.14213,-3.88033 3.94252,-6.2599 7.84166,-5.5145c3.89914,0.7454 4.51851,5.42776 5.07546,7.77256z" fill="url(#color-7)" stroke="#000000" stroke-linecap="round"/></g></g><path d="M275.97582,181.70304c0,0 9.15448,-0.17888 15.6816,9.73541c4.85096,7.36831 -0.67165,15.89892 -0.67165,15.89892l-23.6573,-1.61198z" fill="#020608" stroke="#000000" stroke-width="0" stroke-linecap="round"/><path d="M279.67307,199.08023c0.32256,-0.77528 1.00941,-1.32248 1.80474,-1.48624l1.04474,-0.23806c3.29582,-1.02242 7.67377,-0.97888 11.89861,-0.45937c-1.63016,-0.49066 -3.47006,-0.78271 -4.21861,-0.96355c-5.16175,-1.24703 -7.71396,1.99238 -12.43695,2.15161c-0.25726,0.00868 -0.47129,-0.0228 -0.65312,-0.08821c-0.00243,-0.0006 -0.00486,-0.00118 -0.00729,-0.00178c-1.34126,-0.32769 -2.16293,-1.68063 -1.83525,-3.0219c0.05136,-0.21024 0.12791,-0.40771 0.22565,-0.58999c-0.03375,-1.26647 4.57992,-2.35897 5.53631,-2.72486c5.57207,-2.1317 11.34879,-0.39465 17.06687,1.40032c0.16251,0.05102 0.45735,0.15556 0.82094,0.29348c-0.72379,-0.82189 -1.38501,-1.75925 -1.93828,-2.29729c-0.80331,-0.78116 -4.34233,-1.06183 -5.78653,-1.39855c-2.36743,-0.55196 -6.2426,-1.3202 -8.70151,-0.86769c-2.74649,0.50544 -6.45806,3.34347 -9.30562,1.76737c-0.09566,-0.05294 -0.17993,-0.11619 -0.25464,-0.18805c-0.61573,-0.59224 -0.58309,-1.77031 -0.93569,-2.59945l1.14781,-1.55369c0.4058,-0.71907 5.74645,-1.06712 6.63668,-1.72939c2.20824,-1.64276 6.88901,-0.35072 9.2063,0.17101c4.5214,1.01799 15.16303,0.96885 14.94369,8.16885c-0.02587,0.8491 -0.94665,1.629 -1.85365,1.95215c0.22978,0.14127 0.39337,0.26922 0.45636,0.37294c0.91527,1.50707 1.0075,2.45301 0.15251,3.34618c0.34203,0.09035 0.67368,0.18132 0.99369,0.27229c2.6626,0.75693 2.14236,3.61097 0.1018,4.85023c-2.34233,1.42254 -6.14917,-1.64638 -8.94144,-1.70224c-2.57668,-0.05154 -11.9593,1.01901 -13.59356,0.53772c-2.69145,-0.79263 -2.46786,-2.23716 -1.57457,-3.37386z" fill="url(#color-8)" stroke="none" stroke-width="0.5" stroke-linecap="butt"/><path d="M276.56314,179.82427c0,0 -2.14681,4.67664 3.36209,13.8606c5.00457,8.34316 12.93936,13.79845 12.93936,13.79845c0,0 -6.32137,5.63876 -10.91744,8.45041c-7.35834,4.50146 -19.89764,7.28587 -19.89764,7.28587c0,0 -0.96814,1.94458 -1.77835,3.06553c-0.81021,1.12095 -17.19296,23.18194 -17.19296,23.18194c0,0 -3.65444,-4.33595 -6.77465,-5.97863c-3.12022,-1.64268 -9.27826,-2.47264 -9.27826,-2.47264c0,0 0.13524,-2.02694 0.75946,-3.10858c0.62421,-1.08164 5.266,-8.56567 7.95848,-13.47396c2.69248,-4.90829 4.19381,-10.86572 9.02211,-16.1422c4.8283,-5.27649 31.79781,-28.46677 31.79781,-28.46677z" fill="url(#color-9)" stroke="#000000" stroke-width="0" stroke-linecap="round"/></g><g><path d="M411.56145,248.27676l-11.60297,-17.85767l10.82777,-8.33147l11.60297,17.85767z" fill="url(#color-10)" stroke="none" stroke-width="0" stroke-linecap="butt"/><path d="M374.73119,197.60539l-25.17829,4.38398c0,0 -6.87765,-8.52431 -2.50495,-16.96733c5.88362,-11.36034 15.71677,-12.19638 15.71677,-12.19638z" fill="url(#color-11)" stroke="#000000" stroke-width="0" stroke-linecap="round"/><g stroke-width="0"><path d="M429.6298,263.60919l-7.46302,-12.48361l8.28767,-3.81767l8.75361,12.15102c0,0 3.15071,6.5498 -0.80212,8.64826c-4.46125,2.36834 -8.77612,-4.498 -8.77612,-4.498z" fill="url(#color-12)" stroke="#000000" stroke-linecap="round"/><path d="M427.69673,268.05826l-6.74695,-12.88471l8.48981,-3.34409l8.05424,12.62545c0,0 2.77624,6.71711 -1.28867,8.58925c-4.58775,2.11291 -8.50842,-4.98589 -8.50842,-4.98589z" fill="url(#color-13)" stroke="#000000" stroke-linecap="round"/><path d="M420.2453,270.6789l-3.82266,-14.03298l9.00986,-1.44296l5.15513,14.0605c0,0 1.26904,7.15657 -3.10307,8.11214c-4.93446,1.07845 -7.23926,-6.69669 -7.23926,-6.69669z" fill="url(#color-14)" stroke="#000000" stroke-linecap="round"/><g><path d="M403.5876,241.57869c-0.09616,-0.63162 8.23346,-11.60235 13.29455,-12.32597c5.5942,-0.79984 13.85188,11.69714 14.86088,18.32496c0.51691,3.39538 1.04848,1.59668 -4.01191,5.94611c-3.01625,2.5925 -6.31524,5.66172 -7.12033,5.77683c-5.59422,0.79984 -16.01419,-11.09411 -17.02319,-17.72193z" fill="url(#color-15)" stroke="none" stroke-linecap="butt"/><path d="M408.29672,243.20071c3.80028,-1.1475 6.8333,0.9274 8.37342,4.66766c2.09974,5.09931 -3.40814,9.64759 -3.40814,9.64759c0,0 1.82033,1.95342 2.31851,3.52169c0.6902,2.1728 0.73292,4.69815 -1.79014,6.22661c-4.4087,2.67077 -5.18669,-2.13151 -7.16381,-4.87505c-1.97713,-2.74354 -0.13531,-5.25347 -0.13531,-5.25347c0,0 -2.74239,-3.286 -2.43273,-5.67606c0.30966,-2.39006 0.43792,-7.11147 4.2382,-8.25897z" fill="url(#color-16)" stroke="#000000" stroke-linecap="round"/></g></g><path d="M374.43658,197.42122l-23.36068,4.06751c0,0 -6.38115,-7.90893 -2.32411,-15.74247c5.45887,-10.54025 14.58218,-11.31593 14.58218,-11.31593z" fill="#020608" stroke="#000000" stroke-width="0" stroke-linecap="round"/><path d="M360.25239,195.6176c-1.57524,0.64891 -11.01833,0.56154 -13.57563,0.88119c-2.77125,0.3464 -6.23771,3.79518 -8.71548,2.62437c-2.15854,-1.01997 -2.97325,-3.80429 -0.40398,-4.83446c0.30881,-0.12382 0.62917,-0.24883 0.95992,-0.37432c-0.94338,-0.79925 -0.95018,-1.74965 -0.19688,-3.34386c0.05185,-0.10972 0.20122,-0.25402 0.41503,-0.41845c-0.93572,-0.22692 -1.93273,-0.90666 -2.04691,-1.74844c-0.96815,-7.13798 9.62072,-8.19761 14.01148,-9.68104c2.25034,-0.76028 6.77107,-2.53288 9.13842,-1.12907c0.95437,0.56593 6.30222,0.35578 6.78071,1.02866l1.3034,1.42567c-0.2643,0.86137 -0.10912,2.0296 -0.65983,2.68277c-0.06682,0.07926 -0.14404,0.15093 -0.23366,0.21355c-2.66791,1.86415 -6.6549,-0.57182 -9.4391,-0.78842c-2.49267,-0.19392 -6.26674,0.9738 -8.56379,1.76937c-1.40127,0.48532 -4.89182,1.13311 -5.60937,1.9937c-0.49423,0.59274 -1.05419,1.59389 -1.68843,2.4867c0.34726,-0.17504 0.62958,-0.30973 0.78589,-0.3774c5.5,-2.38082 11.06434,-4.71018 16.82815,-3.17048c0.9893,0.26427 5.69166,0.87024 5.79003,2.13333c0.11621,0.17111 0.21291,0.35953 0.2859,0.56328c0.46562,1.29983 -0.21066,2.73101 -1.51049,3.19663c-0.00236,0.00084 -0.00472,0.00168 -0.00707,0.00252c-0.17402,0.084 -0.38362,0.1376 -0.64038,0.15577c-4.71389,0.33361 -7.58965,-2.62233 -12.59341,-0.8444c-0.72564,0.25783 -2.52511,0.73994 -4.09529,1.39775c4.14774,-0.95676 8.49733,-1.4561 11.88171,-0.78255l1.06385,0.12793c0.80806,0.08002 1.54817,0.5527 1.94973,1.29016c1.00684,1.03746 1.3797,2.45084 -1.21455,3.51952z" fill="url(#color-17)" stroke="none" stroke-width="0.5" stroke-linecap="butt"/><path d="M362.55412,172.62296c0,0 29.23844,20.25482 34.5901,24.99966c5.35168,4.74483 7.46538,10.51347 10.6545,15.11459c3.18912,4.60112 8.58522,11.56093 9.31872,12.57166c0.73348,1.01074 1.07913,3.01255 1.07913,3.01255c0,0 -6.03808,1.46691 -8.97021,3.42568c-2.93214,1.95876 -6.11503,6.6518 -6.11503,6.6518c0,0 -18.59163,-20.23445 -19.5142,-21.2649c-0.92257,-1.03045 -2.088,-2.86361 -2.088,-2.86361c0,0 -12.76112,-1.4631 -20.54834,-5.17358c-4.86395,-2.3176 -11.7383,-7.2672 -11.7383,-7.2672c0,0 7.32339,-6.25215 11.43165,-15.07123c4.52227,-9.70783 1.9,-14.13541 1.9,-14.13541z" fill="url(#color-18)" stroke="#000000" stroke-width="0" stroke-linecap="round"/></g><g stroke="none" stroke-linecap="butt"><path d="M362.44797,258.56459c-7.00798,4.23806 -16.0509,16.8364 -38.93091,16.81442c-27.14677,-0.02608 -34.54978,-7.22611 -41.67197,-12.10457c-2.51054,-1.71964 -3.38193,-11.15897 -1.3024,-22.20521c1.5722,-8.35136 5.68793,-16.85008 7.18551,-28.01028c0.70205,-5.23178 -1.95701,-27.61223 -2.49461,-34.65652c-0.68052,-5.30496 12.82486,-1.85519 15.86934,-2.54159c6.37106,-3.21552 23.99734,-1.11644 29.83447,-1.11644c4.38155,0 22.95879,-4.2516 24.77431,0.51385c1.17847,5.53471 -1.79381,26.37802 -0.18953,33.42134c2.39841,10.52982 6.72389,17.12326 8.42437,26.25638c1.86791,10.03233 0.89906,22.17866 -1.49858,23.62863z" fill="url(#color-19)" stroke-width="0"/><path d="M296.25194,262.20189c0.18824,-5.03565 0.5524,-11.86258 1.2462,-16.45122c1.02947,-6.80871 3.86993,-12.37849 3.72821,-18.04132c-0.29543,-11.80398 -3.97602,-20.90872 -0.7911,-26.43942c3.24641,-5.63749 15.15895,-5.71478 19.1957,-5.71478c5.29666,0 17.10172,-1.21058 21.60714,10.77946c2.06273,5.48944 -1.19999,13.4676 0.40632,20.89747c2.28905,10.58789 5.65004,18.99282 5.48594,34.37488c-0.16409,15.38206 -51.28585,11.4953 -50.87839,0.59493z" fill="url(#color-20)" stroke-width="0"/><g><g><path d="M321.64345,197.50592c0.24878,-4.33504 19.93947,-8.57582 19.93947,-8.57582c0,0 -1.75146,3.88799 -2.51491,5.77138c-0.53425,1.31797 -3.3289,2.02463 -3.43132,3.80934c-0.05793,1.00952 1.50399,1.64561 2.25539,4.22636c0.95978,3.2963 3.65446,8.80778 3.65446,8.80778c0,0 -14.40885,-3.53083 -18.02498,-6.39187c-4.14597,-3.28027 -2.011,-5.33169 -1.87812,-7.64716z" data-paper-data="{&quot;index&quot;:null}" fill="url(#color-21)" stroke-width="0"/><path d="M329.36961,203.31753c-0.30005,-0.01503 -0.28395,-0.29537 -0.28395,-0.29537l0.1331,0.01569c-1.33841,-0.94026 -2.89101,-2.47371 -4.62187,-2.54588c0,0 -0.15609,-0.00781 -0.23708,-0.11736c-0.0087,0.00727 -0.01741,0.01453 -0.02612,0.02184c0,0 -0.22352,0.18759 -0.42433,-0.02125c-0.2008,-0.20886 0.02275,-0.39645 0.02275,-0.39645c1.85389,-1.55579 4.26428,-2.0608 5.24514,-4.57535l0.20522,-0.21206c0,0 0.22352,-0.1876 0.42433,0.02124c0.2008,0.20886 -0.02274,0.39645 -0.02274,0.39645l-0.04768,0.00019c-1.03913,2.34047 -3.01872,3.01876 -4.83871,4.347c1.77634,0.22762 3.27973,1.66144 4.68072,2.63183l0.10735,0.46419c0,0 -0.01609,0.28034 -0.31613,0.26531z" data-paper-data="{&quot;index&quot;:null}" fill="#711c0f" stroke-width="0.5"/></g><path d="M317.45268,197.56887c0.21249,2.31028 2.41695,4.29651 -1.614,7.69962c-3.51581,2.96819 -17.79572,6.92999 -17.79572,6.92999c0,0 2.50364,-5.58957 3.34949,-8.91299c0.66221,-2.60199 2.20142,-3.28466 2.10879,-4.29192c-0.16378,-1.78071 -2.9813,-2.40306 -3.56063,-3.7043c-0.82787,-1.85949 -2.7122,-5.69285 -2.7122,-5.69285c0,0 19.82643,3.64714 20.22425,7.97247z" fill="url(#color-22)" stroke-width="0"/><path d="M309.93049,203.60956c-0.29937,0.02403 -0.32511,-0.25567 -0.32511,-0.25567l0.09133,-0.46717c1.36687,-1.01197 2.82015,-2.49019 4.58774,-2.77106c-1.86475,-1.27288 -3.86665,-1.89136 -4.98579,-4.19941l-0.04766,0.00124c0,0 -0.22988,-0.18078 -0.03637,-0.39556c0.19351,-0.21476 0.42337,-0.03399 0.42337,-0.03399l0.2124,0.2058c1.06687,2.48379 3.4934,2.91613 5.39987,4.41544c0,0 0.22989,0.18078 0.03638,0.39556c-0.19351,0.21476 -0.42338,0.03398 -0.42338,0.03398c-0.00895,-0.00704 -0.01791,-0.01404 -0.02685,-0.02104c-0.07717,0.11193 -0.23291,0.12442 -0.23291,0.12442c-1.72748,0.12413 -3.22651,1.70342 -4.53187,2.68339l0.13248,-0.01968c0,0 0.02573,0.27971 -0.27364,0.30374z" fill="#711c0f" stroke-width="0.5"/><path d="M324.82463,199.2826c0.26143,2.84235 -0.79439,5.19687 -4.59719,5.50219c-3.8028,0.30532 -5.28686,-2.20329 -5.54829,-5.04565c-0.26143,-2.84235 1.08755,-4.01202 4.89035,-4.31734c3.80282,-0.30532 4.99371,1.01844 5.25514,3.86079z" fill="url(#color-23)" stroke-width="0"/></g><path d="M317.03704,220.2192c0,-1.86396 1.51104,-3.375 3.375,-3.375c1.86396,0 3.375,1.51104 3.375,3.375c0,1.86396 -1.51104,3.375 -3.375,3.375c-1.86396,0 -3.375,-1.51104 -3.375,-3.375z" fill="url(#color-24)" stroke-width="0"/><path d="M349.16204,276.7192c0,0 -3.49486,-28.03218 -4.28658,-43.22203c-0.96531,-18.52051 -0.96342,-60.52797 -0.96342,-60.52797c0,0 6.07163,-0.34022 7.73806,-0.29636c0.79519,0.02093 1.76194,0.54636 1.76194,0.54636c0,0 -1.20919,28.65663 -0.68672,43.86424c0.62554,18.20765 3.56172,57.76076 3.56172,57.76076z" fill="url(#color-25)" stroke-width="0"/><path d="M292.16204,279.4692c0,0 -2.61986,-34.40718 -3.41158,-49.59703c-0.96531,-18.52051 -0.83842,-54.15297 -0.83842,-54.15297c0,0 6.07163,-0.34022 7.73806,-0.29636c0.79519,0.02093 1.76194,0.54636 1.76194,0.54636c0,0 -2.08419,29.15663 -1.56172,44.36424c0.62554,18.20765 4.31172,58.51076 4.31172,58.51076z" data-paper-data="{&quot;index&quot;:null}" fill="url(#color-26)" stroke-width="0"/></g><g stroke-width="0"><g><path d="M349.9006,146.43451c0,0 5.20999,8.08789 4.35531,12.06112c-0.85468,3.97325 -0.97674,9.57498 -1.50764,11.71433c-0.5309,2.13935 -0.92535,7.76801 -0.92535,7.76801l-24.01445,12.21707l-27.04928,-1.63056c0,0 -5.34879,-5.73767 -7.2926,-9.15802c-1.94382,-3.42035 -3.29422,-13.99693 -3.29422,-13.99693z" fill="url(#color-27)" stroke="#000000" stroke-linecap="round"/><path d="M347.30656,148.35973c0,0 4.54926,9.77987 4.19574,11.60762c-0.35353,1.82775 0.16475,9.47616 -0.97815,13.68162c-1.1429,4.20546 -2.24361,8.66094 -2.24361,8.66094l-17.60448,11.93375l-17.71982,-0.75669c0,0 -13.30653,-11.98078 -15.35297,-14.79153c-2.04645,-2.81075 -3.61383,-13.33347 -3.61383,-13.33347z" fill="#000c0c" stroke="#000000" stroke-linecap="round"/><path d="M323.13827,189.07607l-1.19276,-3.7232l4.55657,-0.861l0.71159,4.42227z" fill="url(#color-28)" stroke="none" stroke-linecap="butt"/><path d="M328.3255,187.99843l-1.00173,-3.8124l4.88016,-1.32452l0.86382,3.91426z" fill="url(#color-29)" stroke="none" stroke-linecap="butt"/><path d="M343.74122,182.8272l-1.46547,-3.88313l3.51213,-1.97214l0.52033,3.81301z" fill="url(#color-30)" stroke="none" stroke-linecap="butt"/><path d="M334.56427,187.17675l-1.81315,-4.12395l4.19541,-1.95958l0.76641,4.49915z" fill="url(#color-31)" stroke="none" stroke-linecap="butt"/><path d="M339.79356,185.24708l-1.71871,-3.94152l3.41905,-1.93435l0.92679,4.78827z" fill="url(#color-32)" stroke="none" stroke-linecap="butt"/><path d="M316.95469,189.55316l-0.15307,-3.82243l4.44508,-0.36566l-0.01389,4.25578z" fill="url(#color-33)" stroke="none" stroke-linecap="butt"/><path d="M311.65551,188.95155l0.31057,-4.66793l4.20019,1.83991l-0.35902,3.43106z" fill="url(#color-34)" stroke="none" stroke-linecap="butt"/><path d="M307.01111,186.26618l0.27907,-3.03326l4.1481,1.20175l-0.30693,4.06923z" fill="url(#color-35)" stroke="none" stroke-linecap="butt"/><path d="M303.46877,185.09225l0.16537,-2.93717l3.05585,0.37068l-0.45107,3.89868z" fill="url(#color-36)" stroke="none" stroke-linecap="butt"/><path d="M347.85944,178.20697l-1.23439,-2.86023l2.29265,-1.916l0.97105,2.84732z" fill="url(#color-37)" stroke="none" stroke-linecap="butt"/><path d="M303.31826,183.90066c7.87049,2.77674 6.80448,7.17532 27.0876,2.34903c16.60765,-3.95173 17.85967,-11.07998 18.76669,-11.56696c0.90702,-0.48698 3.64126,-0.21969 4.88588,3.40576c1.24462,3.62546 -0.18306,8.19899 -1.78807,11.00005c-4.44204,7.75227 -10.80107,9.2159 -19.85543,11.49818c-9.05436,2.28228 -18.6485,0.53749 -22.90936,-0.7187c-4.26086,-1.2562 -7.27781,-7.74059 -8.04022,-9.70811c-0.76241,-1.96751 0.36994,-6.78244 1.85291,-6.25925z" fill="url(#color-38)" stroke="#000000" stroke-linecap="round"/></g><path d="M332.20728,162.36637l1.24174,7.12876l-7.24301,2.60363l-2.45315,-9.03671z" fill="url(#color-39)" stroke="#000000" stroke-linecap="round"/><path d="M298.70623,102.28056l3.01206,8.70606l-5.94163,1.66957l-2.83122,-6.86463z" fill="url(#color-40)" stroke="#000000" stroke-linecap="round"/><path d="M329.03323,96.70504l0.14716,9.21121l-6.16598,-0.26638l-0.54955,-7.4052z" fill="url(#color-41)" stroke="#000000" stroke-linecap="round"/><path d="M307.43302,104.03978c27.41983,-6.16176 37.20091,14.69194 38.61678,17.19057c1.18152,1.67202 -0.50442,2.05127 2.12591,7.10745c1.79312,3.44683 4.06375,2.39692 6.13741,6.85623c2.07366,4.45931 1.68268,12.39083 1.68268,12.39083c0,0 -1.67257,1.07287 -3.65156,2.88684c-1.99074,1.82474 -4.29723,4.39593 -7.45535,6.20172c-5.61789,3.21228 -12.11879,4.38485 -22.19104,7.29686c-7.60898,2.19984 -16.04524,4.28363 -22.46552,4.57705c-2.67027,0.12203 -4.94169,-0.7694 -6.82201,-0.99907c-3.19272,-0.38997 -5.13978,-0.27937 -5.13978,-0.27937c0,0 -6.25128,-10.19794 -6.86217,-15.54748c-0.61089,-5.34955 2.74274,-8.11989 3.65223,-12.56196c0.90948,-4.44207 -0.6672,-3.59788 -0.51583,-11.55054c0.06745,-3.54388 5.93688,-19.75982 22.88825,-23.56912z" fill="url(#color-42)" stroke="#000000" stroke-linecap="round"/><path d="M301.78054,134.51041c5.52655,-2.58266 10.91034,-0.55753 13.1805,4.47718c2.7562,6.11262 0.96203,11.59194 -4.56452,14.1746c-5.52655,2.58266 -11.78673,0.86729 -14.12494,-4.13617c-2.14577,-4.59166 -0.01758,-11.93295 5.50897,-14.51561z" data-paper-data="{&quot;index&quot;:null}" fill="#000000" stroke="none" stroke-linecap="butt"/><path d="M340.56508,140.9494c-0.46169,5.50352 -5.74107,9.27982 -11.81995,8.76986c-6.07889,-0.50996 -9.65881,-5.02947 -9.18892,-11.71827c0.38703,-5.50927 4.73697,-9.27282 10.81585,-8.76287c6.07889,0.50996 10.61671,6.66071 10.19302,11.71127z" fill="#000000" stroke="none" stroke-linecap="butt"/><path d="M322.67052,139.00282c0.27282,-3.25208 3.13031,-5.66725 6.38238,-5.39443c3.25208,0.27282 5.66725,3.13031 5.39443,6.38238c-0.27282,3.25208 -3.13031,5.66725 -6.38238,5.39443c-3.25208,-0.27282 -5.66725,-3.13031 -5.39443,-6.38238z" fill="url(#color-43)" stroke="none" stroke-linecap="butt"/><path d="M325.42314,139.13473c0.14665,-1.74818 1.68271,-3.04647 3.43089,-2.89981c1.74818,0.14665 3.04647,1.68271 2.89981,3.43089c-0.14665,1.74818 -1.68271,3.04647 -3.43089,2.89981c-1.74818,-0.14665 -3.04647,-1.68271 -2.89981,-3.43089z" fill="url(#color-44)" stroke="none" stroke-linecap="butt"/><path d="M325.42313,139.13472c0.14665,-1.74818 1.68271,-3.04647 3.43089,-2.89981c1.74818,0.14665 3.04647,1.68272 2.89982,3.43089c-0.14665,1.74818 -1.68272,3.04646 -3.4309,2.89981c-1.74818,-0.14665 -3.04647,-1.68271 -2.89981,-3.43089z" fill="url(#color-45)" stroke="none" stroke-linecap="butt"/><path d="M330.81186,136.90827c0.50822,0.60159 0.49587,1.44776 -0.02759,1.88998c-0.52346,0.44222 -1.35981,0.31303 -1.86803,-0.28856c-0.50822,-0.60159 -0.49587,-1.44776 0.02759,-1.88998c0.52346,-0.44222 1.35981,-0.31303 1.86803,0.28856z" fill="url(#color-46)" stroke="none" stroke-linecap="butt"/><path d="M327.35057,139.24582c0.05703,-0.67984 0.65439,-1.18473 1.33423,-1.1277c0.67984,0.05703 1.18473,0.65439 1.1277,1.33423c-0.05703,0.67984 -0.65439,1.18473 -1.33423,1.1277c-0.67984,-0.05703 -1.18473,-0.65439 -1.1277,-1.33423z" fill="#000000" stroke="none" stroke-linecap="butt"/><g stroke="none" stroke-linecap="butt"><path d="M300.87802,143.98182c0.27282,-3.25208 3.13031,-5.66725 6.38238,-5.39443c3.25208,0.27282 5.66725,3.13031 5.39443,6.38238c-0.27282,3.25208 -3.13031,5.66725 -6.38238,5.39443c-3.25208,-0.27282 -5.66725,-3.13031 -5.39443,-6.38238z" fill="url(#color-47)"/><path d="M303.63064,144.11373c0.14665,-1.74818 1.68271,-3.04647 3.43089,-2.89981c1.74818,0.14665 3.04647,1.68271 2.89981,3.43089c-0.14665,1.74818 -1.68271,3.04647 -3.43089,2.89981c-1.74818,-0.14665 -3.04647,-1.68271 -2.89981,-3.43089z" fill="url(#color-48)"/><path d="M303.63063,144.11372c0.14665,-1.74818 1.68271,-3.04647 3.43089,-2.89981c1.74818,0.14665 3.04647,1.68272 2.89982,3.43089c-0.14665,1.74818 -1.68272,3.04646 -3.4309,2.89981c-1.74818,-0.14665 -3.04647,-1.68271 -2.89981,-3.43089z" fill="url(#color-49)"/><path d="M309.01935,141.88727c0.50822,0.60159 0.49587,1.44776 -0.02759,1.88998c-0.52346,0.44222 -1.35981,0.31303 -1.86803,-0.28856c-0.50822,-0.60159 -0.49587,-1.44776 0.02759,-1.88998c0.52346,-0.44222 1.35981,-0.31303 1.86803,0.28856z" fill="url(#color-50)"/><path d="M305.55807,144.22482c0.05703,-0.67984 0.65439,-1.18473 1.33423,-1.1277c0.67984,0.05703 1.18473,0.65439 1.1277,1.33423c-0.05703,0.67984 -0.65439,1.18473 -1.33423,1.1277c-0.67984,-0.05703 -1.18473,-0.65439 -1.1277,-1.33423z" fill="#000000"/></g><path d="M325.47027,56.4329c6.60683,-0.06206 11.33706,2.8031 12.54741,8.82982c1.21035,6.02673 -2.70182,13.005 -4.55182,22.78257c-1.85,9.77757 -0.90376,7.35509 -1.56936,9.56897c-0.87505,2.91053 -3.2835,2.81238 -6.46731,2.96975c-3.18381,0.15738 -4.44067,-0.62034 -6.10702,-3.35561c-1.66636,-2.73526 -1.65891,-6.4513 -1.77921,-10.26801c-0.41917,-13.29948 -7.0762,-19.20223 -6.49899,-22.0371c1.79584,-8.82013 7.81947,-8.42833 14.4263,-8.4904z" fill="url(#color-51)" stroke="#000000" stroke-linecap="round"/><path d="M317.95434,70.2697c2.29354,-0.5731 1.76835,-0.48515 5.97259,-0.41885c4.70289,0.07417 10.22712,-1.77802 10.49111,0.5456c0.61939,5.4517 -1.44535,6.70254 -2.81534,13.65536c-0.93746,4.7577 -1.04469,10.18843 -1.56545,11.65033c-1.35868,3.81421 -7.62396,4.08312 -8.71993,0.272c-1.09598,-3.81113 0.26763,-5.63769 -0.31966,-10.14557c-0.58728,-4.50788 -2.27001,-9.43073 -2.64426,-11.34409c-0.37425,-1.91335 -2.69259,-3.64169 -0.39906,-4.21478z" fill="url(#color-52)" stroke="#000000" stroke-linecap="round"/><path d="M272.79494,77.71587c5.0906,-1.93955 13.45253,-2.83307 20.66387,3.04577c8.52108,6.94655 6.70054,20.03302 7.01517,21.27629c0.31463,1.24327 -4.10971,3.90087 -4.10971,3.90087c0,0 -3.2703,2.76257 -6.75788,-1.33885c-3.48759,-4.10141 -4.79682,-12.75334 -4.79682,-12.75334c0,0 -4.59192,10.24416 -18.02622,9.68081c-3.93103,-0.16484 -8.44304,-2.76396 -8.34526,-7.26151c0.16958,-7.80017 5.24601,-13.07876 14.35685,-16.55006z" fill="url(#color-53)" stroke="#000000" stroke-linecap="round"/><path d="M288.56264,85.986c0,0 2.85894,0.84444 5.82313,5.1201c1.46635,2.11512 1.06876,4.63572 1.38905,6.44637c0.32028,1.81065 1.58939,3.03962 1.08988,4.49145c-0.49952,1.45184 -1.76256,1.57883 -3.33572,2.03597c-1.57315,0.45714 -3.98007,0.51523 -3.98007,0.51523c0,0 -2.37117,-4.02017 -3.24804,-6.37074c-0.87686,-2.35057 -1.64472,-6.15905 -1.64472,-6.15905c0,0 1.39212,-1.8535 1.96591,-2.74884c0.51535,-0.80412 1.94058,-3.33049 1.94058,-3.33049z" fill="url(#color-54)" stroke="#000000" stroke-linecap="round"/><path d="M272.47856,78.03671c5.0906,-1.93954 12.58361,-2.59718 17.24119,0.59724c3.32995,2.57422 -5.22657,13.53352 -5.22657,13.53352c0,0 -4.59191,10.24415 -18.02621,9.6808c-3.93103,-0.16485 -8.44304,-2.76396 -8.34526,-7.26151c0.16958,-7.80017 5.24601,-13.07876 14.35685,-16.55006z" fill="url(#color-55)" stroke="#000000" stroke-linecap="round"/><path d="M321.78596,164.74475l1.68448,7.43351l-8.04255,1.76719l-0.70214,-6.78244z" fill="url(#color-56)" stroke="#000000" stroke-linecap="round"/><path d="M319.16166,151.31094c0,0 14.06608,-4.30305 18.51797,-2.85118c4.45188,1.45187 6.01999,5.15115 5.80406,9.02056c-0.21592,3.86941 -2.95375,7.62008 -7.05876,8.67849c-5.14566,1.32674 -13.34886,0.17365 -13.34886,0.17365c0,0 -4.76315,3.89096 -7.9843,4.84168c-5.53706,1.63426 -11.75894,2.50187 -14.91835,-2.48614c-3.15941,-4.98801 -2.8718,-9.84952 3.2265,-13.28989c6.0983,-3.44037 15.76175,-4.08719 15.76175,-4.08719z" fill="url(#color-57)" stroke="#000000" stroke-linecap="round"/><path d="M311.49509,153.31822c-1.14207,-3.08395 15.39617,-7.19006 15.79141,-3.37379c0.17342,1.67444 -4.52672,7.51204 -5.91351,7.7485c-3.23697,0.55196 -9.32912,-2.89285 -9.8779,-4.37472z" fill="url(#color-58)" stroke="#000000" stroke-linecap="round"/></g></g></g></svg>