<svg version="1.1" xmlns="http://www.w3.org/2000/svg" xmlns:xlink="http://www.w3.org/1999/xlink" width="181.88082" height="224.31031" viewBox="0,0,181.88082,224.31031"><defs><linearGradient x1="321.30117" y1="45.70453" x2="321.30117" y2="270.01486" gradientUnits="userSpaceOnUse" id="color-1"><stop offset="0" stop-color="#c2925b"/><stop offset="1" stop-color="#945542"/></linearGradient><linearGradient x1="317.18655" y1="170.27231" x2="317.18655" y2="201.95899" gradientUnits="userSpaceOnUse" id="color-2"><stop offset="0" stop-color="#a9714e"/><stop offset="1" stop-color="#985a3e"/></linearGradient></defs><g transform="translate(-229.73561,-45.70455)"><g data-paper-data="{&quot;isPaintingLayer&quot;:true}" fill-rule="nonzero" stroke-linejoin="miter" stroke-miterlimit="10" stroke-dasharray="" stroke-dashoffset="0" style="mix-blend-mode: normal"><path d="M342.08154,81.64002l-36.5,64l-50,5l5.5,-65l10.5,-9.5l2.5,-3.5l3.5,0.5l2,-5.5l6.5,-0.5l3,-9l11,5l1.5,-10l14,1.5z" fill="#000000" stroke="#000000" stroke-width="0" stroke-linecap="round"/><path d="M410.20077,159.93128c12.50197,88.20391 -61.39576,105.04915 -80.44506,108.78806c-53.67832,10.53575 -97.48957,-45.15233 -98.75706,-95.80341c-0.05946,-2.37586 -0.83104,-66.64209 27.74504,-89.41633c11.6633,-9.29528 8.76216,9.91934 12.36971,6.63629c8.28787,-7.54238 20.91268,22.62791 25.35456,19.33086c2.28067,-1.69287 -0.69828,4.27179 -2.09201,9.80042c-0.80108,3.17769 -0.08346,7.08196 -0.08346,7.08196l-4.67137,6.78942c0,0 7.91976,-4.13349 8.93292,-5.48654c0.28672,-0.38291 -1.49129,-4.4516 -1.49129,-4.4516c0,0 1.98188,-6.70739 5.81921,-10.39423c5.52537,-5.30868 1.8356,2.17188 6.01773,-0.31415c12.65339,-7.52171 -2.50464,-8.53543 6.2905,-14.98182c3.39995,-2.49199 7.97606,-1.12557 10.20764,-3.29908c4.20685,-4.09738 -11.48485,-20.74223 -11.44978,-24.1236c0.12966,-12.50175 9.5712,-9.00272 9.5712,-9.00272c0,0 -17.08613,-3.00709 -10.0238,-7.41174c0.70009,-0.43664 1.7638,-0.30197 2.44751,-0.71006c6.92687,-4.13443 -9.91375,-6.19523 -2.83628,-6.90846c60.92789,-6.13995 90.86909,69.9582 97.09407,113.87676z" fill="url(#color-1)" stroke="#000000" stroke-width="0" stroke-linecap="butt"/><path d="M403.95456,185.44658l-9.47245,18.94491l-5.3863,-0.5572l-2.97176,9.65819l-5.01483,-0.18573l-4.45763,14.11581l-7.42938,-2.22881l-5.3863,11.14406l-3.15749,1.11441l-1.11441,-3.34322l-10.58686,7.61511l-5.01483,-6.31497l-7.24364,13.37288l-5.20057,1.11441l-7.98658,-10.2154l-4.64336,9.84393l-11.51554,-8.72952l-3.34322,9.47246l-3.90042,-6.50071l-4.08616,2.60028l-5.3863,-11.3298l-8.91526,12.07274l-3.15748,-14.48729l-10.2154,0.74294l-3.52895,-8.54379l-4.64337,1.85735l-1.48588,-8.54379l-6.31497,-0.74294l-1.11441,-8.35805l-5.01483,0.37147l-0.37147,-10.02966l-6.50071,-1.85735l-1.1144,-10.95834l-3.90043,-0.74293l-1.85735,-10.7726l-2.78601,-6.87217l5.57203,0.37147l0.18573,4.45763l4.82909,2.78601l1.30014,5.3863l5.20057,-0.18574l1.30014,7.42938l4.82909,-2.41455l2.78602,17.64478l10.2154,-6.12924l4.27189,4.82909l5.3863,-2.60028l2.60028,9.28672l15.41596,-4.27189l10.40113,10.95833l5.57204,-11.3298l5.3863,10.95833l4.82909,-12.62994l5.20056,12.44421l11.3298,-10.58686l14.48729,14.48728l9.84393,-26.37429l-5.20057,-5.9435l-19.31638,-2.22881l0.18573,-12.07274l-5.75776,-7.61511l2.22881,-5.3863l0.18574,-2.04308l-4.82909,-3.90043l0.55721,-5.01483l5.3863,-1.85735l2.78601,-5.01483l-2.04308,-5.01483l3.34322,-2.97175l6.50071,0.18573l8.91526,-5.3863l10.7726,-2.04308l6.50071,11.14406l14.67302,13.00142l-3.15749,4.45763l4.45763,6.31497l-8.54379,9.65819l8.72952,9.10099l1.11441,8.17231l7.05791,-1.67161l0.52875,-5.01483l9.31518,-3.90042l3.52895,4.64336l-0.74293,2.60028z" fill="#000000" stroke="#000000" stroke-width="0" stroke-linecap="round"/><path d="M405.93308,182.51841c-0.37139,-0.92847 0.55709,-1.29987 0.55709,-1.29987l0.69176,-0.27638c1.0395,-0.4455 2.03117,-0.87224 3.11919,-1.18524c0,0 0.96152,-0.27472 1.23624,0.6868c0.27472,0.96152 -0.6868,1.23625 -0.6868,1.23625c-1.00743,0.28561 -1.91886,0.68822 -2.8808,1.10048l-0.73682,0.29504c0,0 -0.92848,0.37139 -1.29987,-0.55709z" fill="#000000" stroke="none" stroke-width="0.5" stroke-linecap="butt"/><path d="M309.8949,205.89745c-0.22361,-0.11181 -0.11181,-0.33541 -0.11181,-0.33541l0.14684,-0.27843c-0.01981,-0.52097 -0.4556,-1.11461 -0.32916,-1.59888c0.08657,-0.33157 0.95961,-1.1573 1.50063,-1.47884c-0.84031,-0.17926 -1.67805,-0.35595 -2.50667,-0.58571c-2.30367,-0.57781 -6.22526,0.10159 -7.99652,-1.66967c-0.78341,-0.52227 -1.22974,-1.35215 -1.97294,-1.89734c-0.69709,-0.51137 -2.86638,-0.07495 -3.87131,-0.19723c-0.03724,1.38981 -0.31696,2.76271 -0.93921,3.98652c-0.00064,1.17532 -0.38563,2.43785 -0.50101,3.65968l-0.18388,0.39226c0,0 -0.10821,0.22537 -0.33358,0.11715c-0.22537,-0.10822 -0.11715,-0.33358 -0.11715,-0.33358l0.15243,-0.30813c0.09927,-1.22186 0.49665,-2.46515 0.49601,-3.63993c1.11372,-2.36132 1.13106,-5.03885 0.50105,-7.54976c0,0 -0.04355,-0.17423 0.09084,-0.26426c-0.73708,-0.55953 -1.6734,-1.51702 -2.19796,-2.30603c-1.83528,1.41637 -5.67709,2.08419 -7.80292,2.09168c-2.76344,0.00531 -5.78388,1.56139 -7.58549,3.66261c-1.06468,1.9092 -0.84526,3.03516 -0.84526,5.0887v0.16666c0,0 0,0.25 -0.25,0.25c-0.25,0 -0.25,-0.25 -0.25,-0.25v-0.16666c0,-2.05705 -0.17131,-3.29002 0.80987,-5.14513l-0.09634,-0.06422c-0.20071,-0.13389 -0.39604,-0.27584 -0.58905,-0.4206c-1.64697,-1.1229 -1.76646,-3.39462 -3.08139,-4.8218c-1.05556,0.65143 -3.57114,0.86767 -4.2931,0.86841c-0.36206,0 -0.69116,-0.10016 -0.98518,-0.27713c-0.08211,1.94558 -1.21915,3.8619 -0.80474,5.62256c0.09143,0.38858 0.16929,0.77944 0.29596,1.15816l0.01283,0.16239c0,0 0,0.25 -0.25,0.25c-0.25,0 -0.25,-0.25 -0.25,-0.25l0.01283,-0.00427c-0.13079,-0.39359 -0.21337,-0.79818 -0.30833,-1.20176c-0.45783,-1.94642 0.81885,-3.7794 0.7955,-5.87731c0,0 0,-0.11206 0.07503,-0.18613c-1.12624,-1.0878 -1.563,-3.41469 -1.13554,-5.03403c-1.03298,-0.21428 -2.48473,-0.16557 -3.23759,-0.9086c-0.90395,-0.28726 -1.73826,-1.21344 -2.44539,-1.7707c-1.26121,-0.99391 -3.75564,-1.02073 -4.68125,-2.43191c-0.07845,-0.07836 -0.19091,-0.24394 -0.28995,-0.37038c-0.08936,0.05392 -0.17363,0.03055 -0.22911,0.00095c-0.27089,1.91845 -1.64112,3.66464 -2.77286,5.17605c0,0 -0.15,0.2 -0.35,0.05c-0.2,-0.15 -0.05,-0.35 -0.05,-0.35c0.80574,-1.07249 1.60201,-2.14641 2.20424,-3.34986c0.18805,-0.3758 0.285,-1.48076 0.57109,-1.9124c-1.5544,-1.62664 -3.13658,-3.77281 -4.35199,-5.59592c-0.36828,-0.36828 -0.56752,-0.59908 -0.84801,-1.01982c-0.00962,-0.01444 -0.01897,-0.03186 -0.02801,-0.05163c-0.15839,0.01648 -0.23758,-0.14191 -0.23758,-0.14191c-0.01286,-0.02572 -0.02569,-0.05138 -0.03849,-0.07697c-0.26771,0.33961 -0.89764,0.53402 -1.13729,0.80114c-0.7652,0.85285 -0.88395,2.03119 -1.37255,3.01644c-0.0803,0.2009 -0.11514,0.40358 -0.11808,0.60731c0.02868,0.03432 0.0571,0.06905 0.08524,0.10422c0,0 0.15617,0.19522 -0.03904,0.35139c-0.0016,0.00127 -0.00319,0.00252 -0.00477,0.00375c0.19954,1.09712 1.02286,2.20836 0.38994,3.21958l-0.16666,0.25c0,0 -0.13868,0.20802 -0.34669,0.06934c-0.20801,-0.13868 -0.06933,-0.34669 -0.06933,-0.34669l0.16666,-0.25c0.53962,-0.73236 -0.19307,-1.96744 -0.40525,-3.08848c-0.83692,-0.99893 -1.92688,-1.64349 -2.74674,-2.64423c-0.34789,-0.42464 -0.24925,-1.17503 -0.5505,-1.54682c-0.00931,-0.00855 -0.01849,-0.01823 -0.02744,-0.02915c-0.16079,-0.13167 -0.68492,0.02409 -0.85535,0.08091c-0.00143,0 -0.00286,0.00001 -0.00429,0.00001c-0.00758,0.00953 -0.01609,0.01908 -0.02565,0.02864c-0.13024,0.13024 -0.26048,0.06857 -0.32003,0.02707c-0.61567,0.20691 -0.92481,0.95039 -1.13217,1.55734l-0.18323,0.27883c0,0 -0.13868,0.20802 -0.34669,0.06934c-0.20801,-0.13868 -0.06933,-0.34669 -0.06933,-0.34669l0.1501,-0.22117c0.21605,-0.6695 0.6055,-1.44306 1.24729,-1.75065c-0.6698,-0.89714 -1.26346,-1.15655 -1.27271,-2.54086c0.0159,-2.38044 0.90518,-4.20094 -0.79418,-5.94022c-0.43187,0.42801 -0.95394,0.79143 -1.66577,1.02032c-0.48147,-0.00189 -0.84819,0.09246 -1.12892,0.26248c0.01641,0.04961 0.0163,0.11158 -0.02086,0.18588c-0.10279,0.20559 -0.30009,0.12765 -0.33122,0.11374c-0.3517,0.41198 -0.48922,1.01936 -0.56035,1.71654l0.0013,0.05791c0,0 0,0.25 -0.25,0.25c-0.25,0 -0.25,-0.25 -0.25,-0.25l0.00129,-0.10876c0.07649,-0.74694 0.25796,-1.42697 0.63832,-1.92042c-0.36166,-0.26211 -0.68539,-0.55769 -0.93918,-0.92867c-0.86651,-1.73458 -1.88976,-4.22427 -1.56632,-6.1988c-0.63175,-0.16412 -1.04721,0.21509 -1.04721,0.21509l-0.04573,-0.79172c0.56045,-0.35079 0.42325,-0.10671 1.20364,0.09136c0.11272,-0.37826 0.28511,-0.73134 0.52944,-1.04886c0.1058,-0.4452 -0.09852,-1.08657 0.07809,-1.48823c0.57006,-1.29647 2.24554,-1.48953 2.6551,-3.13163c0,0 0.00016,-0.00061 0.00047,-0.00176c-1.0086,-1.41639 -2.0469,-3.12122 -2.23143,-3.06167c-1.09473,0.72982 -1.51576,0.55295 -1.51576,0.55295c0,0 -0.10596,-0.40592 0.00585,-0.62953c0.11181,-0.2236 0.27662,0.30316 1.29023,-0.37258c0.17331,-0.05921 0.43385,-0.18628 0.67061,-0.21184l0.01245,-0.05842c0.12665,-0.12106 0.2356,-0.27227 0.28867,-0.43925c0.46914,-0.59348 -0.2801,-1.01147 -0.19373,-1.74459c0.1681,-1.42685 1.87892,-3.89113 2.85773,-4.96093c0.23604,-0.35333 0.9193,-1.33471 1.42912,-1.34216c0.30311,-0.00443 0.70794,1.03437 0.88114,1.23067c1.03246,1.17023 2.00456,2.61439 2.83858,3.92299c1.81942,1.80827 3.30123,3.93766 5.08138,5.74525c0.4408,-0.26747 1.05964,-0.45792 1.91804,-0.55535c2.09446,-0.23546 4.48335,-0.2971 6.48824,0.34759l0.17094,0.3205c0,0 0,0.25 -0.25,0.25c-0.13933,0 -0.20101,-0.07764 -0.22831,-0.14639c-1.86755,-0.60497 -4.18979,-0.49241 -6.12501,-0.27484c-0.80689,0.08978 -1.37275,0.27346 -1.76265,0.5342c-0.01075,0.0163 -0.02414,0.03275 -0.04059,0.0492c-0.04178,0.04178 -0.08354,0.0638 -0.12298,0.07309c-1.30333,1.09088 -0.14484,3.28585 -0.23408,5.62547c-0.41135,2.86759 -0.15304,5.59842 -0.15304,8.47261c-0.00023,0.139 0.00195,0.27535 0.00643,0.40926l0.07691,0.1442c0,0 0,0.0985 -0.06183,0.17184c0.127,2.04088 0.80319,3.52554 1.67994,5.28566c0.03494,-0.00268 0.07027,-0.00411 0.10599,-0.00428c0.75005,-0.00344 0.7722,1.30444 1.30257,1.83481c1.24516,1.86774 2.87791,4.08219 4.46946,5.71536c0.32584,0.08891 0.63919,0.47684 0.80238,0.64019c0.812,1.31922 3.4067,1.45619 4.61164,2.36098c0.72654,0.54556 1.48581,1.41619 2.38795,1.7293c0.69774,0.70747 2.15987,0.65131 3.13481,0.85747c0.0942,-0.2252 0.2096,-0.42856 0.34686,-0.60285c0.34275,-0.43521 1.37487,-0.57496 1.87027,-0.78317c0.07812,0.03405 0.16138,0.07671 0.2489,0.12701c-0.15742,-1.91099 -1.0691,-2.65733 0.64265,-4.79781c0.4471,-0.44962 0.58751,-1.19488 0.80608,-1.77756l0.08183,-0.24562c0,0 0.07906,-0.23717 0.31623,-0.15812c0.23717,0.07906 0.15811,0.31623 0.15811,0.31623l-0.08483,0.25437c-0.24563,0.6552 -0.41079,1.42684 -0.90256,1.94158c-1.65233,2.06466 -0.69052,2.73402 -0.52183,4.79739c1.01799,0.75689 2.31892,2.13387 2.96944,3.10999c-0.02672,-0.34242 0.04795,-0.72647 0.31212,-1.18403c1.27558,-2.12416 2.14451,-4.81696 3.24802,-7.07859c0,0 0.11181,-0.22361 0.33541,-0.11181c0.22361,0.11181 0.11181,0.33541 0.11181,0.33541c-1.1671,2.28927 -1.96752,4.94552 -3.26648,7.11223c-0.40969,0.64942 -0.36021,1.12839 -0.17689,1.55328c0.01851,0.00991 0.1758,0.09967 0.13444,0.26928c0.28864,0.51973 0.68082,0.9923 0.49876,1.66011c-0.01671,0.06131 -0.04461,0.12015 -0.0825,0.17659c1.23314,1.38853 1.43173,3.72997 2.999,4.74526c0.18932,0.14199 0.38068,0.28154 0.57762,0.41274l0.10611,0.07074c1.95477,-2.1199 4.95155,-3.69114 7.8328,-3.69667c2.01864,-0.00037 5.85771,-0.65227 7.55065,-2.02543c-0.13558,-0.27787 -0.1884,-0.51234 -0.12072,-0.6684c0.71287,-1.42573 2.21424,-3.85636 3.47319,-4.6924c-0.37675,-0.23034 -0.75444,-0.51356 -1.14565,-0.91616c-1.69752,-2.11941 -4.28869,-4.09764 -5.4942,-6.50118c0,0 -0.11181,-0.2236 0.1118,-0.33541c0.22361,-0.11181 0.33541,0.11181 0.33541,0.11181c1.17598,2.35994 3.75793,4.31143 5.42185,6.3939c1.17296,1.20432 2.25074,1.23442 3.48654,2.17226c1.1495,0.87235 0.73391,4.07893 0.59721,5.29863c-0.54813,0.59324 -2.55915,2.6191 -3.47593,2.31717c-0.089,-0.02931 -0.19267,-0.07934 -0.30726,-0.14663c0.24081,1.00838 0.39132,2.07566 0.40653,3.14238c1.13153,0.21057 3.17804,-0.32029 4.13112,0.27575c0.79555,0.49752 1.23476,1.40779 2.02706,1.93599c1.67349,1.67349 5.61422,1.02637 7.80696,1.57286c0.89515,0.24813 1.80096,0.4338 2.7092,0.62841l0.37301,0.07993c0.11527,0.02226 0.20234,0.12369 0.20234,0.24546c0,0.11246 -0.07426,0.20757 -0.17641,0.23899l-0.24453,0.08151l-0.0048,-0.01439c-0.56691,0.40698 -1.33238,0.93889 -1.50166,1.433c-0.10168,0.2968 0.34295,1.16469 0.3375,1.56779l-0.1865,0.38824c0,0 -0.11181,0.22361 -0.33541,0.1118zM241.7082,147.4824c-0.71484,-1.12161 -1.55641,-2.22023 -2.3234,-3.32688c-0.37409,-0.53975 -0.52122,-1.98562 -1.08311,-1.6457c-0.3414,0.20653 -0.74801,0.83954 -0.95891,1.15655c-0.92611,1.00943 -2.57179,3.3693 -2.75423,4.70702c-0.11592,0.84996 0.74521,1.07814 0.1396,1.92208c-0.05862,0.16889 -0.1634,0.32071 -0.28246,0.4571c0.359,0.47612 0.34776,1.67144 0.61579,2.12891c0.25614,0.43717 0.53622,0.84725 0.84807,1.22807c0.04115,-0.01668 0.09297,-0.02214 0.15779,-0.00593c0.24254,0.06063 0.18191,0.30317 0.18191,0.30317c-0.00605,0.02414 -0.01238,0.04798 -0.01899,0.07155c0.39741,0.43009 0.84355,0.8177 1.35162,1.15917c1.13442,1.13442 2.67147,4.68298 3.24637,6.26247c1.39772,1.72581 2.79523,3.34404 4.37249,4.93716c0.018,-0.00412 0.03673,-0.00629 0.05598,-0.00629c0.06904,0 0.13153,0.02798 0.17677,0.07322l0.25,0.25l-0.02783,0.02783c0.22366,0.16634 0.44705,0.33864 0.68453,0.47492c-0.00008,-0.01533 -0.00013,-0.0307 -0.00015,-0.04609c0,-2.88653 -0.25475,-5.63709 0.15505,-8.51734c0.08752,-2.40615 -0.94875,-4.65767 0.28682,-5.87268c-1.76685,-1.82376 -3.26512,-3.91958 -5.07371,-5.7383zM233.57101,157.60848c-0.15179,0.3735 0.02225,1.08181 -0.08857,1.51178c-1.42428,1.93477 -0.16327,5.12852 0.90716,7.26708c0.21188,0.33095 0.53439,0.59269 0.86326,0.82071c0.35856,-0.27718 0.83464,-0.43962 1.46381,-0.44199c2.18124,-0.76226 2.51127,-2.75179 4.16166,-4.01344c-0.162,-0.1999 -0.32343,-0.40153 -0.4845,-0.6051c-0.54129,-1.3956 -1.61159,-2.43339 -2.20141,-3.80433c-0.36106,-0.83922 -0.22643,-1.6179 -0.92753,-2.319c-0.30581,-0.20193 -0.70976,-0.67332 -1.13936,-1.24576c-0.56332,1.33544 -2.08807,1.68236 -2.5545,2.83006zM239.75671,172.1795c-0.01182,1.38447 0.60065,1.44855 1.29058,2.40709c0.02831,-0.00167 0.05698,-0.00251 0.08603,-0.00251c0.27998,-0.09332 0.77933,-0.18424 1.11192,-0.05036c1.60391,-1.17906 2.22225,-3.77719 2.50707,-5.65174c0.08307,-0.53107 0.16357,-1.0142 0.23952,-1.54619c-1.36154,-1.3704 -2.60121,-2.74308 -3.80274,-4.20269c-1.0778,0.71974 -1.60668,1.82 -2.38741,2.73838c1.87259,1.92024 0.93312,3.74169 0.95503,6.30801zM245.4546,167.62041c-0.06764,0.45006 -0.13921,0.88127 -0.20811,1.33761c-0.3108,1.99747 -0.96962,4.65401 -2.65097,5.93788c0.18446,0.41261 0.14134,1.01168 0.43785,1.3598c0.70548,0.82826 1.56697,1.41988 2.32225,2.18075c0.01635,-0.11873 0.04534,-0.23397 0.08969,-0.34479c0.53439,-1.05926 1.21287,-3.72131 2.60205,-4.34298c-0.90015,-1.82199 -1.57865,-3.38549 -1.69095,-5.52206c-0.315,-0.13334 -0.71332,-0.34938 -0.90181,-0.6062zM271.91326,191.52538c0.01438,-0.01438 0.02875,-0.02641 0.04304,-0.0364c0.01826,-0.02499 0.03005,-0.05039 0.03475,-0.07618c0.09623,-0.5274 -0.11604,-0.95417 -0.33281,-1.39045c-0.02006,-0.00649 -0.03222,-0.01256 -0.03222,-0.01256l-0.3983,-0.2135c-0.48528,-0.92266 -1.85348,-2.46202 -2.93849,-3.38405c-0.03561,0.04991 -0.09618,0.09236 -0.19919,0.09236c-0.25,0 -0.25,-0.25 -0.25,-0.25c0.00232,-0.06692 0.0036,-0.13252 0.00392,-0.19686c-0.09641,-0.07083 -0.18846,-0.13396 -0.27504,-0.18824c-0.34959,0.20045 -1.26015,0.28433 -1.48017,0.60148c-1.06734,1.5385 -0.50786,5.89853 1.64909,5.89853c0.46459,0.00051 3.50914,-0.31416 4.14089,-0.80372c0.00961,-0.01342 0.02105,-0.02692 0.03455,-0.04041zM292.08127,190.94274c0.16006,0.16007 0.03026,0.32013 0.00429,0.34896c0.67236,0.8608 2.27417,2.38323 2.73234,2.59098c0.47739,0.21647 2.51811,-1.71209 2.86037,-2.04988c0.05296,-0.92124 0.48037,-4.04903 -0.40576,-4.66764c-0.71179,-0.4969 -1.35362,-0.75645 -1.98363,-1.08633l-0.10591,0.09761c-0.42182,0.15422 -0.39476,0.9277 -0.76603,1.28415c-1.11054,1.0662 -1.89024,1.80686 -2.62216,3.27071c-0.019,0.03002 -0.01018,0.08267 0.02174,0.15341c0.06792,-0.02924 0.16634,-0.04042 0.26476,0.05801z" fill="#000000" stroke="none" stroke-width="0.5" stroke-linecap="butt"/><path d="M323.91643,170.27231l0.4975,8.27158c0,0 2.47674,1.75602 4.55345,4.18717c2.10402,2.46312 3.80271,5.61792 2.92029,8.13633c-1.75336,5.00411 -7.10057,12.2585 -15.90909,10.93251c-25.71316,-3.87068 -7.3816,-23.64359 -7.3816,-23.64359l0.11944,-7.284" fill="url(#color-2)" stroke="#000000" stroke-width="0" stroke-linecap="round"/><path d="M324.13463,171.91226c0.17678,0.17677 0,0.35355 0,0.35355l-0.05178,-0.05177c0,1.375 0,2.75 0,4.125c-0.05851,1.68489 1.89629,3.56671 3.30178,4.32322c0.38069,0.76137 1.51206,1.26206 2.125,1.875c0.73514,0.73514 1.36223,2.38021 1.67919,3.33111c1.21782,2.42108 1.36689,4.84228 0.12356,7.31975c-0.67094,1.81891 -2.61244,4.52778 -4.43342,5.90715c2.04055,0.61935 3.84441,1.36196 5.96546,2.1778c0.65067,0.23757 2.85805,1.93607 3.54432,1.43035c1.07678,-0.79349 1.95851,-1.668 3.34569,-0.65033c1.71703,1.14387 4.73167,-0.40759 6.53571,-0.86928c1.91011,-0.63809 3.76543,-1.30998 5.66418,-1.96355c0.18629,-0.11885 0.37118,-0.23838 0.55458,-0.35838c1.30797,-0.34024 2.41611,-1.0132 3.49543,-1.71757c1.43782,-1.08819 2.90885,-2.29103 4.51958,-2.40527l0.09518,-0.03807l-0.00476,-0.0143l0.24446,-0.08149c0.02642,-0.0095 0.05491,-0.01467 0.0846,-0.01467c0.13807,0 0.25,0.11193 0.25,0.25c0,0.10731 -0.06761,0.19884 -0.16256,0.23428l-0.41126,0.1645l-0.00054,-0.00135l-0.00329,0.00284c-0.25509,0.09208 -0.50073,0.20951 -0.74335,0.33069c-0.02393,0.00792 -0.0478,0.01596 -0.07162,0.02412c-0.32874,0.15275 -0.65748,0.28955 -0.81524,0.3778c-1.79207,1.00243 -3.5783,2.6149 -5.49511,3.25384c-0.43683,0.14561 -0.8703,0.29292 -1.30154,0.44128c-2.2654,1.48818 -4.83485,2.8264 -7.38443,3.67627c-2.25878,0.75293 -4.36148,0.61196 -6.65046,0.58333c0.00083,0.78262 -1.14181,1.21757 -1.12728,2.1624v0.25c0,0 0,0.25 -0.25,0.25c-0.25,0 -0.25,-0.25 -0.25,-0.25v-0.25c0.00738,-0.66288 1.08875,-1.59688 1.13873,-2.16643c-0.04616,-0.00016 -0.0924,-0.00023 -0.13873,-0.00023c0,0 -0.25,0 -0.25,-0.25c0,-0.03385 0.00458,-0.06312 0.01251,-0.08842c-0.80572,-0.17149 -1.89633,0.2306 -2.6467,0.3363c-1.75437,0.24711 -3.3351,0.35534 -5.07598,-0.09116c-2.75817,-0.20679 -5.7326,-0.98607 -8.28127,-2.26988c-0.40607,0.10149 -0.80563,0.21386 -1.18929,0.35392c0.10462,1.23225 0.3474,3.23242 0.3474,3.92591c0,0 0,0.25 -0.25,0.25c-0.25,0 -0.25,-0.25 -0.25,-0.25c0,-0.65291 -0.34532,-2.36405 -0.40967,-3.69303c-0.04141,0.01949 -0.08256,0.03942 -0.12343,0.05986c-2.35498,0.05123 -4.62626,-0.70228 -6.98725,-0.74939c-1.35408,-0.61733 -3.04172,-0.64629 -4.32662,-1.40625c-1.14322,-0.67617 -2.05881,-1.65751 -3.17034,-2.41089c-1.44519,-2.20621 -2.32322,-3.67233 -2.32322,-6.42677c0,-2.39067 -0.17023,-4.76544 0.92219,-6.89618c1.55957,-1.58522 3.8098,-4.45568 4.8345,-6.41126c-0.06712,-1.93279 -0.00669,-3.88895 -0.00669,-5.81756c0,0 0,-0.25 0.25,-0.25c0.25,0 0.25,0.25 0.25,0.25c0,1.98897 0.03686,3.93058 -0.00669,5.93244c-0.9584,1.96159 -3.34851,5.0525 -4.9155,6.58874c-0.98572,2.03971 -0.82781,4.31197 -0.82781,6.60382c0,0.337 0.01313,0.65408 0.03902,0.95525c0.35667,-0.04608 0.79825,-0.36764 1.08448,-0.54c0.93644,-0.61856 2.65594,-3.27765 3.67373,-3.20219c0.50356,0.03734 1.91698,1.79949 2.32636,2.14823c0.75241,0.6454 3.8056,4.09447 4.93184,3.71108c0.8428,-1.01522 2.10504,-2.04543 3.11864,-2.51488c-0.00085,-0.053 0.01261,-0.09339 0.01261,-0.09339c0.35291,-1.00989 -0.42444,-6.00017 1.69063,-4.58488c2.72073,-0.91461 4.61766,-1.2984 7.73784,-0.66818c0.73134,-0.00395 1.29342,-0.10299 2.00967,-0.24636l1.06666,-0.38334c0,0 0.29514,0.30097 0.34417,0.54612l-0.69998,-0.05001c0.04903,0.24515 -0.19611,0.29417 -0.19611,0.29417l-0.41667,0.08334c-0.75778,0.15142 -1.38063,0.25708 -2.15699,0.25364c-3.31423,-0.65741 -4.84193,0.05065 -7.76216,0.66516c-1.46798,-0.81759 -0.89999,2.63819 -1.08598,3.98148c0.27067,-0.07157 0.50711,-0.08201 0.69088,-0.01541c1.34114,0.67683 4.85989,3.78319 6.28014,3.42131c1.00072,-1.67871 2.95656,-3.34837 5.16414,-2.6385c0,0 0.43717,0.02906 0.35811,0.26623c-0.07905,0.23717 -0.51623,0.30812 -0.51623,0.30812c-2.05962,-0.71975 -3.69724,1.06075 -4.70253,2.4615c-1.74734,0.63492 -5.18471,-2.56799 -6.78096,-3.35923c-0.72704,-0.26347 -2.44093,1.12156 -3.54656,2.39975c-0.02269,0.06282 -0.06412,0.10425 -0.06412,0.10425c-0.02942,0.02848 -0.05962,0.05468 -0.09055,0.07869c-0.66537,0.8058 -1.0524,1.53396 -0.74775,1.72959c0.69876,0.91727 1.3605,1.93171 1.73203,3.01923l0.08333,0.25c0,0 0.07905,0.23717 -0.15812,0.31623c-0.23717,0.07906 -0.31622,-0.15812 -0.31622,-0.15812l-0.08334,-0.25c-0.32644,-1.01162 -0.9707,-1.95646 -1.6013,-2.81411c-0.50973,-0.35085 -0.30495,-1.0873 0.25259,-1.89759c-1.60935,-0.23072 -3.96715,-3.06032 -4.87311,-3.83626c-0.54336,-0.46912 -1.46842,-1.76328 -2.08105,-2.03431c-0.18962,-0.08389 -2.86853,2.8237 -3.32627,3.13115c-0.39276,0.2349 -0.84059,0.53069 -1.29696,0.60514c0.24583,1.75099 0.96734,2.98413 2.08287,4.63033c1.08884,0.71255 1.98271,1.66932 3.07965,2.33911c1.22118,0.74565 2.89235,0.70985 4.17338,1.34375c2.26792,-0.07067 4.50434,0.67217 6.76275,0.75061c0.07555,-0.03778 0.15211,-0.07384 0.22959,-0.10833c0.00198,-0.08643 3.73595,-0.53035 6.57517,-2.50313c2.67041,-1.85549 4.44545,-5.21921 4.77315,-6.11931c1.18594,-2.37986 1.02888,-4.60734 -0.12644,-6.93026c-0.29555,-0.88667 -0.89011,-2.48819 -1.57081,-3.16889c-0.60083,-0.60083 -1.74977,-1.12455 -2.125,-1.875c-1.59244,-0.71831 -3.41027,-2.93222 -3.44822,-4.67677c0,-1.375 0,-2.75 0,-4.125l0.19822,-0.30178c0,0 0.17678,-0.17677 0.35356,0zM325.97902,199.75018c-1.04917,1.04916 -2.49429,1.37795 -3.93258,1.70885c2.38045,1.09661 5.05016,1.76225 7.58122,1.96148c1.61703,0.40833 3.71083,-0.16372 5.56558,-0.33383c-0.87419,-0.30772 -1.65944,-0.94674 -2.52425,-1.26207h-0.00001c-2.25608,-0.86767 -4.10863,-1.66272 -6.30788,-2.28873c-0.12885,0.07974 -0.25639,0.15145 -0.38207,0.2143zM344.62633,202.95377c1.79086,-0.59696 3.55159,-1.44151 5.23027,-2.39504c-1.1432,0.40157 -2.28487,0.802 -3.44666,1.18847c-2.02864,0.49768 -5.03436,2.08489 -6.96429,0.79739c-1.21677,-0.93747 -1.76361,0.10965 -2.59846,0.54349c0.38759,0.05183 0.7491,0.15068 1.07497,0.315c0.02395,0.03635 0.04564,0.07196 0.06518,0.10688c2.28999,0.02509 4.38927,0.19371 6.639,-0.5562z" fill="#000000" stroke="none" stroke-width="0.5" stroke-linecap="butt"/><path d="M383.12497,149.80939c0.09022,-0.12194 0.19396,-0.23365 0.30622,-0.33736l-0.00307,-0.00306c-0.15716,0.08506 -0.31325,0.17254 -0.46902,0.2607c0.03735,0.06392 0.09046,0.09067 0.16587,0.07972zM383.7452,149.07893c0.04524,-0.04524 0.10774,-0.07322 0.17678,-0.07322c0.13807,0 0.25,0.11193 0.25,0.25v0.3h-0.03969l0.02066,0.09567c-0.21492,0.23768 -0.41749,0.407 -0.60354,0.51262l-0.03549,0.10646c3.20756,2.12147 0.10489,3.03068 -1.71516,4.96203l-0.27678,0.07322c0,0 -0.25,0 -0.25,-0.25c0,-0.25 0.25,-0.25 0.25,-0.25l-0.04085,0.03896c1.81908,-1.72108 4.71913,-2.40287 1.41222,-4.37458c0,0 -0.17571,-0.10542 -0.11353,-0.28446c-0.07582,-0.05857 -0.14229,-0.13953 -0.19836,-0.24169c-0.2597,0.14693 -0.52013,0.29176 -0.78472,0.42632l-0.07913,0.09665c0,0 -0.17678,0.17677 -0.35355,0c-0.17678,-0.17677 0,-0.35356 0,-0.35356l0.20658,-0.18905c0.29179,-0.14744 0.56762,-0.31476 0.84889,-0.47413c-0.0312,-0.17378 -0.04755,-0.37249 -0.04755,-0.59446c0,0 0,-0.25 0.25,-0.25c0.25,0 0.25,0.25 0.25,0.25c0,0.13024 0.00081,0.24737 0.00385,0.35127c0.06655,-0.03249 0.13398,-0.06381 0.20252,-0.09362c0.51565,-1.03129 2.28005,-1.41933 2.80934,-2.50449c0.39411,-0.80803 0.11972,-1.97095 0.1983,-2.9333c-1.73541,0.83755 -3.72246,1.48114 -4.76801,3.04234l-0.34857,0.10795c0,0 -0.25,0 -0.25,-0.25c0,-0.25 0.25,-0.25 0.25,-0.25l-0.06286,0.10794c1.53602,-2.17356 4.55482,-2.58283 6.55066,-4.15098c1.2377,-0.97248 3.19914,-1.6952 4.00607,-3.11064c0.53207,-0.9333 -0.11435,-3.27675 -0.31408,-4.28598c-0.01468,-3.9831 0.46444,-4.80553 4.44398,-5.66907c2.96623,-0.63562 4.20246,-0.1116 6.80898,-1.84928c0,0 0.49372,0.28989 0.6324,0.49791c0.13867,0.20801 -0.21219,0.06098 -0.21219,0.06098c-2.6647,1.77647 -4.0999,1.13119 -7.12443,1.7793c-3.78429,0.80164 -4.03557,1.38558 -4.05118,5.13091c0.23672,1.1706 0.83112,3.45328 0.25735,4.57117c-0.7716,1.50331 -2.87368,2.27447 -4.13799,3.26787c-0.34509,0.27114 -0.73014,0.50746 -1.13777,0.72518c-0.24626,1.07076 0.20316,2.44676 -0.2915,3.4274c-0.54607,1.08256 -2.16479,1.51121 -2.80011,2.45885z" fill="#000000" stroke="none" stroke-width="0.5" stroke-linecap="butt"/><path d="M394.47198,173.57762c0,-0.12504 0.06254,-0.18754 0.12506,-0.21878c-0.13504,-0.75371 -0.32506,-1.56442 -0.32506,-2.08122c0,-0.91568 0.05373,-4.18812 -0.62677,-4.82323c-0.73024,-0.68153 -1.89575,-0.95878 -2.65466,-1.76411c-2.02987,-0.64222 -5.62201,-1.75428 -7.14534,-3.23589c0,0 -0.17678,-0.17677 0,-0.35355c0.17678,-0.17677 0.35355,0 0.35355,0c1.41638,1.46899 5.12101,2.4912 7.05466,3.16411c0.78659,0.75627 2.05111,1.11771 2.74534,1.83589c0.82961,0.85822 0.77322,4.04062 0.77322,5.17677c0,0.48671 0.14037,1.14684 0.26423,1.80272c0.15961,-0.10217 0.33153,-0.1787 0.54573,-0.24948c1.74349,-0.00763 3.12665,0.73716 4.9,0.5c1.066,-0.14256 2.04372,-1.46753 3.21342,-1.69222c0.11248,0.10984 0.22315,0.22114 0.3323,0.33366c0.92917,-1.71605 2.17436,-3.46387 3.37677,-4.61784c0.58475,-2.589 -0.52594,-5.67383 -1.44926,-8.02887c-1.29732,-1.93355 1.14947,-4.26492 3.18775,-4.98512c0,0 0.23717,-0.07906 0.31623,0.15811c0.07905,0.23717 -0.15812,0.31623 -0.15812,0.31623c-1.82623,0.55675 -3.97001,2.66895 -2.90285,4.27898c0.98777,2.48702 2.16111,5.79154 1.44134,8.50702c-1.27008,1.31359 -2.47028,3.06421 -3.42068,4.786c1.52031,1.65197 2.80417,3.49182 4.7418,4.78281c0,0 0.20801,0.13868 0.06933,0.34669c-0.13867,0.20801 -0.34668,0.06933 -0.34668,0.06933c-1.76955,-1.18037 -3.48557,-2.8645 -4.76741,-4.63492c-0.2285,0.43727 -0.43938,0.86932 -0.62962,1.28835c0.52309,1.12501 -0.57986,3.90744 -1.05286,5.29476c0.02317,0.03508 0.03858,0.08173 0.03858,0.1438c0,0.25 -0.25,0.25 -0.25,0.25l-0.33717,-0.32906c0.4436,-1.28073 1.59031,-4.1161 1.10149,-5.35391c0.20477,-0.56359 0.47248,-1.16882 0.78608,-1.78599c-0.07654,-0.11386 -0.15116,-0.22791 -0.22378,-0.34205c-1.58553,0.63032 -2.62387,1.90301 -4.42068,1.91094c-1.21866,0.00538 -2.22908,-0.69739 -3.4659,-0.70316c-0.21914,0.07406 -0.37309,0.16617 -0.52898,0.30279c0.0872,0.54537 0.13038,1.0514 0.03224,1.40788c-0.27154,0.98641 -2.07285,2.20557 -2.87046,2.84421c-1.12419,1.02837 -1.65322,2.38105 -2.21311,3.68042c1.25332,0.30892 5.18349,1.19359 5.91703,0.3876l0.04645,-0.04645c0,0 0.17677,-0.17677 0.35355,0c0.17678,0.17677 0,0.35355 0,0.35355l-0.04645,0.04645c-1.07853,1.01175 -5.02629,0.08478 -6.47446,-0.27657c-0.63654,1.41507 -1.40233,2.70982 -3.14097,3.37537c-0.49649,0.33314 -1.37561,0.47216 -1.74149,0.85805l-0.27341,0.06992c0,0 -0.25,0 -0.25,-0.25c0,-0.25 0.25,-0.25 0.25,-0.25l-0.07341,0.06992c0.48365,-0.44048 1.27824,-0.55744 1.85851,-0.94195c3.36036,-1.2977 3.03936,-5.17638 5.46118,-7.45493c0.71448,-0.57108 2.45023,-1.72383 2.71041,-2.58048c0.07864,-0.25895 0.05683,-0.65335 -0.00625,-1.09839c-0.07288,-0.01458 -0.20043,-0.0656 -0.20043,-0.24417z" fill="#000000" stroke="none" stroke-width="0.5" stroke-linecap="butt"/><path d="M254.29615,152.17969c0,0 2.82804,-2.0901 4.66667,-3.16667c1.83863,-1.07656 11.51652,-11.07552 20.83333,-11.5c20.09051,-0.91533 23.4855,20.798 24.5,21.66667c4.75061,4.06774 2.83333,3.16667 2.83333,3.16667c0,0 -3.22812,2.37103 -5.33333,3.83333c-2.10522,1.46231 -4.94269,16.85816 -22.5,15.5c-23.94734,-1.85246 -20.2889,-20.21906 -22.33333,-22.66667c-3.68979,-4.41743 -2.66667,-6.83333 -2.66667,-6.83333z" fill="#000000" stroke="#000000" stroke-width="0.5" stroke-linecap="round"/></g></g></svg>