<svg version="1.1" xmlns="http://www.w3.org/2000/svg" xmlns:xlink="http://www.w3.org/1999/xlink" width="246.44769" height="313.35583" viewBox="0,0,246.44769,313.35583"><defs><linearGradient x1="414.27445" y1="269.80163" x2="431.44782" y2="265.2577" gradientUnits="userSpaceOnUse" id="color-1"><stop offset="0" stop-color="#5b3c62"/><stop offset="1" stop-color="#381f41"/></linearGradient><linearGradient x1="397.05633" y1="213.14056" x2="417.63161" y2="207.69651" gradientUnits="userSpaceOnUse" id="color-2"><stop offset="0" stop-color="#5b3c62"/><stop offset="1" stop-color="#381f41"/></linearGradient><radialGradient cx="371.21693" cy="169.03129" r="14.07444" gradientUnits="userSpaceOnUse" id="color-3"><stop offset="0" stop-color="#5b3c62"/><stop offset="1" stop-color="#381f41"/></radialGradient><linearGradient x1="383.79395" y1="169.41362" x2="399.94083" y2="230.43928" gradientUnits="userSpaceOnUse" id="color-4"><stop offset="0" stop-color="#381f41"/><stop offset="1" stop-color="#5b3c62"/></linearGradient><linearGradient x1="402.71507" y1="241.79086" x2="430.79788" y2="234.36039" gradientUnits="userSpaceOnUse" id="color-5"><stop offset="0" stop-color="#5b3c62"/><stop offset="1" stop-color="#381f41"/></linearGradient><linearGradient x1="418.67536" y1="286.69913" x2="438.09261" y2="281.56148" gradientUnits="userSpaceOnUse" id="color-6"><stop offset="0" stop-color="#5b3c62"/><stop offset="1" stop-color="#381f41"/></linearGradient><linearGradient x1="416.67287" y1="285.99977" x2="403.9747" y2="289.3596" gradientUnits="userSpaceOnUse" id="color-7"><stop offset="0" stop-color="#4d3354"/><stop offset="1" stop-color="#381f41"/></linearGradient><linearGradient x1="414.21742" y1="298.31167" x2="405.1779" y2="300.70345" gradientUnits="userSpaceOnUse" id="color-8"><stop offset="0" stop-color="#4d3354"/><stop offset="1" stop-color="#381f41"/></linearGradient><linearGradient x1="435.84325" y1="315.33801" x2="421.98294" y2="319.00534" gradientUnits="userSpaceOnUse" id="color-9"><stop offset="0" stop-color="#4d3354"/><stop offset="1" stop-color="#381f41"/></linearGradient><linearGradient x1="437.95803" y1="302.92035" x2="429.01519" y2="305.28655" gradientUnits="userSpaceOnUse" id="color-10"><stop offset="0" stop-color="#4d3354"/><stop offset="1" stop-color="#381f41"/></linearGradient><linearGradient x1="432.18209" y1="314.63951" x2="418.32177" y2="318.30684" gradientUnits="userSpaceOnUse" id="color-11"><stop offset="0" stop-color="#4d3354"/><stop offset="1" stop-color="#381f41"/></linearGradient><linearGradient x1="434.85402" y1="300.57365" x2="425.91119" y2="302.93984" gradientUnits="userSpaceOnUse" id="color-12"><stop offset="0" stop-color="#4d3354"/><stop offset="1" stop-color="#381f41"/></linearGradient><linearGradient x1="426.93938" y1="313.59452" x2="413.07908" y2="317.26184" gradientUnits="userSpaceOnUse" id="color-13"><stop offset="0" stop-color="#4d3354"/><stop offset="1" stop-color="#381f41"/></linearGradient><linearGradient x1="429.61133" y1="299.52865" x2="420.66849" y2="301.89485" gradientUnits="userSpaceOnUse" id="color-14"><stop offset="0" stop-color="#4d3354"/><stop offset="1" stop-color="#381f41"/></linearGradient><radialGradient cx="318.78689" cy="87.21725" r="64.703" gradientUnits="userSpaceOnUse" id="color-15"><stop offset="0" stop-color="#603f68"/><stop offset="1" stop-color="#3b2244"/></radialGradient><radialGradient cx="312.02572" cy="106.80252" r="64.91902" gradientUnits="userSpaceOnUse" id="color-16"><stop offset="0" stop-color="#9d9692"/><stop offset="1" stop-color="#877d7b"/></radialGradient><radialGradient cx="354.35539" cy="118.27132" r="6.56415" gradientUnits="userSpaceOnUse" id="color-17"><stop offset="0" stop-color="#000000" stop-opacity="0.47451"/><stop offset="1" stop-color="#000000" stop-opacity="0"/></radialGradient><radialGradient cx="278.42503" cy="115.90518" r="10.03879" gradientUnits="userSpaceOnUse" id="color-18"><stop offset="0" stop-color="#ffffff" stop-opacity="0.16863"/><stop offset="1" stop-color="#ffffff" stop-opacity="0"/></radialGradient><radialGradient cx="316.42982" cy="113.04462" r="29.02335" gradientUnits="userSpaceOnUse" id="color-19"><stop offset="0" stop-color="#9d9692"/><stop offset="1" stop-color="#716866"/></radialGradient><radialGradient cx="317.55282" cy="143.15997" r="23.19389" gradientUnits="userSpaceOnUse" id="color-20"><stop offset="0" stop-color="#9d9692"/><stop offset="1" stop-color="#716866"/></radialGradient><radialGradient cx="336.116" cy="87.30901" r="14.24427" gradientUnits="userSpaceOnUse" id="color-21"><stop offset="0" stop-color="#c5c1b6"/><stop offset="1" stop-color="#85827a"/></radialGradient><radialGradient cx="336.03844" cy="87.98818" r="8.31619" gradientUnits="userSpaceOnUse" id="color-22"><stop offset="0" stop-color="#491a0c"/><stop offset="1" stop-color="#230b06"/></radialGradient><radialGradient cx="369.90065" cy="36.59411" r="20.12997" gradientUnits="userSpaceOnUse" id="color-23"><stop offset="0" stop-color="#603f68"/><stop offset="1" stop-color="#381f41"/></radialGradient><linearGradient x1="370.94546" y1="23.51235" x2="369.99117" y2="48.16411" gradientUnits="userSpaceOnUse" id="color-24"><stop offset="0" stop-color="#9d9692"/><stop offset="1" stop-color="#877d7b"/></linearGradient><radialGradient cx="273.16035" cy="32.13135" r="20.12997" gradientUnits="userSpaceOnUse" id="color-25"><stop offset="0" stop-color="#603f68"/><stop offset="1" stop-color="#381f41"/></radialGradient><linearGradient x1="273.12996" y1="19.00799" x2="272.17567" y2="43.65972" gradientUnits="userSpaceOnUse" id="color-26"><stop offset="0" stop-color="#9d9692"/><stop offset="1" stop-color="#877d7b"/></linearGradient><linearGradient x1="203.74161" y1="236.45138" x2="233.16699" y2="242.7893" gradientUnits="userSpaceOnUse" id="color-27"><stop offset="0" stop-color="#4d3354"/><stop offset="1" stop-color="#381f41"/></linearGradient><radialGradient cx="267.6402" cy="174.50622" r="3.2565" gradientUnits="userSpaceOnUse" id="color-28"><stop offset="0" stop-color="#f2f2ff" stop-opacity="0.12941"/><stop offset="1" stop-color="#f2f2ff" stop-opacity="0"/></radialGradient><radialGradient cx="228.03559" cy="210.13469" r="2.9852" gradientUnits="userSpaceOnUse" id="color-29"><stop offset="0" stop-color="#ffffff" stop-opacity="0.12941"/><stop offset="1" stop-color="#ffffff" stop-opacity="0"/></radialGradient><linearGradient x1="229.15294" y1="184.15215" x2="280.08109" y2="195.12155" gradientUnits="userSpaceOnUse" id="color-30"><stop offset="0" stop-color="#4d3354"/><stop offset="1" stop-color="#381f41"/></linearGradient><linearGradient x1="258.86383" y1="163.74632" x2="285.86215" y2="169.56148" gradientUnits="userSpaceOnUse" id="color-31"><stop offset="0" stop-color="#381f41"/><stop offset="1" stop-color="#5b3c62"/></linearGradient><linearGradient x1="219.06304" y1="210.13824" x2="237.38173" y2="214.0839" gradientUnits="userSpaceOnUse" id="color-32"><stop offset="0" stop-color="#4d3354"/><stop offset="1" stop-color="#381f41"/></linearGradient><linearGradient x1="197.56527" y1="262.2519" x2="217.6371" y2="266.57516" gradientUnits="userSpaceOnUse" id="color-33"><stop offset="0" stop-color="#4d3354"/><stop offset="1" stop-color="#381f41"/></linearGradient><linearGradient x1="193.60436" y1="310.30531" x2="206.16938" y2="313.01169" gradientUnits="userSpaceOnUse" id="color-34"><stop offset="0" stop-color="#4d3354"/><stop offset="1" stop-color="#381f41"/></linearGradient><linearGradient x1="191.23821" y1="299.06286" x2="199.34531" y2="300.80904" gradientUnits="userSpaceOnUse" id="color-35"><stop offset="0" stop-color="#4d3354"/><stop offset="1" stop-color="#381f41"/></linearGradient><linearGradient x1="195.78644" y1="279.02738" x2="210.93828" y2="282.29093" gradientUnits="userSpaceOnUse" id="color-36"><stop offset="0" stop-color="#4d3354"/><stop offset="1" stop-color="#381f41"/></linearGradient><linearGradient x1="196.86025" y1="309.49759" x2="209.42526" y2="312.20396" gradientUnits="userSpaceOnUse" id="color-37"><stop offset="0" stop-color="#4d3354"/><stop offset="1" stop-color="#381f41"/></linearGradient><linearGradient x1="193.93219" y1="296.77574" x2="202.03929" y2="298.52192" gradientUnits="userSpaceOnUse" id="color-38"><stop offset="0" stop-color="#4d3354"/><stop offset="1" stop-color="#381f41"/></linearGradient><linearGradient x1="207.95612" y1="278.7617" x2="217.49319" y2="280.81588" gradientUnits="userSpaceOnUse" id="color-39"><stop offset="0" stop-color="#4d3354"/><stop offset="1" stop-color="#381f41"/></linearGradient><linearGradient x1="209.59232" y1="290.64692" x2="216.38153" y2="292.10925" gradientUnits="userSpaceOnUse" id="color-40"><stop offset="0" stop-color="#4d3354"/><stop offset="1" stop-color="#381f41"/></linearGradient><linearGradient x1="201.5209" y1="308.30008" x2="214.08592" y2="311.00646" gradientUnits="userSpaceOnUse" id="color-41"><stop offset="0" stop-color="#4d3354"/><stop offset="1" stop-color="#381f41"/></linearGradient><linearGradient x1="198.59285" y1="295.57823" x2="206.69995" y2="297.32442" gradientUnits="userSpaceOnUse" id="color-42"><stop offset="0" stop-color="#4d3354"/><stop offset="1" stop-color="#381f41"/></linearGradient><radialGradient cx="317.35393" cy="225.97593" r="65.08838" gradientUnits="userSpaceOnUse" id="color-43"><stop offset="0" stop-color="#5b3c62"/><stop offset="1" stop-color="#381f41"/></radialGradient><radialGradient cx="318.12387" cy="219.72421" r="49.48008" gradientUnits="userSpaceOnUse" id="color-44"><stop offset="0" stop-color="#9d9692"/><stop offset="1" stop-color="#716866"/></radialGradient><linearGradient x1="333.14018" y1="164.09948" x2="336.08794" y2="184.83726" gradientUnits="userSpaceOnUse" id="color-45"><stop offset="0" stop-color="#732330"/><stop offset="1" stop-color="#5a1b26"/></linearGradient><linearGradient x1="318.8078" y1="170.62894" x2="357.60919" y2="165.11354" gradientUnits="userSpaceOnUse" id="color-46"><stop offset="0" stop-color="#732330"/><stop offset="1" stop-color="#5a1b26"/></linearGradient><linearGradient x1="298.52057" y1="167.57136" x2="301.46834" y2="188.30915" gradientUnits="userSpaceOnUse" id="color-47"><stop offset="0" stop-color="#732330"/><stop offset="1" stop-color="#5a1b26"/></linearGradient><linearGradient x1="277.53792" y1="173.1623" x2="318.22595" y2="167.37873" gradientUnits="userSpaceOnUse" id="color-48"><stop offset="0" stop-color="#732330"/><stop offset="1" stop-color="#5a1b26"/></linearGradient><linearGradient x1="309.51678" y1="168.47177" x2="322.86851" y2="166.5739" gradientUnits="userSpaceOnUse" id="color-49"><stop offset="0" stop-color="#732330"/><stop offset="1" stop-color="#5a1b26"/></linearGradient><radialGradient cx="317.86204" cy="289.28566" r="36.94287" gradientUnits="userSpaceOnUse" id="color-50"><stop offset="0" stop-color="#5b3c62"/><stop offset="1" stop-color="#381f41"/></radialGradient></defs><g transform="translate(-191.43188,-11.63062)"><g data-paper-data="{&quot;isPaintingLayer&quot;:true}" fill-rule="nonzero" stroke-linecap="butt" stroke-linejoin="miter" stroke-miterlimit="10" stroke-dasharray="" stroke-dashoffset="0" style="mix-blend-mode: normal"><g stroke="none" stroke-width="0"><path d="M431.44782,265.2577c1.27892,4.83357 -1.52871,9.7691 -6.271,11.02387c-4.74231,1.25478 -9.62346,-1.6464 -10.90237,-6.47994c-1.27892,-4.83357 1.52871,-9.7691 6.27101,-11.02387c4.74231,-1.25478 9.62345,1.6464 10.90236,6.47994z" fill="url(#color-1)"/><path d="M417.63161,207.69651c1.53226,5.79105 -1.83154,11.70429 -7.51325,13.20762c-5.68171,1.50333 -11.52977,-1.97254 -13.06203,-7.76358c-1.53226,-5.79105 1.83152,-11.70428 7.51323,-13.20762c5.68171,-1.50333 11.52979,1.97253 13.06205,7.76357z" fill="url(#color-2)"/><path d="M376.77355,166.19464c1.98828,7.51452 -2.37662,15.18761 -9.74927,17.13835c-7.37265,1.95074 -14.96118,-2.55959 -16.94945,-10.07409c-1.98828,-7.51452 2.37662,-15.18761 9.74927,-17.13835c7.37265,-1.95074 14.96118,2.55959 16.94945,10.07409z" fill="url(#color-3)"/><path d="M414.55496,195.40756c2.59961,9.825 -2.79167,5.89833 -5.76998,7.81997c-2.13006,1.37433 -0.98822,9.55066 -4.16303,10.39069c-7.61394,2.01458 -41.45029,-13.29634 -45.90913,-30.1481c-1.48612,-5.61666 6.84383,-8.17487 7.79651,-12.16437c1.90566,-7.98026 1.31729,-12.50774 6.39351,-13.85087c7.61394,-2.01458 37.19328,21.10092 41.65211,37.95268z" fill="url(#color-4)"/><path d="M424.75388,211.51815c4.0979,15.48762 14.17622,53.12622 7.63534,54.85688c-2.81875,0.74582 -3.56877,-3.66197 -7.46461,-2.06396c-5.14441,2.11013 -13.40409,9.40253 -15.73603,0.5892c-4.0979,-15.48762 -14.87757,-47.56645 -8.33669,-49.29711c6.54088,-1.73066 19.80409,-19.57262 23.90199,-4.085z" fill="url(#color-5)"/><g><path d="M434.58476,279.52154c1.7734,6.7024 2.37216,15.32583 -2.98975,16.74455c-5.36192,1.41872 -10.16135,5.53178 -11.93475,-1.17062c-1.7734,-6.7024 -8.3544,-20.17385 -2.99247,-21.59257c5.36192,-1.41872 16.14358,-0.68376 17.91698,6.01864z" fill="url(#color-6)"/><path d="M412.30753,280.45125c2.11422,-0.5594 2.93274,0.1341 3.75357,3.23636c0.82083,3.10226 -0.80088,9.19038 -2.9151,9.74978c-2.11422,0.5594 -7.27416,3.09227 -8.095,-0.01c-0.82083,-3.10226 5.1423,-12.41674 7.25653,-12.97615z" data-paper-data="{&quot;index&quot;:null}" fill="url(#color-7)"/><path d="M410.35469,291.94988c2.62987,-0.69584 2.79815,2.64604 3.74058,6.20789c0.94244,3.56185 0.27491,7.47029 -2.27499,8.39318c-4.5739,1.65543 -6.92031,-6.8979 -7.86275,-10.45976c-0.94244,-3.56186 3.76728,-3.44546 6.39716,-4.14131z" data-paper-data="{&quot;index&quot;:null}" fill="url(#color-8)"/><path d="M435.18424,312.90341c0.73716,4.43688 -6.22638,15.51857 -11.89603,11.0351c-0.77409,-4.81279 5.40235,-13.94062 7.58115,-14.51712c2.17881,-0.5765 4.03552,1.80053 4.31488,3.48203z" data-paper-data="{&quot;index&quot;:null}" fill="url(#color-9)"/><path d="M432.08319,292.96817c3.00883,-0.18705 5.05945,4.55316 5.64505,10.75315c0.58559,6.19998 -0.51561,11.51194 -3.52445,11.69897c-3.00883,0.18705 -4.13121,-4.79876 -4.7168,-10.99875c-0.58559,-6.19998 -0.41265,-11.26633 2.59619,-11.45336z" data-paper-data="{&quot;index&quot;:null}" fill="url(#color-10)"/><path d="M431.59133,312.46277c0.61602,3.97905 -6.58915,14.14751 -12.10231,10.25547c-0.64287,-4.31685 5.72955,-12.70399 7.90835,-13.28048c2.17881,-0.5765 3.9605,1.51702 4.19396,3.02501z" data-paper-data="{&quot;index&quot;:null}" fill="url(#color-11)"/><path d="M429.28009,291.7588c2.99291,-0.24724 4.90536,3.97081 5.32476,9.54265c0.41939,5.57185 -0.81312,10.38754 -3.80602,10.63479c-2.99291,0.24724 -3.97712,-4.21641 -4.39651,-9.78826c-0.41939,-5.57185 -0.11514,-10.14193 2.87776,-10.38918z" data-paper-data="{&quot;index&quot;:null}" fill="url(#color-12)"/><path d="M426.34863,311.41777c0.61602,3.97905 -6.58915,14.14751 -12.10231,10.25547c-0.64287,-4.31685 5.72955,-12.70399 7.90835,-13.28048c2.17881,-0.5765 3.9605,1.51702 4.19396,3.02501z" data-paper-data="{&quot;index&quot;:null}" fill="url(#color-13)"/><path d="M424.0374,290.7138c2.99291,-0.24724 4.90536,3.97081 5.32476,9.54265c0.41939,5.57185 -0.81312,10.38754 -3.80602,10.63479c-2.99291,0.24724 -3.97712,-4.21641 -4.39651,-9.78826c-0.41939,-5.57185 -0.11514,-10.14193 2.87776,-10.38918z" data-paper-data="{&quot;index&quot;:null}" fill="url(#color-14)"/></g></g><g><g fill="#545656" stroke="none" stroke-width="0"><path d="M312.03112,155.9876l0.64745,-16.72534l11.46881,0.44397l-0.64745,16.72534z"/><path d="M307.66635,154.38289l0.51796,-13.38027l2.38934,0.09249l-0.51796,13.38027z"/><path d="M325.70313,156.69633l0.51796,-13.38027l2.38934,0.09249l-0.51796,13.38027z"/></g><g data-paper-data="{&quot;index&quot;:null}" fill="#545656" stroke="none" stroke-width="0"><path d="M355.00376,56.22402l12.70515,-15.77197l2.97779,3.78358l-12.70515,15.77198z"/><path d="M348.7977,46.99241l12.70515,-15.77197l2.97779,3.78358l-12.70515,15.77197z"/></g><g fill="#545656" stroke="none" stroke-width="0"><path d="M284.85737,55.74117l-11.48855,-15.65581l3.2522,-3.30498l11.48855,15.65581z"/><path d="M291.73603,47.59807l-11.48855,-15.65581l3.2522,-3.30497l11.48855,15.65581z"/></g><path d="M382.7461,92.78974c-0.17763,4.58862 0.15869,12.89526 -9.55556,23.31993c-9.06206,9.7248 -18.61453,19.40064 -27.3294,22.87548c-4.75955,1.89775 -26.96278,-6.3853 -32.54448,-6.02187c-12.66345,0.8245 -9.73673,7.71967 -21.16763,5.56217c-15.31759,-2.8911 -30.33769,-24.53177 -36.51666,-37.18933c-2.7172,-5.56617 -1.68799,-8.15824 -1.66525,-8.74566c0.05936,-1.53344 11.51454,1.15705 11.80322,-0.26837c4.59289,-22.67798 16.0707,-55.67578 40.57846,-57.23962c15.34412,-0.97912 35.75122,-1.29072 47.65924,10.84332c10.47773,9.1809 19.41352,37.48818 23.06672,48.87725c8.5763,6.33931 5.74191,-3.83684 5.67132,-2.01328z" fill="url(#color-15)" stroke="none" stroke-width="0"/><path d="M288.98381,138.01491l-16.1827,-39.39167l74.54724,2.88578l-2.54506,34.83805c0,0 2.174,5.33703 -5.25323,7.70447c-8.93476,2.84797 -28.0742,2.82532 -32.68385,2.96305c-9.92405,0.29652 -17.88241,-8.99969 -17.88241,-8.99969z" fill="#000000" stroke="none" stroke-width="0"/><path d="M340.38554,123.0655c-0.15544,4.01533 -2.37045,11.49678 -4.23673,11.42454c-1.86627,-0.07224 -2.67711,-7.67084 -2.52168,-11.68616c0.15544,-4.01533 6.91384,-3.75371 6.75841,0.26162z" fill="#7c7769" stroke="none" stroke-width="0"/><path d="M301.23172,122.50699c-0.15544,4.01533 -1.55124,11.52849 -3.41752,11.45625c-1.86627,-0.07224 -3.49631,-7.70255 -3.34087,-11.71787c0.15544,-4.01533 6.91384,-3.75371 6.75841,0.26162z" data-paper-data="{&quot;index&quot;:null}" fill="#7c7769" stroke="none" stroke-width="0"/><path d="M291.62167,138.23987c-0.44295,-0.14788 -9.93786,-3.59406 -18.51491,-12.28018c-4.82258,-4.88391 -8.97731,-13.93452 -11.9929,-18.85092c-3.74534,-6.10613 -5.48625,-12.02211 -5.42925,-13.49465c0.05936,-1.53344 11.37365,6.03314 16.98359,3.13868c4.59289,-22.67798 1.31475,-37.96511 25.82251,-39.52895c3.33302,-0.21268 9.58663,2.23383 14.52793,2.93761c12.59501,1.79392 28.16376,-7.74137 37.48513,1.75694c6.30255,6.42216 9.69615,26.51545 7.86739,34.48572c0.14535,0.30281 4.63074,1.03614 9.65816,0.74273c7.54277,-0.4402 16.91144,-6.46472 18.35806,-3.75635c0.18184,0.34044 1.23226,6.38787 -3.69233,14.34822c-8.09036,13.07766 -21.65733,30.21305 -37.58082,33.06125c-4.23362,0.75726 0.81122,-10.46445 -3.43166,-14.22829c-5.94643,-5.27507 -20.71651,-3.8429 -26.10475,-4.17121c-2.24276,-0.13666 -21.37023,-1.22098 -22.76151,3.27811c-1.96309,6.3482 0.01374,12.96471 -1.19466,12.5613z" fill="url(#color-16)" stroke="none" stroke-width="0"/><g><path d="M360.66232,118.51547c-0.15019,3.87985 -3.09565,6.91579 -6.57888,6.78095c-3.48323,-0.13484 -6.1852,-3.38939 -6.03501,-7.26925c0.15019,-3.87985 3.09567,-6.91579 6.5789,-6.78095c3.48323,0.13484 6.18518,3.38939 6.03499,7.26924z" fill="url(#color-17)" stroke="none" stroke-width="0"/><path d="M364.26763,117.97327c-0.2649,6.84303 -5.02986,12.21427 -10.64284,11.99699c-5.61298,-0.21728 -9.94847,-5.9408 -9.68357,-12.78383c0.2649,-6.84303 5.02986,-12.21427 10.64285,-11.99698c5.61298,0.21728 9.94846,5.94079 9.68356,12.78383z" fill="none" stroke-opacity="0.32549" stroke="#45413f" stroke-width="0.5"/><path d="M356.11086,118.60988c-0.06932,1.79071 -1.42443,3.19206 -3.0267,3.13003c-1.60228,-0.06203 -2.84501,-1.56396 -2.77569,-3.35465c0.06932,-1.79071 1.42443,-3.19206 3.02672,-3.13003c1.60228,0.06203 2.84499,1.56396 2.77567,3.35465z" fill="#5c5653" stroke="none" stroke-width="0"/><path d="M354.84947,118.56105c-0.03466,0.89534 -0.74045,1.59494 -1.57642,1.56258c-0.83597,-0.03236 -1.48557,-0.78443 -1.45091,-1.67977c0.03466,-0.89534 0.74045,-1.59494 1.57642,-1.56258c0.83597,0.03236 1.48557,0.78443 1.45091,1.67977z" fill="#000000" stroke="none" stroke-width="0"/></g><g stroke="none" stroke-width="0"><path d="M287.97246,115.04506c-0.20962,5.41506 -1.95171,13.69058 -11.10889,12.06756c-4.63385,-0.82132 -9.25371,-6.72787 -8.09614,-14.78429c0.77072,-5.36403 5.67449,-7.90847 10.37705,-7.72643c4.70256,0.18204 9.0376,5.02809 8.82798,10.44317z" fill="#792632"/><path d="M287.36197,116.25114c-0.21446,5.54012 -4.38952,9.87639 -9.32527,9.68532c-4.93574,-0.19107 -8.7631,-4.83711 -8.54864,-10.37723c0.21446,-5.54012 4.38954,-9.87638 9.32527,-9.68531c4.93574,0.19107 8.7631,4.83709 8.54864,10.37722z" fill="url(#color-18)"/></g><g stroke="none"><path d="M344.12999,121.79794c-1.68915,4.95858 -11.58508,6.72039 -21.61711,5.5853c-5.11574,-0.42638 -6.56415,-3.78928 -8.12327,-3.71276c-1.71623,0.45134 -0.86748,3.6086 -12.84614,3.5551c-14.21694,-0.06348 -15.7706,-8.20787 -13.34994,-16.41258c2.20689,-7.48013 10.46994,-11.70129 21.57406,-12.49145c1.88876,-0.13441 3.87165,-0.16315 5.9369,-0.0832c8.88347,0.34389 35.78081,1.9678 28.42553,23.55958z" fill="url(#color-19)" stroke-width="0"/><path d="M329.5142,106.97401c0.02299,-0.59382 0.53521,-1.0561 1.14408,-1.03253c0.60886,0.02357 1.0838,0.52407 1.06081,1.11788c-0.02299,0.59383 -0.53519,1.0561 -1.14406,1.03253c-0.60886,-0.02357 -1.08382,-0.52405 -1.06083,-1.11788z" fill="#000000" stroke-width="0.5"/><path d="M335.61117,107.92791c0.02299,-0.59382 0.53519,-1.0561 1.14406,-1.03253c0.60886,0.02357 1.08382,0.52407 1.06083,1.11788c-0.02299,0.59383 -0.53521,1.0561 -1.14408,1.03253c-0.60886,-0.02357 -1.0838,-0.52405 -1.06081,-1.11788z" fill="#000000" stroke-width="0.5"/><path d="M332.50482,112.11491c0.02299,-0.59382 0.53521,-1.0561 1.14408,-1.03253c0.60886,0.02357 1.08382,0.52407 1.06083,1.11788c-0.02299,0.59383 -0.53521,1.0561 -1.14408,1.03253c-0.60886,-0.02357 -1.08382,-0.52405 -1.06083,-1.11788z" fill="#000000" stroke-width="0.5"/><path d="M290.9955,106.91868c0.02299,-0.59382 0.53519,-1.0561 1.14406,-1.03253c0.60886,0.02357 1.08382,0.52407 1.06083,1.11788c-0.02299,0.59383 -0.53521,1.0561 -1.14408,1.03253c-0.60886,-0.02357 -1.0838,-0.52405 -1.06081,-1.11788z" fill="#000000" stroke-width="0.5"/><path d="M294.01387,111.34277c0.02299,-0.59382 0.53519,-1.0561 1.14406,-1.03253c0.60886,0.02357 1.08382,0.52407 1.06083,1.11788c-0.02299,0.59383 -0.53521,1.0561 -1.14408,1.03253c-0.60886,-0.02357 -1.0838,-0.52405 -1.06081,-1.11788z" fill="#000000" stroke-width="0.5"/><path d="M297.39295,106.44846c0.02299,-0.59382 0.53521,-1.0561 1.14408,-1.03253c0.60886,0.02357 1.0838,0.52407 1.06081,1.11788c-0.02299,0.59383 -0.53519,1.0561 -1.14406,1.03253c-0.60886,-0.02357 -1.08382,-0.52405 -1.06083,-1.11788z" fill="#000000" stroke-width="0.5"/></g><path d="M319.62273,100.12571c-0.1111,2.87011 -5.37031,7.73768 -6.95382,7.67638c-1.58351,-0.0613 -6.36987,-7.91479 -5.52291,-9.0567c0.94404,-1.27282 12.58784,-1.48979 12.47673,1.38032z" fill="#000000" stroke="none" stroke-width="0"/><path d="M308.9084,141.43472l0.19027,-4.9152l5.5296,0.21405l-0.19027,4.9152z" fill="#7c7769" stroke="none" stroke-width="NaN"/><path d="M316.6591,142.55518l0.21405,-5.5296l5.32481,0.20613l-0.21405,5.5296z" fill="#7c7769" stroke="none" stroke-width="0"/><path d="M303.40259,140.60626l0.18234,-4.71039l4.3008,0.16649l-0.18234,4.71039z" fill="#7c7769" stroke="none" stroke-width="0"/><path d="M324.67801,142.04517l0.22198,-5.73441l5.93921,0.22991l-0.22198,5.73441z" fill="#7c7769" stroke="none" stroke-width="0"/><path d="M342.41475,141.72947c-0.16346,4.2227 -9.38582,6.97494 -22.18587,6.47944c-6.31766,-0.24456 -20.3265,-0.06197 -24.39368,-4.17169c-4.17323,-4.21689 -2.97353,-10.33413 -1.62878,-12.10473c2.55592,-3.3653 -2.80824,5.42918 9.99182,5.92468c4.57206,0.17699 14.02009,1.69664 21.1245,1.01101c2.9399,-0.28372 9.46588,-1.19951 10.62409,-2.0958c0.59572,-0.46099 2.20982,-1.02415 3.21904,-1.34086c2.92354,-0.91747 3.29232,5.1754 3.24887,6.29797z" fill="url(#color-20)" stroke="none" stroke-width="0"/><path d="M350.71019,63.66481c-0.04859,1.25529 -6.98847,-0.70411 -13.12457,-0.94165c-6.13609,-0.23753 -10.04814,2.6822 -11.64694,1.06666c-3.64366,-3.68179 5.41016,-4.88515 11.54626,-4.64762c6.13609,0.23753 13.27384,3.2673 13.22525,4.52259z" fill="#000000" stroke="none" stroke-width="0"/><path d="M296.12134,58.51956c6.13609,0.23753 12.9851,0.35663 10.49695,3.91451c-0.51615,1.32479 -5.22341,0.06092 -11.35951,-0.17662c-6.13609,-0.23753 -12.07074,2.74253 -12.03142,1.72685c0.03932,-1.01568 5.08535,-5.76702 12.89399,-5.46474z" data-paper-data="{&quot;index&quot;:null}" fill="#000000" stroke="none" stroke-width="0"/><g stroke="none"><g stroke-width="0"><path d="M308.55289,85.93302c-0.31799,8.21446 -6.33714,15.00952 -14.31125,14.70084c-7.97412,-0.30868 -13.09156,-7.53484 -12.77357,-15.74931c0.31799,-8.21446 5.23419,-14.33434 13.2083,-14.02566c7.97412,0.30868 14.1945,6.85967 13.87651,15.07413z" fill="#0a0b09"/><path d="M307.30064,85.16666c-0.25669,6.63094 -5.59953,11.80764 -11.93359,11.56244c-6.33405,-0.2452 -11.26072,-5.81942 -11.00403,-12.45037c0.25669,-6.63094 5.59953,-11.80764 11.93359,-11.56244c6.33405,0.2452 11.26072,5.81942 11.00403,12.45037z" fill="#050505"/><path d="M298.69904,84.83369c-0.08045,2.07836 -1.83051,3.69798 -3.90888,3.61753c-2.07836,-0.08045 -3.69798,-1.83051 -3.61753,-3.90888c0.08045,-2.07836 1.83051,-3.69798 3.90888,-3.61753c2.07836,0.08045 3.69798,1.83051 3.61753,3.90888z" fill="#000000"/><path d="M307.27903,82.92248c-1.17915,-2.40372 -5.89274,-5.64047 -12.41494,-5.95437c-3.10902,-0.14964 -5.47486,0.00148 -7.60438,0.95443c-2.17119,0.97158 -4.2432,2.52339 -4.64481,2.96836c-0.74471,0.82514 0.26237,-3.95438 2.73112,-6.55351c2.86404,-3.01532 7.47571,-3.97366 10.12947,-3.71677c3.6322,0.3516 7.06098,2.59059 9.72522,5.54119c3.79927,4.20761 3.33193,9.3162 2.0783,6.76066z" fill="#32193a"/></g><path d="M284.5946,80.51254c-0.26323,0.24362 -0.50685,-0.01962 -0.50685,-0.01962l-0.18895,-0.22924c-1.69474,-1.00485 -3.19098,-3.97101 -3.12486,-5.89584c0,0 0.01387,-0.3584 0.37228,-0.34453c0.3584,0.01387 0.34453,0.37228 0.34453,0.37228c-0.07006,1.59982 1.29012,4.46569 2.7612,5.24369l0.36229,0.36639c0,0 0.24361,0.26324 -0.01962,0.50686z" fill="#000000" stroke-width="0.5"/><path d="M285.5469,71.60931c0.3584,0.01387 0.34453,0.37228 0.34453,0.37228l-0.04275,0.12496c0.64717,1.4821 2.66443,5.8264 2.63246,7.15403c0,0 -0.01387,0.3584 -0.37228,0.34453c-0.3584,-0.01387 -0.34453,-0.37228 -0.34453,-0.37228c0.05781,-0.99179 -2.00442,-5.63744 -2.5692,-6.83053l-0.02053,-0.44846c0,0 0.01387,-0.3584 0.37228,-0.34453z" fill="#000000" stroke-width="0.5"/><path d="M293.29944,71.62229c0.3584,0.01387 0.34453,0.37228 0.34453,0.37228l-0.00555,0.14336c-0.0562,1.45191 -0.50577,3.99492 1.05367,4.74486c0,0 0.31437,0.17269 0.14167,0.48704c-0.1727,0.31436 -0.48704,0.14168 -0.48704,0.14168c-1.85404,-1.10477 -1.49872,-3.49917 -1.42508,-5.40134l0.00555,-0.14336c0,0 0.01387,-0.3584 0.37228,-0.34453z" fill="#000000" stroke-width="0.5"/></g><g stroke="none"><path d="M350.34959,87.86c-0.27037,6.98442 -6.86215,12.39972 -14.72316,12.09541c-7.861,-0.30431 -14.01443,-6.21298 -13.74406,-13.1974c0.27037,-6.98442 6.86215,-12.39972 14.72316,-12.09541c7.861,0.30431 14.01443,6.21298 13.74406,13.1974z" fill="url(#color-21)" stroke-width="0"/><path d="M350.13666,85.03619c0,0 -2.2347,-10.07209 -13.55831,-10.48114c-12.21405,-0.54767 -14.29659,9.5381 -14.38737,9.57057c-0.27651,0.66956 1.32619,-12.37197 14.46815,-11.57317c14.32134,0.87048 13.47753,12.48375 13.47753,12.48375z" data-paper-data="{&quot;index&quot;:null}" fill="#32193a" stroke-width="0"/><path d="M344.07684,88.29936c-0.17766,4.58947 -3.9206,8.17065 -8.36008,7.99879c-4.43948,-0.17186 -7.89438,-4.03167 -7.71671,-8.62114c0.17766,-4.58947 3.9206,-8.17065 8.36008,-7.99879c4.43948,0.17186 7.89438,4.03167 7.71671,8.62114z" fill="url(#color-22)" stroke-width="0"/><path d="M339.63819,88.52217c-0.08538,2.20561 -1.89222,3.92633 -4.0357,3.84336c-2.14347,-0.08298 -3.81189,-1.93824 -3.72651,-4.14384c0.08538,-2.20561 1.89222,-3.92633 4.0357,-3.84336c2.14347,0.08298 3.81189,1.93824 3.72651,4.14384z" fill="#010001" stroke-width="0"/><path d="M334.16116,84.82332c-0.0416,1.07453 -1.40485,1.89413 -3.04492,1.83064c-1.64007,-0.06349 -2.93589,-0.98602 -2.89429,-2.06055c0.0416,-1.07453 1.40485,-1.89413 3.04492,-1.83064c1.64007,0.06349 2.93589,0.98602 2.89429,2.06055z" fill-opacity="0.26667" fill="#fff5eb" stroke-width="0"/><path d="M342.13358,94.52128c-0.82652,0.6879 -1.43005,0.36096 -2.48001,-0.90056c-1.04996,-1.26152 -2.14874,-2.97992 -1.32222,-3.66782c0.82652,-0.6879 2.12308,0.28118 3.17303,1.5427c1.04996,1.26152 1.4557,2.33777 0.62919,3.02567z" fill-opacity="0.26667" fill="#fff5eb" stroke-width="0"/><path d="M346.81182,77.78372l0.38953,-0.33728c1.52683,-0.66196 3.10448,-3.41411 3.15831,-5.01454c0,0 0.01387,-0.3584 0.37228,-0.34453c0.3584,0.01387 0.34453,0.37228 0.34453,0.37228c-0.08287,1.92417 -1.80394,4.7658 -3.57129,5.63662l-0.20611,0.21395c0,0 -0.26324,0.24362 -0.50685,-0.01962c-0.24362,-0.26324 0.01962,-0.50686 0.01962,-0.50686z" data-paper-data="{&quot;index&quot;:null}" fill="#000000" stroke-width="0.5"/><path d="M347.86407,69.17039l-0.05514,0.44553c-0.65531,1.14586 -3.07049,5.61819 -3.08953,6.61148c0,0 -0.01387,0.3584 -0.37228,0.34453c-0.3584,-0.01387 -0.34453,-0.37228 -0.34453,-0.37228c0.07076,-1.32614 2.41781,-5.50147 3.17763,-6.92912l-0.03296,-0.12789c0,0 0.01387,-0.3584 0.37228,-0.34453c0.3584,0.01387 0.34453,0.37228 0.34453,0.37228z" data-paper-data="{&quot;index&quot;:null}" fill="#000000" stroke-width="0.5"/><path d="M341.34383,68.0442l-0.0069,0.17831c-0.09159,2.36592 0.0549,5.36687 -1.88873,6.5765c0,0 -0.32829,0.18695 -0.47312,-0.21797c-0.14486,-0.40492 0.18343,-0.59188 0.18343,-0.59188c1.61925,-0.79503 1.39174,-3.9885 1.46165,-5.79439l0.0069,-0.17831c0,0 0.01726,-0.44578 0.37566,-0.4319c0.3584,0.01387 0.34115,0.45965 0.34115,0.45965z" data-paper-data="{&quot;index&quot;:null}" fill="#000000" stroke-width="0.5"/></g><g stroke="none" stroke-width="0"><path d="M389.91974,19.00086c3.50327,5.23118 -7.51126,38.08705 -16.71542,37.73075c-9.20416,-0.3563 -23.62259,-15.64605 -23.21296,-26.22795c0.40963,-10.58188 36.4049,-16.76416 39.92838,-11.5028z" fill="url(#color-23)"/><path d="M382.8185,24.98459c2.16123,3.22723 -4.63386,23.49669 -10.3121,23.27688c-5.67824,-0.21981 -14.57326,-9.65237 -14.32055,-16.18056c0.25271,-6.52819 22.45894,-10.34216 24.63264,-7.09633z" fill="url(#color-24)"/></g><g data-paper-data="{&quot;index&quot;:null}" stroke="none" stroke-width="0"><path d="M293.48088,27.59824c-0.40963,10.58189 -15.9669,24.71127 -25.17106,24.35497c-9.20416,-0.3563 -17.64578,-33.96534 -13.7486,-38.91003c3.91967,-4.97323 39.32929,3.97319 38.91966,14.55506z" fill="url(#color-25)"/><path d="M285.18897,28.53729c-0.25271,6.52819 -9.8503,15.24489 -15.52854,15.02508c-5.67824,-0.21981 -10.88605,-20.95392 -8.48181,-24.00441c2.41812,-3.06809 24.26305,2.45114 24.01034,8.97933z" fill="url(#color-26)"/></g></g><g stroke="none" stroke-width="0"><path d="M236.11118,229.12017c-3.29504,15.29804 -11.40942,41.20292 -19.15526,39.53455c-2.66143,-0.57325 4.42011,-6.87125 -3.96358,-11.22415c-8.81001,-4.57425 -12.74535,4.3146 -13.63969,0.84212c-0.97616,-3.79015 14.92834,-48.89717 22.67417,-47.2288c7.74584,1.66837 17.37941,2.77824 14.08437,18.07628z" fill="url(#color-27)"/><path d="M227.43436,206.77832c0,0 10.24482,-12.64611 16.88776,-19.28652c7.69603,-7.69308 26.5957,-24.18034 26.5957,-24.18034l2.62158,8.26944c0,0 2.46777,11.36442 -3.21711,18.77714c-6.32164,8.24299 -32.70358,27.05245 -32.70358,27.05245z" fill="#150e16"/><g><path d="M270.97107,169.54686c1.70675,0.73479 2.00835,3.49736 0.67363,6.17035c-1.33471,2.67299 -3.80031,4.2442 -5.50704,3.50939c-1.70675,-0.73479 -2.00832,-3.49734 -0.67361,-6.17034c1.33471,-2.67299 3.80028,-4.24421 5.50702,-3.50942z" data-paper-data="{&quot;index&quot;:null}" fill="#39393c"/><path d="M269.45678,170.86818c1.22413,0.52702 1.4032,2.58307 0.39991,4.5923c-1.00328,2.00923 -2.80896,3.21078 -4.03311,2.68375c-1.22413,-0.52702 -1.4032,-2.58307 -0.39991,-4.59228c1.00328,-2.00923 2.80896,-3.2108 4.03311,-2.68375z" data-paper-data="{&quot;index&quot;:null}" fill="url(#color-28)"/><path d="M246.11569,206.7014c-0.58932,0.27385 1.65564,-1.75773 3.10211,-4.47192c0.44827,-0.84114 1.09051,-2.75423 0.35961,-5.57461c-0.72804,-2.80935 -2.63625,-6.49252 -3.79132,-7.56873c-0.03917,-0.0365 -1.13823,-1.21203 -2.54617,-1.30464c-1.2036,-0.07919 -2.7753,0.93164 -2.52728,0.81639c0.47748,-0.22188 3.58282,-3.29687 5.92784,-1.3277c2.39571,2.01172 4.22451,6.06857 4.54262,9.19316c0.62948,6.18308 -4.10211,9.78949 -5.06741,10.23804z" data-paper-data="{&quot;index&quot;:null}" fill="#424246"/><path d="M230.56388,210.46736c-1.01228,2.49688 -3.10152,4.23985 -4.66646,3.89304c-1.56494,-0.3468 -2.01297,-2.65206 -1.0007,-5.14893c1.01228,-2.49688 3.10152,-4.23987 4.66646,-3.89305c1.56494,0.3468 2.01297,2.65208 1.0007,5.14894z" data-paper-data="{&quot;index&quot;:null}" fill="#3a3a3d"/><path d="M230.5312,210.68775c-0.9082,2.24018 -2.76179,3.8086 -4.14008,3.50315c-1.3783,-0.30544 -1.75938,-2.36909 -0.85116,-4.60927c0.9082,-2.24019 2.76179,-3.80861 4.14009,-3.50318c1.3783,0.30544 1.75937,2.3691 0.85116,4.60928z" data-paper-data="{&quot;index&quot;:null}" fill="url(#color-29)"/><path d="M235.53277,211.59062c-0.3626,0.16851 1.01868,-1.08149 1.90868,-2.7515c0.27581,-0.51754 0.67098,-1.69462 0.22127,-3.42997c-0.44795,-1.72856 -1.62205,-3.99475 -2.33274,-4.65692c-0.04468,-0.04164 -3.33318,-2.0138 -3.00206,-2.16766c0.2938,-0.13652 2.08491,-0.16126 3.52776,1.05035c1.47404,1.23779 2.59927,3.73391 2.795,5.65641c0.38732,3.80434 -2.52396,6.0233 -3.11789,6.29929z" data-paper-data="{&quot;index&quot;:null}" fill="#424246"/><path d="M263.69573,184.38038c-0.3626,0.16851 1.01868,-1.0815 1.90868,-2.7515c0.27581,-0.51754 0.67099,-1.69463 0.22126,-3.42996c-0.44795,-1.72856 -1.62205,-3.99475 -2.33274,-4.65692c-0.04468,-0.04164 -3.33318,-2.0138 -3.00206,-2.16766c0.2938,-0.13652 2.08493,-0.16126 3.52776,1.05034c1.47404,1.23778 2.59927,3.73391 2.795,5.65642c0.38732,3.80434 -2.52396,6.0233 -3.11789,6.29929z" data-paper-data="{&quot;index&quot;:null}" fill="#424246"/><path d="M256.92907,194.18236c-0.58932,0.27385 1.65565,-1.75773 3.10213,-4.47192c0.44827,-0.84114 1.09051,-2.75423 0.35961,-5.57461c-0.72804,-2.80935 -2.63626,-6.4925 -3.79132,-7.56873c-0.03917,-0.0365 -1.13823,-1.21203 -2.54615,-1.30464c-1.2036,-0.07919 -2.7753,0.93162 -2.5273,0.81638c0.47748,-0.22188 3.58282,-3.29687 5.92784,-1.3277c2.39571,2.01172 4.22451,6.06855 4.54262,9.19316c0.62948,6.18308 -4.10211,9.78949 -5.06741,10.23804z" data-paper-data="{&quot;index&quot;:null}" fill="#424246"/><path d="M265.61584,176.72788l-35.71059,32.63305l-0.23393,-1.0152l35.71059,-32.63305z" data-paper-data="{&quot;index&quot;:null}" fill="#505054"/><path d="M235.86697,211.35022c-0.52193,0.46172 -2.91872,1.40776 -4.4626,-1.55867c-0.78018,-1.49909 -0.87289,-4.37688 -0.48685,-6.80902c0.37786,-2.38069 1.22373,-4.32983 1.48189,-4.55823c0.29096,-0.2574 -0.42491,2.0419 -0.8557,4.76508c-0.34198,2.16173 -0.12312,4.3022 0.5601,5.61495c1.54388,2.96646 4.28511,2.08417 3.76317,2.5459z" data-paper-data="{&quot;index&quot;:null}" fill="#69696f"/><path d="M257.47225,193.79159c-0.84827,0.75042 -4.74368,2.28801 -7.2529,-2.53327c-1.26802,-2.4364 -1.41867,-7.1136 -0.79128,-11.06646c0.61413,-3.86924 3.50926,-5.08255 3.92887,-5.45376c0.47288,-0.41834 -2.21098,1.36408 -2.91116,5.78996c-0.55582,3.51337 -0.2001,6.99223 0.91031,9.12579c2.50921,4.82126 6.96444,3.38734 6.11617,4.13776z" data-paper-data="{&quot;index&quot;:null}" fill="#69696f"/><path d="M264.02993,184.13996c-0.52193,0.46172 -2.91871,1.40778 -4.46259,-1.55867c-0.78018,-1.49909 -0.87291,-4.37689 -0.48685,-6.80904c0.37786,-2.38069 1.22373,-4.32983 1.48189,-4.55823c0.29096,-0.2574 -0.42491,2.04191 -0.85571,4.76509c-0.34198,2.16173 -0.12312,4.3022 0.5601,5.61495c1.54388,2.96646 4.28511,2.08417 3.76317,2.5459z" data-paper-data="{&quot;index&quot;:null}" fill="#69696f"/><path d="M246.65884,206.31064c-0.84827,0.75042 -4.74369,2.28801 -7.2529,-2.53325c-1.26803,-2.4364 -1.41869,-7.1136 -0.79128,-11.06646c0.61413,-3.86924 3.50926,-5.08255 3.92887,-5.45377c0.47288,-0.41834 -2.21098,1.36408 -2.91117,5.78997c-0.55582,3.51337 -0.2001,6.99223 0.91031,9.12579c2.50921,4.82126 6.96444,3.38734 6.11617,4.13775z" data-paper-data="{&quot;index&quot;:null}" fill="#69696f"/><path d="M256.75752,177.7881c-0.01575,0.6221 -0.71748,-1.28461 -2.25267,-1.85476c-0.47575,-0.17671 -1.70304,-0.09816 -4.15815,2.15397c-2.44552,2.24334 -6.01874,6.39878 -7.29283,8.37381c-0.08011,0.12421 -4.60776,8.43151 -4.59335,7.86344c0.01278,-0.50405 1.10226,-4.19194 3.52261,-8.10052c2.47265,-3.9931 6.30335,-8.22252 8.83404,-10.09155c5.00783,-3.6985 5.9662,0.63665 5.94038,1.65562z" data-paper-data="{&quot;index&quot;:null}" fill="#424246"/><path d="M257.50548,175.95526c0.23762,0.75101 -0.19629,5.1793 -5.11999,11.01472c-2.48819,2.94891 -6.2901,5.55134 -9.18112,6.73987c-2.82986,1.16339 -4.77459,0.94804 -4.89215,0.57657c-0.13245,-0.41867 2.35722,-0.77837 5.59517,-2.11223c2.57035,-1.05881 5.50216,-3.32086 7.68107,-5.90321c4.92372,-5.83543 5.67937,-11.0667 5.917,-10.31569z" data-paper-data="{&quot;index&quot;:null}" fill="#69696f"/><path d="M261.93271,184.28997c0.0338,0.79223 -1.08035,-1.71666 -3.19928,-2.60951c-0.65667,-0.2767 -2.30334,-0.30856 -5.41211,2.30142c-3.09663,2.59979 -7.54357,7.51845 -9.08553,9.90187c-0.09697,0.14989 -5.46263,10.26446 -5.49347,9.54106c-0.02738,-0.6419 1.11438,-5.23114 4.02978,-9.95887c2.97842,-4.82991 7.76571,-9.81527 11.01021,-11.92819c6.42033,-4.18112 8.09508,1.45459 8.15043,2.75223z" data-paper-data="{&quot;index&quot;:null}" fill="#424246"/><path d="M261.76366,183.63104c0.40381,0.95687 0.35536,6.33384 -5.47034,12.7904c-2.944,3.26281 -7.66851,5.91014 -11.35497,6.95229c-3.60847,1.0201 -6.20885,0.47452 -6.40859,0.00123c-0.22512,-0.53342 3.02843,-0.61547 7.15697,-1.786c3.27732,-0.92917 6.89028,-3.2841 9.46835,-6.14134c5.82571,-6.45659 6.20477,-12.77342 6.60857,-11.81655z" data-paper-data="{&quot;index&quot;:null}" fill="#69696f"/></g><path d="M284.70518,166.41605c4.94491,4.71222 -13.15349,31.02963 -23.8057,39.12769c-7.99991,6.08172 -14.63739,9.07623 -21.26393,11.16629c-2.55575,0.8061 -6.75377,3.3098 -8.58768,3.08478c-6.54249,-0.8028 -7.5383,-9.44191 -6.0521,-16.34195c0.43169,-2.00423 4.4807,5.84951 10.33469,6.52381c2.46213,0.28361 11.67846,-2.34042 17.91166,-7.11053c9.9313,-7.60017 17.6844,-19.48638 19.25119,-24.95883c2.82014,-9.85017 -7.0202,-17.0632 -0.58031,-18.9307c6.29806,-1.82637 10.75349,5.49671 12.79218,7.43946z" fill="url(#color-30)"/><path d="M285.86215,169.56148c-1.63671,7.59884 -9.00731,12.45713 -16.46268,10.85132c-7.45538,-1.60581 -12.17234,-9.06766 -10.53563,-16.66648c1.63671,-7.59884 9.00731,-12.45713 16.46268,-10.85132c7.45538,1.60581 12.17234,9.06766 10.53563,16.66648z" fill="url(#color-31)"/><path d="M237.38173,214.0839c-1.09677,5.09203 -6.08665,8.33667 -11.14522,7.24711c-5.05857,-1.08956 -8.27024,-6.10074 -7.17347,-11.19276c1.09677,-5.09203 6.08665,-8.33667 11.14522,-7.24711c5.05857,1.08956 8.27024,6.10074 7.17347,11.19276z" fill="url(#color-32)"/><path d="M217.6371,266.57516c-1.23606,5.7387 -6.73131,9.42304 -12.27399,8.2292c-5.54268,-1.19384 -9.03389,-6.81377 -7.79784,-12.55246c1.23606,-5.7387 6.73131,-9.42304 12.27399,-8.2292c5.54268,1.19384 9.03389,6.81377 7.79784,12.55246z" fill="url(#color-33)"/><g><path d="M197.83956,304.6712c1.97518,0.42543 7.85816,8.47503 7.3464,12.90626c-4.91324,4.35752 -11.57587,-5.43993 -11.08298,-9.52615c0.18679,-1.54861 1.76139,-3.80554 3.73657,-3.3801z" data-paper-data="{&quot;index&quot;:null}" fill="url(#color-34)"/><path d="M198.88958,300.04094c-0.29024,5.68935 -1.10769,10.29473 -3.81227,10.26346c-2.70458,-0.03127 -3.89298,-4.83138 -3.60274,-10.52073c0.29024,-5.68935 1.9492,-10.11348 4.65379,-10.08221c2.70458,0.03127 3.05148,4.65013 2.76124,10.33948z" fill="url(#color-35)"/><path d="M212.6705,274.24865c-1.25128,5.80938 -6.9074,15.86495 -10.07875,17.49467c-2.61608,1.34438 -10.45822,4.26658 -9.20694,-1.54281c0.58099,-2.69738 1.79576,-9.06598 4.31969,-14.02971c2.91193,-5.72677 7.24497,-9.89576 9.11216,-9.49358c3.48563,0.75077 7.10511,1.76204 5.85383,7.57143z" fill="url(#color-36)"/><path d="M200.95292,304.52514c1.97518,0.42543 8.00582,7.7895 7.59292,11.76171c-4.79534,3.81014 -11.64001,-5.14212 -11.2384,-8.80459c0.1522,-1.38801 1.67028,-3.38256 3.64546,-2.95713z" data-paper-data="{&quot;index&quot;:null}" fill="url(#color-37)"/><path d="M201.56898,297.82155c-0.16502,5.10797 -0.87838,9.23009 -3.57096,9.14311c-2.69258,-0.08699 -3.97991,-4.4278 -3.81488,-9.53579c0.16502,-5.10797 1.71989,-9.04886 4.41248,-8.96185c2.69258,0.08699 3.1384,4.24656 2.97338,9.35454z" fill="url(#color-38)"/><path d="M216.6072,284.92934c-0.67569,3.13707 -4.53029,1.15221 -6.11819,0.81019c-1.58789,-0.34202 -2.70497,-6.17885 -2.02928,-9.31592c0.67569,-3.13707 1.30667,-3.90115 2.89459,-3.55913c1.58789,0.34202 5.92858,8.9278 5.25289,12.06486z" fill="url(#color-39)"/><path d="M217.38611,287.44523c-0.7758,3.60183 -2.70169,12.25938 -6.12903,11.08089c-1.91069,-0.657 -2.34549,-4.44104 -1.5697,-8.04287c0.7758,-3.60183 0.96257,-6.91042 2.93775,-6.48498c1.97518,0.42543 5.53677,-0.15487 4.76097,3.44696z" fill="url(#color-40)"/><path d="M205.61358,303.32763c1.97518,0.42543 8.00582,7.7895 7.59292,11.76171c-4.79534,3.81014 -11.64001,-5.14212 -11.2384,-8.80459c0.1522,-1.38801 1.67028,-3.38256 3.64546,-2.95713z" data-paper-data="{&quot;index&quot;:null}" fill="url(#color-41)"/><path d="M206.22963,296.62404c-0.16502,5.10797 -0.87838,9.23009 -3.57096,9.14311c-2.69258,-0.08699 -3.97991,-4.4278 -3.81488,-9.53579c0.16502,-5.10797 1.71989,-9.04886 4.41248,-8.96185c2.69258,0.08699 3.1384,4.24656 2.97338,9.35454z" fill="url(#color-42)"/></g></g><path d="M328.77045,233.12804v9.08627h-46.26937v-9.08627z" data-paper-data="{&quot;index&quot;:null}" fill="#3f3f3f" stroke="none" stroke-width="0"/><path d="M328.17377,219.25953v9.08628h-46.26935v-9.08628z" data-paper-data="{&quot;index&quot;:null}" fill="#3f3f3f" stroke="none" stroke-width="0"/><path d="M349.78447,232.27849c3.82387,15.50796 16.22264,34.15417 0.67404,43.87419c-16.65783,10.41346 -59.24136,3.21381 -68.22145,-0.50826c-4.37765,-1.81446 -4.87313,-19.66863 -0.97185,-23.95021c5.73693,-6.29615 11.1296,-1.07021 11.30775,-14.26109c-2.61597,-31.09298 -14.21424,-19.13478 -22.18747,-33.1389c-4.3869,-7.70512 -4.61216,-19.19315 0.18108,-31.11497c9.90224,-27.19625 24.70831,-21.25499 43.26335,-21.25499c15.67108,0 51.74188,-2.51325 54.88067,27.72998c0.22641,2.18149 0.43339,11.12673 -3.81291,18.80281c-6.58735,11.90803 -15.11322,33.82144 -15.11322,33.82144z" fill="url(#color-43)" stroke="none" stroke-width="0"/><path d="M348.9162,201.07344c0,7.94244 -6.63771,19.34536 -10.90582,32.23349c-4.30021,12.98498 0.53,27.08103 -8.78863,30.8285c-8.30599,3.34024 -33.52111,2.39503 -41.67784,-1.19165c-7.91972,-3.48247 3.90342,-15.59316 -0.41458,-30.97507c-3.79256,-13.51017 -15.08777,-22.2562 -15.08777,-33.04728c0,-23.07715 21.66575,-26.36214 38.43732,-26.36214c16.77156,0 38.43732,5.437 38.43732,28.51415z" fill="url(#color-44)" stroke="none" stroke-width="0"/><g stroke="none"><path d="M345.19265,163.25574c7.45241,-1.05932 2.70263,13.91598 3.51663,19.64256c0.814,5.72659 -29.16593,-5.37235 -29.97993,-11.09894c-0.814,-5.72659 19.0109,-7.48431 26.4633,-8.54363z" data-paper-data="{&quot;index&quot;:null}" fill="url(#color-45)" stroke-width="0"/><path d="M353.53703,179.45878c-8.70754,1.23773 -34.48596,-7.11844 -35.45607,-13.94327c-0.97011,-6.82484 21.77608,-11.64502 30.48363,-12.88274c8.70754,-1.23773 13.67999,25.58828 4.97245,26.82601z" fill="url(#color-46)" stroke-width="0"/><path d="M314.50624,170.95055c0.814,5.72659 -24.88562,24.74006 -25.69962,19.01347c-0.814,-5.72659 -9.54863,-18.78514 -2.09623,-19.84446c7.4524,-1.05932 26.98185,-4.89559 27.79585,0.831z" fill="url(#color-47)" stroke-width="0"/><path d="M286.92587,158.20634c8.70754,-1.23773 30.10788,0.78511 31.07799,7.60993c0.97011,6.82484 -25.96077,18.90568 -34.66831,20.14341c-8.70754,1.23773 -5.11722,-26.51562 3.59032,-27.75334z" data-paper-data="{&quot;index&quot;:null}" fill="url(#color-48)" stroke-width="0"/><path d="M322.86851,166.5739c0.7025,4.94213 -1.71691,9.37335 -5.40388,9.89744c-3.68698,0.52408 -7.24535,-3.05745 -7.94784,-7.99956c-0.7025,-4.94213 1.71691,-9.37335 5.40388,-9.89744c3.68698,-0.52408 7.24535,3.05745 7.94784,7.99956z" fill="url(#color-49)" stroke-width="0"/><path d="M296.12131,160.3771c-0.05048,-0.3551 0.30462,-0.40558 0.30462,-0.40558l0.28407,-0.04038c0.43634,-0.05926 0.88541,-0.04464 1.32088,0.02074c3.65374,0.56971 8.46824,2.40078 11.48062,4.64174c0,0 0.28678,0.21541 0.07138,0.50219c-0.2154,0.28678 -0.50219,0.07138 -0.50219,0.07138c-2.88266,-2.18913 -7.64628,-3.95978 -11.1602,-4.50653c-0.36513,-0.05931 -0.74372,-0.07413 -1.10954,-0.01932l-0.28407,0.04038c0,0 -0.3551,0.05048 -0.40558,-0.30462z" fill="#4e1720" stroke-width="0.5"/><path d="M297.57784,166.54609c-0.05048,-0.3551 0.30462,-0.40558 0.30462,-0.40558l0.56816,-0.08076c4.14852,-0.58969 7.05267,-0.73397 10.82771,-0.07141c0,0 0.35284,0.06442 0.28844,0.41725c-0.06442,0.35284 -0.41725,0.28844 -0.41725,0.28844c-3.72051,-0.7015 -6.51233,-0.50482 -10.59796,0.07592l-0.56816,0.08076c0,0 -0.3551,0.05048 -0.40558,-0.30462z" fill="#4e1720" stroke-width="0.5"/><path d="M296.49591,174.97683c-0.20396,-0.29502 0.09109,-0.49899 0.09109,-0.49899l0.60101,-0.40381c0.65131,-0.09258 0.98484,-0.43169 1.634,-0.51296c2.21026,-2.34962 6.70894,-5.88925 10.21888,-6.39831c0,0 0.3551,-0.05048 0.40558,0.30462c0.05048,0.3551 -0.30462,0.40558 -0.30462,0.40558c-3.54532,0.49252 -7.66489,4.0804 -9.99822,6.3293c-0.67013,0.10549 -1.02598,0.44478 -1.69419,0.53976l-0.45454,0.32588c0,0 -0.29502,0.20395 -0.49899,-0.09109z" fill="#4e1720" stroke-width="0.5"/><path d="M303.90781,173.71512c-0.2762,-0.22881 -0.04739,-0.50502 -0.04739,-0.50502l0.38907,-0.43415c1.61281,-0.90948 3.23018,-1.62434 4.68225,-2.92845c0,0 0.26746,-0.23898 0.50644,0.02848c0.23898,0.26746 -0.02849,0.50644 -0.02849,0.50644c-1.49373,1.32839 -3.16737,2.05359 -4.8027,3.01543l-0.19415,0.26986c0,0 -0.22881,0.2762 -0.50502,0.04739z" fill="#4e1720" stroke-width="0.5"/><path d="M338.14082,159.32773c0.05387,0.3546 -0.30074,0.40847 -0.30074,0.40847l-0.29767,0.04434c-0.72447,0.15958 -1.2994,0.46674 -2.03403,0.59491c-3.66583,0.61956 -9.09949,1.51188 -12.37592,3.17171c0,0 -0.32091,0.16019 -0.4811,-0.16073c-0.16019,-0.32091 0.16073,-0.4811 0.16073,-0.4811c3.39507,-1.67282 8.807,-2.60004 12.57673,-3.23717c0.71584,-0.11642 1.28525,-0.42537 1.99654,-0.58754l0.34699,-0.0536c0,0 0.3546,-0.05387 0.40847,0.30074z" fill="#4e1720" stroke-width="0.5"/><path d="M337.41982,165.1964c-0.2154,0.28678 -0.50219,0.07138 -0.50219,0.07138l-0.17217,-0.17742c-0.2237,-0.04086 -0.44741,-0.08172 -0.67111,-0.12257c-3.33098,-1.51837 -8.71226,-0.26437 -12.24115,0.23725c0,0 -0.3551,0.05048 -0.40558,-0.30462c-0.05048,-0.3551 0.30462,-0.40558 0.30462,-0.40558c3.69273,-0.5249 9.0415,-1.72716 12.55196,-0.213c0.19583,0.03414 0.39166,0.06827 0.58749,0.10241l0.47675,0.30998c0,0 0.28678,0.21541 0.07138,0.50219z" fill="#4e1720" stroke-width="0.5"/><path d="M338.62163,168.82688c0.05048,0.3551 -0.30462,0.40558 -0.30462,0.40558l-0.44821,0.02547c-1.05438,-0.36122 -2.13907,-0.04833 -3.16481,-0.39105c-2.4204,0.39239 -4.2703,-0.73173 -6.39796,-1.44133c-1.81873,-0.60656 -3.81206,0.17181 -5.4294,-1.03136c0,0 -0.28678,-0.21541 -0.07138,-0.50219c0.2154,-0.28678 0.50219,-0.07138 0.50219,-0.07138c1.44225,1.09526 3.53563,0.37821 5.22201,0.92327c2.14582,0.69357 3.82167,1.71629 6.23946,1.40859c1.06687,0.35646 2.21531,0.06143 3.32722,0.42507l0.11995,-0.05531c0,0 0.3551,-0.05048 0.40558,0.30462z" fill="#4e1720" stroke-width="0.5"/><path d="M334.96755,171.66482c0.05048,0.3551 -0.30462,0.40558 -0.30462,0.40558l-0.42612,0.06057c-3.81223,0.4953 -6.82787,-3.99652 -10.77128,-3.39584c0,0 -0.3551,0.05048 -0.40558,-0.30462c-0.05048,-0.3551 0.30462,-0.40558 0.30462,-0.40558c3.9592,-0.52952 7.1191,3.97141 10.77128,3.39584l0.42612,-0.06057c0,0 0.3551,-0.05048 0.40558,0.30462z" fill="#4e1720" stroke-width="0.5"/></g><path d="M359.82627,273.24646c0,1.20781 2.73918,14.18246 -0.90597,18.14593c-3.60234,3.91693 -13.47346,7.06847 -24.14062,10.53612c-15.11411,4.91326 -8.61469,18.73593 -15.48298,18.73593c-6.95641,0 -8.42085,-5.81887 -13.80459,-14.05512c-3.21512,-4.91862 -20.63979,-5.66833 -23.75157,-7.32804c-6.96037,-3.71244 -5.1254,-16.81774 -5.1254,-21.09415c0,-9.3897 12.24912,0.87333 32.63884,1.60886c39.77108,1.43467 50.57227,-15.9392 50.57227,-6.54952z" fill="url(#color-50)" stroke="none" stroke-width="0"/></g></g></svg>