<svg version="1.1" xmlns="http://www.w3.org/2000/svg" xmlns:xlink="http://www.w3.org/1999/xlink" width="664" height="383" viewBox="0,0,664,383"><defs><linearGradient x1="143.16967" y1="182.11211" x2="143.16967" y2="280.10762" gradientUnits="userSpaceOnUse" id="color-1"><stop offset="0" stop-color="#333333"/><stop offset="1" stop-color="#242424"/></linearGradient><radialGradient cx="168.39516" cy="162.24055" r="22.74689" gradientUnits="userSpaceOnUse" id="color-2"><stop offset="0" stop-color="#8a8a8a"/><stop offset="1" stop-color="#818181"/></radialGradient><radialGradient cx="110.15841" cy="165.15926" r="22.74689" gradientUnits="userSpaceOnUse" id="color-3"><stop offset="0" stop-color="#8a8a8a"/><stop offset="1" stop-color="#818181"/></radialGradient><radialGradient cx="142.22479" cy="214.50288" r="22.74688" gradientUnits="userSpaceOnUse" id="color-4"><stop offset="0" stop-color="#8a8a8a"/><stop offset="1" stop-color="#818181"/></radialGradient></defs><g transform="translate(12,11.5)"><g data-paper-data="{&quot;isPaintingLayer&quot;:true}" fill-rule="nonzero" stroke-linejoin="miter" stroke-miterlimit="10" stroke-dasharray="" stroke-dashoffset="0" style="mix-blend-mode: normal"><path d="M-12,371.5v-383h664v383z" fill="#000000" stroke="none" stroke-width="0" stroke-linecap="butt"/><text transform="translate(30.375,34.59161) scale(0.5,0.5)" font-size="40" xml:space="preserve" fill="#ffffff" fill-rule="nonzero" stroke="none" stroke-width="1" stroke-linecap="butt" stroke-linejoin="miter" stroke-miterlimit="10" stroke-dasharray="" stroke-dashoffset="0" font-family="Serif" font-weight="normal" text-anchor="start" style="mix-blend-mode: normal"><tspan x="0" dy="0">The office provides you with a desk fan, although it may seem useless, it</tspan><tspan x="0" dy="46.150000000000006px">is your primary way of ventilation, turning it on will cool down the office,</tspan><tspan x="0" dy="46.150000000000006px">but it will also drain power, turning it off will let the heat rise.</tspan></text><g><path d="M176.15046,179.92188c0,19.30826 -15.48534,34.96071 -34.58745,34.96071c-19.10212,0 -34.58745,-15.65245 -34.58745,-34.96071c0,-19.30826 15.48534,-34.96071 34.58745,-34.96071c19.10212,0 34.58745,15.65245 34.58745,34.96071z" fill="#252525" stroke="none" stroke-width="0" stroke-linecap="butt"/><g stroke-width="0"><path d="M161.1383,180.54062c0,11.19228 -9.07313,20.26542 -20.26542,20.26542c-11.19228,0 -20.26538,-9.07312 -20.26538,-20.26542c0,-11.19228 9.0731,-20.26542 20.26538,-20.26542c11.19228,0 20.26542,9.07313 20.26542,20.26542z" fill="#000000" stroke="#000000" stroke-linecap="butt"/><g><path d="M84.6028,287.22126c0,0 -3.76583,-21.88726 0,-24.81478c19.53565,-15.18688 74.62821,-23.38787 111.17022,0c3.13619,2.00723 0,24.81478 0,24.81478c0,0 -14.12941,8.6391 -57.07399,8.43702c-41.73369,-0.19638 -54.09622,-8.43702 -54.09622,-8.43702z" fill="#242424" stroke="none" stroke-linecap="butt"/><path d="M186.84765,271.18182c0,0 -9.67647,8.4569 -45.17166,8.90309c-42.23004,0.53087 -42.18434,-8.42428 -42.18434,-8.42428c0,0 14.73083,-90.88386 41.5694,-89.53363c27.36531,1.3767 45.78658,89.05482 45.78658,89.05482z" fill="url(#color-1)" stroke="#000000" stroke-linecap="round"/></g></g><g data-paper-data="{&quot;index&quot;:null}" stroke="#000000" stroke-width="0" stroke-linecap="round"><path d="M157.30106,143.23954c10.66316,-7.04255 22.60369,-3.76089 29.08857,7.17796c6.4849,10.93886 6.14432,24.23432 -5.73018,32.07691c-11.87453,7.84261 -36.19972,-4.38402 -36.19972,-4.38402c0,0 2.17819,-27.82831 12.84133,-34.87086z" fill="url(#color-2)"/><path d="M98.7002,183.94298c-11.26001,-6.04256 -14.03931,-18.10995 -7.48938,-29.00996c6.54993,-10.90002 18.41384,-16.91108 30.95302,-10.18208c12.53918,6.72899 13.3239,33.94277 13.3239,33.94277c0,0 -25.52753,11.29182 -36.78754,5.24928z" fill="url(#color-3)"/><path d="M141.50575,185.79333c0,0 23.96333,12.92145 24.34505,27.14695c0.38173,14.2255 -10.31668,22.1267 -22.99717,23.08447c-12.68049,0.95777 -22.21477,-6.94436 -22.55752,-19.71866c-0.34276,-12.77429 21.20964,-30.51277 21.20964,-30.51277z" data-paper-data="{&quot;index&quot;:null}" fill="url(#color-4)"/></g><g><path d="M203.08304,180.54062c0,34.35342 -27.84896,62.2024 -62.20237,62.2024c-34.35342,0 -62.2024,-27.84896 -62.2024,-62.2024c0,-34.35342 27.84896,-62.2024 62.2024,-62.2024c34.35342,0 62.20237,27.84896 62.20237,62.2024z" fill="none" stroke="#000000" stroke-width="4.5" stroke-linecap="butt"/><path d="M94.32024,139.65616c0,0 33.61267,26.64456 48.0084,40.59775c14.95831,14.49846 39.95303,44.6545 39.95303,44.6545" fill="none" stroke="#4f4f4f" stroke-width="2" stroke-linecap="round"/><path d="M115.87718,124.77738c0,0 21.70351,43.97132 27.61377,56.66096c8.20752,17.62201 20.03061,54.50926 20.03061,54.50926" fill="none" stroke="#4f4f4f" stroke-width="2" stroke-linecap="round"/><path d="M203.08304,180.54062c0,34.35342 -27.84896,62.2024 -62.20237,62.2024c-34.35342,0 -62.2024,-27.84896 -62.2024,-62.2024c0,-34.35342 27.84896,-62.2024 62.2024,-62.2024c34.35342,0 62.20237,27.84896 62.20237,62.2024z" fill="none" stroke="#4f4f4f" stroke-width="2" stroke-linecap="butt"/><path d="M140.53428,119.70822c0,0 1.43029,40.25261 1.65017,60.64004c0.22127,20.51582 -0.32671,62.07208 -0.32671,62.07208" fill="none" stroke="#4f4f4f" stroke-width="2" stroke-linecap="round"/><path d="M78.66276,181.96871c0,0 42.87507,-1.87711 63.52582,-1.98784c20.48531,-0.10984 59.88637,1.3261 59.88637,1.3261" fill="none" stroke="#4f4f4f" stroke-width="2" stroke-linecap="round"/><path d="M96.07299,223.46985c0,0 30.41907,-28.60137 44.83915,-43.27728c14.459,-14.7155 44.94162,-42.41572 44.94162,-42.41572" fill="none" stroke="#4f4f4f" stroke-width="2" stroke-linecap="round"/><path d="M117.86238,236.44388l47.14808,-112.16281" fill="none" stroke="#4f4f4f" stroke-width="2" stroke-linecap="round"/><path d="M83.12168,160.51067c0,0 44.53215,14.4048 59.23409,19.87827c21.12988,7.86655 53.42501,26.27722 53.42501,26.27722" fill="none" stroke="#4f4f4f" stroke-width="2" stroke-linecap="round"/><path d="M196.77337,158.02918c0,0 -34.59812,14.97999 -55.48821,23.31769c-13.93265,5.56083 -57.66718,21.8452 -57.66718,21.8452" fill="none" stroke="#4f4f4f" stroke-width="2" stroke-linecap="round"/><path d="M153.45348,180.54062c0,6.94377 -5.62905,12.57283 -12.57283,12.57283c-6.9438,0 -12.57282,-5.62905 -12.57282,-12.57283c0,-6.94377 5.62902,-12.57283 12.57282,-12.57283c6.9438,0 12.57283,5.62905 12.57283,12.57283z" fill="#4f4f4f" stroke="#000000" stroke-width="0" stroke-linecap="butt"/><path d="M187.69787,180.54062c0,25.85644 -20.96079,46.81723 -46.81722,46.81723c-25.85644,0 -46.81723,-20.96079 -46.81723,-46.81723c0,-25.85644 20.96079,-46.81723 46.81723,-46.81723c25.85643,0 46.81722,20.96079 46.81722,46.81723z" fill="none" stroke="#4f4f4f" stroke-width="2" stroke-linecap="butt"/></g></g><g stroke-linecap="butt"><path d="M388.71281,175.57507v-24.8h24.64596v24.8z" fill="#000000" stroke="#ffffff" stroke-width="2"/><path d="M364.15725,175.57507v-24.8h24.64596v24.8z" fill="#000000" stroke="#ffffff" stroke-width="2"/><path d="M339.60169,175.57507v-24.8h24.64596v24.8z" fill="#000000" stroke="#ffffff" stroke-width="2"/><path d="M315.04611,175.57507v-24.8h24.64596v24.8z" fill="#000000" stroke="#ffffff" stroke-width="2"/><text transform="translate(344.07358,170.20097) scale(0.41301,0.4826)" font-size="40" xml:space="preserve" fill="#ffffff" fill-rule="nonzero" stroke="none" stroke-width="1" stroke-linecap="butt" stroke-linejoin="miter" stroke-miterlimit="10" stroke-dasharray="" stroke-dashoffset="0" font-family="Sans Serif" font-weight="normal" text-anchor="start" style="mix-blend-mode: normal"><tspan x="0" dy="0">W</tspan></text><text transform="translate(370.45133,170.18647) scale(0.5,0.5)" font-size="40" xml:space="preserve" fill="#ffffff" fill-rule="nonzero" stroke="none" stroke-width="1" stroke-linecap="butt" stroke-linejoin="miter" stroke-miterlimit="10" stroke-dasharray="" stroke-dashoffset="0" font-family="Sans Serif" font-weight="normal" text-anchor="start" style="mix-blend-mode: normal"><tspan x="0" dy="0">E</tspan></text><text transform="translate(394.42242,170.11051) scale(0.5,0.5)" font-size="40" xml:space="preserve" fill="#ffffff" fill-rule="nonzero" stroke="none" stroke-width="1" stroke-linecap="butt" stroke-linejoin="miter" stroke-miterlimit="10" stroke-dasharray="" stroke-dashoffset="0" font-family="Sans Serif" font-weight="normal" text-anchor="start" style="mix-blend-mode: normal"><tspan x="0" dy="0">R</tspan></text><path d="M394.96281,200.40842v-24.8h24.64596v24.8z" fill="#000000" stroke="#ffffff" stroke-width="2"/><path d="M370.4072,200.40842v-24.8h24.64596v24.8z" fill="#000000" stroke="#ffffff" stroke-width="2"/><path d="M345.85169,200.40842v-24.8h24.64596v24.8z" fill="#000000" stroke="#ffffff" stroke-width="2"/><path d="M321.29611,200.40842v-24.8h24.64596v24.8z" fill="#000000" stroke="#ffffff" stroke-width="2"/><text transform="translate(326.72913,194.93647) scale(0.5,0.5)" font-size="40" xml:space="preserve" fill="#ffffff" fill-rule="nonzero" stroke="none" stroke-width="1" stroke-linecap="butt" stroke-linejoin="miter" stroke-miterlimit="10" stroke-dasharray="" stroke-dashoffset="0" font-family="Sans Serif" font-weight="normal" text-anchor="start" style="mix-blend-mode: normal"><tspan x="0" dy="0">A</tspan></text><text transform="translate(352.72913,194.76981) scale(0.5,0.5)" font-size="40" xml:space="preserve" fill="#ffffff" fill-rule="nonzero" stroke="none" stroke-width="1" stroke-linecap="butt" stroke-linejoin="miter" stroke-miterlimit="10" stroke-dasharray="" stroke-dashoffset="0" font-family="Sans Serif" font-weight="normal" text-anchor="start" style="mix-blend-mode: normal"><tspan x="0" dy="0">S</tspan></text><text transform="translate(375.47909,195.01981) scale(0.5,0.5)" font-size="40" xml:space="preserve" fill="#ffffff" fill-rule="nonzero" stroke="none" stroke-width="1" stroke-linecap="butt" stroke-linejoin="miter" stroke-miterlimit="10" stroke-dasharray="" stroke-dashoffset="0" font-family="Sans Serif" font-weight="normal" text-anchor="start" style="mix-blend-mode: normal"><tspan x="0" dy="0">D</tspan></text><text transform="translate(402.00579,195.11051) scale(0.5,0.5)" font-size="40" xml:space="preserve" fill="#ffffff" fill-rule="nonzero" stroke="none" stroke-width="1" stroke-linecap="butt" stroke-linejoin="miter" stroke-miterlimit="10" stroke-dasharray="" stroke-dashoffset="0" font-family="Sans Serif" font-weight="normal" text-anchor="start" style="mix-blend-mode: normal"><tspan x="0" dy="0">F</tspan></text><path d="M401.29607,225.40842v-24.8h24.64596v24.8z" fill="#000000" stroke="#ffffff" stroke-width="2"/><path d="M376.74055,225.40842v-24.8h24.64596v24.8z" fill="#000000" stroke="#ffffff" stroke-width="2"/><path d="M352.18501,225.40842v-24.8h24.64596v24.8z" fill="#000000" stroke="#ffffff" stroke-width="2"/><path d="M327.62946,225.40842v-24.8h24.64596v24.8z" fill="#000000" stroke="#ffffff" stroke-width="2"/><text transform="translate(333.72913,220.10312) scale(0.5,0.5)" font-size="40" xml:space="preserve" fill="#ffffff" fill-rule="nonzero" stroke="none" stroke-width="1" stroke-linecap="butt" stroke-linejoin="miter" stroke-miterlimit="10" stroke-dasharray="" stroke-dashoffset="0" font-family="Sans Serif" font-weight="normal" text-anchor="start" style="mix-blend-mode: normal"><tspan x="0" dy="0">Z</tspan></text><text transform="translate(358.56246,219.93647) scale(0.5,0.5)" font-size="40" xml:space="preserve" fill="#ffffff" fill-rule="nonzero" stroke="none" stroke-width="1" stroke-linecap="butt" stroke-linejoin="miter" stroke-miterlimit="10" stroke-dasharray="" stroke-dashoffset="0" font-family="Sans Serif" font-weight="normal" text-anchor="start" style="mix-blend-mode: normal"><tspan x="0" dy="0">X</tspan></text><text transform="translate(381.81246,220.01981) scale(0.5,0.5)" font-size="40" xml:space="preserve" fill="#ffffff" fill-rule="nonzero" stroke="none" stroke-width="1" stroke-linecap="butt" stroke-linejoin="miter" stroke-miterlimit="10" stroke-dasharray="" stroke-dashoffset="0" font-family="Sans Serif" font-weight="normal" text-anchor="start" style="mix-blend-mode: normal"><tspan x="0" dy="0">C</tspan></text><text transform="translate(407.50579,220.11051) scale(0.5,0.5)" font-size="40" xml:space="preserve" fill="#ffffff" fill-rule="nonzero" stroke="none" stroke-width="1" stroke-linecap="butt" stroke-linejoin="miter" stroke-miterlimit="10" stroke-dasharray="" stroke-dashoffset="0" font-family="Sans Serif" font-weight="normal" text-anchor="start" style="mix-blend-mode: normal"><tspan x="0" dy="0">V</tspan></text><path d="M378.62944,150.74175v-24.8h24.64596v24.8z" fill="#000000" stroke="#ffffff" stroke-width="2"/><path d="M354.0739,150.74175v-24.8h24.64596v24.8c0,0 -17.4939,0 -21.46985,0c-1.52923,0 -3.17611,0 -3.17611,0z" fill="#000000" stroke="#ffffff" stroke-width="2"/><path d="M329.51835,150.74175v-24.8h24.64596v24.8z" fill="#000000" stroke="#ffffff" stroke-width="2"/><path d="M304.9628,150.74175v-24.8h24.64596v24.8z" fill="#000000" stroke="#ffffff" stroke-width="2"/><text transform="translate(310.3958,145.26981) scale(0.5,0.5)" font-size="40" xml:space="preserve" fill="#ffffff" fill-rule="nonzero" stroke="none" stroke-width="1" stroke-linecap="butt" stroke-linejoin="miter" stroke-miterlimit="10" stroke-dasharray="" stroke-dashoffset="0" font-family="Sans Serif" font-weight="normal" text-anchor="start" style="mix-blend-mode: normal"><tspan x="0" dy="0">1</tspan></text><text transform="translate(336.3958,145.10312) scale(0.5,0.5)" font-size="40" xml:space="preserve" fill="#ffffff" fill-rule="nonzero" stroke="none" stroke-width="1" stroke-linecap="butt" stroke-linejoin="miter" stroke-miterlimit="10" stroke-dasharray="" stroke-dashoffset="0" font-family="Sans Serif" font-weight="normal" text-anchor="start" style="mix-blend-mode: normal"><tspan x="0" dy="0">2</tspan></text><text transform="translate(360.81246,145.35313) scale(0.5,0.5)" font-size="40" xml:space="preserve" fill="#ffffff" fill-rule="nonzero" stroke="none" stroke-width="1" stroke-linecap="butt" stroke-linejoin="miter" stroke-miterlimit="10" stroke-dasharray="" stroke-dashoffset="0" font-family="Sans Serif" font-weight="normal" text-anchor="start" style="mix-blend-mode: normal"><tspan x="0" dy="0">3</tspan></text><text transform="translate(385.33905,145.44384) scale(0.5,0.5)" font-size="40" xml:space="preserve" fill="#ffffff" fill-rule="nonzero" stroke="none" stroke-width="1" stroke-linecap="butt" stroke-linejoin="miter" stroke-miterlimit="10" stroke-dasharray="" stroke-dashoffset="0" font-family="Sans Serif" font-weight="normal" text-anchor="start" style="mix-blend-mode: normal"><tspan x="0" dy="0">4</tspan></text><path d="M476.87949,150.74175v-24.8h24.64596v24.8z" fill="#000000" stroke="#ffffff" stroke-width="2"/><path d="M452.32393,150.74175v-24.8h24.64596v24.8z" fill="#000000" stroke="#ffffff" stroke-width="2"/><path d="M427.76831,150.74175v-24.8h24.64596v24.8z" fill="#000000" stroke="#ffffff" stroke-width="2"/><path d="M403.21281,150.74175v-24.8h24.64596v24.8z" fill="#000000" stroke="#ffffff" stroke-width="2"/><text transform="translate(410.02074,145.26982) scale(0.5,0.5)" font-size="40" xml:space="preserve" fill="#ffffff" fill-rule="nonzero" stroke="none" stroke-width="1" stroke-linecap="butt" stroke-linejoin="miter" stroke-miterlimit="10" stroke-dasharray="" stroke-dashoffset="0" font-family="Sans Serif" font-weight="normal" text-anchor="start" style="mix-blend-mode: normal"><tspan x="0" dy="0">5</tspan></text><text transform="translate(434.64574,145.10312) scale(0.5,0.5)" font-size="40" xml:space="preserve" fill="#ffffff" fill-rule="nonzero" stroke="none" stroke-width="1" stroke-linecap="butt" stroke-linejoin="miter" stroke-miterlimit="10" stroke-dasharray="" stroke-dashoffset="0" font-family="Sans Serif" font-weight="normal" text-anchor="start" style="mix-blend-mode: normal"><tspan x="0" dy="0">6</tspan></text><text transform="translate(459.06247,145.35315) scale(0.5,0.5)" font-size="40" xml:space="preserve" fill="#ffffff" fill-rule="nonzero" stroke="none" stroke-width="1" stroke-linecap="butt" stroke-linejoin="miter" stroke-miterlimit="10" stroke-dasharray="" stroke-dashoffset="0" font-family="Sans Serif" font-weight="normal" text-anchor="start" style="mix-blend-mode: normal"><tspan x="0" dy="0">7</tspan></text><text transform="translate(483.58914,145.44384) scale(0.5,0.5)" font-size="40" xml:space="preserve" fill="#ffffff" fill-rule="nonzero" stroke="none" stroke-width="1" stroke-linecap="butt" stroke-linejoin="miter" stroke-miterlimit="10" stroke-dasharray="" stroke-dashoffset="0" font-family="Sans Serif" font-weight="normal" text-anchor="start" style="mix-blend-mode: normal"><tspan x="0" dy="0">8</tspan></text><text transform="translate(320.30495,168.74712) scale(0.43434,0.43434)" font-size="40" xml:space="preserve" fill="#ffffff" fill-rule="nonzero" stroke="none" stroke-width="1" stroke-linecap="butt" stroke-linejoin="miter" stroke-miterlimit="10" stroke-dasharray="" stroke-dashoffset="0" font-family="Sans Serif" font-weight="normal" text-anchor="start" style="mix-blend-mode: normal"><tspan x="0" dy="0">Q</tspan></text><path d="M376.79607,250.20841v-24.8h141.39596v24.8z" fill="#b19f2e" stroke="#ffffff" stroke-width="2"/><path d="M493.31996,200.44809v-24.8h24.64596v24.8z" fill="#000000" stroke="#ffffff" stroke-width="2"/><path d="M468.76438,200.44809v-24.8h24.64596v24.8z" fill="#000000" stroke="#ffffff" stroke-width="2"/><path d="M444.20878,200.44809v-24.8h24.64596v24.8z" fill="#000000" stroke="#ffffff" stroke-width="2"/><path d="M419.65326,200.44809v-24.8h24.64596v24.8z" fill="#000000" stroke="#ffffff" stroke-width="2"/><text transform="translate(424.58628,194.72614) scale(0.5,0.5)" font-size="40" xml:space="preserve" fill="#ffffff" fill-rule="nonzero" stroke="none" stroke-width="1" stroke-linecap="butt" stroke-linejoin="miter" stroke-miterlimit="10" stroke-dasharray="" stroke-dashoffset="0" font-family="Sans Serif" font-weight="normal" text-anchor="start" style="mix-blend-mode: normal"><tspan x="0" dy="0">G</tspan></text><text transform="translate(449.08629,195.05949) scale(0.5,0.5)" font-size="40" xml:space="preserve" fill="#ffffff" fill-rule="nonzero" stroke="none" stroke-width="1" stroke-linecap="butt" stroke-linejoin="miter" stroke-miterlimit="10" stroke-dasharray="" stroke-dashoffset="0" font-family="Sans Serif" font-weight="normal" text-anchor="start" style="mix-blend-mode: normal"><tspan x="0" dy="0">H</tspan></text><text transform="translate(479.83629,192.33033) scale(0.41874,0.41874)" font-size="40" xml:space="preserve" fill="#ffffff" fill-rule="nonzero" stroke="none" stroke-width="1" stroke-linecap="butt" stroke-linejoin="miter" stroke-miterlimit="10" stroke-dasharray="" stroke-dashoffset="0" font-family="Sans Serif" font-weight="normal" text-anchor="start" style="mix-blend-mode: normal"><tspan x="0" dy="0">J</tspan></text><text transform="translate(499.36294,195.15018) scale(0.5,0.5)" font-size="40" xml:space="preserve" fill="#ffffff" fill-rule="nonzero" stroke="none" stroke-width="1" stroke-linecap="butt" stroke-linejoin="miter" stroke-miterlimit="10" stroke-dasharray="" stroke-dashoffset="0" font-family="Sans Serif" font-weight="normal" text-anchor="start" style="mix-blend-mode: normal"><tspan x="0" dy="0">K</tspan></text><path d="M475.09775,225.44809v-24.8h24.64596v24.8z" fill="#000000" stroke="#ffffff" stroke-width="2"/><path d="M450.5422,225.44809v-24.8h24.64596v24.8z" fill="#000000" stroke="#ffffff" stroke-width="2"/><path d="M425.98654,225.44809v-24.8h24.64596v24.8z" fill="#000000" stroke="#ffffff" stroke-width="2"/><text transform="translate(432.08628,219.89283) scale(0.5,0.5)" font-size="40" xml:space="preserve" fill="#ffffff" fill-rule="nonzero" stroke="none" stroke-width="1" stroke-linecap="butt" stroke-linejoin="miter" stroke-miterlimit="10" stroke-dasharray="" stroke-dashoffset="0" font-family="Sans Serif" font-weight="normal" text-anchor="start" style="mix-blend-mode: normal"><tspan x="0" dy="0">B</tspan></text><text transform="translate(455.16965,219.97614) scale(0.5,0.5)" font-size="40" xml:space="preserve" fill="#ffffff" fill-rule="nonzero" stroke="none" stroke-width="1" stroke-linecap="butt" stroke-linejoin="miter" stroke-miterlimit="10" stroke-dasharray="" stroke-dashoffset="0" font-family="Sans Serif" font-weight="normal" text-anchor="start" style="mix-blend-mode: normal"><tspan x="0" dy="0">N</tspan></text><text transform="translate(478.41965,219.55949) scale(0.5,0.5)" font-size="40" xml:space="preserve" fill="#ffffff" fill-rule="nonzero" stroke="none" stroke-width="1" stroke-linecap="butt" stroke-linejoin="miter" stroke-miterlimit="10" stroke-dasharray="" stroke-dashoffset="0" font-family="Sans Serif" font-weight="normal" text-anchor="start" style="mix-blend-mode: normal"><tspan x="0" dy="0">M</tspan></text><path d="M438.03416,175.65842v-24.8h24.64596v24.8z" fill="#000000" stroke="#ffffff" stroke-width="2"/><path d="M413.47864,175.65842v-24.8h24.64596v24.8z" fill="#000000" stroke="#ffffff" stroke-width="2"/><text transform="translate(418.55055,170.26981) scale(0.5,0.5)" font-size="40" xml:space="preserve" fill="#ffffff" fill-rule="nonzero" stroke="none" stroke-width="1" stroke-linecap="butt" stroke-linejoin="miter" stroke-miterlimit="10" stroke-dasharray="" stroke-dashoffset="0" font-family="Sans Serif" font-weight="normal" text-anchor="start" style="mix-blend-mode: normal"><tspan x="0" dy="0">T</tspan></text><text transform="translate(445.07714,170.36051) scale(0.5,0.5)" font-size="40" xml:space="preserve" fill="#ffffff" fill-rule="nonzero" stroke="none" stroke-width="1" stroke-linecap="butt" stroke-linejoin="miter" stroke-miterlimit="10" stroke-dasharray="" stroke-dashoffset="0" font-family="Sans Serif" font-weight="normal" text-anchor="start" style="mix-blend-mode: normal"><tspan x="0" dy="0">Y</tspan></text><path d="M536.3914,175.69809v-24.8h24.64596v24.8z" fill="#000000" stroke="#ffffff" stroke-width="2"/><path d="M511.83584,175.69809v-24.8h24.64596v24.8z" fill="#000000" stroke="#ffffff" stroke-width="2"/><path d="M487.28029,175.69809v-24.8h24.64596v24.8z" fill="#000000" stroke="#ffffff" stroke-width="2"/><path d="M462.72471,175.69809v-24.8h24.64596v24.8z" fill="#000000" stroke="#ffffff" stroke-width="2"/><text transform="translate(467.65774,170.97614) scale(0.5,0.5)" font-size="40" xml:space="preserve" fill="#ffffff" fill-rule="nonzero" stroke="none" stroke-width="1" stroke-linecap="butt" stroke-linejoin="miter" stroke-miterlimit="10" stroke-dasharray="" stroke-dashoffset="0" font-family="Sans Serif" font-weight="normal" text-anchor="start" style="mix-blend-mode: normal"><tspan x="0" dy="0">U</tspan></text><text transform="translate(496.15774,170.64283) scale(0.5,0.5)" font-size="40" xml:space="preserve" fill="#ffffff" fill-rule="nonzero" stroke="none" stroke-width="1" stroke-linecap="butt" stroke-linejoin="miter" stroke-miterlimit="10" stroke-dasharray="" stroke-dashoffset="0" font-family="Sans Serif" font-weight="normal" text-anchor="start" style="mix-blend-mode: normal"><tspan x="0" dy="0">I</tspan></text><text transform="translate(542.43438,170.40018) scale(0.5,0.5)" font-size="40" xml:space="preserve" fill="#ffffff" fill-rule="nonzero" stroke="none" stroke-width="1" stroke-linecap="butt" stroke-linejoin="miter" stroke-miterlimit="10" stroke-dasharray="" stroke-dashoffset="0" font-family="Sans Serif" font-weight="normal" text-anchor="start" style="mix-blend-mode: normal"><tspan x="0" dy="0">P</tspan></text><text transform="translate(516.83439,170.60019) scale(0.5,0.5)" font-size="40" xml:space="preserve" fill="#ffffff" fill-rule="nonzero" stroke="none" stroke-width="1" stroke-linecap="butt" stroke-linejoin="miter" stroke-miterlimit="10" stroke-dasharray="" stroke-dashoffset="0" font-family="Sans Serif" font-weight="normal" text-anchor="start" style="mix-blend-mode: normal"><tspan x="0" dy="0">O</tspan></text><path d="M517.91997,200.3981v-24.8h24.64596v24.8z" fill="#000000" stroke="#ffffff" stroke-width="2"/><text transform="translate(524.83795,195.10019) scale(0.5,0.5)" font-size="40" xml:space="preserve" fill="#ffffff" fill-rule="nonzero" stroke="none" stroke-width="1" stroke-linecap="butt" stroke-linejoin="miter" stroke-miterlimit="10" stroke-dasharray="" stroke-dashoffset="0" font-family="Sans Serif" font-weight="normal" text-anchor="start" style="mix-blend-mode: normal"><tspan x="0" dy="0">L</tspan></text><path d="M525.8795,150.74175v-24.8h24.64596v24.8z" fill="#000000" stroke="#ffffff" stroke-width="2"/><path d="M501.32393,150.74175v-24.8h24.64596v24.8z" fill="#000000" stroke="#ffffff" stroke-width="2"/><text transform="translate(508.06247,145.35315) scale(0.5,0.5)" font-size="40" xml:space="preserve" fill="#ffffff" fill-rule="nonzero" stroke="none" stroke-width="1" stroke-linecap="butt" stroke-linejoin="miter" stroke-miterlimit="10" stroke-dasharray="" stroke-dashoffset="0" font-family="Sans Serif" font-weight="normal" text-anchor="start" style="mix-blend-mode: normal"><tspan x="0" dy="0">9</tspan></text><text transform="translate(532.58915,145.44384) scale(0.5,0.5)" font-size="40" xml:space="preserve" fill="#ffffff" fill-rule="nonzero" stroke="none" stroke-width="1" stroke-linecap="butt" stroke-linejoin="miter" stroke-miterlimit="10" stroke-dasharray="" stroke-dashoffset="0" font-family="Sans Serif" font-weight="normal" text-anchor="start" style="mix-blend-mode: normal"><tspan x="0" dy="0">0</tspan></text></g><text transform="translate(344.35596,291.37848) scale(0.63076,0.63076)" font-size="40" xml:space="preserve" fill="#b19f2e" fill-rule="nonzero" stroke="none" stroke-width="1" stroke-linecap="butt" stroke-linejoin="miter" stroke-miterlimit="10" stroke-dasharray="" stroke-dashoffset="0" font-family="Serif" font-weight="normal" text-anchor="start" style="mix-blend-mode: normal"><tspan x="0" dy="0">Space - Desk Fan</tspan></text></g></g></svg>