<svg version="1.1" xmlns="http://www.w3.org/2000/svg" xmlns:xlink="http://www.w3.org/1999/xlink" width="260.89862" height="265.64371" viewBox="0,0,260.89862,265.64371"><defs><radialGradient cx="255.77485" cy="219.64875" r="3.93094" gradientUnits="userSpaceOnUse" id="color-1"><stop offset="0" stop-color="#ffffff" stop-opacity="0.12941"/><stop offset="1" stop-color="#ffffff" stop-opacity="0"/></radialGradient><radialGradient cx="198.45068" cy="235.95172" r="5.88282" gradientUnits="userSpaceOnUse" id="color-2"><stop offset="0" stop-color="#f2f2ff" stop-opacity="0.12941"/><stop offset="1" stop-color="#f2f2ff" stop-opacity="0"/></radialGradient><linearGradient x1="234.11056" y1="194.55853" x2="224.81163" y2="238.81037" gradientUnits="userSpaceOnUse" id="color-3"><stop offset="0" stop-color="#3c292a"/><stop offset="1" stop-color="#1e1617"/></linearGradient><radialGradient cx="312.2282" cy="195.22838" r="3.93095" gradientUnits="userSpaceOnUse" id="color-4"><stop offset="0" stop-color="#ffffff" stop-opacity="0.12941"/><stop offset="1" stop-color="#ffffff" stop-opacity="0"/></radialGradient><radialGradient cx="310.1018" cy="220.14879" r="3.93094" gradientUnits="userSpaceOnUse" id="color-5"><stop offset="0" stop-color="#ffffff" stop-opacity="0.12941"/><stop offset="1" stop-color="#ffffff" stop-opacity="0"/></radialGradient><radialGradient cx="308.99049" cy="248.31857" r="4.91786" gradientUnits="userSpaceOnUse" id="color-6"><stop offset="0" stop-color="#ffffff" stop-opacity="0.12941"/><stop offset="1" stop-color="#ffffff" stop-opacity="0"/></radialGradient><radialGradient cx="256.64847" cy="194.72839" r="3.93094" gradientUnits="userSpaceOnUse" id="color-7"><stop offset="0" stop-color="#ffffff" stop-opacity="0.12941"/><stop offset="1" stop-color="#ffffff" stop-opacity="0"/></radialGradient><radialGradient cx="256.88618" cy="247.81857" r="4.91786" gradientUnits="userSpaceOnUse" id="color-8"><stop offset="0" stop-color="#ffffff" stop-opacity="0.12941"/><stop offset="1" stop-color="#ffffff" stop-opacity="0"/></radialGradient><linearGradient x1="284.19452" y1="266.88172" x2="284.19452" y2="312.82186" gradientUnits="userSpaceOnUse" id="color-9"><stop offset="0" stop-color="#2d2326"/><stop offset="1" stop-color="#1c161a"/></linearGradient><radialGradient cx="254.17822" cy="177.02612" r="5.35978" gradientUnits="userSpaceOnUse" id="color-10"><stop offset="0" stop-color="#000000" stop-opacity="0.43529"/><stop offset="1" stop-color="#000000" stop-opacity="0"/></radialGradient><radialGradient cx="313.18967" cy="178.27612" r="5.35978" gradientUnits="userSpaceOnUse" id="color-11"><stop offset="0" stop-color="#000000" stop-opacity="0.43529"/><stop offset="1" stop-color="#000000" stop-opacity="0"/></radialGradient><radialGradient cx="244.45069" cy="177.70173" r="5.88282" gradientUnits="userSpaceOnUse" id="color-12"><stop offset="0" stop-color="#f2f2ff" stop-opacity="0.12941"/><stop offset="1" stop-color="#f2f2ff" stop-opacity="0"/></radialGradient><radialGradient cx="325.05067" cy="179.70173" r="5.88282" gradientUnits="userSpaceOnUse" id="color-13"><stop offset="0" stop-color="#f2f2ff" stop-opacity="0.12941"/><stop offset="1" stop-color="#f2f2ff" stop-opacity="0"/></radialGradient><radialGradient cx="367.17218" cy="246.44303" r="5.39272" gradientUnits="userSpaceOnUse" id="color-14"><stop offset="0" stop-color="#ffffff" stop-opacity="0.12941"/><stop offset="1" stop-color="#ffffff" stop-opacity="0"/></radialGradient><linearGradient x1="394.48755" y1="181.01566" x2="394.72372" y2="250.86213" gradientUnits="userSpaceOnUse" id="color-15"><stop offset="0" stop-color="#644446"/><stop offset="1" stop-color="#2b2324"/></linearGradient><radialGradient cx="411.38403" cy="183.70173" r="5.88282" gradientUnits="userSpaceOnUse" id="color-16"><stop offset="0" stop-color="#f2f2ff" stop-opacity="0.12941"/><stop offset="1" stop-color="#f2f2ff" stop-opacity="0"/></radialGradient><radialGradient cx="273.56504" cy="223.13533" r="15.79185" gradientUnits="userSpaceOnUse" id="color-17"><stop offset="0" stop-color="#000000" stop-opacity="0.43529"/><stop offset="1" stop-color="#000000" stop-opacity="0"/></radialGradient><linearGradient x1="297.71965" y1="183.52035" x2="297.71965" y2="226.04103" gradientUnits="userSpaceOnUse" id="color-18"><stop offset="0" stop-color="#555557"/><stop offset="1" stop-color="#3f3f41"/></linearGradient><linearGradient x1="292.25475" y1="80.39562" x2="292.25475" y2="107.80897" gradientUnits="userSpaceOnUse" id="color-19"><stop offset="0" stop-color="#272727"/><stop offset="1" stop-color="#4a535e"/></linearGradient><linearGradient x1="304.43846" y1="80.01488" x2="304.43846" y2="107.42823" gradientUnits="userSpaceOnUse" id="color-20"><stop offset="0" stop-color="#272727"/><stop offset="1" stop-color="#4a535e"/></linearGradient><linearGradient x1="315.47995" y1="80.39562" x2="315.47995" y2="107.80897" gradientUnits="userSpaceOnUse" id="color-21"><stop offset="0" stop-color="#272727"/><stop offset="1" stop-color="#4a535e"/></linearGradient><linearGradient x1="282.05366" y1="124.96448" x2="282.05366" y2="140.40564" gradientUnits="userSpaceOnUse" id="color-22"><stop offset="0" stop-color="#2b2324"/><stop offset="1" stop-color="#644446"/></linearGradient><linearGradient x1="285.25227" y1="141.15866" x2="285.25227" y2="166.01752" gradientUnits="userSpaceOnUse" id="color-23"><stop offset="0" stop-color="#2b2324"/><stop offset="1" stop-color="#644446"/></linearGradient><linearGradient x1="255.19011" y1="151.42103" x2="255.19011" y2="159.46049" gradientUnits="userSpaceOnUse" id="color-24"><stop offset="0" stop-color="#ffffff"/><stop offset="1" stop-color="#723737"/></linearGradient><linearGradient x1="256.72893" y1="153.00776" x2="256.72893" y2="161.04722" gradientUnits="userSpaceOnUse" id="color-25"><stop offset="0" stop-color="#ffffff"/><stop offset="1" stop-color="#723737"/></linearGradient><linearGradient x1="259.22951" y1="154.5945" x2="259.22951" y2="162.63396" gradientUnits="userSpaceOnUse" id="color-26"><stop offset="0" stop-color="#ffffff"/><stop offset="1" stop-color="#723737"/></linearGradient><linearGradient x1="261.53774" y1="156.18123" x2="261.53774" y2="164.22069" gradientUnits="userSpaceOnUse" id="color-27"><stop offset="0" stop-color="#ffffff"/><stop offset="1" stop-color="#723737"/></linearGradient><linearGradient x1="264.80772" y1="159.531" x2="264.80772" y2="167.57046" gradientUnits="userSpaceOnUse" id="color-28"><stop offset="0" stop-color="#ffffff"/><stop offset="1" stop-color="#723737"/></linearGradient><linearGradient x1="266.5389" y1="161.64665" x2="266.5389" y2="169.68611" gradientUnits="userSpaceOnUse" id="color-29"><stop offset="0" stop-color="#ffffff"/><stop offset="1" stop-color="#723737"/></linearGradient><linearGradient x1="269.03948" y1="163.05709" x2="269.03948" y2="171.09655" gradientUnits="userSpaceOnUse" id="color-30"><stop offset="0" stop-color="#ffffff"/><stop offset="1" stop-color="#723737"/></linearGradient><linearGradient x1="271.92477" y1="165.34903" x2="271.92477" y2="173.38849" gradientUnits="userSpaceOnUse" id="color-31"><stop offset="0" stop-color="#ffffff"/><stop offset="1" stop-color="#723737"/></linearGradient><linearGradient x1="275.00239" y1="167.11207" x2="275.00239" y2="175.15153" gradientUnits="userSpaceOnUse" id="color-32"><stop offset="0" stop-color="#ffffff"/><stop offset="1" stop-color="#723737"/></linearGradient><linearGradient x1="277.88768" y1="167.81728" x2="277.88768" y2="175.85674" gradientUnits="userSpaceOnUse" id="color-33"><stop offset="0" stop-color="#ffffff"/><stop offset="1" stop-color="#723737"/></linearGradient><linearGradient x1="283.83848" y1="167.81728" x2="283.83848" y2="175.85674" gradientUnits="userSpaceOnUse" id="color-34"><stop offset="0" stop-color="#ffffff"/><stop offset="1" stop-color="#723737"/></linearGradient><linearGradient x1="287.87789" y1="166.93577" x2="287.87789" y2="174.97523" gradientUnits="userSpaceOnUse" id="color-35"><stop offset="0" stop-color="#ffffff"/><stop offset="1" stop-color="#723737"/></linearGradient><linearGradient x1="290.76317" y1="165.87794" x2="290.76317" y2="173.9174" gradientUnits="userSpaceOnUse" id="color-36"><stop offset="0" stop-color="#ffffff"/><stop offset="1" stop-color="#723737"/></linearGradient><linearGradient x1="293.45609" y1="164.99642" x2="293.45609" y2="173.03588" gradientUnits="userSpaceOnUse" id="color-37"><stop offset="0" stop-color="#ffffff"/><stop offset="1" stop-color="#723737"/></linearGradient><linearGradient x1="295.37963" y1="163.40968" x2="295.37963" y2="171.44914" gradientUnits="userSpaceOnUse" id="color-38"><stop offset="0" stop-color="#ffffff"/><stop offset="1" stop-color="#723737"/></linearGradient><linearGradient x1="300.57314" y1="159.35469" x2="300.57314" y2="167.39415" gradientUnits="userSpaceOnUse" id="color-39"><stop offset="0" stop-color="#ffffff"/><stop offset="1" stop-color="#723737"/></linearGradient><linearGradient x1="305.5743" y1="156.18122" x2="305.5743" y2="164.22068" gradientUnits="userSpaceOnUse" id="color-40"><stop offset="0" stop-color="#ffffff"/><stop offset="1" stop-color="#723737"/></linearGradient><linearGradient x1="308.45959" y1="155.2997" x2="308.45959" y2="163.33916" gradientUnits="userSpaceOnUse" id="color-41"><stop offset="0" stop-color="#ffffff"/><stop offset="1" stop-color="#723737"/></linearGradient><linearGradient x1="312.88369" y1="152.30253" x2="312.88369" y2="160.34199" gradientUnits="userSpaceOnUse" id="color-42"><stop offset="0" stop-color="#ffffff"/><stop offset="1" stop-color="#723737"/></linearGradient><linearGradient x1="309.08006" y1="144.39737" x2="309.08006" y2="135.59591" gradientUnits="userSpaceOnUse" id="color-43"><stop offset="0" stop-color="#ffffff"/><stop offset="1" stop-color="#723737"/></linearGradient><linearGradient x1="304.97641" y1="144.01134" x2="304.97641" y2="135.20987" gradientUnits="userSpaceOnUse" id="color-44"><stop offset="0" stop-color="#ffffff"/><stop offset="1" stop-color="#723737"/></linearGradient><linearGradient x1="299.84686" y1="144.97642" x2="299.84686" y2="136.17496" gradientUnits="userSpaceOnUse" id="color-45"><stop offset="0" stop-color="#ffffff"/><stop offset="1" stop-color="#723737"/></linearGradient><linearGradient x1="278.0185" y1="147.48561" x2="278.0185" y2="138.68414" gradientUnits="userSpaceOnUse" id="color-46"><stop offset="0" stop-color="#ffffff"/><stop offset="1" stop-color="#723737"/></linearGradient><linearGradient x1="296.76914" y1="145.55546" x2="296.76914" y2="136.754" gradientUnits="userSpaceOnUse" id="color-47"><stop offset="0" stop-color="#ffffff"/><stop offset="1" stop-color="#723737"/></linearGradient><linearGradient x1="295.12769" y1="146.32751" x2="295.12769" y2="137.52605" gradientUnits="userSpaceOnUse" id="color-48"><stop offset="0" stop-color="#ffffff"/><stop offset="1" stop-color="#723737"/></linearGradient><linearGradient x1="292.46031" y1="146.52053" x2="292.46031" y2="137.71907" gradientUnits="userSpaceOnUse" id="color-49"><stop offset="0" stop-color="#ffffff"/><stop offset="1" stop-color="#723737"/></linearGradient><linearGradient x1="287.33077" y1="147.4856" x2="287.33077" y2="138.68414" gradientUnits="userSpaceOnUse" id="color-50"><stop offset="0" stop-color="#ffffff"/><stop offset="1" stop-color="#723737"/></linearGradient><linearGradient x1="284.38798" y1="147.29259" x2="284.38798" y2="138.49113" gradientUnits="userSpaceOnUse" id="color-51"><stop offset="0" stop-color="#ffffff"/><stop offset="1" stop-color="#723737"/></linearGradient><linearGradient x1="275.35998" y1="146.90656" x2="275.35998" y2="138.10509" gradientUnits="userSpaceOnUse" id="color-52"><stop offset="0" stop-color="#ffffff"/><stop offset="1" stop-color="#723737"/></linearGradient><linearGradient x1="272.48743" y1="146.32751" x2="272.48743" y2="137.52605" gradientUnits="userSpaceOnUse" id="color-53"><stop offset="0" stop-color="#ffffff"/><stop offset="1" stop-color="#723737"/></linearGradient><linearGradient x1="269.82008" y1="147.07456" x2="269.82008" y2="136.56736" gradientUnits="userSpaceOnUse" id="color-54"><stop offset="0" stop-color="#ffffff"/><stop offset="1" stop-color="#723737"/></linearGradient><linearGradient x1="267.56307" y1="146.7073" x2="267.56307" y2="137.4794" gradientUnits="userSpaceOnUse" id="color-55"><stop offset="0" stop-color="#ffffff"/><stop offset="1" stop-color="#723737"/></linearGradient><linearGradient x1="265.10088" y1="145.55546" x2="265.10088" y2="136.754" gradientUnits="userSpaceOnUse" id="color-56"><stop offset="0" stop-color="#ffffff"/><stop offset="1" stop-color="#723737"/></linearGradient><linearGradient x1="261.81797" y1="144.01134" x2="261.81797" y2="135.20987" gradientUnits="userSpaceOnUse" id="color-57"><stop offset="0" stop-color="#ffffff"/><stop offset="1" stop-color="#723737"/></linearGradient><linearGradient x1="258.0027" y1="143.62531" x2="258.0027" y2="134.82385" gradientUnits="userSpaceOnUse" id="color-58"><stop offset="0" stop-color="#ffffff"/><stop offset="1" stop-color="#723737"/></linearGradient><linearGradient x1="282.74864" y1="110.10236" x2="282.74864" y2="141.37071" gradientUnits="userSpaceOnUse" id="color-59"><stop offset="0" stop-color="#a79793"/><stop offset="1" stop-color="#61575d"/></linearGradient><radialGradient cx="268.95816" cy="107.62076" r="4.77711" gradientUnits="userSpaceOnUse" id="color-60"><stop offset="0" stop-color="#ffffff"/><stop offset="1" stop-color="#ffffff" stop-opacity="0"/></radialGradient><radialGradient cx="269.15117" cy="107.6851" r="2.26792" gradientUnits="userSpaceOnUse" id="color-61"><stop offset="0" stop-color="#ffffff"/><stop offset="1" stop-color="#ffffff" stop-opacity="0"/></radialGradient><radialGradient cx="296.10887" cy="107.36341" r="4.77711" gradientUnits="userSpaceOnUse" id="color-62"><stop offset="0" stop-color="#ffffff"/><stop offset="1" stop-color="#ffffff" stop-opacity="0"/></radialGradient><radialGradient cx="296.30189" cy="107.42775" r="2.26792" gradientUnits="userSpaceOnUse" id="color-63"><stop offset="0" stop-color="#ffffff"/><stop offset="1" stop-color="#ffffff" stop-opacity="0"/></radialGradient><linearGradient x1="231.67686" y1="50.75038" x2="231.67686" y2="92.44152" gradientUnits="userSpaceOnUse" id="color-64"><stop offset="0" stop-color="#2b2324"/><stop offset="1" stop-color="#644446"/></linearGradient><linearGradient x1="232.83495" y1="56.74302" x2="232.83495" y2="88.5077" gradientUnits="userSpaceOnUse" id="color-65"><stop offset="0" stop-color="#6a5f64"/><stop offset="1" stop-color="#9f908d"/></linearGradient><radialGradient cx="268.22277" cy="107.71264" r="15.54348" gradientUnits="userSpaceOnUse" id="color-66"><stop offset="0" stop-color="#ffffff" stop-opacity="0.42745"/><stop offset="1" stop-color="#ffffff" stop-opacity="0"/></radialGradient><radialGradient cx="297.22277" cy="107.21264" r="15.54347" gradientUnits="userSpaceOnUse" id="color-67"><stop offset="0" stop-color="#ffffff" stop-opacity="0.42745"/><stop offset="1" stop-color="#ffffff" stop-opacity="0"/></radialGradient></defs><g transform="translate(-189.55069,-47.17814)"><g data-paper-data="{&quot;isPaintingLayer&quot;:true}" fill-rule="nonzero" stroke-linecap="butt" stroke-linejoin="miter" stroke-miterlimit="10" stroke-dasharray="" stroke-dashoffset="0" style="mix-blend-mode: normal"><path d="M252.83456,217.15626c1.21832,-1.69096 3.52238,-1.94583 5.14626,-0.56925c1.62388,1.37658 1.95266,3.86332 0.73433,5.5543c-1.21833,1.69098 -3.5224,1.94583 -5.14628,0.56925c-1.62388,-1.37658 -1.95264,-3.86332 -0.73431,-5.5543z" data-paper-data="{&quot;index&quot;:null}" fill="url(#color-1)" stroke="none" stroke-width="0"/><path d="M225.28823,215.99604c-6.01952,13.16357 -16.71414,21.17571 -23.88711,17.89561c-7.17296,-3.2801 -8.10801,-16.61033 -2.08849,-29.7739c6.01952,-13.16357 16.71414,-21.17571 23.88711,-17.89561c7.17296,3.2801 8.10801,16.61033 2.08849,29.7739z" fill="#1c1313" stroke="none" stroke-width="0"/><path d="M204.05069,235.30173c0,4.11452 -3.24593,7.45 -7.25,7.45c-4.00407,0 -7.25,-3.33548 -7.25,-7.45c0,-4.11452 3.24593,-7.45 7.25,-7.45c4.00407,0 7.25,3.33548 7.25,7.45z" fill="#39393c" stroke="none" stroke-width="0"/><path d="M203.65069,235.95172c0,3.09279 -2.32812,5.6 -5.2,5.6c-2.87188,0 -5.2,-2.5072 -5.2,-5.6c0,-3.0928 2.32812,-5.6 5.2,-5.6c2.87188,0 5.2,2.5072 5.2,5.6z" fill="url(#color-2)" stroke="none" stroke-width="0"/><path d="M222.97441,223.086c-0.69988,0.53529 1.20304,-2.50673 1.34405,-5.89259c0.04371,-1.04929 -0.44036,-3.27098 -3.74852,-5.81341c-3.29523,-2.53251 -9.0902,-5.43606 -11.70746,-6.02348c-0.08875,-0.01992 -2.69611,-0.73257 -4.94489,-0.21151c-1.92243,0.44544 -3.57242,2.15765 -3.27787,1.93237c0.56707,-0.43372 2.9948,-4.9103 8.14176,-3.93665c5.25823,0.99468 11.21895,4.31209 14.12366,7.34353c5.74793,5.99874 1.21566,11.72492 0.06926,12.60174z" data-paper-data="{&quot;index&quot;:null}" fill="#424246" stroke="none" stroke-width="0"/><path d="M210.38404,232.66992c-0.43062,0.32937 0.74021,-1.54234 0.82697,-3.62561c0.02689,-0.64562 -0.27094,-2.01257 -2.3064,-3.5769c-2.0275,-1.5582 -5.59306,-3.34473 -7.20342,-3.70615c-0.10128,-0.02273 -6.70954,-0.58726 -6.31633,-0.88802c0.34892,-0.26686 3.09964,-1.07439 6.2665,-0.47531c3.23531,0.61202 6.90286,2.65317 8.69007,4.51836c3.53661,3.69092 0.74797,7.21415 0.04261,7.75365z" data-paper-data="{&quot;index&quot;:null}" fill="#424246" stroke="none" stroke-width="0"/><path d="M232.92482,192.75818c-0.43062,0.32937 0.74022,-1.54236 0.82699,-3.62562c0.02689,-0.64562 -0.27095,-2.01258 -2.30641,-3.5769c-2.0275,-1.5582 -5.59306,-3.34472 -7.20342,-3.70615c-0.10128,-0.02273 -6.70955,-0.58727 -6.31633,-0.88802c0.34892,-0.26687 3.09965,-1.07441 6.2665,-0.47533c3.2353,0.61201 6.90286,2.65318 8.69007,4.51837c3.53661,3.69092 0.74797,7.21415 0.04261,7.75365z" data-paper-data="{&quot;index&quot;:null}" fill="#424246" stroke="none" stroke-width="0"/><path d="M230.02957,205.65975c-0.69988,0.5353 1.20304,-2.50674 1.34405,-5.89259c0.04371,-1.04929 -0.44036,-3.27098 -3.74852,-5.81341c-3.29523,-2.53251 -9.0902,-5.43606 -11.70746,-6.02348c-0.08875,-0.01992 -2.69611,-0.73257 -4.94489,-0.21151c-1.92243,0.44544 -3.57242,2.15765 -3.27787,1.93237c0.56707,-0.43372 2.9948,-4.9103 8.14176,-3.93665c5.25824,0.99468 11.21896,4.31209 14.12367,7.34353c5.74793,5.99874 1.21566,11.72492 0.06926,12.60174z" data-paper-data="{&quot;index&quot;:null}" fill="#424246" stroke="none" stroke-width="0"/><path d="M229.98498,184.15472l-30.02526,48.71113l-1.14569,-0.9279l30.02526,-48.71112z" data-paper-data="{&quot;index&quot;:null}" fill="#505054" stroke="none" stroke-width="0"/><path d="M210.71522,232.27999c-0.45059,0.6965 -3.42653,2.70341 -8.10469,0.36791c-2.36409,-1.18024 -4.72963,-4.05972 -6.01072,-6.69615c-1.25398,-2.58065 -1.45104,-4.92787 -1.22815,-5.27239c0.2512,-0.38826 0.91964,2.25746 2.35622,5.20874c1.14038,2.3428 3.1317,4.41903 5.20194,5.45257c4.67816,2.3355 8.23599,0.24283 7.78539,0.93931z" data-paper-data="{&quot;index&quot;:null}" fill="#69696f" stroke="none" stroke-width="0"/><path d="M230.5678,205.02598c-0.73234,1.13197 -5.56902,4.39376 -13.17226,0.59795c-3.84226,-1.9182 -7.68689,-6.59813 -9.76901,-10.88301c-2.03805,-4.19424 1.50215,-6.69005 1.8644,-7.24999c0.40825,-0.63103 -2.36581,2.34991 -0.03099,7.14654c1.85344,3.80768 5.08984,7.18212 8.45452,8.86189c7.60324,3.79581 13.38567,0.39466 12.65334,1.52663z" data-paper-data="{&quot;index&quot;:null}" fill="#69696f" stroke="none" stroke-width="0"/><path d="M233.25599,192.36824c-0.45059,0.69649 -3.42653,2.7034 -8.10469,0.3679c-2.36408,-1.18024 -4.72963,-4.05973 -6.01072,-6.69616c-1.25398,-2.58065 -1.45104,-4.92787 -1.22815,-5.27239c0.2512,-0.38826 0.91965,2.25745 2.35623,5.20875c1.14038,2.3428 3.1317,4.41905 5.20194,5.45257c4.67816,2.33551 8.23599,0.24282 7.78541,0.93931z" data-paper-data="{&quot;index&quot;:null}" fill="#69696f" stroke="none" stroke-width="0"/><path d="M223.51263,222.45221c-0.73233,1.13197 -5.56901,4.39376 -13.17225,0.59795c-3.84227,-1.9182 -7.6869,-6.59812 -9.76902,-10.88301c-2.03805,-4.19423 1.50215,-6.69005 1.8644,-7.24999c0.40825,-0.63103 -2.36581,2.34992 -0.03099,7.14655c1.85344,3.80769 5.08984,7.18213 8.45452,8.86189c7.60324,3.79581 13.38567,0.39466 12.65333,1.52663z" data-paper-data="{&quot;index&quot;:null}" fill="#69696f" stroke="none" stroke-width="0"/><path d="M213.42619,233.47855c-1.69921,0.51979 -5.13952,-1.79742 -4.65634,-4.62578c0.28218,-1.65179 3.02979,-3.19592 4.72243,-5.30315c1.22804,-1.52883 2.78805,-4.48937 3.6371,-6.34816c0.71771,-1.57126 1.7417,-1.63048 2.46566,-3.28579c0.90072,-2.05949 3.29496,-5.67282 3.95168,-7.60923c0.60445,-1.78227 1.34783,-6.13169 1.5882,-7.5343c0.13886,-0.81024 -4.19942,-5.66333 -4.16775,-6.25381c0.02741,-0.51115 -0.69676,-0.89411 -2.15615,-0.46328c-2.42867,0.71698 -6.13516,2.67661 -6.23646,2.62868c-0.66884,-0.31642 -2.10247,0.26845 -4.64641,2.38833c-0.51559,0.42964 -2.47601,-0.31643 -3.01512,0.35751c-2.40144,3.00206 -4.94675,10.04083 -6.83901,14.32001c-3.52114,7.96275 -4.72326,12.47553 -4.80041,10.97244c-0.24085,-4.69309 0.87255,-11.30125 3.62113,-17.5455c5.43876,-12.35587 15.82227,-24.74461 24.57927,-28.25699c12.33671,-4.94818 29.85328,11.89837 17.53994,26.28036c0,0 -12.03204,26.13191 -25.58776,30.27865z" fill="url(#color-3)" stroke="none" stroke-width="0"/><path d="M409.00187,183.08065c4.6237,1.84921 7.21532,-3.07029 7.68945,-0.91002c0.73562,3.35175 -11.16964,33.34781 -13.24635,38.02935c-3.41518,7.69885 -4.36119,10.19096 -8.39994,8.39939c-1.99218,-0.88372 -9.4169,0.88004 -8.57023,-7.97369c0.86978,-9.09543 10.0619,-28.85291 11.79248,-32.75417c2.03172,-4.58013 3.44294,-9.39378 6.35934,-11.14128c1.98585,-1.18991 1.10181,5.00703 4.37525,6.35042z" fill="#202533" stroke="none" stroke-width="0"/><path d="M398.84474,172.90304l-3.8597,-7.26823c0,0 -0.27236,-1.07862 0.16286,-1.31733c0.78276,-0.42932 2.95245,-1.98115 4.59077,-2.52227c0.64872,-0.21426 1.2303,-0.64649 1.2303,-0.64649l4.79097,7.48842c0,0 -0.15345,2.05052 -2.77756,3.63777c-2.9036,1.7563 -4.13765,0.62813 -4.13765,0.62813z" fill="#40454f" stroke="none" stroke-width="0"/><path d="M285.0812,175.59309c0.0102,-1.26253 -0.65037,-2.56351 3.11435,-2.94432c3.99184,-0.40378 17.0946,0.20127 19.32084,0.39885c3.65782,0.32461 5.81041,3.21699 5.80716,3.61865c-0.02103,2.60125 0.17816,6.59354 -4.14762,6.20964c-4.32578,-0.3839 -24.11577,-4.68157 -24.09473,-7.28281z" data-paper-data="{&quot;index&quot;:null}" fill="#2c2c2f" stroke="none" stroke-width="0"/><path d="M256.49039,182.29256c-4.32578,0.3839 -4.12659,-3.35839 -4.14762,-5.95964c-0.02104,-2.60124 1.4814,-3.48475 5.80716,-3.86864c2.22623,-0.19758 15.329,-0.80263 19.32084,-0.39885c3.76473,0.38081 3.10416,1.68178 3.11436,2.94432c0.02104,2.60124 -19.76896,6.89891 -24.09473,7.28281z" data-paper-data="{&quot;index&quot;:null}" fill="#2c2c2f" stroke="none" stroke-width="0"/><path d="M315.18238,260.61227c-0.53033,0.53033 -1.06066,0 -1.06066,0l-0.46967,-0.78033c0.24277,-0.44084 -2.15413,-0.58379 -2.73717,-0.78849c-1.55844,-0.54715 -1.73922,-1.89545 -2.84284,-2.98602c-2.69061,-4.2529 -2.56315,-10.27692 -4.8472,-14.90317c-0.53483,-1.08328 -0.3017,-2.2738 -0.98656,-3.22316c-1.69979,-4.21807 -4.36997,-7.81269 -7.61656,-11.06883c-0.96263,-0.96546 -2.08225,-2.51845 -3.40157,-2.80273c0,0 -0.7276,-0.1819 -0.5457,-0.90951c0.1819,-0.72761 0.90951,-0.5457 0.90951,-0.5457c1.69781,0.46455 2.8618,1.96407 4.09843,3.19728c3.33219,3.32297 6.16372,7.09449 7.88344,11.43117c0.68086,1.08366 0.44747,2.16101 1.01343,3.27683c1.49858,2.9545 2.73307,6.67749 3.31311,9.95219c0.25181,1.42164 0.48854,3.48879 1.3397,4.64464c0.64657,0.65366 0.97038,1.86016 1.62523,2.37947c1.58682,1.25836 3.92526,-0.47217 4.29476,2.34603l0.03033,-0.28033c0,0 0.53033,0.53033 0,1.06066z" fill="#8a8a8a" stroke="none" stroke-width="0.5"/><path d="M316.51203,252.83275c-0.6542,0.47129 -1.18266,-0.11212 -1.18266,-0.11212l-0.08477,-0.10558c-1.79466,-1.57459 -4.60898,1.27666 -7.00172,-0.08975c-1.10698,-0.63216 -1.43975,-2.46233 -2.0546,-3.41082c-0.32109,-2.59794 0.71565,-4.69144 0.78897,-7.21902c0.12415,-4.27969 -1.4784,-8.73634 -2.75932,-12.83819c-0.30283,-3.30475 -3.24496,-6.73511 -5.61928,-9.06284c-1.20735,-1.18367 -2.0724,-3.26655 -4.11392,-3.3882c0,0 -0.83627,-0.07928 -0.74737,-0.82507c0.0889,-0.7458 0.92516,-0.66652 0.92516,-0.66652c2.73194,0.3195 3.5378,2.26101 5.17063,3.86102c2.60738,2.55499 5.63423,6.21897 6.03864,9.80859c1.34431,4.20221 2.88574,8.76972 2.78641,13.16365c-0.05266,2.32947 -1.04142,4.33582 -0.87046,6.70254c0.41459,0.59848 0.70633,2.23716 1.36216,2.61169c2.38965,1.36465 4.55461,-1.89228 7.24047,0.25483l0.2474,0.26112c0,0 0.52847,0.58343 -0.12573,1.05472z" fill="#3d1cba" stroke="none" stroke-width="0.5"/><path d="M289.24513,245.89458c0.01108,-1.75824 -0.70533,-3.57002 3.37756,-4.10036c4.32921,-0.56231 13.53654,0.21858 15.95091,0.49373c4.69135,0.53464 4.5564,2.2219 4.53359,5.84449c-0.0228,3.62258 -1.33798,5.52376 -6.02933,4.98913c-4.69136,-0.53463 -17.85553,-3.6044 -17.83272,-7.22699z" data-paper-data="{&quot;index&quot;:null}" fill="#2c2c2f" stroke="none" stroke-width="0"/><path d="M311.99092,251.91693c-2.39973,2.03428 -5.71343,1.78426 -7.40131,-0.55843c-1.68788,-2.34269 -1.11082,-5.89094 1.28893,-7.92523c2.39973,-2.03428 5.71342,-1.78428 7.4013,0.55841c1.68789,2.34269 1.11082,5.89096 -1.28892,7.92525z" data-paper-data="{&quot;index&quot;:null}" fill="#5e6574" stroke="none" stroke-width="0"/><path d="M307.76471,225.41433c-4.69136,-0.53463 -17.85553,-3.60438 -17.83272,-7.22697c0.01108,-1.75824 -0.70533,-3.57003 3.37756,-4.10037c4.3292,-0.5623 13.53653,0.21859 15.95089,0.49374c4.69136,0.53464 4.5564,2.22191 4.53359,5.8445c-0.02279,3.62258 -1.33798,5.52375 -6.02933,4.98911z" data-paper-data="{&quot;index&quot;:null}" fill="#2c2c2f" stroke="none" stroke-width="0"/><path d="M312.59935,224.27621c-2.29148,1.94251 -5.45567,1.70377 -7.06741,-0.53324c-1.61175,-2.23702 -1.06071,-5.6252 1.23076,-7.56771c2.29149,-1.94251 5.45567,-1.70377 7.06741,0.53325c1.61174,2.23701 1.06072,5.62519 -1.23077,7.5677z" data-paper-data="{&quot;index&quot;:null}" fill="#5e6574" stroke="none" stroke-width="0"/><path d="M292.11828,192.54078c0.00845,-1.34356 -0.53899,-2.72804 2.58096,-3.13329c3.30817,-0.42969 14.16684,0.21419 16.01179,0.42445c3.5849,0.40852 3.7941,0.81665 3.77666,3.58484c-0.01743,2.7682 1.18356,7.28276 -2.40135,6.87422c-3.58491,-0.40854 -19.9855,-4.98204 -19.96807,-7.75022z" data-paper-data="{&quot;index&quot;:null}" fill="#2c2c2f" stroke="none" stroke-width="0"/><path d="M314.496,199.07103c-2.31554,1.9629 -5.51296,1.72166 -7.14162,-0.53884c-1.62867,-2.26051 -1.07182,-5.68425 1.24371,-7.64716c2.31554,-1.96291 5.51294,-1.72167 7.1416,0.53883c1.62867,2.26051 1.07185,5.68426 -1.24369,7.64717z" data-paper-data="{&quot;index&quot;:null}" fill="#5e6574" stroke="none" stroke-width="0"/><path d="M314.20439,197.97124c-1.62388,1.37658 -3.82507,1.26452 -4.91649,-0.25032c-1.09142,-1.51484 -0.65976,-3.85879 0.96413,-5.23537c1.62388,-1.37658 3.82507,-1.26452 4.91648,0.2503c1.09142,1.51484 0.65978,3.85879 -0.96411,5.23538z" data-paper-data="{&quot;index&quot;:null}" fill="url(#color-4)" stroke="none" stroke-width="0"/><path d="M312.3078,223.21053c-1.62388,1.37658 -3.92795,1.12174 -5.14628,-0.56924c-1.21833,-1.69098 -0.88955,-4.17772 0.73433,-5.5543c1.62388,-1.37658 3.92794,-1.12172 5.14626,0.56924c1.21833,1.69098 0.88956,4.17772 -0.73432,5.5543z" data-paper-data="{&quot;index&quot;:null}" fill="url(#color-5)" stroke="none" stroke-width="0"/><path d="M311.24242,251.44413c-1.94866,1.6519 -4.53658,1.59167 -5.78029,-0.13453c-1.24371,-1.7262 -0.67223,-4.46469 1.27643,-6.11659c1.94866,-1.6519 4.53657,-1.59167 5.78028,0.13453c1.24371,1.7262 0.67222,4.46469 -1.27643,6.11658z" data-paper-data="{&quot;index&quot;:null}" fill="url(#color-6)" stroke="none" stroke-width="0"/><path d="M258.79882,252.62156c-4.69135,0.53464 -6.00654,-1.36654 -6.02933,-4.98912c-0.02281,-3.62259 -0.15776,-5.30986 4.53359,-5.8445c2.41436,-0.27515 11.62169,-1.05604 15.95091,-0.49373c4.08289,0.53033 3.36649,2.34212 3.37756,4.10036c0.02281,3.62259 -13.14136,6.69235 -17.83273,7.22698z" data-paper-data="{&quot;index&quot;:null}" fill="#2c2c2f" stroke="none" stroke-width="0"/><path d="M252.59683,243.49168c1.68788,-2.34269 5.00158,-2.59269 7.40131,-0.55842c2.39974,2.03429 2.97681,5.58254 1.28892,7.92523c-1.68789,2.34269 -5.00158,2.59271 -7.40131,0.55843c-2.39974,-2.03429 -2.97681,-5.58256 -1.28892,-7.92525z" data-paper-data="{&quot;index&quot;:null}" fill="#5e6574" stroke="none" stroke-width="0"/><path d="M258.11197,224.91437c-4.69135,0.53464 -6.00654,-1.36654 -6.02933,-4.98912c-0.02281,-3.62259 -0.15777,-5.30986 4.53359,-5.8445c2.41436,-0.27515 11.62169,-1.05604 15.95089,-0.49374c4.08289,0.53033 3.36649,2.34213 3.37756,4.10037c0.02281,3.62259 -13.14136,6.69235 -17.83272,7.22698z" data-paper-data="{&quot;index&quot;:null}" fill="#2c2c2f" stroke="none" stroke-width="0"/><path d="M252.04655,216.20848c1.61175,-2.23702 4.77593,-2.47577 7.06741,-0.53325c2.29147,1.94251 2.84252,5.33069 1.23076,7.56771c-1.61174,2.23701 -4.77592,2.47576 -7.06741,0.53324c-2.29149,-1.94252 -2.84251,-5.33069 -1.23077,-7.5677z" data-paper-data="{&quot;index&quot;:null}" fill="#5e6574" stroke="none" stroke-width="0"/><path d="M256.79032,199.791c-3.58491,0.40854 -2.38392,-4.10602 -2.40135,-6.87422c-0.01743,-2.76819 0.19176,-3.17632 3.77666,-3.58484c1.84495,-0.21026 12.70362,-0.85414 16.01179,-0.42444c3.11995,0.40525 2.57251,1.78972 2.58096,3.13329c0.01743,2.76819 -16.38316,7.34168 -19.96807,7.75022z" data-paper-data="{&quot;index&quot;:null}" fill="#2c2c2f" stroke="none" stroke-width="0"/><path d="M253.13699,190.9239c1.62867,-2.2605 4.82606,-2.50174 7.1416,-0.53883c2.31553,1.9629 2.87238,5.38665 1.24371,7.64716c-1.62866,2.2605 -4.82609,2.50174 -7.14163,0.53884c-2.31554,-1.9629 -2.87235,-5.38666 -1.24368,-7.64716z" data-paper-data="{&quot;index&quot;:null}" fill="#5e6574" stroke="none" stroke-width="0"/><path d="M253.70817,192.23585c1.09141,-1.51482 3.29261,-1.62688 4.91649,-0.2503c1.62388,1.37658 2.05555,3.72053 0.96412,5.23536c-1.09142,1.51484 -3.29262,1.6269 -4.91649,0.25032c-1.6239,-1.37659 -2.05554,-3.72055 -0.96411,-5.23538z" data-paper-data="{&quot;index&quot;:null}" fill="url(#color-7)" stroke="none" stroke-width="0"/><path d="M253.35783,244.82754c1.24371,-1.7262 3.83162,-1.78643 5.78028,-0.13453c1.94866,1.6519 2.52014,4.39039 1.27643,6.11659c-1.24371,1.7262 -3.83163,1.78643 -5.78029,0.13453c-1.94864,-1.65189 -2.52013,-4.39039 -1.27642,-6.11659z" data-paper-data="{&quot;index&quot;:null}" fill="url(#color-8)" stroke="none" stroke-width="0"/><path d="M274.88113,280.66409c0,0 -0.04609,-9.30769 0.04043,-14.22048c0.07344,-4.16966 2.40037,-67.48212 2.40037,-67.48212c0,0 4.444,-4.00451 7.06705,-4.0409c2.98898,-0.04146 7.53196,5.20297 7.53196,5.20297c0,0 0.82652,60.86395 0.82217,65.32525c-0.0049,5.02094 -0.42365,16.01073 -0.42365,16.01073z" fill="#40454f" stroke="none" stroke-width="0"/><path d="M272.51575,284.07829c0,0 0.43398,-6.33281 0.40594,-7.52771c-0.02646,-1.12655 1.47958,-3.63635 1.47958,-3.63635c0,0 3.09742,4.2713 8.13566,4.24953c8.23335,-0.03556 11.15896,-1.79219 11.15896,-1.79219c0,0 0.98639,2.62413 1.00769,3.5323c0.03015,1.28431 -0.98514,4.67661 -0.98514,4.67661c0,0 -6.74866,1.39023 -10.50404,1.47841c-3.23394,0.07592 -10.69866,-0.98062 -10.69866,-0.98062z" fill="#3a3a3d" stroke="none" stroke-width="0"/><path d="M272.58509,230.48623l21.56806,0.02117l-0.02268,23.10864c0,0 -7.05544,-1.98494 -10.69188,-1.98849c-3.55088,-0.00348 -10.87619,1.96734 -10.87619,1.96734z" fill="#3a3a3d" stroke="none" stroke-width="0"/><path d="M273.36386,205.06025l21.56806,0.02117l-0.02268,23.10864c0,0 -7.08223,-1.73435 -10.61002,-1.73781c-3.65691,-0.0036 -10.95805,1.71665 -10.95805,1.71665z" fill="#3a3a3d" stroke="none" stroke-width="0"/><path d="M322.73651,285.79474c0,4.75278 -11.23969,6.30461 -16.18462,9.96863c-8.25396,6.1159 -6.49089,17.05849 -22.35737,17.05849c-12.79779,0 -12.44083,-10.49196 -20.77108,-14.71347c-8.18474,-4.14776 -21.35066,-4.59463 -21.35066,-10.88175c0,-12.68602 18.1816,-5.07131 43.55364,-5.07131c25.37204,0 37.11009,-9.0466 37.11009,3.63941z" fill="url(#color-9)" stroke="none" stroke-width="0"/><path d="M259.85566,259.7173c0.05711,0.52874 -0.3012,0.72305 -0.51451,0.79135c-0.07874,0.67009 -0.20127,1.50547 0.00046,1.77167c1.22026,1.61018 2.89321,0.77951 4.27901,-0.19539c2.52493,-1.77627 4.40695,-4.08823 5.37705,-7.06277c-0.33541,-3.10555 -1.34083,-7.897 -0.81719,-10.99487c0.42824,-2.53346 2.01481,-6.05156 1.29521,-8.58214c0.06374,-1.91418 1.08421,-2.51546 1.78107,-4.10776c0.43145,-0.98585 -0.19297,-1.46897 0.3515,-2.59083c1.23293,-2.5404 3.71476,-4.90168 5.48787,-7.10417c0,0 0.47031,-0.58422 1.05453,-0.11389c0.58421,0.47032 0.1139,1.05452 0.1139,1.05452c-1.7813,2.21266 -3.89573,4.4238 -5.33108,6.86625c-0.4288,0.72966 0.06315,1.55008 -0.2887,2.45684c-0.51859,1.33644 -1.62375,1.87838 -1.67776,3.37799c0.74843,3.23089 -1.82746,6.64361 -1.43553,9.75651c0.42352,3.36388 0.6028,6.82141 0.95945,10.12365c-1.21505,4.12579 -3.9067,7.11709 -7.73489,8.87157c-1.68373,0.77167 -3.49183,1.04041 -4.67628,-0.94447c-0.6259,-1.04888 -0.0516,-2.05742 -0.18411,-3.16235l1.13381,-0.87681c0,0 0.74566,-0.08053 0.8262,0.66514z" fill="#bb1c1c" stroke="none" stroke-width="0.5"/><path d="M265.86386,177.06025c0,0 6.9606,-5.42027 16.73927,-5.65601c13.74088,-0.33126 17.82879,5.67718 17.82879,5.67718c0,0 -7.00458,5.16259 -7.00752,8.15889c-0.00418,4.25562 1.98484,15.44975 1.98484,15.44975c0,0 -7.08223,-1.73435 -10.61002,-1.73782c-3.65691,-0.00359 -10.95805,1.71665 -10.95805,1.71665c0,0 2.53293,-10.2607 1.0877,-14.53783c-1.14159,-3.37851 -9.06501,-9.07081 -9.06501,-9.07081z" fill="#3a3a3d" stroke="none" stroke-width="0"/><path d="M273.01575,267.45329c0,0 -0.19102,-4.20781 -0.21906,-5.40271c-0.02645,-1.12655 1.10459,-2.01135 1.10459,-2.01135c0,0 3.47243,2.64631 8.51066,2.62454c8.23335,-0.03556 11.15897,-1.79218 11.15897,-1.79218c0,0 0.98638,2.62413 1.00769,3.53229c0.03015,1.28431 -0.98514,4.67662 -0.98514,4.67662c0,0 -6.74867,1.39023 -10.50404,1.47841c-3.23394,0.07592 -10.07365,-3.10561 -10.07365,-3.10561z" fill="#3a3a3d" stroke="none" stroke-width="0"/><path d="M259.88606,253.67631c-0.653,-0.36891 -0.28409,-1.02191 -0.28409,-1.02191l0.10431,0.26196c-0.39882,-2.8142 2.31768,-1.77322 3.50949,-3.41062c0.49183,-0.67573 0.48066,-1.92488 0.92854,-2.72783c0.51048,-1.34159 0.1849,-3.39662 0.04674,-4.83377c-0.31824,-3.31041 -0.12602,-7.22802 0.52648,-10.47595c0.24642,-1.22664 -0.267,-2.20211 0.09874,-3.42854c0.49536,-4.63884 2.21327,-9.03096 4.5337,-13.12501c0.86115,-1.51937 1.58098,-3.27587 3.09233,-4.17818c0,0 0.6523,-0.37015 1.02244,0.28216c0.37014,0.65231 -0.28216,1.02244 -0.28216,1.02244c-1.19498,0.62726 -1.85774,2.42339 -2.52661,3.6114c-2.25585,4.00674 -3.86569,8.1852 -4.37362,12.70443c-0.40556,1.09811 0.13792,2.18269 -0.08723,3.36964c-0.96151,5.06898 0.77476,10.83877 -0.67846,15.65693c-0.7712,1.34632 -0.58425,2.69377 -1.9392,3.63834c-0.50691,0.35338 -2.77795,1.13309 -2.42598,1.4928l-0.24351,0.87762c0,0 -0.36891,0.653 -1.02191,0.28409z" data-paper-data="{&quot;index&quot;:null}" fill="#8a8a8a" stroke="none" stroke-width="0.5"/><path d="M255.12515,170.74921c1.52197,0.06302 2.88146,2.91089 3.03651,6.36089c0.15504,3.44999 -0.95307,6.19568 -2.47504,6.13265c-1.52197,-0.06302 -2.88146,-2.91089 -3.0365,-6.36089c-0.15504,-3.44999 0.95307,-6.19568 2.47504,-6.13265z" fill="#232325" stroke="none" stroke-width="0"/><path d="M253.93759,171.67175c2.3963,0.09924 4.44661,2.57691 4.5795,5.53404c0.13289,2.95714 -1.70195,5.27393 -4.09825,5.1747c-2.3963,-0.09924 -4.44661,-2.57691 -4.5795,-5.53404c-0.13289,-2.95714 1.70195,-5.27393 4.09825,-5.1747z" fill="url(#color-10)" stroke="none" stroke-width="0"/><path d="M250.25857,170.5477c1.61912,0.06705 3.05736,2.91817 3.2124,6.36817c0.15504,3.44999 -1.03183,6.19242 -2.65094,6.12537c-1.61912,-0.06705 -3.05736,-2.91817 -3.2124,-6.36817c-0.15504,-3.44999 1.03183,-6.19242 2.65094,-6.12537z" fill="#2d2d2f" stroke="none" stroke-width="0"/><path d="M312.24272,171.99922c1.52197,-0.06302 2.63009,2.68266 2.47505,6.13266c-0.15504,3.45 -1.51452,6.29786 -3.03649,6.36089c-1.52197,0.06302 -2.63009,-2.68266 -2.47505,-6.13265c0.15505,-3.45 1.51453,-6.29786 3.0365,-6.36089z" data-paper-data="{&quot;index&quot;:null}" fill="#232325" stroke="none" stroke-width="0"/><path d="M317.52854,178.09645c-0.1329,2.95713 -2.18321,5.4348 -4.57951,5.53404c-2.3963,0.09923 -4.23113,-2.21756 -4.09825,-5.1747c0.1329,-2.95713 2.18321,-5.4348 4.5795,-5.53404c2.3963,-0.09923 4.23113,2.21756 4.09825,5.1747z" data-paper-data="{&quot;index&quot;:null}" fill="url(#color-11)" stroke="none" stroke-width="0"/><path d="M319.76026,177.92306c-0.15504,3.45 -1.59329,6.30112 -3.2124,6.36817c-1.6191,0.06705 -2.80597,-2.67538 -2.65094,-6.12537c0.15504,-3.45 1.59329,-6.30111 3.2124,-6.36816c1.6191,-0.06705 2.80597,2.67537 2.65094,6.12536z" data-paper-data="{&quot;index&quot;:null}" fill="#2d2d2f" stroke="none" stroke-width="0"/><path d="M250.05069,177.05173c0,4.11452 -3.24593,7.45 -7.25,7.45c-4.00407,0 -7.25,-3.33548 -7.25,-7.45c0,-4.11452 3.24593,-7.45 7.25,-7.45c4.00407,0 7.25,3.33548 7.25,7.45z" fill="#39393c" stroke="none" stroke-width="0"/><path d="M249.65069,177.70173c0,3.09279 -2.32812,5.6 -5.2,5.6c-2.87188,0 -5.2,-2.5072 -5.2,-5.6c0,-3.0928 2.32812,-5.6 5.2,-5.6c2.87188,0 5.2,2.5072 5.2,5.6z" fill="url(#color-12)" stroke="none" stroke-width="0"/><path d="M330.65068,179.05173c0,4.11452 -3.24593,7.45 -7.25,7.45c-4.00407,0 -7.25,-3.33548 -7.25,-7.45c0,-4.11452 3.24593,-7.45 7.25,-7.45c4.00407,0 7.25,3.33548 7.25,7.45z" fill="#39393c" stroke="none" stroke-width="0"/><path d="M330.25069,179.70173c0,3.09279 -2.32812,5.6 -5.2,5.6c-2.87188,0 -5.2,-2.5072 -5.2,-5.6c0,-3.0928 2.32812,-5.6 5.2,-5.6c2.87188,0 5.2,2.5072 5.2,5.6z" fill="url(#color-13)" stroke="none" stroke-width="0"/><path d="M335.57116,232.23148c-1.43144,-1.09483 -7.09058,-8.24473 0.08648,-15.73495c3.62691,-3.78515 11.06966,-7.92738 17.63526,-9.16937c6.42667,-1.21573 9.45801,4.37388 10.16607,4.91543c0.36778,0.28129 -1.69245,-1.85662 -4.09286,-2.41281c-2.8079,-0.65062 -6.06354,0.23922 -6.17435,0.26409c-3.268,0.73347 -10.50379,4.35894 -14.61832,7.52111c-4.13068,3.17457 -4.7351,5.94864 -4.68053,7.25882c0.17607,4.22769 2.55212,8.02606 1.67823,7.35768z" data-paper-data="{&quot;index&quot;:null}" fill="#424246" stroke="none" stroke-width="0"/><path d="M361.96946,245.48543c0.45279,-3.71552 3.54058,-6.39175 6.89673,-5.97754c3.35617,0.41421 5.70983,3.76202 5.25703,7.47755c-0.45279,3.71552 -3.54058,6.39175 -6.89674,5.97754c-3.35617,-0.41421 -5.70981,-3.76202 -5.25702,-7.47754z" fill="#3a3a3d" stroke="none" stroke-width="0"/><path d="M361.82008,245.78248c0.40624,-3.33354 3.1318,-5.7402 6.08768,-5.37538c2.95589,0.36481 5.02279,3.36293 4.61655,6.69649c-0.40624,3.33354 -3.1318,5.74018 -6.08769,5.37537c-2.95589,-0.36481 -5.02278,-3.36293 -4.61654,-6.69647z" fill="url(#color-14)" stroke="none" stroke-width="0"/><path d="M351.29187,244.19831c-0.88073,-0.67364 -4.36272,-5.07286 0.05321,-9.68146c2.23158,-2.32894 6.811,-4.87759 10.85071,-5.64178c3.95424,-0.74803 7.38889,0.26028 7.82456,0.59349c0.49098,0.37553 -7.76032,1.08043 -7.88678,1.10881c-2.01075,0.45129 -6.46282,2.682 -8.99443,4.62762c-2.54154,1.95327 -2.91343,3.6601 -2.87985,4.46624c0.10834,2.60125 1.57028,4.93832 1.03259,4.52706z" data-paper-data="{&quot;index&quot;:null}" fill="#424246" stroke="none" stroke-width="0"/><path d="M323.14671,194.36318c-0.88073,-0.67364 -4.36272,-5.07286 0.05321,-9.68146c2.23158,-2.32894 6.81101,-4.87761 10.85071,-5.64179c3.95424,-0.74803 7.38889,0.26029 7.82456,0.59351c0.49098,0.37553 -7.76032,1.08043 -7.88678,1.10881c-2.01075,0.45129 -6.46282,2.682 -8.99443,4.62762c-2.54154,1.95326 -2.91343,3.66009 -2.87985,4.46623c0.10834,2.60123 1.57028,4.93833 1.0326,4.52707z" data-paper-data="{&quot;index&quot;:null}" fill="#424246" stroke="none" stroke-width="0"/><path d="M326.76184,210.4725c-1.43144,-1.09483 -7.09058,-8.24473 0.08648,-15.73495c3.62691,-3.78515 11.06966,-7.92738 17.63527,-9.16937c6.42667,-1.21573 9.45801,4.37388 10.16607,4.91543c0.36778,0.28129 -1.69245,-1.85662 -4.09286,-2.41281c-2.8079,-0.65062 -6.06354,0.23922 -6.17435,0.26409c-3.268,0.73347 -10.50379,4.35894 -14.61832,7.52111c-4.13068,3.17457 -4.7351,5.94864 -4.68053,7.25882c0.17607,4.22769 2.55212,8.02607 1.67823,7.35768z" data-paper-data="{&quot;index&quot;:null}" fill="#424246" stroke="none" stroke-width="0"/><path d="M328.24805,182.46201l37.49053,60.82231l-1.43054,1.1586l-37.49053,-60.82231z" fill="#505054" stroke="none" stroke-width="0"/><path d="M350.87837,243.71139c-0.56263,-0.86965 3.8798,1.74333 9.7211,-1.17285c2.58496,-1.29051 5.07139,-3.88296 6.49531,-6.80826c1.79377,-3.68507 2.62841,-6.9886 2.94206,-6.5038c0.2783,0.43018 0.03225,3.36099 -1.53351,6.58328c-1.59961,3.29194 -4.55331,6.88735 -7.50519,8.36104c-5.8413,2.91618 -9.55716,0.41028 -10.11978,-0.45939z" fill="#69696f" stroke="none" stroke-width="0"/><path d="M326.08978,209.68116c-0.91442,-1.41341 6.30571,2.83338 15.79937,-1.9062c4.20125,-2.09741 8.24233,-6.31085 10.55659,-11.06524c2.91533,-5.98923 -0.54845,-9.71134 -0.03869,-8.92341c0.45231,0.69916 4.87273,3.81551 2.32795,9.05257c-2.5998,5.35025 -7.40034,11.19376 -12.19791,13.58889c-9.49366,4.73958 -15.5329,0.6668 -16.44732,-0.74662z" fill="#69696f" stroke="none" stroke-width="0"/><path d="M322.7332,193.87626c-0.56262,-0.86966 3.87982,1.74333 9.72112,-1.17286c2.58497,-1.2905 5.07139,-3.88296 6.49531,-6.80826c1.79377,-3.68509 2.62841,-6.98862 2.94207,-6.50382c0.2783,0.43018 0.03225,3.36099 -1.53351,6.58328c-1.59961,3.29194 -4.55332,6.88736 -7.50519,8.36105c-5.8413,2.91619 -9.55716,0.41029 -10.11978,-0.45937z" fill="#69696f" stroke="none" stroke-width="0"/><path d="M334.89911,231.44016c-0.91442,-1.41341 6.30571,2.83338 15.79937,-1.9062c4.20125,-2.09741 8.24233,-6.31085 10.55659,-11.06525c2.91533,-5.98923 -0.54845,-9.71134 -0.03869,-8.92341c0.45231,0.69916 4.87273,3.81552 2.32795,9.05257c-2.5998,5.35026 -7.40034,11.19376 -12.19792,13.58889c-9.49366,4.73958 -15.5329,0.6668 -16.44731,-0.74662z" fill="#69696f" stroke="none" stroke-width="0"/><path d="M363.69513,233.4685c1.27328,-11.51496 9.18008,-25.79104 18.34389,-37.16708c6.282,-7.79853 14.80604,-15.01644 19.43949,-16.95165c3.19194,-1.33315 -1.28919,0.49194 -1.37384,3.98985c-0.08483,3.50534 1.97603,8.4367 4.43735,10.12081c2.23596,1.5299 5.02846,-0.48627 8.72759,-2.81557c3.01563,-1.89891 3.7487,-7.39722 3.73566,-5.14582c-0.03167,5.46413 6.14634,11.79543 -6.6486,32.97213c-20.94642,30.05461 -32.68169,37.12834 -41.16444,31.32423c-3.28188,-2.24555 -6.30057,-9.06065 -5.4971,-16.32689z" data-paper-data="{&quot;index&quot;:null}" fill="url(#color-15)" stroke="none" stroke-width="0"/><path d="M404.49993,162.21458l2.72395,-5.14106l30.55556,8.95895l0.27413,7.03276z" fill="#272a30" stroke="none" stroke-width="0"/><path d="M425.50334,162.45389l5.1957,-6.38194c0,0 0.88787,-0.6703 1.277,-0.36214c0.69987,0.55424 2.9732,1.94987 4.10872,3.24891c0.44963,0.51437 1.07398,0.88215 1.07398,0.88215l-5.03648,7.32555c0,0 -1.94885,0.65588 -4.43149,-1.14464c-2.74706,-1.9923 -2.18744,-3.56787 -2.18744,-3.56787z" fill="#40454f" stroke="none" stroke-width="0"/><path d="M433.62271,160.18204c-1.03607,-1.06325 -0.12675,-3.62971 2.03104,-5.73233c2.15779,-2.10263 4.74692,-2.94519 5.78299,-1.88194c1.03607,1.06325 0.12675,3.62971 -2.03104,5.73233c-2.15779,2.10263 -4.74692,2.94519 -5.78299,1.88194z" fill="#5e6574" stroke="none" stroke-width="0"/><path d="M436.60634,157.89528c-1.81119,-1.41038 -3.42913,-4.04549 -3.19633,-6.25565c0.11681,-1.10901 1.10218,-2.27772 1.68082,-3.02082c1.73183,-2.22401 5.0565,1.58979 7.77651,3.70785c1.36464,1.06265 3.80167,5.59207 0.24057,7.92601c-2.74432,1.79863 -5.14619,-1.30197 -6.50156,-2.35739z" fill="#1e232d" stroke="none" stroke-width="0"/><path d="M450.34478,159.4814c-0.12748,0.31616 -0.99106,1.77493 -2.46953,2.60603c-0.84419,0.47455 -2.1148,0.29035 -2.64442,0.30551c-0.45788,0.01311 -0.16101,-2.22307 -0.74189,-4.16942c-0.37534,-1.25765 -1.91716,-2.28343 -2.12064,-2.23792c-1.58193,0.35378 -1.41244,2.22053 -2.36493,1.83645c-1.15558,-0.46596 -2.59724,-1.58981 -3.19833,-3.08448c-0.37058,-0.92151 -0.27233,-2.26129 -0.03588,-2.84769c0.61998,-1.53752 6.48928,-1.22488 8.3573,-0.47164c0.83073,0.33498 2.64121,1.16402 3.71484,2.67034c1.34061,1.8809 1.84773,4.53905 1.50345,5.39283z" fill="#40454f" stroke="none" stroke-width="0"/><path d="M402.82967,164.91147c-1.7015,1.54093 -4.57608,2.68036 -6.71302,2.07004c-1.07226,-0.30625 -2.05361,-1.47834 -2.68583,-2.17643c-1.89214,-2.0893 2.43769,-4.70672 4.99296,-7.02087c1.282,-1.16102 6.16373,-2.7807 7.84881,1.12944c1.29859,3.01331 -2.16965,4.84469 -3.44293,5.99782z" fill="#1e232d" stroke="none" stroke-width="0"/><path d="M405.58955,150.199c0.52471,0.81394 0.41767,2.09336 0.46482,2.62111c0.04076,0.45625 -2.20927,0.29511 -4.11694,0.9926c-1.23266,0.45069 -2.16335,2.05169 -2.10562,2.25205c0.44878,1.55766 2.30187,1.27562 1.97608,2.24958c-0.39526,1.18165 -1.42989,2.68861 -2.88549,3.37896c-0.89742,0.42561 -2.24068,0.40854 -2.84031,0.20797c-1.5722,-0.52589 -1.61496,-6.40335 -0.97603,-8.3135c0.28415,-0.84946 1.0022,-2.70675 2.44087,-3.86948c1.79642,-1.45186 4.41904,-2.11877 5.29207,-1.82674c0.32328,0.10812 1.8316,0.88193 2.75056,2.30746z" fill="#40454f" stroke="none" stroke-width="0"/><path d="M416.98403,183.05173c0,4.11452 -3.24593,7.45 -7.25,7.45c-4.00407,0 -7.25,-3.33548 -7.25,-7.45c0,-4.11452 3.24593,-7.45 7.25,-7.45c4.00407,0 7.25,3.33548 7.25,7.45z" fill="#39393c" stroke="none" stroke-width="0"/><path d="M416.58403,183.70173c0,3.09279 -2.32812,5.6 -5.2,5.6c-2.87188,0 -5.2,-2.5072 -5.2,-5.6c0,-3.0928 2.32812,-5.6 5.2,-5.6c2.87188,0 5.2,2.5072 5.2,5.6z" fill="url(#color-16)" stroke="none" stroke-width="0"/><path d="M414.62228,158.96226l6.01322,-5.61834c0,0 0.97057,-0.5437 1.31432,-0.18561c0.61825,0.64404 2.68129,2.33508 3.63014,3.77612c0.37571,0.5706 0.94442,1.01965 0.94442,1.01965l-5.98345,6.57482c0,0 -2.01979,0.38552 -4.2353,-1.73506c-2.45148,-2.34644 -1.68336,-3.83157 -1.68336,-3.83157z" fill="#2e3138" stroke="none" stroke-width="0"/><path d="M421.42854,158.56282c-1.17117,-0.9123 -0.6197,-3.57866 1.23174,-5.95546c1.85145,-2.37681 4.30178,-3.56401 5.47296,-2.65171c1.17117,0.9123 0.6197,3.57866 -1.23174,5.95546c-1.85145,2.37681 -4.30178,3.56401 -5.47296,2.65171z" fill="#5e6574" stroke="none" stroke-width="0"/><path d="M425.62764,156.53039c-1.98634,-1.15067 -3.94794,-3.541 -4.0182,-5.76227c-0.03525,-1.11458 0.78183,-2.40656 1.25392,-3.22151c1.41293,-2.43907 5.22585,0.8866 8.20889,2.61465c1.4966,0.86697 4.52756,5.02247 1.31735,7.81946c-2.47391,2.15549 -5.27552,-0.58927 -6.76196,-1.45034z" fill="#161a22" stroke="none" stroke-width="0"/><path d="M441.84004,151.3501c-0.00442,0.34085 -0.28151,2.01327 -1.35898,3.32311c-0.61521,0.74789 -1.86635,1.03604 -2.35459,1.24183c-0.4221,0.17792 -0.95464,-2.01412 -2.20055,-3.6183c-0.80506,-1.03655 -2.61359,-1.43479 -2.78681,-1.31873c-1.34667,0.90232 -0.51307,2.58119 -1.53999,2.56786c-1.24588,-0.01617 -2.99655,-0.54207 -4.09782,-1.7179c-0.67896,-0.72492 -1.07226,-2.00944 -1.06405,-2.64167c0.02151,-1.65769 5.6061,-3.49039 7.6201,-3.46426c0.89565,0.01163 2.88344,0.12924 4.42944,1.1449c1.93045,1.26822 3.3652,3.56265 3.35326,4.48315z" fill="#363a43" stroke="none" stroke-width="0"/><path d="M422.2311,184.41593l-23.66775,-6.92758l6.55915,-16.42746l33.0312,10.58749z" fill="#40454f" stroke="none" stroke-width="0"/><path d="M408.62152,158.0874l3.80801,-7.29545c0,0 0.73514,-0.83497 1.17824,-0.61124c0.79694,0.40238 3.30425,1.31296 4.67755,2.35746c0.54378,0.41359 1.22927,0.64846 1.22927,0.64846l-3.46252,8.18785c0,0 -1.7774,1.03394 -4.57108,-0.23125c-3.09122,-1.39995 -2.85948,-3.05582 -2.85948,-3.05582z" fill="#40454f" stroke="none" stroke-width="0"/><path d="M414.90952,155.45192c-1.40756,-0.47195 -1.77217,-3.17021 -0.81439,-6.02673c0.95779,-2.85651 2.87528,-4.7896 4.28284,-4.31764c1.40756,0.47195 1.77217,3.17021 0.81439,6.02673c-0.95779,2.85651 -2.87528,4.7896 -4.28284,4.31764z" fill="#5e6574" stroke="none" stroke-width="0"/><path d="M418.19619,152.14119c-2.25562,-0.4263 -4.89931,-2.03021 -5.70271,-4.1023c-0.40314,-1.03973 -0.06109,-2.52963 0.11381,-3.45507c0.52346,-2.76973 5.22393,-0.89784 8.61138,-0.25765c1.6995,0.32119 5.9377,3.23535 3.8376,6.93918c-1.61842,2.8543 -5.17212,1.19484 -6.86006,0.87583z" fill="#1e232d" stroke="none" stroke-width="0"/><path d="M431.77076,141.87432c0.10895,0.32301 0.40255,1.99261 -0.17919,3.58578c-0.33216,0.90966 -1.41678,1.59667 -1.80905,1.95283c-0.33914,0.30791 -1.56894,-1.58316 -3.27659,-2.68299c-1.10341,-0.71066 -2.94161,-0.48617 -3.0665,-0.31919c-0.97092,1.29808 0.37256,2.60517 -0.60058,2.93339c-1.18065,0.39819 -3.00663,0.48304 -4.43569,-0.26068c-0.88106,-0.45853 -1.67833,-1.53975 -1.8804,-2.13887c-0.52982,-1.57088 4.13012,-5.15299 6.03867,-5.79669c0.84875,-0.28626 2.76293,-0.83496 4.55837,-0.3899c2.24193,0.55573 4.35678,2.24402 4.65098,3.11632z" fill="#40454f" stroke="none" stroke-width="0"/><path d="M243.24222,247.45477c-1.53346,0.94667 -10.23179,3.68271 -14.66874,-5.69423c-2.24219,-4.73861 -3.45666,-13.16937 -2.27465,-19.74603c1.15698,-6.43751 7.46022,-7.27529 8.21874,-7.74356c0.39399,-0.24323 -2.33824,0.91873 -3.71417,2.96278c-1.60953,2.39103 -1.93969,5.7499 -1.95599,5.86229c-0.48065,3.31463 0.3249,11.3677 1.81114,16.33959c1.49206,4.99141 3.86797,6.54571 5.11141,6.96213c4.01232,1.34374 8.40841,0.47911 7.47225,1.05705z" data-paper-data="{&quot;index&quot;:null}" fill="#424246" stroke="none" stroke-width="0"/><path d="M260.02998,237.03764c-0.94351,0.58245 -6.29547,2.26591 -9.02544,-3.50357c-1.37958,-2.91559 -2.12683,-8.10291 -1.39956,-12.14943c0.71186,-3.96091 2.87914,-6.80985 3.34585,-7.09798c0.52598,-0.3247 -1.75916,7.63514 -1.77776,7.7634c-0.29574,2.03944 0.19991,6.99437 1.11436,10.0535c0.91805,3.07114 2.3799,4.02746 3.14498,4.28368c2.46874,0.82679 5.17357,0.29479 4.59756,0.65038z" data-paper-data="{&quot;index&quot;:null}" fill="#424246" stroke="none" stroke-width="0"/><path d="M219.77225,247.92192c-1.53346,0.94667 -10.23179,3.68271 -14.66874,-5.69423c-2.24219,-4.73861 -3.45666,-13.16937 -2.27464,-19.74604c1.15698,-6.43751 7.46022,-7.27529 8.21874,-7.74356c0.39399,-0.24323 -2.33823,0.91874 -3.71417,2.96278c-1.60953,2.39103 -1.93969,5.7499 -1.95599,5.86229c-0.48065,3.31463 0.3249,11.36769 1.81114,16.33959c1.49206,4.99141 3.86797,6.5457 5.11141,6.96213c4.01232,1.34374 8.40842,0.47911 7.47225,1.05705z" data-paper-data="{&quot;index&quot;:null}" fill="#424246" stroke="none" stroke-width="0"/><path d="M197.46838,236.54077l66.88855,-13.3253l0.54507,1.74974l-66.88855,13.3253z" data-paper-data="{&quot;index&quot;:null}" fill="#505054" stroke="none" stroke-width="0"/><path d="M259.42759,237.25022c-1.01314,0.21536 3.01274,-3.00257 2.37232,-9.49986c-0.28341,-2.87526 -1.81824,-6.12294 -4.04308,-8.49677c-2.80266,-2.99039 -5.59106,-4.94864 -5.02627,-5.0687c0.50116,-0.10652 3.15134,1.1689 5.60302,3.78119c2.50467,2.66875 4.80977,6.71077 5.1334,9.99415c0.64041,6.49729 -3.02623,9.07466 -4.03939,9.29001z" data-paper-data="{&quot;index&quot;:null}" fill="#69696f" stroke="none" stroke-width="0"/><path d="M218.79323,248.26745c-1.64663,0.35002 4.89651,-4.87998 3.85565,-15.43981c-0.4606,-4.67306 -2.95514,-9.95138 -6.57108,-13.80949c-4.55509,-4.86016 -9.26799,-2.95216 -8.35005,-3.14728c0.81452,-0.17312 5.30279,-3.19092 9.28741,1.05473c4.07072,4.33743 7.81714,10.90677 8.34314,16.24312c1.04086,10.55982 -4.91844,14.74871 -6.56507,15.09873z" data-paper-data="{&quot;index&quot;:null}" fill="#69696f" stroke="none" stroke-width="0"/><path d="M242.2632,247.8003c-1.64663,0.35002 4.89651,-4.87998 3.85565,-15.43981c-0.4606,-4.67306 -2.95515,-9.95138 -6.5711,-13.80949c-4.55509,-4.86016 -9.26799,-2.95216 -8.35005,-3.14728c0.81452,-0.17312 5.3028,-3.19092 9.2874,1.05473c4.07074,4.33744 7.81714,10.90677 8.34313,16.24313c1.04086,10.55982 -4.91843,14.74871 -6.56507,15.09872z" data-paper-data="{&quot;index&quot;:null}" fill="#69696f" stroke="none" stroke-width="0"/><path d="M272.78555,223.00097c3.08027,8.45818 2.65915,16.67286 -0.94064,18.34803c-3.5998,1.67516 -9.01507,-3.82353 -12.09535,-12.28172c-3.08027,-8.45818 -2.65915,-16.67287 0.94065,-18.34803c3.5998,-1.67516 9.01507,3.82354 12.09534,12.28173z" data-paper-data="{&quot;index&quot;:null}" fill="#555557" stroke="none" stroke-width="0"/><path d="M268.64504,207.54916c1.87525,-0.87265 5.08295,-2.10248 8.50238,-0.2182c3.56363,1.96374 7.33423,7.14782 8.90617,11.46424c1.18849,3.26352 2.89508,7.84977 2.11682,10.85512c-1.23881,4.78372 -6.01872,7.43412 -8.37068,8.5286c-3.82955,1.78208 -9.4311,-3.62995 -12.51138,-12.08814c-3.08027,-8.45818 -2.47287,-16.75954 1.35669,-18.54163z" data-paper-data="{&quot;index&quot;:null}" fill="#5d5d60" stroke="none" stroke-width="0"/><path d="M267.70883,208.46945c1.85351,-1.00178 7.60455,-2.9141 11.83681,0.49367c3.82417,3.07917 6.1611,11.24113 7.69632,15.08585c3.23429,8.09975 -4.29247,11.84525 -7.82075,13.75222c-3.52828,1.90697 -9.01043,-3.11325 -12.24471,-11.21298c-3.23428,-8.09974 -2.99593,-16.21178 0.53234,-18.11875z" data-paper-data="{&quot;index&quot;:null}" fill="url(#color-17)" stroke="none" stroke-width="0"/><path d="M282.17765,226.03546c-0.65107,0.11612 -3.8041,-1.59607 -5.30828,-3.96105c-1.65,-2.5942 -1.57535,-5.93421 -0.21682,-7.5634c0.2306,-0.27652 10.56226,-6.9997 18.05443,-14.36863c2.47282,-2.43214 6.39451,-9.0641 9.21558,-12.20071c4.48032,-4.98146 7.8132,-4.7465 7.96312,-4.04259c0.04915,0.23082 5.16661,5.00377 6.92764,12.3272c0.55421,2.30472 1.98214,12.24133 -0.10312,19.12749c-1.67345,5.52618 -5.13954,7.16088 -7.00097,8.68335c-3.10655,2.54088 0.28892,-1.35125 2.56766,-5.40769c0.95734,-1.70418 1.37409,-3.8545 1.58138,-4.89793c0.31964,-1.60895 1.73624,-11.85406 0.32911,-16.93353c-1.53038,-5.52432 -5.95816,-5.82955 -7.25606,-5.44615c-9.51586,2.81096 -23.71544,34.14176 -26.75365,34.68362z" data-paper-data="{&quot;index&quot;:null}" fill="url(#color-18)" stroke="none" stroke-width="0"/><g><path d="M288.0666,107.80897v-26.65187h30.45928v26.65187z" fill="#000000" stroke="none" stroke-width="0"/><path d="M288.0666,107.80897v-27.41336h8.3763v27.41336z" fill="url(#color-19)" stroke="none" stroke-width="0"/><path d="M300.25031,107.42823v-27.41335h8.3763v27.41335z" fill="url(#color-20)" stroke="none" stroke-width="0"/><path d="M311.2918,107.80897v-27.41336h8.3763v27.41336z" fill="url(#color-21)" stroke="none" stroke-width="0"/><path d="M282.05366,140.40564c-36.56346,0 -64.65988,-10.01911 -64.65988,-14.28307c0,-1.15603 15.06049,-3.09407 22.33231,-9.74713c4.35814,-3.98731 4.21281,-9.26241 5.25463,-14.56841c1.07751,-5.48778 3.33265,-11.02017 7.48556,-15.90357c3.63075,-4.2694 8.72506,-8.48882 13.78692,-11.23229c5.5413,-3.00333 7.25653,-5.12005 8.71953,-6.27904c0.5902,-0.46755 2.386,-1.05627 2.44858,-1.05627c6.32951,0 23.48639,-0.45321 25.37846,8.47102c0.28779,1.35739 -5.27825,5.64564 -7.60014,9.3782c-1.03977,1.67147 -0.10634,3.89284 0.01136,4.54801c0.32981,1.83604 -7.89565,8.55236 -7.05145,10.15163c1.25943,2.38589 15.80456,0.07692 18.33849,0.4799c6.40156,1.01806 14.58378,1.1826 16.99728,3.89066c1.43174,1.60649 -0.97684,4.42132 -0.55143,7.18441c0.3767,2.44672 3.58274,4.85287 4.72172,6.3435c3.87985,5.07774 24.75189,6.46228 22.34902,10.20595c-5.20777,8.11369 -42.94149,12.41652 -67.96095,12.41652z" fill="url(#color-22)" stroke="none" stroke-width="0"/><path d="M315.42193,146.74566c0,9.49358 -16.0812,25.12331 -32.57024,25.12331c-0.602,0 -13.50817,1.7099 -22.55971,-5.13101c-5.302,-4.0071 -8.92485,-16.15962 -8.92485,-19.46339c0,-2.03755 -1.80203,-9.30224 -0.63258,-10.73318c4.27939,-5.23627 18.08137,-1.16733 31.03147,-1.16733c16.48904,0 33.65591,1.87803 33.65591,11.3716z" fill="#2e1f20" stroke="none" stroke-width="0"/><path d="M318.72076,156.58364c-1.14543,2.40102 -2.62187,4.69507 -4.42709,6.51554c-7.76188,7.82746 -22.44513,15.08331 -31.21274,15.08331c-11.49063,0 -29.01803,-12.16023 -34.96832,-22.81767c-0.56554,-1.01293 -2.79782,-6.88518 -2.17239,-10.81134c0.54951,-3.44957 3.73832,-4.97469 6.25802,-6.17315c2.01603,-0.95889 0.50977,5.66911 1.27804,10.56863c0.9369,5.97492 4.33081,10.79645 10.00348,13.93994c9.42349,5.22199 19.36926,7.35991 21.22968,7.35991c5.96007,0 16.77692,-4.63904 22.61485,-9.56387c10.31318,-8.70013 3.92912,-22.82988 8.32689,-21.90637c0,0 3.76367,0.01167 4.78428,2.6712c1.47234,3.83661 0.17042,11.18233 -1.7147,15.13387z" fill="url(#color-23)" stroke="none" stroke-width="0"/><path d="M256.45998,156.85119c0,2.22003 -0.93407,1.66901 -1.66671,1.66901c-0.73263,0 -1.26987,0.08088 -1.26987,-2.13915c0,-2.22003 0.59475,-5.11381 1.66671,-5.07755c1.18689,0.04014 1.26987,3.32766 1.26987,5.54769z" fill="url(#color-24)" stroke="none" stroke-width="0"/><path d="M257.99881,158.43792c0,2.22003 -0.93406,1.66901 -1.66671,1.66901c-0.73265,0 -1.26987,0.08087 -1.26987,-2.13916c0,-2.22003 0.59475,-5.11381 1.66671,-5.07755c1.18689,0.04014 1.26988,3.32766 1.26988,5.54769z" fill="url(#color-25)" stroke="none" stroke-width="0"/><path d="M260.49939,160.02466c0,2.22003 -0.93406,1.66901 -1.66671,1.66901c-0.73265,0 -1.26987,0.08087 -1.26987,-2.13916c0,-2.22003 0.59475,-5.11381 1.66671,-5.07755c1.18689,0.04014 1.26988,3.32766 1.26988,5.54769z" fill="url(#color-26)" stroke="none" stroke-width="0"/><path d="M262.80762,161.61139c0,2.22003 -0.93406,1.66901 -1.66671,1.66901c-0.73265,0 -1.26987,0.08087 -1.26987,-2.13916c0,-2.22003 0.59475,-5.11381 1.66671,-5.07755c1.18689,0.04014 1.26988,3.32766 1.26988,5.54769z" fill="url(#color-27)" stroke="none" stroke-width="0"/><path d="M266.07761,164.96117c0,2.22003 -0.93406,1.66901 -1.66671,1.66901c-0.73265,0 -1.26987,0.08087 -1.26987,-2.13916c0,-2.22003 0.59475,-5.11381 1.66671,-5.07755c1.18689,0.04014 1.26988,3.32766 1.26988,5.54769z" fill="url(#color-28)" stroke="none" stroke-width="0"/><path d="M267.80878,167.07682c0,2.22003 -0.93406,1.66901 -1.66671,1.66901c-0.73265,0 -1.26987,0.08087 -1.26987,-2.13916c0,-2.22003 0.59475,-5.11381 1.66671,-5.07755c1.18689,0.04014 1.26988,3.32766 1.26988,5.54769z" fill="url(#color-29)" stroke="none" stroke-width="0"/><path d="M270.30936,168.48725c0,2.22003 -0.93406,1.66901 -1.66671,1.66901c-0.73265,0 -1.26987,0.08087 -1.26987,-2.13916c0,-2.22003 0.59475,-5.11381 1.66671,-5.07755c1.18689,0.04014 1.26988,3.32766 1.26988,5.54769z" fill="url(#color-30)" stroke="none" stroke-width="0"/><path d="M273.19464,170.7792c0,2.22003 -0.93406,1.66901 -1.66671,1.66901c-0.73265,0 -1.26987,0.08087 -1.26987,-2.13916c0,-2.22003 0.59475,-5.11381 1.66671,-5.07755c1.18689,0.04014 1.26988,3.32766 1.26988,5.54769z" fill="url(#color-31)" stroke="none" stroke-width="0"/><path d="M276.27227,172.54223c0,2.22003 -0.93406,1.66901 -1.66671,1.66901c-0.73265,0 -1.26987,0.08087 -1.26987,-2.13916c0,-2.22003 0.59475,-5.11381 1.66671,-5.07755c1.18689,0.04014 1.26988,3.32766 1.26988,5.54769z" fill="url(#color-32)" stroke="none" stroke-width="0"/><path d="M279.15756,173.24745c0,2.22003 -0.93406,1.66901 -1.66671,1.66901c-0.73265,0 -1.26987,0.08088 -1.26987,-2.13915c0,-2.22003 0.59475,-5.11381 1.66671,-5.07755c1.18689,0.04014 1.26988,3.32766 1.26988,5.54769z" fill="url(#color-33)" stroke="none" stroke-width="0"/><path d="M283.83848,167.69975c1.07195,-0.03625 1.66671,2.85752 1.66671,5.07755c0,2.22003 -0.53722,2.13916 -1.26987,2.13916c-0.73265,0 -1.66671,0.55102 -1.66671,-1.66901c0,-2.22003 0.08299,-5.50756 1.26988,-5.54769z" data-paper-data="{&quot;index&quot;:null}" fill="url(#color-34)" stroke="none" stroke-width="0"/><path d="M287.87789,166.81823c1.07195,-0.03625 1.66671,2.85752 1.66671,5.07755c0,2.22003 -0.53722,2.13916 -1.26987,2.13916c-0.73265,0 -1.66671,0.55102 -1.66671,-1.66901c0,-2.22003 0.08299,-5.50756 1.26988,-5.54769z" data-paper-data="{&quot;index&quot;:null}" fill="url(#color-35)" stroke="none" stroke-width="0"/><path d="M290.76317,165.76041c1.07195,-0.03625 1.66671,2.85752 1.66671,5.07755c0,2.22003 -0.53722,2.13915 -1.26987,2.13915c-0.73265,0 -1.66671,0.55102 -1.66671,-1.66901c0,-2.22003 0.08299,-5.50756 1.26988,-5.54769z" data-paper-data="{&quot;index&quot;:null}" fill="url(#color-36)" stroke="none" stroke-width="0"/><path d="M293.45609,164.87888c1.07195,-0.03625 1.66671,2.85752 1.66671,5.07755c0,2.22003 -0.53722,2.13915 -1.26987,2.13915c-0.73265,0 -1.66671,0.55102 -1.66671,-1.66901c0,-2.22003 0.08299,-5.50756 1.26988,-5.54769z" data-paper-data="{&quot;index&quot;:null}" fill="url(#color-37)" stroke="none" stroke-width="0"/><path d="M295.37963,163.29215c1.07195,-0.03625 1.66671,2.85752 1.66671,5.07755c0,2.22003 -0.53722,2.13915 -1.26987,2.13915c-0.73265,0 -1.66671,0.55102 -1.66671,-1.66901c0,-2.22003 0.08299,-5.50756 1.26988,-5.54769z" data-paper-data="{&quot;index&quot;:null}" fill="url(#color-38)" stroke="none" stroke-width="0"/><path d="M300.57314,159.23716c1.07195,-0.03625 1.66671,2.85752 1.66671,5.07755c0,2.22003 -0.53722,2.13915 -1.26987,2.13915c-0.73265,0 -1.66671,0.55102 -1.66671,-1.66901c0,-2.22003 0.08299,-5.50756 1.26988,-5.54769z" data-paper-data="{&quot;index&quot;:null}" fill="url(#color-39)" stroke="none" stroke-width="0"/><path d="M305.5743,156.06369c1.07195,-0.03625 1.66671,2.85752 1.66671,5.07755c0,2.22003 -0.53722,2.13916 -1.26987,2.13916c-0.73265,0 -1.66671,0.55102 -1.66671,-1.66901c0,-2.22003 0.08299,-5.50756 1.26988,-5.54769z" data-paper-data="{&quot;index&quot;:null}" fill="url(#color-40)" stroke="none" stroke-width="0"/><path d="M308.45959,155.18216c1.07195,-0.03625 1.66671,2.85752 1.66671,5.07755c0,2.22003 -0.53722,2.13916 -1.26987,2.13916c-0.73265,0 -1.66671,0.55102 -1.66671,-1.66901c0,-2.22003 0.08299,-5.50756 1.26988,-5.54769z" data-paper-data="{&quot;index&quot;:null}" fill="url(#color-41)" stroke="none" stroke-width="0"/><path d="M312.88369,152.185c1.07195,-0.03625 1.66671,2.85752 1.66671,5.07755c0,2.22003 -0.53722,2.13915 -1.26987,2.13915c-0.73265,0 -1.66671,0.55102 -1.66671,-1.66901c0,-2.22003 0.08299,-5.50756 1.26988,-5.54769z" data-paper-data="{&quot;index&quot;:null}" fill="url(#color-42)" stroke="none" stroke-width="0"/><path d="M307.99166,138.45252c0,-2.43045 0.80057,-1.82721 1.42851,-1.82721c0.62794,0 1.08839,-0.08854 1.08839,2.34192c0,2.43045 -0.50976,5.59851 -1.4285,5.55882c-1.01726,-0.04395 -1.08839,-3.64306 -1.08839,-6.07352z" data-paper-data="{&quot;index&quot;:null}" fill="url(#color-43)" stroke="none" stroke-width="0"/><path d="M303.88803,138.06649c0,-2.43045 0.80057,-1.82721 1.42851,-1.82721c0.62794,0 1.08839,-0.08855 1.08839,2.34191c0,2.43045 -0.50976,5.59851 -1.42851,5.55882c-1.01726,-0.04395 -1.08839,-3.64306 -1.08839,-6.07352z" data-paper-data="{&quot;index&quot;:null}" fill="url(#color-44)" stroke="none" stroke-width="0"/><path d="M298.75848,139.03156c0,-2.43045 0.80057,-1.82721 1.42851,-1.82721c0.62794,0 1.08839,-0.08855 1.08839,2.34191c0,2.43045 -0.50976,5.59852 -1.42851,5.55882c-1.01726,-0.04395 -1.08839,-3.64306 -1.08839,-6.07352z" data-paper-data="{&quot;index&quot;:null}" fill="url(#color-45)" stroke="none" stroke-width="0"/><path d="M278.0185,147.61428c-0.91875,0.03969 -1.42851,-3.12836 -1.42851,-5.55882c0,-2.43045 0.46046,-2.34191 1.08839,-2.34191c0.62794,0 1.42851,-0.60325 1.42851,1.82721c0,2.43045 -0.07112,6.02958 -1.08839,6.07352z" data-paper-data="{&quot;index&quot;:null}" fill="url(#color-46)" stroke="none" stroke-width="0"/><path d="M295.68074,139.61061c0,-2.43045 0.80057,-1.82721 1.42851,-1.82721c0.62794,0 1.08839,-0.08855 1.08839,2.34191c0,2.43045 -0.50976,5.59851 -1.42851,5.55882c-1.01726,-0.04395 -1.08839,-3.64306 -1.08839,-6.07352z" data-paper-data="{&quot;index&quot;:null}" fill="url(#color-47)" stroke="none" stroke-width="0"/><path d="M294.03929,140.38267c0,-2.43045 0.80057,-1.82721 1.42851,-1.82721c0.62794,0 1.08839,-0.08855 1.08839,2.34191c0,2.43045 -0.50976,5.59851 -1.42851,5.55882c-1.01726,-0.04395 -1.08839,-3.64306 -1.08839,-6.07352z" data-paper-data="{&quot;index&quot;:null}" fill="url(#color-48)" stroke="none" stroke-width="0"/><path d="M291.37193,140.57568c0,-2.43045 0.80057,-1.82721 1.42851,-1.82721c0.62794,0 1.08839,-0.08855 1.08839,2.34191c0,2.43045 -0.50976,5.59852 -1.42851,5.55882c-1.01726,-0.04395 -1.08839,-3.64306 -1.08839,-6.07352z" data-paper-data="{&quot;index&quot;:null}" fill="url(#color-49)" stroke="none" stroke-width="0"/><path d="M286.24238,141.54076c0,-2.43045 0.80057,-1.82721 1.42851,-1.82721c0.62794,0 1.08839,-0.08854 1.08839,2.34192c0,2.43045 -0.50976,5.59851 -1.42851,5.55882c-1.01726,-0.04395 -1.08839,-3.64306 -1.08839,-6.07352z" data-paper-data="{&quot;index&quot;:null}" fill="url(#color-50)" stroke="none" stroke-width="0"/><path d="M284.38798,147.42127c-0.91875,0.03969 -1.42851,-3.12836 -1.42851,-5.55882c0,-2.43045 0.46046,-2.34191 1.08839,-2.34191c0.62794,0 1.42851,-0.60325 1.42851,1.82721c0,2.43045 -0.07112,6.02958 -1.08839,6.07352z" data-paper-data="{&quot;index&quot;:null}" fill="url(#color-51)" stroke="none" stroke-width="0"/><path d="M275.35998,147.03523c-0.91875,0.03969 -1.42851,-3.12836 -1.42851,-5.55882c0,-2.43045 0.46046,-2.34191 1.08839,-2.34191c0.62794,0 1.42851,-0.60325 1.42851,1.82721c0,2.43045 -0.07112,6.02958 -1.08839,6.07352z" data-paper-data="{&quot;index&quot;:null}" fill="url(#color-52)" stroke="none" stroke-width="0"/><path d="M272.48743,146.45619c-0.91875,0.03969 -1.42851,-3.12836 -1.42851,-5.55882c0,-2.43045 0.46046,-2.34191 1.08839,-2.34191c0.62794,0 1.42851,-0.60325 1.42851,1.82721c0,2.43045 -0.07112,6.02958 -1.08839,6.07352z" data-paper-data="{&quot;index&quot;:null}" fill="url(#color-53)" stroke="none" stroke-width="0"/><path d="M269.82008,147.22818c-0.91875,0.04739 -1.42851,-3.73465 -1.42851,-6.63613c0,-2.90148 0.46046,-2.79578 1.08839,-2.79578c0.62794,0 1.42851,-0.72016 1.42851,2.18133c0,2.90148 -0.07112,7.19813 -1.08839,7.25059z" data-paper-data="{&quot;index&quot;:null}" fill="url(#color-54)" stroke="none" stroke-width="0"/><path d="M267.56307,146.8422c-0.91875,0.04162 -1.42851,-3.27993 -1.42851,-5.82814c0,-2.54821 0.46046,-2.45538 1.08839,-2.45538c0.62794,0 1.42851,-0.63248 1.42851,1.91573c0,2.54821 -0.07112,6.32171 -1.08839,6.36779z" data-paper-data="{&quot;index&quot;:null}" fill="url(#color-55)" stroke="none" stroke-width="0"/><path d="M265.10088,145.68414c-0.91875,0.03969 -1.42851,-3.12836 -1.42851,-5.55882c0,-2.43045 0.46046,-2.34192 1.08839,-2.34192c0.62794,0 1.42851,-0.60325 1.42851,1.82721c0,2.43045 -0.07112,6.02958 -1.08839,6.07352z" data-paper-data="{&quot;index&quot;:null}" fill="url(#color-56)" stroke="none" stroke-width="0"/><path d="M261.81797,144.14001c-0.91875,0.03969 -1.42851,-3.12836 -1.42851,-5.55882c0,-2.43045 0.46046,-2.34191 1.08839,-2.34191c0.62794,0 1.42851,-0.60325 1.42851,1.82721c0,2.43045 -0.07112,6.02958 -1.08839,6.07352z" data-paper-data="{&quot;index&quot;:null}" fill="url(#color-57)" stroke="none" stroke-width="0"/><path d="M258.0027,143.75399c-1.36814,0.03969 -2.12723,-3.12836 -2.12723,-5.55882c0,-2.43045 0.68567,-2.34191 1.62075,-2.34191c0.93507,0 2.12723,-0.60325 2.12723,1.82721c0,2.43045 -0.10591,6.02958 -1.62075,6.07352z" data-paper-data="{&quot;index&quot;:null}" fill="url(#color-58)" stroke="none" stroke-width="0"/><path d="M279.6126,140.59866c-8.03696,0 -18.33524,-1.20749 -23.85234,-3.16573c-5.26836,-1.86995 -5.94004,-4.39047 -5.94004,-8.60816c0,-4.45542 12.20021,-3.55759 18.79621,-7.99726c6.18691,-4.16432 6.52781,-10.72515 14.1322,-10.72515c7.19311,0 12.86669,11.11786 17.87599,13.53733c1.52905,0.73852 16.43249,4.20444 16.16316,8.39359c-0.14227,2.21288 -2.61905,4.04534 -8.41603,5.43964c-8.41882,2.02492 -21.85278,3.12574 -28.75915,3.12574z" fill="url(#color-59)" stroke="none" stroke-width="0"/><path d="M290.01081,129.74025c0,0.53027 -2.52887,-0.96944 -4.0956,-0.21564c-1.26789,0.61002 -1.50092,1.95277 -3.43197,1.95277c-0.22118,0 -1.33921,-0.94649 -3.10816,-1.88977c-1.16082,-0.619 -3.84037,-0.2233 -3.84037,-0.57117c0,-0.95939 2.48651,-5.21139 6.80376,-5.21139c1.76552,0 4.77409,0.95948 6.28726,2.4706c1.40785,1.40595 1.38507,3.36723 1.38507,3.4646z" fill="#000000" stroke="none" stroke-width="0"/><path d="M300.95032,63.46868c0,0.86857 -0.86857,0.86857 -0.86857,0.86857l-0.72943,-0.01122c-0.90078,0.10608 -0.46784,2.68485 -0.22745,3.3934c1.89092,2.83639 4.1672,5.75528 5.25514,9.08211c0.37447,1.14509 0.79437,3.3589 -0.20983,4.36309c-0.96858,0.96858 -3.13786,0.54392 -4.37795,0.54392c0,0 -0.86857,0 -0.86857,-0.86857c0,-0.86857 0.86857,-0.86857 0.86857,-0.86857c0.55351,0 2.78367,0.33083 3.14962,-0.03512c0.62561,-0.62561 -0.30094,-2.82927 -0.49934,-3.454c-0.88902,-2.79931 -3.25845,-5.57016 -4.87812,-7.99967c-0.73154,-2.21689 -0.90013,-4.91588 1.50968,-5.87131l1.00769,-0.01122c0,0 0.86857,0 0.86857,0.86857z" fill="#8a8a8a" stroke="none" stroke-width="0.5"/><path d="M328.77954,69.51352c0.61417,0.61417 0,1.22834 0,1.22834l-0.03512,-0.32465c-0.05272,2.42367 -1.25863,5.13317 -3.50759,5.7898c-1.58909,-0.49259 -2.67189,-1.24522 -3.85077,-2.12878c-1.06516,-0.79833 -3.2134,0.42726 -3.70959,1.30372c-1.16169,2.05199 0.87412,5.54162 1.46916,7.21004c0,0 0.27466,0.824 -0.54933,1.09866c-0.82399,0.27466 -1.09866,-0.54933 -1.09866,-0.54933c-0.19284,-0.64786 -0.84826,-1.06802 -1.13655,-1.67941c-1.62736,-3.45127 -0.47039,-9.01804 3.69767,-9.01804c0.39665,0 1.90807,-0.0232 2.14697,0.10277c1.00656,0.53076 1.84403,1.43815 3.09776,1.92452c0.82312,-0.09066 1.73396,-3.18528 1.7038,-4.05395l0.54392,-0.90369c0,0 0.61417,-0.61417 1.22834,0z" fill="#8a8a8a" stroke="none" stroke-width="0.5"/><path d="M311.66263,68.39055c0.86857,0 0.86857,0.86857 0.86857,0.86857l-0.04457,0.56419c-0.22129,0.63322 -0.00741,1.43298 -0.4089,1.97033c-0.43673,0.58451 -2.19188,0.74835 -2.6057,1.15809c-0.36184,0.35827 0.16394,1.00959 0.16394,1.51879c0,2.17086 0.80163,4.06778 0.86857,6.07996c0,0 0,0.86857 -0.86857,0.86857c-0.86857,0 -0.86857,-0.86857 -0.86857,-0.86857c0.12745,-2.10964 -2.24081,-6.41779 -0.70462,-8.61447c0.34755,-0.49698 2.33522,-0.80213 2.6057,-1.15809c0.30523,-0.4017 0.0157,-1.02365 0.17015,-1.50394l-0.04457,-0.01486c0,0 0,-0.86857 0.86857,-0.86857z" fill="#8a0000" stroke="none" stroke-width="0.5"/><path d="M338.33376,101.36092c0.61417,0.61417 0,1.22834 0,1.22834l-0.181,0.15715c-1.87084,2.80437 -6.49232,4.84863 -8.86443,1.29046c-1.77125,-1.18083 -1.86514,-4.82799 -3.63869,-5.26975c-1.82106,-0.45359 -8.10697,-0.32433 -7.90706,2.33941c0,0 0,0.86857 -0.86857,0.86857c-0.86857,0 -0.86857,-0.86857 -0.86857,-0.86857c0.16074,-4.12282 8.70493,-5.73139 11.57665,-3.25684c1.57171,1.35433 0.98618,3.65992 2.93456,4.95884c1.75215,2.62823 4.79653,1.06706 6.19071,-1.02571l0.39804,-0.4219c0,0 0.61417,-0.61417 1.22834,0z" fill="#8a0000" stroke="none" stroke-width="0.5"/><path d="M278.36762,106.70023c0,6.44719 -6.66739,11.98917 -13.72445,11.98917c-7.05706,0 -10.88491,-3.33345 -10.88491,-9.78064c0,-6.44719 4.77436,-13.8822 11.83142,-13.8822c7.05706,0 12.77793,5.22648 12.77793,11.67367z" fill="#000000" stroke="none" stroke-width="0"/><path d="M296.6724,95.21903c6.91124,-1.56254 13.23318,4.66172 14.66069,10.9757c1.42751,6.31397 -1.58317,10.42609 -8.49441,11.98863c-6.91124,1.56254 -14.66795,-2.38867 -16.09545,-8.70264c-1.42751,-6.31397 3.01793,-12.69915 9.92918,-14.26169z" data-paper-data="{&quot;index&quot;:null}" fill="#000000" stroke="none" stroke-width="0"/><path d="M273.73527,107.62076c0,2.63833 -2.13879,4.77711 -4.77711,4.77711c-2.63833,0 -4.77711,-2.13879 -4.77711,-4.77711c0,-2.63833 2.13879,-4.77711 4.77711,-4.77711c2.63833,0 4.77711,2.13879 4.77711,4.77711z" fill="url(#color-60)" stroke="none" stroke-width="0"/><path d="M271.41909,107.6851c0,1.25254 -1.01538,2.26792 -2.26792,2.26792c-1.25254,0 -2.26792,-1.01538 -2.26792,-2.26792c0,-1.25254 1.01538,-2.26792 2.26792,-2.26792c1.25254,0 2.26792,1.01538 2.26792,2.26792z" fill="url(#color-61)" stroke="#000000" stroke-width="0.5"/><path d="M300.88598,107.36341c0,2.63833 -2.13878,4.77711 -4.77711,4.77711c-2.63833,0 -4.77711,-2.13878 -4.77711,-4.77711c0,-2.63833 2.13878,-4.77711 4.77711,-4.77711c2.63833,0 4.77711,2.13878 4.77711,4.77711z" fill="url(#color-62)" stroke="none" stroke-width="0"/><path d="M298.56981,107.42775c0,1.25254 -1.01538,2.26792 -2.26792,2.26792c-1.25254,0 -2.26792,-1.01538 -2.26792,-2.26792c0,-1.25254 1.01538,-2.26792 2.26792,-2.26792c1.25254,0 2.26792,1.01538 2.26792,2.26792z" fill="url(#color-63)" stroke="#000000" stroke-width="0.5"/><path d="M269.5372,107.6851c0,0.14213 -0.11522,0.25735 -0.25735,0.25735c-0.14213,0 -0.25735,-0.11522 -0.25735,-0.25735c0,-0.14213 0.11522,-0.25735 0.25735,-0.25735c0.14213,0 0.25735,0.11522 0.25735,0.25735z" fill="#000000" stroke="none" stroke-width="0"/><path d="M296.43056,107.55642c0,0.14213 -0.11522,0.25735 -0.25735,0.25735c-0.14213,0 -0.25735,-0.11522 -0.25735,-0.25735c0,-0.14213 0.11522,-0.25735 0.25735,-0.25735c0.14213,0 0.25735,0.11522 0.25735,0.25735z" fill="#000000" stroke="none" stroke-width="0"/><path d="M287.23611,104.74816c0,0.57202 -0.17981,2.07132 -0.65853,2.52444c-0.89291,0.84518 -7.56907,1.02295 -8.32316,0.28173c-0.49818,-0.48968 -0.57253,-2.15416 -0.57253,-2.80618c0,-0.60625 -0.19943,-1.10563 -0.301,-1.73635c-0.31536,-1.95834 10.03033,-1.83929 9.77926,-0.08248c-0.06789,0.47506 0.07596,1.37626 0.07596,1.81883z" fill="#070b1d" stroke="none" stroke-width="0"/><path d="M254.0727,107.49377c0,0.47856 -0.18748,1.73288 -0.68665,2.11196c-0.93104,0.70708 -8.94509,0.96109 -9.73137,0.34099c-0.51945,-0.40967 -0.38642,-1.90747 -0.38642,-2.45295c0,-0.12869 0.4492,-2.27021 0.42311,-2.40017c-0.32882,-1.63836 10.77447,-0.59124 10.51268,0.87852c-0.07079,0.39744 -0.13136,1.15139 -0.13136,1.52165z" fill="#070b1d" stroke="none" stroke-width="0"/><path d="M254.86195,118.05067c0,0.25867 0.66349,2.53393 3.81131,2.47316c4.23932,-0.08185 8.46332,-1.23425 8.4175,-0.92614c-0.14188,0.95412 -3.5033,1.98237 -8.022,2.51842c-4.32375,0.51292 -9.81127,0.55436 -10.02484,0.55436c-0.31234,0 1.50077,-0.51885 2.14719,-1.77865c0.51743,-1.00842 -0.13947,-2.73548 -0.06475,-3.24108c0.38796,-2.62516 0.61076,-6.79802 1.00313,-6.79802c0.36132,0 0.30072,3.53506 0.80932,5.48924c0.28298,1.08728 1.92313,0.73705 1.92313,1.70872z" fill="#000000" stroke="none" stroke-width="0"/><path d="M306.44071,117.70483c0.89059,2.28333 6.00781,5.37936 4.68075,5.79288c-1.32705,0.41352 -6.43288,-2.6944 -7.32346,-4.97774c-0.89059,-2.28333 -0.15506,-4.46956 1.17199,-4.88308c1.32705,-0.41352 0.58013,1.78461 1.47072,4.06794z" fill="#000000" stroke="none" stroke-width="0"/><path d="M255.9967,71.20992c0,11.51269 -4.06094,19.30145 -16.21322,19.30145c-6.70348,0 -17.03643,-7.47117 -23.91635,-16.79574c-5.59222,-7.57932 -8.51009,-16.64514 -8.51009,-21.80717c0,-5.49752 11.47701,-6.28486 23.06668,-1.93298c12.68099,4.76167 25.57298,15.21926 25.57298,21.23443z" fill="url(#color-64)" stroke="none" stroke-width="0"/><path d="M251.36434,72.33125c0,8.77157 -3.09405,14.70587 -12.35293,14.70587c-5.10741,0 -12.98014,-5.69231 -18.22198,-12.79675c-4.26074,-5.77472 -6.48388,-12.68201 -6.48388,-16.61498c0,-4.18858 8.74439,-4.78846 17.57462,-1.47274c9.6617,3.62794 19.48418,11.59562 19.48418,16.17861z" fill="url(#color-65)" stroke="none" stroke-width="0"/></g><path d="M281.97277,107.71264c0,8.58443 -6.15608,15.54348 -13.75,15.54348c-7.59392,0 -13.75,-6.95905 -13.75,-15.54348c0,-8.58443 6.15608,-15.54348 13.75,-15.54348c7.59392,0 13.75,6.95905 13.75,15.54348z" fill="url(#color-66)" stroke="none" stroke-width="NaN"/><path d="M310.97277,107.21264c0,8.58442 -6.15608,15.54348 -13.75,15.54348c-7.59391,0 -13.75,-6.95906 -13.75,-15.54348c0,-8.58442 6.15608,-15.54347 13.75,-15.54347c7.59391,0 13.75,6.95905 13.75,15.54348z" fill="url(#color-67)" stroke="none" stroke-width="NaN"/></g></g></svg>