<svg version="1.1" xmlns="http://www.w3.org/2000/svg" xmlns:xlink="http://www.w3.org/1999/xlink" width="58.21839" height="46.7146" viewBox="0,0,58.21839,46.7146"><defs><radialGradient cx="240" cy="171.2004" r="29.1092" gradientUnits="userSpaceOnUse" id="color-1"><stop offset="0" stop-color="#65411a"/><stop offset="1" stop-color="#000000"/></radialGradient><linearGradient x1="248.47309" y1="169.22192" x2="248.47309" y2="177.53648" gradientUnits="userSpaceOnUse" id="color-2"><stop offset="0" stop-color="#ffffff"/><stop offset="1" stop-color="#bababa"/></linearGradient><linearGradient x1="231.04415" y1="169.40563" x2="231.04415" y2="177.7202" gradientUnits="userSpaceOnUse" id="color-3"><stop offset="0" stop-color="#ffffff"/><stop offset="1" stop-color="#bababa"/></linearGradient><linearGradient x1="229.25919" y1="176.94404" x2="229.25919" y2="194.92811" gradientUnits="userSpaceOnUse" id="color-4"><stop offset="0" stop-color="#74502e"/><stop offset="1" stop-color="#000000"/></linearGradient><linearGradient x1="251.25201" y1="177.02736" x2="251.25201" y2="195.01143" gradientUnits="userSpaceOnUse" id="color-5"><stop offset="0" stop-color="#815933"/><stop offset="1" stop-color="#000000"/></linearGradient><linearGradient x1="231.33499" y1="171.01166" x2="231.33499" y2="175.32291" gradientUnits="userSpaceOnUse" id="color-6"><stop offset="0" stop-color="#54aac2"/><stop offset="1" stop-color="#367d90"/></linearGradient><linearGradient x1="248.26301" y1="170.95182" x2="248.26301" y2="175.26308" gradientUnits="userSpaceOnUse" id="color-7"><stop offset="0" stop-color="#54aac2"/><stop offset="1" stop-color="#357c8f"/></linearGradient><radialGradient cx="240.30269" cy="177.68342" r="7.77869" gradientUnits="userSpaceOnUse" id="color-8"><stop offset="0" stop-color="#484848"/><stop offset="1" stop-color="#000000"/></radialGradient></defs><g transform="translate(-210.8908,-148.29684)"><g data-paper-data="{&quot;isPaintingLayer&quot;:true}" fill-rule="nonzero" stroke-linejoin="miter" stroke-miterlimit="10" stroke-dasharray="" stroke-dashoffset="0" style="mix-blend-mode: normal"><path d="M218.83687,193.75749c0,0 -7.46174,-0.09345 -7.92963,-9.70033c-0.26845,-4.86138 2.81848,-6.01572 4.31126,-9.8543c1.49278,-3.83858 0.86633,-12.33736 6.73634,-18.39982c3.46184,-5.00465 5.55985,-6.71916 17.82242,-7.5062c7.44057,0.05189 13.36277,0.99839 18.16886,6.19743c4.8061,5.19904 4.75569,10.22608 5.774,18.47681c0.23017,1.86488 4.38146,3.79659 5.38907,11.31705c-0.43309,8.76174 -6.9288,9.81581 -6.9288,9.81581z" fill="url(#color-1)" stroke="#000000" stroke-width="0" stroke-linecap="round"/><path d="M255.33988,172.91067c0,3.48416 -2.79192,6.30864 -6.23592,6.30864c-3.444,0 -6.23592,-2.82447 -6.23592,-6.30864c0,-3.48416 2.79192,-6.30863 6.23592,-6.30863c3.444,0 6.23592,2.82447 6.23592,6.30863z" fill="#000000" stroke="none" stroke-width="0" stroke-linecap="butt"/><path d="M252.86132,173.3792c0,2.29601 -1.96468,4.15728 -4.38824,4.15728c-2.42356,0 -4.38824,-1.86128 -4.38824,-4.15728c0,-2.29601 1.96469,-4.15728 4.38824,-4.15728c2.42356,0 4.38824,1.86128 4.38824,4.15728z" fill="url(#color-2)" stroke="none" stroke-width="0" stroke-linecap="butt"/><path d="M237.19453,172.87859c0,3.48416 -2.79192,6.30863 -6.23592,6.30863c-3.444,0 -6.23592,-2.82447 -6.23592,-6.30863c0,-3.48416 2.79192,-6.30864 6.23592,-6.30864c3.444,0 6.23592,2.82447 6.23592,6.30864z" fill="#000000" stroke="none" stroke-width="0" stroke-linecap="butt"/><path d="M235.43239,173.56291c0,2.29601 -1.96469,4.15728 -4.38824,4.15728c-2.42356,0 -4.38824,-1.86128 -4.38824,-4.15728c0,-2.29601 1.96468,-4.15728 4.38824,-4.15728c2.42356,0 4.38824,1.86128 4.38824,4.15728z" fill="url(#color-3)" stroke="none" stroke-width="0" stroke-linecap="butt"/><path d="M240.66811,177.93465l-0.03574,16.89308c0,0 -16.0692,0.43496 -18.94698,-0.50591c-3.40639,-1.11368 -7.64605,-11.65989 2.61755,-16.07922c6.3397,-2.72977 16.36518,-0.30795 16.36518,-0.30795z" fill="url(#color-4)" stroke="#000000" stroke-width="0" stroke-linecap="round"/><path d="M256.06492,178.32593c9.96678,4.41933 5.84973,14.96554 2.54185,16.07922c-2.79456,0.94087 -18.40183,0.50591 -18.40183,0.50591l-0.03193,-16.89308c0,0 9.73555,-2.42182 15.89191,0.30795z" data-paper-data="{&quot;index&quot;:null}" fill="url(#color-5)" stroke="#000000" stroke-width="0" stroke-linecap="round"/><path d="M233.61037,173.16729c0,1.19052 -1.01873,2.15563 -2.27539,2.15563c-1.25666,0 -2.27539,-0.96511 -2.27539,-2.15563c0,-1.19052 1.01873,-2.15563 2.27539,-2.15563c1.25666,0 2.27539,0.96511 2.27539,2.15563z" fill="url(#color-6)" stroke="none" stroke-width="0" stroke-linecap="butt"/><path d="M232.66942,173.16729c0,0.72281 -0.61851,1.30877 -1.38148,1.30877c-0.76298,0 -1.38148,-0.58595 -1.38148,-1.30877c0,-0.72281 0.61851,-1.30877 1.38148,-1.30877c0.76298,0 1.38148,0.58596 1.38148,1.30877z" fill="#000000" stroke="none" stroke-width="0" stroke-linecap="butt"/><path d="M230.36837,172.08305c0,0.25511 -0.2183,0.46192 -0.48758,0.46192c-0.26928,0 -0.48758,-0.20681 -0.48758,-0.46192c0,-0.25511 0.2183,-0.46192 0.48758,-0.46192c0.26928,0 0.48758,0.20681 0.48758,0.46192z" fill="#ffffff" stroke="none" stroke-width="0" stroke-linecap="butt"/><path d="M250.5384,173.10745c0,1.19052 -1.01872,2.15563 -2.27539,2.15563c-1.25666,0 -2.27539,-0.96511 -2.27539,-2.15563c0,-1.19052 1.01873,-2.15563 2.27539,-2.15563c1.25666,0 2.27539,0.96511 2.27539,2.15563z" fill="url(#color-7)" stroke="none" stroke-width="0" stroke-linecap="butt"/><path d="M249.59745,173.07043c0,0.72281 -0.61851,1.30877 -1.38148,1.30877c-0.76298,0 -1.38149,-0.58596 -1.38149,-1.30877c0,-0.72281 0.61851,-1.30877 1.38149,-1.30877c0.76297,0 1.38148,0.58595 1.38148,1.30877z" fill="#000000" stroke="none" stroke-width="0" stroke-linecap="butt"/><path d="M247.39116,171.89756c0,0.25511 -0.2183,0.46192 -0.48759,0.46192c-0.26928,0 -0.48758,-0.20681 -0.48758,-0.46192c0,-0.25511 0.2183,-0.46192 0.48758,-0.46192c0.26928,0 0.48759,0.20681 0.48759,0.46192z" fill="#ffffff" stroke="none" stroke-width="0" stroke-linecap="butt"/><path d="M225.08575,161.89981c0.69211,-0.13727 10.66468,-0.46686 10.76894,2.12323c0.00557,0.13856 -3.58101,-0.09151 -6.5515,0.26206c-2.51741,0.29965 -4.05748,1.61174 -4.47247,1.03111c-0.5178,-0.72448 -0.2652,-3.31322 0.25503,-3.4164z" fill="#060203" stroke="#000000" stroke-width="0.5" stroke-linecap="round"/><path d="M254.89202,165.15584c-0.41499,0.58063 -1.95505,-0.73146 -4.47247,-1.03111c-2.97049,-0.35358 -6.55707,-0.1235 -6.5515,-0.26206c0.10426,-2.59009 10.07683,-2.2605 10.76894,-2.12323c0.52023,0.10318 0.77283,2.69192 0.25503,3.4164z" data-paper-data="{&quot;index&quot;:null}" fill="#060203" stroke="#000000" stroke-width="0.5" stroke-linecap="round"/><path d="M226.91176,172.06153c0,0 0.93089,-2.52233 3.95735,-2.69011c3.24544,-0.17993 4.34066,2.75545 4.34066,2.75545c0,0 -2.42869,-0.40461 -3.7532,-0.41504c-1.43295,-0.01129 -4.54481,0.34969 -4.54481,0.34969z" fill="#6c3e18" stroke="#000000" stroke-width="0" stroke-linecap="round"/><path d="M252.60178,171.88653c0,0 -3.11186,-0.36098 -4.54481,-0.34969c-1.32451,0.01043 -3.7532,0.41504 -3.7532,0.41504c0,0 1.09522,-2.93538 4.34066,-2.75545c3.02645,0.16778 3.95735,2.69011 3.95735,2.69011z" data-paper-data="{&quot;index&quot;:null}" fill="#6c3e18" stroke="#000000" stroke-width="0" stroke-linecap="round"/><path d="M232.52401,176.89067c0,0 0.09332,-2.24847 8.00643,-2.19602c8.04348,0.05331 7.54488,2.27302 7.54488,2.27302c0,0 0.35497,3.92958 -7.39072,3.69536c-8.09522,-0.24479 -8.16059,-3.77235 -8.16059,-3.77235z" fill="url(#color-8)" stroke="#000000" stroke-width="0" stroke-linecap="round"/></g></g></svg>