<svg version="1.1" xmlns="http://www.w3.org/2000/svg" xmlns:xlink="http://www.w3.org/1999/xlink" width="89.63942" height="85.37989" viewBox="0,0,89.63942,85.37989"><defs><linearGradient x1="272.09115" y1="223.51227" x2="288.61722" y2="223.51227" gradientUnits="userSpaceOnUse" id="color-1"><stop offset="0" stop-color="#09880c"/><stop offset="1" stop-color="#0ba10f"/></linearGradient><linearGradient x1="286.87051" y1="223.31359" x2="351.12958" y2="223.31359" gradientUnits="userSpaceOnUse" id="color-2"><stop offset="0" stop-color="#077c0a"/><stop offset="1" stop-color="#10ce16"/></linearGradient><radialGradient cx="324.94809" cy="164.91754" r="36.4768" gradientUnits="userSpaceOnUse" id="color-3"><stop offset="0" stop-color="#e3bf72"/><stop offset="1" stop-color="#a1834c"/></radialGradient><linearGradient x1="314.04248" y1="179.95489" x2="324.53153" y2="179.95489" gradientUnits="userSpaceOnUse" id="color-4"><stop offset="0" stop-color="#927846"/><stop offset="1" stop-color="#d8b56c"/></linearGradient><linearGradient x1="306.19318" y1="162.52889" x2="306.19318" y2="176.4941" gradientUnits="userSpaceOnUse" id="color-5"><stop offset="0" stop-color="#e8e9e4"/><stop offset="1" stop-color="#6c6c6c"/></linearGradient><linearGradient x1="333.66513" y1="161.33868" x2="333.66513" y2="175.30389" gradientUnits="userSpaceOnUse" id="color-6"><stop offset="0" stop-color="#e8e9e4"/><stop offset="1" stop-color="#6c6c6c"/></linearGradient><radialGradient cx="308.50453" cy="167.2928" r="4.9945" gradientUnits="userSpaceOnUse" id="color-7"><stop offset="0" stop-color="#2c2c2c"/><stop offset="1" stop-color="#000000"/></radialGradient><radialGradient cx="336.68098" cy="166.18771" r="4.9945" gradientUnits="userSpaceOnUse" id="color-8"><stop offset="0" stop-color="#2c2c2c"/><stop offset="1" stop-color="#000000"/></radialGradient><linearGradient x1="320.5106" y1="197.00783" x2="320.5106" y2="203.61133" gradientUnits="userSpaceOnUse" id="color-9"><stop offset="0" stop-color="#ca2217"/><stop offset="1" stop-color="#9e1b24"/></linearGradient><linearGradient x1="366.19721" y1="222.62054" x2="349.67114" y2="222.62054" gradientUnits="userSpaceOnUse" id="color-10"><stop offset="0" stop-color="#0fbe14"/><stop offset="1" stop-color="#0fc915"/></linearGradient></defs><g transform="translate(-275.18029,-137.31005)"><g data-paper-data="{&quot;isPaintingLayer&quot;:true}" fill-rule="nonzero" stroke-linejoin="miter" stroke-miterlimit="10" stroke-dasharray="" stroke-dashoffset="0" style="mix-blend-mode: normal"><path d="M275.9303,221.93999v-83.87989h88.13942v83.87989z" fill="#000000" stroke="#ffffff" stroke-width="0" stroke-linecap="butt"/><g><path d="M286.06149,212.90767c-3.45344,-0.532 -7.51394,3.55454 -9.18404,8.80634c-0.15505,0.48756 11.17874,1.38949 11.73713,-0.26851c0.67567,-2.00621 -0.0651,-4.24472 -0.32378,-6.1599c-0.24568,-1.81896 -0.55802,-2.12047 -2.22931,-2.37793z" fill="url(#color-1)" stroke="#000000" stroke-width="0" stroke-linecap="round"/><path d="M286.98701,222.03994c0,0 0.9834,-10.57332 2.78999,-11.36158c2.11345,-0.92215 16.21513,0.95969 30.3107,1.33649c13.8956,0.37146 26.89354,-2.26036 29.28619,-1.48512c2.41733,0.78324 1.38483,10.96138 1.38483,10.96138z" fill="url(#color-2)" stroke="#000000" stroke-width="0" stroke-linecap="butt"/><path d="M349.1514,177.55409c-0.0596,1.78387 -2.93712,11.80767 -6.19618,17.18982c-4.05338,6.69394 -8.29914,10.20395 -12.27717,14.35876c-3.0611,3.19713 -5.69713,8.41123 -6.07327,8.36113c-2.29141,-0.30519 -8.3937,0.09265 -10.38222,-0.7007c-3.74025,-1.49223 -0.37734,0.82971 -5.58329,-7.31834c-4.86901,-7.62068 -17.85046,-16.48331 -18.70873,-30.86075c-1.03099,-17.27067 12.2706,-34.07346 29.52461,-34.07346c17.25401,0 30.21122,17.63031 29.69626,33.04353z" fill="url(#color-3)" stroke="#000000" stroke-width="0" stroke-linecap="butt"/><path d="M318.48767,168.75297c0,0 -0.11796,1.85297 -0.54774,3.18001c-0.95213,2.93992 -9.13368,19.39379 1.51755,19.22251c9.96419,-0.16023 2.33679,-16.81998 1.43859,-19.35606c-0.49371,-1.39402 -0.56577,-2.94947 -0.56577,-2.94947" fill="url(#color-4)" stroke="#ba9a5b" stroke-width="0" stroke-linecap="round"/><path d="M313.12729,169.51149c0,3.85639 -3.10451,6.9826 -6.93411,6.9826c-3.8296,0 -6.93411,-3.12622 -6.93411,-6.9826c0,-3.85639 3.10451,-6.9826 6.93411,-6.9826c3.8296,0 6.93411,3.12622 6.93411,6.9826z" fill="url(#color-5)" stroke="none" stroke-width="0" stroke-linecap="butt"/><path d="M340.59924,168.32129c0,3.85639 -3.10451,6.9826 -6.93411,6.9826c-3.8296,0 -6.93411,-3.12622 -6.93411,-6.9826c0,-3.85639 3.10451,-6.9826 6.93411,-6.9826c3.8296,0 6.93411,3.12622 6.93411,6.9826z" fill="url(#color-6)" stroke="none" stroke-width="0" stroke-linecap="butt"/><path d="M310.83206,168.65053c0,2.08887 -2.23612,3.78224 -4.9945,3.78224c-2.75839,0 -4.9945,-1.69337 -4.9945,-3.78224c0,-2.08887 2.23611,-3.78224 4.9945,-3.78224c2.75839,0 4.9945,1.69337 4.9945,3.78224z" fill="url(#color-7)" stroke="none" stroke-width="0" stroke-linecap="butt"/><path d="M339.00851,167.54544c0,2.08887 -2.23612,3.78224 -4.9945,3.78224c-2.75839,0 -4.9945,-1.69337 -4.9945,-3.78224c0,-2.08887 2.23611,-3.78224 4.9945,-3.78224c2.75839,0 4.9945,1.69337 4.9945,3.78224z" fill="url(#color-8)" stroke="none" stroke-width="0" stroke-linecap="butt"/><path d="M312.82831,158.01722c-0.32202,0.32202 -0.64404,0.11778 -0.75105,0.03231c-1.48175,-0.21236 -4.75915,-0.34311 -7.75204,0.11449c-2.99289,0.4576 -4.90454,1.08511 -6.53926,2.07059c0,0 -0.4779,0.28674 -0.76465,-0.19116c-0.28674,-0.4779 0.19116,-0.76465 0.19116,-0.76465c1.42689,-0.85152 4.41002,-2.0608 7.57409,-2.4517c3.34177,-0.41285 6.85178,0.01998 7.6423,0.14931l0.39945,0.25264c0,0 0.39409,0.39409 0,0.78818z" fill="#7f4400" stroke="none" stroke-width="0.5" stroke-linecap="butt"/><path d="M326.55426,156.60819l0.39945,-0.25263c0.79053,-0.12933 4.30053,-0.56216 7.6423,-0.14931c3.16407,0.3909 6.14721,1.60018 7.57409,2.4517c0,0 0.4779,0.28674 0.19116,0.76465c-0.28674,0.4779 -0.76465,0.19116 -0.76465,0.19116c-1.63472,-0.98547 -3.54637,-1.61299 -6.53926,-2.07059c-2.99289,-0.4576 -6.2703,-0.32686 -7.75205,-0.1145c-0.10701,0.08547 -0.42903,0.28971 -0.75105,-0.03231c-0.39409,-0.39409 0,-0.78818 0,-0.78818z" data-paper-data="{&quot;index&quot;:null}" fill="#7f4400" stroke="none" stroke-width="0.5" stroke-linecap="butt"/><path d="M304.43564,198.41989c-0.51321,2.49398 9.62565,5.16999 14.10589,5.23785c8.73758,0.13234 18.51099,-4.33338 18.04724,-6.37877c-0.21264,-0.93787 -11.08246,0.83824 -18.15096,1.08906c-7.0685,0.25082 -13.63778,-1.71893 -14.00217,0.05186z" fill="url(#color-9)" stroke="#000000" stroke-width="0" stroke-linecap="round"/><path d="M307.13236,199.21691c0,0 7.65125,1.55573 12.29079,1.40022c4.63954,-0.15551 15.55797,-2.3337 15.55797,-2.3337c0,0 -9.23777,2.74243 -15.60983,2.95601c-6.37206,0.21359 -12.23893,-2.02254 -12.23893,-2.02254z" fill="#3d0f00" stroke="#000000" stroke-width="0" stroke-linecap="round"/><path d="M338.37554,141.73105c0,0.55733 -0.55733,0.55733 -0.55733,0.55733l-0.66258,-0.00418c-2.60185,-0.63385 -4.20893,0.67731 -6.64618,1.17956c-2.84565,0.69365 -4.97107,2.56118 -7.42733,3.954c-0.99119,0.56205 -1.845,0.82917 -2.7043,1.69255c0,0 -0.39409,0.39409 -0.78818,0c-0.39409,-0.39409 0,-0.78818 0,-0.78818c0.92373,-0.91987 1.88575,-1.26405 2.94329,-1.87434c2.54681,-1.46974 4.77821,-3.31858 7.73198,-4.07152c1.10776,-0.21367 2.0311,-0.91732 3.11526,-1.18763c1.309,-0.32638 2.59709,-0.34945 3.91166,-0.01073l0.52639,-0.00418c0,0 0.55733,0 0.55733,0.55733z" fill="#914200" stroke="none" stroke-width="0.5" stroke-linecap="butt"/><path d="M352.22687,212.01595c7.48347,-1.15283 10.22034,9.70552 10.22034,9.70552l-12.75641,-0.14957c0,0 0.00653,-4.95525 0.30675,-7.17801c0.24568,-1.81896 0.55802,-2.12047 2.22931,-2.37793z" data-paper-data="{&quot;index&quot;:null}" fill="url(#color-10)" stroke="#000000" stroke-width="0" stroke-linecap="round"/></g><path d="M275.93029,221.93995v-83.87989h88.13942v83.87989z" fill="none" stroke="#ffffff" stroke-width="1.5" stroke-linecap="butt"/></g></g></svg>