<svg version="1.1" xmlns="http://www.w3.org/2000/svg" xmlns:xlink="http://www.w3.org/1999/xlink" width="89.63942" height="85.37989" viewBox="0,0,89.63942,85.37989"><defs><linearGradient x1="330.08584" y1="205.78504" x2="330.08584" y2="222.39525" gradientUnits="userSpaceOnUse" id="color-1"><stop offset="0" stop-color="#ffffff"/><stop offset="1" stop-color="#c6b9a8"/></linearGradient><linearGradient x1="336.36117" y1="204.97101" x2="322.47964" y2="263.72407" gradientUnits="userSpaceOnUse" id="color-2"><stop offset="0" stop-color="#d38c9a"/><stop offset="1" stop-color="#c37a94"/></linearGradient><linearGradient x1="330.96423" y1="200.93255" x2="330.96423" y2="218.34027" gradientUnits="userSpaceOnUse" id="color-3"><stop offset="0" stop-color="#ffffff"/><stop offset="1" stop-color="#c6b9a8"/></linearGradient><linearGradient x1="295.82307" y1="205.00217" x2="290.25136" y2="228.5842" gradientUnits="userSpaceOnUse" id="color-4"><stop offset="0" stop-color="#7d345c"/><stop offset="1" stop-color="#831a4e"/></linearGradient><linearGradient x1="284.67938" y1="127.28004" x2="303.2268" y2="160.78403" gradientUnits="userSpaceOnUse" id="color-5"><stop offset="0" stop-color="#b3b09f"/><stop offset="1" stop-color="#bfbdaa"/></linearGradient><linearGradient x1="286.46625" y1="132.92458" x2="289.96369" y2="171.05978" gradientUnits="userSpaceOnUse" id="color-6"><stop offset="0" stop-color="#d6d3be"/><stop offset="1" stop-color="#cdcab6"/></linearGradient><linearGradient x1="295.71548" y1="137.99309" x2="295.71548" y2="149.48462" gradientUnits="userSpaceOnUse" id="color-7"><stop offset="0" stop-color="#ffffff"/><stop offset="1" stop-color="#c6b9a8"/></linearGradient><linearGradient x1="324.79256" y1="130.67432" x2="321.63108" y2="144.05516" gradientUnits="userSpaceOnUse" id="color-8"><stop offset="0" stop-color="#852f6f"/><stop offset="1" stop-color="#853270"/></linearGradient><linearGradient x1="299.26559" y1="189.98655" x2="293.92041" y2="212.60986" gradientUnits="userSpaceOnUse" id="color-9"><stop offset="0" stop-color="#355f0e"/><stop offset="1" stop-color="#243b19"/></linearGradient><linearGradient x1="331.66056" y1="144.286" x2="316.5983" y2="208.03647" gradientUnits="userSpaceOnUse" id="color-10"><stop offset="0" stop-color="#ffffff"/><stop offset="1" stop-color="#c6b9a8"/></linearGradient><linearGradient x1="319.25449" y1="187.7906" x2="342.04215" y2="193.17462" gradientUnits="userSpaceOnUse" id="color-11"><stop offset="0" stop-color="#cc8a34"/><stop offset="1" stop-color="#b36b23"/></linearGradient><linearGradient x1="321.74523" y1="197.29345" x2="342.42038" y2="202.17835" gradientUnits="userSpaceOnUse" id="color-12"><stop offset="0" stop-color="#ca8833"/><stop offset="1" stop-color="#b46c24"/></linearGradient><linearGradient x1="309.91458" y1="137.69975" x2="305.82363" y2="155.01454" gradientUnits="userSpaceOnUse" id="color-13"><stop offset="0" stop-color="#873472"/><stop offset="1" stop-color="#783365"/></linearGradient><linearGradient x1="356.68366" y1="172.29854" x2="351.33847" y2="194.92187" gradientUnits="userSpaceOnUse" id="color-14"><stop offset="0" stop-color="#355f0e"/><stop offset="1" stop-color="#243b19"/></linearGradient><radialGradient cx="334.7342" cy="170.27517" r="4.3177" gradientUnits="userSpaceOnUse" id="color-15"><stop offset="0" stop-color="#000000"/><stop offset="1" stop-color="#522e8d"/></radialGradient><radialGradient cx="313.43816" cy="178.59292" r="4.3177" gradientUnits="userSpaceOnUse" id="color-16"><stop offset="0" stop-color="#000000"/><stop offset="1" stop-color="#522e8d"/></radialGradient><linearGradient x1="361.09761" y1="206.07742" x2="371.37539" y2="228.02104" gradientUnits="userSpaceOnUse" id="color-17"><stop offset="0" stop-color="#7d345c"/><stop offset="1" stop-color="#831a4e"/></linearGradient></defs><g transform="translate(-275.18029,-137.31006)"><g data-paper-data="{&quot;isPaintingLayer&quot;:true}" fill-rule="nonzero" stroke-linejoin="miter" stroke-miterlimit="10" stroke-dasharray="" stroke-dashoffset="0" style="mix-blend-mode: normal"><path d="M275.9303,221.94002v-83.87989h88.13942v83.87989z" fill="#000000" stroke="#ffffff" stroke-width="0" stroke-linecap="butt"/><g stroke-width="0"><path d="M314.66151,222.39525l-6.29134,-13.41128c0,0 -0.59968,-1.70435 8.7437,-2.51785c9.34337,-0.8135 19.18551,-0.87548 23.70418,-0.30733c4.51867,0.56815 10.99122,3.92106 10.99122,3.92106l-2.35701,12.0519z" fill="url(#color-1)" stroke="#000000" stroke-linecap="round"/><path d="M343.62731,213.66908c-0.99451,4.20925 -7.24305,6.33564 -13.95653,4.74945c-6.71348,-1.58619 -11.3496,-6.2843 -10.35509,-10.49353c0.99451,-4.20925 8.42725,-4.01866 15.14072,-2.43247c6.71348,1.58619 10.16541,3.96731 9.1709,8.17655z" fill="#000000" stroke="none" stroke-linecap="butt"/><path d="M311.81193,208.64379c0.71255,4.0702 9.45788,13.08708 9.45788,13.08708l21.22919,0.47268c0,0 5.14271,-0.99521 7.87421,-10.35682c0.38367,-1.19156 -9.91089,-5.90674 -9.91089,-5.90674l14.70469,3.89544c0,0 1.642,5.71059 2.81759,12.02978c0.14493,0.77905 -4.7914,0.60457 -12.06594,0.68092c-16.54346,0.17363 -44.13671,-0.44139 -44.13671,-0.44139c0,0 0.97939,-5.24302 1.78562,-7.56366c0.81165,-2.33623 3.06815,-6.40725 3.06815,-6.40725l12.50781,-3.36012c0,0 -7.16488,2.7897 -7.33157,3.87009z" fill="url(#color-2)" stroke="#000000" stroke-linecap="round"/><path d="M339.09888,200.93255l-1.15087,16.94245c0,0 -3.14523,1.0815 -8.74029,-0.05322c-3.77763,-0.76613 -6.37814,-3.2132 -6.37814,-3.2132l0.25714,-7.9862z" fill="url(#color-3)" stroke="#000000" stroke-linecap="round"/><path d="M301.91324,206.44109c0,0 2.03037,3.65684 2.61388,5.85501c1.77452,6.68488 1.65067,9.61641 1.65067,9.61641l-29.43381,-0.81975c0,0 4.56673,-5.4531 11.69353,-9.08306c6.31019,-3.21404 13.47574,-5.5686 13.47574,-5.5686z" fill="url(#color-4)" stroke="#000000" stroke-linecap="round"/><path d="M319.08773,147.18243c0,0 -15.66999,-1.95145 -22.80761,2.93709c-7.1376,4.88854 -10.17925,22.20613 -12.17033,21.01929c-3.35866,-2.00202 -6.41819,-20.33632 -5.53797,-28.34293c0.88022,-8.00661 40.51593,4.38654 40.51593,4.38654z" fill="url(#color-5)" stroke="#000000" stroke-linecap="round"/><path d="M313.0151,142.26574c0,0 -19.88234,5.3778 -27.63333,11.73242c-3.22675,2.64543 -9.30769,10.3567 -9.30769,10.3567c0,0 -1.09534,-18.45826 -0.06767,-20.55881c1.25827,-2.57188 4.77835,-5.85051 4.77835,-5.85051l24.77845,-0.46718l7.45189,4.7874z" fill="url(#color-6)" stroke="#000000" stroke-linecap="round"/><path d="M285.27948,144.64184c-2.89411,1.10012 -9.05746,4.84278 -9.05746,4.84278l0.05674,-11.03141l31.63663,-0.46012l7.29355,4.30827c0,0 -20.56061,-1.22086 -29.92946,2.34047z" fill="url(#color-7)" stroke="#000000" stroke-linecap="round"/><path d="M313.89124,137.42299l7.33063,0.49326l4.877,0.15632c0,0 -0.46624,1.02159 -0.00535,1.70806c1.24223,1.85026 3.32795,-0.28929 4.85068,1.07101c1.52274,1.3603 0.97488,4.13318 0.97488,4.13318l-11.63868,-1.24875z" fill="url(#color-8)" stroke="#000000" stroke-linecap="round"/><path d="M300.44546,213.91385l-12.01047,-2.4812l5.86899,-23.3314z" fill="url(#color-9)" stroke="#000000" stroke-linecap="round"/><path d="M355.46436,183.5647c-2.47751,10.48599 -11.81548,18.55276 -20.87073,22.54674c-6.14698,2.71123 -14.7279,2.84713 -21.72546,1.19383c-17.30581,-4.08883 -24.23308,-20.94332 -20.07375,-38.5475c4.15933,-17.6042 21.56028,-28.56058 38.86609,-24.47175c17.30581,4.08883 27.96317,21.67451 23.80385,39.27871z" fill="url(#color-10)" stroke="#000000" stroke-linecap="butt"/><path d="M323.74769,180.17637c0.0218,0.11524 -0.6928,5.91636 -7.38776,8.75181c-4.0085,1.69769 -6.98678,2.28559 -10.68268,0.52148c-5.67606,-2.70924 -10.71331,-20.95002 -2.56412,-24.9776c15.12662,-7.47605 20.08633,12.80572 20.63457,15.70431z" data-paper-data="{&quot;index&quot;:null}" fill="#ca8aa9" stroke="#000000" stroke-linecap="round"/><path d="M340.64517,188.72207l1.25828,4.73387c0,0 -4.35707,9.88535 -7.73344,11.16714c-3.43987,1.3059 -12.71883,-3.40266 -12.71883,-3.40266l-2.50791,-4.47455z" fill="#000000" stroke="#000000" stroke-linecap="round"/><path d="M339.27009,188.8885l0.38932,2.0665c0,0 -5.61653,2.87814 -8.4918,4.13679c-2.87517,1.2586 -8.86913,2.95031 -8.86913,2.95031l-0.54801,-2.32339z" fill="#ffffff" stroke="#000000" stroke-linecap="round"/><path d="M316.8663,197.89852c0,0 1.33544,-2.52211 1.85647,-4.0636c0.52101,-1.54149 1.46448,-5.92676 2.55379,-8.98455c1.26547,-3.5523 2.2099,-5.89739 3.83938,-6.43409c1.5553,-0.51228 4.52588,0.93892 6.83855,2.11729c2.61913,1.33453 5.82335,4.51053 7.30991,5.34071c1.48656,0.83018 4.22208,1.09939 4.22208,1.09939c0,0 0.05594,2.08186 -12.18589,7.17105c-9.09777,3.78214 -14.4343,3.75379 -14.4343,3.75379z" fill="url(#color-11)" stroke="#000000" stroke-linecap="round"/><path d="M320.87803,200.96386c0,0 7.61175,-1.98493 11.35626,-3.45809c3.22253,-1.26779 9.78082,-4.85761 9.78082,-4.85761c0,0 4.63315,10.06085 -5.23197,14.7672c-10.87503,5.18815 -15.90511,-6.45152 -15.90511,-6.45152z" fill="url(#color-12)" stroke="#000000" stroke-linecap="round"/><path d="M325.71851,191.30102c1.1148,-0.62737 2.9918,1.42597 4.54154,0.74171c1.76869,-0.78092 1.55669,-3.49864 3.08953,-3.43636c3.68685,0.14982 4.36579,2.56696 4.36579,2.56696c0,0 -4.04606,2.09865 -6.78789,3.1497c-2.74183,1.05105 -6.94348,2.27542 -6.94348,2.27542c0,0 -0.0423,-4.32967 1.73452,-5.29742z" fill="#930d71" stroke="#000000" stroke-linecap="round"/><path d="M339.87339,181.90057l9.287,-6.5872l-0.2,3.70549z" fill="#ca8aa9" stroke="#000000" stroke-linecap="round"/><path d="M343.15004,183.04913l5.5951,-0.83796l-0.6526,3.32673z" fill="#ca8aa9" stroke="#000000" stroke-linecap="round"/><path d="M306.96122,195.7631l-2.4081,-3.27419l11.73839,-1.16208z" fill="#ca8aa9" stroke="#000000" stroke-linecap="round"/><path d="M309.65088,197.76262l4.84785,-3.5439l-2.48572,5.76953z" fill="#ca8aa9" stroke="#000000" stroke-linecap="round"/><path d="M330.90574,158.81803c6.56101,-3.12456 15.32756,7.20761 14.20396,12.115c-0.73163,3.19538 -3.25938,4.85879 -6.38655,6.38619c-3.12718,1.5274 -8.0078,1.75163 -8.71202,0.93738c-1.5394,-1.77993 -11.28401,-13.6387 0.8946,-19.43857z" fill="#000000" stroke="#000000" stroke-linecap="round"/><path d="M322.25025,180.18158c0.20173,1.06653 -3.02045,4.78944 -6.17457,6.30964c-3.15412,1.52021 -6.04131,2.48089 -9.014,1.06198c-4.56538,-2.1791 -7.23076,-15.57845 -0.67618,-18.81793c12.16667,-6.01315 15.42381,9.1149 15.86475,11.4463z" data-paper-data="{&quot;index&quot;:null}" fill="#000000" stroke="#000000" stroke-linecap="round"/><path d="M313.19258,138.47424c0,0 2.29077,0.50188 3.13896,1.41502c1.12625,1.21249 3.02407,5.2199 3.02407,5.2199c0,0 -2.1326,10.77693 -2.78416,12.10152c-0.65156,1.32459 0.04151,-2.24752 -1.54865,-3.29304c-1.59016,-1.04552 -2.87969,0.85237 -4.63352,-0.71948c-1.75383,-1.57187 -0.91394,-4.35539 -2.30365,-5.49791c-1.38972,-1.14252 -2.52667,1.45899 -4.35816,0.02107c-1.83148,-1.43793 -1.41163,-4.38799 -2.47942,-5.38932c-1.06779,-1.00133 -3.72619,-0.43005 -3.72619,-0.43005c0,0 1.05703,-1.35917 5.10887,-2.24545c4.05184,-0.88628 10.56185,-1.18225 10.56185,-1.18225z" fill="url(#color-13)" stroke="#000000" stroke-linecap="round"/><path d="M316.73085,139.52027c-1.63172,0.97053 -8.04905,6.61369 -9.68718,7.09753c-0.57996,0.1713 -1.86537,0.70294 -2.48489,0.34423c-1.13036,-0.65449 -2.05986,-3.02931 -0.67427,-3.64744c5.02846,-2.24323 13.44711,-4.26997 13.44711,-4.26997c0,0 -0.08054,0.16621 -0.60077,0.47565z" fill="#7a2e65" stroke="#000000" stroke-linecap="round"/><path d="M318.90061,140.17568c-0.84891,1.69817 -3.20101,9.9137 -4.3182,11.20577c-0.39553,0.45745 -1.19009,1.59923 -1.90521,1.63201c-1.30478,0.05981 -3.36986,-1.4366 -2.53773,-2.70526c3.0199,-4.60409 9.00977,-10.85733 9.00977,-10.85733c0,0 0.02202,0.18338 -0.24863,0.72481z" fill="#7a2e65" stroke="#000000" stroke-linecap="round"/><path d="M319.02702,144.61314c0,0 0.00369,-0.13906 0.25043,-0.36152c0.51326,-0.46274 2.58554,-3.42865 4.19675,-5.14199c0.81827,-0.87014 1.6564,-1.28304 1.82679,-1.15571c0.34283,0.25619 0.07457,1.8668 0.39779,2.36905c0.54701,0.84999 2.23429,0.62027 1.78343,0.87821c-2.603,1.48925 -8.4552,3.41196 -8.4552,3.41196z" fill="#7a2e65" stroke="#000000" stroke-linecap="round"/><path d="M318.95347,146.39225c0,0 0.87755,-0.11515 -0.71481,-2.27384c-1.59235,-2.15869 -3.90355,-4.36053 -4.75926,-4.95226c-0.85571,-0.59173 -2.71016,-0.51409 -2.71016,-0.51409l7.88809,-0.85681c0,0 2.83431,2.71913 3.38995,3.54535c0.55565,0.82622 -0.00236,2.5513 -0.00236,2.5513l-3.09144,2.50036z" fill="#873172" stroke="#000000" stroke-linecap="round"/><path d="M299.43688,169.55136c0,0 1.18299,-6.85953 5.15654,-7.87056c4.8378,-2.05287 9.89803,2.53362 9.89803,2.53362c0,0 -4.81156,-2.07447 -8.9293,-0.09253c-3.60834,1.73675 -6.12527,5.42948 -6.12527,5.42948z" fill="#000000" stroke="#000000" stroke-linecap="round"/><path d="M337.62254,153.33191c0,0 -4.45113,-0.39812 -8.08318,1.28848c-4.14481,1.92472 -5.59486,6.95978 -5.59486,6.95978c0,0 -0.33355,-6.82134 4.32299,-9.25754c3.30293,-2.4294 9.35505,1.00928 9.35505,1.00928z" data-paper-data="{&quot;index&quot;:null}" fill="#000000" stroke="#000000" stroke-linecap="round"/><path d="M331.64692,197.35776c2.7714,-1.08111 8.61164,-3.65532 8.61164,-3.65532c0,0 -3.09811,6.7686 -6.71887,8.13555c-3.62077,1.36695 -9.63194,-1.75717 -9.63194,-1.75717c0,0 5.06367,-1.67938 7.73917,-2.72307z" fill="#7d4501" stroke="#000000" stroke-linecap="round"/><path d="M355.26378,164.47635c0.93874,-0.16188 5.82236,27.16324 5.82236,27.16324l-2.20594,0.78601c0,0 -5.33982,-27.65206 -3.61642,-27.94925z" data-paper-data="{&quot;index&quot;:null}" fill="url(#color-14)" stroke="#000000" stroke-linecap="round"/><path d="M320.86977,180.68304c-1.04111,4.40648 -5.47669,7.13007 -9.90711,6.0833c-4.43044,-1.04677 -7.17803,-5.46753 -6.13691,-9.87401c1.04111,-4.40648 5.47669,-7.13007 9.90713,-6.0833c4.43044,1.04677 7.17801,5.46753 6.1369,9.87401z" fill="#ffffff" stroke="none" stroke-linecap="butt"/><path d="M342.4834,172.23631c-0.9783,4.1406 -5.27844,6.66861 -9.60464,5.64647c-4.3262,-1.02214 -7.04022,-5.20739 -6.06192,-9.34799c0.9783,-4.1406 5.27844,-6.66861 9.60465,-5.64647c4.3262,1.02214 7.04021,5.20739 6.06192,9.34799z" fill="#ffffff" stroke="none" stroke-linecap="butt"/><path d="M326.88481,168.27615c0,0 -0.45149,-4.0419 4.14844,-5.76114c4.09341,-1.83674 8.71443,1.79967 8.71443,1.79967c0,0 -5.3596,-1.2224 -8.24657,0.06101c-2.92659,1.30102 -4.6163,3.90045 -4.6163,3.90045z" fill="#212121" stroke="#000000" stroke-linecap="round"/><path d="M309.19413,170.44875c4.09341,-1.83674 8.71443,1.79967 8.71443,1.79967c0,0 -5.35958,-1.22239 -8.24656,0.06102c-2.92658,1.30102 -4.61631,3.90047 -4.61631,3.90047c0,0 -0.45148,-4.04191 4.14844,-5.76116z" fill="#212121" stroke="#000000" stroke-linecap="round"/><path d="M322.75853,201.19635l1.13764,-1.68541c0,0 4.21628,3.36724 9.83548,0.84495c5.38211,-2.41586 6.11953,-7.44822 6.11953,-7.44822l1.63986,0.45226c0,0 -1.13095,6.61945 -6.94885,8.9304c-6.99144,2.7771 -11.78367,-1.09399 -11.78367,-1.09399z" fill="#ffffff" stroke="#000000" stroke-linecap="round"/><path d="M328.24249,204.41345c0.03957,-0.94215 0.90361,-0.92734 0.90361,-0.92734c0,0 3.48972,-0.70431 5.56734,-1.59374c2.07762,-0.88943 4.6498,-2.78024 4.6498,-2.78024c0,0 0.71396,0.12717 1.04222,0.41737c0.22799,0.20155 0.41087,3.403 -4.39809,5.57771c-4.86846,2.20162 -7.83048,0.86821 -7.76488,-0.69377z" fill="#8b0f54" stroke="#000000" stroke-linecap="round"/><path d="M329.60742,163.93669l4.33465,-7.92103l-0.59103,6.34236z" fill="#212121" stroke="#000000" stroke-linecap="round"/><path d="M332.70149,163.34352l5.3397,-8.29474l-2.01695,7.63523z" fill="#212121" stroke="#000000" stroke-linecap="round"/><path d="M335.1722,163.34804l7.00416,-6.9467l-3.61739,7.01993z" fill="#212121" stroke="#000000" stroke-linecap="round"/><g fill="#212121" stroke="#000000" stroke-linecap="round"><path d="M308.42656,171.25086l-4.67593,-4.32558l8.51653,3.00016z" data-paper-data="{&quot;index&quot;:null}"/><path d="M306.65477,173.27891l-6.60068,-4.33542l9.51412,2.60701z" data-paper-data="{&quot;index&quot;:null}"/><path d="M305.26068,175.52056l-7.38085,-2.80855l9.85255,0.49203z" data-paper-data="{&quot;index&quot;:null}"/></g><path d="M326.69454,162.05288z" fill="#ffffff" stroke="none" stroke-linecap="butt"/><g stroke="none" stroke-linecap="butt"><path d="M338.9362,171.26798c-0.53362,2.25855 -2.84752,3.64496 -5.16822,3.09665c-2.3207,-0.54831 -3.76941,-2.82371 -3.23579,-5.08226c0.53362,-2.25855 2.84751,-3.64496 5.16821,-3.09665c2.3207,0.54831 3.76942,2.82371 3.23579,5.08226z" fill="url(#color-15)"/><path d="M337.13408,170.86625c-0.29566,1.25137 -1.5777,2.01954 -2.86352,1.71574c-1.28582,-0.3038 -2.08849,-1.56451 -1.79283,-2.81589c0.29566,-1.25137 1.5777,-2.01954 2.86352,-1.71574c1.28582,0.3038 2.08849,1.56452 1.79283,2.81589z" fill="#000000"/><path d="M336.83016,167.77504c-0.08812,0.37296 -0.4787,0.59992 -0.8724,0.5069c-0.39369,-0.09302 -0.6414,-0.47078 -0.55328,-0.84375c0.08812,-0.37296 0.4787,-0.59992 0.8724,-0.5069c0.39369,0.09302 0.64141,0.47078 0.55329,0.84375z" fill="#ffffff"/></g><g stroke="none" stroke-linecap="butt"><path d="M317.64017,179.58572c-0.53362,2.25855 -2.84751,3.64496 -5.16822,3.09665c-2.3207,-0.54831 -3.76942,-2.82371 -3.23579,-5.08226c0.53362,-2.25855 2.84751,-3.64497 5.16822,-3.09666c2.3207,0.54831 3.76942,2.82371 3.23579,5.08226z" fill="url(#color-16)"/><path d="M315.83804,179.18399c-0.29566,1.25137 -1.5777,2.01954 -2.86352,1.71574c-1.28582,-0.3038 -2.08849,-1.56451 -1.79283,-2.81589c0.29566,-1.25137 1.5777,-2.01954 2.86352,-1.71574c1.28582,0.3038 2.08849,1.56452 1.79283,2.81589z" fill="#000000"/><path d="M315.53412,176.09278c-0.08812,0.37296 -0.4787,0.59992 -0.8724,0.5069c-0.39369,-0.09302 -0.64141,-0.47078 -0.55329,-0.84375c0.08812,-0.37296 0.4787,-0.59992 0.8724,-0.5069c0.39369,0.09302 0.64141,0.47078 0.55329,0.84375z" fill="#ffffff"/></g><path d="M357.26762,222.01747c-4.10953,-5.46675 -1.83707,-13.28576 -1.83707,-13.28576c0,0 2.16867,-0.81785 9.00288,1.03742l-0.57056,11.7893c0,0 -5.98681,1.46459 -6.59525,0.45905z" data-paper-data="{&quot;index&quot;:null}" fill="url(#color-17)" stroke="#000000" stroke-linecap="round"/></g><path d="M275.93029,221.93996v-83.87989h88.13942v83.87989z" fill="none" stroke="#ffffff" stroke-width="1.5" stroke-linecap="butt"/></g></g></svg>