<svg version="1.1" xmlns="http://www.w3.org/2000/svg" xmlns:xlink="http://www.w3.org/1999/xlink" width="303.46276" height="312.48503" viewBox="0,0,303.46276,312.48503"><defs><radialGradient cx="313.19251" cy="117.01156" r="9.91093" gradientUnits="userSpaceOnUse" id="color-1"><stop offset="0" stop-color="#ffffff"/><stop offset="1" stop-color="#ffffff" stop-opacity="0"/></radialGradient><radialGradient cx="339.80174" cy="118.86802" r="9.36087" gradientUnits="userSpaceOnUse" id="color-2"><stop offset="0" stop-color="#ffffff"/><stop offset="1" stop-color="#ffffff" stop-opacity="0"/></radialGradient><radialGradient cx="311.81642" cy="134.05167" r="7.05454" gradientUnits="userSpaceOnUse" id="color-3"><stop offset="0" stop-color="#ffffff"/><stop offset="1" stop-color="#ffffff" stop-opacity="0"/></radialGradient><radialGradient cx="320.85117" cy="134.05167" r="6.68324" gradientUnits="userSpaceOnUse" id="color-4"><stop offset="0" stop-color="#ffffff"/><stop offset="1" stop-color="#ffffff" stop-opacity="0"/></radialGradient><radialGradient cx="330.62851" cy="134.42296" r="7.05454" gradientUnits="userSpaceOnUse" id="color-5"><stop offset="0" stop-color="#ffffff"/><stop offset="1" stop-color="#ffffff" stop-opacity="0"/></radialGradient><radialGradient cx="339.66327" cy="136.52694" r="7.30206" gradientUnits="userSpaceOnUse" id="color-6"><stop offset="0" stop-color="#ffffff"/><stop offset="1" stop-color="#ffffff" stop-opacity="0"/></radialGradient><radialGradient cx="340.96279" cy="152.43059" r="5.38372" gradientUnits="userSpaceOnUse" id="color-7"><stop offset="0" stop-color="#ffffff"/><stop offset="1" stop-color="#ffffff" stop-opacity="0"/></radialGradient><radialGradient cx="308.04161" cy="150.32661" r="5.38372" gradientUnits="userSpaceOnUse" id="color-8"><stop offset="0" stop-color="#ffffff"/><stop offset="1" stop-color="#ffffff" stop-opacity="0"/></radialGradient><radialGradient cx="309.27925" cy="156.51479" r="5.38372" gradientUnits="userSpaceOnUse" id="color-9"><stop offset="0" stop-color="#ffffff"/><stop offset="1" stop-color="#ffffff" stop-opacity="0"/></radialGradient><radialGradient cx="313.85851" cy="159.85642" r="5.38372" gradientUnits="userSpaceOnUse" id="color-10"><stop offset="0" stop-color="#ffffff"/><stop offset="1" stop-color="#ffffff" stop-opacity="0"/></radialGradient><radialGradient cx="319.30413" cy="163.07427" r="5.38372" gradientUnits="userSpaceOnUse" id="color-11"><stop offset="0" stop-color="#ffffff"/><stop offset="1" stop-color="#ffffff" stop-opacity="0"/></radialGradient><radialGradient cx="328.58641" cy="163.69308" r="5.38372" gradientUnits="userSpaceOnUse" id="color-12"><stop offset="0" stop-color="#ffffff"/><stop offset="1" stop-color="#ffffff" stop-opacity="0"/></radialGradient><radialGradient cx="334.7746" cy="161.34157" r="5.38372" gradientUnits="userSpaceOnUse" id="color-13"><stop offset="0" stop-color="#ffffff"/><stop offset="1" stop-color="#ffffff" stop-opacity="0"/></radialGradient><radialGradient cx="339.72515" cy="157.50489" r="5.38372" gradientUnits="userSpaceOnUse" id="color-14"><stop offset="0" stop-color="#ffffff"/><stop offset="1" stop-color="#ffffff" stop-opacity="0"/></radialGradient></defs><g transform="translate(-168.26862,-23.75749)"><g data-paper-data="{&quot;isPaintingLayer&quot;:true}" fill-rule="nonzero" stroke-linejoin="miter" stroke-miterlimit="10" stroke-dasharray="" stroke-dashoffset="0" style="mix-blend-mode: normal"><g fill="none" stroke="none" stroke-width="1" stroke-linecap="butt" font-family="sans-serif" font-weight="normal" font-size="12" text-anchor="start"/><path d="M302.50657,96.58675c0,0 -6.15565,0.54503 -10.03014,-5.13121c-3.87447,-5.67624 -4.44439,-14.58357 -4.68877,-19.20632c-0.24437,-4.62275 3.06775,-11.4582 3.06775,-11.4582c0,0 -9.71314,-4.41303 -10.34501,-11.36909c-0.50343,-5.54228 -3.6952,-24.41937 10.26234,-25.60846c13.95755,-1.18907 20.28376,16.92796 22.10814,19.67756c1.82438,2.7496 -1.67764,12.56973 -1.67764,12.56973c0,0 5.9235,0.3862 9.52161,9.19483c3.59811,8.80863 2.71178,17.74224 2.61876,20.52634c-0.09302,2.78409 -3.51223,6.21396 -3.51223,6.21396c0,0 5.53541,0.01349 8.2629,0.17259c2.67492,0.15603 7.94742,0.773 7.94742,0.773c0,0 -4.71882,1.28898 -2.54701,-8.43194c2.17181,-9.72092 7.84678,-18.77482 9.10737,-20.84346c1.26058,-2.06864 7.9038,-5.33073 7.9038,-5.33073c0,0 -5.12883,-9.02661 3.81716,-18.27136c8.94601,-9.24475 16.70055,-12.28148 25.03015,-7.96559c8.3296,4.3159 2.31035,23.08316 0.08911,27.75822c-2.2328,4.69941 -9.89056,8.09187 -9.89056,8.09187c0,0 3.48744,3.6764 0.94335,13.00135c-2.5441,9.32496 -6.75851,15.46929 -8.95589,18.06844c-2.19739,2.59915 -8.37533,2.43155 -8.37533,2.43155c0,0 1.989,1.55015 2.66565,4.64498c1.21293,5.54767 1.63296,14.6892 3.16042,19.0266c2.37956,6.75707 8.2474,8.29894 8.14664,16.00574c-0.24922,19.06207 -23.29364,21.68549 -23.29364,21.68549c0,0 -6.72786,11.77904 -20.53307,10.13145c-15.93003,-1.90119 -19.04712,-12.86694 -19.04712,-12.86694c0,0 -25.23259,-9.30046 -21.45906,-25.27846c1.36576,-5.78295 5.18688,-6.1178 8.22063,-12.81579c3.03375,-6.69797 4.19794,-14.59619 5.71285,-17.94681c1.51491,-3.35061 5.76946,-7.44934 5.76946,-7.44934z" fill="#000000" stroke="#000000" stroke-width="0" stroke-linecap="round"/><path d="M308.33037,117.18838c0,-2.78294 2.25602,-5.03896 5.03896,-5.03896c2.78294,0 5.03896,2.25602 5.03896,5.03896c0,2.78294 -2.25602,5.03896 -5.03896,5.03896c-2.78294,0 -5.03896,-2.25602 -5.03896,-5.03896z" fill="#ffffff" stroke="none" stroke-width="0" stroke-linecap="butt"/><path d="M303.28158,117.01156c0,-5.47366 4.43728,-9.91092 9.91093,-9.91092c5.47366,0 9.91093,4.43727 9.91093,9.91092c0,5.47366 -4.43728,9.91093 -9.91093,9.91093c-5.47366,0 -9.91093,-4.43728 -9.91093,-9.91093z" fill="url(#color-1)" stroke="none" stroke-width="0" stroke-linecap="butt"/><path d="M334.93959,119.04484c0,-2.78294 2.25602,-5.03896 5.03896,-5.03896c2.78294,0 5.03896,2.25602 5.03896,5.03896c0,2.78294 -2.25602,5.03896 -5.03896,5.03896c-2.78294,0 -5.03896,-2.25602 -5.03896,-5.03896z" fill="#ffffff" stroke="none" stroke-width="0" stroke-linecap="butt"/><path d="M330.44086,118.86802c0,-5.16987 4.191,-9.36086 9.36087,-9.36086c5.16987,0 9.36087,4.19099 9.36087,9.36086c0,5.16987 -4.191,9.36087 -9.36087,9.36087c-5.16987,0 -9.36087,-4.191 -9.36087,-9.36087z" fill="url(#color-2)" stroke="none" stroke-width="0" stroke-linecap="butt"/><path d="M322.45693,164.13702c-0.67214,0.68191 -0.96318,0.84904 -2.10505,0.79354c-2.65322,-0.12897 -5.53068,-1.89721 -3.7817,-3.67163c0.66118,-0.67079 5.97923,0.1037 6.24039,1.08502z" fill="#ffffff" stroke="none" stroke-width="0.5" stroke-linecap="butt"/><path d="M316.11449,162.2631c-0.86112,0.41863 -1.19125,0.4791 -2.2492,0.04587c-2.45822,-1.00667 -4.58099,-3.63352 -2.34026,-4.72285c0.84708,-0.41181 5.60213,2.09236 5.52099,3.1046z" fill="#ffffff" stroke="none" stroke-width="0.5" stroke-linecap="butt"/><path d="M310.47763,159.32391c-1.01718,-0.08077 -1.352,-0.19165 -2.07939,-1.04802c-1.69016,-1.98985 -2.18094,-5.11253 0.46587,-4.90237c1.00058,0.07944 3.96297,4.37353 3.33093,5.14321z" fill="#ffffff" stroke="none" stroke-width="0.5" stroke-linecap="butt"/><path d="M307.64471,153.52829c-0.88923,-0.52184 -1.1421,-0.76425 -1.40063,-1.80663c-0.60071,-2.42204 0.42737,-5.25786 2.74124,-3.89997c0.87473,0.51332 1.54656,5.43427 0.60662,5.79703z" fill="#ffffff" stroke="none" stroke-width="0.5" stroke-linecap="butt"/><g data-paper-data="{&quot;index&quot;:null}" fill="#ffffff" stroke="none" stroke-width="0.5" stroke-linecap="butt"><path d="M325.24068,162.64033c0.32585,-0.96178 5.68362,-1.38094 6.29874,-0.66768c1.62712,1.88678 -1.36154,3.45978 -4.01747,3.41204c-1.14303,-0.02054 -1.42232,-0.20666 -2.04762,-0.93176z"/><path d="M331.1024,161.37407c-0.01365,-1.0154 4.89739,-3.19785 5.71521,-2.73063c2.16334,1.23592 -0.12941,3.7158 -2.64913,4.55678c-1.08441,0.36193 -1.40978,0.27964 -2.24116,-0.19532z"/><path d="M336.0872,159.52745c-0.57946,-0.81001 2.6619,-4.89761 3.66555,-4.91035c2.65493,-0.0337 1.9576,3.04944 0.13886,4.92249c-0.78273,0.80611 -1.12418,0.89448 -2.14448,0.90744z"/><path d="M339.01024,154.81336c-0.91375,-0.42446 0.08381,-5.28985 0.99074,-5.74386c2.39905,-1.20103 3.23629,1.69688 2.47586,4.07361c-0.32727,1.02288 -0.5957,1.24795 -1.51767,1.7095z"/></g><path d="M315.82222,135.10269c-0.72178,0.99859 -1.6058,1.6033 -3.36411,1.79137c-3.24749,0.34734 -6.7491,-0.86536 -4.91319,-4.29429c0.51619,-0.96408 7.44968,-1.25738 8.03366,0.07739z" fill="#ffffff" stroke="none" stroke-width="0.5" stroke-linecap="butt"/><path d="M343.65684,138.52216c-0.96106,0.77102 -2.13186,1.15884 -3.87696,0.87317c-3.22312,-0.52762 -6.2769,-2.62674 -3.59624,-5.44495c0.7537,-0.79237 7.51608,0.7663 7.72459,2.20823z" fill="#ffffff" stroke="none" stroke-width="0.5" stroke-linecap="butt"/><path d="M335.22395,135.66328c-0.85833,0.95052 -1.99539,1.54258 -3.83345,1.5388c-3.39478,-0.00698 -6.87639,-1.6546 -4.59297,-4.99089c0.64201,-0.93804 7.83945,-0.45989 8.2925,0.98512z" fill="#ffffff" stroke="none" stroke-width="0.5" stroke-linecap="butt"/><path d="M316.95781,132.1c0.59622,-1.39207 7.80522,-1.14318 8.34954,-0.14529c1.93594,3.54921 -1.69386,4.83796 -5.07209,4.50315c-1.82909,-0.18128 -2.90078,-0.8848 -3.65905,-1.9169z" data-paper-data="{&quot;index&quot;:null}" fill="#ffffff" stroke="none" stroke-width="0.5" stroke-linecap="butt"/><path d="M304.76188,134.05167c0,-3.89611 3.15843,-7.05454 7.05454,-7.05454c3.89611,0 7.05454,3.15843 7.05454,7.05454c0,3.89611 -3.15843,7.05454 -7.05454,7.05454c-3.89611,0 -7.05454,-3.15843 -7.05454,-7.05454z" fill="url(#color-3)" stroke="none" stroke-width="0" stroke-linecap="butt"/><path d="M314.16793,134.05167c0,-3.69106 2.99219,-6.68324 6.68324,-6.68324c3.69106,0 6.68324,2.99219 6.68324,6.68324c0,3.69106 -2.99219,6.68324 -6.68324,6.68324c-3.69106,0 -6.68324,-2.99219 -6.68324,-6.68324z" fill="url(#color-4)" stroke="none" stroke-width="0" stroke-linecap="butt"/><path d="M323.57398,134.42296c0,-3.89611 3.15843,-7.05454 7.05454,-7.05454c3.89611,0 7.05454,3.15843 7.05454,7.05454c0,3.89611 -3.15843,7.05454 -7.05454,7.05454c-3.89611,0 -7.05454,-3.15843 -7.05454,-7.05454z" fill="url(#color-5)" stroke="none" stroke-width="0" stroke-linecap="butt"/><path d="M332.36121,136.52694c0,-4.03282 3.26925,-7.30206 7.30206,-7.30206c4.03282,0 7.30206,3.26925 7.30206,7.30206c0,4.03282 -3.26925,7.30206 -7.30206,7.30206c-4.03282,0 -7.30206,-3.26925 -7.30206,-7.30206z" fill="url(#color-6)" stroke="none" stroke-width="0" stroke-linecap="butt"/><path d="M335.57906,152.43059c0,-2.97335 2.41037,-5.38372 5.38372,-5.38372c2.97335,0 5.38372,2.41037 5.38372,5.38372c0,2.97335 -2.41037,5.38372 -5.38372,5.38372c-2.97335,0 -5.38372,-2.41037 -5.38372,-5.38372z" fill="url(#color-7)" stroke="none" stroke-width="0" stroke-linecap="butt"/><path d="M302.65788,150.32661c0,-2.97335 2.41037,-5.38372 5.38372,-5.38372c2.97335,0 5.38372,2.41037 5.38372,5.38372c0,2.97335 -2.41037,5.38372 -5.38372,5.38372c-2.97335,0 -5.38372,-2.41037 -5.38372,-5.38372z" fill="url(#color-8)" stroke="none" stroke-width="0" stroke-linecap="butt"/><path d="M303.89553,156.51479c0,-2.97335 2.41037,-5.38372 5.38372,-5.38372c2.97335,0 5.38372,2.41037 5.38372,5.38372c0,2.97335 -2.41037,5.38372 -5.38372,5.38372c-2.97335,0 -5.38372,-2.41037 -5.38372,-5.38372z" fill="url(#color-9)" stroke="none" stroke-width="0" stroke-linecap="butt"/><path d="M308.47478,159.85642c0,-2.97335 2.41037,-5.38372 5.38372,-5.38372c2.97335,0 5.38372,2.41037 5.38372,5.38372c0,2.97335 -2.41037,5.38372 -5.38372,5.38372c-2.97335,0 -5.38372,-2.41037 -5.38372,-5.38372z" fill="url(#color-10)" stroke="none" stroke-width="0" stroke-linecap="butt"/><path d="M313.9204,163.07427c0,-2.97335 2.41037,-5.38372 5.38372,-5.38372c2.97335,0 5.38372,2.41037 5.38372,5.38372c0,2.97335 -2.41037,5.38372 -5.38372,5.38372c-2.97335,0 -5.38372,-2.41037 -5.38372,-5.38372z" fill="url(#color-11)" stroke="none" stroke-width="0" stroke-linecap="butt"/><path d="M323.20267,163.69308c0,-2.97335 2.41037,-5.38372 5.38372,-5.38372c2.97335,0 5.38372,2.41037 5.38372,5.38372c0,2.97335 -2.41037,5.38372 -5.38372,5.38372c-2.97335,0 -5.38372,-2.41037 -5.38372,-5.38372z" fill="url(#color-12)" stroke="none" stroke-width="0" stroke-linecap="butt"/><path d="M329.39086,161.34157c0,-2.97335 2.41037,-5.38372 5.38372,-5.38372c2.97335,0 5.38372,2.41037 5.38372,5.38372c0,2.97335 -2.41037,5.38372 -5.38372,5.38372c-2.97335,0 -5.38372,-2.41037 -5.38372,-5.38372z" fill="url(#color-13)" stroke="none" stroke-width="0" stroke-linecap="butt"/><path d="M334.34141,157.50489c0,-2.97335 2.41037,-5.38372 5.38372,-5.38372c2.97335,0 5.38372,2.41037 5.38372,5.38372c0,2.97335 -2.41037,5.38372 -5.38372,5.38372c-2.97335,0 -5.38372,-2.41037 -5.38372,-5.38372z" fill="url(#color-14)" stroke="none" stroke-width="0" stroke-linecap="butt"/><path d="M346.43619,169.17323c0,0 -6.79068,5.41849 -3.66501,11.31656c3.14199,5.92887 10.32618,6.63136 10.89289,7.92579c6.06307,13.84865 12.58604,31.01188 12.38391,46.56219c-0.33585,25.83729 -8.84391,51.42024 -8.84391,51.42024c0,0 -11.7171,6.78776 -16.48388,9.43736c-3.65183,2.02986 -9.67379,5.10229 -9.67379,5.10229l-19.72754,-0.17184c0,0 -5.818,-5.69379 -12.04623,-8.79591c-5.5017,-2.74027 -12.76641,-8.15839 -12.76641,-8.15839c0,0 -8.51583,-31.35198 -7.60779,-51.74177c0.4179,-9.38369 4.62646,-33.84773 9.29151,-46.40427c0.61664,-1.65976 8.55138,-2.43005 10.83378,-6.20014c2.2824,-3.77009 -3.18365,-9.58175 -1.21961,-12.02448c0,0 15.75415,4.49185 23.76572,4.77724c8.19498,0.29192 24.86636,-3.04487 24.86636,-3.04487z" fill="#000000" stroke="#000000" stroke-width="0" stroke-linecap="round"/><g fill="#000000" stroke-width="0"><g stroke="#e44747"><path d="M362.5402,186.81125c-0.58522,-3.63511 -1.14707,-10.53199 1.0621,-10.65051c5.79554,-0.31091 9.0737,1.4687 13.00901,6.47596c6.65679,8.47009 1.86865,15.38019 -3.92688,15.6911c-3.58636,0.19241 -9.19417,-5.61527 -10.14422,-11.51657z" data-paper-data="{&quot;index&quot;:null}" stroke-linecap="butt"/><path d="M413.85714,224.035c0,0 -6.63547,3.78278 -8.80189,6.90104c-2.05052,2.95148 -5.48507,8.77951 -5.48507,8.77951c0,0 -13.28535,-6.37216 -17.78951,-12.82703c-6.62859,-9.49933 -11.52383,-30.06362 -11.52383,-30.06362c0,0 2.34487,-4.15585 4.44791,-6.11632c2.10302,-1.9605 4.79178,-2.49714 4.79178,-2.49714c0,0 13.56661,9.31931 19.7446,15.55393c6.17795,6.23463 14.616,20.26963 14.616,20.26963z" data-paper-data="{&quot;index&quot;:null}" stroke-linecap="round"/></g><g><path d="M416.28724,221.80921c7.30549,1.81211 11.56152,9.99845 9.50614,18.28468c-2.05539,8.2862 -9.64389,13.53454 -16.94938,11.72243c-7.30549,-1.81211 -11.56155,-9.99845 -9.50614,-18.28468c2.05539,-8.2862 9.64389,-13.53452 16.94938,-11.72241z" data-paper-data="{&quot;index&quot;:null}" stroke="none" stroke-linecap="butt"/><path d="M441.051,288.60781c-3.32083,1.74867 -7.14112,2.54667 -7.14112,2.54667c0,0 -11.64411,-7.73339 -16.39727,-15.95697c-4.75315,-8.22358 -9.71061,-23.32212 -9.71061,-23.32212c0,0 3.87172,-6.42588 7.58502,-8.84284c3.71331,-2.41696 9.44961,-2.24494 9.44961,-2.24494c0,0 9.54053,8.66286 13.66476,15.88394c4.12422,7.22107 7.49422,24.11552 7.49422,24.11552c0,0 -2.29314,6.42453 -4.94461,7.82075z" data-paper-data="{&quot;index&quot;:null}" stroke="#e44747" stroke-linecap="round"/></g><g><g data-paper-data="{&quot;index&quot;:null}"><path d="M451.80824,303.72918c2.46298,-0.18973 4.48614,1.44087 4.51885,3.64201c0.03272,2.20111 -1.9374,4.13933 -4.40039,4.32906c-2.46298,0.18973 -4.48613,-1.44089 -4.51884,-3.642c-0.03272,-2.20111 1.9374,-4.13933 4.40036,-4.32908z" stroke="none" stroke-linecap="butt"/><path d="M458.65024,317.46037c0,0 -2.23619,0.91038 -3.19445,1.1385c-1.20013,0.28568 -3.25073,0.55645 -3.25073,0.55645c0,0 -0.91243,-2.40488 -1.41198,-4.03717c-0.49954,-1.6323 -1.19326,-3.98073 -1.19326,-3.98073c0,0 1.89751,-1.16793 3.29196,-1.57523c1.39443,-0.40729 3.10495,-0.29325 3.10495,-0.29325c0,0 1.13726,2.16775 1.561,3.60037c0.42377,1.43262 1.09255,4.59108 1.09255,4.59108z" stroke="#e44747" stroke-linecap="round"/><path d="M451.8416,319.62236c-0.03272,-2.20111 1.3342,-4.07511 3.79717,-4.26486c2.46298,-0.18971 3.76219,1.51792 3.79492,3.71905c0.03272,2.20114 -1.21352,4.0623 -3.67648,4.25203c-2.46298,0.18973 -3.86719,-1.37543 -3.8999,-3.57655z" stroke="none" stroke-linecap="butt"/><path d="M459.3111,330.84564c-2.58571,0.6712 -4.53466,-0.85537 -5.23121,-3.19739c-0.69651,-2.34199 -1.1489,-5.37516 -1.1489,-5.37516c0,0 1.82869,-1.41593 3.22257,-1.82529c1.39386,-0.40936 3.17174,-0.05265 3.17174,-0.05265c0,0 1.25188,3.35788 1.84805,5.41165c0.59615,2.05379 0.72342,4.36757 -1.86228,5.03881z" stroke="#e44747" stroke-linecap="round"/></g><g data-paper-data="{&quot;index&quot;:null}"><path d="M444.44928,306.4327c2.47412,0.18017 4.27419,2.08966 4.02063,4.26493c-0.25356,2.17527 -2.46482,3.79263 -4.93892,3.61246c-2.47412,-0.18017 -4.27423,-2.08967 -4.02064,-4.26493c0.25356,-2.17527 2.46482,-3.79264 4.93894,-3.61246z" stroke="none" stroke-linecap="butt"/><path d="M449.46891,320.99222c0,0 -2.34224,0.56423 -3.32489,0.64625c-1.2307,0.10274 -3.30524,0.06396 -3.30524,0.06396c0,0 -0.59481,-2.5073 -0.87948,-4.1913c-0.28464,-1.68398 -0.66927,-4.10303 -0.66927,-4.10303c0,0 2.03894,-0.86869 3.47864,-1.06237c1.43971,-0.19366 3.12605,0.1738 3.12605,0.1738c0,0 0.84925,2.30702 1.08443,3.78282c0.23521,1.47577 0.48979,4.68988 0.48979,4.68988z" stroke="#e44747" stroke-linecap="round"/><path d="M446.2972,326.03594c-2.47414,-0.18017 -4.1154,-1.10949 -3.82165,-3.62942c0.29375,-2.51993 1.79887,-4.24712 4.27298,-4.06695c2.47414,0.18017 3.39831,1.92021 3.14474,4.09548c-0.25358,2.17525 -1.12199,3.78107 -3.5961,3.60087z" stroke="none" stroke-linecap="butt"/><path d="M451.0375,329.35179c0.32592,2.11399 0.15178,4.41443 -2.50697,4.69073c-2.65875,0.2763 -4.39862,-1.51961 -4.7869,-3.93275c-0.38828,-2.41314 -0.44391,-5.47139 -0.44391,-5.47139c0,0 2.0027,-1.12343 3.44213,-1.31927c1.43942,-0.1958 3.16119,0.42102 3.16119,0.42102c0,0 0.80855,3.49763 1.1345,5.61164z" stroke="#e44747" stroke-linecap="round"/></g><g data-paper-data="{&quot;index&quot;:null}"><path d="M438.98502,308.34605c2.39509,0.74963 3.77744,3.01934 3.08757,5.06954c-0.68986,2.05019 -3.19072,3.10457 -5.58581,2.35492c-2.39509,-0.74963 -3.77746,-3.01934 -3.0876,-5.06956c0.68986,-2.05019 3.19073,-3.10454 5.58581,-2.35493z" stroke="none" stroke-linecap="butt"/><path d="M437.57046,323.48333c-1.23035,-0.1864 -3.26137,-0.70604 -3.26137,-0.70604c0,0 -0.07667,-2.56929 -0.01535,-4.26823c0.06135,-1.69894 0.17334,-4.13381 0.17334,-4.13381c0,0 2.17987,-0.36848 3.63406,-0.2217c1.45419,0.14675 3.03707,0.89494 3.03707,0.89494c0,0 0.36735,2.43425 0.29955,3.91982c-0.06778,1.48558 -0.46866,4.66108 -0.46866,4.66108c0,0 -2.41628,0.00279 -3.39865,-0.14603z" stroke="#e44747" stroke-linecap="round"/><path d="M436.45524,327.83686c-2.39509,-0.74963 -2.9534,-2.34617 -2.67863,-4.7191c0.27152,-2.34479 2.78176,-3.45507 5.17686,-2.70542c2.39509,0.74963 2.81223,3.12208 2.12237,5.17231c-0.68985,2.05019 -2.2255,3.00182 -4.62059,2.25219z" stroke="none" stroke-linecap="butt"/><path d="M440.55316,332.23994c-0.1079,2.12545 -0.74507,4.31545 -3.41408,3.96552c-2.66903,-0.34995 -4.01521,-2.49553 -3.90798,-4.92553c0.1072,-2.43 0.67202,-5.40819 0.67202,-5.40819c0,0 2.19582,-0.62391 3.65022,-0.47927c1.45433,0.14464 3.02156,1.1428 3.02156,1.1428c0,0 0.08615,3.5792 -0.02173,5.70466z" stroke="#e44747" stroke-linecap="round"/></g><path d="M447.19973,280.245c5.18158,3.71473 8.35421,24.85516 8.35421,24.85516c0,0 -16.83621,10.14363 -19.20276,7.74204c-1.63159,-1.65572 -5.56566,-11.01536 -6.91331,-19.41637c-0.83667,-5.2157 3.50454,-8.01068 3.50454,-8.01068c0,0 11.8165,-6.91999 14.25736,-5.17011z" data-paper-data="{&quot;index&quot;:null}" stroke="#e44747" stroke-linecap="round"/><g data-paper-data="{&quot;index&quot;:null}"><path d="M448.50418,291.73801c2.26282,-1.39498 5.11321,-1.20775 6.36661,0.4182c1.2534,1.62592 0.43517,4.07487 -1.82765,5.46984c-2.26279,1.39499 -5.11324,1.20772 -6.36662,-0.4182c-1.2534,-1.62592 -0.43514,-4.07487 1.82766,-5.46985z" stroke="none" stroke-linecap="butt"/><path d="M462.70536,298.50281c0,0 -1.64462,1.81733 -2.43936,2.47521c-0.99531,0.82394 -2.81662,2.06955 -2.81662,2.06955c0,0 -2.21233,-1.33027 -3.5988,-2.29414c-1.38648,-0.96385 -3.35715,-2.36329 -3.35715,-2.36329c0,0 1.17604,-1.8372 2.29065,-2.85077c1.11462,-1.01355 2.82256,-1.79895 2.82256,-1.79895c0,0 2.29686,1.03886 3.49957,1.89233c1.20274,0.85341 3.59917,2.87005 3.59917,2.87005z" stroke="#e44747" stroke-linecap="round"/><path d="M457.3727,303.63158c-1.78622,-1.47068 -1.00857,-3.95688 1.25421,-5.35185c2.26279,-1.39499 4.54166,-0.42688 5.79506,1.19906c1.25342,1.62592 1.00672,3.29402 -1.2561,4.68899c-2.26282,1.39498 -3.98554,0.95213 -5.7932,-0.53619z" stroke="none" stroke-linecap="butt"/><path d="M469.66086,303.46676c1.71333,1.22927 3.1202,2.8911 1.00675,4.70785c-2.11348,1.81674 -4.83492,1.66935 -6.80474,0.27614c-1.96984,-1.39322 -4.08863,-3.42649 -4.08863,-3.42649c0,0 0.97221,-1.98724 2.08515,-3.00204c1.11292,-1.01481 3.02033,-1.65337 3.02033,-1.65337c0,0 3.06781,1.86867 4.78114,3.09792z" stroke="#e44747" stroke-linecap="round"/></g></g></g><g data-paper-data="{&quot;index&quot;:null}" fill="#000000" stroke-width="0"><g stroke="#e44747"><path d="M282.91225,177.55452c-1.22409,5.8506 -7.09652,11.39058 -10.67001,11.03121c-5.77474,-0.58072 -10.23558,-7.70649 -3.19121,-15.8571c4.16443,-4.81839 7.52199,-6.44326 13.29673,-5.86255c2.20124,0.22136 1.31852,7.08456 0.56449,10.68844z" data-paper-data="{&quot;index&quot;:null}" stroke-linecap="butt"/><path d="M229.91602,212.34581c0,0 9.08308,-13.62644 15.54494,-19.56632c6.46188,-5.93988 20.44814,-14.61668 20.44814,-14.61668c0,0 2.66082,0.66139 4.67017,2.71778c2.00937,2.05636 4.15798,6.317 4.15798,6.317c0,0 -5.84846,20.31376 -12.91265,29.49379c-4.80015,6.2379 -18.36808,11.98387 -18.36808,11.98387c0,0 -3.15915,-5.98179 -5.06987,-9.02565c-2.01871,-3.21585 -8.47065,-7.30381 -8.47065,-7.30381z" data-paper-data="{&quot;index&quot;:null}" stroke-linecap="round"/></g><g><path d="M227.5923,210.00919c7.38201,-1.46962 14.71763,4.12672 16.38454,12.49972c1.66693,8.37303 -2.96608,16.35208 -10.34809,17.8217c-7.38201,1.46962 -14.71763,-4.12673 -16.38454,-12.49974c-1.66691,-8.37303 2.96608,-16.35208 10.34809,-17.8217z" data-paper-data="{&quot;index&quot;:null}" stroke="none" stroke-linecap="butt"/><path d="M199.74179,275.58087c-2.58352,-1.51829 -4.57469,-8.04273 -4.57469,-8.04273c0,0 4.15383,-16.71899 8.61017,-23.73997c4.45635,-7.021 14.39029,-15.22972 14.39029,-15.22972c0,0 5.7381,0.09555 9.3347,2.68297c3.59661,2.58742 7.16458,9.18679 7.16458,9.18679c0,0 -5.65585,14.85105 -10.78716,22.84413c-5.13131,7.99308 -17.12324,15.17532 -17.12324,15.17532c0,0 -3.77892,-0.97521 -7.01464,-2.87678z" data-paper-data="{&quot;index&quot;:null}" stroke="#e44747" stroke-linecap="round"/></g><g><g data-paper-data="{&quot;index&quot;:null}"><path d="M188.29142,290.18437c2.45144,0.30435 4.32907,2.33228 4.19379,4.52948c-0.13528,2.1972 -2.23224,3.73174 -4.6837,3.42741c-2.45147,-0.30434 -4.3291,-2.33228 -4.19382,-4.52948c0.13528,-2.19722 2.23225,-3.73174 4.6837,-3.42741z" stroke="none" stroke-linecap="butt"/><path d="M180.81677,303.58173c0,0 0.81529,-3.12386 1.30537,-4.53517c0.49006,-1.41131 1.72712,-3.52368 1.72712,-3.52368c0,0 1.71398,-0.03419 3.08791,0.43766c1.37395,0.47185 3.21495,1.72696 3.21495,1.72696c0,0 -0.80244,2.31354 -1.37752,3.92078c-0.5751,1.60723 -1.59862,3.96697 -1.59862,3.96697c0,0 -2.03575,-0.36606 -3.22127,-0.70736c-0.94658,-0.27252 -3.13791,-1.28615 -3.13791,-1.28615z" stroke="#e44747" stroke-linecap="round"/><path d="M187.49553,306.18754c-0.13528,2.1972 -1.61093,3.6952 -4.06237,3.39087c-2.45145,-0.30433 -3.60957,-2.22156 -3.47429,-4.41877c0.13529,-2.19722 1.5127,-3.84244 3.96416,-3.53812c2.45144,0.30435 3.72952,2.24002 3.59424,4.43722z" stroke="none" stroke-linecap="butt"/><path d="M179.53275,316.92161c-2.5516,-0.79104 -2.31661,-3.09637 -1.62538,-5.12014c0.69125,-2.02375 2.09829,-5.31962 2.09829,-5.31962c0,0 1.79257,-0.27345 3.16584,0.20043c1.37329,0.47388 3.13399,1.97353 3.13399,1.97353c0,0 -0.59328,3.00879 -1.3982,5.31576c-0.80495,2.30701 -2.82296,3.74108 -5.37456,2.95008z" stroke="#e44747" stroke-linecap="round"/></g><g data-paper-data="{&quot;index&quot;:null}"><path d="M195.51634,293.22797c2.47983,-0.06465 4.61331,1.65403 4.7652,3.83875c0.15191,2.18473 -1.73525,4.00823 -4.21508,4.07289c-2.47982,0.06465 -4.61327,-1.65403 -4.76516,-3.83875c-0.15189,-2.18472 1.73523,-4.00823 4.21506,-4.07289z" stroke="none" stroke-linecap="butt"/><path d="M189.82349,307.53771c0,0 0.40412,-3.19875 0.70786,-4.66195c0.30371,-1.46323 1.25958,-3.72815 1.25958,-3.72815c0,0 1.70162,-0.28845 3.13075,-0.02789c1.4291,0.26058 3.42534,1.22336 3.42534,1.22336c0,0 -0.49697,2.39847 -0.85979,4.06737c-0.36285,1.6689 -1.07389,4.14575 -1.07389,4.14575c0,0 -2.07408,-0.05797 -3.29865,-0.21796c-0.97776,-0.12775 -3.29115,-0.80053 -3.29115,-0.80053z" stroke="#e44747" stroke-linecap="round"/><path d="M192.75673,312.72375c-2.47982,0.06467 -3.27244,-1.57988 -3.42436,-3.76458c-0.15191,-2.18473 0.85238,-3.87978 3.33222,-3.94443c2.47982,-0.06465 3.90279,1.73081 4.07877,4.26171c0.17597,2.53089 -1.50683,3.38269 -3.98667,3.44733z" stroke="none" stroke-linecap="butt"/><path d="M187.86694,315.81505c0.42413,-2.09651 1.39485,-5.55266 1.39485,-5.55266c0,0 1.74864,-0.53588 3.17737,-0.2732c1.42873,0.26271 3.37689,1.47828 3.37689,1.47828c0,0 -0.19811,3.05234 -0.69846,5.44474c-0.50033,2.39242 -2.32203,4.10529 -4.96501,3.70535c-2.64299,-0.39992 -2.7097,-2.70598 -2.2856,-4.80249z" stroke="#e44747" stroke-linecap="round"/></g><g data-paper-data="{&quot;index&quot;:null}"><path d="M200.88551,295.39393c2.42742,-0.63716 4.87643,0.5326 5.46998,2.61273c0.59354,2.08016 -0.89312,4.28297 -3.32055,4.92014c-2.42743,0.63719 -4.87643,-0.53261 -5.46998,-2.61274c-0.59355,-2.08013 0.89309,-4.28294 3.32052,-4.92011z" stroke="none" stroke-linecap="butt"/><path d="M201.59293,310.58074c-0.98825,0.10287 -3.40177,-0.01255 -3.40177,-0.01255c0,0 -0.25242,-3.19073 -0.25087,-4.67786c0.00152,-1.48711 0.48194,-3.90159 0.48194,-3.90159c0,0 1.61603,-0.67359 3.07548,-0.7524c1.45945,-0.07882 3.61978,0.39085 3.61978,0.39085c0,0 -0.00163,2.43744 -0.01953,4.13739c-0.01794,1.69994 -0.21428,4.26287 -0.21428,4.26287c0,0 -2.05303,0.42441 -3.29073,0.55325z" stroke="#e44747" stroke-linecap="round"/><path d="M202.50398,314.98148c-2.42743,0.63717 -3.91705,-0.38499 -4.51058,-2.46512c-0.59354,-2.08016 -0.06628,-4.43058 2.36115,-5.06775c2.42743,-0.63719 4.8832,0.58888 5.04513,2.94378c0.16386,2.38315 -0.46826,3.95194 -2.89569,4.58912z" stroke="none" stroke-linecap="butt"/><path d="M198.20529,319.18876c-0.00869,-2.12818 0.2442,-5.69947 0.2442,-5.69947c0,0 1.61205,-0.92403 3.07154,-1.00072c1.45956,-0.07668 3.62391,0.64889 3.62391,0.64889c0,0 0.4254,3.00129 0.41921,5.43364c-0.00616,2.43236 -1.45089,4.51286 -4.13333,4.73802c-2.68243,0.22514 -3.21682,-1.99219 -3.22553,-4.12035z" stroke="#e44747" stroke-linecap="round"/></g><path d="M193.98953,266.94057c2.51977,-1.6342 14.00087,5.82907 14.00087,5.82907c0,0 4.20623,2.9943 3.12735,8.16533c-1.73778,8.32905 -6.10386,17.49515 -7.81085,19.07302c-2.47594,2.28867 -18.82101,-8.62871 -18.82101,-8.62871c0,0 4.15458,-20.96957 9.50369,-24.43873z" data-paper-data="{&quot;index&quot;:null}" stroke="#e44747" stroke-linecap="round"/><g data-paper-data="{&quot;index&quot;:null}"><path d="M193.72152,283.90935c-1.3278,1.56573 -4.1839,1.61992 -6.3792,0.12098c-2.19533,-1.49894 -2.89852,-3.98336 -1.57069,-5.54909c1.32783,-1.56574 4.18385,-1.61992 6.37918,-0.12098c2.19532,1.49894 2.89854,3.98336 1.57071,5.54909z" stroke="none" stroke-linecap="butt"/><path d="M177.64972,284.45574c0,0 2.48784,-1.90274 3.72904,-2.69917c1.24119,-0.79648 3.58397,-1.72715 3.58397,-1.72715c0,0 1.66947,0.86415 2.73563,1.92855c1.06616,1.06443 2.15528,2.95445 2.15528,2.95445c0,0 -2.03376,1.30605 -3.46366,2.20423c-1.42989,0.8982 -3.70182,2.1239 -3.70182,2.1239c0,0 -1.76129,-1.32915 -2.7171,-2.19859c-0.7632,-0.69419 -2.32132,-2.58622 -2.32132,-2.58622z" stroke="#e44747" stroke-linecap="round"/><path d="M182.73756,289.82754c-1.87506,1.40245 -3.61657,1.76451 -5.81189,0.26557c-2.19533,-1.49894 -2.364,-3.17672 -1.03615,-4.74245c1.32783,-1.56574 3.64935,-2.42659 5.84465,-0.92763c2.1953,1.49893 2.85622,4.01868 1.0034,5.40449z" stroke="none" stroke-linecap="butt"/><path d="M170.47042,289.09009c1.76877,-1.14805 4.92035,-2.87169 4.92035,-2.87169c0,0 1.87558,0.72676 2.93999,1.79236c1.06444,1.06557 1.94296,3.09598 1.94296,3.09598c0,0 -2.21126,1.93229 -4.2439,3.23218c-2.03262,1.29988 -4.75798,1.32027 -6.78447,-0.59302c-2.02648,-1.91327 -0.54368,-3.50773 1.22509,-4.6558z" stroke="#e44747" stroke-linecap="round"/></g></g></g></g></g></svg>