<svg version="1.1" xmlns="http://www.w3.org/2000/svg" xmlns:xlink="http://www.w3.org/1999/xlink" width="341.23336" height="350.27224" viewBox="0,0,341.23336,350.27224"><defs><linearGradient x1="391.16866" y1="171.66695" x2="461.91101" y2="192.1231" gradientUnits="userSpaceOnUse" id="color-1"><stop offset="0" stop-color="#bf2c04"/><stop offset="1" stop-color="#9b2103"/></linearGradient><linearGradient x1="392.08073" y1="180.63624" x2="419.36605" y2="188.52621" gradientUnits="userSpaceOnUse" id="color-2"><stop offset="0" stop-color="#ec8e08"/><stop offset="1" stop-color="#dd7607"/></linearGradient><linearGradient x1="462.36821" y1="191.34307" x2="496.72457" y2="267.15858" gradientUnits="userSpaceOnUse" id="color-3"><stop offset="0" stop-color="#46484d"/><stop offset="1" stop-color="#363739"/></linearGradient><linearGradient x1="472.49126" y1="249.04741" x2="496.43915" y2="288.48149" gradientUnits="userSpaceOnUse" id="color-4"><stop offset="0" stop-color="#3d3e41"/><stop offset="1" stop-color="#363739"/></linearGradient><linearGradient x1="470.22035" y1="264.11307" x2="487.67595" y2="292.89832" gradientUnits="userSpaceOnUse" id="color-5"><stop offset="0" stop-color="#3d3e41"/><stop offset="1" stop-color="#363739"/></linearGradient><linearGradient x1="471.92179" y1="258.93791" x2="477.8377" y2="292.07832" gradientUnits="userSpaceOnUse" id="color-6"><stop offset="0" stop-color="#3d3e41"/><stop offset="1" stop-color="#363739"/></linearGradient><linearGradient x1="473.85574" y1="259.92721" x2="479.44682" y2="291.24791" gradientUnits="userSpaceOnUse" id="color-7"><stop offset="0" stop-color="#aa1f00"/><stop offset="1" stop-color="#841701"/></linearGradient><linearGradient x1="486.22784" y1="289.96526" x2="490.814" y2="315.65658" gradientUnits="userSpaceOnUse" id="color-8"><stop offset="0" stop-color="#aa1f00"/><stop offset="1" stop-color="#841701"/></linearGradient><linearGradient x1="463.31884" y1="286.4925" x2="467.65818" y2="310.80088" gradientUnits="userSpaceOnUse" id="color-9"><stop offset="0" stop-color="#aa1f00"/><stop offset="1" stop-color="#841701"/></linearGradient><linearGradient x1="458.19515" y1="266.25375" x2="460.98979" y2="281.90905" gradientUnits="userSpaceOnUse" id="color-10"><stop offset="0" stop-color="#aa1f00"/><stop offset="1" stop-color="#841701"/></linearGradient><linearGradient x1="474.73718" y1="287.58351" x2="479.41349" y2="313.77967" gradientUnits="userSpaceOnUse" id="color-11"><stop offset="0" stop-color="#aa1f00"/><stop offset="1" stop-color="#841701"/></linearGradient><linearGradient x1="458.0285" y1="305.25936" x2="460.27096" y2="317.82125" gradientUnits="userSpaceOnUse" id="color-12"><stop offset="0" stop-color="#aa1f00"/><stop offset="1" stop-color="#841701"/></linearGradient><linearGradient x1="472.95105" y1="309.27719" x2="475.54338" y2="323.79924" gradientUnits="userSpaceOnUse" id="color-13"><stop offset="0" stop-color="#aa1f00"/><stop offset="1" stop-color="#841701"/></linearGradient><linearGradient x1="483.45047" y1="308.80898" x2="486.04281" y2="323.33104" gradientUnits="userSpaceOnUse" id="color-14"><stop offset="0" stop-color="#aa1f00"/><stop offset="1" stop-color="#841701"/></linearGradient><linearGradient x1="488.57843" y1="309.82692" x2="491.17075" y2="324.34897" gradientUnits="userSpaceOnUse" id="color-15"><stop offset="0" stop-color="#aa1f00"/><stop offset="1" stop-color="#841701"/></linearGradient><linearGradient x1="483.49558" y1="289.05186" x2="488.07732" y2="314.71831" gradientUnits="userSpaceOnUse" id="color-16"><stop offset="0" stop-color="#aa1f00"/><stop offset="1" stop-color="#841701"/></linearGradient><linearGradient x1="451.49102" y1="275.53928" x2="454.10079" y2="290.15893" gradientUnits="userSpaceOnUse" id="color-17"><stop offset="0" stop-color="#aa1f00"/><stop offset="1" stop-color="#841701"/></linearGradient><linearGradient x1="474.13353" y1="175.76382" x2="473.57486" y2="260.93059" gradientUnits="userSpaceOnUse" id="color-18"><stop offset="0" stop-color="#bf2c04"/><stop offset="1" stop-color="#9b2103"/></linearGradient><linearGradient x1="356.80708" y1="194.54463" x2="386.7194" y2="191.97281" gradientUnits="userSpaceOnUse" id="color-19"><stop offset="0" stop-color="#bf2c04"/><stop offset="1" stop-color="#9b2103"/></linearGradient><linearGradient x1="277.45315" y1="185.32988" x2="248.9281" y2="194.69367" gradientUnits="userSpaceOnUse" id="color-20"><stop offset="0" stop-color="#bf2c04"/><stop offset="1" stop-color="#9b2103"/></linearGradient><linearGradient x1="318.60217" y1="169.99037" x2="318.60217" y2="303.19282" gradientUnits="userSpaceOnUse" id="color-21"><stop offset="0" stop-color="#f2b21b"/><stop offset="1" stop-color="#f79b22"/></linearGradient><linearGradient x1="322.87701" y1="196.48616" x2="322.87701" y2="320.09367" gradientUnits="userSpaceOnUse" id="color-22"><stop offset="0" stop-color="#f6d500"/><stop offset="1" stop-color="#fe9f04"/></linearGradient><linearGradient x1="317.76509" y1="168.03721" x2="317.76509" y2="301.23965" gradientUnits="userSpaceOnUse" id="color-23"><stop offset="0" stop-color="#c42d04"/><stop offset="1" stop-color="#7d1702"/></linearGradient><linearGradient x1="299.13879" y1="121.34303" x2="358.32479" y2="211.75032" gradientUnits="userSpaceOnUse" id="color-24"><stop offset="0" stop-color="#bd2600"/><stop offset="1" stop-color="#a32100"/></linearGradient><linearGradient x1="301.69086" y1="126.29992" x2="350.82412" y2="201.35155" gradientUnits="userSpaceOnUse" id="color-25"><stop offset="0" stop-color="#ff960a"/><stop offset="1" stop-color="#a34000"/></linearGradient><linearGradient x1="308.21432" y1="142.84733" x2="335.87235" y2="185.09529" gradientUnits="userSpaceOnUse" id="color-26"><stop offset="0" stop-color="#bd2600"/><stop offset="1" stop-color="#a32100"/></linearGradient><linearGradient x1="259.90836" y1="55.3734" x2="319.60466" y2="146.5602" gradientUnits="userSpaceOnUse" id="color-27"><stop offset="0" stop-color="#f28608"/><stop offset="1" stop-color="#f89009"/></linearGradient><linearGradient x1="287.50957" y1="101.32154" x2="320.08445" y2="151.08004" gradientUnits="userSpaceOnUse" id="color-28"><stop offset="0" stop-color="#443f3a"/><stop offset="1" stop-color="#383838"/></linearGradient><linearGradient x1="276.14319" y1="20.05732" x2="292.3124" y2="44.75599" gradientUnits="userSpaceOnUse" id="color-29"><stop offset="0" stop-color="#a81e00"/><stop offset="1" stop-color="#a81f01"/></linearGradient><linearGradient x1="220.19955" y1="124.70827" x2="374.40435" y2="66.08513" gradientUnits="userSpaceOnUse" id="color-30"><stop offset="0" stop-color="#cd2b00"/><stop offset="1" stop-color="#801101"/></linearGradient><linearGradient x1="292.74867" y1="86.48979" x2="296.01648" y2="95.08563" gradientUnits="userSpaceOnUse" id="color-31"><stop offset="0" stop-color="#191313"/><stop offset="1" stop-color="#15100f"/></linearGradient><radialGradient cx="304.88031" cy="127.47718" r="14.36568" gradientUnits="userSpaceOnUse" id="color-32"><stop offset="0" stop-color="#222222"/><stop offset="1" stop-color="#000000"/></radialGradient><linearGradient x1="309.70396" y1="70.78311" x2="330.7829" y2="102.98144" gradientUnits="userSpaceOnUse" id="color-33"><stop offset="0" stop-color="#ffad09"/><stop offset="1" stop-color="#f58c09"/></linearGradient><linearGradient x1="265.76418" y1="85.05624" x2="283.99076" y2="112.89755" gradientUnits="userSpaceOnUse" id="color-34"><stop offset="0" stop-color="#ffad09"/><stop offset="1" stop-color="#dd7607"/></linearGradient><linearGradient x1="344.26335" y1="11.27105" x2="371.96965" y2="53.59276" gradientUnits="userSpaceOnUse" id="color-35"><stop offset="0" stop-color="#3c3c3c"/><stop offset="1" stop-color="#404040"/></linearGradient><linearGradient x1="193.18644" y1="45.63079" x2="229.26728" y2="100.7447" gradientUnits="userSpaceOnUse" id="color-36"><stop offset="0" stop-color="#57474a"/><stop offset="1" stop-color="#404040"/></linearGradient><linearGradient x1="246.07357" y1="58.65988" x2="256.76457" y2="86.78189" gradientUnits="userSpaceOnUse" id="color-37"><stop offset="0" stop-color="#231c1a"/><stop offset="1" stop-color="#100c0c"/></linearGradient><radialGradient cx="270.47298" cy="97.59619" r="58.85068" gradientUnits="userSpaceOnUse" id="color-38"><stop offset="0" stop-color="#f8c601"/><stop offset="1" stop-color="#f8c601" stop-opacity="0"/></radialGradient><radialGradient cx="323.1455" cy="83.18742" r="58.15249" gradientUnits="userSpaceOnUse" id="color-39"><stop offset="0" stop-color="#f8c601"/><stop offset="1" stop-color="#f8c601" stop-opacity="0"/></radialGradient><linearGradient x1="245.47565" y1="204.47651" x2="174.06224" y2="186.50264" gradientUnits="userSpaceOnUse" id="color-40"><stop offset="0" stop-color="#bf2c04"/><stop offset="1" stop-color="#9b2103"/></linearGradient><linearGradient x1="159.27507" y1="191.77967" x2="212.39178" y2="125.20411" gradientUnits="userSpaceOnUse" id="color-41"><stop offset="0" stop-color="#bf2c04"/><stop offset="1" stop-color="#9b2103"/></linearGradient><linearGradient x1="239.67699" y1="203.80595" x2="211.81138" y2="198.30609" gradientUnits="userSpaceOnUse" id="color-42"><stop offset="0" stop-color="#ec8e08"/><stop offset="1" stop-color="#dd7607"/></linearGradient></defs><g transform="translate(-152.78074,-0.92055)"><g data-paper-data="{&quot;isPaintingLayer&quot;:true}" fill-rule="nonzero" stroke-linejoin="miter" stroke-miterlimit="10" stroke-dasharray="" stroke-dashoffset="0" style="mix-blend-mode: normal"><g data-paper-data="{&quot;index&quot;:null}"><path d="M394.59183,187.53269c-3.24603,4.23557 -9.83396,5.11053 -14.71443,1.95428c-4.88048,-3.15624 -6.20548,-9.1485 -2.95939,-13.38407c3.24608,-4.23557 9.8339,-5.11049 14.71442,-1.95424c4.88047,3.15628 6.20546,9.14849 2.9594,13.38405z" data-paper-data="{&quot;index&quot;:null}" fill="#3e3c39" stroke="none" stroke-width="0" stroke-linecap="butt"/><path d="M397.5006,165.59211c14.72398,-3.39844 48.08572,-1.83377 62.59005,6.8421c10.44236,6.24612 -1.23287,24.44587 -1.23287,24.44587c0,0 -23.95792,5.42739 -38.81454,2.50597c-10.17466,-2.00075 -25.5687,-5.39526 -28.61029,-8.58815c-7.02189,-7.37122 1.14358,-24.06927 6.06765,-25.2058z" data-paper-data="{&quot;index&quot;:null}" fill="url(#color-1)" stroke="#000000" stroke-width="0" stroke-linecap="round"/><path d="M401.89853,185.02002l-9.88074,-0.3875l7.2765,-8.85322l8.11886,0.82214c0,0 0.10453,-2.34456 1.93497,-3.08156c1.64916,-0.66399 4.99538,0.25002 5.78022,0.60977c3.89747,1.7865 4.78286,12.5114 4.78286,12.5114c0,0 -5.55029,-3.44604 -7.21274,-3.50307c-1.75338,-0.06011 -3.04928,3.15117 -3.04928,3.15117z" data-paper-data="{&quot;index&quot;:null}" fill="url(#color-2)" stroke="#000000" stroke-width="0" stroke-linecap="round"/><g><path d="M486.12256,276.73084l-15.91242,-1.11644l-5.52857,-53.28273l15.18779,1.23632z" fill="url(#color-3)" stroke="#000000" stroke-width="0" stroke-linecap="round"/><path d="M467.87948,274.84425l17.88304,-5.34932l5.79783,8.3121l0.1686,10.61121c0,0 -10.56943,3.96724 -15.68802,3.95088c-5.11861,-0.01641 -12.80087,-4.04218 -12.80087,-4.04218z" fill="#290f0c" stroke="#000000" stroke-width="0.5" stroke-linecap="round"/><path d="M479.91833,275.58821c-0.4842,-3.0783 9.98232,-3.03764 10.27946,-0.31957c1.01022,9.2413 1.53942,23.11576 -2.63537,22.3706c-4.55669,-0.84114 -6.06832,-12.03315 -7.64409,-22.05102z" fill="url(#color-4)" stroke="#000000" stroke-width="0" stroke-linecap="round"/><path d="M483.58745,283.41746c-0.45317,6.32244 -2.10874,15.72388 -6.11388,14.83753c-4.36715,-0.98613 -4.10285,-8.66965 -4.08615,-15.5677c0.00517,-2.11967 10.33331,-1.1295 10.19998,0.73009z" fill="url(#color-5)" stroke="#000000" stroke-width="0" stroke-linecap="round"/><path d="M477.43846,281.76124c-2.70004,5.73487 -7.63067,13.90897 -11.04778,11.63954c-3.71887,-2.49293 -0.70474,-9.56556 1.7954,-15.99456c0.76822,-1.97552 10.04654,2.66821 9.25241,4.355z" fill="url(#color-6)" stroke="#000000" stroke-width="0" stroke-linecap="round"/><path d="M491.003,289.18503l-6.06256,-1.98894c0,0 -7.6963,-1.95882 -12.67648,-1.65743c-4.98014,0.30142 -9.17465,2.97994 -9.17465,2.97994c0,0 -6.01746,-20.48214 3.04254,-25.99594c1.19201,-0.72538 8.27042,-4.8105 14.96334,-0.7606c6.69293,4.0499 10.67953,11.319 11.89505,15.76955c2.74361,10.04545 -1.98721,11.65343 -1.98721,11.65343z" fill="url(#color-7)" stroke="#000000" stroke-width="0" stroke-linecap="round"/><path d="M485.7304,311.89871c0,0 -0.07679,-2.39126 -0.18198,-3.61566c-0.72125,-8.39518 -1.88857,-16.40035 -1.88857,-16.40035c0,0 1.68384,-2.27549 4.18552,-2.07659c1.89092,0.15032 2.93579,0.94651 2.93579,0.94651c0,0 2.11728,14.17358 2.92507,20.8043c0.12249,1.00558 0.08847,3.56753 0.08847,3.56753c0,0 -2.57847,-0.26127 -3.79602,-0.74829c-1.43473,-0.57389 -4.26829,-2.47745 -4.26829,-2.47745z" fill="url(#color-8)" stroke="#000000" stroke-width="0" stroke-linecap="round"/><path d="M459.44964,301.06742c2.9949,-7.3815 5.23881,-14.56201 5.23881,-14.56201c0,0 3.20976,-1.44439 6.30918,-0.534c2.34273,0.68815 3.30469,1.67725 3.30469,1.67725c0,0 -3.90839,12.72848 -5.97004,18.62906c-0.43608,1.24807 -2.00127,4.76007 -2.00127,4.76007c0,0 -3.84488,0.21469 -5.53075,-0.21607c-1.59477,-0.40747 -4.32641,-2.30268 -4.32641,-2.30268c0,0 1.96271,-4.95455 2.97583,-7.45162z" fill="url(#color-9)" stroke="#000000" stroke-width="0" stroke-linecap="round"/><path d="M454.17822,269.35c3.46949,-2.36158 16.52593,-8.1262 15.66027,-0.88418c-0.58492,4.8935 -6.21109,6.94674 -9.02484,8.80393c-2.05126,1.35388 -5.2744,5.61226 -5.2744,5.61226c0,0 -4.38827,-0.79797 -6.00959,-2.93464c-0.8213,-1.08237 -0.68762,-2.46067 -0.68762,-2.46067c0,0 1.86665,-5.775 5.33615,-8.13662z" fill="url(#color-10)" stroke="#000000" stroke-width="0" stroke-linecap="round"/><path d="M470.77907,305.39168c1.92088,-8.57381 3.07405,-16.8014 3.07405,-16.8014c0,0 3.17944,-2.11952 6.64906,-1.64624c2.62257,0.35777 3.82185,1.2771 3.82185,1.2771c0,0 -1.97027,14.5729 -3.15058,21.37058c-0.18954,1.09148 -0.89907,4.03427 -0.89907,4.03427c0,0 -4.09634,0.47076 -5.82098,0.08227c-1.86314,-0.4197 -4.97454,-2.51412 -4.97454,-2.51412c0,0 0.86759,-3.87146 1.30019,-5.80237z" fill="url(#color-11)" stroke="#000000" stroke-width="0" stroke-linecap="round"/><path d="M457.68709,316.42841l-7.93284,7.74335l4.40465,-7.81657z" fill="#323232" stroke="#000000" stroke-width="0" stroke-linecap="round"/><path d="M457.85192,305.5139c0,0 3.55834,-1.60515 5.79026,0.10223c2.2319,1.70742 2.06762,5.64212 2.06762,5.64212l-10.21969,7.41644l-2.10622,-1.31485z" fill="url(#color-12)" stroke="#000000" stroke-width="0" stroke-linecap="round"/><path d="M473.46301,321.50493l-5.58701,10.25603l1.73094,-8.95692z" fill="#323232" stroke="#000000" stroke-width="0" stroke-linecap="round"/><path d="M469.38663,311.31733c0,0 3.23446,-2.86758 6.32139,-2.14865c3.08692,0.71892 4.44275,4.43226 4.44275,4.43226l-8.19536,10.83885l-2.7975,-0.40354z" fill="url(#color-13)" stroke="#000000" stroke-width="0" stroke-linecap="round"/><path d="M484.23758,320.98762l-4.36562,10.03799l1.18264,-8.85902z" fill="#323232" stroke="#000000" stroke-width="0" stroke-linecap="round"/><path d="M480.53294,310.73361c0,0 2.61758,-2.75746 5.21735,-1.95158c2.59978,0.80589 3.84146,4.53959 3.84146,4.53959l-6.5273,10.54108l-2.34874,-0.48363z" fill="url(#color-14)" stroke="#000000" stroke-width="0" stroke-linecap="round"/><path d="M489.54895,321.97283l-3.55129,9.89263l0.81712,-8.79379z" fill="#323232" stroke="#000000" stroke-width="0" stroke-linecap="round"/><path d="M486.09216,311.67453c0,0 2.20631,-2.68405 4.4813,-1.82018c2.27502,0.86388 3.44064,4.61117 3.44064,4.61117l-5.41532,10.34256l-2.04955,-0.53704z" fill="url(#color-15)" stroke="#000000" stroke-width="0" stroke-linecap="round"/><path d="M481.48907,306.51173c0.94584,-8.39971 1.35836,-16.49512 1.35836,-16.49512c0,0 2.17438,-1.94014 4.68769,-1.29614c1.89976,0.48677 2.8066,1.45825 2.8066,1.45825c0,0 -0.67879,14.34235 -1.18284,21.01933c-0.07454,0.98765 -0.60031,3.43436 -0.60031,3.43436c0,0 -2.87225,0.1206 -4.09337,-0.44425c-1.35892,-0.62858 -3.69098,-3.15667 -3.69098,-3.15667c0,0 0.5402,-2.96894 0.71484,-4.51981z" fill="url(#color-16)" stroke="#000000" stroke-width="0" stroke-linecap="round"/><path d="M451.26284,289.50375l-3.61897,8.20988l1.4464,-10.99079z" data-paper-data="{&quot;index&quot;:null}" fill="#323232" stroke="#000000" stroke-width="0" stroke-linecap="round"/><path d="M450.92288,290.72622l-2.3147,-0.89844l-0.18559,-12.62584c0,0 3.05182,-2.48907 5.7561,-1.72518c2.70429,0.76387 3.5512,4.57455 3.5512,4.57455z" data-paper-data="{&quot;index&quot;:null}" fill="url(#color-17)" stroke="#000000" stroke-width="0" stroke-linecap="round"/><path d="M454.6226,183.03117c1.9173,-5.56153 6.65236,-6.35775 12.96178,-4.36442c6.30947,1.99337 11.80397,6.02152 9.88667,11.58306c-1.91727,5.56155 -7.12849,4.56035 -13.43791,2.56702c-6.30943,-1.99339 -11.32784,-4.22412 -9.41053,-9.78569z" data-paper-data="{&quot;index&quot;:null}" fill="#3e3c39" stroke="none" stroke-width="0" stroke-linecap="butt"/><path d="M488.44149,184.30171c7.28352,50.92778 -3.18398,72.22278 -3.18398,72.22278c-1.32384,-0.19351 -1.94082,3.15928 -6.79152,3.27956c-2.0987,0.05203 -10.51585,1.13301 -11.01085,1.08511c-2.99505,-4.15207 -8.59324,-25.03812 -10.18379,-43.60705c-1.70562,-17.73446 1.27167,-37.13296 3.91528,-38.961c2.16262,-1.49549 21.78076,-7.32696 27.25484,5.98056z" fill="url(#color-18)" stroke="#000000" stroke-width="0" stroke-linecap="round"/></g></g><path d="" data-paper-data="{&quot;index&quot;:null}" fill="#0d0000" stroke="#000000" stroke-width="0" stroke-linecap="round"/><path d="M382.83728,206.35315c0,0 -6.38482,-1.61908 -14.87907,-6.60492c-7.84951,-4.60739 -11.65906,-11.11132 -11.65906,-11.11132l29.22141,-10.60758z" data-paper-data="{&quot;index&quot;:null}" fill="url(#color-19)" stroke="#000000" stroke-width="0" stroke-linecap="round"/><path d="M249.81705,182.04779c5.81038,-0.14304 10.28183,4.0604 9.98721,9.38865c-0.29462,5.32824 -5.2437,9.76358 -11.05408,9.90659c-5.81038,0.14304 -10.28182,-4.06039 -9.98721,-9.38863c0.29462,-5.32826 5.24373,-9.7636 11.05409,-9.90661z" data-paper-data="{&quot;index&quot;:null}" fill="#3e3c39" stroke="none" stroke-width="0" stroke-linecap="butt"/><path d="M244.56321,181.39684l31.04059,-1.70066c0,0 -0.95401,7.47687 -6.36814,14.7933c-5.85885,7.91742 -11.09742,11.91051 -11.09742,11.91051z" data-paper-data="{&quot;index&quot;:null}" fill="url(#color-20)" stroke="#000000" stroke-width="0" stroke-linecap="round"/><path d="M275.39302,303.74931l100.07646,-1.48811l-11.53296,20.83375l-46.87597,14.88126z" fill="#f5a61f" stroke="#000000" stroke-width="0" stroke-linecap="round"/><path d="M378.68356,297.1341c0,0 9.69114,11.38122 -0.12429,26.72008c-6.37915,9.96882 -14.33595,8.51585 -28.00344,15.73843c-8.25013,4.35978 -13.71376,9.57408 -15.99776,10.44836c-6.06781,2.32268 -17.64813,0.41416 -17.64813,0.41416c0,0 -40.80447,-25.82604 -43.37973,-33.08853c-2.77789,-7.834 2.7345,-19.35281 2.7345,-19.35281c0,0 7.84047,5.57735 17.9424,6.94126c7.16439,0.96729 15.65117,-2.77339 22.46073,-0.5818c8.71259,2.80403 8.87632,10.26624 16.29647,11.7342c7.49886,1.48354 5.78401,-3.11047 10.5873,-3.15172c4.19432,-0.03603 0.3336,-8.07854 6.93393,-11.33809c4.72762,-2.33474 6.30498,1.7547 12.39472,1.21839c2.66854,-0.23503 2.36128,-4.18129 5.55809,-5.50426c3.41138,-1.41177 10.24523,-0.19764 10.24523,-0.19764z" fill="#69331f" stroke="#000000" stroke-width="0" stroke-linecap="round"/><g stroke-width="0"><path d="M347.37053,168.93524c3.43572,-6.55782 18.33708,-32.41397 43.47186,-38.14902c17.3821,-3.96613 38.6095,4.58387 37.71283,5.0301c-1.66113,0.76577 -11.00029,-0.57211 -22.50794,3.12766c-4.72043,1.51762 -17.47889,2.6165 -20.29993,11.2311c-0.29552,0.90248 2.49755,-2.56699 5.7234,-2.47962c2.83819,0.07688 5.89929,3.80354 9.04233,3.23792c4.3714,-0.78664 22.43064,-4.64489 22.43064,-4.64489c0,0 -6.70987,6.95566 -15.7122,12.26477c-6.32565,3.73053 -8.87554,4.40147 -14.34288,6.83786c-4.97767,2.21817 -14.32672,20.68605 -14.42791,20.73185" data-paper-data="{&quot;index&quot;:null}" fill="#bf2c04" stroke="#000000" stroke-linecap="round"/><path d="M274.27749,243.59715c0,0 -5.66276,-8.14204 -8.53591,-16.33924c-2.25654,-6.43793 -1.83019,-13.23063 -2.08176,-13.97524c-0.83776,-2.47962 -4.50223,2.67996 -5.10966,0.45668c-3.22314,-11.79741 -4.13138,-13.72227 -3.77035,-23.97958c0.36103,-10.25733 0.94754,-11.12016 10.31548,-15.4358c9.30252,-4.28549 28.16862,-1.87106 46.34281,-2.8505c18.17419,-0.97944 43.6284,-1.48309 43.6284,-1.48309c0,0 -50.27188,58.15202 -47.29133,58.1431c2.02681,-0.00607 -5.60072,14.98276 -1.30641,12.62979c5.34089,-2.92644 16.27212,21.63987 28.69472,18.30781c1.64754,-0.44191 6.96286,-9.56209 -0.14931,-3.77063c-3.81914,3.10991 -0.47094,-7.09979 -2.57036,-5.56579c-2.90372,2.12169 6.73978,-6.50531 4.52052,-5.36476c-5.3825,2.76626 -4.27612,-2.31606 -5.83095,-1.75055c-4.46292,1.62313 9.69585,-7.49817 6.03745,-6.60882c-3.07098,0.74653 -0.64461,-3.62771 -0.64461,-3.62771l3.55496,-10.68073l-4.3553,-13.1677c0,0 15.77582,-38.44286 20.10604,-38.28163c26.53048,0.98779 22.48618,24.7116 22.47631,24.7804c-0.00848,0.05916 1.38704,18.52645 -1.18172,31.44846c-2.56876,12.92201 -0.06525,-2.00718 -0.06525,-2.00718c0,0 -2.10846,2.72224 -3.17806,4.93028c-2.04165,4.2146 -0.76772,-13.19444 -2.11223,-11.60251c-4.45166,5.27078 -2.18415,1.1817 -4.80849,6.4573c-2.87698,5.78349 0.86201,3.66504 -1.76421,8.54192c-3.53264,6.56018 1.48221,2.71599 0.62342,6.45252c-1.69434,7.37167 13.3124,-18.22616 9.18066,-12.11686c-1.15139,1.70245 4.30109,1.74885 3.17328,6.43386c-1.38596,5.75735 -12.26077,43.9972 -14.85518,43.71366c-0.49816,-0.05442 0.49894,8.34638 -1.45788,12.4995c-2.1775,4.6215 -8.35477,3.61793 -9.7031,4.87334c-1.62254,1.51068 1.17971,-10.40267 -0.99884,-11.2499c-3.85347,-1.49863 -8.04438,3.01948 -9.85279,1.30253c-2.71481,-2.57756 -3.31311,-14.14239 -3.31311,-14.14239c0,0 0.26367,5.99304 -3.04769,5.20582c-5.85467,-1.39191 1.37418,11.71359 -2.14011,9.85715c-5.64206,-2.98044 2.98247,-6.16881 -1.83314,-8.31032c-4.87769,-2.16913 -5.22788,-1.13 -6.92519,-1.18638c-2.31632,-0.07696 -6.37629,-2.48762 -6.37629,-2.48762c0,0 -4.01504,23.18606 -8.91907,13.20764c-3.10026,-6.30821 -3.64492,-23.35231 -5.26006,-23.32307c-3.56936,0.06464 -8.79777,42.84997 -11.26222,38.8254c-0.63211,-1.03226 -6.16439,-1.70953 -8.50944,-7.6782c-3.30888,-8.42192 -3.82137,-23.08551 -6.53091,-33.62774c-2.85703,-11.11607 -2.91314,-17.4531 -2.91314,-17.4531z" fill="url(#color-21)" stroke="#000000" stroke-linecap="round"/><path d="M313.94826,302.7745v-106.28834h17.85751v113.78589z" fill="url(#color-22)" stroke="none" stroke-linecap="butt"/><path d="M273.44041,241.64399c0,0 4.83956,5.141 8.8569,2.56284c2.21377,-1.4207 0.19969,-9.67319 -0.29488,-12.46684c-0.55418,-3.13042 -4.85893,-8.79217 -10.11208,-13.37572c-3.47549,-3.0325 -8.49571,-5.34205 -9.06762,-7.03477c-0.83776,-2.47962 -4.50223,2.67996 -5.10966,0.45668c-3.22314,-11.79741 -4.13138,-13.72227 -3.77034,-23.97958c0.36103,-10.25733 0.94754,-11.12016 10.31548,-15.4358c9.30252,-4.28549 28.16861,-1.87106 46.34281,-2.8505c18.17419,-0.97944 43.6284,-1.48309 43.6284,-1.48309c0,0 -11.44083,22.963 -7.79841,25.32561c1.74102,1.12929 -34.6608,41.19712 -31.68025,41.18819c2.02681,-0.00607 -13.41338,6.61205 -9.11908,4.25908c5.34089,-2.92644 0.39925,14.78747 7.62047,7.25461c10.0267,-10.45941 8.65165,14.38525 21.07425,11.0532c1.64754,-0.44191 17.3427,2.02388 17.3427,2.02388c0,0 1.08157,-14.95263 4.18435,-21.76493c3.71943,-8.16615 -4.85416,-1.21498 0.00034,-9.13231c2.55757,-4.17122 1.87818,-20.4158 1.87818,-20.4158c0,0 -12.01864,-8.12013 -7.60598,-10.68073c2.80831,-1.62963 10.99101,-15.3999 10.99101,-15.3999c0,0 -12.57878,-12.05023 -9.29332,-10.0776c1.66908,1.00212 -1.15909,-3.53217 3.17113,-3.37094c26.53048,0.98779 26.67153,25.8277 26.66166,25.89649c-0.00848,0.05916 0.27095,20.75864 -2.29781,33.68065c-2.56876,12.92201 -8.75527,21.92145 -8.75527,21.92145l5.16973,-16.53715l0.45103,-10.73977c0,0 -2.10845,2.72224 -3.17805,4.93028c-2.04165,4.2146 -0.76772,-13.19444 -2.11223,-11.60251c-4.45166,5.27078 -5.25341,-1.88756 -7.87775,3.38804c-2.87698,5.78349 3.93126,6.7343 1.30505,11.61118c-3.53264,6.56018 -4.24318,6.21879 -6.31943,10.96886c-2.7316,6.24937 3.33727,1.51295 2.47848,5.24948c-1.69434,7.37167 12.1963,-13.76178 8.06457,-7.65248c-2.56628,3.79457 -0.01279,5.92448 -1.18601,11.86158c-0.43945,2.22391 -0.8019,9.45801 -3.3963,9.17448c-1.71954,-0.18791 -1.588,-8.49701 -3.2727,-7.96856c-2.64481,0.82964 -4.27071,6.27464 -5.38515,7.51672c-1.67032,1.86163 5.72431,7.88038 4.17124,8.66774c-2.26196,1.14677 -4.71483,-0.06556 -4.71483,-0.06556c0,0 1.13835,15.03785 -4.47753,12.85384c-3.85347,-1.49863 -8.04438,3.01948 -9.85279,1.30253c-2.71481,-2.57756 -3.31311,-14.14238 -3.31311,-14.14238c0,0 1.50379,10.45742 -1.80758,9.67019c-5.85467,-1.39191 0.13408,7.24922 -3.38021,5.39277c-5.64206,-2.98044 2.98247,-6.16881 -1.83314,-8.31033c-4.87769,-2.16913 -5.22787,-1.13 -6.92518,-1.18638c-2.31632,-0.07696 3.66855,16.20696 3.66855,16.20696l-2.27067,10.69852c0,0 -6.20875,-12.34557 -11.11277,-22.32398c-3.10026,-6.30821 -5.00903,-12.00536 -6.62417,-11.9761c-4.32304,0.07831 -5.89488,25.83761 -5.89488,25.83761c0,0 -7.11926,11.80392 -9.58371,7.77934c-0.63211,-1.03226 -6.16439,-1.70953 -8.50943,-7.6782c-3.30888,-8.42192 -3.82137,-23.08552 -6.53091,-33.62775c-2.85703,-11.11608 -2.91314,-17.4531 -2.91314,-17.4531z" fill="url(#color-23)" stroke="#000000" stroke-linecap="round"/><path d="M256.89829,183.59708c-0.10708,-0.02955 -9.26869,-12.51666 -14.52987,-13.93705c-5.77874,-1.56012 -14.42678,1.3761 -21.2539,-1.32961c-9.71603,-3.85062 -17.4223,-9.68301 -17.4223,-9.68301c0,0 18.43888,1.01437 22.8794,1.11444c6.82148,0.15371 15.28168,-1.44634 14.47005,-3.03629c-4.12135,-8.07365 -16.89602,-7.18304 -21.79456,-7.95121c-11.94183,-1.87263 -20.96105,0.89569 -22.72075,0.39646c-0.95496,-0.30197 18.6919,-12.03679 36.47854,-10.81091c29.13103,2.00772 51.35523,34.44678 51.35523,34.44678" data-paper-data="{&quot;index&quot;:null}" fill="#bf2c04" stroke="#000000" stroke-linecap="round"/></g><g><path d="M285.33575,171.40832c-2.57109,-7.64635 -12.08997,-18.56194 -16.11313,-27.52535c-4.67798,-10.42238 76.6861,-26.64723 76.6861,-26.64723c0,0 1.01935,5.34078 7.70871,21.54851c5.15107,12.48056 6.77309,21.8046 3.20448,43.77291c-0.53623,3.30106 1.56597,34.43238 -13.4235,38.2223c-15.75601,3.98372 -40.21033,-16.81751 -45.76676,-26.22634c-4.15983,-7.04395 -9.91523,-16.06464 -12.29591,-23.1448z" fill="url(#color-24)" stroke="#000000" stroke-width="0" stroke-linecap="round"/><path d="M290.23222,167.86165c-2.13439,-6.34762 -11.56718,-17.45624 -14.90699,-24.89724c-3.88342,-8.65213 64.98537,-21.84481 64.98537,-21.84481c0,0 1.05255,6.20427 6.6057,19.65915c4.27616,10.36075 5.6227,18.10111 2.66019,36.33809c-0.44515,2.74036 1.29997,28.58404 -11.14353,31.73022c-13.07986,3.30709 -33.38063,-13.96104 -37.99329,-21.77178c-3.45328,-5.84754 -8.23111,-13.33608 -10.20745,-19.21366z" fill="url(#color-25)" stroke="#000000" stroke-width="0" stroke-linecap="round"/><g stroke="#000000" stroke-width="0" stroke-linecap="round"><path d="M301.76407,166.24319c-1.20148,-3.57319 -5.64972,-8.67412 -7.52979,-12.8628c-2.18604,-4.87044 35.83596,-12.45245 35.83596,-12.45245c0,0 0.47635,2.49579 3.60234,10.06978c2.40713,5.83226 3.16512,10.18944 1.49748,20.45541c-0.25058,1.54261 0.73178,16.0905 -6.2729,17.86156c-7.3629,1.86161 -18.79057,-7.85895 -21.38715,-12.25576c-1.94392,-3.29167 -4.63345,-7.50711 -5.74597,-10.81573z" fill="url(#color-26)"/><path d="M328.9758,146.99729c0,0 -0.56975,-2.51059 -1.02409,-3.90586c-0.54548,-1.67517 -2.02565,-5.4599 -2.02565,-5.4599c0,0 2.60374,3.42835 3.64701,4.90592c0.85141,1.20584 1.55522,3.34746 1.55522,3.34746c0,0 0.06191,1.50241 -0.41246,1.70041c-0.44043,0.18383 -1.74002,-0.58805 -1.74002,-0.58805z" data-paper-data="{&quot;index&quot;:null}" fill="#323232"/><path d="M301.1489,163.91718c0,0 -0.802,-1.78639 -1.15433,-3.21985c-0.43174,-1.7565 -1.31339,-5.97027 -1.31339,-5.97027c0,0 1.88739,3.599 2.79469,5.10916c0.75568,1.25783 1.84376,3.35105 1.84376,3.35105c0,0 -0.42833,1.04361 -0.75065,1.23203c-0.40465,0.23653 -1.42007,-0.50213 -1.42007,-0.50213z" data-paper-data="{&quot;index&quot;:null}" fill="#323232"/><path d="M298.5155,160.03068c0,0 -0.80199,-1.7864 -1.15432,-3.21984c-0.43174,-1.7565 -1.31342,-5.97025 -1.31342,-5.97025c0,0 1.88741,3.599 2.7947,5.10915c0.75568,1.25783 1.84375,3.35106 1.84375,3.35106c0,0 -0.42833,1.04361 -0.75065,1.23204c-0.40465,0.23653 -1.42006,-0.50214 -1.42006,-0.50214z" data-paper-data="{&quot;index&quot;:null}" fill="#323232"/><path d="M303.4423,168.91678c0,0 -0.802,-1.7864 -1.15434,-3.21987c-0.43174,-1.7565 -1.3134,-5.97024 -1.3134,-5.97024c0,0 1.88741,3.599 2.7947,5.10915c0.75568,1.25783 1.84375,3.35106 1.84375,3.35106c0,0 -0.42832,1.04361 -0.75065,1.23204c-0.40465,0.23653 -1.42007,-0.50214 -1.42007,-0.50214z" data-paper-data="{&quot;index&quot;:null}" fill="#323232"/><path d="M306.2878,174.6236c0,0 -0.88364,-1.91107 -1.23594,-3.34453c-0.43174,-1.7565 -1.31338,-5.97025 -1.31338,-5.97025c0,0 1.88739,3.59899 2.79467,5.10917c0.75568,1.25783 2.2779,3.33402 2.2779,3.33402c0,0 -0.69176,1.12587 -1.11945,1.33796c-0.46045,0.22836 -1.40379,-0.46635 -1.40379,-0.46635z" data-paper-data="{&quot;index&quot;:null}" fill="#323232"/><path d="M308.96423,178.30378c0,0 -0.55491,-1.68099 -0.90724,-3.11445c-0.43174,-1.7565 -1.3134,-5.97026 -1.3134,-5.97026c0,0 1.88741,3.599 2.7947,5.10916c0.75568,1.25783 2.27789,3.33401 2.27789,3.33401c0,0 -0.46422,1.14848 -0.90121,1.36518c-0.45299,0.22467 -1.95075,-0.72366 -1.95075,-0.72366z" data-paper-data="{&quot;index&quot;:null}" fill="#323232"/><path d="M312.91924,182.30465c0,0 -0.80423,-1.51776 -1.15657,-2.95123c-0.43174,-1.7565 -1.31339,-5.97025 -1.31339,-5.97025c0,0 1.88741,3.599 2.79469,5.10915c0.75568,1.25783 2.2779,3.33402 2.2779,3.33402c0,0 -0.25293,1.0338 -0.65254,1.23199c-0.47713,0.23664 -1.95004,-0.75369 -1.95004,-0.75369z" data-paper-data="{&quot;index&quot;:null}" fill="#323232"/><path d="M316.14643,184.37752c0,0 -0.62173,-1.10293 -0.97405,-2.53638c-0.43174,-1.7565 -1.3134,-5.97025 -1.3134,-5.97025c0,0 1.8874,3.59899 2.79469,5.10916c0.75568,1.25783 2.27789,3.33401 2.27789,3.33401c0,0 0.15957,0.84253 -0.25752,1.0494c-0.46766,0.23193 -2.5276,-0.98594 -2.5276,-0.98594z" data-paper-data="{&quot;index&quot;:null}" fill="#323232"/><path d="M320.34051,186.97511c0,0 -0.67958,-1.59937 -1.03188,-3.03283c-0.43174,-1.7565 -1.3134,-5.97026 -1.3134,-5.97026c0,0 1.88741,3.599 2.79469,5.10915c0.75568,1.25783 2.27789,3.33401 2.27789,3.33401c0,0 0.30257,0.84429 -0.10399,1.04592c-0.47371,0.23493 -2.62328,-0.48602 -2.62328,-0.48602z" data-paper-data="{&quot;index&quot;:null}" fill="#323232"/><path d="M324.33729,188.45513c0,0 -0.73516,-2.36446 -1.08751,-3.79793c-0.43174,-1.7565 -1.31341,-5.97025 -1.31341,-5.97025c0,0 1.88741,3.599 2.79469,5.10915c0.75568,1.25783 2.2779,3.33402 2.2779,3.33402c0,0 -0.23827,0.99685 -0.68023,1.21605c-0.44851,0.22244 -1.99144,0.10897 -1.99144,0.10897z" data-paper-data="{&quot;index&quot;:null}" fill="#323232"/><path d="M327.73441,186.72694c0,0 -0.56975,-2.5106 -1.02409,-3.90586c-0.54548,-1.67517 -2.02567,-5.45989 -2.02567,-5.45989c0,0 2.60375,3.42835 3.64701,4.90592c0.85141,1.20584 2.15482,3.31115 2.15482,3.31115c0,0 -0.5377,1.53875 -1.01208,1.73674c-0.44043,0.18383 -1.74002,-0.58805 -1.74002,-0.58805z" data-paper-data="{&quot;index&quot;:null}" fill="#323232"/><path d="M329.91042,183.52127c0,0 -0.56975,-2.5106 -1.02409,-3.90587c-0.54548,-1.67517 -2.02566,-5.45989 -2.02566,-5.45989c0,0 2.60375,3.42834 3.64702,4.90593c0.85141,1.20584 2.15481,3.31115 2.15481,3.31115c0,0 -0.5377,1.53876 -1.01209,1.73673c-0.44043,0.18383 -1.74,-0.58806 -1.74,-0.58806z" data-paper-data="{&quot;index&quot;:null}" fill="#323232"/><path d="M331.32585,179.83395c0,0 -0.56975,-2.51059 -1.02409,-3.90585c-0.54549,-1.67518 -2.02566,-5.4599 -2.02566,-5.4599c0,0 2.60376,3.42834 3.64702,4.90591c0.85141,1.20584 2.15482,3.31115 2.15482,3.31115c0,0 -0.5377,1.53876 -1.01208,1.73675c-0.44043,0.18383 -1.74002,-0.58805 -1.74002,-0.58805z" data-paper-data="{&quot;index&quot;:null}" fill="#323232"/><path d="M331.73354,175.55958c0,0 -0.56975,-2.5106 -1.02409,-3.90586c-0.54548,-1.67517 -2.02567,-5.45989 -2.02567,-5.45989c0,0 2.60375,3.42834 3.64702,4.90593c0.85141,1.20584 2.15482,3.31115 2.15482,3.31115c0,0 -0.53769,1.53875 -1.01209,1.73672c-0.44043,0.18383 -1.74001,-0.58805 -1.74001,-0.58805z" data-paper-data="{&quot;index&quot;:null}" fill="#323232"/><path d="M331.95424,171.40763c0,0 -0.56975,-2.5106 -1.02409,-3.90585c-0.54549,-1.67518 -2.02567,-5.45989 -2.02567,-5.45989c0,0 2.60375,3.42834 3.64702,4.90594c0.85141,1.20584 2.15481,3.31115 2.15481,3.31115c0,0 -0.5377,1.53876 -1.01209,1.73674c-0.44043,0.18383 -1.74001,-0.58805 -1.74001,-0.58805z" data-paper-data="{&quot;index&quot;:null}" fill="#323232"/><path d="M332.54673,167.27945c0,0 -0.56975,-2.51058 -1.0241,-3.90584c-0.54549,-1.67518 -2.02566,-5.45989 -2.02566,-5.45989c0,0 2.60375,3.42834 3.64702,4.90594c0.85141,1.20584 2.15482,3.31115 2.15482,3.31115c0,0 -0.5377,1.53876 -1.01209,1.73673c-0.44043,0.18383 -1.74002,-0.58805 -1.74002,-0.58805z" data-paper-data="{&quot;index&quot;:null}" fill="#323232"/><path d="M332.832,162.81807c0,0 -0.56975,-2.51058 -1.02408,-3.90585c-0.54549,-1.67518 -2.02566,-5.4599 -2.02566,-5.4599c0,0 2.60375,3.42835 3.64702,4.90594c0.85141,1.20584 1.78303,3.28735 1.78303,3.28735c0,0 -0.18967,1.93429 -0.66407,2.13231c-0.44043,0.18383 -1.71624,-0.95985 -1.71624,-0.95985z" data-paper-data="{&quot;index&quot;:null}" fill="#323232"/><path d="M332.29886,157.37854c0,0 -0.56973,-2.51058 -1.02409,-3.90585c-0.54549,-1.67518 -2.02566,-5.45989 -2.02566,-5.45989c0,0 2.60375,3.42834 3.64701,4.90591c0.85141,1.20584 1.72069,3.32818 1.72069,3.32818c0,0 0.44377,1.58116 -0.29003,1.88744c-0.73381,0.30628 -2.02793,-0.75581 -2.02793,-0.75581z" data-paper-data="{&quot;index&quot;:null}" fill="#323232"/><path d="M330.69112,151.93004c0,0 -0.56974,-2.51057 -1.02409,-3.90584c-0.54549,-1.67518 -2.02566,-5.45989 -2.02566,-5.45989c0,0 2.60374,3.42834 3.64702,4.90593c0.85141,1.20584 1.41351,2.99497 1.41351,2.99497c0,0 0.20363,1.85493 -0.27077,2.05294c-0.44043,0.18383 -1.74001,-0.58806 -1.74001,-0.58806z" data-paper-data="{&quot;index&quot;:null}" fill="#323232"/></g><path d="M343.56667,130.22365c0,0 -1.2192,-5.37244 -2.19147,-8.35821c-1.16729,-3.58473 -4.33472,-11.68375 -4.33472,-11.68375c0,0 5.5718,7.33637 7.80431,10.49828c1.82195,2.58039 3.32804,7.16331 3.32804,7.16331c0,0 0.13248,3.21506 -0.88265,3.63877c-0.94254,0.39337 -3.72351,-1.25841 -3.72351,-1.25841z" data-paper-data="{&quot;index&quot;:null}" fill="#323232" stroke="#000000" stroke-width="0" stroke-linecap="round"/><path d="M284.01933,166.43085c0,0 -1.71621,-3.82276 -2.47017,-6.89022c-0.92388,-3.75878 -2.81056,-12.77587 -2.81056,-12.77587c0,0 4.03886,7.70155 5.98042,10.93318c1.61712,2.69167 3.94552,7.17099 3.94552,7.17099c0,0 -0.9166,2.23324 -1.60635,2.63642c-0.86591,0.50616 -3.03884,-1.07451 -3.03884,-1.07451z" data-paper-data="{&quot;index&quot;:null}" fill="#323232" stroke="#000000" stroke-width="0" stroke-linecap="round"/><path d="M339.63137,127.6126c0,0 0.20569,5.29474 0.13741,8.45279c-0.08364,3.86973 -0.60261,13.06745 -0.60261,13.06745c0,0 -1.90093,-8.48603 -2.93692,-12.1109c-0.86287,-3.01919 -2.85513,-8.15538 -2.85513,-8.15538z" data-paper-data="{&quot;index&quot;:null}" fill="#323232" stroke="#000000" stroke-width="0" stroke-linecap="round"/><path d="M338.28628,120.66897c0,0 2.48891,4.56271 3.09829,7.66216c0.74673,3.79793 1.91517,10.98949 1.91517,10.98949c0,0 -3.24651,-6.06565 -5.03447,-9.38471c-1.4892,-2.76447 -4.53481,-7.35509 -4.53481,-7.35509z" data-paper-data="{&quot;index&quot;:null}" fill="#323232" stroke="#000000" stroke-width="0" stroke-linecap="round"/><path d="M334.65972,137.74411c0,0 0.19388,5.2952 0.11857,8.45307c-0.09227,3.86954 -0.63172,13.06607 -0.63172,13.06607c0,0 -1.88203,-8.49026 -2.90994,-12.11743c-0.85614,-3.02111 -2.83694,-8.16174 -2.83694,-8.16174z" data-paper-data="{&quot;index&quot;:null}" fill="#323232" stroke="#000000" stroke-width="0" stroke-linecap="round"/><path d="M320.0976,145.69531c0,0 0.37896,5.28514 0.41414,8.44375c0.04312,3.87039 -0.17434,13.08018 -0.17434,13.08018c0,0 -2.17784,-8.41922 -3.33197,-12.00823c-0.96128,-2.98932 -3.12067,-8.05751 -3.12067,-8.05751z" data-paper-data="{&quot;index&quot;:null}" fill="#323232" stroke="#000000" stroke-width="0" stroke-linecap="round"/><path d="M327.50742,142.7501c0,0 0.37896,5.28515 0.41415,8.44373c0.04312,3.87039 -0.17437,13.08017 -0.17437,13.08017c0,0 -2.17783,-8.41922 -3.33197,-12.00823c-0.96128,-2.98932 -3.12067,-8.05751 -3.12067,-8.05751z" data-paper-data="{&quot;index&quot;:null}" fill="#323232" stroke="#000000" stroke-width="0" stroke-linecap="round"/><path d="M303.32176,148.13063c0,0 0.98955,5.41947 1.83391,8.44388c1.01373,3.63114 3.83378,11.85755 3.83378,11.85755c0,0 -5.25468,-7.56677 -7.35066,-10.82077c-1.71052,-2.65554 -4.30554,-7.27533 -4.30554,-7.27533z" fill="#323232" stroke="#000000" stroke-width="0" stroke-linecap="round"/><path d="M278.91085,133.2331c0,0 0.31973,5.49974 0.78808,8.60471c0.5623,3.72782 2.35573,12.23725 2.35573,12.23725c0,0 -4.29039,-8.15228 -5.97295,-11.63809c-1.37311,-2.84472 -0.551,-8.07716 -0.551,-8.07716z" fill="#323232" stroke="#000000" stroke-width="0" stroke-linecap="round"/><path d="M296.47434,147.27738c0,0 1.07605,5.36284 1.9588,8.36212c1.05982,3.60097 3.96661,11.7706 3.96661,11.7706c0,0 -5.24451,-7.57343 -7.34166,-10.82668c-1.71145,-2.65494 -4.32101,-7.2652 -4.32101,-7.2652z" fill="#323232" stroke="#000000" stroke-width="0" stroke-linecap="round"/><path d="M290.0636,147.09112c0,0 1.07606,5.36284 1.9588,8.36213c1.05982,3.60097 3.96661,11.77061 3.96661,11.77061c0,0 -5.2445,-7.57343 -7.34165,-10.82669c-1.71145,-2.65494 -4.32101,-7.26521 -4.32101,-7.26521z" fill="#323232" stroke="#000000" stroke-width="0" stroke-linecap="round"/><path d="M237.36793,148.83511c-10.50774,-5.01364 -0.0916,-6.1026 9.86309,-11.5529c5.9177,-3.24 2.62251,-9.23167 2.79805,-11.48838c0.47086,-6.05292 1.36246,-12.57963 2.61118,-21.24262c0.14951,-1.03718 3.08617,-2.76607 3.32597,-6.49751c0.14956,-2.32712 -10.73673,-5.67675 -10.00401,-8.24224c1.09191,-3.82305 21.59108,-9.61056 23.18764,-14.43279c1.79787,-5.43027 1.77177,-4.4788 4.6149,-8.24077c7.37782,-9.76225 4.25931,-13.74977 12.68848,-14.35948c3.34327,-0.24185 15.3097,5.8593 24.495,7.24277c6.67302,1.00508 10.01839,3.72121 23.70433,15.5778c13.68594,11.85659 -15.80664,34.00478 3.91395,24.21109c8.34206,-4.14285 21.95337,4.03948 21.95337,4.03948c0,0 -11.40757,6.16425 -1.56467,3.64444c5.52487,-1.41438 23.25488,1.66979 1.1035,9.395c-5.62275,1.9609 -12.18876,3.72917 -19.7243,5.05749c-1.40945,0.24846 -18.06847,8.0513 -35.31148,13.22654c-16.12572,4.8399 -26.95749,5.21053 -28.69846,6.93473c-1.85422,1.83632 -9.80413,-1.78391 -12.25471,-1.47978c-1.59625,0.19809 -5.53474,-1.56401 -6.67973,-1.00866c-4.32707,2.09878 -3.32693,4.37778 -6.53884,6.27383c-4.33555,2.55934 -5.2249,1.77963 -5.2249,1.77963c0,0 -0.98618,4.74605 -8.25837,1.16235z" fill="url(#color-27)" stroke="#000000" stroke-width="0" stroke-linecap="round"/><path d="M294.54844,88.30374c3.2102,-0.95163 4.16183,2.25857 4.16183,2.25857l0.68827,2.3345c3.8644,11.11341 6.98971,22.59332 11.04091,33.58453c0.01815,0.04924 0.03636,0.09836 0.05464,0.14741c3.44445,-1.20709 6.78884,-2.49669 9.9712,-3.82951c6.28513,-2.63232 10.09706,-6.53364 17.17041,-8.05954l2.522,-0.30955c0,0 3.32578,-0.38752 3.7133,2.93827c0.38752,3.32578 -2.93827,3.71329 -2.93827,3.71329l-1.88492,0.20395c-6.69245,1.44373 -9.79969,4.98394 -15.8428,7.62402c-2.94441,1.28634 -6.04751,2.51935 -9.25412,3.67544c2.24304,3.28241 4.28337,5.7138 7.76671,8.21392c0,0 2.71734,1.9563 0.76105,4.67364c-1.9563,2.71733 -4.67364,0.76103 -4.67364,0.76103c-0.09703,-0.07003 -0.1932,-0.14014 -0.28859,-0.21027c-0.91042,0.58574 -1.99983,0.67465 -2.94735,0.3337l-2.54444,-0.88709c-0.44852,0.56439 -0.77364,1.3029 -1.14224,1.96036c-0.16883,0.58829 -0.32645,1.10513 -0.45697,1.52467l-1.32716,0.29629l0.33121,0.5773l-3.64336,2.09034c-1.52913,0.89319 -3.50676,0.43974 -4.48775,-1.05873c-0.93405,-1.42676 -0.63838,-3.30267 0.62665,-4.38031l2.59646,-2.28436l0.10756,0.12225c0.17724,-0.2731 0.35998,-0.53519 0.55136,-0.78896c-0.01642,-2.43881 -0.73557,-5.33372 -0.9068,-7.78769c-10.08787,2.95304 -20.62261,5.00252 -30.10756,5.50839c0,0 -3.34384,0.17258 -3.51641,-3.17123c-0.17259,-3.34384 3.17124,-3.51641 3.17124,-3.51641c9.66246,-0.48388 20.2464,-2.73252 30.32446,-5.84127c-1.27769,-3.55558 -1.85956,-7.35564 -2.99191,-10.95239c-2.40293,-7.63243 -5.45009,-15.10993 -8.07991,-22.67193l-0.78364,-2.63075c0,0 -0.95163,-3.21021 2.25857,-4.16184z" fill="#4c4c4c" stroke="none" stroke-width="0.5" stroke-linecap="butt"/><path d="M283.03391,141.59299c0,0 1.07606,5.36284 1.9588,8.36212c1.05984,3.60096 3.96661,11.7706 3.96661,11.7706c0,0 -5.2445,-7.57343 -7.34165,-10.82668c-1.71148,-2.65494 -4.32102,-7.26522 -4.32102,-7.26522z" fill="#323232" stroke="#000000" stroke-width="0" stroke-linecap="round"/><path d="M310.93309,147.53089c0,0 0.98955,5.41948 1.83391,8.44388c1.01373,3.63114 3.83379,11.85755 3.83379,11.85755c0,0 -5.25468,-7.56676 -7.35067,-10.82078c-1.71052,-2.65554 -4.30554,-7.27533 -4.30554,-7.27533z" fill="#323232" stroke="#000000" stroke-width="0" stroke-linecap="round"/><path d="M280.53151,123.2252c3.89222,-5.70816 8.32026,-10.34616 13.34412,-13.46281c-1.07773,-3.27553 -1.72778,-6.59076 -1.80858,-8.72982c-0.12858,-3.40501 3.75601,-6.21752 6.94488,-4.35977c0.94459,0.11572 1.83381,0.63124 2.39587,1.48979c0.20531,0.3136 0.3512,0.6489 0.44045,0.99267c0.04466,0.17198 0.0751,0.3461 0.09176,0.52065c0.18393,0.75477 0.94673,3.22003 1.69168,6.20595c6.33629,-1.22768 13.43617,-0.28853 21.37932,3.41654c1.44096,0.67212 7.44724,5.49855 10.43877,9.68349c1.33396,-0.25245 2.33297,0.4579 3.49657,2.23532c1.00185,1.53035 -0.14741,8.38643 -0.4052,10.08715c-2.60783,17.20529 -26.18991,21.63723 -41.22239,20.96216c-2.99081,-0.13432 -13.10202,1.25559 -15.37763,-1.83197c-0.57171,-0.25213 -1.0795,-0.66698 -1.44725,-1.22871c-0.01858,-0.02839 -0.03668,-0.05698 -0.05431,-0.08573c-0.01929,-0.02765 -0.03826,-0.05567 -0.05685,-0.08407c-0.35094,-0.53607 -0.52828,-1.13552 -0.54584,-1.73223c-4.55191,-4.41336 -8.44967,-12.87375 -5.36568,-14.89271c0.1277,-0.0836 0.25707,-0.15242 0.3879,-0.20718c1.21098,-3.28499 3.9178,-6.40554 5.67236,-8.97873zM322.75488,115.77151c-3.63401,-2.36527 -11.26661,-3.91464 -17.82069,-3.48398c0.18966,1.3325 0.30368,2.61401 0.29674,3.75413c6.06637,-0.65966 12.48291,0.51381 18.2312,3.48742c0.94308,0.48787 3.46645,1.77211 6.04071,3.42869c-2.54618,-2.43226 -4.99197,-6.04331 -6.74796,-7.18626zM283.03351,130.98449c-0.27706,0.74079 -1.22307,3.24326 -2.31806,5.103c0.29406,0.41062 0.58348,0.83781 0.8665,1.27425c0.71057,-2.70954 1.86713,-5.38741 2.77622,-7.19797c3.02062,-6.01595 7.87931,-10.11577 13.52835,-12.33349c-0.66985,-0.82082 -1.29646,-1.81309 -1.87188,-2.90879c-4.724,3.29696 -11.01726,10.81234 -12.98112,16.063zM324.79331,127.77693c-6.00838,-4.09694 -15.35798,-6.05941 -22.53152,-4.70251c-14.81293,2.80191 -9.33742,15.07055 -15.02855,21.72197c1.24871,0.45218 2.49045,0.9441 3.74067,1.0508c9.45899,0.80717 22.28482,-0.25493 30.84066,-4.16752c1.68937,-0.77256 9.03415,-4.93203 9.45676,-6.87199c0.09963,-0.45736 0.15116,-1.16285 0.18126,-2.02354c-2.34828,-1.29076 -5.06849,-3.9225 -6.65925,-5.00721z" fill="url(#color-28)" stroke="none" stroke-width="0.5" stroke-linecap="butt"/><path d="M342.05673,57.50135l-9.63315,8.50968l-5.26765,-4.09075l8.3058,-8.57182z" data-paper-data="{&quot;index&quot;:null}" fill="#3c3c3c" stroke="#000000" stroke-width="0" stroke-linecap="round"/><path d="M275.79534,47.84332c0,0 -1.15844,-3.14277 -3.32747,-6.50114c-2.68167,-4.15208 -6.39273,-8.76965 -5.21854,-9.80757c1.80138,-1.59232 6.82157,2.15264 10.45286,6.07054c3.17573,3.42639 5.12263,7.00449 5.12263,7.00449c0,0 -2.43275,-4.428 -1.75393,-10.31938c1.05439,-9.15055 5.61381,-21.3652 7.5562,-22.40125c3.67745,-1.96155 3.69195,32.86263 3.69195,32.86263" fill="url(#color-29)" stroke="#000000" stroke-width="0" stroke-linecap="round"/><path d="M228.13159,151.028c-10.50774,-5.01364 1.2326,-8.15525 11.18729,-13.60555c5.9177,-3.24 10.87801,-9.30025 11.05355,-11.55695c0.47086,-6.05292 -5.17627,-12.15273 -3.92754,-20.81572c0.14951,-1.03718 -1.87162,-2.18839 -1.63179,-5.91985c0.14956,-2.32712 -3.08881,-7.12621 -2.35609,-9.6917c1.09191,-3.82305 6.42361,-5.60986 8.02017,-10.4321c1.79788,-5.43027 3.01244,-12.99852 5.85554,-16.76052c7.37782,-9.76225 19.01923,-18.37296 27.44841,-18.98271c3.34327,-0.24185 14.1961,-0.82271 23.3814,0.56074c6.67302,1.00508 18.54999,11.77227 32.23591,23.62884c13.68594,11.85659 5.77555,36.18013 25.49615,26.38643c8.34206,-4.14285 -4.03138,10.08226 -4.03138,10.08226c0,0 13.83376,-1.46692 23.67667,-3.98674c5.52487,-1.41438 -1.98645,9.30096 -24.13783,17.02617c-5.62275,1.9609 -12.18876,3.72917 -19.72429,5.05749c-2.7276,0.48082 -8.15678,-8.75101 -15.35153,-13.60903c-5.40191,-3.64745 -12.16258,-2.47502 -17.51453,-5.88106c-5.10395,-3.24822 -8.14373,-4.93699 -12.09222,-5.73434c-3.26889,-0.66012 -2.8036,10.95668 -4.86903,11.66449c-3.58756,1.22946 -11.39689,14.42375 -14.88232,22.23765c-1.71967,3.85528 -1.71001,6.19396 -1.82654,7.05247c-0.11388,0.83895 2.68419,2.98877 1.41657,4.83918c-0.48557,0.70883 -3.82371,0.41151 -4.82151,1.39968c-1.85422,1.83632 -4.04623,0.6719 -6.49681,0.97604c-1.59625,0.19809 -3.56869,1.89197 -4.71366,2.44734c-4.32707,2.09878 -5.11978,-3.34181 -8.33168,-1.44577c-4.33555,2.55934 -2.77964,5.51479 -2.77964,5.51479c0,0 -13.01112,3.13214 -20.28331,-0.45158z" fill="url(#color-30)" stroke="#000000" stroke-width="0" stroke-linecap="round"/><path d="M278.38409,158.11406c0,0 -1.71621,-3.82276 -2.47017,-6.89022c-0.92388,-3.75877 -2.81059,-12.77585 -2.81059,-12.77585c0,0 4.03887,7.70155 5.98042,10.93318c1.61712,2.69167 3.94552,7.171 3.94552,7.171c0,0 -0.91659,2.23324 -1.60635,2.63641c-0.86591,0.50616 -3.03885,-1.07453 -3.03885,-1.07453z" data-paper-data="{&quot;index&quot;:null}" fill="#323232" stroke="#000000" stroke-width="0" stroke-linecap="round"/><path d="M242.08841,78.58438l10.91336,3.90765l-1.36813,8.44707l-12.47942,-4.06433z" fill="#3c3c3c" stroke="#000000" stroke-width="0" stroke-linecap="round"/><path d="M245.03415,98.60924c0,0 -2.39717,-0.28542 12.10614,-3.35789c1.03526,-0.21934 2.06561,6.81549 2.06561,6.81549c-18.36104,5.50072 -12.58933,5.17338 -12.58933,5.17338c0,0 -1.78665,-4.5591 -2.07317,-6.12172c-0.15496,-0.8452 0.49072,-2.50924 0.49072,-2.50924z" fill="#000000" stroke="none" stroke-width="0.5" stroke-linecap="butt"/><path d="M285.74535,88.98679l19.81821,-3.85445l1.85447,5.18306l-19.98624,5.41534z" fill="url(#color-31)" stroke="#000000" stroke-width="0" stroke-linecap="round"/><path d="M298.02753,116.646l10.5555,-2.28035c0,0 7.25333,10.16894 4.25162,11.9649c-0.88366,0.52872 -3.10096,4.43297 -6.04526,5.10194c-2.71071,0.6159 -6.13645,-2.00017 -7.49457,-1.56432c-2.83326,0.9092 -1.26727,-13.22218 -1.26727,-13.22218z" fill="url(#color-32)" stroke="#000000" stroke-width="0" stroke-linecap="round"/><path d="M329.63387,103.06134c-4.48822,1.70626 -13.76342,-0.50301 -20.24248,-5.94659c-4.23588,-3.55892 -6.66557,-8.90025 -7.9009,-14.04593c-1.35845,-5.6586 9.43146,-14.28474 16.85401,-17.10653c5.01754,-1.90748 15.32254,10.43433 17.22782,18.22823c0.91326,3.73579 -6.4708,2.08159 -5.30521,5.49218c3.59733,10.526 6.7893,10.55688 -0.63326,13.37866z" fill="url(#color-33)" stroke="#000000" stroke-width="0" stroke-linecap="butt"/><path d="M267.8454,117.36943c-4.22116,-3.60556 -13.58958,-21.97943 -8.86819,-26.93273c8.23138,-9.36656 21.0651,-8.2019 25.70798,-4.69344c4.22201,3.19043 2.81911,2.25086 4.60996,10.62186c0.87649,4.09703 -1.16529,4.82646 -2.76036,7.19488c-1.66395,2.47066 -2.94964,6.56016 -5.25813,9.97667c-2.74557,4.0633 -9.21009,7.43833 -13.43124,3.83277z" data-paper-data="{&quot;index&quot;:null}" fill="url(#color-34)" stroke="#000000" stroke-width="0" stroke-linecap="butt"/><path d="M309.3259,76.1365l-2.48303,-12.68456l4.59736,8.87496z" fill="#ffad09" stroke="#000000" stroke-width="0" stroke-linecap="round"/><path d="M362.06991,52.55855c-0.87573,2.05324 -2.92897,1.17751 -2.92897,1.17751l-1.13458,-0.55303c-7.68057,-5.748 -14.8777,-13.59241 -23.31576,-18.08389c0,0 -1.96765,-1.05409 -0.91356,-3.02172c1.0541,-1.96763 3.02173,-0.91354 3.02173,-0.91354c8.65293,4.66147 15.99122,12.54126 23.88224,18.44466l0.21141,0.02107c0,0 2.05323,0.87572 1.1775,2.92896z" fill="#404040" stroke="none" stroke-width="0.5" stroke-linecap="butt"/><path d="M370.17296,46.0411c-0.87574,2.05324 -2.92895,1.1775 -2.92895,1.1775l-1.13459,-0.55304c-7.68056,-5.74798 -14.8777,-13.59242 -23.31576,-18.08389c0,0 -1.96765,-1.05409 -0.91356,-3.02172c1.0541,-1.96763 3.02173,-0.91355 3.02173,-0.91355c8.65292,4.66147 15.99122,12.54127 23.88224,18.44467l0.2114,0.02105c0,0 2.05323,0.87573 1.1775,2.92897z" fill="#404040" stroke="none" stroke-width="0.5" stroke-linecap="butt"/><path d="M374.52501,37.12839c-0.87573,2.05324 -2.92896,1.17751 -2.92896,1.17751l-1.13459,-0.55304c-7.68057,-5.748 -14.8777,-13.59243 -23.31576,-18.08391c0,0 -1.96766,-1.05408 -0.91357,-3.02172c1.0541,-1.96763 3.02173,-0.91356 3.02173,-0.91356c8.65293,4.66147 15.99121,12.54127 23.88223,18.44466l0.21141,0.02107c0,0 2.05323,0.87572 1.17751,2.92895z" fill="#404040" stroke="none" stroke-width="0.5" stroke-linecap="butt"/><path d="M377.95744,27.222c-0.89363,1.76803 -2.66398,1.15247 -2.66398,1.15247l-0.97435,-0.39794c-6.48127,-4.3711 -12.41419,-10.52395 -19.63879,-13.80038c0,0 -1.68429,-0.76967 -0.63741,-2.47625c1.04688,-1.70658 2.73116,-0.93694 2.73116,-0.93694c7.40533,3.40641 13.46143,9.58082 20.1204,14.0699l0.18623,0.00556c0,0 1.77035,0.61552 0.87672,2.38355z" fill="#404040" stroke="none" stroke-width="0.5" stroke-linecap="butt"/><path d="M325.94748,47.06425c-0.02153,-0.03289 -0.04257,-0.06596 -0.06312,-0.09919l-0.09684,-0.09436l0.00058,-0.06885c-0.41343,-0.73587 -0.59634,-1.54604 -0.56735,-2.34156l-0.12354,-0.22455l-0.16365,-0.62047l-0.0029,-0.22427l-0.00761,-0.02184l0.00713,-0.01396l-0.00077,-0.06123l-0.1135,-0.30063l-0.17634,-1.51349l-0.03246,-0.03823l0.01314,-0.12754l-0.0144,-0.12355l0.13191,-1.01728l0.10514,-1.02039l0.04237,-0.11696l0.0165,-0.12717l0.04037,-0.02974l0.13833,-0.38178l0.05247,-0.25127l0.31264,-0.64599l0.20006,-0.68919l0.2542,-0.43632l0.10044,-0.27719l0.16972,-0.81314l0.19369,-0.40024l0.07004,-0.43912l0.26281,-0.61622l-0.01649,-0.02852l0.12636,-0.43525l0.05828,-0.44944l0.07363,-0.05427l0.10228,-0.78853l0.17931,-0.13215l0.10161,-0.35004l0.03314,-0.05692l0.09024,-0.69573l0.14191,-0.10458l-0.01065,-0.17598l0.50296,-0.54407l0.02434,-0.05705l0.10842,-0.14321l-0.00915,-0.15099l0.65501,-0.70851l0.06263,-0.10749l0.10663,-0.10945l0.46547,-0.61466l0.15024,-0.01752l0.68991,-0.74626l0.10408,-0.06814l0.08948,-0.09185l0.05016,0.00044l1.62388,-1.06308l0.49023,-0.1705l0.43026,-0.29029l3.33087,-1.2104l0.03172,-0.0033l0.02669,-0.01747l0.58968,-0.20503l0.20856,-0.1617l1.92147,-0.84541l0.49214,-0.32219l0.20395,-0.15712l0.49599,-2.37638l0.19369,-0.40024l0.07004,-0.43912l0.11363,-0.26638l0.08558,-0.41004l0.19371,-0.40025l0.07004,-0.43912l0.0791,-0.18548l0.12347,-0.95188l0.05509,-0.04059l0.09047,-0.21216l0.02697,-0.12912l0.31264,-0.64598l0.20006,-0.6892l1.00215,-1.72022l0.17801,-0.41735l0.10845,-0.14319l-0.00916,-0.15099l0.68265,-0.73843l0.60708,-0.80169l0.08377,-0.00974l0.43901,-0.3382l0.48715,-0.52698l0.60519,-0.3962l0.01967,-0.04612l0.11996,-0.0453l0.10406,-0.06813l0.92769,-0.32259l0.0052,-0.00438l1.46938,-0.7194l0.0394,-0.0084l0.03123,-0.02541l1.29962,-0.60826l0.23003,-0.04492l0.19608,-0.12837l0.79027,-0.27481l0.33957,-0.2223l0.27116,-0.09431l0.2193,-0.14357l0.51911,-0.18053l0.45981,-0.30103l0.72221,-0.25115l0.29719,-0.20592l1.75032,-0.66077l0.2328,-0.02712l0.20536,-0.11296l0.35174,-0.09277l0.70217,-0.28228l0.40911,-0.05652l0.37295,-0.17744l0.77418,-0.15623l0.5041,-0.1753l0.17433,-0.01568l0.15339,-0.08435l3.72294,-0.98198l0.32129,-0.00414l0.30061,-0.11349l2.0208,-0.23546l1.46306,-0.32851l0.44991,0.01085l0.43421,-0.11832l1.38291,-0.02912l0.0298,-0.00787l2.94329,-0.88983l0.4563,-0.15869l0.62882,-0.34587l0.62049,-0.16366l0.22429,-0.0029l0.02182,-0.00758l0.01396,0.00714l0.06121,-0.0008l0.30063,-0.11349l0.4507,-0.05252l0.27975,0.03629l0.27425,-0.06612l0.73163,0.00612l0.64754,0.16766l0.22724,-0.07364l0.21132,0.18717l1.14135,0.29552l0.79616,1.42068l0.37065,0.32833l0.0729,0.03109l0.019,0.05031l0.75651,0.67012l0.04624,1.17809l0.13801,0.24627l-0.12023,0.20641l0.0019,0.04831l0.07628,0.65454l-0.0522,0.40243l0.07311,0.39916l-0.06474,1.01258l-0.09767,0.30611l0.01259,0.32109l-0.16971,0.81312l-0.10134,1.58484l-0.00275,0.32977l0.12539,1.07606l-0.09231,0.71169l0.02814,0.71708l-0.27931,1.33825l0.03809,0.10086l0.05253,0.45071l-0.05221,0.4024l0.0731,0.39914l-0.12158,1.90148l-0.01232,1.47314l0.01119,0.04239l0.00415,0.32131l0.11348,0.30062l0.05252,0.45072l-0.0363,0.27975l0.06613,0.27426l-0.00112,0.1338l0.0112,0.0424l0.00247,0.19051l0.01328,0.01179l0.00657,0.16714l0.09531,0.25248l0.05251,0.45071l-0.0722,0.55675l0.00097,0.00369l0.01325,1.0257l0.0159,0.40492l0.02374,0.20384l-0.01208,0.09325l0.01269,0.32297l-0.02542,0.12178l0.0002,0.01489l0.04553,0.24867l-0.06473,1.01257l-0.09769,0.30612l0.01261,0.32108l-0.58013,2.77964l-0.03659,0.57228l-0.00511,0.60771l-0.11145,0.43048l0.01743,0.4443l-0.37874,1.81469l-0.00243,0.2896l-0.11144,0.43047l0.01743,0.44431l-0.29315,1.40464l-0.13997,0.28921l-0.03295,0.31964l-0.06435,0.1776l0.01425,0.02462l-0.22169,0.7636l0.04577,0.07918l-0.24669,0.84987l-0.11382,0.87761l-0.10971,0.08085l-0.06283,0.30102l-0.19371,0.40026l-0.07003,0.43912l-0.06455,0.15138l0.0022,0.00551l-0.0528,0.11685l-0.02542,0.12174l-0.44686,0.92337l-0.42242,0.93477l-0.07719,0.09755l-0.05586,0.11544l-0.04772,0.01547l-0.02056,0.02597l-0.0687,0.11792l-0.22427,0.23014l-0.13229,0.29282l-0.17674,0.22336l-0.1447,0.29902l-0.0775,0.17146l0.02235,0.07085l-0.31037,0.56648l-0.05694,0.12599l-0.03929,0.04966l-0.12618,0.23031l-0.48302,0.99808l-0.07754,0.02515l-0.0122,0.02223l-0.09505,0.10281l-0.36741,0.81308l-0.07716,0.09756l-0.05587,0.11541l-0.03657,0.01185l-0.13849,0.32471l-0.1703,0.2249l-0.07865,0.27094l-0.2284,0.39207l-0.22425,0.23014l-0.13232,0.29284l-0.15994,0.20211l-0.43521,1.02041l-0.10842,0.1432l0.00914,0.151l-0.68266,0.73842l-0.60708,0.80172l-0.15024,0.01751l-0.12194,0.13188l-5.21557,3.41442l-0.29821,0.22972l-0.48717,0.52696l-2.66888,1.74721l-0.42741,0.32925l-0.13393,0.31401l-0.53666,0.20259l-0.45444,0.35008l-0.22286,-0.03374l-0.91486,0.59893l-0.01969,0.04613l-0.11995,0.04528l-0.10406,0.06813l-0.96889,0.33692l-0.67736,0.25572l-0.27386,0.17929l-0.67783,0.23573l-0.62883,0.34587l-0.4547,0.11993l-0.10923,0.03798l-0.21931,0.14357l-0.02394,0.00834l-0.03764,0.07232l-1.06432,0.31089l-1.04731,0.3642l-0.07258,-0.03706l-0.02434,0.00711l-0.69266,0.02719l-0.76713,0.20235l-0.59623,0.00769l-0.5797,0.13979l-0.4537,-0.00379l-0.17463,0.02035l-0.36147,-0.04688l-0.19284,0.11146l-0.84988,-0.24671l-0.16707,-0.02169l-0.04753,-0.00039l-0.05924,0.03425l-0.29703,-0.08622l-0.30674,-0.03978l-0.04619,-0.06265l-0.45916,-0.1333l-1.11803,-0.28945l-0.03346,-0.05972l-0.49304,-0.28723l-0.01074,-0.00458l-0.12915,-0.02696l-0.23523,-0.11386l-0.01398,0.00807l-0.48813,-0.14169l-0.10201,-0.01629l-0.09794,-0.04177l-0.16177,-0.04697l-0.8776,-0.11382l-0.12308,-0.16696l-0.02491,-0.00257l-0.19906,-0.07214l-0.13519,-0.03924l-0.04425,-0.02579l-1.52939,-0.55421l-0.33657,-0.22664l-0.38972,-0.11313l-0.78414,-0.45684l-0.23013,-0.22425l-0.29283,-0.13231l-1.00646,-0.79639l-0.10682,-0.13868l-0.15353,-0.08413l-0.39188,-0.36228l-0.64704,-0.45286l-0.08804,-0.10135l-0.12234,-0.05528l-0.03437,-0.02719l-0.12308,-0.05251l-0.22492,-0.17029l-0.27093,-0.07865l-0.53246,-0.3102l-0.05006,0.00305l-0.09415,-0.08705l-0.10749,-0.06264l-0.73463,-0.71592l-0.75323,-0.69633l-0.06814,-0.10408l-0.09182,-0.08949l0.00041,-0.05014l-0.23665,-0.36149l-0.04612,-0.01967l-0.0453,-0.11997l-0.06814,-0.10408l-0.27482,-0.79028l-0.2223,-0.33957l-0.23572,-0.67783l-0.1814,-0.32984l-0.61588,-0.94077l-0.41555,-0.42256l-0.13192,-0.22407l-0.18076,-0.14305l-0.32293,-0.4192l-0.80293,-0.63536l-0.7878,-0.55136l-0.08803,-0.10136l-0.12234,-0.05528l-0.25443,-0.2013l-0.11792,-0.06871l-0.23013,-0.22425l-0.29283,-0.13232l-0.75764,-0.59951l-0.04032,-0.02349c-0.61306,-0.34014 -1.15479,-0.83013 -1.56547,-1.45747zM334.24345,42.37126l0.40033,0.31678l0.7878,0.55138l0.08804,0.10135l0.12234,0.05528l1.00645,0.79637l0.32293,0.41919l0.40258,0.31858l0.43797,0.5685l0.0675,0.06239l0.12968,0.07929l0.7255,0.73774l0.22558,0.3832l0.32652,0.30183l1.11149,1.69781l0.23573,0.67782l0.1814,0.32984l0.03158,0.04824l0.04612,0.01968l0.0453,0.11996l0.06812,0.10406l0.15125,0.43491l0.40586,0.30733l0.54339,0.24555l0.40035,0.31679l0.7878,0.55138l0.20138,0.23183l0.26936,0.14756l0.48847,0.45158l0.62318,0.49311l0.16218,0.09446l1.52939,0.55421l0.17253,0.11617l0.91437,0.11861l0.0406,0.05508l0.21216,0.09047l0.12912,0.02697l0.40025,0.19369l0.43912,0.07005l0.673,0.28704l0.22491,0.17031l0.27093,0.07865l0.07844,0.04568l0.00633,0.00186l0.06385,-0.01539l0.13378,0.00111l0.66289,-0.17483l0.49163,-0.00636l0.47193,-0.13786l0.20562,-0.00807l0.36459,-0.23868l0.79026,-0.2748l0.09461,-0.0085l0.00205,-0.00478l0.11995,-0.04528l0.10408,-0.06814l0.96888,-0.33692l0.67736,-0.25571l1.04883,-0.68663l0.01967,-0.04612l0.11995,-0.04529l0.10408,-0.06814l0.49391,-0.17175l0.355,-0.38399l2.66886,-1.7472l0.29822,-0.22972l0.48716,-0.52695l4.47182,-2.92752l0.04379,-0.10269l0.1703,-0.22487l0.07865,-0.27094l0.22842,-0.39207l0.22425,-0.23013l0.13229,-0.29282l0.15996,-0.20213l0.14815,-0.34742l0.17031,-0.22491l0.07866,-0.27092l0.22841,-0.39209l0.18769,-0.19259l0.11196,-0.20438l0.05694,-0.12599l0.0393,-0.04965l0.12618,-0.23031l0.48303,-0.99807l0.07754,-0.02513l0.01219,-0.02226l0.09503,-0.1028l0.36743,-0.81308l0.00237,-0.00298l0.1565,-0.53914l0.22843,-0.39205l0.18834,-0.19328l0.07288,-0.15056l0.0169,-0.00548l0.07845,-0.17364l0.20132,-0.25443l0.06871,-0.11791l0.21006,-0.21559l0.05642,-0.35369l0.1136,-0.26638l0.0856,-0.41005l0.1408,-0.29096l0.15305,-0.52721l0.02166,-0.16705l0.00089,-0.10647l0.02589,-0.1l0.06536,-0.50403l0.08049,-0.05932l0.0177,-0.06838l0.07747,-0.75189l0.23758,-0.65564l0.13801,-0.66132l0.00243,-0.2896l0.11145,-0.43048l-0.01745,-0.44432l0.37872,-1.81468l0.00243,-0.28961l0.03179,-0.12281l-0.02283,-0.12478l0.06473,-1.01256l0.09769,-0.30612l-0.01261,-0.32108l0.58013,-2.77963l0.01882,-0.29423l-0.00595,-0.05086l0.01812,-0.13957l0.01351,-0.21129l0.02341,-0.07337l0.01719,-0.13249l-0.00097,-0.00368l-0.01325,-1.0257l-0.01301,-0.33194l-0.07264,-0.2754l-0.00772,-0.59623l-0.13978,-0.57968l0.00317,-0.37767l-0.06572,-0.24922l-0.0077,-0.59625l-0.1398,-0.57968l0.01835,-2.19492l0.03179,-0.12281l-0.02285,-0.12477l0.09095,-1.42234l-0.00234,-0.00207l-0.00504,-0.12813l-0.03173,-0.12027l-0.01325,-1.02571l-0.04022,-1.02502l0.02539,-0.12176l-0.00165,-0.1282l0.03575,-0.03517l0.26153,-1.25309l-0.0737,-0.63254l0.03629,-0.27978l-0.06613,-0.27426l0.00284,-0.34086l-0.32755,0.0864l-0.53168,0.00685l-0.51302,0.13978l-1.46653,0.03087l-1.255,0.28179l-0.23834,-0.00575l-0.22305,0.0842l-1.93839,0.22586l-3.25036,0.85732l-0.62833,0.2185l-0.30587,0.02748l-0.27733,0.13195l-0.66942,0.1351l-0.57973,0.23306l-0.27945,0.03861l-0.2472,0.13595l-0.39779,0.10493l-1.53487,0.57943l-0.05994,0.00698l-0.39004,0.25535l-0.27118,0.09431l-0.2193,0.14357l-0.51909,0.18052l-0.45982,0.30102l-0.79026,0.2748l-0.33956,0.2223l-0.57273,0.19917l-1.05555,0.49403l-1.4342,0.70219l-0.38273,0.0817l-0.04726,0.16273l-0.94622,1.62421l-0.06415,0.4022l-0.07912,0.18549l-0.12346,0.95186l-0.05508,0.04062l-0.09047,0.21216l-0.0856,0.41006l-0.19371,0.40026l-0.07002,0.4391l-0.11361,0.26639l-0.49598,2.37655l-0.19371,0.40025l-0.07004,0.43912l-0.11361,0.26639l-0.02695,0.12913l-0.38367,0.79277l0.02065,0.34074l-0.38939,0.42122l-0.24989,0.51636l-0.32475,0.10523l-0.5979,0.64672l-0.46173,0.30228l-0.29819,0.22974l-0.48719,0.52698l-1.18845,0.77803l-0.35244,0.12256l-0.29489,0.22861l-1.92147,0.84541l-0.03044,0.01993l-0.07081,0.02461l-0.23695,0.10428l-0.12378,0.02118l-0.08756,0.03046l-0.45981,0.30102l-0.76101,0.26462l-2.81471,1.02285l-0.7307,0.47836l0.00353,0.05832l-0.122,0.13197l-0.03379,0.26049l-0.17928,0.13216l-0.05563,0.19162l0.01526,0.0264l-0.12635,0.43524l-0.05828,0.44946l-0.07362,0.05426l-0.10228,0.78852l-0.17931,0.13214l-0.10161,0.35005l-0.0885,0.15193l-0.00459,0.01072l-0.14421,0.69097l-0.13999,0.28923l-0.03294,0.31965l-0.34566,0.95393l-0.22667,0.33659l-0.11313,0.3897l-0.20707,0.35546l-0.01893,0.18373l0.02371,0.20351l0.04124,0.06299l0.04614,0.01966l0.04527,0.11998l0.06814,0.10408l0.2094,0.60221z" fill="url(#color-35)" stroke="none" stroke-width="0.5" stroke-linecap="butt"/><path d="M198.8141,54.78285c2.62331,0.95061 1.6727,3.57392 1.6727,3.57392l-0.30789,0.84233c-1.6356,5.17962 -2.77419,10.51876 -4.89371,15.52467c0,0 -1.09467,2.56655 -3.6612,1.47189c-2.56654,-1.09465 -1.47188,-3.6612 -1.47188,-3.6612c2.07053,-4.81386 3.13149,-10.01662 4.7046,-15.01336l0.38348,-1.06553c0,0 0.9506,-2.62332 3.57391,-1.67271z" fill="#404040" stroke="none" stroke-width="0.5" stroke-linecap="butt"/><path d="M208.91178,52.43289c2.88128,0.86113 1.82375,5.19679 1.82375,5.19679l-0.3425,1.39279c-1.82262,8.50282 -3.09923,17.13663 -5.45337,25.48323c0,0 -1.21573,4.28124 -4.03394,3.18094c-2.8182,-1.10028 -1.60244,-5.38153 -1.60244,-5.38153c2.29935,-8.03411 3.48997,-16.43576 5.24301,-24.63726l0.42666,-1.76042c0,0 1.05754,-4.33568 3.93882,-3.47455z" fill="#404040" stroke="none" stroke-width="0.5" stroke-linecap="butt"/><path d="M219.89632,55.92964c2.83764,0.9955 1.57766,5.27671 1.57766,5.27671l-0.40752,1.37518c-2.21994,8.40782 -3.90066,16.97215 -6.64422,25.19896c0,0 -1.41548,4.2194 -4.17888,2.98795c-2.76342,-1.23144 -1.34793,-5.45085 -1.34793,-5.45085c2.67416,-7.91725 4.25807,-16.25373 6.39437,-24.36383l0.50886,-1.73844c0,0 1.26002,-4.2812 4.09769,-3.28571z" fill="#404040" stroke="none" stroke-width="0.5" stroke-linecap="butt"/><path d="M229.8277,59.6148c2.83764,0.9955 1.57765,5.27671 1.57765,5.27671l-0.40754,1.37518c-2.21994,8.40783 -3.90066,16.97217 -6.64422,25.19898c0,0 -1.41546,4.21941 -4.17889,2.98798c-2.76342,-1.23144 -1.34793,-5.45085 -1.34793,-5.45085c2.67416,-7.91725 4.25808,-16.2537 6.39439,-24.3638l0.50886,-1.73844c0,0 1.26002,-4.28122 4.09768,-3.28573z" fill="#404040" stroke="none" stroke-width="0.5" stroke-linecap="butt"/><path d="M171.42952,64.54314c-0.78528,-1.19953 -0.82552,-2.67118 -0.23444,-3.87033l-0.00357,-0.0592l0.07825,-0.08463c0.2981,-0.54626 0.73135,-1.02902 1.28842,-1.3937l1.86758,-1.22263l0.45421,-0.15795l0.40235,-0.2634l0.49642,-0.17265l0.11266,-0.0998l1.80894,-0.94171l0.20851,-0.04991l0.17487,-0.12408l3.29152,-1.2848l2.03661,-1.33329l0.3675,-0.1278l0.31501,-0.22834l0.96004,-0.38595l0.51058,-0.07053l0.01754,-0.01215l3.50064,-1.32155l0.05246,-0.00611l0.04417,-0.02892l3.16106,-1.09924l0.26764,-0.02407l0.24266,-0.11545l1.07119,-0.21617l0.16558,0.0076l0.15508,-0.05854l2.70425,-0.31511l0.31629,0.041l0.16873,-0.09751l0.74364,0.21586l0.03848,0.00501l0.06041,-0.01458l0.73163,0.00613l0.37667,0.09753l0.38876,-0.01526l1.2312,0.25696l1.09837,0.12698l0.88057,-0.03456l0.47074,0.09826l0.48051,-0.01884l0.37203,0.07764l3.04243,-0.11939l2.79131,-0.14408l0.11756,0.02304l0.11645,-0.02808l0.73162,0.00613l0.06261,0.0162l0.06331,-0.01312l1.68125,0.0683l0.66866,0.00559l0.7425,0.19223l0.44108,0.07035l0.48594,-0.01908l0.47073,0.09827l0.48052,-0.01886l0.84279,0.1759l0.25307,0.12249l0.27969,0.02881l0.55079,0.1996l1.43012,0.18548l0.30805,0.12089l0.33049,0.01701l1.51581,0.46294l0.08787,0.05283l0.10196,0.01051l0.32485,0.11771l0.06253,0.00052l0.3595,0.09307l0.19714,-0.07925l0.67513,0.30508l0.71726,0.1857l0.10386,0.18536l0.33839,0.15292l0.09298,0.07357l0.67285,0.28699l1.31622,0.40198l0.18191,0.10939l0.20961,0.03343l0.67299,0.28706l0.41595,0.31495l0.47546,0.21486l0.00611,0.00485l0.35793,0.12972l0.29452,0.19831l0.341,0.09899l0.78415,0.45683l0.11872,0.11568l0.1548,0.05927l0.76218,0.53344l0.64377,0.37503l0.20135,0.19624l0.25625,0.11578l0.50322,0.3982l0.09348,0.12134l0.13434,0.07361l0.50421,0.46612l0.8888,0.70331l0.15066,0.19554l0.2106,0.12877l0.72554,0.73776l0.19737,0.33528l0.2857,0.26409l0.18121,0.27679l0.26126,0.24153l0.26339,0.40234l0.35311,0.32644l1.44492,2.20714l0.20625,0.5931l0.30264,0.5502l0.002,0.00755l0.31968,0.48832l0.61438,0.56797l0.05961,0.09106l0.08035,0.07832l-0.00035,0.04388l0.62466,0.95418l0.0061,0.00486l0.38321,0.49744l0.4611,0.42627l0.33344,0.50933l0.22318,0.64176l0.31124,0.60397l0.54352,2.31217l-0.00421,0.29807l0.09526,0.28248l0.19837,2.46496l0.04445,0.38145l-0.04567,0.35211l0.06395,0.34927l-0.01441,0.22532l0.01571,0.04519l0.00197,0.0221l0.05339,0.04728l0.03804,0.96945l0.08691,0.96633l-0.04687,0.05376l0.00087,0.02219l-0.29314,1.40463l-0.16951,0.35021l-0.06129,0.38422l-0.2445,0.57329l-0.30874,0.85199l-0.062,0.09206l-0.01748,0.1096l-0.86113,2.01902l-0.31498,0.41594l-0.21485,0.47548l-0.62414,0.78873l-0.13977,0.23991l-0.13109,0.36176l-0.17782,0.85196l-0.1695,0.35021l-0.0613,0.38422l-0.13529,0.31722l-0.09688,0.46412l-0.25774,0.53254l-0.49836,2.38787l-0.33573,0.69367l0.01807,0.29816l-0.34072,0.36858l-0.1879,0.38823l-0.05917,0.20377l-0.68524,1.17625l-0.53785,0.55191l-0.07717,0.28857l-0.4398,0.24189l-0.3503,0.35948l-0.2987,-0.00249l-0.67524,0.3714l-0.62049,0.16366l-0.28116,0.00363l-0.26304,0.09932l-1.80283,0.21005l-0.11008,-0.01427l-0.10584,0.03337l-1.63307,0.09892l-0.042,-0.00783l-0.041,0.01198l-0.75386,0.02959l-0.20586,0.05431l-0.52172,0.00674l-0.5072,0.12232l-0.16413,-0.00138l-0.05381,0.00212l-0.10523,0.02775l-0.8975,0.01159l-0.89688,0.0352l-0.10656,-0.02224l-0.1122,0.00145l-0.03075,-0.03129l-0.12253,-0.02557l-1.57141,0.06168l-2.79423,0.5639l-0.50949,0.1344l-0.28115,0.00362l-0.26305,0.0993l-0.90141,0.10502l-0.62273,-0.08078l-0.62748,0.02462l-0.85194,-0.17781l-0.7355,-0.04702l-0.26785,-0.08545l-0.28095,0.011l-0.18321,-0.03824l-0.34485,-0.00286l-0.37666,-0.09753l-0.38877,0.01524l-1.40464,-0.29315l-0.25308,-0.12246l-0.27969,-0.02882l-0.95394,-0.34568l-0.09205,-0.062l-0.10961,-0.01749l-0.67301,-0.28704l-0.19678,-0.14901l-0.23707,-0.06882l-1.17624,-0.68524l-0.20136,-0.19624l-0.25623,-0.11576l-1.50966,-1.19459l-0.18911,-0.24546l-0.25901,-0.17007l-0.83667,-0.90752l-0.15648,-0.28655l-0.23975,-0.22162l-0.66689,-1.01869l-0.1292,-0.37149l-0.13111,-0.03808l-0.574,-0.33441l-0.0935,-0.03988l-0.46416,-0.09687l-0.3502,-0.16949l-0.38423,-0.06129l-0.31718,-0.13529l-0.75426,-0.15741l-0.48116,-0.03075l-0.03799,0.02197l-0.10774,-0.03127l-0.10862,-0.00696l-0.85509,-0.27282l-0.14865,-0.04313l-0.96313,-0.20101l-0.34485,-0.00288l-0.35949,-0.09308l-0.19713,0.07927l-0.67515,-0.3051l-0.71724,-0.18572l-0.07477,-0.13345l-0.08764,-0.01829l-0.56522,-0.27356l-0.60306,-0.17507l-1.34805,-0.78535l-0.04381,0.00266l-0.08238,-0.07615l-0.09406,-0.05478l-0.64283,-0.62643l-0.65907,-0.60931l-0.05961,-0.09106l-0.08037,-0.0783l0.00038,-0.04388l-0.74222,-1.13376l-1.03236,-1.25004l-0.25922,-0.54308l-0.35318,-0.48725l-0.24167,-0.60117l-0.12158,-0.18572l-0.24301,-0.69877l-0.31788,-0.66806l-0.21617,-1.07119l0.02364,-0.51497l-0.01281,-0.06987l-2.5674,-3.92172l-0.26126,-0.24152l-0.26339,-0.40233l-0.35311,-0.32644l-0.23273,-0.3555l-0.45428,-0.46196l-0.19738,-0.3353l-0.28572,-0.26412l-0.3216,-0.49125l-0.00417,-0.00189l-0.50324,-0.3982l-0.09347,-0.12136l-0.13432,-0.07358l-0.50421,-0.46612l-0.07829,-0.06196l-0.3698,-0.05899l-0.67301,-0.28705l-0.19678,-0.14902l-0.23707,-0.06882l-0.78414,-0.45681l-0.20136,-0.19624l-0.25624,-0.11577l-0.28552,-0.22593l-1.72051,-1.0023l-0.37366,-0.36416l-0.44514,-0.27217l-0.43798,-0.44536l-1.23558,-0.16027l-0.67444,-0.91508c-1.28014,0.00615 -2.5373,-0.61634 -3.29068,-1.76714zM184.85739,63.59127l0.09349,0.03988l0.18322,0.03824l0.56522,0.27357l0.60306,0.17506l0.39209,0.22841l0.15927,0.15521l0.09258,0.0448l0.00723,0.02229l0.1985,0.08971l0.50323,0.3982l0.09347,0.12135l0.13432,0.07358l0.50421,0.46613l0.11652,0.0922l0.02713,-0.00164l0.08238,0.07616l0.09406,0.05478l0.6428,0.62642l0.65908,0.6093l0.05962,0.09107l0.08033,0.07829l-0.00036,0.04386l0.42657,0.6516l0.4543,0.46196l0.19738,0.33531l0.2857,0.26411l0.1812,0.27678l0.26126,0.24151l0.26341,0.40236l0.3531,0.32643l3.44558,5.26317l0.10477,0.30125l0.16269,0.10729l0.1395,0.76168l0.25431,0.73137l-0.08862,0.17359l0.05743,0.31372l-0.03176,0.49695l0.01537,0.07618l0.22731,0.3136l0.15975,0.39732l0.78391,0.94924l0.09476,0.1985l0.16152,0.14932l0.49524,0.75648l0.20685,0.12052l0.03035,-0.01221l0.10225,0.04621l0.10655,0.02224l0.80793,0.391l0.06121,0.02764l0.36573,-0.01435l1.40464,0.29317l0.39047,0.18895l0.46537,0.02976l0.26787,0.08546l0.28093,-0.01101l1.40462,0.29315l0.35022,0.16949l0.38423,0.06128l0.31721,0.13531l0.46414,0.09687l0.3502,0.1695l0.38422,0.06126l0.673,0.28706l0.19678,0.14902l0.23707,0.0688l0.574,0.33442l0.44931,0.1916l0.19677,0.14902l0.23707,0.06882l0.17186,0.1001l0.0438,-0.00266l0.08239,0.07617l0.09405,0.05479l0.64284,0.62644l0.65908,0.60928l0.05962,0.09108l0.08034,0.0783l-0.00035,0.04388l0.19385,0.29611l0.20624,0.59309l0.30265,0.5502l0.002,0.00755l0.1426,0.21783l0.40979,0.44448l1.05162,0.83213l0.72622,0.42308l0.34957,0.1491l0.59099,0.21413l0.75422,0.15741l0.34484,0.00289l0.37665,0.09752l0.38876,-0.01526l0.29012,0.06055l0.7355,0.04702l0.26787,0.08546l0.28094,-0.01104l0.50194,0.10477l0.3493,-0.09213l0.11748,-0.0015l0.10607,-0.05047l3.21358,-0.64852l0.31596,0.01449l0.30361,-0.08868l2.36468,-0.0928l0.47074,0.09826l0.48053,-0.01886l0.21839,0.04558l0.47943,-0.11562l0.20853,0.00174l0.11464,-0.03024l0.43017,-0.00556l0.41293,-0.12063l1.14081,-0.04476l1.48335,-0.08986l0.06404,-0.00746l-0.00008,-0.00164l0.23573,-0.25499l0.31385,-1.50382l0.25773,-0.53253l0.1466,-0.70233l0.16948,-0.35022l0.06129,-0.38421l0.1353,-0.31722l0.15551,-0.74505l0.12248,-0.2531l0.02881,-0.27969l0.34565,-0.95394l0.19834,-0.29453l0.09898,-0.34099l0.45682,-0.78416l0.19624,-0.20136l0.11578,-0.25623l0.47177,-0.59622l0.61336,-1.43809l0.30873,-0.85201l0.06199,-0.09205l0.01749,-0.10961l0.1353,-0.31722l0.03481,-0.16687l-0.0305,-0.3392l-0.13941,-0.76138l0.02948,-0.46118l-0.00103,-0.01167l0.00194,-0.00222l0.01189,-0.18598l-0.01176,-0.10085l0.00922,-0.07097l-0.02287,-0.06778l-0.18031,-2.24077l-0.28725,-1.22193l-0.03,-0.03894l-0.4611,-0.42626l-0.88918,-1.35823l-0.61436,-0.56798l-0.05962,-0.09106l-0.08034,-0.07829l0.00037,-0.04386l-0.74958,-1.14499l-0.20624,-0.5931l-0.30262,-0.5502l-0.00201,-0.00754l-0.83431,-1.27441l-0.26127,-0.24154l-0.26339,-0.40234l-0.3531,-0.32643l-0.23274,-0.35551l-0.28378,-0.28856l-0.81574,-0.64546l-0.09347,-0.12134l-0.13433,-0.07359l-0.50421,-0.46614l-0.16787,-0.13285l-0.54427,-0.31708l-0.11871,-0.11568l-0.15481,-0.05927l-0.76218,-0.53344l-0.33942,-0.19773l-0.62274,-0.22567l-0.52088,-0.35073l-0.57224,-0.2586l-0.09296,-0.07356l-1.31612,-0.40197l-0.18191,-0.10939l-0.20963,-0.03343l-1.34599,-0.57409l-0.32081,-0.24294l-0.05444,-0.01409l-0.65791,-0.06778l-0.85981,-0.31157l-1.10657,-0.33797l-1.53027,-0.19849l-0.40047,-0.15715l-0.42792,-0.0441l-0.69291,-0.25109l-0.10028,-0.02094l-0.37319,0.01465l-0.02618,0.01984l-0.09468,-0.0151l-0.20775,0.00816l-0.83917,-0.17513l-0.7203,-0.11489l-0.03101,-0.00027l-0.04713,-0.0122l-0.01966,-0.00314l-0.05913,0.01227l-1.68126,-0.0683l-0.55156,-0.00461l-2.69846,0.1393l-0.02434,-0.00477l-0.02383,0.00696l-3.54704,0.1392l-0.47074,-0.09826l-0.48052,0.01885l-0.37202,-0.07764l-0.70182,0.02753l-0.29896,-0.06241l-0.30283,0.03954l-1.57441,-0.18198l-0.16902,-0.06366l-0.18045,0.0071l-1.02599,-0.21415l-0.10166,-0.00083l-0.20916,0.02435l-0.31627,-0.04102l-0.16873,0.09755l-0.67376,-0.1956l-1.77615,0.20697l-0.65204,0.13157l-2.86213,0.99529l-3.45255,1.3034l-0.44736,0.05213l-0.52708,0.2119l-2.05329,1.3442l-0.38597,0.13422l-0.33322,0.23646l-1.42361,0.55568l0.60881,0.35468l0.20136,0.19621l0.25624,0.11578l0.28552,0.22593z" fill="url(#color-36)" stroke="none" stroke-width="0.5" stroke-linecap="butt"/><path d="M279.48179,83.42601c0,0 -9.89673,2.33544 -15.58069,5.81904c-5.68397,3.48359 -6.22192,6.37515 -6.22192,6.37515c0,0 -21.99364,4.13237 -14.94843,-6.38283c14.25513,-21.27626 36.75104,-5.81136 36.75104,-5.81136z" fill="url(#color-37)" stroke="#000000" stroke-width="0" stroke-linecap="butt"/><path d="M288.92704,177.12957c0,0 -1.71623,-3.82276 -2.47017,-6.89024c-0.92387,-3.75877 -2.81057,-12.77583 -2.81057,-12.77583c0,0 4.03886,7.70154 5.98041,10.93317c1.61712,2.69167 3.94552,7.171 3.94552,7.171c0,0 -0.9166,2.23324 -1.60635,2.63641c-0.86591,0.50616 -3.03883,-1.07451 -3.03883,-1.07451z" data-paper-data="{&quot;index&quot;:null}" fill="#323232" stroke="#000000" stroke-width="0" stroke-linecap="round"/><path d="M295.01618,189.34173c0,0 -1.8909,-4.08955 -2.64484,-7.15703c-0.92387,-3.75877 -2.81056,-12.77584 -2.81056,-12.77584c0,0 4.03887,7.70155 5.98041,10.93319c1.61712,2.69167 4.8745,7.13454 4.8745,7.13454c0,0 -1.4803,2.40925 -2.39552,2.86313c-0.98532,0.48865 -3.00398,-0.99797 -3.00398,-0.99797z" data-paper-data="{&quot;index&quot;:null}" fill="#323232" stroke="#000000" stroke-width="0" stroke-linecap="round"/><path d="M300.74351,197.21706c0,0 -1.18744,-3.59722 -1.94139,-6.66472c-0.92387,-3.75877 -2.81059,-12.77584 -2.81059,-12.77584c0,0 4.03886,7.70155 5.98042,10.93318c1.61712,2.69167 4.8745,7.13454 4.8745,7.13454c0,0 -0.9934,2.45766 -1.92851,2.92142c-0.96938,0.48078 -4.17442,-1.54859 -4.17442,-1.54859z" data-paper-data="{&quot;index&quot;:null}" fill="#323232" stroke="#000000" stroke-width="0" stroke-linecap="round"/><path d="M309.20696,205.77856c0,0 -1.72102,-3.2479 -2.47499,-6.31537c-0.92387,-3.75877 -2.81055,-12.77585 -2.81055,-12.77585c0,0 4.03886,7.70155 5.98042,10.93318c1.61712,2.69167 4.8745,7.13454 4.8745,7.13454c0,0 -0.54125,2.21223 -1.39638,2.63634c-1.02101,0.50636 -4.17297,-1.61283 -4.17297,-1.61283z" data-paper-data="{&quot;index&quot;:null}" fill="#323232" stroke="#000000" stroke-width="0" stroke-linecap="round"/><path d="M316.11287,210.21437c0,0 -1.33044,-2.36019 -2.08438,-5.42767c-0.92387,-3.75877 -2.81059,-12.77584 -2.81059,-12.77584c0,0 4.03887,7.70156 5.98042,10.93318c1.61712,2.69167 4.8745,7.13454 4.8745,7.13454c0,0 0.34149,1.80297 -0.55107,2.24562c-1.00077,0.49632 -5.40888,-2.10982 -5.40888,-2.10982z" data-paper-data="{&quot;index&quot;:null}" fill="#323232" stroke="#000000" stroke-width="0" stroke-linecap="round"/><path d="M325.08786,215.77301c0,0 -1.45423,-3.42254 -2.20817,-6.49003c-0.92388,-3.75877 -2.81056,-12.77586 -2.81056,-12.77586c0,0 4.03887,7.70155 5.98042,10.93318c1.61712,2.69167 4.87449,7.13455 4.87449,7.13455c0,0 0.64749,1.80674 -0.22251,2.23819c-1.01367,0.50274 -5.61365,-1.04005 -5.61365,-1.04005z" data-paper-data="{&quot;index&quot;:null}" fill="#323232" stroke="#000000" stroke-width="0" stroke-linecap="round"/><path d="M333.6406,218.94012c0,0 -1.57321,-5.05978 -2.32717,-8.12726c-0.92387,-3.75877 -2.81059,-12.77585 -2.81059,-12.77585c0,0 4.03886,7.70155 5.98042,10.93318c1.61712,2.69167 4.87451,7.13454 4.87451,7.13454c0,0 -0.5099,2.13318 -1.45564,2.60222c-0.95979,0.47599 -4.26152,0.2332 -4.26152,0.2332z" data-paper-data="{&quot;index&quot;:null}" fill="#323232" stroke="#000000" stroke-width="0" stroke-linecap="round"/><path d="M340.91019,215.2419c0,0 -1.21922,-5.37244 -2.19146,-8.35819c-1.16729,-3.58473 -4.33473,-11.68374 -4.33473,-11.68374c0,0 5.57181,7.33637 7.80433,10.49829c1.82195,2.58039 4.61114,7.08558 4.61114,7.08558c0,0 -1.15062,3.29279 -2.16576,3.71649c-0.94252,0.3934 -3.7235,-1.25841 -3.7235,-1.25841z" data-paper-data="{&quot;index&quot;:null}" fill="#323232" stroke="#000000" stroke-width="0" stroke-linecap="round"/><path d="M345.56672,208.38207c0,0 -1.21922,-5.37244 -2.19147,-8.35822c-1.16729,-3.58473 -4.33473,-11.68374 -4.33473,-11.68374c0,0 5.57181,7.33638 7.80434,10.49831c1.82195,2.58039 4.61113,7.08559 4.61113,7.08559c0,0 -1.15062,3.29278 -2.16579,3.71649c-0.94252,0.3934 -3.72348,-1.25843 -3.72348,-1.25843z" data-paper-data="{&quot;index&quot;:null}" fill="#323232" stroke="#000000" stroke-width="0" stroke-linecap="round"/><path d="M348.59559,200.49149c0,0 -1.2192,-5.37244 -2.19146,-8.35819c-1.16729,-3.58473 -4.33472,-11.68375 -4.33472,-11.68375c0,0 5.57181,7.33637 7.80432,10.49829c1.82195,2.58039 4.61115,7.08559 4.61115,7.08559c0,0 -1.15062,3.29279 -2.16577,3.71649c-0.94252,0.3934 -3.7235,-1.2584 -3.7235,-1.2584z" data-paper-data="{&quot;index&quot;:null}" fill="#323232" stroke="#000000" stroke-width="0" stroke-linecap="round"/><path d="M349.46807,191.34467c0,0 -1.21921,-5.37244 -2.19146,-8.35819c-1.16729,-3.58473 -4.33474,-11.68376 -4.33474,-11.68376c0,0 5.57181,7.33637 7.80434,10.4983c1.82195,2.58039 4.61115,7.08559 4.61115,7.08559c0,0 -1.15063,3.29279 -2.16578,3.71646c-0.94252,0.3934 -3.7235,-1.25841 -3.7235,-1.25841z" data-paper-data="{&quot;index&quot;:null}" fill="#323232" stroke="#000000" stroke-width="0" stroke-linecap="round"/><path d="M349.94034,182.45983c0,0 -1.2192,-5.37245 -2.19146,-8.3582c-1.16729,-3.58473 -4.33474,-11.68374 -4.33474,-11.68374c0,0 5.57182,7.33637 7.80435,10.49831c1.82195,2.58039 4.61114,7.08558 4.61114,7.08558c0,0 -1.15062,3.29279 -2.16579,3.71648c-0.94252,0.3934 -3.7235,-1.25842 -3.7235,-1.25842z" data-paper-data="{&quot;index&quot;:null}" fill="#323232" stroke="#000000" stroke-width="0" stroke-linecap="round"/><path d="M351.2082,173.62587c0,0 -1.21922,-5.37244 -2.19146,-8.35819c-1.16729,-3.58473 -4.33473,-11.68375 -4.33473,-11.68375c0,0 5.57182,7.33638 7.80434,10.49831c1.82195,2.58039 4.61114,7.08559 4.61114,7.08559c0,0 -1.15062,3.29279 -2.16577,3.71648c-0.94252,0.3934 -3.7235,-1.25841 -3.7235,-1.25841z" data-paper-data="{&quot;index&quot;:null}" fill="#323232" stroke="#000000" stroke-width="0" stroke-linecap="round"/><path d="M351.81866,164.07886c0,0 -1.21919,-5.37246 -2.19144,-8.35823c-1.16729,-3.58473 -4.33476,-11.68375 -4.33476,-11.68375c0,0 5.57183,7.33639 7.80434,10.49831c1.82195,2.58039 3.81556,7.03471 3.81556,7.03471c0,0 -0.40588,4.13923 -1.42105,4.56295c-0.94252,0.3934 -3.67262,-2.05399 -3.67262,-2.05399z" data-paper-data="{&quot;index&quot;:null}" fill="#323232" stroke="#000000" stroke-width="0" stroke-linecap="round"/><path d="M350.67774,152.43872c0,0 -1.21919,-5.37242 -2.19145,-8.35819c-1.16729,-3.58473 -4.33474,-11.68376 -4.33474,-11.68376c0,0 5.57181,7.33638 7.80433,10.49829c1.82195,2.58039 3.68216,7.12207 3.68216,7.12207c0,0 0.94962,3.38355 -0.62068,4.03894c-1.57029,0.65541 -4.33961,-1.61736 -4.33961,-1.61736z" data-paper-data="{&quot;index&quot;:null}" fill="#323232" stroke="#000000" stroke-width="0" stroke-linecap="round"/><path d="M347.23736,140.77936c0,0 -1.21918,-5.37244 -2.19145,-8.35821c-1.16729,-3.58473 -4.33476,-11.68375 -4.33476,-11.68375c0,0 5.57181,7.33638 7.80433,10.49829c1.82195,2.58039 3.02479,6.40899 3.02479,6.40899c0,0 0.43574,3.96939 -0.57943,4.3931c-0.94253,0.39338 -3.7235,-1.25842 -3.7235,-1.25842z" data-paper-data="{&quot;index&quot;:null}" fill="#323232" stroke="#000000" stroke-width="0" stroke-linecap="round"/></g><path d="M319.04848,65.79578c17.80237,27.19332 10.48608,63.47542 -16.34142,81.03829c-26.8275,17.56287 -63.00716,9.75585 -80.80953,-17.43748c-17.80237,-27.19332 -10.48606,-63.4754 16.34144,-81.03828c26.8275,-17.56287 63.00716,-9.75584 80.80953,17.43748z" fill="url(#color-38)" stroke="none" stroke-width="0" stroke-linecap="butt"/><path d="M371.1447,51.76429c17.59116,26.87072 10.36164,62.72234 -16.14759,80.07686c-26.50923,17.35451 -62.25965,9.64012 -79.85081,-17.2306c-17.59116,-26.87072 -10.36165,-62.72236 16.14756,-80.07686c26.50923,-17.35451 62.25967,-9.64011 79.85084,17.2306z" fill="url(#color-39)" stroke="none" stroke-width="0" stroke-linecap="butt"/><g stroke-width="0"><path d="M181.66364,195.33458c-1.72196,5.62507 -6.42636,6.58617 -12.8015,4.81427c-6.37516,-1.77185 -12.00698,-5.60574 -10.285,-11.23083c1.72193,-5.62509 6.96491,-4.80645 13.34007,-3.03459c6.37518,1.77188 11.46844,3.82603 9.74645,9.45114z" data-paper-data="{&quot;index&quot;:null}" fill="#3e3c39" stroke="none" stroke-linecap="butt"/><path d="M176.5689,206.11601c-10.65405,-5.87776 0.37863,-24.47402 0.37863,-24.47402c0,0 23.75385,-6.2605 38.70344,-3.85957c10.2383,1.6443 25.74152,4.4993 28.89268,7.58406c7.27495,7.12158 -0.30256,24.09452 -5.18398,25.40226c-14.59634,3.91042 -47.99237,3.51147 -62.79077,-4.65274z" data-paper-data="{&quot;index&quot;:null}" fill="url(#color-40)" stroke="#000000" stroke-linecap="round"/><path d="M200.48668,121.44032c0.92051,0.97088 3.47914,-1.28198 7.36503,1.62377c1.68127,1.25724 8.96379,5.614 9.3231,5.95782c-0.21476,5.11507 -8.73442,24.98923 -18.96995,40.56386c-9.62901,14.99007 -23.9669,28.39125 -27.17481,28.19252c-2.62431,-0.16257 -21.64648,-7.71471 -17.71681,-21.55714c25.77695,-44.52235 47.17341,-54.78082 47.17341,-54.78082z" fill="url(#color-41)" stroke="#000000" stroke-linecap="round"/><path d="M204.11803,128.16217c-1.65573,-2.92834 -2.17493,-6.86916 -2.17493,-6.86916c0,0 7.44835,-15.84414 15.62927,-10.61365c8.31399,5.31562 -0.19642,17.71321 -0.19642,17.71321c0,0 -9.22981,6.89397 -13.25793,-0.23035z" fill="#3e3c39" stroke="#000000" stroke-linecap="round"/><path d="M211.00051,122.3514c-31.60892,-22.47813 -30.15117,-75.0985 1.2228,-96.21672c21.96524,-14.78507 52.89429,-12.13339 64.70027,3.88225c23.45271,31.81527 -5.03918,71.20625 -5.03918,71.20625c0,0 8.0786,-21.73594 6.68715,-40.96275c-1.31012,-18.10356 -10.77841,-32.16226 -31.57875,-33.56621c-20.80031,-1.40396 -34.7938,5.73436 -43.55135,30.334c-14.81245,36.37928 17.18743,46.21856 14.38448,61.91268c-1.67364,9.37109 -2.1927,6.53181 -6.82541,3.41051z" fill="#3e3c39" stroke="#000000" stroke-linecap="round"/></g><path d="M228.6935,196.22503l11.20487,6.45948c0,0 -17.55109,2.031 -20.8907,0.83774c-4.03746,-1.44261 -8.22456,-0.00599 -8.22456,-0.00599l8.89351,-6.81886z" data-paper-data="{&quot;index&quot;:null}" fill="url(#color-42)" stroke="#000000" stroke-width="0" stroke-linecap="round"/></g></g></svg>