<svg version="1.1" xmlns="http://www.w3.org/2000/svg" xmlns:xlink="http://www.w3.org/1999/xlink" width="442.41341" height="460.10548" viewBox="0,0,442.41341,460.10548"><defs><radialGradient cx="318.84391" cy="183.42914" r="32.81008" gradientUnits="userSpaceOnUse" id="color-1"><stop offset="0" stop-color="#ffffff"/><stop offset="1" stop-color="#6d6d6d"/></radialGradient></defs><g transform="translate(-147.77355,242.10755)"><g data-paper-data="{&quot;isPaintingLayer&quot;:true}" fill-rule="nonzero" stroke-linecap="butt" stroke-linejoin="miter" stroke-miterlimit="10" stroke-dasharray="" stroke-dashoffset="0" style="mix-blend-mode: normal"><g stroke="none" stroke-width="0"><path d="M315.81688,128.34432c8.91478,30.75524 4.86939,16.11419 -4.65482,18.8749c-3.00564,0.87122 -7.52167,10.12519 -14.47136,4.10881c-5.58612,-4.83593 -12.37168,-16.68098 -19.78563,-22.28163c-2.91075,-2.19883 -6.22296,-4.37186 -8.99701,-6.64623c-2.60147,-2.13286 -4.64302,-4.37996 -7.97204,-6.08606c-8.47558,-4.34364 -15.20008,-10.00267 -21.19125,-14.70132c-5.04042,-3.95301 -7.98412,-1.77037 -12.72593,-4.95615c-8.66413,-5.82097 -17.48719,-16.55449 -21.41519,-19.90518c-5.49534,-4.68766 5.78664,-11.70756 10.30907,-13.01844c3.33789,-0.96753 21.43902,23.77023 39.41764,38.71819c8.6376,7.18157 27.84523,8.46269 34.27379,13.72212c18.37065,15.02967 22.92328,-2.62722 27.21272,12.17097z" fill="#000000"/><path d="M163.90221,-72.50868c0.62225,-0.18037 17.00536,37.16948 28.45077,76.65522c11.44542,39.48575 31.84307,75.28247 29.06518,76.08767c-1.49016,0.43194 -7.56113,-4.2401 -14.89387,-20.46879c-6.1055,-13.51261 -13.15605,-36.92812 -18.51283,-54.52408c-0.20279,-0.66612 -26.88714,-76.94482 -24.10926,-77.75002z" fill="#000000"/><path d="M155.73264,-72.47738c0.62225,-0.18037 17.7239,36.96121 29.16931,76.44694c11.44542,39.48575 31.12453,75.49075 28.34664,76.29595c-2.73092,0.79159 -22.07978,-36.51923 -33.87012,-75.24799c-0.20279,-0.66612 -26.42372,-76.68969 -23.64582,-77.49489z" fill="#000000"/><path d="M171.62545,6.48588c-0.20279,-0.66612 -26.42372,-76.68969 -23.64582,-77.49489c0.62225,-0.18037 17.00536,37.16949 28.45077,76.65522c11.44542,39.48575 40.27821,77.51095 37.50031,78.31615c-2.73092,0.79159 -30.51491,-38.7477 -42.30526,-77.47646z" fill="#000000"/><path d="M170.13187,-14.93418c0,0 1.70281,5.01116 2.42124,7.3184c0.6383,2.04989 1.67744,5.84452 1.67744,5.84452l-5.13869,1.48951c0,0 -1.52575,-4.13303 -2.22934,-6.23656c-0.71175,-2.12793 -1.75571,-6.53442 -1.75571,-6.53442z" fill="#d0d0d0"/><path d="M164.31835,-31.23496l4.31946,12.10756l-5.20053,1.50744l-3.81392,-11.82924z" fill="#d0d0d0"/><path d="M157.36538,-50.0379l4.52989,12.04657l-4.7235,1.08592l-3.50708,-11.63493z" fill="#d0d0d0"/><path d="M153.01432,-60.24109c0.28315,0.97684 -2.57885,1.93827 -2.77473,1.26248c-0.95161,-3.28296 -2.66053,-11.35411 -2.04724,-11.53187c0.35345,-0.10245 1.10424,1.73362 2.07405,3.87397c0.71306,1.5737 2.3447,5.00438 2.74791,6.39543z" fill="#d0d0d0"/><path d="M178.8117,-15.8923c0,0 1.70281,5.01116 2.42124,7.3184c0.6383,2.04989 1.67744,5.84453 1.67744,5.84453l-5.13869,1.48951c0,0 -1.52575,-4.13303 -2.22934,-6.23656c-0.71175,-2.12793 -1.75571,-6.53442 -1.75571,-6.53442z" fill="#d0d0d0"/><path d="M172.99819,-32.19309l4.31946,12.10757l-5.20053,1.50743l-3.81392,-11.82924z" fill="#d0d0d0"/><path d="M165.32667,-50.78774l4.52989,12.04656l-4.7235,1.08592l-3.50707,-11.63493z" fill="#d0d0d0"/><path d="M161.33487,-61.09508c0.28315,0.97684 -2.57884,1.93829 -2.77473,1.26248c-0.95161,-3.28296 -2.66053,-11.3541 -2.04724,-11.53187c0.35345,-0.10245 1.10424,1.73362 2.07405,3.87397c0.71307,1.57371 2.3447,5.00438 2.74791,6.39543z" fill="#d0d0d0"/><path d="M185.69516,-16.32972c0,0 1.70281,5.01117 2.42124,7.3184c0.6383,2.04989 1.67744,5.84452 1.67744,5.84452l-5.13869,1.48951c0,0 -1.52574,-4.13303 -2.22934,-6.23656c-0.71175,-2.12793 -1.75571,-6.53442 -1.75571,-6.53442z" fill="#d0d0d0"/><path d="M179.88165,-32.6305l4.31946,12.10756l-5.20053,1.50744l-3.81392,-11.82924z" fill="#d0d0d0"/><path d="M172.92868,-51.43344l4.52989,12.04656l-4.7235,1.08592l-3.50708,-11.63493z" fill="#d0d0d0"/><path d="M168.57761,-61.63661c0.28314,0.97682 -2.57883,1.93826 -2.77472,1.26246c-0.95161,-3.28296 -2.66053,-11.3541 -2.04724,-11.53187c0.35345,-0.10245 1.10424,1.73362 2.07405,3.87396c0.71307,1.57371 2.3447,5.00438 2.74791,6.39543z" fill="#d0d0d0"/></g><g stroke="none" stroke-width="0"><path d="M358.58268,136.77735c9.77122,-11.91258 6.26047,9.37282 29.06583,2.79361c7.98044,-2.30232 26.88103,0.82273 37.64901,-2.37628c22.41285,-6.65851 48.7942,-22.26725 51.4812,-20.06326c3.64058,2.98617 11.2457,13.88219 4.34827,16.02653c-4.93018,1.53275 -17.26764,7.92356 -27.52412,9.8615c-5.61329,1.06063 -7.45939,-2.10502 -13.64933,-0.45678c-7.35753,1.95912 -15.76737,4.51216 -25.26867,5.16647c-3.7319,0.25699 -6.49348,1.51837 -9.72474,2.4542c-3.4456,0.99792 -10.08871,6.2142 -13.63023,7.08885c-5.05182,1.24765 -17.08416,11.68523 -26.96617,10.8421c-8.1644,-0.69658 -6.51711,-10.16973 -8.93666,-12.15436c-7.667,-6.28881 -17.15199,5.57543 3.15562,-19.18258z" data-paper-data="{&quot;index&quot;:null}" fill="#000000"/><path d="M576.07462,13.70802c2.2362,1.83423 -52.33477,61.43711 -52.78353,61.96952c-11.85424,14.06379 -27.55745,32.80962 -38.49158,42.82521c-13.13194,12.02877 -20.55235,13.93202 -21.75193,12.94808c-2.23622,-1.83425 30.61176,-26.70349 56.6841,-58.48957c26.07234,-31.78607 55.84199,-59.66411 56.3429,-59.25323z" data-paper-data="{&quot;index&quot;:null}" fill="#000000"/><path d="M583.57147,16.95449c2.2362,1.83423 -51.80832,61.38512 -52.25708,61.91753c-26.09123,30.95444 -58.57155,57.62849 -60.76994,55.82527c-2.23621,-1.83424 30.03333,-27.17794 56.10568,-58.96402c26.07234,-31.78607 56.42042,-59.18967 56.92133,-58.77879z" data-paper-data="{&quot;index&quot;:null}" fill="#000000"/><path d="M590.11943,21.35784c2.2362,1.83423 -51.80832,61.38512 -52.25708,61.91753c-26.09123,30.95444 -67.20256,56.35452 -69.40095,54.5513c-2.23621,-1.83423 39.24278,-25.42952 65.31513,-57.21561c26.07234,-31.78607 55.84199,-59.66412 56.3429,-59.25324z" data-paper-data="{&quot;index&quot;:null}" fill="#000000"/><path d="M551.54967,67.88358c0,0 -2.69514,3.63911 -4.18749,5.3147c-1.47524,1.65637 -4.50551,4.85439 -4.50551,4.85439l-4.13665,-3.39307c0,0 2.44973,-3.07863 3.84381,-4.71142c1.5691,-1.83778 5.10799,-5.77319 5.10799,-5.77319z" data-paper-data="{&quot;index&quot;:null}" fill="#d0d0d0"/><path d="M563.04791,54.9722l-8.16476,9.3709l-4.18643,-3.4339l8.73906,-9.4276z" data-paper-data="{&quot;index&quot;:null}" fill="#d0d0d0"/><path d="M576.04428,39.77114l-7.80619,9.31314l-3.91399,-2.85857l8.90846,-9.28865z" data-paper-data="{&quot;index&quot;:null}" fill="#d0d0d0"/><path d="M583.3038,31.52564c-0.44624,0.54403 -2.69819,-1.46693 -2.0532,-2.25327c0.9185,-1.11979 3.76948,-3.63052 5.04474,-4.79617c1.73445,-1.58535 3.1477,-2.9773 3.43223,-2.74393c0.49371,0.40497 -4.25603,7.1506 -6.42377,9.79339z" data-paper-data="{&quot;index&quot;:null}" fill="#d0d0d0"/><path d="M543.94882,63.58422c0,0 -2.69514,3.63911 -4.18749,5.3147c-1.47524,1.65637 -4.5055,4.85438 -4.5055,4.85438l-4.13665,-3.39306c0,0 2.44974,-3.07863 3.8438,-4.71141c1.56911,-1.83778 5.10799,-5.77319 5.10799,-5.77319z" data-paper-data="{&quot;index&quot;:null}" fill="#d0d0d0"/><path d="M555.44706,50.67285l-8.16476,9.37089l-4.18643,-3.4339l8.73906,-9.4276z" data-paper-data="{&quot;index&quot;:null}" fill="#d0d0d0"/><path d="M569.02185,35.94624l-7.8062,9.31314l-3.91398,-2.85856l8.90846,-9.28865z" data-paper-data="{&quot;index&quot;:null}" fill="#d0d0d0"/><path d="M575.99216,27.46352c-0.44624,0.54403 -2.69819,-1.46694 -2.05319,-2.25328c0.9185,-1.11979 3.76948,-3.63052 5.04473,-4.79617c1.73445,-1.58535 3.1477,-2.97731 3.43223,-2.74394c0.49371,0.40497 -4.25603,7.15061 -6.42377,9.7934z" data-paper-data="{&quot;index&quot;:null}" fill="#d0d0d0"/><path d="M537.79403,60.471c0,0 -2.69514,3.63911 -4.18749,5.3147c-1.47524,1.65637 -4.5055,4.85439 -4.5055,4.85439l-4.13665,-3.39307c0,0 2.44973,-3.07863 3.8438,-4.71141c1.56911,-1.83778 5.108,-5.77319 5.108,-5.77319z" data-paper-data="{&quot;index&quot;:null}" fill="#d0d0d0"/><path d="M549.29229,47.55962l-8.16476,9.37089l-4.18643,-3.4339l8.73906,-9.4276z" data-paper-data="{&quot;index&quot;:null}" fill="#d0d0d0"/><path d="M562.28865,32.35855l-7.8062,9.31315l-3.91399,-2.85857l8.90846,-9.28865z" data-paper-data="{&quot;index&quot;:null}" fill="#d0d0d0"/><path d="M569.54818,24.11308c-0.44623,0.54401 -2.69819,-1.46697 -2.0532,-2.25331c0.91851,-1.11979 3.76948,-3.63051 5.04473,-4.79616c1.73445,-1.58535 3.1477,-2.9773 3.43222,-2.74393c0.4937,0.40495 -4.25603,7.1506 -6.42376,9.79339z" data-paper-data="{&quot;index&quot;:null}" fill="#d0d0d0"/></g><g fill="#000000" stroke="none" stroke-width="0"><path d="M377.71299,36.00528c-2.81057,8.42641 -10.11818,12.67455 -18.14249,18.40133c-5.95968,4.2533 -11.57524,13.41479 -14.47227,12.94544c-2.80896,-0.45508 -4.69793,-12.15753 -7.53006,-17.79666c-4.02157,-8.00748 -8.29365,-15.51488 -7.4447,-20.75492c0.90307,-5.57407 11.90627,-9.11743 24.97401,-7.5747c12.03103,1.42033 24.40218,9.42287 22.6155,14.7795z"/><path d="M348.24181,-106.54389c-0.95953,3.19611 -4.85105,5.02016 -5.42918,7.87137c-1.82558,9.0032 -2.20607,22.53631 -1.86972,35.25884c0.1431,5.41222 1.80807,6.68237 1.27764,13.90676c-0.65924,8.97845 6.18128,46.4557 5.71581,53.63824c-0.989,15.26133 19.61397,28.26465 16.30676,27.72884c-2.21137,-0.35827 -30.14756,14.2886 -33.06683,6.34162c-1.17877,-3.20889 1.81246,-11.46774 2.51316,-18.14074c1.11419,-10.61057 0.55464,-21.17767 -0.6018,-31.07904c-2.47157,-21.16143 -4.12769,-54.44194 -6.35398,-76.37571c-1.78572,-17.59324 -5.78893,-5.03342 -3.14933,-21.32606c0.35765,-2.20754 2.98745,-6.19688 5.57053,-5.98963c0.63581,0.05102 1.51448,-11.81205 4.44703,-18.0472c3.28546,-6.98555 3.31826,-7.50261 3.42293,-8.11411c4.19277,-24.49224 6.84903,-23.24053 9.85014,-40.20461c0.98734,-5.58097 14.92554,-59.03748 16.78257,-60.68008c5.11118,-4.52096 -6.99349,35.25639 -10.08405,75.24996c-0.62405,8.07559 -0.63127,13.68352 -1.64891,18.99257c-0.97863,5.10553 -2.95831,9.92384 -4.03758,16.92625c-0.07601,0.49321 1.46499,20.34471 0.35479,24.04273z"/><path d="M411.10078,-84.57755c0.35168,-2.88788 -2.76486,-5.84734 -2.66619,-9.18291c0.11418,-3.8594 7.84419,-22.20889 7.9278,-22.70086c1.18685,-6.98498 0.82975,-12.18188 1.51318,-17.33524c0.71067,-5.35879 2.47444,-10.68213 4.43207,-18.54166c9.69494,-38.92358 10.76862,-80.48808 14.19089,-74.5846c1.24343,2.1449 -2.40949,57.26775 -3.23478,62.87498c-2.50858,17.04388 0.40701,16.69486 -3.34776,41.25808c-0.09375,0.61326 -0.22591,1.11424 0.68593,8.77979c0.81387,6.84213 -2.09799,18.37579 -1.47861,18.52812c2.51639,0.61892 3.75209,5.23449 3.39445,7.44205c-2.6396,16.29266 -2.47244,3.11134 -9.72164,19.24081c-9.03769,20.10888 -28.60089,55.25676 -37.62747,74.55535c-4.2235,9.02975 -9.80711,20.11734 -12.10005,30.53695c-1.44202,6.5529 -10.59319,7.75076 -12.72481,10.42332c-5.27911,6.61874 -8.57974,-13.84674 -10.79111,-14.20501c-3.30722,-0.53581 0.11109,6.26803 3.99123,-8.5249c0.89567,-3.41468 6.8158,-16.08891 16.76174,-29.29092c10.33257,-13.71523 22.49239,-28.34786 23.61811,-32.7947c1.77769,-7.02231 5.97404,-7.34285 7.81863,-12.43305c4.3361,-11.96554 8.24796,-24.92653 9.3584,-34.04559z" data-paper-data="{&quot;index&quot;:null}"/></g><g fill="#000000" stroke="none" stroke-width="0"><path d="M343.39573,80.497c7.20281,1.16694 25.63907,46.08064 23.63594,78.82675c-0.55,8.99103 -23.16105,12.3001 -25.43852,13.26943c-2.02051,0.85996 -2.63683,11.73701 -4.70104,12.22914c-7.78274,1.85548 -6.61598,0.53566 -13.11988,-0.95111c-2.19474,-0.50172 2.26291,-13.66647 0.25848,-14.33763c-12.20157,-4.08558 -25.29264,-11.61945 -24.66456,-18.41167c1.61237,-17.43679 39.30893,-71.38971 44.02959,-70.62491z"/><path d="M324.87678,119.02838c-0.4229,2.61029 -2.71165,1.37959 -7.52438,0.59987c-4.81273,-0.77972 -11.22499,-0.05455 -10.63843,-2.63301c1.0533,-4.63021 8.25984,-3.81537 13.07258,-3.03565c4.81273,0.77972 5.51314,2.4585 5.09024,5.06879z"/><path d="M359.19164,125.19409c-4.81273,-0.77972 -7.37299,-0.3346 -6.95009,-2.9449c0.4229,-2.61029 1.61753,-3.98206 6.43026,-3.20234c4.81273,0.77972 11.90792,2.28192 11.44542,7.00785c-0.25756,2.63176 -6.11285,-0.08089 -10.92558,-0.86061z" data-paper-data="{&quot;index&quot;:null}"/><path d="M330.38372,107.49139c-0.4229,2.61029 -2.71165,1.37958 -7.52438,0.59986c-4.81273,-0.77972 -11.22499,-0.05454 -10.63843,-2.633c1.0533,-4.63022 8.25985,-3.81537 13.07258,-3.03565c4.81273,0.77972 5.51314,2.4585 5.09024,5.06879z" data-paper-data="{&quot;index&quot;:null}"/><path d="M359.77254,112.25271c-4.81273,-0.77972 -7.37299,-0.3346 -6.95009,-2.94489c0.4229,-2.61029 1.61753,-3.98206 6.43026,-3.20234c4.81273,0.77972 11.90792,2.28193 11.44542,7.00786c-0.25756,2.63177 -6.11285,-0.0809 -10.92558,-0.86062z" data-paper-data="{&quot;index&quot;:null}"/><path d="M348.90078,94.21949c0.5002,-3.08742 2.76414,-1.70355 7.57687,-0.92383c4.81273,0.77972 11.27589,-0.25964 10.61219,2.79501c-1.19184,5.4853 -8.40856,4.73328 -13.22129,3.95356c-4.81273,-0.77972 -5.46797,-2.73728 -4.96777,-5.82471z" data-paper-data="{&quot;index&quot;:null}"/><path d="M331.92326,91.43966c4.81273,0.77972 7.39781,0.18143 6.8976,3.26886c-0.5002,3.08743 -1.74,4.73799 -6.55274,3.95828c-4.81273,-0.77972 -11.89774,-2.34475 -11.2967,-7.92578c0.3347,-3.10797 6.13909,-0.08111 10.95182,0.69861z" data-paper-data="{&quot;index&quot;:null}"/><path d="M355.49354,45.28939l-8.8537,54.64853l-11.81589,-1.91432l8.85369,-54.64852z"/></g><g><path d="M338.04386,205.86432c-14.03921,13.05476 -25.85904,15.4466 -38.1103,7.79594c-7.92743,-4.95052 -12.51961,-10.55558 -12.6632,-14.27094c-0.34078,-8.81547 25.57907,-9.09779 30.33891,-20.10334c4.56608,-10.55747 -14.50304,-26.39551 -7.40017,-29.61936c0.79638,-0.36145 8.76092,-7.42379 14.72366,-7.66079c1.81762,-0.07222 10.2723,0.85861 17.68576,6.14699c4.53848,3.23751 8.87502,8.99755 10.50735,14.55186c4.17053,14.19115 -8.16863,36.731 -15.08203,43.15964z" fill="#000000" stroke="none" stroke-width="0"/><path d="M294.4421,169.22485c2.14458,-1.99419 -0.4538,-5.37034 2.28768,-9.34225c6.25622,-9.06408 16.45381,-15.1615 25.95763,-16.26351c5.62732,-0.65251 12.21502,1.74072 14.32456,2.78699c17.55219,8.70516 16.79941,34.05166 3.52948,46.3911c-6.96801,6.47941 -7.30711,14.267 -20.67298,21.00729c-8.46278,4.26771 -19.41634,-0.93287 -24.50198,-4.64822c-10.12455,-7.39659 -14.19432,-27.59193 -0.92439,-39.93136z" fill="url(#color-1)" stroke="none" stroke-width="0"/><path d="M313.93359,162.29493l-10.52273,11.82806l-5.41671,-3.40821l8.58686,-13.90993z" data-paper-data="{&quot;index&quot;:null}" fill="#000000" stroke="none" stroke-width="0"/><path d="M313.00629,182.43217c2.92491,-2.71981 9.49343,0.89794 13.52625,5.23487c0.32742,0.35211 1.56382,1.30264 2.25583,3.05166c0.50503,1.27645 1.25526,4.08937 1.05491,4.17139c-0.61803,0.25302 -2.05766,1.09147 -3.27908,1.54881c-0.67384,0.25229 -4.07747,1.24882 -6.66163,1.05587c-3.81784,-0.28505 -7.14294,-1.96131 -7.78823,-2.65525c-4.03282,-4.33693 -2.03296,-9.68757 0.89194,-12.40736z" fill="#000000" stroke="none" stroke-width="0"/><path d="M333.34429,178.77489l-9.84793,13.65236l-5.78016,-7.97383c0,0 4.70518,-6.40381 6.16978,-8.39714c0.32885,-0.44755 0.70168,-0.95499 1.02855,-1.39988c0.47818,-0.6508 0.85804,-1.1678 0.85804,-1.1678z" fill="#000000" stroke="none" stroke-width="0"/><path d="M294.18946,180.53006c-0.50169,-0.61875 -0.87257,-5.19057 0.14171,-8.22455c0.48696,-1.45669 1.00289,-3.70101 2.77786,-4.2646c1.65208,-0.52459 4.48155,0.50005 7.13799,2.54511c2.9979,2.30794 4.99508,7.73539 2.86498,9.90188c-2.80021,2.84803 -7.35815,6.90505 -12.92254,0.04217z" data-paper-data="{&quot;index&quot;:null}" fill="#000000" stroke="none" stroke-width="0"/><path d="M303.844,158.91716c1.15445,-2.43563 6.59757,-8.94364 11.96226,-9.65003c6.44923,-0.8492 14.38416,0.99626 19.98274,7.01703c7.45601,8.01827 4.70879,22.01235 -0.53587,26.88926c-2.67504,2.48747 -9.09332,-6.88977 -17.14935,-12.76716c-7.73847,-5.6457 -15.76265,-8.31837 -14.25977,-11.48908z" fill="#000000" stroke="none" stroke-width="0"/><g fill="#ffffff" stroke="none" stroke-width="0"><path d="M326.92183,150.32868c0.12985,0.13965 0.3956,0.25254 -0.0736,0.68884c-0.4692,0.4363 -1.46026,1.14679 -1.59012,1.00714c-0.12985,-0.13965 0.42444,-1.16394 0.89362,-1.60023c0.4692,-0.4363 0.64026,-0.23538 0.77011,-0.09571z" data-paper-data="{&quot;index&quot;:null}"/><path d="M328.23456,152.08586c-0.4692,0.4363 -1.46027,1.14678 -1.59014,1.00713c-0.12985,-0.13965 0.42444,-1.16393 0.89362,-1.60023c0.4692,-0.4363 0.64026,-0.23539 0.77011,-0.09572c0.12985,0.13965 0.3956,0.25253 -0.0736,0.68883z" data-paper-data="{&quot;index&quot;:null}"/><path d="M335.82825,156.04946c0.1535,0.11315 0.37259,0.26025 -0.00754,0.776c-0.38011,0.51575 -1.33475,1.18291 -1.48827,1.06977c-0.1535,-0.11315 0.43969,-1.17858 0.81981,-1.69433c0.38011,-0.51575 0.52248,-0.26459 0.676,-0.15145z" data-paper-data="{&quot;index&quot;:null}"/><path d="M333.75797,154.75264c0.1535,0.11315 0.37256,0.26025 -0.00756,0.77601c-0.38011,0.51575 -1.33474,1.1829 -1.48824,1.06976c-0.1535,-0.11315 0.4397,-1.17856 0.81982,-1.69432c0.38011,-0.51575 0.52251,-0.2646 0.67601,-0.15146z" data-paper-data="{&quot;index&quot;:null}"/><path d="M331.81115,153.41959c0.1535,0.11315 0.37256,0.26026 -0.00756,0.77602c-0.38011,0.51575 -1.33474,1.18289 -1.48824,1.06975c-0.1535,-0.11315 0.43968,-1.17858 0.8198,-1.69433c0.38011,-0.51575 0.52251,-0.2646 0.67601,-0.15143z" data-paper-data="{&quot;index&quot;:null}"/><path d="M329.76824,152.49028c0.1535,0.11315 0.37256,0.26025 -0.00756,0.77601c-0.38011,0.51575 -1.33474,1.18289 -1.48824,1.06975c-0.1535,-0.11315 0.43968,-1.17857 0.81979,-1.69432c0.38011,-0.51575 0.52251,-0.2646 0.67601,-0.15143z" data-paper-data="{&quot;index&quot;:null}"/></g><g fill="#ffffff" stroke="none" stroke-width="0"><path d="M332.02989,181.10026c0.6235,-0.5197 1.97229,-1.30386 2.184,-1.06081c0.21172,0.24305 -0.44831,1.61304 -1.07182,2.13273c-0.6235,0.5197 -0.90497,0.17436 -1.11671,-0.06869c-0.21172,-0.24305 -0.61899,-0.48354 0.00451,-1.00324z"/><path d="M329.92025,179.42676c0.6235,-0.5197 1.9723,-1.30385 2.18402,-1.06081c0.21172,0.24305 -0.44833,1.61304 -1.07184,2.13273c-0.6235,0.5197 -0.90497,0.17434 -1.11671,-0.06869c-0.21172,-0.24305 -0.619,-0.48353 0.0045,-1.00324z"/><path d="M328.38137,177.73508c0.6235,-0.5197 1.97229,-1.30386 2.18401,-1.06081c0.21172,0.24305 -0.44832,1.61302 -1.07182,2.13273c-0.6235,0.5197 -0.90497,0.17435 -1.11669,-0.06868c-0.21172,-0.24305 -0.61898,-0.48354 0.00452,-1.00325z"/><path d="M326.50266,176.32668c0.6235,-0.5197 1.97229,-1.30386 2.18402,-1.06082c0.21172,0.24305 -0.44831,1.61304 -1.07182,2.13273c-0.6235,0.5197 -0.90498,0.17436 -1.11671,-0.06869c-0.21172,-0.24305 -0.61899,-0.48354 0.00451,-1.00324z"/><path d="M324.5268,174.98289c0.6235,-0.5197 1.84292,-1.17964 2.05467,-0.93659c0.21172,0.24305 -0.31897,1.48881 -0.94249,2.00851c-0.6235,0.5197 -1.73568,-0.55223 -1.11217,-1.07193z"/><path d="M322.63126,173.52861c0.6235,-0.5197 1.97229,-1.30385 2.18402,-1.06081c0.21172,0.24305 -0.44832,1.61301 -1.07182,2.13273c-0.6235,0.5197 -0.90497,0.17437 -1.11669,-0.06868c-0.21172,-0.24305 -0.61899,-0.48354 0.00451,-1.00324z"/><path d="M320.67486,171.95616c0.6235,-0.5197 1.97228,-1.30386 2.18401,-1.06082c0.21172,0.24305 -0.44831,1.61304 -1.07182,2.13273c-0.6235,0.5197 -0.90498,0.17436 -1.11671,-0.06869c-0.21172,-0.24305 -0.61898,-0.48354 0.00452,-1.00324z"/><path d="M319.06119,170.40311c0.6235,-0.5197 1.97229,-1.30386 2.18402,-1.06082c0.21172,0.24305 -0.44831,1.61304 -1.07182,2.13273c-0.6235,0.5197 -0.90498,0.17436 -1.11671,-0.06869c-0.21172,-0.24305 -0.61898,-0.48354 0.00452,-1.00324z"/><path d="M317.14252,168.79922c0.6235,-0.5197 1.97229,-1.30385 2.18402,-1.06081c0.21172,0.24305 -0.44831,1.61304 -1.07182,2.13273c-0.6235,0.5197 -0.90499,0.17434 -1.11671,-0.06869c-0.21172,-0.24305 -0.61898,-0.48354 0.00452,-1.00324z"/><path d="M315.34376,167.78179c0.6235,-0.5197 1.97229,-1.30385 2.18402,-1.06081c0.21172,0.24305 -0.44833,1.61301 -1.07182,2.13273c-0.6235,0.5197 -0.90497,0.17437 -1.11669,-0.06868c-0.21172,-0.24305 -0.61899,-0.48354 0.00451,-1.00324z"/><path d="M313.69012,166.03322c0.6235,-0.5197 1.9723,-1.30385 2.18402,-1.06081c0.21172,0.24305 -0.44833,1.61304 -1.07184,2.13273c-0.6235,0.5197 -0.90497,0.17434 -1.11671,-0.06869c-0.21172,-0.24305 -0.619,-0.48353 0.0045,-1.00324z"/><path d="M312.15638,164.87114c0.6235,-0.5197 1.97229,-1.30386 2.18402,-1.06082c0.21172,0.24305 -0.44833,1.61304 -1.07184,2.13273c-0.6235,0.5197 -0.90497,0.17435 -1.11671,-0.06869c-0.21172,-0.24305 -0.61898,-0.48354 0.00452,-1.00325z"/><path d="M310.39387,163.67093c0.6235,-0.5197 1.9723,-1.30386 2.18402,-1.06082c0.21172,0.24305 -0.44833,1.61305 -1.07184,2.13276c-0.6235,0.5197 -0.90497,0.17434 -1.11671,-0.06869c-0.21172,-0.24305 -0.619,-0.48353 0.0045,-1.00324z"/><path d="M308.82236,162.54032c0.6235,-0.5197 1.97228,-1.30386 2.18401,-1.06082c0.21172,0.24305 -0.44831,1.61304 -1.07182,2.13273c-0.6235,0.5197 -0.90499,0.17434 -1.11671,-0.06869c-0.21172,-0.24305 -0.61898,-0.48354 0.00452,-1.00324z"/><path d="M307.13685,161.42846c0.6235,-0.5197 1.97229,-1.30385 2.18402,-1.06081c0.21172,0.24305 -0.44833,1.61304 -1.07184,2.13273c-0.6235,0.5197 -0.90496,0.17434 -1.11671,-0.06869c-0.21172,-0.24305 -0.61899,-0.48354 0.00451,-1.00324z"/><path d="M305.56681,160.44917c0.6235,-0.5197 1.97229,-1.30386 2.18402,-1.06082c0.21172,0.24305 -0.44834,1.61303 -1.07184,2.13273c-0.6235,0.5197 -0.90496,0.17435 -1.11669,-0.06868c-0.21172,-0.24305 -0.61898,-0.48354 0.00452,-1.00324z"/></g><path d="M303.91728,158.72133c1.15445,-2.43563 6.59756,-8.94365 11.96225,-9.65004c6.44923,-0.8492 14.38417,0.99626 19.98274,7.01703c7.45601,8.01826 4.70878,22.01234 -0.53588,26.88925c-2.67504,2.48747 -9.09331,-6.88977 -17.14935,-12.76716c-7.73847,-5.6457 -15.76265,-8.31837 -14.25977,-11.48908z" fill="none" stroke="#000000" stroke-width="0.5"/><path d="M326.8409,150.00883c0.67084,-0.9841 3.11748,-0.9005 5.48827,0.83887c2.37079,1.73938 4.20428,3.73224 3.53341,4.71635c-0.67084,0.9841 -9.69254,-4.57112 -9.02168,-5.55523z" fill="#0c0c0c" stroke="none" stroke-width="0"/><path d="M313.36303,167.10351c0.74031,-0.93299 3.15526,-0.14391 5.39398,1.76243c2.23872,1.90634 3.45346,4.20809 2.71315,5.14108c-0.74031,0.93299 -3.15527,0.14391 -5.394,-1.76243c-2.23872,-1.90634 -3.45344,-4.20809 -2.71314,-5.14108z" fill="#0c0c0c" stroke="none" stroke-width="0"/><path d="M318.4224,188.50275c0.66568,-0.61899 1.70707,-0.58116 2.32608,0.08451c0.61899,0.66567 0.58115,1.70709 -0.08452,2.32608c-0.66568,0.619 -1.70708,0.58115 -2.32607,-0.08452c-0.61899,-0.66567 -0.58116,-1.70708 0.08451,-2.32608z" fill="#ffffff" stroke="none" stroke-width="0"/><path d="M300.83612,175.67713c0.66568,-0.619 1.70707,-0.58116 2.32608,0.08451c0.61899,0.66567 0.58115,1.70709 -0.08452,2.32608c-0.66568,0.61899 -1.70708,0.58115 -2.32607,-0.08452c-0.61899,-0.66567 -0.58116,-1.70708 0.08451,-2.32608z" fill="#ffffff" stroke="none" stroke-width="0"/></g></g></g></svg>