<svg version="1.1" xmlns="http://www.w3.org/2000/svg" xmlns:xlink="http://www.w3.org/1999/xlink" width="73.82584" height="121.67065" viewBox="0,0,73.82584,121.67065"><defs><linearGradient x1="343.66979" y1="229.98055" x2="343.66979" y2="237.31152" gradientUnits="userSpaceOnUse" id="color-1"><stop offset="0" stop-color="#c1685b"/><stop offset="1" stop-color="#a4351f"/></linearGradient><linearGradient x1="319.14598" y1="233.50435" x2="319.14598" y2="240.83532" gradientUnits="userSpaceOnUse" id="color-2"><stop offset="0" stop-color="#c1685b"/><stop offset="1" stop-color="#a4351f"/></linearGradient><linearGradient x1="335.82994" y1="198.03" x2="356.91292" y2="198.03" gradientUnits="userSpaceOnUse" id="color-3"><stop offset="0" stop-color="#000000"/><stop offset="1" stop-color="#141414"/></linearGradient><linearGradient x1="319.8802" y1="119.16468" x2="319.8802" y2="182.10689" gradientUnits="userSpaceOnUse" id="color-4"><stop offset="0" stop-color="#1d1d1d"/><stop offset="1" stop-color="#0b131a"/></linearGradient><linearGradient x1="325.06205" y1="130.51898" x2="325.06205" y2="172.90215" gradientUnits="userSpaceOnUse" id="color-5"><stop offset="0" stop-color="#f1eaff"/><stop offset="1" stop-color="#b5adc5"/></linearGradient><radialGradient cx="320.67041" cy="144.14541" r="9.69336" gradientUnits="userSpaceOnUse" id="color-6"><stop offset="0" stop-color="#ffffff"/><stop offset="1" stop-color="#d0d1e0"/></radialGradient><linearGradient x1="317.09748" y1="142.02639" x2="317.09748" y2="153.24068" gradientUnits="userSpaceOnUse" id="color-7"><stop offset="0" stop-color="#08294d"/><stop offset="1" stop-color="#000000"/></linearGradient><radialGradient cx="341.84294" cy="143.79284" r="6.96762" gradientUnits="userSpaceOnUse" id="color-8"><stop offset="0" stop-color="#ffffff"/><stop offset="1" stop-color="#d0d1e0"/></radialGradient><linearGradient x1="338.39076" y1="141.89028" x2="338.39076" y2="152.30896" gradientUnits="userSpaceOnUse" id="color-9"><stop offset="0" stop-color="#08294d"/><stop offset="1" stop-color="#000000"/></linearGradient><linearGradient x1="329.00553" y1="155.67583" x2="329.00553" y2="163.74725" gradientUnits="userSpaceOnUse" id="color-10"><stop offset="0" stop-color="#b2472e"/><stop offset="1" stop-color="#9b2414"/></linearGradient><linearGradient x1="329.36268" y1="154.15645" x2="329.36268" y2="161.6044" gradientUnits="userSpaceOnUse" id="color-11"><stop offset="0" stop-color="#b2472e"/><stop offset="1" stop-color="#9b2414"/></linearGradient><linearGradient x1="289.17752" y1="201.46201" x2="349.18412" y2="201.46201" gradientUnits="userSpaceOnUse" id="color-12"><stop offset="0" stop-color="#000000"/><stop offset="1" stop-color="#151515"/></linearGradient><linearGradient x1="288.49295" y1="168.26907" x2="350.00765" y2="168.26907" gradientUnits="userSpaceOnUse" id="color-13"><stop offset="0" stop-color="#000000"/><stop offset="1" stop-color="#202020"/></linearGradient><radialGradient cx="340.77386" cy="167.84568" r="5.20527" gradientUnits="userSpaceOnUse" id="color-14"><stop offset="0" stop-color="#c04648"/><stop offset="1" stop-color="#971719"/></radialGradient><radialGradient cx="338.87386" cy="168.19568" r="2.93333" gradientUnits="userSpaceOnUse" id="color-15"><stop offset="0" stop-color="#c04648"/><stop offset="1" stop-color="#971719"/></radialGradient><linearGradient x1="283.08708" y1="201.47284" x2="304.17006" y2="201.47284" gradientUnits="userSpaceOnUse" id="color-16"><stop offset="0" stop-color="#000000"/><stop offset="1" stop-color="#141414"/></linearGradient><linearGradient x1="337.86227" y1="175.42521" x2="337.86227" y2="179.75854" gradientUnits="userSpaceOnUse" id="color-17"><stop offset="0" stop-color="#000000"/><stop offset="1" stop-color="#000006"/></linearGradient><linearGradient x1="337.71942" y1="190.42521" x2="337.71942" y2="194.75854" gradientUnits="userSpaceOnUse" id="color-18"><stop offset="0" stop-color="#000000"/><stop offset="1" stop-color="#000006"/></linearGradient><linearGradient x1="337.71942" y1="199.1252" x2="337.71942" y2="203.45854" gradientUnits="userSpaceOnUse" id="color-19"><stop offset="0" stop-color="#000000"/><stop offset="1" stop-color="#000006"/></linearGradient></defs><g transform="translate(-283.08708,-119.16467)"><g data-paper-data="{&quot;isPaintingLayer&quot;:true}" fill-rule="nonzero" stroke-width="0" stroke-linejoin="miter" stroke-miterlimit="10" stroke-dasharray="" stroke-dashoffset="0" style="mix-blend-mode: normal"><path d="M346.43316,229.98054c0,0 2.19148,0.05555 4.79343,1.33588c2.60194,1.28033 6.71105,2.6196 5.10775,3.53614c-0.8853,0.50609 -7.70092,0.23574 -7.70092,0.23574c0,0 2.70301,1.20097 -0.3929,1.49304c-3.09591,0.29207 -7.93667,-0.70723 -7.93667,-0.70723c0,0 -8.10268,2.61976 -9.50829,0.78581c-1.24152,-1.61984 5.57924,-6.12931 5.57924,-6.12931z" data-paper-data="{&quot;index&quot;:null}" fill="url(#color-1)" stroke="#000000" stroke-linecap="round"/><path d="M321.90935,233.50435c0,0 2.19148,0.05556 4.79343,1.33588c2.60195,1.28032 6.71107,2.6196 5.10776,3.53614c-0.88531,0.50609 -7.70093,0.23574 -7.70093,0.23574c0,0 2.70301,1.20097 -0.3929,1.49304c-3.09591,0.29207 -7.93667,-0.70723 -7.93667,-0.70723c0,0 -8.10268,2.61976 -9.50829,0.78581c-1.24152,-1.61984 5.57924,-6.12931 5.57924,-6.12931z" data-paper-data="{&quot;index&quot;:null}" fill="url(#color-2)" stroke="#000000" stroke-linecap="round"/><path d="M356.91238,198.25516c-0.02627,11.53018 -9.4,27.2 -9.4,27.2c0,0 -10.82883,-17.56881 -11.475,-28.45c-0.64616,-10.88119 -0.50779,-26.27879 11.6,-26.4c8.3974,-0.08406 9.30128,16.11982 9.275,27.65z" data-paper-data="{&quot;index&quot;:null}" fill="url(#color-3)" stroke="#000000" stroke-linecap="round"/><path d="M347.35557,150.46404c0,9.15051 0.47783,31.26474 0.47783,31.26474l-55.19211,0.37811c0,0 -0.71429,-14.71927 -0.71429,-31.64285c0,-16.92359 4.89719,-30.00756 26.28572,-31.21429c24.49566,-1.38202 29.14285,14.2907 29.14285,31.21429z" data-paper-data="{&quot;index&quot;:null}" fill="url(#color-4)" stroke="#000000" stroke-linecap="butt"/><path d="M346.89128,146.57832c0,3.87138 0.01233,8.71258 -1.23764,12.69512c-0.42523,1.35482 2.17337,5.08018 1.60352,6.362c-3.95426,8.89467 -40.55889,9.70014 -43.99514,1.99513c-0.77154,-1.73001 4.43937,-4.52197 3.82581,-6.56138c-1.31267,-4.36314 -4.46418,-4.66261 -4.29655,-15.89087c-0.1,-9.42722 6.03541,-14.67407 21.9,-14.65c18.54734,0.02813 22.2,-1.17722 22.2,16.05z" data-paper-data="{&quot;index&quot;:null}" fill="url(#color-5)" stroke="none" stroke-linecap="butt"/><path d="M306.14524,146.99975c0,-5.77707 4.68324,-10.46032 10.46032,-10.46032c5.77708,0 10.46032,4.68324 10.46032,10.46032c0,5.77707 -4.68324,10.46032 -10.46032,10.46032c-5.77708,0 -10.46032,-4.68324 -10.46032,-10.46032z" data-paper-data="{&quot;index&quot;:null}" fill="#000000" stroke="none" stroke-linecap="butt"/><path d="M307.31984,147.34102c0,-5.25094 4.33986,-9.50767 9.69336,-9.50767c5.3535,0 9.69336,4.25673 9.69336,9.50767c0,5.25094 -4.33986,9.50767 -9.69336,9.50767c-5.3535,0 -9.69336,-4.25673 -9.69336,-9.50767z" data-paper-data="{&quot;index&quot;:null}" fill="url(#color-6)" stroke="none" stroke-linecap="butt"/><path d="M311.49033,147.63354c0,-3.09674 2.5104,-5.60714 5.60714,-5.60714c3.09674,0 5.60714,2.5104 5.60714,5.60714c0,3.09674 -2.5104,5.60714 -5.60714,5.60714c-3.09674,0 -5.60714,-2.5104 -5.60714,-5.60714z" data-paper-data="{&quot;index&quot;:null}" fill="url(#color-7)" stroke="none" stroke-linecap="butt"/><path d="M315.69006,147.50337c0,-0.76925 0.6236,-1.39286 1.39286,-1.39286c0.76925,0 1.39286,0.6236 1.39286,1.39286c0,0.76925 -0.6236,1.39286 -1.39286,1.39286c-0.76925,0 -1.39286,-0.6236 -1.39286,-1.39286z" data-paper-data="{&quot;index&quot;:null}" fill="#ffffff" stroke="none" stroke-linecap="butt"/><path d="M331.90913,146.62475c0,-5.42423 3.24993,-9.82143 7.25893,-9.82143c4.009,0 7.25893,4.3972 7.25893,9.82143c0,5.42423 -3.24993,9.82143 -7.25893,9.82143c-4.009,0 -7.25893,-4.3972 -7.25893,-9.82143z" data-paper-data="{&quot;index&quot;:null}" fill="#000000" stroke="none" stroke-linecap="butt"/><path d="M332.24651,146.77908c0,-4.90691 3.11951,-8.88475 6.96762,-8.88475c3.84811,0 6.96762,3.97784 6.96762,8.88475c0,4.90691 -3.11951,8.88475 -6.96762,8.88475c-3.84811,0 -6.96762,-3.97783 -6.96762,-8.88475z" data-paper-data="{&quot;index&quot;:null}" fill="url(#color-8)" stroke="none" stroke-linecap="butt"/><path d="M333.90422,147.09962c0,-2.87704 2.00869,-5.20934 4.48654,-5.20934c2.47785,0 4.48654,2.3323 4.48654,5.20934c0,2.87704 -2.00869,5.20933 -4.48654,5.20933c-2.47785,0 -4.48654,-2.33229 -4.48654,-5.20933z" data-paper-data="{&quot;index&quot;:null}" fill="url(#color-9)" stroke="none" stroke-linecap="butt"/><path d="M333.82696,159.71154c0,2.22887 -2.15863,4.03571 -4.82143,4.03571c-2.6628,0 -4.82142,-1.80685 -4.82142,-4.03571c0,-2.22887 2.15862,-4.03572 4.82142,-4.03572c2.6628,0 4.82143,1.80685 4.82143,4.03572z" data-paper-data="{&quot;index&quot;:null}" fill="url(#color-10)" stroke="none" stroke-linecap="butt"/><path d="M337.14491,147.23344c0,-0.71467 0.5503,-1.29405 1.22914,-1.29405c0.67883,0 1.22914,0.57936 1.22914,1.29405c0,0.71467 -0.5503,1.29404 -1.22914,1.29404c-0.67883,0 -1.22914,-0.57935 -1.22914,-1.29404z" data-paper-data="{&quot;index&quot;:null}" fill="#ffffff" stroke="none" stroke-linecap="butt"/><path d="M329.18411,154.17583c3.13193,-0.37903 5.57142,4.92857 5.57142,4.92857l-2.14285,2.5l-8.64286,-2.28571c0,0 2.08236,-4.76383 5.21429,-5.14286z" data-paper-data="{&quot;index&quot;:null}" fill="url(#color-11)" stroke="#000000" stroke-linecap="round"/><path d="M291.07301,230.37832c-2.57916,-1.22888 -1.77777,-62.44444 -1.77777,-62.44444l59.88888,1.55555l-0.33333,60.22222c0,0 -35.21129,11.41885 -57.77778,0.66667z" data-paper-data="{&quot;index&quot;:null}" fill="url(#color-12)" stroke="none" stroke-linecap="butt"/><path d="M343.45751,169.95854l-5.37143,17.86667l-6.42857,-17.8z" data-paper-data="{&quot;index&quot;:null}" fill="#ffffff" stroke="#000000" stroke-linecap="round"/><path d="M292.19254,163.70022c0,0 17.17052,3.48262 32.54412,3.33193c13.08296,-0.12823 22.67016,-2.80252 22.67016,-2.80252l-0.01261,-1.70588l2.61345,1.17647v6.82353c0,0 -6.4675,3.65602 -24.45588,4.11764c-23.20436,0.59547 -37.05883,-4.38235 -37.05883,-4.38235v-7.11765l3.55462,-1.29412z" data-paper-data="{&quot;index&quot;:null}" fill="url(#color-13)" stroke="#000000" stroke-linecap="round"/><path d="M336.92386,170.44568l-4.3,4.3c0,0 -2.12746,-1.91731 -2.4,-5.1c-0.30445,-3.55545 1.25,-5.25 1.25,-5.25l5.4,3.2z" data-paper-data="{&quot;index&quot;:null}" fill="#991619" stroke="#000000" stroke-linecap="round"/><path d="M338.62688,167.73832l5.10498,-3.65228c0,0 1.69434,1.55468 1.6966,5.12314c0.00202,3.19434 -1.95279,5.2874 -1.95279,5.2874l-4.65366,-3.91451z" data-paper-data="{&quot;index&quot;:null}" fill="url(#color-14)" stroke="#000000" stroke-linecap="round"/><path d="M334.93219,169.22068c0,-1.62004 1.3133,-2.93333 2.93333,-2.93333c1.62003,0 2.93333,1.3133 2.93333,2.93333c0,1.62004 -1.3133,2.93333 -2.93333,2.93333c-1.62003,0 -2.93333,-1.3133 -2.93333,-2.93333z" data-paper-data="{&quot;index&quot;:null}" fill="url(#color-15)" stroke="none" stroke-linecap="butt"/><path d="M304.16952,201.69801c-0.02628,11.53017 -9.4,27.2 -9.4,27.2c0,0 -10.82884,-17.56881 -11.475,-28.45c-0.64616,-10.88119 -0.50779,-26.2788 11.6,-26.4c8.3974,-0.08406 9.30128,16.11983 9.275,27.65z" data-paper-data="{&quot;index&quot;:null}" fill="url(#color-16)" stroke="#000000" stroke-linecap="round"/><path d="M335.69561,177.59187c0,-1.19662 0.97005,-2.16667 2.16667,-2.16667c1.19662,0 2.16667,0.97005 2.16667,2.16667c0,1.19662 -0.97005,2.16667 -2.16667,2.16667c-1.19662,0 -2.16667,-0.97005 -2.16667,-2.16667z" data-paper-data="{&quot;index&quot;:null}" fill="url(#color-17)" stroke="none" stroke-linecap="butt"/><path d="M335.55275,192.59187c0,-1.19662 0.97006,-2.16666 2.16667,-2.16666c1.19662,0 2.16667,0.97005 2.16667,2.16666c0,1.19662 -0.97005,2.16667 -2.16667,2.16667c-1.19662,0 -2.16667,-0.97006 -2.16667,-2.16667z" data-paper-data="{&quot;index&quot;:null}" fill="url(#color-18)" stroke="none" stroke-linecap="butt"/><path d="M335.55275,201.29187c0,-1.19662 0.97006,-2.16666 2.16667,-2.16666c1.19662,0 2.16667,0.97005 2.16667,2.16666c0,1.19662 -0.97005,2.16667 -2.16667,2.16667c-1.19662,0 -2.16667,-0.97006 -2.16667,-2.16667z" data-paper-data="{&quot;index&quot;:null}" fill="url(#color-19)" stroke="none" stroke-linecap="butt"/></g></g></svg>