<svg version="1.1" xmlns="http://www.w3.org/2000/svg" xmlns:xlink="http://www.w3.org/1999/xlink" width="291.42417" height="314.34708" viewBox="0,0,291.42417,314.34708"><defs><linearGradient x1="318.2487" y1="202.6104" x2="318.2487" y2="279.76166" gradientUnits="userSpaceOnUse" id="color-1"><stop offset="0" stop-color="#f9f9f9"/><stop offset="1" stop-color="#dadada"/></linearGradient><radialGradient cx="439.84098" cy="72.86553" r="28.05492" gradientUnits="userSpaceOnUse" id="color-2"><stop offset="0" stop-color="#e8003e"/><stop offset="1" stop-color="#c31046"/></radialGradient><radialGradient cx="391.86684" cy="67.49753" r="21.74805" gradientUnits="userSpaceOnUse" id="color-3"><stop offset="0" stop-color="#fa3755"/><stop offset="1" stop-color="#cc1041"/></radialGradient><radialGradient cx="386.08914" cy="78.56449" r="12.27995" gradientUnits="userSpaceOnUse" id="color-4"><stop offset="0" stop-color="#4f40d2"/><stop offset="1" stop-color="#0308b3"/></radialGradient><radialGradient cx="441.52073" cy="114.60699" r="20.6913" gradientUnits="userSpaceOnUse" id="color-5"><stop offset="0" stop-color="#e00440"/><stop offset="1" stop-color="#c31046"/></radialGradient><radialGradient cx="224.90228" cy="48.76723" r="28.05492" gradientUnits="userSpaceOnUse" id="color-6"><stop offset="0" stop-color="#e8003e"/><stop offset="1" stop-color="#c31046"/></radialGradient><radialGradient cx="213.90056" cy="89.06778" r="20.6913" gradientUnits="userSpaceOnUse" id="color-7"><stop offset="0" stop-color="#e00440"/><stop offset="1" stop-color="#c31046"/></radialGradient><radialGradient cx="272.85778" cy="54.29918" r="21.74805" gradientUnits="userSpaceOnUse" id="color-8"><stop offset="0" stop-color="#fa3755"/><stop offset="1" stop-color="#cc1041"/></radialGradient><radialGradient cx="276.00531" cy="66.38026" r="12.27995" gradientUnits="userSpaceOnUse" id="color-9"><stop offset="0" stop-color="#4f40d2"/><stop offset="1" stop-color="#0308b3"/></radialGradient><linearGradient x1="327.60192" y1="47.95867" x2="327.60192" y2="170.39216" gradientUnits="userSpaceOnUse" id="color-10"><stop offset="0" stop-color="#5e5e5e"/><stop offset="1" stop-color="#000000"/></linearGradient><linearGradient x1="353.7216" y1="98.10232" x2="350.30441" y2="127.51735" gradientUnits="userSpaceOnUse" id="color-11"><stop offset="0" stop-color="#5e5e5e"/><stop offset="1" stop-color="#3e3e3e"/></linearGradient><linearGradient x1="353.96876" y1="95.76429" x2="352.80064" y2="105.81941" gradientUnits="userSpaceOnUse" id="color-12"><stop offset="0" stop-color="#6c6c6c"/><stop offset="1" stop-color="#424242"/></linearGradient><linearGradient x1="353.61022" y1="96.95548" x2="352.2531" y2="108.63752" gradientUnits="userSpaceOnUse" id="color-13"><stop offset="0" stop-color="#6b6b6b"/><stop offset="1" stop-color="#424242"/></linearGradient><linearGradient x1="353.31136" y1="98.77001" x2="351.72941" y2="112.38749" gradientUnits="userSpaceOnUse" id="color-14"><stop offset="0" stop-color="#6b6b6b"/><stop offset="1" stop-color="#424242"/></linearGradient><linearGradient x1="345.1336" y1="112.02197" x2="357.65165" y2="113.47622" gradientUnits="userSpaceOnUse" id="color-15"><stop offset="0" stop-color="#2edb73"/><stop offset="1" stop-color="#79ff77"/></linearGradient><linearGradient x1="304.24318" y1="91.79227" x2="300.82597" y2="121.2073" gradientUnits="userSpaceOnUse" id="color-16"><stop offset="0" stop-color="#5e5e5e"/><stop offset="1" stop-color="#3e3e3e"/></linearGradient><linearGradient x1="304.49032" y1="89.45424" x2="303.3222" y2="99.50936" gradientUnits="userSpaceOnUse" id="color-17"><stop offset="0" stop-color="#6c6c6c"/><stop offset="1" stop-color="#424242"/></linearGradient><linearGradient x1="304.13176" y1="90.64543" x2="302.77464" y2="102.32747" gradientUnits="userSpaceOnUse" id="color-18"><stop offset="0" stop-color="#6b6b6b"/><stop offset="1" stop-color="#424242"/></linearGradient><linearGradient x1="303.83288" y1="92.45996" x2="302.25095" y2="106.07744" gradientUnits="userSpaceOnUse" id="color-19"><stop offset="0" stop-color="#6b6b6b"/><stop offset="1" stop-color="#424242"/></linearGradient><linearGradient x1="295.65513" y1="105.71192" x2="308.1732" y2="107.16617" gradientUnits="userSpaceOnUse" id="color-20"><stop offset="0" stop-color="#2edb73"/><stop offset="1" stop-color="#79ff77"/></linearGradient><radialGradient cx="323.98759" cy="109.37013" r="7.80965" gradientUnits="userSpaceOnUse" id="color-21"><stop offset="0" stop-color="#e1e1e1"/><stop offset="1" stop-color="#ffffff"/></radialGradient><radialGradient cx="328.88588" cy="109.90003" r="7.80967" gradientUnits="userSpaceOnUse" id="color-22"><stop offset="0" stop-color="#e1e1e1"/><stop offset="1" stop-color="#ffffff"/></radialGradient><radialGradient cx="375.63059" cy="109.49241" r="17.24413" gradientUnits="userSpaceOnUse" id="color-23"><stop offset="0" stop-color="#e1e1e1"/><stop offset="1" stop-color="#ffffff"/></radialGradient><radialGradient cx="280.05809" cy="98.99917" r="17.24332" gradientUnits="userSpaceOnUse" id="color-24"><stop offset="0" stop-color="#e1e1e1"/><stop offset="1" stop-color="#ffffff"/></radialGradient><radialGradient cx="298.30968" cy="77.15354" r="15.98603" gradientUnits="userSpaceOnUse" id="color-25"><stop offset="0" stop-color="#e1e1e1"/><stop offset="1" stop-color="#ffffff"/></radialGradient><radialGradient cx="362.16725" cy="84.51652" r="15.98603" gradientUnits="userSpaceOnUse" id="color-26"><stop offset="0" stop-color="#e1e1e1"/><stop offset="1" stop-color="#ffffff"/></radialGradient><radialGradient cx="285.87685" cy="62.69795" r="31.68235" gradientUnits="userSpaceOnUse" id="color-27"><stop offset="0" stop-color="#e1e1e1"/><stop offset="1" stop-color="#ffffff"/></radialGradient><radialGradient cx="309.85886" cy="77.28742" r="11.2067" gradientUnits="userSpaceOnUse" id="color-28"><stop offset="0" stop-color="#4841b0"/><stop offset="1" stop-color="#0006b3"/></radialGradient><radialGradient cx="376.85712" cy="72.7836" r="31.68235" gradientUnits="userSpaceOnUse" id="color-29"><stop offset="0" stop-color="#e1e1e1"/><stop offset="1" stop-color="#ffffff"/></radialGradient><radialGradient cx="350.66729" cy="82.34388" r="11.2067" gradientUnits="userSpaceOnUse" id="color-30"><stop offset="0" stop-color="#4841b0"/><stop offset="1" stop-color="#0006b3"/></radialGradient><linearGradient x1="294.53497" y1="115.21102" x2="294.53497" y2="170.54728" gradientUnits="userSpaceOnUse" id="color-31"><stop offset="0" stop-color="#ffffff"/><stop offset="1" stop-color="#e1e1e1"/></linearGradient><radialGradient cx="292.22996" cy="127.9588" r="13.15623" gradientUnits="userSpaceOnUse" id="color-32"><stop offset="0" stop-color="#ff8293"/><stop offset="1" stop-color="#ca0a3d"/></radialGradient><linearGradient x1="356.51203" y1="122.42998" x2="342.85519" y2="175.81134" gradientUnits="userSpaceOnUse" id="color-33"><stop offset="0" stop-color="#ffffff"/><stop offset="1" stop-color="#e1e1e1"/></linearGradient><radialGradient cx="355.61004" cy="135.29052" r="13.20578" gradientUnits="userSpaceOnUse" id="color-34"><stop offset="0" stop-color="#ff8293"/><stop offset="1" stop-color="#ca0a3d"/></radialGradient><radialGradient cx="326.69475" cy="117.44397" r="7.87187" gradientUnits="userSpaceOnUse" id="color-35"><stop offset="0" stop-color="#cc546f"/><stop offset="1" stop-color="#c7003f"/></radialGradient><radialGradient cx="323.68761" cy="115.9404" r="7.64526" gradientUnits="userSpaceOnUse" id="color-36"><stop offset="0" stop-color="#cc546f"/><stop offset="1" stop-color="#c7003f"/></radialGradient><radialGradient cx="327.95667" cy="46.03335" r="28.81906" gradientUnits="userSpaceOnUse" id="color-37"><stop offset="0" stop-color="#fe8091"/><stop offset="1" stop-color="#ca0a3d"/></radialGradient><radialGradient cx="338.15946" cy="47.64432" r="27.07717" gradientUnits="userSpaceOnUse" id="color-38"><stop offset="0" stop-color="#fe8091"/><stop offset="1" stop-color="#ca0a3d"/></radialGradient><radialGradient cx="301.62503" cy="181.28429" r="35.05771" gradientUnits="userSpaceOnUse" id="color-39"><stop offset="0" stop-color="#fc415d"/><stop offset="1" stop-color="#ca0a3d"/></radialGradient><radialGradient cx="336.42267" cy="181.28429" r="35.05771" gradientUnits="userSpaceOnUse" id="color-40"><stop offset="0" stop-color="#fc415d"/><stop offset="1" stop-color="#ca0a3d"/></radialGradient><radialGradient cx="321.9239" cy="230.46225" r="29.78499" gradientUnits="userSpaceOnUse" id="color-41"><stop offset="0" stop-color="#e87451"/><stop offset="1" stop-color="#e95f32"/></radialGradient><radialGradient cx="-27.67704" cy="57.41885" r="0.00268" gradientUnits="userSpaceOnUse" id="color-42"><stop offset="0" stop-color="#a6a6a6"/><stop offset="1" stop-color="#606060"/></radialGradient><radialGradient cx="314.06257" cy="244.53227" r="8.5538" gradientUnits="userSpaceOnUse" id="color-43"><stop offset="0" stop-color="#7d7d7d"/><stop offset="1" stop-color="#676767"/></radialGradient><radialGradient cx="322.23334" cy="252.37471" r="8.55383" gradientUnits="userSpaceOnUse" id="color-44"><stop offset="0" stop-color="#7d7d7d"/><stop offset="1" stop-color="#676767"/></radialGradient><radialGradient cx="314.21684" cy="252.52898" r="8.5538" gradientUnits="userSpaceOnUse" id="color-45"><stop offset="0" stop-color="#7d7d7d"/><stop offset="1" stop-color="#676767"/></radialGradient><radialGradient cx="321.97719" cy="244.44029" r="8.5538" gradientUnits="userSpaceOnUse" id="color-46"><stop offset="0" stop-color="#7d7d7d"/><stop offset="1" stop-color="#676767"/></radialGradient><radialGradient cx="318.13807" cy="248.44359" r="4.85618" gradientUnits="userSpaceOnUse" id="color-47"><stop offset="0" stop-color="#a6a6a6"/><stop offset="1" stop-color="#737373"/></radialGradient><radialGradient cx="337.11233" cy="283.85685" r="115.04988" gradientUnits="userSpaceOnUse" id="color-48"><stop offset="0" stop-color="#d62951"/><stop offset="1" stop-color="#ca0a3d"/></radialGradient></defs><g transform="translate(-174.28791,-22.82647)"><g data-paper-data="{&quot;isPaintingLayer&quot;:true}" fill-rule="nonzero" stroke-linejoin="miter" stroke-miterlimit="10" stroke-dasharray="" stroke-dashoffset="0" style="mix-blend-mode: normal"><g data-paper-data="{&quot;index&quot;:null}" stroke="none" stroke-linecap="butt"><path d="M192.28865,226.79299l-7.63577,-4.72954l0.35787,-1.01263l7.56304,4.63514z" fill="#1f1d75" stroke-width="0.5"/><path d="M179.55241,221.47016c-0.76035,-1.59153 -0.08658,-3.49807 1.50497,-4.25843c1.59153,-0.76035 3.49805,-0.08656 4.25841,1.50497c0.76035,1.59153 0.08658,3.49807 -1.50494,4.25843c-1.59153,0.76035 -3.49807,0.08656 -4.25843,-1.50497z" fill="#302db1" stroke-width="0"/></g><g data-paper-data="{&quot;index&quot;:null}"><path d="M405.26906,214.47016l5.61536,-6.86669l0.6713,0.83837l-5.65297,6.97978z" fill="#1f1d75" stroke="none" stroke-width="0.5" stroke-linecap="butt"/><path d="M373.77152,194.84799c0,0 14.82223,4.92655 22.56548,10.90111c7.74325,5.97456 17.03473,19.65371 17.03473,19.65371c0,0 -5.29598,13.2145 -10.66486,20.43056c-5.36886,7.21606 -11.61859,9.5197 -11.61859,9.5197c0,0 -14.10629,-2.99825 -21.43093,-8.13424c-7.32464,-5.136 -18.00984,-19.52148 -18.00984,-19.52148z" fill="#e0e0e0" stroke="#000000" stroke-width="0" stroke-linecap="round"/><path d="M385.61447,200.66068c0,0 4.03148,-0.71725 12.07362,5.89824c9.86945,8.11863 16.11212,19.31152 16.11212,19.31152l-5.97697,12.78528l-30.08247,-23.25858l7.87372,-14.73644z" fill="#8c959c" stroke="#000000" stroke-width="0" stroke-linecap="round"/><path d="M412.65096,209.02544c-1.75312,-0.194 -3.01704,-1.77245 -2.82306,-3.52557c0.19398,-1.75312 1.77243,-3.01704 3.52555,-2.82304c1.75314,0.194 3.01706,1.77241 2.82306,3.52555c-0.19398,1.75312 -1.77245,3.01706 -3.52555,2.82306z" fill="#302db1" stroke="none" stroke-width="0" stroke-linecap="butt"/></g><path d="M224.56063,203.65435l-4.85103,-7.55917l0.75943,-0.75943l4.82609,7.44262z" fill="#1f1d75" stroke="none" stroke-width="0.5" stroke-linecap="butt"/><path d="M277.13664,221.82268c0,0 -12.20254,13.12304 -20.0476,17.42231c-7.84506,4.29926 -22.19554,5.72787 -22.19554,5.72787c0,0 -5.95847,-2.97702 -10.50112,-10.73978c-4.54267,-7.76276 -8.35316,-21.47956 -8.35316,-21.47956c0,0 10.73959,-12.57428 19.09294,-17.66097c8.35336,-5.08668 23.62751,-8.35316 23.62751,-8.35316z" fill="#e0e0e0" stroke="#000000" stroke-width="0" stroke-linecap="round"/><path d="M224.18521,181.10143l1.00237,-8.01905l14.89249,0.716l20.76358,12.74453l-27.35065,8.44862z" fill="#430817" stroke="#000000" stroke-width="0" stroke-linecap="round"/><path d="M403.39632,202.24089l-27.35065,-8.44862l20.76358,-12.74453l14.89251,-0.716l1.00237,8.01905z" data-paper-data="{&quot;index&quot;:null}" fill="#430817" stroke="#000000" stroke-width="0" stroke-linecap="round"/><path d="M277.66278,176.63968c0,0 -4.3739,4.41325 -7.7091,6.20214c-3.77102,2.02262 -13.77046,5.31873 -13.77046,5.31873c0,0 -5.7998,-5.97443 -8.59182,-5.07699c-2.79202,0.89744 3.12431,6.83441 3.12431,6.83441c0,0 -12.26047,-11.98016 -14.05936,-11.52086c-3.53955,0.90369 4.90342,15.05739 4.90342,15.05739c0,0 -13.30826,-18.26098 -15.6432,-18.37694c-2.23405,-0.11096 8.59182,20.11269 8.59182,20.11269l-1.17162,0.78106c0,0 -1.68133,1.7403 -9.56816,-12.88773c-1.68318,-3.12186 -1.39881,-8.2805 -1.36689,-8.98236c0.03192,-0.70187 1.75741,0.39054 1.75741,0.39054l0.19527,-7.02966c0,0 2.45591,-3.13591 18.25112,-0.41657c15.79521,2.71933 35.05724,9.59421 35.05724,9.59421z" fill="#ca0a3d" stroke="#000000" stroke-width="0" stroke-linecap="round"/><path d="M358.11509,183.08355c0,0 19.26203,-6.87488 35.05724,-9.59421c15.79521,-2.71933 18.25112,0.41657 18.25112,0.41657l0.19527,7.02966c0,0 1.7255,-1.09241 1.75741,-0.39054c0.03192,0.70187 0.31629,5.8605 -1.36689,8.98236c-7.88682,14.62803 -9.56816,12.88773 -9.56816,12.88773l-1.17162,-0.78106c0,0 10.82587,-20.22365 8.59182,-20.11269c-2.33494,0.11597 -16.59783,19.3316 -16.59783,19.3316c0,0 9.39761,-15.10833 5.85806,-16.01202c-1.79889,-0.4593 -14.05936,11.52086 -14.05936,11.52086c0,0 5.91633,-5.93697 3.12431,-6.83441c-2.79202,-0.89744 -8.59182,5.07699 -8.59182,5.07699c0,0 -9.99944,-3.2961 -13.77046,-5.31873c-3.3352,-1.78888 -7.7091,-6.20214 -7.7091,-6.20214z" data-paper-data="{&quot;index&quot;:null}" fill="#ca0a3d" stroke="#000000" stroke-width="0" stroke-linecap="round"/><path d="M317.35114,288.37522c88.86437,0.1214 111.6937,31.60562 111.6937,31.60562c0,0 -21.0429,13.25355 -36.20841,14.422c-15.16549,1.16845 -91.45618,5.42419 -154.95965,0.30684c-28.28808,-2.27956 -35.5947,-11.96719 -35.5947,-11.96719c0,0 25.88834,-34.48913 115.06907,-34.36729z" fill="#430817" stroke="#000000" stroke-width="0" stroke-linecap="round"/><path d="M259.67852,239.12567c0,0 9.24317,-29.35542 57.56522,-28.92581c59.3573,0.52769 61.14515,29.35538 61.14515,29.35538c0,0 -39.88402,14.88649 -62.57711,14.7493c-22.69309,-0.13721 -56.13326,-15.1789 -56.13326,-15.1789z" fill="#3f0011" stroke="#000000" stroke-width="0" stroke-linecap="round"/><path d="M318.20139,202.61042l54.77287,31.32437c0,0 1.86189,1.12927 0.17899,7.33883c-3.45825,12.7603 -11.99275,31.68235 -11.99275,31.68235c0,0 -25.97961,6.62421 -43.31712,6.80185c-17.3375,0.17764 -44.03309,-5.90688 -44.03309,-5.90688c0,0 -9.44465,-23.84706 -10.56079,-27.74442c-1.11614,-3.89736 -0.358,-10.3818 -0.358,-10.3818z" fill="url(#color-1)" stroke="#000000" stroke-width="0" stroke-linecap="round"/><path d="M346.16953,167.70613l6.26488,11.81376l-32.75633,10.02378l-35.79927,-16.10967l7.87585,-11.81376z" fill="#dadada" stroke="#000000" stroke-width="0" stroke-linecap="round"/><g><g data-paper-data="{&quot;index&quot;:null}" stroke-width="0"><path d="M375.12003,119.1157z" fill="#ca0a3d" stroke="none" stroke-linecap="butt"/><path d="M416.93463,47.31422c0,0 20.09032,-8.57193 38.00892,7.23511c20.76476,18.31783 5.1082,49.58844 5.1082,49.58844l-28.98368,-12.13054c0,0 -1.85435,-5.31666 -3.74006,-7.86053c-1.88573,-2.54385 -5.37767,-3.8817 -5.37767,-3.8817z" fill="url(#color-2)" stroke="#000000" stroke-linecap="round"/><path d="M386.17315,74.12099c0,0 5.39622,-11.83094 14.46992,-18.57239c7.37544,-5.47971 16.70897,-8.55155 16.70897,-8.55155c0,0 4.74264,9.57247 5.77411,16.20729c1.03147,6.63482 -0.55445,17.36775 -0.55445,17.36775c0,0 -5.6369,0.59771 -9.44765,1.54444c-3.81075,0.94673 -5.69402,2.4096 -9.54743,3.17457c-3.85341,0.76497 -10.37379,0.7802 -10.37379,0.7802z" fill="url(#color-3)" stroke="#000000" stroke-linecap="round"/><path d="M381.16184,75.82473c0,0 3.05171,-4.50985 5.32985,-3.50566c2.27814,1.00421 5.26816,4.90864 7.0404,8.95844c1.77224,4.0498 2.50928,6.76613 0.91782,10.60227c-1.59146,3.83612 -7.67121,5.67649 -7.67121,5.67649z" fill="url(#color-4)" stroke="#000000" stroke-linecap="round"/><path d="M460.29268,103.42553c0,0 -5.30401,7.28273 -8.53056,10.44996c-3.02542,2.96981 -7.47018,3.75338 -10.26416,7.99925c-2.79398,4.24589 0.8008,5.35546 3.63121,6.56675c2.8304,1.2113 10.43713,-2.0623 10.12067,-1.19663c-1.46622,4.01051 -8.791,9.71959 -16.10617,8.04745c-24.02063,-5.49078 -8.0724,-43.44329 -8.0724,-43.44329c0,0 3.26775,-1.50484 15.88184,4.11368c14.03081,6.24952 13.33962,7.46284 13.33962,7.46284z" fill="url(#color-5)" stroke="#000000" stroke-linecap="round"/></g><path d="M240.67679,59.99189c0,0 -3.70308,0.52032 -6.11145,2.57626c-2.40837,2.05594 -5.40825,6.82105 -5.40825,6.82105l-30.96635,5.31875c0,0 -8.24181,-33.98605 16.10327,-47.1783c21.00815,-11.38402 38.6632,1.47672 38.6632,1.47672z" fill="url(#color-6)" stroke="#000000" stroke-width="0" stroke-linecap="round"/><path d="M198.11571,73.95979c0,0 -0.40137,-1.33747 14.67387,-4.27982c13.55304,-2.64527 16.39988,-0.44568 16.39988,-0.44568c0,0 7.02693,40.56305 -17.61324,40.52477c-7.50382,-0.01166 -13.36106,-7.21853 -13.89012,-11.45576c-0.11419,-0.9146 6.5642,3.98214 9.59421,3.43673c3.03001,-0.54541 6.78208,-0.8202 5.01191,-5.58469c-1.77017,-4.76447 -5.92584,-6.52525 -8.20785,-10.09812c-2.43372,-3.81037 -5.96863,-12.09742 -5.96863,-12.09742z" fill="url(#color-7)" stroke="#000000" stroke-width="0" stroke-linecap="round"/><path d="M267.38879,72.09974c0,0 -6.35073,-1.47769 -9.9343,-3.08769c-3.58356,-1.61 -5.09061,-3.4581 -8.59182,-5.23564c-3.50121,-1.77754 -8.86032,-3.62468 -8.86032,-3.62468c0,0 0.86247,-10.81513 3.35618,-17.0494c2.49371,-6.23427 9.26306,-14.4987 9.26306,-14.4987c0,0 8.40641,5.08752 14.36445,12.08225c7.32994,8.60531 9.9343,21.34531 9.9343,21.34531z" fill="url(#color-8)" stroke="#000000" stroke-width="0" stroke-linecap="round"/><path d="M271.07247,84.73322c0,0 -5.51187,-3.15745 -6.20212,-7.25283c-0.69025,-4.0954 0.63743,-6.57713 3.27308,-10.12609c2.63565,-3.54896 6.42542,-6.68304 8.87078,-7.15054c2.44536,-0.4675 4.40748,4.61205 4.40748,4.61205z" fill="url(#color-9)" stroke="#000000" stroke-width="0" stroke-linecap="round"/><path d="M389.44369,109.17542c0,33.80908 -27.68749,61.21674 -61.84177,61.21674c-34.15426,0 -61.84177,-27.40768 -61.84177,-61.21674c0,-33.80908 27.68749,-61.21674 61.84177,-61.21674c34.15426,0 61.84177,27.40766 61.84177,61.21674z" fill="url(#color-10)" stroke="none" stroke-width="0" stroke-linecap="butt"/><g stroke="none" stroke-linecap="butt"><path d="M367.86988,114.65193c-0.94364,8.12273 -8.80797,13.88278 -17.56547,12.86542c-8.7575,-1.01738 -15.0919,-8.4269 -14.14826,-16.54963c0.94364,-8.12273 8.80795,-13.88278 17.56547,-12.8654c8.7575,1.01738 15.0919,8.42688 14.14828,16.54963z" fill="url(#color-11)" stroke-width="0"/><path d="M366.29824,112.52764c-0.94364,8.12273 -8.1272,13.96186 -16.04495,13.04204c-7.91773,-0.91982 -13.57139,-8.25026 -12.62775,-16.37299c0.94364,-8.12273 8.1272,-13.96184 16.04495,-13.04202c7.91773,0.91982 13.57139,8.25023 12.62775,16.37297z" fill="#ffffff" stroke-width="0"/><path d="M337.17591,106.24578c-0.88073,-0.51364 -0.29017,-2.6918 -0.23711,-3.32132c0.15766,-1.87154 4.23757,-4.46682 6.12185,-5.16152c2.14564,-0.79103 4.43171,-1.95868 6.91691,-2.3161c1.49884,-0.21555 3.18787,0.48018 4.66603,0.76819c4.02559,0.78437 7.25199,1.4149 9.66623,4.3143c0.68363,0.82101 2.99571,3.13503 4.03418,5.63134c1.03847,2.49631 0.52032,4.57822 0.27099,4.71764c-0.41417,0.23161 -1.87437,-3.8016 -2.66903,-4.10569c-0.85562,-0.32741 -1.14179,-2.1242 -1.72079,-2.78618c-1.53587,-1.75602 -3.98652,-4.26975 -6.63965,-5.07424c-2.0696,-0.62755 -4.60627,-0.68176 -6.76441,-1.24124c-0.55681,-0.14434 -1.74882,0.51409 -2.29155,0.69877c-1.78497,0.6074 -3.43744,0.9948 -4.95596,1.96847c-0.87194,0.55909 -2.46029,1.43151 -3.06644,2.11907c-0.2712,0.30761 -0.01192,1.17719 -0.4742,1.3185z" fill="url(#color-12)" stroke-width="0.5"/><path d="M336.41839,109.74739c-0.90706,-0.58326 -0.00887,-4.08545 0.05522,-4.81655c0.19055,-2.1735 3.81608,-4.66714 5.78243,-5.5001c2.23909,-0.94849 4.6294,-2.33594 7.21483,-2.78624c1.55931,-0.27159 3.30298,0.5113 4.83359,0.82421c4.16839,0.8522 7.50919,1.53742 9.97418,4.86645c0.69802,0.94267 3.40292,3.52099 4.10775,6.47523c0.70483,2.95421 -0.24218,4.76298 -1.55699,4.21609c-0.88367,-0.36756 -2.0966,-5.9197 -2.68825,-6.67939c-1.56945,-2.01517 -4.07781,-4.89629 -6.82092,-5.79153c-2.13979,-0.69834 -4.77274,-0.72483 -7.00547,-1.34292c-0.57606,-0.15946 -1.82312,0.62153 -2.38926,0.84357c-1.862,0.73028 -3.58326,1.20344 -5.17385,2.35483c-0.91333,0.66114 -2.57497,1.69605 -3.2142,2.50243c-0.286,0.36077 -0.02928,1.36586 -0.51128,1.53643z" fill="url(#color-13)" stroke-width="0.5"/><path d="M337.1174,110.69c-0.898,-0.66136 -1.21005,-1.46366 -1.13193,-2.31547c0.23224,-2.5324 3.91312,-5.50255 5.89962,-6.50901c1.14117,-0.57819 2.67889,-2.04696 5.25431,-2.57482c2.52963,-0.51847 6.10077,-0.10274 6.85795,0.06326c4.16139,0.91237 7.49656,1.64613 9.90377,5.47254c0.68163,1.08351 4.828,5.67185 3.99384,7.45571c-0.61133,1.30733 -0.70408,1.58371 -2.01139,0.97238c-0.87864,-0.41086 -1.6179,-2.88509 -2.19644,-3.75772c-1.53465,-2.31479 -3.99382,-5.61922 -6.726,-6.60874c-2.13124,-0.77187 -8.83435,-0.67169 -9.40596,-0.40259c-1.87998,0.88502 -3.61402,1.46821 -5.22999,2.83805c-0.92792,0.78658 -2.61286,2.02221 -3.2688,2.97253c-0.29345,0.42519 -1.93898,2.3939 -1.93898,2.3939z" fill="url(#color-14)" stroke-width="0.5"/><g stroke-width="0"><path d="M357.65162,113.47622c-0.39082,3.36419 -3.50989,5.76584 -6.96666,5.36426c-3.45677,-0.40158 -5.94219,-3.45432 -5.55137,-6.81849c0.39082,-3.36419 3.50991,-5.76584 6.96668,-5.36426c3.45677,0.40158 5.94219,3.45432 5.55139,6.81849z" fill="url(#color-15)"/><path d="M354.97134,113.19925c-0.21654,1.86395 -1.94472,3.19463 -3.85996,2.97213c-1.91525,-0.22249 -3.29234,-1.91391 -3.07581,-3.77789c0.21654,-1.86395 1.94472,-3.19461 3.85998,-2.97213c1.91525,0.22249 3.29234,1.91391 3.07581,3.77787z" fill="#000000"/><path d="M354.00702,108.77001c-0.06452,0.55555 -0.59223,0.95069 -1.17865,0.88255c-0.58641,-0.06813 -1.00947,-0.57372 -0.94495,-1.12927c0.06452,-0.55555 0.59223,-0.95069 1.17865,-0.88255c0.58641,0.06813 1.00947,0.57372 0.94495,1.12927z" fill="#ffffff"/></g></g><g stroke="none" stroke-linecap="butt"><path d="M318.39142,108.34188c-0.94364,8.12273 -8.80797,13.88278 -17.56547,12.86542c-8.7575,-1.01738 -15.0919,-8.4269 -14.14826,-16.54963c0.94364,-8.12273 8.80795,-13.88278 17.56547,-12.8654c8.7575,1.01738 15.0919,8.42688 14.14828,16.54963z" fill="url(#color-16)" stroke-width="0"/><path d="M316.8198,106.21759c-0.94364,8.12273 -8.1272,13.96186 -16.04495,13.04204c-7.91773,-0.91982 -13.57139,-8.25026 -12.62775,-16.37299c0.94364,-8.12273 8.1272,-13.96184 16.04495,-13.04202c7.91773,0.91982 13.57139,8.25023 12.62775,16.37297z" fill="#ffffff" stroke-width="0"/><path d="M287.6975,99.93573c-0.88073,-0.51364 -0.29017,-2.6918 -0.23713,-3.32132c0.15766,-1.87154 4.23757,-4.46682 6.12185,-5.16152c2.14564,-0.79103 4.43171,-1.95868 6.91691,-2.3161c1.49884,-0.21555 3.18787,0.48018 4.66603,0.76819c4.02559,0.78437 7.25199,1.4149 9.66623,4.3143c0.68363,0.82101 2.99571,3.13503 4.03418,5.63134c1.03847,2.49631 0.52032,4.57822 0.27099,4.71764c-0.41417,0.23161 -1.87437,-3.8016 -2.66903,-4.10569c-0.85562,-0.32741 -1.14179,-2.1242 -1.72079,-2.78618c-1.53587,-1.75602 -3.98652,-4.26975 -6.63965,-5.07424c-2.0696,-0.62755 -4.60627,-0.68176 -6.76441,-1.24124c-0.55681,-0.14434 -1.74882,0.51409 -2.29155,0.69877c-1.78497,0.6074 -3.43744,0.9948 -4.95596,1.96847c-0.87194,0.55909 -2.46029,1.43151 -3.06644,2.11907c-0.2712,0.30761 -0.01192,1.17719 -0.4742,1.3185z" fill="url(#color-17)" stroke-width="0.5"/><path d="M286.93991,103.43734c-0.90706,-0.58326 -0.00887,-4.08545 0.05522,-4.81655c0.19055,-2.1735 3.81608,-4.66714 5.78243,-5.5001c2.23909,-0.94849 4.6294,-2.33594 7.21483,-2.78624c1.55931,-0.27159 3.30298,0.5113 4.83359,0.82421c4.16839,0.8522 7.50919,1.53742 9.97418,4.86645c0.69802,0.94267 3.40292,3.52099 4.10775,6.47523c0.70483,2.95421 -0.24218,4.76298 -1.55699,4.21609c-0.88367,-0.36756 -2.0966,-5.9197 -2.68825,-6.67939c-1.56945,-2.01517 -4.07781,-4.89629 -6.82092,-5.79153c-2.13979,-0.69834 -4.77274,-0.72483 -7.00547,-1.34292c-0.57606,-0.15946 -1.82312,0.62153 -2.38926,0.84357c-1.862,0.73028 -3.58326,1.20344 -5.17385,2.35483c-0.91333,0.66114 -2.57497,1.69605 -3.2142,2.50243c-0.286,0.36077 -0.02928,1.36586 -0.51128,1.53643z" fill="url(#color-18)" stroke-width="0.5"/><path d="M287.63898,104.37995c-0.898,-0.66136 -1.21007,-1.46366 -1.13195,-2.31547c0.23224,-2.5324 3.91312,-5.50255 5.89962,-6.50901c1.14117,-0.57819 2.67889,-2.04696 5.25431,-2.57482c2.52963,-0.51847 6.10077,-0.10274 6.85795,0.06326c4.16139,0.91237 7.49656,1.64613 9.90377,5.47254c0.68163,1.08351 4.828,5.67185 3.99384,7.45571c-0.61133,1.30733 -0.70408,1.58371 -2.01139,0.97238c-0.87864,-0.41086 -1.6179,-2.88509 -2.19644,-3.75772c-1.53465,-2.31479 -3.99382,-5.61922 -6.726,-6.60874c-2.13124,-0.77187 -8.83435,-0.67169 -9.40596,-0.40259c-1.87998,0.88502 -3.61402,1.46821 -5.22999,2.83805c-0.92792,0.78658 -2.61286,2.02221 -3.2688,2.97253c-0.29345,0.42519 -1.93896,2.3939 -1.93896,2.3939z" fill="url(#color-19)" stroke-width="0.5"/><g stroke-width="0"><path d="M308.17318,107.16617c-0.39082,3.36419 -3.50989,5.76584 -6.96666,5.36426c-3.45677,-0.40158 -5.94219,-3.45432 -5.55139,-6.81849c0.39082,-3.36419 3.50991,-5.76584 6.96668,-5.36426c3.45677,0.40158 5.94219,3.45432 5.55137,6.81849z" fill="url(#color-20)"/><path d="M305.49289,106.8892c-0.21654,1.86395 -1.94472,3.19463 -3.85996,2.97213c-1.91525,-0.22249 -3.29234,-1.91391 -3.07581,-3.77789c0.21654,-1.86395 1.94472,-3.19461 3.85998,-2.97213c1.91525,0.22249 3.29234,1.91391 3.07581,3.77787z" fill="#000000"/><path d="M304.5286,102.45996c-0.06452,0.55555 -0.59223,0.95069 -1.17865,0.88255c-0.58641,-0.06813 -1.00947,-0.57372 -0.94495,-1.12927c0.06452,-0.55555 0.59223,-0.95069 1.17867,-0.88255c0.58641,0.06813 1.00947,0.57372 0.94493,1.12927z" fill="#ffffff"/></g></g><path d="M336.85262,143.40356l-0.05623,3.7597c0,0 -9.75651,0.51308 -14.55949,-0.22491c-4.80487,-0.7383 -14.34076,-2.6756 -14.34076,-2.6756l0.28501,-3.71104c0,0 9.01467,1.95105 13.70737,2.4178c4.8587,0.48329 14.9641,0.43406 14.9641,0.43406z" fill="#e8e8e8" stroke="#000000" stroke-width="0" stroke-linecap="round"/><path d="M277.59702,108.3587z" fill="#ca0a3d" stroke="none" stroke-width="0" stroke-linecap="butt"/><path d="M309.94552,145.1229c-0.53536,-0.04182 -0.49354,-0.57718 -0.49354,-0.57718l0.02202,-0.28177c0.09088,-1.14671 0.29133,-2.27765 0.38126,-3.42876c0,0 0.04182,-0.53536 0.57718,-0.49354c0.53536,0.04182 0.49354,0.57718 0.49354,0.57718c-0.08989,1.15053 -0.29317,2.28289 -0.38126,3.42876l-0.02202,0.28177c0,0 -0.04182,0.53536 -0.57718,0.49354z" fill="#000000" stroke="none" stroke-width="0.5" stroke-linecap="butt"/><path d="M326.37621,105.22464c-0.04526,3.8381 -1.82306,6.76877 -1.82306,6.76877c0,0 -2.21575,1.01648 -3.39867,1.44993c-1.29227,0.47352 -4.05598,1.28164 -4.05598,1.28164c0,0 1.87901,-6.03859 2.34649,-8.21277c0.46748,-2.17418 -0.04833,-4.90398 0.58362,-5.48122c1.75765,-1.60551 6.19717,-1.92532 6.19717,-1.92532c0,0 0.18268,3.38342 0.15042,6.11897z" fill="url(#color-21)" stroke="#000000" stroke-width="0" stroke-linecap="round"/><path d="M329.00215,99.39502c0,0 4.25527,1.30546 5.60891,3.26369c0.48671,0.70408 -0.62707,3.24911 -0.65813,5.47276c-0.03106,2.22367 0.44856,8.52962 0.44856,8.52962c0,0 -2.51268,-1.40627 -3.66617,-2.15704c-1.05589,-0.68726 -2.98787,-2.17395 -2.98787,-2.17395c0,0 -1.07668,-3.25426 -0.26162,-7.00509c0.58091,-2.67335 1.51633,-5.93001 1.51633,-5.93001z" data-paper-data="{&quot;index&quot;:null}" fill="url(#color-22)" stroke="#000000" stroke-width="0" stroke-linecap="round"/><path d="M369.59119,105.8678c0,0 8.85514,-0.59316 11.87285,-1.50924c3.01766,-0.91606 6.95596,-4.20666 6.95596,-4.20666c0,0 1.91263,10.32595 0.78214,17.74394c-1.13051,7.41799 -6.12324,18.24235 -6.12324,18.24235c0,0 0.65528,-1.72977 -0.15648,-3.07942c-3.80951,-6.33381 -14.91339,-11.29496 -14.91339,-11.29496c0,0 2.02737,-5.81916 2.30895,-8.64801c0.28155,-2.82888 -0.7268,-7.24804 -0.7268,-7.24804z" fill="url(#color-23)" stroke="#000000" stroke-width="0" stroke-linecap="round"/><path d="M286.75813,97.0292c0,0 -1.99603,3.91291 -2.3733,6.63813c-0.37727,2.72522 0.25333,8.67551 0.25333,8.67551c0,0 -11.92668,2.02166 -17.08396,7.06768c-1.09894,1.07522 -0.86039,2.85652 -0.86039,2.85652c0,0 -2.35951,-11.3588 -1.75114,-18.59827c0.60837,-7.23947 4.84154,-16.48792 4.84154,-16.48792c0,0 3.06835,4.0286 5.78874,5.607c2.72039,1.5784 11.18514,4.24135 11.18514,4.24135z" data-paper-data="{&quot;index&quot;:null}" fill="url(#color-24)" stroke="#000000" stroke-width="0" stroke-linecap="round"/><path d="M318.78688,99.34905c0,0 -5.94043,-9.53686 -15.60846,-10.45337c-7.61483,-0.72186 -13.89012,4.86871 -13.89012,4.86871c0,0 -3.3315,-24.46408 17.32685,-25.48906c22.24545,-1.10375 12.17174,31.07375 12.17174,31.07375z" fill="url(#color-25)" stroke="#000000" stroke-width="0" stroke-linecap="round"/><path d="M337.41307,101.81353c0,0 -2.95133,-33.5881 18.54204,-27.74749c19.95994,5.42393 11.46822,28.60755 11.46822,28.60755c0,0 -4.93293,-6.80442 -12.52574,-7.7295c-9.64009,-1.17452 -17.48453,6.86944 -17.48453,6.86944z" data-paper-data="{&quot;index&quot;:null}" fill="url(#color-26)" stroke="#000000" stroke-width="0" stroke-linecap="round"/><path d="M328.17067,85.54367c-2.54251,13.72348 -6.01743,8.05483 -6.01743,8.05483c0,0 0.13685,-14.41012 -1.87946,-19.90807c-2.69388,-7.34554 -12.13973,-8.04418 -19.0868,-6.61759c-17.7933,3.65384 -12.13778,24.24039 -14.9804,25.77547c-6.98953,3.77447 -16.3525,-8.3865 -16.3525,-8.3865c0,0 3.33906,-19.96948 23.27216,-31.29539c21.02634,-11.9471 39.33444,-5.5989 39.33444,-5.5989c0,0 -1.74747,24.2527 -4.28998,37.97618z" fill="url(#color-27)" stroke="#000000" stroke-width="0" stroke-linecap="round"/><path d="M305.75061,75.3452c2.81917,0.27934 10.49813,2.98577 8.92248,6.12122c-1.43099,2.84757 -7.14438,-1.01869 -10.58246,-1.66c-3.43808,-0.64129 -11.59488,1.7671 -11.61997,-0.6225c-0.03802,-3.62221 9.92781,-4.17088 13.27995,-3.83874z" fill="url(#color-28)" stroke="#000000" stroke-width="0" stroke-linecap="round"/><path d="M330.65418,86.04951c0.45313,-13.94966 3.93606,-38.0145 3.93606,-38.0145c0,0 19.24246,-2.28332 37.22513,13.88653c17.04766,15.3291 16.03604,35.55054 16.03604,35.55054c0,0 -11.74844,9.87566 -17.76834,4.6929c-2.44828,-2.10781 7.48163,-21.00724 -9.1176,-28.3841c-6.48086,-2.88017 -15.85739,-4.21906 -20.06077,2.37985c-3.14613,4.93912 -6.09613,19.0447 -6.09613,19.0447c0,0 -4.60749,4.79372 -4.15436,-9.15594z" data-paper-data="{&quot;index&quot;:null}" fill="url(#color-29)" stroke="#000000" stroke-width="0" stroke-linecap="round"/><path d="M355.14359,81.56102c3.32016,0.56897 12.78341,3.74163 11.7859,7.22398c-0.65809,2.29735 -7.88379,-2.18851 -11.36881,-2.48222c-3.48504,-0.29367 -10.01931,1.91847 -10.64368,-1.20666c-0.68747,-3.44111 7.43431,-4.01358 10.22659,-3.53508z" data-paper-data="{&quot;index&quot;:null}" fill="url(#color-30)" stroke="#000000" stroke-width="0" stroke-linecap="round"/><path d="M292.98527,91.52083c0,0 -3.04413,-2.08137 -3.90483,-3.94792c-1.72436,-4.41517 -1.62849,-8.05262 -1.62849,-8.05262c0,0 0.15079,2.8126 3.0406,6.6455c4.79164,4.18478 6.65439,3.47559 6.65439,3.47559z" fill="#2b21a4" stroke="#000000" stroke-width="0" stroke-linecap="round"/><path d="M305.71216,89.57665c0,0 -0.48615,-0.62628 -0.29747,-2.46757c0.66052,-4.22469 2.46207,-6.20983 2.46207,-6.20983c0,0 -1.1059,4.14472 -0.78435,6.26782c0.31717,2.18359 0.60972,2.98733 0.60972,2.98733z" fill="#2b21a4" stroke="#000000" stroke-width="0" stroke-linecap="round"/><path d="M311.00531,91.93543c0,0 0.45509,-1.30976 0.5551,-1.82078c1.04227,-4.14704 3.3109,-5.97596 3.3109,-5.97596c0,0 -1.52041,4.48523 -1.39342,6.62878c1.05316,5.4473 0.64505,3.48809 0.64505,3.48809z" fill="#2b21a4" stroke="#000000" stroke-width="0" stroke-linecap="round"/><path d="M299.54302,89.11273c0,0 -1.36997,-2.47535 -1.48059,-4.5278c0.0279,-4.73987 1.61361,-7.05689 1.61361,-7.05689c0,0 -0.2485,4.45443 -0.0201,6.51522c0.34404,3.10425 2.3774,4.8596 2.3774,4.8596z" fill="#2b21a4" stroke="#000000" stroke-width="0" stroke-linecap="round"/><g fill="#2b21a4" stroke="#000000" stroke-width="0" stroke-linecap="round"><path d="M360.98278,97.61076c0,0 1.60523,1.18153 7.3415,-1.56938c3.80961,-2.92045 4.70707,-5.59029 4.70707,-5.59029c0,0 -0.8804,3.53059 -3.72271,7.3238c-1.32853,1.56837 -4.8184,2.75984 -4.8184,2.75984z"/><path d="M350.67483,95.28231c0,0 0.49684,-0.69624 1.38642,-2.71547c0.87763,-1.95977 0.92044,-6.24928 0.92044,-6.24928c0,0 1.20505,2.39463 0.71168,6.64208c-0.31062,1.82469 -0.94654,2.29814 -0.94654,2.29814z"/><path d="M343.39111,97.51696c0,0 -0.9172,1.7787 1.55439,-3.18853c0.69562,-2.03152 0.43009,-6.75998 0.43009,-6.75998c0,0 1.69689,2.369 1.59213,6.64373c-0.0403,0.51916 0.04794,1.90292 0.04794,1.90292z"/><path d="M356.47186,95.59237c0,0 2.42874,-1.14763 3.59042,-4.04679c0.7712,-1.92465 1.72303,-6.28329 1.72303,-6.28329c0,0 0.90831,2.6567 -0.33242,7.23139c-0.65549,1.94811 -2.63754,3.96693 -2.63754,3.96693z"/></g><path d="M312.94137,145.68813c-0.53536,-0.04182 -0.49354,-0.57718 -0.49354,-0.57718l0.02202,-0.28177c0.09088,-1.14673 0.29133,-2.27765 0.38126,-3.42876c0,0 0.04182,-0.53534 0.57718,-0.49354c0.53536,0.04182 0.49351,0.57718 0.49351,0.57718c-0.08989,1.15051 -0.29315,2.28289 -0.38126,3.42876l-0.02202,0.28177c0,0 -0.04182,0.53534 -0.57718,0.49354z" fill="#000000" stroke="none" stroke-width="0.5" stroke-linecap="butt"/><path d="M316.44593,146.536c-0.53536,-0.04182 -0.49354,-0.57718 -0.49354,-0.57718l0.02202,-0.28177c0.09088,-1.14673 0.29133,-2.27765 0.38126,-3.42876c0,0 0.04182,-0.53534 0.57718,-0.49354c0.53536,0.04182 0.49354,0.57718 0.49354,0.57718c-0.08989,1.15051 -0.29315,2.28289 -0.38126,3.42876l-0.02202,0.28177c0,0 -0.04182,0.53534 -0.57718,0.49351z" fill="#000000" stroke="none" stroke-width="0.5" stroke-linecap="butt"/><path d="M319.78091,146.87518c-0.53536,-0.04182 -0.49354,-0.57718 -0.49354,-0.57718l0.02202,-0.28177c0.09088,-1.14673 0.29133,-2.27765 0.38126,-3.42876c0,0 0.04182,-0.53534 0.57718,-0.49351c0.53536,0.04182 0.49351,0.57718 0.49351,0.57718c-0.08989,1.15051 -0.29315,2.28289 -0.38126,3.42876l-0.02202,0.28177c0,0 -0.04182,0.53536 -0.57718,0.49354z" fill="#000000" stroke="none" stroke-width="0.5" stroke-linecap="butt"/><path d="M323.00284,147.72305c-0.53536,-0.04182 -0.49354,-0.57718 -0.49354,-0.57718l0.02202,-0.28177c0.09088,-1.14673 0.29133,-2.27765 0.38126,-3.42876c0,0 0.04184,-0.53534 0.5772,-0.49354c0.53536,0.04182 0.49351,0.57718 0.49351,0.57718c-0.08989,1.15051 -0.29315,2.28289 -0.38126,3.42876l-0.02202,0.28177c0,0 -0.04182,0.53534 -0.57718,0.49354z" fill="#000000" stroke="none" stroke-width="0.5" stroke-linecap="butt"/><path d="M326.66435,147.84691c-0.53695,-0.0067 -0.53024,-0.54365 -0.53024,-0.54365l0.00352,-0.28261c0.01566,-1.15021 0.14166,-2.29183 0.15609,-3.44635c0,0 0.0067,-0.53695 0.54365,-0.53024c0.53695,0.0067 0.53024,0.54365 0.53024,0.54365c-0.01441,1.15395 -0.14316,2.29717 -0.15609,3.44635l-0.00352,0.28261c0,0 -0.0067,0.53692 -0.54365,0.53024z" fill="#000000" stroke="none" stroke-width="0.5" stroke-linecap="butt"/><path d="M330.3385,147.84691c-0.53695,-0.0067 -0.53024,-0.54365 -0.53024,-0.54365l0.00352,-0.28261c0.01566,-1.15021 0.14166,-2.29183 0.15607,-3.44635c0,0 0.00672,-0.53695 0.54367,-0.53024c0.53695,0.0067 0.53024,0.54365 0.53024,0.54365c-0.01441,1.15395 -0.14316,2.29717 -0.15609,3.44637l-0.00352,0.28261c0,0 -0.0067,0.53695 -0.54365,0.53022z" fill="#000000" stroke="none" stroke-width="0.5" stroke-linecap="butt"/><path d="M334.21571,148.12737c-0.53624,0.02844 -0.56468,-0.50778 -0.56468,-0.50778l-0.01497,-0.28224c-0.05965,-1.14877 -0.00861,-2.29619 -0.06977,-3.44919c0,0 -0.02844,-0.53622 0.5078,-0.56468c0.53624,-0.02844 0.56468,0.50778 0.56468,0.50778c0.06113,1.1524 0.00747,2.30162 0.06977,3.44919l0.01497,0.28224c0,0 0.02844,0.53622 -0.50778,0.56468z" fill="#000000" stroke="none" stroke-width="0.5" stroke-linecap="butt"/><g><path d="M335.99344,150.92141l-0.05623,3.7597c0,0 -9.75651,0.51308 -14.55949,-0.22491c-4.80487,-0.7383 -14.34076,-2.6756 -14.34076,-2.6756l0.28501,-3.71104c0,0 9.01467,1.95105 13.70737,2.4178c4.8587,0.48329 14.9641,0.43406 14.9641,0.43406z" fill="#e8e8e8" stroke="#000000" stroke-width="0" stroke-linecap="round"/><path d="M309.08634,152.64074c-0.53536,-0.04182 -0.49354,-0.57718 -0.49354,-0.57718l0.02202,-0.28177c0.09088,-1.14671 0.29133,-2.27765 0.38126,-3.42876c0,0 0.04182,-0.53536 0.57718,-0.49354c0.53536,0.04182 0.49354,0.57718 0.49354,0.57718c-0.08989,1.15053 -0.29317,2.28289 -0.38126,3.42876l-0.02202,0.28177c0,0 -0.04182,0.53536 -0.57718,0.49354z" fill="#000000" stroke="none" stroke-width="0.5" stroke-linecap="butt"/><path d="M312.08218,153.20598c-0.53536,-0.04182 -0.49354,-0.57718 -0.49354,-0.57718l0.02202,-0.28177c0.09088,-1.14673 0.29133,-2.27765 0.38126,-3.42876c0,0 0.04182,-0.53534 0.57718,-0.49354c0.53536,0.04182 0.49351,0.57718 0.49351,0.57718c-0.08989,1.15051 -0.29315,2.28289 -0.38126,3.42876l-0.02202,0.28177c0,0 -0.04182,0.53534 -0.57718,0.49354z" fill="#000000" stroke="none" stroke-width="0.5" stroke-linecap="butt"/><path d="M315.58675,154.05386c-0.53536,-0.04182 -0.49354,-0.57718 -0.49354,-0.57718l0.02202,-0.28177c0.09088,-1.14673 0.29133,-2.27765 0.38126,-3.42876c0,0 0.04182,-0.53534 0.57718,-0.49354c0.53536,0.04182 0.49354,0.57718 0.49354,0.57718c-0.08989,1.15051 -0.29315,2.28289 -0.38126,3.42876l-0.02202,0.28177c0,0 -0.04182,0.53534 -0.57718,0.49351z" fill="#000000" stroke="none" stroke-width="0.5" stroke-linecap="butt"/><path d="M318.92172,154.39302c-0.53536,-0.04182 -0.49354,-0.57718 -0.49354,-0.57718l0.02202,-0.28177c0.09088,-1.14673 0.29133,-2.27765 0.38126,-3.42876c0,0 0.04182,-0.53534 0.57718,-0.49351c0.53536,0.04182 0.49351,0.57718 0.49351,0.57718c-0.08989,1.15051 -0.29315,2.28289 -0.38126,3.42876l-0.02202,0.28177c0,0 -0.04182,0.53536 -0.57718,0.49354z" fill="#000000" stroke="none" stroke-width="0.5" stroke-linecap="butt"/><path d="M322.14366,155.24091c-0.53536,-0.04182 -0.49354,-0.57718 -0.49354,-0.57718l0.02202,-0.28177c0.09088,-1.14673 0.29133,-2.73791 0.38126,-3.88902c0,0 0.04184,-0.07505 0.5772,-0.03325c0.53536,0.04182 0.57022,0.11691 0.57022,0.11691c-0.08989,1.15051 -0.36986,2.74318 -0.45797,3.88905l-0.02202,0.28177c0,0 -0.04182,0.53534 -0.57718,0.49354z" fill="#000000" stroke="none" stroke-width="0.5" stroke-linecap="butt"/><path d="M325.80517,155.36476c-0.53695,-0.0067 -0.53024,-0.54365 -0.53024,-0.54365l0.00352,-0.28261c0.01566,-1.15021 0.14166,-2.29183 0.15609,-3.44635c0,0 0.0067,-0.53695 0.54365,-0.53024c0.53695,0.0067 0.53024,0.54365 0.53024,0.54365c-0.01441,1.15395 -0.14316,2.29717 -0.15609,3.44635l-0.00352,0.28261c0,0 -0.0067,0.53692 -0.54365,0.53024z" fill="#000000" stroke="none" stroke-width="0.5" stroke-linecap="butt"/><path d="M329.47932,155.36476c-0.53695,-0.0067 -0.53024,-0.54365 -0.53024,-0.54365l0.00352,-0.28261c0.01566,-1.15021 0.14166,-2.29183 0.15607,-3.44635c0,0 0.00672,-0.53695 0.54367,-0.53024c0.53695,0.0067 0.53024,0.54365 0.53024,0.54365c-0.01441,1.15395 -0.14316,2.29717 -0.15609,3.44637l-0.00352,0.28261c0,0 -0.0067,0.53695 -0.54365,0.53022z" fill="#000000" stroke="none" stroke-width="0.5" stroke-linecap="butt"/><path d="M333.35652,155.64522c-0.53624,0.02844 -0.56468,-0.50778 -0.56468,-0.50778l-0.01497,-0.28224c-0.05965,-1.14877 -0.00861,-2.9866 -0.06977,-4.1396c0,0 -0.02844,0.1542 0.5078,0.12574c0.53624,-0.02844 0.56468,0.04749 0.56468,0.04749c0.06113,1.1524 0.00747,2.76191 0.06977,3.90947l0.01497,0.28224c0,0 0.02844,0.53622 -0.50778,0.56468z" fill="#000000" stroke="none" stroke-width="0.5" stroke-linecap="butt"/></g><path d="M285.43271,115.52402c6.96344,0.61898 9.37456,3.78148 14.46773,4.30622c5.09317,0.52475 9.65839,-1.69036 13.4557,-1.99305c3.79731,-0.30269 10.87819,-0.14698 10.87819,-0.14698l-2.78205,24.60062c0,0 -4.63626,-0.61556 -9.08751,-2.14796c-4.45123,-1.53239 -12.94968,-5.46283 -12.94968,-5.46283l-5.06009,5.79327c0,0 3.87356,5.64592 9.58319,8.42658c5.70963,2.78068 15.86182,3.96547 15.86182,3.96547l-2.31318,17.67933c0,0 -5.42468,0.10235 -9.25273,-0.99137c-3.82802,-1.09372 -6.0901,-2.84321 -9.25273,-3.46976c-3.16263,-0.62656 -4.67232,1.19875 -9.25273,-0.82615c-9.18599,-4.06088 -14.18149,-6.24166 -19.82729,-15.86182c-5.64579,-9.62014 -3.80023,-24.1232 -3.80023,-24.1232c0,0 1.01147,-5.29035 7.60046,-7.76568c4.7595,-1.78804 4.76771,-2.60169 11.73115,-1.98271z" fill="url(#color-31)" stroke="#000000" stroke-width="0" stroke-linecap="round"/><path d="M296.41953,132.1411c0,0 7.63695,4.76434 12.93888,6.82743c5.30193,2.06309 12.31238,2.14796 12.31238,2.14796l-0.25571,2.07125c0,0 -7.93307,-0.91883 -12.51695,-2.36531c-4.58389,-1.44648 -10.94435,-4.80734 -10.94435,-4.80734l-1.02284,6.54615c0,0 5.86791,5.17148 10.33064,7.26213c4.46272,2.09065 12.6448,2.83837 12.6448,2.83837l-0.39634,2.44201c0,0 -8.75522,-1.56625 -13.78272,-3.74614c-5.02751,-2.1799 -12.2229,-8.59182 -12.2229,-8.59182z" fill="#ca0a3d" stroke="#000000" stroke-width="0" stroke-linecap="round"/><path d="M274.91209,132.52319c0,-7.26598 5.89025,-13.15623 13.15623,-13.15623c7.26598,0 13.15623,5.89025 13.15623,13.15623c0,7.26598 -5.89025,13.15623 -13.15623,13.15623c-7.26598,0 -13.15623,-5.89025 -13.15623,-13.15623z" fill="url(#color-32)" stroke="none" stroke-width="0" stroke-linecap="butt"/><g data-paper-data="{&quot;index&quot;:null}" stroke-width="0"><path d="M365.29659,124.95561c6.93225,1.10405 6.58892,2.13588 10.93191,4.77858c6.09942,3.71147 5.48313,9.34812 5.48313,9.34812c0,0 -1.7825,14.44159 -9.65336,22.34259c-7.87088,7.90102 -13.27263,8.78437 -23.21818,10.45765c-4.95916,0.83437 -5.97849,-1.29528 -9.2122,-1.46349c-3.23373,-0.16821 -5.86779,0.96686 -9.86462,1.08674c-3.99685,0.11988 -9.25296,-1.30409 -9.25296,-1.30409l2.11114,-17.61987c0,0 10.17641,1.33725 16.42147,0.04966c6.24505,-1.28755 11.40971,-5.78771 11.40971,-5.78771l-3.49666,-6.82479c0,0 -9.24399,1.71542 -13.95581,2.10624c-4.71186,0.39082 -9.37757,-0.14802 -9.37757,-0.14802l2.83324,-24.70869c0,0 7.46183,1.87714 11.08412,3.09684c3.62229,1.21967 7.52023,4.47181 12.60837,5.20987c5.08814,0.73806 8.21606,-1.72369 15.14831,-0.61962z" fill="url(#color-33)" stroke="#000000" stroke-linecap="round"/><path d="M374.69366,119.95768z" fill="#ca0a3d" stroke="none" stroke-linecap="butt"/><path d="M350.63821,149.26307c0,0 -8.58776,4.42756 -14.02044,5.30223c-5.4327,0.87467 -14.34317,0.24667 -14.34317,0.24667l0.21681,-2.45256c0,0 8.15046,1.27756 13.01126,0.35102c4.8608,-0.92654 11.85001,-4.4818 11.85001,-4.4818l0.61977,-6.56478c0,0 -7.02188,1.74964 -11.84168,2.02518c-4.8198,0.27554 -12.77005,-0.34655 -12.77005,-0.34655l0.26222,-1.96849c0,0 6.84622,1.04777 12.51726,0.35282c5.67103,-0.69495 14.28206,-3.42526 14.28206,-3.42526z" fill="#ca0a3d" stroke="#000000" stroke-linecap="round"/><path d="M355.28834,153.4018c-7.07403,-1.77507 -11.355,-8.89623 -9.56178,-15.90553c1.79322,-7.00927 8.98157,-11.25245 16.0556,-9.47738c7.07403,1.77507 11.355,8.89625 9.56178,15.90553c-1.79322,7.00927 -8.98157,11.25245 -16.0556,9.47736z" fill="url(#color-34)" stroke="none" stroke-linecap="butt"/></g><path d="M335.60597,126.7887c-1.36752,6.21195 -11.25742,3.84641 -11.25742,3.84641l1.515,-15.30156c0,0 11.37772,4.02675 9.74244,11.45518z" data-paper-data="{&quot;index&quot;:null}" fill="url(#color-35)" stroke="#000000" stroke-width="0" stroke-linecap="round"/><path d="M324.66985,115.20402l-1.64254,15.2884c0,0 -10.1646,0.29552 -10.23437,-6.06482c-0.08343,-7.60583 11.87693,-9.22358 11.87693,-9.22358z" fill="url(#color-36)" stroke="#000000" stroke-width="0" stroke-linecap="round"/><path d="M334.11161,35.78072c0,0 -2.8791,33.61261 -3.53646,33.08621c-0.65736,-0.5264 -8.26963,-8.05483 -8.26963,-8.05483c0,0 -4.83073,3.38651 -8.37703,3.54413c-3.5463,0.15762 -10.95457,-2.68494 -10.95457,-2.68494c0,0 -9.20326,6.32483 -15.97542,6.98086c-6.77216,0.65603 -10.52498,-5.36989 -10.52498,-5.36989c0,0 3.04952,-18.76815 25.50698,-27.38644c21.66658,-8.31476 32.13112,-0.11507 32.13112,-0.11507z" fill="url(#color-37)" stroke="#000000" stroke-width="0" stroke-linecap="round"/><path d="M366.51802,42.895c20.12403,13.17711 19.13126,32.16547 19.13126,32.16547c0,0 -4.94343,5.09489 -11.42322,3.02007c-6.4798,-2.0748 -14.13553,-10.20457 -14.13553,-10.20457c0,0 -7.84212,1.20984 -11.27468,0.30505c-3.43254,-0.90478 -7.43689,-5.23719 -7.43689,-5.23719c0,0 -9.03349,5.7463 -9.78738,6.12163c-0.75389,0.37531 3.54791,-33.08496 3.54791,-33.08496c0,0 11.96321,-5.79854 31.37852,6.91451z" data-paper-data="{&quot;index&quot;:null}" fill="url(#color-38)" stroke="#000000" stroke-width="0" stroke-linecap="round"/></g><path d="M319.26896,178.82948l-0.15341,34.21386c0,0 -8.1261,0.30658 -12.5809,2.60822c-4.4548,2.30164 -17.78883,16.10002 -33.44674,21.1727c-4.79164,1.55233 -4.96994,-3.41652 -9.51237,-1.22741c-4.54243,2.18911 -3.68222,4.29591 -3.68222,4.29591c0,0 -3.76109,-5.98236 -3.98908,-10.27952c-0.22796,-4.29714 0.92057,-47.56189 0.92057,-47.56189c0,0 8.99545,-4.5094 13.64695,-6.57674c4.55186,-2.02305 13.96962,-5.6973 13.96962,-5.6973c0,0 9.34155,4.19068 15.6494,5.83018c6.30786,1.63949 19.17817,3.22193 19.17817,3.22193z" fill="url(#color-39)" stroke="#000000" stroke-width="0" stroke-linecap="round"/><path d="M337.95691,175.60754c6.30786,-1.63949 15.64938,-5.83018 15.64938,-5.83018c0,0 9.41776,3.67425 13.96962,5.6973c4.65151,2.06734 13.64695,6.57674 13.64695,6.57674c0,0 1.14851,43.26475 0.92055,47.56189c-0.22796,4.29714 -3.98908,10.27952 -3.98908,10.27952c0,0 0.86023,-2.1068 -3.6822,-4.29591c-4.54243,-2.18911 -4.72076,2.77973 -9.51237,1.22741c-15.65791,-5.0727 -28.99195,-18.87106 -33.44674,-21.1727c-4.4548,-2.30164 -12.5809,-2.60822 -12.5809,-2.60822l-0.15343,-34.21386c0,0 12.87032,-1.58244 19.17817,-3.22193z" data-paper-data="{&quot;index&quot;:null}" fill="url(#color-40)" stroke="#000000" stroke-width="0" stroke-linecap="round"/><path d="M318.20079,214.28102c13.79847,0.18081 23.416,16.39737 27.79968,31.456c4.28042,14.70392 -1.30823,30.9779 -1.30823,30.9779l-53.1261,-0.42959c0,0 -3.90713,-15.28116 -0.64192,-29.84739c3.29387,-14.69412 13.81559,-31.97095 27.27657,-32.15694z" fill="url(#color-41)" stroke="#000000" stroke-width="0" stroke-linecap="round"/><path d="M301.7593,248.88368c0,-9.11281 7.3874,-16.50021 16.50021,-16.50021c9.11281,0 16.50021,7.3874 16.50021,16.50021c0,9.11281 -7.3874,16.50021 -16.50021,16.50021c-9.11281,0 -16.50021,-7.3874 -16.50021,-16.50019z" fill="#260a09" stroke="none" stroke-width="0" stroke-linecap="butt"/><path d="M298.53096,234.42064z" fill="url(#color-42)" stroke="none" stroke-width="0" stroke-linecap="butt"/><path d="M316.99402,250.60338l-10.48005,-7.52511c0,0 -0.53029,-0.56927 2.40517,-3.50473c2.94553,-2.94553 3.68944,-2.58988 3.68944,-2.58988l7.52508,10.48007z" fill="url(#color-43)" stroke="none" stroke-width="0" stroke-linecap="butt"/><path d="M319.30187,246.30358l10.48005,7.52511c0,0 0.53029,0.56927 -2.40517,3.50473c-2.94553,2.94553 -3.68944,2.5899 -3.68944,2.5899l-7.52508,-10.48009z" fill="url(#color-44)" stroke="none" stroke-width="0" stroke-linecap="butt"/><path d="M320.28794,249.59751l-7.52508,10.48007c0,0 -0.56927,0.53029 -3.50473,-2.4052c-2.94553,-2.94553 -2.5899,-3.68944 -2.5899,-3.68944l10.48007,-7.52508z" fill="url(#color-45)" stroke="none" stroke-width="0" stroke-linecap="butt"/><path d="M315.90605,247.37176l7.52511,-10.48007c0,0 0.56927,-0.53029 3.50473,2.40517c2.94553,2.94553 2.5899,3.68944 2.5899,3.68944l-10.48007,7.52508z" fill="url(#color-46)" stroke="none" stroke-width="0" stroke-linecap="butt"/><path d="M314.70421,251.87744c-1.89645,-1.89645 -1.89643,-4.97123 0,-6.86768c1.89645,-1.89645 4.97123,-1.89645 6.86768,0c1.89645,1.89645 1.89645,4.97123 0,6.86768c-1.89645,1.89645 -4.97123,1.89645 -6.86768,0z" fill="url(#color-47)" stroke="none" stroke-width="0" stroke-linecap="butt"/><path d="M269.12953,274.02995c0,0 24.67645,0.24463 38.55037,-0.10701c16.68002,-0.42276 54.67091,-2.25574 54.67091,-2.25574c0,0 7.58761,2.63449 9.85096,4.36748c2.96727,2.27198 7.0642,7.23148 7.0642,7.23148c0,0 8.04109,0.32441 14.33761,1.82576c6.29652,1.50136 8.37703,4.51071 8.37703,4.51071c0,0 4.00607,-0.94269 6.65866,0.2148c2.6526,1.15749 4.51071,3.86632 4.51071,3.86632c0,0 6.95285,3.06606 10.03403,6.5973c3.08118,3.53124 9.08278,15.31185 9.08278,15.31185c0,0 -1.32299,2.85377 -3.00714,3.43673c-1.68413,0.58296 -13.74692,2.36275 -13.74692,2.36275c0,0 5.66796,-7.89243 2.36275,-8.16223c-3.30521,-0.26983 -23.41272,6.44387 -23.41272,6.44387c0,0 -1.54638,-6.52465 -13.53212,-6.44387c-12.59834,0.08493 -22.55354,7.51785 -22.55354,7.51785c0,0 -1.40582,-7.92679 -22.33874,-5.36989c-19.21877,2.34752 -25.93657,9.8806 -25.93657,9.8806c0,0 -7.48479,-8.246 -26.20506,-8.37703c-15.94501,-0.11161 -17.39844,6.65866 -17.39844,6.65866c0,0 -16.74052,-6.59296 -27.92343,-6.44387c-11.1829,0.14909 -4.29591,6.87346 -4.29591,6.87346c0,0 -13.62749,-4.22978 -22.33874,-3.00714c-8.71123,1.22264 3.97372,5.58469 3.97372,5.58469c0,0 -8.85312,-3.26393 -11.36627,-3.53882c-1.88765,-0.20646 -2.38062,2.03525 -2.38062,2.03525c0,0 6.35148,-22.37949 30.50097,-33.29332c11.14164,-5.03522 20.19078,-4.08112 20.19078,-4.08112z" fill="url(#color-48)" stroke="#000000" stroke-width="0" stroke-linecap="round"/><path d="M246.34926,191.21431l6.20521,15.51301l-32.458,19.80894l-4.53457,-13.36508c0,0 7.43584,-10.4384 18.13831,-17.42231c8.72094,-5.69086 12.64908,-4.53457 12.64908,-4.53457z" fill="#8c959c" stroke="#000000" stroke-width="0" stroke-linecap="round"/><path d="M215.36315,193.36111c0,-1.76382 1.42985,-3.19367 3.19369,-3.19367c1.76382,0 3.19367,1.42985 3.19367,3.19367c0,1.76382 -1.42985,3.19369 -3.19367,3.19369c-1.76382,0 -3.19369,-1.42987 -3.19369,-3.19369z" fill="#302db1" stroke="none" stroke-width="0" stroke-linecap="butt"/><path d="M236.05284,244.90395c0,0 -10.2595,14.69213 -17.43064,20.04034c-7.17114,5.34822 -21.18361,8.75814 -21.18361,8.75814c0,0 -6.3145,-2.11969 -11.89231,-9.17549c-5.57781,-7.0558 -11.25836,-20.10961 -11.25836,-20.10961c0,0 8.88706,-13.9453 16.45207,-20.14396c7.56501,-6.19866 24.92164,-11.28852 24.92164,-11.28852c0,0 8.78907,6.4417 12.53684,10.97764c8.76993,10.6143 7.85439,20.94145 7.85439,20.94145z" fill="#e0e0e0" stroke="#000000" stroke-width="0" stroke-linecap="round"/><path d="M215.32326,217.24335c0,0 7.73498,3.78755 12.79823,9.9343c6.35821,7.71881 6.53337,19.3316 6.53337,19.3316c0,0 -5.45712,8.64735 -11.09778,13.60373c-5.64066,4.95639 -16.19917,10.38178 -16.19917,10.38178c0,0 1.97455,-11.98643 -1.34247,-20.04758c-3.31702,-8.06115 -14.05122,-17.36266 -14.05122,-17.36266l23.35902,-15.84117z" fill="#8c959c" stroke="#000000" stroke-width="0" stroke-linecap="round"/><g data-paper-data="{&quot;index&quot;:null}"><g data-paper-data="{&quot;index&quot;:null}" stroke="none" stroke-linecap="butt"><path d="M437.60178,239.28967l7.56304,-4.63514l0.35787,1.01263l-7.63577,4.72954z" fill="#1f1d75" stroke-width="0.5"/><path d="M446.36473,236.57884c-1.59153,-0.76035 -2.2653,-2.6669 -1.50494,-4.25843c0.76035,-1.59153 2.66688,-2.26532 4.25841,-1.50497c1.59155,0.76035 2.26532,2.6669 1.50497,4.25843c-0.76035,1.59153 -2.6669,2.26532 -4.25843,1.50497z" fill="#302db1" stroke-width="0"/></g><path d="M394.12271,258.50766c0,0 -0.91554,-10.32716 7.85439,-20.94145c3.74777,-4.53595 12.53684,-10.97764 12.53684,-10.97764c0,0 17.35662,5.08986 24.92164,11.28852c7.56501,6.19866 16.45207,20.14396 16.45207,20.14396c0,0 -5.68055,13.05381 -11.25836,20.10961c-5.57781,7.0558 -11.89231,9.17549 -11.89231,9.17549c0,0 -14.01247,-3.40992 -21.18361,-8.75814c-7.17114,-5.34822 -17.43064,-20.04034 -17.43064,-20.04034z" fill="#e0e0e0" stroke="#000000" stroke-width="0" stroke-linecap="round"/><path d="M414.85233,230.84706l23.35902,15.84117c0,0 -10.73419,9.30151 -14.05122,17.36266c-3.31702,8.06115 -1.34247,20.04758 -1.34247,20.04758c0,0 -10.55851,-5.42539 -16.19917,-10.38178c-5.64066,-4.95639 -11.09778,-13.60373 -11.09778,-13.60373c0,0 0.17517,-11.61279 6.53337,-19.3316c5.06325,-6.14674 12.79823,-9.9343 12.79823,-9.9343z" fill="#8c959c" stroke="#000000" stroke-width="0" stroke-linecap="round"/></g></g></g></svg>