<svg version="1.1" xmlns="http://www.w3.org/2000/svg" xmlns:xlink="http://www.w3.org/1999/xlink" width="31.68703" height="23.7643" viewBox="0,0,31.68703,23.7643"><defs><radialGradient cx="291.33189" cy="113.58772" r="2.16906" gradientUnits="userSpaceOnUse" id="color-1"><stop offset="0" stop-color="#ff0000"/><stop offset="1" stop-color="#ff0000" stop-opacity="0"/></radialGradient><radialGradient cx="291.42346" cy="113.59993" r="1.02976" gradientUnits="userSpaceOnUse" id="color-2"><stop offset="0" stop-color="#ffffff"/><stop offset="1" stop-color="#ffffff" stop-opacity="0"/></radialGradient><radialGradient cx="303.41742" cy="111.15259" r="2.16906" gradientUnits="userSpaceOnUse" id="color-3"><stop offset="0" stop-color="#ff0000"/><stop offset="1" stop-color="#ff0000" stop-opacity="0"/></radialGradient><radialGradient cx="303.50901" cy="111.16478" r="1.02975" gradientUnits="userSpaceOnUse" id="color-4"><stop offset="0" stop-color="#ffffff"/><stop offset="1" stop-color="#ffffff" stop-opacity="0"/></radialGradient><radialGradient cx="291.0118" cy="113.69155" r="10.57059" gradientUnits="userSpaceOnUse" id="color-5"><stop offset="0" stop-color="#ff0000" stop-opacity="0.42745"/><stop offset="1" stop-color="#ff0000" stop-opacity="0"/></radialGradient><radialGradient cx="303.90128" cy="110.99014" r="10.57057" gradientUnits="userSpaceOnUse" id="color-6"><stop offset="0" stop-color="#ff0000" stop-opacity="0.42745"/><stop offset="1" stop-color="#ff0000" stop-opacity="0"/></radialGradient></defs><g transform="translate(-281.61303,-100.45869)"><g data-paper-data="{&quot;isPaintingLayer&quot;:true}" fill-rule="nonzero" stroke-linecap="butt" stroke-linejoin="miter" stroke-miterlimit="10" stroke-dasharray="" stroke-dashoffset="0" style="mix-blend-mode: normal"><path d="M293.46218,113.17946c0.22548,1.17654 -0.5455,2.31308 -1.72203,2.53856c-1.17653,0.22548 -2.31309,-0.5455 -2.53857,-1.72203c-0.22548,-1.17654 0.5455,-2.31309 1.72204,-2.53857c1.17653,-0.22548 2.31308,0.5455 2.53856,1.72203z" fill="url(#color-1)" stroke="none" stroke-width="0"/><path d="M292.4348,113.40611c0.10705,0.55855 -0.25897,1.09813 -0.81752,1.20517c-0.55856,0.10704 -1.09813,-0.25898 -1.20518,-0.81753c-0.10705,-0.55855 0.25898,-1.09813 0.81753,-1.20517c0.55856,-0.10704 1.09812,0.25898 1.20517,0.81753z" fill="url(#color-2)" stroke="#000000" stroke-width="0.5"/><path d="M305.54772,110.74433c0.22548,1.17654 -0.5455,2.31307 -1.72203,2.53856c-1.17653,0.22548 -2.31308,-0.5455 -2.53856,-1.72203c-0.22548,-1.17654 0.5455,-2.31309 1.72203,-2.53857c1.17653,-0.22548 2.31308,0.5455 2.53856,1.72204z" fill="url(#color-3)" stroke="none" stroke-width="0"/><path d="M304.52036,110.97096c0.10705,0.55855 -0.25897,1.09812 -0.81752,1.20517c-0.55856,0.10704 -1.09813,-0.25898 -1.20518,-0.81753c-0.10705,-0.55855 0.25897,-1.09813 0.81753,-1.20518c0.55856,-0.10704 1.09813,0.25899 1.20517,0.81754z" fill="url(#color-4)" stroke="#000000" stroke-width="0.5"/><path d="M291.5956,113.56693c0.01214,0.06337 -0.02939,0.12461 -0.09277,0.13675c-0.06338,0.01215 -0.12461,-0.02939 -0.13675,-0.09276c-0.01214,-0.06337 0.02939,-0.12461 0.09277,-0.13675c0.06338,-0.01215 0.12461,0.02939 0.13675,0.09276z" fill="#000000" stroke="none" stroke-width="0"/><path d="M303.57738,111.21117c0.01214,0.06337 -0.02938,0.12461 -0.09276,0.13676c-0.06338,0.01215 -0.12462,-0.02939 -0.13676,-0.09277c-0.01214,-0.06337 0.02938,-0.12461 0.09277,-0.13676c0.06338,-0.01215 0.12461,0.02939 0.13675,0.09277z" fill="#000000" stroke="none" stroke-width="0"/><path d="M300.19559,111.93151c1.09883,5.73362 -2.12211,11.16962 -7.19416,12.14166c-5.07206,0.97205 -10.07453,-2.88797 -11.17338,-8.62159c-1.09883,-5.73362 2.12209,-11.16963 7.19416,-12.14168c5.07206,-0.97205 10.07454,2.88799 11.17338,8.62161z" fill="url(#color-5)" stroke="none" stroke-width="NaN"/><path d="M313.08504,109.2301c1.09883,5.73362 -2.12209,11.16965 -7.19415,12.14169c-5.07204,0.97203 -10.07454,-2.88799 -11.17337,-8.62161c-1.09883,-5.73362 2.12209,-11.16963 7.19415,-12.14168c5.07204,-0.97203 10.07454,2.88799 11.17337,8.62161z" fill="url(#color-6)" stroke="none" stroke-width="NaN"/></g></g></svg>