<svg version="1.1" xmlns="http://www.w3.org/2000/svg" xmlns:xlink="http://www.w3.org/1999/xlink" width="75.48362" height="92.06137" viewBox="0,0,75.48362,92.06137"><defs><linearGradient x1="357.63802" y1="81.66374" x2="373.51171" y2="77.96245" gradientUnits="userSpaceOnUse" id="color-1"><stop offset="0" stop-color="#9d551f"/><stop offset="1" stop-color="#80481b"/></linearGradient><linearGradient x1="360.07219" y1="81.76035" x2="371.2132" y2="79.16259" gradientUnits="userSpaceOnUse" id="color-2"><stop offset="0" stop-color="#54311b"/><stop offset="1" stop-color="#35231b"/></linearGradient><linearGradient x1="381.70143" y1="71.66841" x2="389.48627" y2="133.25576" gradientUnits="userSpaceOnUse" id="color-3"><stop offset="0" stop-color="#9f561f"/><stop offset="1" stop-color="#442c12"/></linearGradient><linearGradient x1="370.02841" y1="106.6291" x2="373.79856" y2="136.45546" gradientUnits="userSpaceOnUse" id="color-4"><stop offset="0" stop-color="#c2854c"/><stop offset="1" stop-color="#b67d47"/></linearGradient><linearGradient x1="386.46197" y1="63.38314" x2="388.71369" y2="81.19693" gradientUnits="userSpaceOnUse" id="color-5"><stop offset="0" stop-color="#141414"/><stop offset="1" stop-color="#040000"/></linearGradient><linearGradient x1="384.85222" y1="51.70304" x2="387.54444" y2="73.00163" gradientUnits="userSpaceOnUse" id="color-6"><stop offset="0" stop-color="#141414"/><stop offset="1" stop-color="#040000"/></linearGradient><linearGradient x1="412.84407" y1="75.15443" x2="414.8352" y2="98.74147" gradientUnits="userSpaceOnUse" id="color-7"><stop offset="0" stop-color="#9d551f"/><stop offset="1" stop-color="#80481b"/></linearGradient><linearGradient x1="410.7732" y1="78.87944" x2="412.26705" y2="95.42192" gradientUnits="userSpaceOnUse" id="color-8"><stop offset="0" stop-color="#54311b"/><stop offset="1" stop-color="#35231b"/></linearGradient></defs><g transform="translate(-350.25235,-51.27064)"><g data-paper-data="{&quot;isPaintingLayer&quot;:true}" fill-rule="nonzero" stroke-linejoin="miter" stroke-miterlimit="10" stroke-dasharray="" stroke-dashoffset="0" style="mix-blend-mode: normal"><g data-paper-data="{&quot;index&quot;:null}"><path d="M360.0017,71.33953c6.2894,-5.74777 17.32438,5.10671 12.66102,12.93302c-0.63515,1.06596 -4.75353,4.63238 -5.77386,5.46468c-5.44959,4.44535 -14.12966,-11.7789 -6.88715,-18.39769z" data-paper-data="{&quot;index&quot;:null}" fill="url(#color-1)" stroke="#000000" stroke-width="0" stroke-linecap="round"/><path d="M370.61735,83.59135c-0.44579,0.74814 -3.33629,3.25125 -4.05241,3.83541c-3.82482,3.11998 -9.91696,-8.26707 -4.83378,-12.9125c4.41424,-4.03409 12.15919,3.58417 8.88619,9.0771z" data-paper-data="{&quot;index&quot;:null}" fill="url(#color-2)" stroke="#000000" stroke-width="0" stroke-linecap="round"/><path d="M406.62018,129.23743c0,0 -12.62021,10.42231 -22.34999,13.34101c-9.72977,2.9187 -22.63678,-3.34879 -25.57081,-6.73738c-2.93404,-3.3886 -2.61556,-7.72702 -2.61556,-7.72702z" fill="#683c17" stroke="#000000" stroke-width="0" stroke-linecap="round"/><path d="M416.63439,104.57722c0,0 4.08032,8.3737 2.90177,12.15213c-1.17855,3.77843 -5.99293,11.6102 -10.79282,13.65555c-4.79989,2.04536 -14.0319,0.63559 -14.0319,0.63559l-9.91176,2.61858l-29.82964,-19.90158c0,0 -1.7034,-4.37819 -1.13024,-7.14087c0.57315,-2.76268 4.52481,-9.22139 4.52481,-9.22139c0,0 -1.17203,-30.69918 32.82084,-24.86179c28.08595,4.82303 25.44895,32.06377 25.44895,32.06377z" fill="url(#color-3)" stroke="#000000" stroke-width="0" stroke-linecap="round"/><path d="M391.47137,132.31568c0,0 -7.86003,5.22012 -13.51091,5.20743c-5.65088,-0.01269 -9.69554,-0.77522 -15.64476,-3.57061c-5.94922,-2.79538 -4.68235,-5.98057 -4.68235,-5.98057z" fill="#361f33" stroke="#000000" stroke-width="0" stroke-linecap="round"/><path d="M372.48386,137.16572c0,0 -2.33079,1.07734 -3.85661,0.85632c-1.52582,-0.22102 -3.28174,-1.89032 -3.28174,-1.89032c0,0 0.22682,-3.08107 4.30835,-2.38871c3.31297,0.56198 2.83,3.42272 2.83,3.42272z" fill="#ffffff" stroke="#000000" stroke-width="0" stroke-linecap="round"/><path d="M383.49411,137.30706c0,0 -1.67491,1.59581 -3.054,1.69592c-1.37909,0.10011 -3.39789,-1.22755 -3.39789,-1.22755c0,0 -0.74513,-3.19025 2.97476,-3.35493c3.01943,-0.13367 3.47713,2.88656 3.47713,2.88656z" fill="#ffffff" stroke="#000000" stroke-width="0" stroke-linecap="round"/><path d="M362.3562,133.69833c0,0 -2.07571,0.62595 -3.27131,0.12628c-1.19561,-0.49968 -2.32218,-2.46393 -2.32218,-2.46393c0,0 0.72645,-2.98305 3.90685,-1.54714c2.58152,1.16552 1.68664,3.88479 1.68664,3.88479z" fill="#ffffff" stroke="#000000" stroke-width="0" stroke-linecap="round"/><path d="M394.53126,130.37222c0,0 -11.62765,7.62877 -23.26903,4.98983c-9.05768,-2.05325 -8.91491,-5.70163 -8.91491,-5.70163c0,0 -7.37663,1.6616 -9.89618,-1.30978c-2.51954,-2.97138 -2.76035,-8.08773 -1.29937,-12.98063c1.46099,-4.89289 5.24535,-7.3235 8.11962,-7.34271c4.43069,-0.02962 21.74464,4.40594 27.17378,8.34431c9.33456,6.77142 8.08609,14.0006 8.08609,14.0006z" fill="url(#color-4)" stroke="#000000" stroke-width="0" stroke-linecap="round"/><path d="M359.90292,117.10484c-3.42134,-1.02462 -2.27879,-6.56285 -2.27879,-6.56285c0,0 2.52886,-2.9467 4.64904,-2.82737c2.12018,0.11933 7.21563,1.70634 11.41878,3.82655c2.02422,1.02109 -2.04612,2.5123 -4.36581,3.44826c-2.3197,0.93597 -6.00186,3.14004 -9.42322,2.11541z" fill="#1d1a1a" stroke="#000000" stroke-width="0" stroke-linecap="round"/><path d="M378.25448,97.44632c4.49152,-1.88616 11.50054,0.44557 13.0893,4.22888c1.58876,3.78332 0.79054,8.67907 -3.70098,10.56523c-4.49152,1.88616 -10.9755,0.04849 -12.56426,-3.73483c-1.58876,-3.78332 -1.31558,-9.17312 3.17594,-11.05929z" fill="#000000" stroke="#000000" stroke-width="0" stroke-linecap="butt"/><path d="M362.54917,94.60807c3.30416,0.05907 5.53202,1.89816 6.04948,5.99183c0.51745,4.09368 1.67566,7.8841 -3.75909,8.07623c-5.653,0.19985 -5.99067,-2.8255 -6.50812,-6.91918c-0.51745,-4.09368 1.2909,-7.2012 4.21774,-7.14888z" fill="#000000" stroke="none" stroke-width="0" stroke-linecap="butt"/><path d="M391.66153,95.04664c-0.59586,0.83458 -2.57512,-1.14313 -5.93394,-1.67496c-3.96333,-0.62756 -8.79264,-0.42355 -8.77589,-0.62617c0.3133,-3.78762 13.67641,-2.93594 14.59618,-2.70938c0.69134,0.1703 0.85714,3.96916 0.11365,5.01052z" fill="#060203" stroke="#000000" stroke-width="0.5" stroke-linecap="round"/><path d="M360.93074,85.11626c0.66652,0.05592 9.99267,3.18927 9.65319,6.88465c-0.01817,0.19769 -3.31353,-1.42152 -6.13451,-1.99415c-2.39071,-0.48529 -4.04345,0.81189 -4.3314,-0.15784c-0.35929,-1.20999 0.31173,-4.77468 0.81273,-4.73266z" data-paper-data="{&quot;index&quot;:null}" fill="#060203" stroke="#000000" stroke-width="0.5" stroke-linecap="round"/><path d="M386.84863,63.36772c9.78066,-0.81031 18.04039,2.52745 18.44864,7.45511c0.40825,4.92766 -7.18958,9.5792 -16.97024,10.38951c-9.78066,0.81031 -18.04039,-2.52745 -18.44864,-7.45511c-0.40825,-4.92766 7.18958,-9.5792 16.97024,-10.38951z" fill="url(#color-5)" stroke="none" stroke-width="0" stroke-linecap="butt"/><path d="M388.41128,74.72321c-3.72796,0.395 -11.96732,-0.76847 -11.96732,-0.76847l-2.94598,-18.91077c0,0 3.46899,-2.10693 11.81244,-3.38584c7.9038,-1.2115 11.41443,0.80482 11.41443,0.80482l1.7273,19.15991c0,0 -6.43697,2.7185 -10.04087,3.10035z" fill="url(#color-6)" stroke="#000000" stroke-width="0" stroke-linecap="round"/><path d="M412.43698,89.6619l-8.66834,7.26926l-3.46311,-6.30338l9.57443,-6.13723z" fill="#220d0d" stroke="#000000" stroke-width="0" stroke-linecap="round"/><path d="M424.40575,80.07281c5.72383,9.96153 -8.36958,24.4267 -16.72236,16.52774c-1.13767,-1.07584 -4.65829,-7.57039 -5.47141,-9.17204c-4.34293,-8.55442 15.60255,-18.82679 22.19377,-7.35568z" fill="url(#color-7)" stroke="#000000" stroke-width="0" stroke-linecap="round"/><path d="M407.91712,93.83467c-0.701,-0.76741 -2.90926,-5.35885 -3.42054,-6.49048c-2.73072,-6.04408 9.20089,-12.99248 13.3267,-4.8782c3.58284,7.04646 -4.75936,17.00306 -9.90617,11.36868z" fill="url(#color-8)" stroke="#000000" stroke-width="0" stroke-linecap="round"/><g fill="#000000" stroke="none" stroke-width="0" stroke-linecap="butt"><path d="M386.40203,122.57058c0.50824,-0.12287 1.02516,0.2487 1.15459,0.82992c0.12942,0.58122 -0.17768,1.15201 -0.68591,1.27488c-0.50823,0.12287 -1.02516,-0.2487 -1.15459,-0.82992c-0.12942,-0.58122 0.17768,-1.15201 0.68591,-1.27488z"/><path d="M382.83268,119.52545c0.50824,-0.12287 1.02516,0.2487 1.15459,0.82992c0.12942,0.58122 -0.17768,1.15201 -0.68591,1.27488c-0.50823,0.12287 -1.02516,-0.2487 -1.15459,-0.82992c-0.12942,-0.58122 0.17768,-1.15201 0.68591,-1.27488z"/><path d="M386.69603,118.69705c0.50824,-0.12287 1.02516,0.2487 1.15459,0.82992c0.12942,0.58122 -0.17768,1.15201 -0.68591,1.27488c-0.50824,0.12287 -1.02516,-0.2487 -1.15459,-0.82992c-0.12942,-0.58122 0.17768,-1.15201 0.68591,-1.27488z"/></g><g data-paper-data="{&quot;index&quot;:null}" fill="#000000" stroke="none" stroke-width="0" stroke-linecap="butt"><path d="M351.9994,116.90861c0.04103,0.59239 -0.1844,1.0578 -0.50352,1.03951c-0.31912,-0.01829 -0.61109,-0.51336 -0.65213,-1.10575c-0.04103,-0.59239 0.18439,-1.0578 0.50352,-1.03951c0.31912,0.01829 0.61109,0.51335 0.65213,1.10574z"/><path d="M353.29339,114.06817c0.04103,0.59239 -0.1844,1.0578 -0.50352,1.03951c-0.31912,-0.01829 -0.61109,-0.51335 -0.65213,-1.10574c-0.04103,-0.59239 0.1844,-1.0578 0.50352,-1.03951c0.31912,0.01829 0.6111,0.51336 0.65213,1.10575z"/></g></g></g></g></svg>