<svg version="1.1" xmlns="http://www.w3.org/2000/svg" xmlns:xlink="http://www.w3.org/1999/xlink" width="205.13139" height="144.0646" viewBox="0,0,205.13139,144.0646"><defs><linearGradient x1="316.4243" y1="139.40004" x2="316.4243" y2="242.26491" gradientUnits="userSpaceOnUse" id="color-1"><stop offset="0" stop-color="#44cf00"/><stop offset="1" stop-color="#38a100"/></linearGradient><radialGradient cx="243.58594" cy="134.18946" r="29.98957" gradientUnits="userSpaceOnUse" id="color-2"><stop offset="0" stop-color="#90199f"/><stop offset="1" stop-color="#570c56"/></radialGradient><linearGradient x1="391.08594" y1="114.68933" x2="391.08594" y2="153.18933" gradientUnits="userSpaceOnUse" id="color-3"><stop offset="0" stop-color="#adb0ad"/><stop offset="1" stop-color="#5e625e"/></linearGradient><radialGradient cx="401.85391" cy="106.62669" r="10.41319" gradientUnits="userSpaceOnUse" id="color-4"><stop offset="0" stop-color="#9d0100"/><stop offset="1" stop-color="#6c1b1e"/></radialGradient><linearGradient x1="316.9243" y1="163.54464" x2="316.9243" y2="229.26491" gradientUnits="userSpaceOnUse" id="color-5"><stop offset="0" stop-color="#cfcfcf"/><stop offset="1" stop-color="#a1a1a1"/></linearGradient></defs><g transform="translate(-205.72252,-98.20031)"><g data-paper-data="{&quot;isPaintingLayer&quot;:true}" fill-rule="nonzero" stroke-linejoin="miter" stroke-miterlimit="10" stroke-dasharray="" stroke-dashoffset="0" style="mix-blend-mode: normal"><path d="M226.42448,190.29812c0.20215,18.79824 10.33334,45.40232 10.33334,45.40232c0,0 44.74834,6.61405 73.66667,6.5642c28.91833,-0.04985 85,-6.8377 85,-6.8377c0,0 11.18803,-25.98611 11,-43.21426c-0.18803,-17.22815 -11,-47.31688 -11,-47.31688c0,0 -48.47046,-5.09214 -79.66667,-5.47016c-31.19621,-0.37802 -78.33334,3.55561 -78.33334,3.55561c0,0 -11.20215,28.51863 -11,47.31687z" fill="url(#color-1)" stroke="#000000" stroke-width="0" stroke-linecap="round"/><path d="M261.15828,123.9601c8.76067,9.32758 4.46996,27.58931 -9.58358,40.78873c-14.05355,13.19942 -32.54813,16.33818 -41.30881,7.0106c-8.76067,-9.32757 -4.46995,-27.58931 9.58359,-40.78874c14.05355,-13.19942 32.54813,-16.33817 41.3088,-7.0106z" fill="url(#color-2)" stroke="#ffffff" stroke-width="0" stroke-linecap="butt"/><path d="M397.08594,114.68933l-17.2,29.7l16.4,9.2l4.8,-37.9z" fill="url(#color-3)" stroke="#000000" stroke-width="0" stroke-linecap="round"/><path d="M410.85391,108.6135c0,5.75105 -4.61147,10.41318 -10.3,10.41318c-5.68854,0 -10.3,-4.66214 -10.3,-10.41318c0,-5.75105 4.61147,-10.41319 10.3,-10.41319c5.68854,0 10.3,4.66214 10.3,10.41319z" fill="url(#color-4)" stroke="none" stroke-width="0" stroke-linecap="butt"/><text transform="translate(291.12136,153.43344) scale(0.16631,0.16631)" font-size="40" xml:space="preserve" fill="#774770" fill-rule="nonzero" stroke="none" stroke-width="1" stroke-linecap="butt" stroke-linejoin="miter" stroke-miterlimit="10" stroke-dasharray="" stroke-dashoffset="0" font-family="Handwriting" font-weight="normal" text-anchor="start" style="mix-blend-mode: normal"><tspan x="0" dy="0">You Can Think Pad</tspan></text><text transform="translate(342.52136,151.33344) scale(0.12297,0.12297)" font-size="40" xml:space="preserve" fill="#774770" fill-rule="nonzero" stroke="none" stroke-width="1" stroke-linecap="butt" stroke-linejoin="miter" stroke-miterlimit="10" stroke-dasharray="" stroke-dashoffset="0" font-family="Handwriting" font-weight="normal" text-anchor="start" style="mix-blend-mode: normal"><tspan x="0" dy="0">TM</tspan></text><path d="M246.42389,196.06338c0.15835,12.01018 8.09451,29.0075 8.09451,29.0075c0,0 35.05313,4.22571 57.706,4.19386c22.65287,-0.03185 66.58385,-4.3686 66.58385,-4.3686c0,0 8.76402,-16.6025 8.61673,-27.60955c-0.14729,-11.00705 -8.61673,-30.2307 -8.61673,-30.2307c0,0 -37.96882,-3.25336 -62.40604,-3.49488c-24.43722,-0.24152 -61.36159,2.27167 -61.36159,2.27167c0,0 -8.77508,18.22053 -8.61673,30.2307z" fill="url(#color-5)" stroke="#000000" stroke-width="0" stroke-linecap="round"/></g></g></svg>