<svg version="1.1" xmlns="http://www.w3.org/2000/svg" xmlns:xlink="http://www.w3.org/1999/xlink" width="321.6797" height="294.03657" viewBox="0,0,321.6797,294.03657"><defs><linearGradient x1="277.22091" y1="108.98436" x2="315.3733" y2="241.42385" gradientUnits="userSpaceOnUse" id="color-1"><stop offset="0" stop-color="#68950d"/><stop offset="1" stop-color="#5b820c"/></linearGradient><linearGradient x1="280.82583" y1="43.69204" x2="280.82583" y2="135.49961" gradientUnits="userSpaceOnUse" id="color-2"><stop offset="0" stop-color="#68950d"/><stop offset="1" stop-color="#5b820c"/></linearGradient><linearGradient x1="304.05235" y1="80.87977" x2="302.58036" y2="94.4535" gradientUnits="userSpaceOnUse" id="color-3"><stop offset="0" stop-color="#ffad00"/><stop offset="1" stop-color="#ff6c29"/></linearGradient><linearGradient x1="334.55798" y1="79.86293" x2="333.08601" y2="93.43664" gradientUnits="userSpaceOnUse" id="color-4"><stop offset="0" stop-color="#ffad00"/><stop offset="1" stop-color="#ff6c29"/></linearGradient><linearGradient x1="425.89815" y1="165.57623" x2="425.89815" y2="201.79818" gradientUnits="userSpaceOnUse" id="color-5"><stop offset="0" stop-color="#68950d"/><stop offset="1" stop-color="#50730a"/></linearGradient><linearGradient x1="400.89218" y1="127.64022" x2="400.89218" y2="193.28328" gradientUnits="userSpaceOnUse" id="color-6"><stop offset="0" stop-color="#64900d"/><stop offset="1" stop-color="#567c0b"/></linearGradient><linearGradient x1="437.60979" y1="175.52569" x2="437.60979" y2="254.18668" gradientUnits="userSpaceOnUse" id="color-7"><stop offset="0" stop-color="#5e880c"/><stop offset="1" stop-color="#5b820c"/></linearGradient><linearGradient x1="388.92102" y1="83.43607" x2="388.92102" y2="155.92108" gradientUnits="userSpaceOnUse" id="color-8"><stop offset="0" stop-color="#84217a"/><stop offset="1" stop-color="#701c68"/></linearGradient><linearGradient x1="209.10185" y1="165.21002" x2="209.10185" y2="201.43198" gradientUnits="userSpaceOnUse" id="color-9"><stop offset="0" stop-color="#68950d"/><stop offset="1" stop-color="#50730a"/></linearGradient><linearGradient x1="234.10782" y1="127.27402" x2="234.10782" y2="192.91707" gradientUnits="userSpaceOnUse" id="color-10"><stop offset="0" stop-color="#64900d"/><stop offset="1" stop-color="#567c0b"/></linearGradient><linearGradient x1="197.39021" y1="175.15949" x2="197.39021" y2="253.82047" gradientUnits="userSpaceOnUse" id="color-11"><stop offset="0" stop-color="#5e880c"/><stop offset="1" stop-color="#5b820c"/></linearGradient><linearGradient x1="246.07896" y1="83.06987" x2="246.07896" y2="155.55488" gradientUnits="userSpaceOnUse" id="color-12"><stop offset="0" stop-color="#84217a"/><stop offset="1" stop-color="#701c68"/></linearGradient><linearGradient x1="305.2634" y1="100.36842" x2="310.78875" y2="139.14769" gradientUnits="userSpaceOnUse" id="color-13"><stop offset="0" stop-color="#587f0a"/><stop offset="1" stop-color="#5e870c"/></linearGradient></defs><g transform="translate(-156.66015,-30.33148)"><g data-paper-data="{&quot;isPaintingLayer&quot;:true}" fill-rule="nonzero" stroke-linejoin="miter" stroke-miterlimit="10" stroke-dasharray="" stroke-dashoffset="0" style="mix-blend-mode: normal"><g stroke="#000000" stroke-width="0" stroke-linecap="round"><path d="M360.17885,126.07003c25.95686,2.2831 22.35655,26.23801 22.66805,45.59856c0.31148,19.36055 -16.49289,56.01894 -16.49289,56.01894l-19.55098,3.56546c0,0 0.15089,-5.40467 -3.82408,-5.75702c-19.1033,-1.6934 -43.75431,2.53702 -49.93959,3.22744c-6.18529,0.69043 -1.46681,6.94218 -13.56318,6.2343c-12.09637,-0.70788 -9.84065,-2.08274 -9.84065,-2.08274c0,0 -13.71774,-33.2276 -12.41163,-56.09412c1.30613,-22.86652 2.61169,-49.42032 25.44021,-50.33496c8.06547,-0.32315 46.77956,-3.07925 77.51473,-0.37588z" fill="url(#color-1)"/><path d="M307.01874,156.9184c3.73074,-0.74272 11.38308,-5.2226 11.38308,-5.2226c0,0 10.08469,6.01899 14.955,4.84544c5.6434,-1.35979 19.75473,-11.79596 19.75473,-11.79596c0,0 1.77561,13.57281 1.75982,19.20787c-0.01342,4.78636 -1.84859,12.47386 -1.84859,12.47386c0,0 5.65857,-3.68831 7.19944,-7.19829c1.76667,-4.02437 2.81605,-15.61645 2.81605,-15.61645c0,0 6.13741,20.8161 3.8066,37.43487c-2.33081,16.61878 -14.51878,38.94377 -14.51878,38.94377l-6.19756,1.6789c0,0 1.45661,-4.9414 -1.82692,-5.19933c-20.54485,-1.61401 -46.72065,2.32502 -48.52662,2.57656c-1.80594,0.25154 -3.11684,5.3387 -3.11684,5.3387c0,0 -5.79437,0.434 -7.3034,0.71896c-1.50837,0.28482 -8.93582,-28.84002 -9.81176,-40.24744c-0.97861,-12.74442 1.67317,-37.22105 1.67317,-37.22105c0,0 1.48168,8.85845 4.59641,13.35118c3.11474,4.49273 10.9912,9.13255 10.9912,9.13255c0,0 -5.29472,-9.24185 -7.67564,-16.08119c-2.00724,-5.76598 0.32345,-18.99259 0.32345,-18.99259c0,0 7.62772,14.64731 21.56713,11.87222z" fill="#eedd0b"/></g><path d="M361.0961,115.02305c0,0 -0.74718,24.83791 -9.72493,34.26403c-8.97774,9.42613 -12.79795,19.85024 -31.01617,20.16723c-18.21822,0.31699 -18.15562,-8.39336 -26.67394,-16.56878c-7.58431,-7.27902 -18.3993,-35.18403 -18.3993,-35.18403l39.99857,-11.24411z" fill="#eedd0b" stroke="#000000" stroke-width="0" stroke-linecap="round"/><path d="M353.82596,121.28633c0,0 -2.88825,13.14633 -9.71269,18.82802c-6.82447,5.6817 -9.74267,11.95895 -23.54949,12.16758c-13.80681,0.20863 -13.74001,-5.03357 -20.17718,-9.94542c-5.73136,-4.37329 -14.6296,-19.35024 -14.6296,-19.35024l31.10118,-8.61264z" fill="#0d0b07" stroke="#000000" stroke-width="0" stroke-linecap="round"/><g fill="#ffffff" stroke="#000000" stroke-width="0" stroke-linecap="round"><path d="M299.40998,142.96463c0,0 -1.77041,1.01543 -2.46064,0.78625c-0.69022,-0.22917 -1.21289,-2.00601 -1.21289,-2.00601l0.527,-4.05255l1.51583,-5.20235c0,0 0.684,2.69738 0.94855,4.49816c0.26454,1.80073 0.68213,5.97648 0.68213,5.97648z" data-paper-data="{&quot;index&quot;:null}"/><path d="M294.32078,138.5346c0,0 -1.77041,1.01543 -2.46064,0.78625c-0.69022,-0.22917 -1.21289,-2.00601 -1.21289,-2.00601l0.527,-4.05255l1.51583,-5.20235c0,0 0.684,2.69738 0.94855,4.49816c0.26454,1.80073 0.68213,5.97648 0.68213,5.97648z" data-paper-data="{&quot;index&quot;:null}"/></g><path d="M312.35805,156.4042c0,0 0.71401,-3.34508 1.33025,-5.38392c0.61625,-2.03883 1.94579,-5.45467 1.94579,-5.45467c0,0 0.71428,2.70569 0.98513,4.5097c0.27083,1.80404 0.68876,5.98504 0.68876,5.98504l-2.22272,0.86963z" data-paper-data="{&quot;index&quot;:null}" fill="#ffffff" stroke="#000000" stroke-width="0" stroke-linecap="round"/><path d="M303.70224,152.24043c0,0 0.71677,-2.52537 1.60191,-4.41c0.88513,-1.88464 2.69396,-4.98006 2.69396,-4.98006c0,0 0.50614,2.8215 0.61831,4.65978c0.11217,1.83828 0.14191,6.05479 0.14191,6.05479c0,0 -1.77552,1.10749 -2.92903,0.80531c-1.15354,-0.30218 -2.12707,-2.12983 -2.12707,-2.12983z" data-paper-data="{&quot;index&quot;:null}" fill="#ffffff" stroke="#000000" stroke-width="0" stroke-linecap="round"/><path d="M342.75436,143.56222c0,0 0.13659,-4.1922 0.27979,-6.00506c0.14323,-1.81288 0.64486,-4.54549 0.64486,-4.54549l1.86184,5.102l0.79787,4.01318c0,0 -0.4024,1.8043 -1.07587,2.07401c-0.67347,0.2697 -2.50848,-0.63862 -2.50848,-0.63862z" data-paper-data="{&quot;index&quot;:null}" fill="#ffffff" stroke="#000000" stroke-width="0" stroke-linecap="round"/><path d="M327.00838,157.0701l-2.44688,-0.71869c0,0 0.18172,-4.20112 0.3575,-6.0199c0.1758,-1.81877 0.77084,-4.5673 0.77084,-4.5673c0,0 1.64913,3.32004 2.44271,5.31362c0.79357,1.99356 1.77601,5.28433 1.77601,5.28433z" data-paper-data="{&quot;index&quot;:null}" fill="#ffffff" stroke="#000000" stroke-width="0" stroke-linecap="round"/><path d="M335.21125,152.84163c-1.10376,0.37175 -2.90347,-0.62574 -2.90347,-0.62574c0,0 -0.24117,-4.21031 -0.24976,-6.05189c-0.00856,-1.84159 0.30348,-4.68851 0.30348,-4.68851c0,0 1.9595,2.97957 2.94206,4.80681c0.98254,1.82724 1.84225,4.30424 1.84225,4.30424c0,0 -0.83078,1.88334 -1.93456,2.25508z" data-paper-data="{&quot;index&quot;:null}" fill="#ffffff" stroke="#000000" stroke-width="0" stroke-linecap="round"/><path d="M347.04798,139.22637c0,0 0.13659,-4.1922 0.27979,-6.00506c0.14323,-1.81288 0.64486,-4.54549 0.64486,-4.54549l1.86184,5.102l0.79787,4.01318c0,0 -0.4024,1.8043 -1.07587,2.07401c-0.67347,0.2697 -2.50848,-0.63862 -2.50848,-0.63862z" data-paper-data="{&quot;index&quot;:null}" fill="#ffffff" stroke="#000000" stroke-width="0" stroke-linecap="round"/><g fill="#ffffff" stroke="#000000" stroke-width="0" stroke-linecap="round"><g data-paper-data="{&quot;index&quot;:null}"><path d="M356.02714,119.50983c0,0 -0.98938,7.36204 -2.26605,10.51452c-1.15061,2.84122 -5.05522,7.56385 -5.05522,7.56385c0,0 -0.00009,-5.55331 -0.15794,-8.16972c-0.16187,-2.68332 -0.80151,-7.73458 -0.80151,-7.73458z" data-paper-data="{&quot;index&quot;:null}"/></g><path d="M360.97995,114.88378c0,0 -0.35757,7.4196 -1.3606,10.66953c-0.90399,2.92903 -4.39138,7.96759 -4.39138,7.96759c0,0 -0.47395,-5.53306 -0.85447,-8.12643c-0.39024,-2.65972 -1.45855,-7.63798 -1.45855,-7.63798z" data-paper-data="{&quot;index&quot;:null}"/></g><path d="M292.15441,125.60144c0,0 -1.03403,4.98548 -1.40598,7.64783c-0.36267,2.59595 -0.79853,8.13214 -0.79853,8.13214c0,0 -3.52198,-5.01447 -4.44609,-7.9372c-1.02537,-3.24295 -1.43398,-10.65991 -1.43398,-10.65991z" data-paper-data="{&quot;index&quot;:null}" fill="#ffffff" stroke="#000000" stroke-width="0" stroke-linecap="round"/><path d="M287.31005,121.28058c0,0 -1.45567,4.87907 -2.05342,7.49997c-0.58286,2.55553 -1.48953,8.03434 -1.48953,8.03434c0,0 -3.08127,-5.29671 -3.75262,-8.28764c-0.74492,-3.31862 -0.51915,-10.7434 -0.51915,-10.7434z" data-paper-data="{&quot;index&quot;:null}" fill="#ffffff" stroke="#000000" stroke-width="0" stroke-linecap="round"/><g fill="#ffffff" stroke="#000000" stroke-width="0" stroke-linecap="round"><path d="M334.81342,124.79928c0,0 -0.68242,7.4243 -1.93082,10.66679c-1.12512,2.92233 -5.22829,7.92764 -5.22829,7.92764c0,0 -0.32191,-5.54487 -0.65043,-8.14557c-0.33691,-2.66723 -1.3466,-7.66332 -1.3466,-7.66332z" data-paper-data="{&quot;index&quot;:null}"/><path d="M344.28898,127.83192c0,0 -1.3907,7.35934 -2.94313,10.50091c-1.39915,2.8314 -5.95941,7.51487 -5.95941,7.51487c0,0 0.54321,-5.57552 0.46597,-8.19679c-0.07924,-2.68834 -0.93551,-7.7371 -0.93551,-7.7371z" data-paper-data="{&quot;index&quot;:null}"/></g><g fill="#ffffff" stroke="#000000" stroke-width="0" stroke-linecap="round"><path d="M313.74312,128.62693c0,0 -1.54172,4.85834 -2.16386,7.4738c-0.60663,2.55023 -1.52366,8.02819 -1.52366,8.02819c0,0 -3.54038,-5.418 -4.34434,-8.44448c-0.89203,-3.35802 -0.77112,-10.81266 -0.77112,-10.81266z" data-paper-data="{&quot;index&quot;:null}"/><path d="M304.26193,130.1729c0,0 -1.02051,5.09568 -1.38872,7.75985c-0.35902,2.59773 -0.79363,8.03088 -0.79363,8.03088c0,0 -4.0295,-5.14724 -5.11567,-8.11283c-1.20516,-3.29046 -1.79541,-10.75676 -1.79541,-10.75676z" data-paper-data="{&quot;index&quot;:null}"/></g><path d="M314.22388,80.51466l-4.15393,-8.61409l-4.82344,-39.29475c0,0 6.53101,-2.47925 10.85126,-2.26068c4.32026,0.21857 12.47618,3.44082 12.47618,3.44082l-4.26191,36.69479z" fill="#c93315" stroke="#000000" stroke-width="0" stroke-linecap="round"/><path d="M314.4106,71.32712l-3.39342,-7.03702l-3.94037,-32.10067c0,0 5.33532,-2.02533 8.86462,-1.84681c3.52929,0.17853 10.19204,2.81087 10.19204,2.81087l-3.48162,29.97673z" fill="#b62f14" stroke="#000000" stroke-width="0" stroke-linecap="round"/><path d="M277.91623,99.84691c1.97843,-12.40002 2.19397,-41.49368 24.04577,-42.23207c11.74596,-0.3969 15.19036,6.82679 15.19036,6.82679c0,0 4.1996,-8.54079 13.3455,-8.86692c31.75634,-1.13243 18.48107,23.76253 28.32241,42.92238c9.84136,19.15985 -3.64603,33.72689 -17.70864,35.65271c-6.78411,4.18456 -25.43988,-8.49249 -25.43988,-8.49249c0,0 -12.88175,11.76366 -21.88102,9.42587c-28.41961,-7.38272 -16.86081,-34.31771 -15.87451,-35.23627z" fill="url(#color-2)" stroke="#000000" stroke-width="0" stroke-linecap="round"/><path d="M325.44582,96.77725l-4.8088,4.34289l-20.6828,3.84371l13.54449,-8.41955l-5.72397,-3.71059l14.60387,-13.0675l-3.25005,10.42534z" fill="#7d2574" stroke="#000000" stroke-width="0" stroke-linecap="round"/><path d="M359.75827,103.28626c0.26654,2.51307 -0.38324,4.64216 -1.4513,4.75543c-1.06806,0.11329 -2.14995,-1.83214 -2.41648,-4.34522c-0.26654,-2.51307 0.38322,-4.64216 1.45127,-4.75543c1.06806,-0.11329 2.14997,1.83214 2.41651,4.34521z" fill="#334a05" stroke="none" stroke-width="0" stroke-linecap="butt"/><g fill="#334a05" stroke="none" stroke-width="0" stroke-linecap="butt"><path d="M279.07486,109.00958c-0.35678,4.82088 -1.52614,8.87907 -2.61187,9.06418c-1.08573,0.1851 -1.6767,-3.57295 -1.31991,-8.39383c0.35678,-4.82088 1.52614,-8.87905 2.61187,-9.06415c1.08573,-0.1851 1.67668,3.57295 1.31991,8.39383z"/><path d="M283.89351,100.1536c0.52195,1.77112 0.2648,4.53329 -0.5744,6.16943c-0.8392,1.63614 -1.94264,1.52674 -2.4646,-0.24439c-0.52195,-1.77112 -0.26481,-4.53326 0.57438,-6.1694c0.8392,-1.63614 1.94264,-1.52674 2.46463,0.24439z"/><path d="M282.04089,95.80417c0.28775,0.53874 0.22797,1.3548 -0.13351,1.82265c-0.36149,0.46789 -0.88781,0.41044 -1.17553,-0.1283c-0.28775,-0.53874 -0.22798,-1.3548 0.13348,-1.82267c0.36149,-0.46789 0.88781,-0.41042 1.17555,0.12833z"/></g><g stroke-width="0"><path d="M316.21623,86.77251c0,7.03394 -6.06356,12.73609 -13.54332,12.73609c-7.47976,0 -13.54332,-5.70214 -13.54332,-12.73609c0,-7.03394 6.06356,-12.73611 13.54332,-12.73611c7.47976,0 13.54332,5.70214 13.54332,12.73611z" fill="#000000" stroke="none" stroke-linecap="butt"/><path d="M314.64601,87.26355c0,5.9919 -5.16528,10.8493 -11.53694,10.8493c-6.37167,0 -11.53694,-4.8574 -11.53694,-10.8493c0,-5.9919 5.16527,-10.8493 11.53694,-10.8493c6.37167,0 11.53694,4.8574 11.53694,10.8493z" fill="#ffffff" stroke="none" stroke-linecap="butt"/><path d="M292.07965,84.4886c0,0 0.99042,-8.67853 11.53068,-8.35856c10.57652,0.32107 11.00727,9.07229 11.00727,9.07229c0,0 -3.61864,-6.9637 -11.17569,-6.76919c-9.48326,-0.1678 -11.36228,6.05545 -11.36228,6.05545z" fill="#6833d2" stroke="#000000" stroke-linecap="round"/></g><g stroke-width="0"><path d="M347.29918,86.79854c-0.48883,7.01697 -6.93399,12.28392 -14.39567,11.76411c-7.46169,-0.51982 -13.11431,-6.62955 -12.62548,-13.64652c0.48883,-7.01697 6.93399,-12.2839 14.39569,-11.76408c7.46169,0.51982 13.1143,6.62954 12.62546,13.64649z" fill="#000000" stroke="none" stroke-linecap="butt"/><path d="M345.69867,87.17928c-0.4164,5.97743 -5.90675,10.46412 -12.26304,10.02132c-6.35628,-0.44282 -11.17149,-5.64743 -10.75508,-11.62486c0.4164,-5.97743 5.90678,-10.46412 12.26304,-10.02132c6.35627,0.44282 11.17148,5.64743 10.75508,11.62486z" fill="#ffffff" stroke="none" stroke-linecap="butt"/><path d="M335.46342,75.12272c10.52865,1.05534 10.35018,9.8153 10.35018,9.8153c0,0 -3.28997,-7.60834 -11.56568,-7.64153c-7.81807,-0.52937 -10.86819,5.36322 -10.86819,5.36322c0,0 1.59115,-8.58872 12.08371,-7.53699z" fill="#6833d2" stroke="#000000" stroke-linecap="round"/></g><g stroke="none" stroke-width="0" stroke-linecap="butt"><path d="M308.0411,92.73935c-2.72657,2.5395 -7.05218,2.32705 -9.66158,-0.47454c-2.60941,-2.80158 -2.5144,-7.1314 0.21212,-9.6709c2.72657,-2.5395 7.05216,-2.32705 9.66156,0.47454c2.60941,2.80158 2.51443,7.1314 -0.21212,9.6709z" fill="url(#color-3)"/><path d="M305.99327,90.5959c-1.51069,1.40705 -3.90735,1.28933 -5.35311,-0.26293c-1.44579,-1.55227 -1.39315,-3.95122 0.11754,-5.35827c1.51069,-1.40705 3.90735,-1.28934 5.35309,0.26291c1.44579,1.55227 1.39315,3.95124 -0.11752,5.35827z" fill="#000000"/><path d="M308.34416,86.19784c-0.45025,0.41937 -1.17412,0.37405 -1.6168,-0.10123c-0.44267,-0.47527 -0.43654,-1.2005 0.01372,-1.6199c0.45025,-0.41937 1.17411,-0.37405 1.61677,0.10123c0.44267,0.47527 0.43652,1.2005 -0.01372,1.61989z" fill="#ffffff"/></g><g stroke="none" stroke-width="0" stroke-linecap="butt"><path d="M338.5467,91.72251c-2.72657,2.5395 -7.05218,2.32705 -9.66158,-0.47454c-2.60941,-2.80158 -2.5144,-7.1314 0.21212,-9.6709c2.72657,-2.5395 7.05218,-2.32705 9.66158,0.47454c2.60941,2.80158 2.5144,7.1314 -0.21212,9.6709z" fill="url(#color-4)"/><path d="M336.49894,89.57906c-1.51069,1.40705 -3.90735,1.28933 -5.35311,-0.26293c-1.44579,-1.55227 -1.39315,-3.95122 0.11754,-5.35827c1.51069,-1.40705 3.90735,-1.28934 5.35311,0.26291c1.44579,1.55227 1.39315,3.95124 -0.11752,5.35827z" fill="#000000"/><path d="M338.84977,85.18097c-0.45025,0.41937 -1.17412,0.37405 -1.6168,-0.10122c-0.44267,-0.47527 -0.43652,-1.2005 0.01375,-1.6199c0.45025,-0.41937 1.17411,-0.37405 1.61677,0.10122c0.44267,0.47527 0.43652,1.20051 -0.01372,1.61989z" fill="#ffffff"/></g><path d="M289.90118,72.12707c0,0 3.9506,-6.42209 11.34118,-7.28473c6.33562,-0.7395 12.29683,6.20953 12.29683,6.20953c0,0 -6.28079,-4.66551 -12.38038,-3.73623c-6.12538,0.93322 -11.25764,4.81143 -11.25764,4.81143z" fill="#000000" stroke="#000000" stroke-width="0" stroke-linecap="round"/><path d="M334.72845,65.81807c-6.09959,-0.92929 -12.38039,3.73621 -12.38039,3.73621c0,0 5.96121,-6.94902 12.29683,-6.20951c7.39059,0.86266 11.34118,7.28473 11.34118,7.28473c0,0 -5.13222,-3.87821 -11.25764,-4.81143z" data-paper-data="{&quot;index&quot;:null}" fill="#000000" stroke="#000000" stroke-width="0" stroke-linecap="round"/><g><g data-paper-data="{&quot;index&quot;:null}"><path d="M467.25936,250.57098c0,0 0.41621,5.15139 -7.37721,7.13697c-19.09638,4.86532 -18.29165,-2.7707 -18.29165,-2.7707c0,0 8.99859,-6.92116 13.46884,-7.51116c4.25695,-0.56183 12.20002,3.14488 12.20002,3.14488z" fill="#213d0e" stroke="#000000" stroke-width="0" stroke-linecap="round"/><path d="M458.24776,248.30896c0,0 9.65452,7.7762 13.0399,14.63664c3.38538,6.86044 7.05219,26.07981 7.05219,26.07981l-11.84236,5.18935c0,0 -12.40362,-9.8973 -16.52774,-18.73087c-4.1241,-8.83356 -4.09661,-25.44513 -4.09661,-25.44513z" fill="#602263" stroke="#000000" stroke-width="0" stroke-linecap="round"/><path d="M466.30555,244.49732c0.6614,0 1.19754,0.74467 1.19754,1.66325c0,0.9186 -0.53617,1.66325 -1.19754,1.66325c-0.66137,0 -1.19754,-0.74467 -1.19754,-1.66325c0,-0.9186 0.53617,-1.66325 1.19754,-1.66325z" fill="#b5b5b5" stroke="none" stroke-width="0" stroke-linecap="butt"/><path d="M425.89815,165.57623c9.26754,0 16.78038,8.10856 16.78038,18.11098c0,10.00242 -7.51284,18.11098 -16.78038,18.11098c-9.26754,0 -16.78038,-8.10856 -16.78038,-18.11098c0,-10.00242 7.51284,-18.11098 16.78038,-18.11098z" fill="url(#color-5)" stroke="none" stroke-width="0" stroke-linecap="butt"/><path d="M398.34186,127.64022c0,0 11.96517,10.16762 17.66761,16.47742c6.64553,7.35335 19.81103,24.99301 19.81103,24.99301c0,0 -5.69741,9.05704 -10.13339,13.1897c-4.20005,3.91286 -15.81337,10.98291 -15.81337,10.98291c0,0 -14.63398,-13.95484 -21.60913,-21.98682c-7.60669,-8.75921 -22.30077,-28.57609 -22.30077,-28.57609z" fill="url(#color-6)" stroke="#000000" stroke-width="0" stroke-linecap="round"/><path d="M401.89013,127.64022l24.39438,30.60387" fill="none" stroke="none" stroke-width="0" stroke-linecap="round"/><path d="M403.7963,132.26745c0.29753,0.14876 0.14876,0.4463 0.14876,0.4463l-0.1298,0.25212c-0.49523,1.45771 -0.95608,2.90592 -1.46568,4.38343c0.01799,1.63394 12.93967,17.88362 20.32235,23.36421c3.19557,2.37226 4.27206,-1.35808 4.61085,-2.38089c0,0 0.10519,-0.31557 0.42078,-0.21038c0.31557,0.10519 0.21038,0.42078 0.21038,0.42078c-0.44132,1.31644 -1.99655,5.92755 -5.06246,3.97501c-6.07213,-3.86705 -15.90953,-17.49309 -19.6305,-21.53c-2.98285,-3.23612 -1.53622,-2.81029 -1.52813,-3.74529c0.49258,-1.51937 1.0049,-2.99379 1.49121,-4.48725l0.1659,-0.33927c0,0 0.14876,-0.29753 0.4463,-0.14876z" fill="#303421" stroke="none" stroke-width="0.5" stroke-linecap="butt"/><path d="M439.42014,175.82762c0,0 8.14653,12.69208 12.35509,21.35014c7.70676,15.8547 14.61322,53.2865 14.61322,53.2865c0,0 -8.75613,-1.31396 -14.27872,-0.54084c-5.5226,0.7731 -10.49832,7.16469 -10.49832,7.16469c0,0 -1.80997,-2.72782 -4.40282,-6.77435c-5.61379,-8.7612 -14.89752,-23.70411 -17.42699,-30.52725c-4.03259,-10.87766 -10.94979,-28.24377 -10.94979,-28.24377c0,0 -0.38802,-11.64315 16.90539,-15.41025c5.30719,-1.15609 13.68292,-0.30487 13.68292,-0.30487z" fill="url(#color-7)" stroke="#000000" stroke-width="0" stroke-linecap="round"/><path d="M403.7999,145.22737c2.66645,1.50524 3.65658,4.80059 2.21153,7.36037c-1.44503,2.55976 -4.77804,3.41464 -7.44448,1.90939c-2.66644,-1.50524 -3.65658,-4.8006 -2.21153,-7.36038c1.44503,-2.55976 4.77804,-3.41462 7.44448,-1.90938z" fill="#366517" stroke="none" stroke-width="0" stroke-linecap="butt"/><path d="M439.96702,190.22419c2.31841,-1.80709 5.72381,-1.31428 7.60621,1.10073c1.88239,2.41503 1.52893,5.83771 -0.78948,7.6448c-2.31841,1.80709 -5.72383,1.31426 -7.60621,-1.10076c-1.88239,-2.41503 -1.5289,-5.83769 0.78951,-7.64478z" fill="#366517" stroke="none" stroke-width="0" stroke-linecap="butt"/><path d="M438.31371,180.12674c1.19449,1.53248 0.97023,3.70443 -0.50098,4.85113c-1.4712,1.14669 -3.63215,0.83399 -4.82666,-0.69851c-1.19449,-1.53248 -0.97021,-3.70441 0.50098,-4.85113c1.4712,-1.14669 3.63215,-0.83399 4.82664,0.69849z" fill="#366517" stroke="none" stroke-width="0" stroke-linecap="butt"/><path d="M453.57774,245.67608c-5.83198,0.34298 -14.03372,7.61033 -14.03372,7.61033c0,0 -5.63213,-3.72146 -3.84581,-5.74515c4.93385,-5.58946 4.67171,-5.26643 10.68366,-7.94945c6.01195,-2.68303 19.10915,-0.16284 19.46447,2.3244c0.35532,2.48726 0.90554,8.84087 0.90554,8.84087c0,0 -1.19004,-5.7858 -13.17414,-5.081z" fill="#000000" stroke="#000000" stroke-width="0" stroke-linecap="round"/><path d="M453.81265,240.25235c0.99207,0 1.79632,0.74467 1.79632,1.66325c0,0.9186 -0.80424,1.66325 -1.79632,1.66325c-0.99209,0 -1.79631,-0.74465 -1.79631,-1.66325c0,-0.9186 0.80422,-1.66325 1.79631,-1.66325z" fill="#b5b5b5" stroke="none" stroke-width="0" stroke-linecap="butt"/><path d="M445.64769,242.03157c0.99207,0 1.79632,0.74467 1.79632,1.66325c0,0.9186 -0.80424,1.66325 -1.79632,1.66325c-0.99209,0 -1.79631,-0.74467 -1.79631,-1.66325c0,-0.9186 0.80422,-1.66325 1.79631,-1.66325z" fill="#b5b5b5" stroke="none" stroke-width="0" stroke-linecap="butt"/><path d="M438.90991,247.25742c0.99207,0 1.79632,0.74467 1.79632,1.66325c0,0.9186 -0.80424,1.66325 -1.79632,1.66325c-0.99209,0 -1.79631,-0.74467 -1.79631,-1.66325c0,-0.9186 0.80422,-1.66325 1.79631,-1.66325z" fill="#b5b5b5" stroke="none" stroke-width="0" stroke-linecap="butt"/><path d="M462.70296,241.42399c0.99207,0 1.79632,0.74467 1.79632,1.66325c0,0.9186 -0.80424,1.66325 -1.79632,1.66325c-0.99209,0 -1.79631,-0.74467 -1.79631,-1.66325c0,-0.9186 0.80422,-1.66325 1.79631,-1.66325z" fill="#b5b5b5" stroke="none" stroke-width="0" stroke-linecap="butt"/><path d="M363.4796,118.24513l15.74546,-11.08834c0,0 9.8224,-12.75443 21.28965,-19.73728c11.46725,-6.98285 17.51961,-2.66121 17.51961,-2.66121c0,0 -2.68399,13.32754 -5.10064,22.17672c-2.41664,8.84915 -4.62708,19.73719 -11.5319,30.3821c-6.90481,10.64491 -11.08046,13.85528 -21.28965,17.74136c-10.20917,3.88608 -14.58199,-6.07671 -18.85021,-15.52369c-4.26822,-9.44699 2.21767,-21.28965 2.21767,-21.28965z" fill="url(#color-8)" stroke="#000000" stroke-width="0" stroke-linecap="round"/></g><g stroke="#000000" stroke-width="0" stroke-linecap="round"><path d="M466.78803,302.03979c2.43316,-8.15674 4.3026,-16.11224 4.3026,-16.11224c0,0 2.42563,-1.51445 4.7029,-0.40047c1.72131,0.84198 2.40819,1.97739 2.40819,1.97739c0,0 -3.26248,14.10435 -4.96049,20.63498c-0.25753,0.99039 -1.23886,3.3854 -1.23886,3.3854c0,0 -2.32633,-1.20104 -3.29007,-2.1099c-1.13565,-1.07096 -3.09311,-3.90989 -3.09311,-3.90989c0,0 0.81397,-2.27567 1.16884,-3.46529z" fill="#602263"/><path d="M444.93528,285.58753c5.54981,-5.82702 10.3194,-11.74348 10.3194,-11.74348c0,0 3.55165,-0.16795 6.127,1.83615c1.9466,1.51481 2.48407,2.8008 2.48407,2.8008c0,0 -8.38968,10.51339 -12.51367,15.29454c-0.8723,1.0113 -3.64463,3.73173 -3.64463,3.73173c0,0 -3.6928,-1.22301 -5.1175,-2.25256c-1.3477,-0.97391 -3.2125,-3.76718 -3.2125,-3.76718c0,0 3.68046,-3.92876 5.55786,-5.89999z" fill="#602263"/><path d="M453.97982,293.84963c4.98231,-7.34551 9.11488,-14.65016 9.11488,-14.65016c0,0 3.77335,-0.81366 6.85858,0.91683c2.33202,1.30803 3.11836,2.6164 3.11836,2.6164c0,0 -7.25177,12.96492 -10.87997,18.91574c-0.58259,0.95547 -2.33988,3.45806 -2.33988,3.45806c0,0 -4.02403,-1.07556 -5.50081,-2.07975c-1.5954,-1.08483 -3.74323,-4.20605 -3.74323,-4.20605c0,0 2.24993,-3.31674 3.37201,-4.97103z" fill="#602263"/><path d="M437.58669,299.37001l-10.32437,4.33724l7.03586,-5.71348z" fill="#323232"/><path d="M441.78609,289.17408c0,0 3.9388,-0.18987 5.40357,2.24172c1.46473,2.43162 -0.1477,6.06843 -0.1477,6.06843l-12.35233,3.1826l-1.49208,-2.01614z" fill="#5c840c"/><path d="M450.5311,309.98675l-9.05098,7.56786l4.94578,-7.77594z" fill="#323232"/><path d="M450.47542,298.90224c0,0 4.10226,-1.49626 6.73682,0.32328c2.63456,1.81954 2.53267,5.81159 2.53267,5.81159l-11.71817,7.14898l-2.47945,-1.41587z" fill="#5c840c"/><path d="M460.84827,313.49327l-7.82236,7.81556l4.39426,-7.88709z" fill="#323232"/><path d="M461.16658,302.48416c0,0 3.48173,-1.62138 5.62627,0.09933c2.14453,1.72074 1.92783,5.68963 1.92783,5.68963l-10.04025,7.48731l-2.02803,-1.32485z" fill="#5c840c"/><path d="M465.47462,316.38734l-7.00323,7.98071l4.02656,-7.96126z" fill="#323232"/><path d="M466.04223,305.42845c0,0 2.59537,-0.75948 4.4132,0.89537c1.81785,1.65486 1.99729,4.66306 1.99729,4.66306l-8.92169,7.71279l-1.72707,-1.26419z" fill="#5c840c"/><path d="M463.62962,298.87088c4.00153,-7.54323 7.38906,-14.9981 7.38906,-14.9981c0,0 2.76236,-1.01752 4.88562,0.51904c1.60492,1.16143 2.09714,2.41044 2.09714,2.41044c0,0 -5.95268,13.22684 -8.90061,19.31481c-0.43604,0.90053 -1.83681,3.00502 -1.83681,3.00502c0,0 -2.03494,-3.55059 -2.97318,-4.53393c-1.04411,-1.09431 -3.00786,-1.73468 -3.00786,-1.73468c0,0 1.60783,-2.5899 2.34665,-3.98263z" fill="#602263"/></g><g stroke="#000000" stroke-width="0" stroke-linecap="round"><path d="M436.44138,265.28758c3.26497,-3.42299 16.2902,-12.86334 17.04883,-4.67777c0.51264,5.53107 -5.20197,9.12428 -7.86358,11.83634c-1.94035,1.97708 -4.48527,7.43212 -4.48527,7.43212c0,0 -5.02468,0.15837 -7.31669,-1.81288c-1.16104,-0.99857 -1.33968,-2.5491 -1.33968,-2.5491c0,0 0.69137,-6.80561 3.95636,-10.22864z" fill="#602263"/><path d="M437.99458,288.18681l-2.04667,9.90329l-1.00519,-12.45412z" data-paper-data="{&quot;index&quot;:null}" fill="#323232"/><path d="M437.90904,289.61442l-2.76331,-0.44273l-3.19033,-13.87002c0,0 2.77456,-3.46472 5.93536,-3.26242c3.16081,0.2023 4.9953,4.20146 4.9953,4.20146z" data-paper-data="{&quot;index&quot;:null}" fill="#5d860c"/></g></g><g data-paper-data="{&quot;index&quot;:null}"><g data-paper-data="{&quot;index&quot;:null}"><path d="M179.94066,247.05989c4.47025,0.58999 13.46884,7.51116 13.46884,7.51116c0,0 0.80473,7.63602 -18.29165,2.7707c-7.79342,-1.98558 -7.37721,-7.13697 -7.37721,-7.13697c0,0 7.94308,-3.70672 12.20002,-3.14488z" fill="#213d0e" stroke="#000000" stroke-width="0" stroke-linecap="round"/><path d="M189.12686,249.67255c0,0 0.02749,16.61156 -4.09661,25.44513c-4.1241,8.83356 -16.52774,18.73087 -16.52774,18.73087l-11.84236,-5.18935c0,0 3.66681,-19.21937 7.05219,-26.07981c3.38538,-6.86044 13.0399,-14.63664 13.0399,-14.63664z" fill="#602263" stroke="#000000" stroke-width="0" stroke-linecap="round"/><path d="M169.89199,245.79437c0,0.91858 -0.53617,1.66325 -1.19754,1.66325c-0.66137,0 -1.19754,-0.74465 -1.19754,-1.66325c0,-0.91858 0.53614,-1.66325 1.19754,-1.66325c0.66137,0 1.19754,0.74465 1.19754,1.66325z" fill="#b5b5b5" stroke="none" stroke-width="0" stroke-linecap="butt"/><path d="M225.88223,183.321c0,10.00242 -7.51284,18.11098 -16.78038,18.11098c-9.26754,0 -16.78038,-8.10856 -16.78038,-18.11098c0,-10.00242 7.51284,-18.11098 16.78038,-18.11098c9.26754,0 16.78038,8.10856 16.78038,18.11098z" fill="url(#color-9)" stroke="none" stroke-width="0" stroke-linecap="butt"/><path d="M269.03616,142.35417c0,0 -14.69409,19.81688 -22.30077,28.57609c-6.97514,8.03198 -21.60913,21.98682 -21.60913,21.98682c0,0 -11.61332,-7.07005 -15.81337,-10.98291c-4.43598,-4.13266 -10.13339,-13.1897 -10.13339,-13.1897c0,0 13.16551,-17.63967 19.81103,-24.99301c5.70244,-6.3098 17.66761,-16.47742 17.66761,-16.47742z" fill="url(#color-10)" stroke="#000000" stroke-width="0" stroke-linecap="round"/><path d="M208.71549,157.87789l24.39438,-30.60387" fill="none" stroke="none" stroke-width="0" stroke-linecap="round"/><path d="M231.20373,131.90126c0.29754,-0.14877 0.4463,0.14876 0.4463,0.14876l0.1659,0.33927c0.48631,1.49346 0.99863,2.96788 1.49121,4.48725c0.0081,0.935 1.45472,0.50917 -1.52813,3.74529c-3.72098,4.03692 -13.55838,17.66295 -19.6305,21.53c-3.06591,1.95254 -4.62113,-2.65857 -5.06246,-3.97501c0,0 -0.10519,-0.31559 0.21038,-0.42078c0.31559,-0.10519 0.42078,0.21038 0.42078,0.21038c0.33879,1.02281 1.41528,4.75315 4.61085,2.38089c7.38268,-5.48058 20.30436,-21.73026 20.32235,-23.36421c-0.50959,-1.47751 -0.97044,-2.92572 -1.46568,-4.38343l-0.1298,-0.25212c0,0 -0.14877,-0.29754 0.14876,-0.4463z" fill="#303421" stroke="none" stroke-width="0.5" stroke-linecap="butt"/><path d="M195.57987,175.46141c0,0 8.37573,-0.85122 13.68292,0.30487c17.29341,3.7671 16.90539,15.41025 16.90539,15.41025c0,0 -6.9172,17.36611 -10.94979,28.24377c-2.52947,6.82314 -11.81319,21.76606 -17.42699,30.52726c-2.59284,4.04653 -4.40282,6.77435 -4.40282,6.77435c0,0 -4.97572,-6.39159 -10.49832,-7.16469c-5.52258,-0.77312 -14.27872,0.54084 -14.27872,0.54084c0,0 6.90647,-37.4318 14.61322,-53.2865c4.20856,-8.65806 12.35509,-21.35014 12.35509,-21.35014z" fill="url(#color-11)" stroke="#000000" stroke-width="0" stroke-linecap="round"/><path d="M238.64458,146.77055c1.44505,2.55978 0.4549,5.85515 -2.21153,7.36038c-2.66644,1.50525 -5.99945,0.65037 -7.44448,-1.90939c-1.44505,-2.55978 -0.45492,-5.85513 2.21153,-7.36037c2.66644,-1.50524 5.99945,-0.65039 7.44448,1.90938z" fill="#366517" stroke="none" stroke-width="0" stroke-linecap="butt"/><path d="M195.03295,189.85797c2.31841,1.80709 2.67191,5.22975 0.78951,7.64478c-1.88238,2.41503 -5.2878,2.90785 -7.60621,1.10076c-2.31841,-1.80709 -2.67188,-5.22977 -0.78948,-7.6448c1.88239,-2.41501 5.2878,-2.90782 7.60621,-1.10073z" fill="#366517" stroke="none" stroke-width="0" stroke-linecap="butt"/><path d="M196.68631,179.76052c1.19449,-1.53248 3.35544,-1.84518 4.82664,-0.69849c1.47119,1.14672 1.69547,3.31865 0.50098,4.85113c-1.19451,1.5325 -3.35545,1.8452 -4.82666,0.69851c-1.4712,-1.14671 -1.69547,-3.31865 -0.50098,-4.85113z" fill="#366517" stroke="none" stroke-width="0" stroke-linecap="butt"/><path d="M168.24813,250.39087c0,0 0.55021,-6.35361 0.90554,-8.84087c0.35532,-2.48724 13.45252,-5.00743 19.46447,-2.3244c6.01195,2.68302 5.74981,2.35999 10.68366,7.94945c1.78631,2.02369 -3.84581,5.74515 -3.84581,5.74515c0,0 -8.20174,-7.26735 -14.03372,-7.61033c-11.98411,-0.7048 -13.17414,5.081 -13.17414,5.081z" fill="#000000" stroke="#000000" stroke-width="0" stroke-linecap="round"/><path d="M182.98366,241.54939c0,0.9186 -0.80422,1.66325 -1.79631,1.66325c-0.99209,0 -1.79632,-0.74465 -1.79632,-1.66325c0,-0.91858 0.80425,-1.66325 1.79632,-1.66325c0.99209,0 1.79631,0.74465 1.79631,1.66325z" fill="#b5b5b5" stroke="none" stroke-width="0" stroke-linecap="butt"/><path d="M191.14862,243.32861c0,0.91858 -0.80422,1.66325 -1.79631,1.66325c-0.99209,0 -1.79632,-0.74465 -1.79632,-1.66325c0,-0.91858 0.80425,-1.66325 1.79632,-1.66325c0.99209,0 1.79631,0.74465 1.79631,1.66325z" fill="#b5b5b5" stroke="none" stroke-width="0" stroke-linecap="butt"/><path d="M197.8864,248.55446c0,0.91858 -0.80422,1.66325 -1.79631,1.66325c-0.99209,0 -1.79632,-0.74465 -1.79632,-1.66325c0,-0.91858 0.80425,-1.66325 1.79632,-1.66325c0.99209,0 1.79631,0.74465 1.79631,1.66325z" fill="#b5b5b5" stroke="none" stroke-width="0" stroke-linecap="butt"/><path d="M174.09335,242.72104c0,0.91858 -0.80422,1.66325 -1.79631,1.66325c-0.99209,0 -1.79632,-0.74465 -1.79632,-1.66325c0,-0.91858 0.80425,-1.66325 1.79632,-1.66325c0.99209,0 1.79631,0.74465 1.79631,1.66325z" fill="#b5b5b5" stroke="none" stroke-width="0" stroke-linecap="butt"/><path d="M271.5204,117.87894c0,0 6.48589,11.84265 2.21767,21.28965c-4.26822,9.44698 -8.64103,19.40978 -18.85021,15.52369c-10.20919,-3.88608 -14.38484,-7.09645 -21.28965,-17.74136c-6.90481,-10.64491 -9.11526,-21.53295 -11.5319,-30.3821c-2.41665,-8.84918 -5.10064,-22.17672 -5.10064,-22.17672c0,0 6.05236,-4.32163 17.51961,2.66121c11.46725,6.98285 21.28965,19.73728 21.28965,19.73728l15.74546,11.08834z" fill="url(#color-12)" stroke="#000000" stroke-width="0" stroke-linecap="round"/></g><g stroke="#000000" stroke-width="0" stroke-linecap="round"><path d="M169.3808,305.13889c0,0 -1.95747,2.83893 -3.09311,3.90989c-0.96373,0.90886 -3.29007,2.1099 -3.29007,2.1099c0,0 -0.98134,-2.39501 -1.23886,-3.3854c-1.69801,-6.53064 -4.96049,-20.63498 -4.96049,-20.63498c0,0 0.68689,-1.13541 2.40819,-1.9774c2.27727,-1.11396 4.7029,0.40049 4.7029,0.40049c0,0 1.86944,7.9555 4.3026,16.11224c0.35487,1.18962 1.16884,3.46529 1.16884,3.46529z" fill="#602263"/><path d="M190.06469,285.22133c1.8774,1.97122 5.55786,5.89999 5.55786,5.89999c0,0 -1.8648,2.79327 -3.2125,3.76718c-1.42469,1.02956 -5.1175,2.25256 -5.1175,2.25256c0,0 -2.77232,-2.72043 -3.64463,-3.73173c-4.12399,-4.78115 -12.51367,-15.29454 -12.51367,-15.29454c0,0 0.53746,-1.28599 2.48407,-2.80079c2.57535,-2.0041 6.127,-1.83615 6.127,-1.83615c0,0 4.76959,5.91645 10.3194,11.74348z" fill="#602263"/><path d="M181.02023,293.48346c1.12207,1.6543 3.37201,4.97103 3.37201,4.97103c0,0 -2.14783,3.12122 -3.74323,4.20607c-1.47679,1.00417 -5.50081,2.07974 -5.50081,2.07974c0,0 -1.75728,-2.50259 -2.33988,-3.45806c-3.6282,-5.95081 -10.87997,-18.91572 -10.87997,-18.91572c0,0 0.78635,-1.30837 3.11836,-2.6164c3.08523,-1.73049 6.85858,-0.91683 6.85858,-0.91683c0,0 4.13258,7.30465 9.11488,14.65016z" fill="#602263"/><path d="M200.70184,297.62757l7.03586,5.71348l-10.32437,-4.33724z" fill="#323232"/><path d="M201.80246,298.28451l-1.49208,2.01615l-12.35233,-3.1826c0,0 -1.61245,-3.63682 -0.1477,-6.06843c1.46476,-2.43159 5.40357,-2.24172 5.40357,-2.24172z" fill="#5c840c"/><path d="M188.57411,309.41247l4.94578,7.77594l-9.05098,-7.56786z" fill="#323232"/><path d="M189.45273,310.40402l-2.47945,1.41587l-11.71817,-7.14898c0,0 -0.1019,-3.99206 2.53267,-5.81159c2.63456,-1.81954 6.73682,-0.32328 6.73682,-0.32328z" fill="#5c840c"/><path d="M177.57983,313.05553l4.39426,7.88709l-7.82236,-7.81556z" fill="#323232"/><path d="M178.34763,314.06938l-2.02803,1.32485l-10.04025,-7.48731c0,0 -0.21669,-3.96891 1.92783,-5.68965c2.14454,-1.72071 5.62627,-0.09933 5.62627,-0.09933z" fill="#5c840c"/><path d="M172.50205,316.04059l4.02656,7.96126l-7.00323,-7.98071z" fill="#323232"/><path d="M173.19604,317.06929l-1.72707,1.26419l-8.92169,-7.71279c0,0 0.17944,-3.00818 1.99729,-4.66306c1.81784,-1.65486 4.4132,-0.89537 4.4132,-0.89537z" fill="#5c840c"/><path d="M171.37038,298.50466c0.73882,1.39275 2.34665,3.98263 2.34665,3.98263c0,0 -1.96375,0.64038 -3.00786,1.73468c-0.93825,0.98334 -2.97318,4.53393 -2.97318,4.53393c0,0 -1.40077,-2.10449 -1.83681,-3.00502c-2.94795,-6.08797 -8.90061,-19.31481 -8.90061,-19.31481c0,0 0.49221,-1.24901 2.09714,-2.41044c2.12326,-1.53656 4.88562,-0.51904 4.88562,-0.51904c0,0 3.38753,7.45487 7.38906,14.9981z" fill="#602263"/></g><g stroke="#000000" stroke-width="0" stroke-linecap="round"><path d="M198.55865,264.92146c3.26497,3.42303 3.95636,10.22864 3.95636,10.22864c0,0 -0.17863,1.55053 -1.33968,2.5491c-2.29199,1.97124 -7.31669,1.81286 -7.31669,1.81286c0,0 -2.54492,-5.45504 -4.48527,-7.43212c-2.6616,-2.71206 -8.37622,-6.30527 -7.86358,-11.83634c0.75864,-8.18557 13.78386,1.25478 17.04883,4.67777z" fill="#602263"/><path d="M200.05727,285.26978l-1.00519,12.45412l-2.04667,-9.90327z" data-paper-data="{&quot;index&quot;:null}" fill="#323232"/><path d="M192.11395,275.87452c0,0 1.83449,-3.99915 4.9953,-4.20146c3.1608,-0.2023 5.93536,3.26242 5.93536,3.26242l-3.19033,13.87002l-2.76331,0.44272z" data-paper-data="{&quot;index&quot;:null}" fill="#5d860c"/></g></g><path d="M353.32812,114.37353c3.30686,3.87052 0.12476,9.61174 -0.31082,12.35087c-1.20658,7.58764 -18.63947,8.24568 -18.63947,8.24568c0,0 -8.44269,-2.99663 -17.76524,-2.63845c-9.32252,0.35818 -11.10279,4.49176 -18.54081,4.14586c-7.43801,-0.34588 -14.39255,-5.67737 -14.39255,-5.67737c0,0 -7.90359,-2.13417 -5.16772,-12.00712c2.73588,-9.87294 10.25137,-14.60526 17.62615,-16.7244c7.37477,-2.11911 16.7198,1.02289 20.02509,1.13007c3.30529,0.10721 13.17293,-3.79393 20.759,-1.55212c7.58607,2.24184 12.24201,7.85277 16.40637,12.72695z" fill="url(#color-13)" stroke="#000000" stroke-width="0" stroke-linecap="round"/><path d="M299.05413,105.17653c8.10041,-1.47446 7.97741,5.50828 7.97741,5.50828c0,0 -4.3241,1.4765 -7.13644,1.93643c-2.81234,0.45991 -7.51798,0.46013 -7.51798,0.46013c0,0 -1.6585,-6.38758 6.67701,-7.90484z" data-paper-data="{&quot;index&quot;:null}" fill="#4f0c55" stroke="#000000" stroke-width="0" stroke-linecap="round"/><path d="M341.32582,112.93851c0,0 -4.70564,-0.00022 -7.51798,-0.46013c-2.81234,-0.45993 -7.13644,-1.93643 -7.13644,-1.93643c0,0 -0.123,-6.98273 7.97741,-5.50827c8.33551,1.51726 6.67701,7.90484 6.67701,7.90484z" data-paper-data="{&quot;index&quot;:null}" fill="#4f0c55" stroke="#000000" stroke-width="0" stroke-linecap="round"/></g></g></svg>