<svg version="1.1" xmlns="http://www.w3.org/2000/svg" xmlns:xlink="http://www.w3.org/1999/xlink" width="89.63942" height="85.37989" viewBox="0,0,89.63942,85.37989"><defs><radialGradient cx="319.41524" cy="177.4225" r="34.57082" gradientUnits="userSpaceOnUse" id="color-1"><stop offset="0" stop-color="#ffffff"/><stop offset="1" stop-color="#6d6d6d"/></radialGradient></defs><g transform="translate(-275.18029,-137.31011)"><g data-paper-data="{&quot;isPaintingLayer&quot;:true}" fill-rule="nonzero" stroke-linecap="butt" stroke-linejoin="miter" stroke-miterlimit="10" stroke-dasharray="" stroke-dashoffset="0" style="mix-blend-mode: normal"><path d="M275.9303,221.94001v-83.87989h88.13942v83.87989z" fill="#000000" stroke="#ffffff" stroke-width="0"/><g><path d="M289.43477,169.10114c4.59553,-19.67009 13.52214,-28.71289 28.73237,-29.22991c9.8421,-0.33455 17.15335,1.86477 19.46406,5.02841c5.4827,7.50642 -17.01139,22.99785 -14.69978,35.41882c2.21749,11.91528 28.20352,14.5461 23.89,21.54204c-0.48364,0.78438 -3.29286,11.64287 -8.36634,15.35702c-1.54656,1.13217 -9.48543,5.29097 -19.0769,5.02787c-5.87183,-0.16107 -13.05076,-2.6462 -17.74455,-6.54195c-11.99251,-9.95358 -14.46184,-36.91603 -12.19884,-46.60228z" fill="#000000" stroke="none" stroke-width="0"/><path d="M349.10245,175.48864c-0.70199,3.00472 3.55528,4.42806 3.49462,9.51285c-0.13843,11.60374 -5.46741,22.93201 -13.12788,29.48506c-4.53585,3.88014 -11.70264,5.66239 -14.16224,5.98844c-20.46472,2.71285 -34.71405,-19.8888 -30.37033,-38.48107c2.28087,-9.76275 -2.00292,-16.77042 5.71779,-30.52411c4.88846,-8.70833 17.5232,-10.60409 24.15443,-10.34707c13.20154,0.51168 28.63731,15.77362 24.2936,34.36589z" fill="url(#color-1)" stroke="none" stroke-width="0"/><path d="M336.13803,193.01086l2.24278,-16.52945l6.74002,-0.20622l0.6741,17.21092z" data-paper-data="{&quot;index&quot;:null}" fill="#000000" stroke="none" stroke-width="0"/><path d="M325.10509,174.8607c-0.95742,4.09803 -8.82765,4.79849 -14.90404,3.37887c-0.49334,-0.11526 -2.1333,-0.21906 -3.76695,-1.34113c-1.19226,-0.8189 -2.26085,-0.93552 -2.64972,-2.66339c-0.38887,-1.72787 0.43103,-2.52737 1.22985,-3.64556c0.44072,-0.61689 2.83019,-3.48992 5.20285,-4.84109c3.50535,-1.99624 7.39818,-2.48644 8.37043,-2.25929c6.07638,1.41963 7.47499,7.27357 6.51757,11.3716z" fill="#000000" stroke="none" stroke-width="0"/><path d="M309.47581,190.01975l0.57988,-17.72745l9.74303,3.57146c0,0 -0.34708,8.3658 -0.45512,10.96985c-0.02425,0.58467 -0.05176,1.24757 -0.07587,1.82876c-0.03528,0.8502 -0.06329,1.52559 -0.06329,1.52559z" fill="#000000" stroke="none" stroke-width="0"/><path d="M342.67422,165.45657c0.8025,0.24587 3.81564,4.02461 4.71334,7.27357c0.43102,1.55992 1.29996,3.82541 0.07969,5.36208c-1.13578,1.43027 -4.21206,2.19866 -7.73721,1.97315c-3.97828,-0.2545 -8.91642,-3.82475 -8.32841,-6.97158c0.77299,-4.13678 2.3716,-10.36433 11.27258,-7.6372z" data-paper-data="{&quot;index&quot;:null}" fill="#000000" stroke="none" stroke-width="0"/><path d="M346.94536,190.02969c0.42323,2.80832 -0.50769,11.69922 -4.78225,15.47199c-5.13872,4.53549 -13.16115,7.589 -21.59673,5.61819c-11.23424,-2.62466 -17.06307,-16.47462 -15.34631,-23.82281c0.87564,-3.74796 12.00193,0.67512 22.50159,1.07523c10.08577,0.38434 18.67274,-1.99849 19.2237,1.65739z" fill="#000000" stroke="none" stroke-width="0"/><g fill="#ffffff" stroke="none" stroke-width="0"><path d="M331.82113,211.11119c-0.19566,-0.04571 -0.49437,0.01188 -0.34079,-0.64549c0.15359,-0.65739 0.60214,-1.86142 0.7978,-1.81571c0.19566,0.04571 0.31351,1.26719 0.15993,1.92456c-0.15358,0.65737 -0.4213,0.58234 -0.61696,0.53663z" data-paper-data="{&quot;index&quot;:null}"/><path d="M329.63998,210.34707c0.15359,-0.65739 0.60216,-1.86142 0.79782,-1.8157c0.19566,0.04571 0.31351,1.26719 0.15993,1.92456c-0.15358,0.65737 -0.4213,0.58234 -0.61696,0.53663c-0.19566,-0.04571 -0.49437,0.01188 -0.34079,-0.64549z" data-paper-data="{&quot;index&quot;:null}"/><path d="M320.67011,211.34814c-0.20075,-0.00863 -0.47878,-0.00839 -0.44981,-0.68284c0.02898,-0.67446 0.47117,-1.81918 0.67192,-1.81055c0.20075,0.00863 0.30878,1.28896 0.27981,1.96342c-0.02898,0.67446 -0.30116,0.53861 -0.50192,0.52998z" data-paper-data="{&quot;index&quot;:null}"/><path d="M323.24275,211.26424c-0.20075,-0.00863 -0.47878,-0.0084 -0.4498,-0.68286c0.02898,-0.67446 0.47117,-1.81916 0.67192,-1.81054c0.20075,0.00863 0.30877,1.28896 0.27979,1.96341c-0.02898,0.67446 -0.30116,0.53863 -0.50191,0.53z" data-paper-data="{&quot;index&quot;:null}"/><path d="M325.72875,211.28463c-0.20075,-0.00863 -0.47878,-0.0084 -0.4498,-0.68286c0.02898,-0.67446 0.47117,-1.81916 0.67192,-1.81054c0.20075,0.00863 0.30878,1.28896 0.27981,1.96342c-0.02898,0.67446 -0.30116,0.53863 -0.50192,0.52999z" data-paper-data="{&quot;index&quot;:null}"/><path d="M328.06133,210.89555c-0.20075,-0.00863 -0.47878,-0.0084 -0.4498,-0.68286c0.02898,-0.67446 0.47117,-1.81916 0.67192,-1.81054c0.20075,0.00863 0.30879,1.28895 0.27981,1.9634c-0.02898,0.67446 -0.30116,0.53863 -0.50192,0.52999z" data-paper-data="{&quot;index&quot;:null}"/></g><g fill="#ffffff" stroke="none" stroke-width="0"><path d="M309.25727,187.21376c-0.23942,0.82106 -0.9574,2.29987 -1.28544,2.21191c-0.32804,-0.08796 -0.55676,-1.67385 -0.31732,-2.49491c0.23942,-0.82106 0.68861,-0.68469 1.01667,-0.59673c0.32804,0.08796 0.82553,0.05867 0.58611,0.87973z"/><path d="M312.08587,187.43602c-0.23942,0.82106 -0.9574,2.29988 -1.28544,2.21193c-0.32804,-0.08796 -0.55676,-1.67387 -0.31732,-2.49492c0.23942,-0.82106 0.68863,-0.68467 1.01667,-0.59673c0.32804,0.08796 0.82554,0.05866 0.58611,0.87971z"/><path d="M314.42616,188.00987c-0.23942,0.82106 -0.9574,2.29987 -1.28544,2.21191c-0.32804,-0.08796 -0.55675,-1.67385 -0.31732,-2.49491c0.23942,-0.82106 0.68861,-0.68467 1.01665,-0.59673c0.32804,0.08796 0.82553,0.05867 0.58611,0.87973z"/><path d="M316.89695,188.1362c-0.23942,0.82106 -0.9574,2.29987 -1.28544,2.21193c-0.32804,-0.08796 -0.55676,-1.67385 -0.31732,-2.49491c0.23942,-0.82106 0.68861,-0.68469 1.01667,-0.59673c0.32804,0.08796 0.82553,0.05867 0.58611,0.87973z"/><path d="M319.41469,188.1489c-0.23942,0.82106 -0.91736,2.11519 -1.24542,2.02724c-0.32804,-0.08796 -0.59678,-1.48918 -0.35734,-2.31024c0.23942,-0.82106 1.8422,-0.53806 1.60276,0.283z"/><path d="M321.92715,188.55003c-0.23942,0.82106 -0.9574,2.29987 -1.28544,2.21193c-0.32804,-0.08796 -0.55675,-1.67385 -0.31732,-2.49491c0.23942,-0.82106 0.68861,-0.68469 1.01665,-0.59673c0.32804,0.08796 0.82553,0.05867 0.58611,0.87973z"/><path d="M324.56234,188.52947c-0.23942,0.82106 -0.9574,2.29987 -1.28544,2.21193c-0.32804,-0.08796 -0.55676,-1.67385 -0.31732,-2.49491c0.23942,-0.82106 0.68861,-0.68469 1.01667,-0.59673c0.32804,0.08796 0.82553,0.05867 0.58611,0.87973z"/><path d="M326.8865,188.93815c-0.23942,0.82106 -0.9574,2.29987 -1.28544,2.21193c-0.32804,-0.08796 -0.55676,-1.67385 -0.31732,-2.49491c0.23942,-0.82106 0.68861,-0.68469 1.01667,-0.59673c0.32804,0.08796 0.82553,0.05867 0.58611,0.87973z"/><path d="M329.50719,189.21189c-0.23942,0.82106 -0.9574,2.29987 -1.28544,2.21193c-0.32804,-0.08796 -0.55676,-1.67385 -0.31732,-2.49491c0.23942,-0.82106 0.68863,-0.68468 1.01667,-0.59673c0.32804,0.08796 0.82553,0.05867 0.58611,0.87973z"/><path d="M331.67816,189.04342c-0.23942,0.82106 -0.9574,2.29987 -1.28544,2.21193c-0.32804,-0.08796 -0.55675,-1.67385 -0.31732,-2.49491c0.23942,-0.82106 0.68861,-0.68469 1.01665,-0.59673c0.32804,0.08796 0.82553,0.05867 0.58611,0.87973z"/><path d="M334.15222,189.5995c-0.23942,0.82106 -0.9574,2.29988 -1.28544,2.21193c-0.32804,-0.08796 -0.55676,-1.67387 -0.31732,-2.49492c0.23942,-0.82106 0.68863,-0.68467 1.01667,-0.59673c0.32804,0.08796 0.82554,0.05866 0.58611,0.87971z"/><path d="M336.17656,189.71337c-0.23942,0.82106 -0.9574,2.29987 -1.28544,2.21193c-0.32804,-0.08796 -0.55676,-1.67387 -0.31732,-2.49492c0.23942,-0.82106 0.68863,-0.68467 1.01667,-0.59673c0.32804,0.08796 0.82553,0.05867 0.58611,0.87973z"/><path d="M338.4233,189.72604c-0.23942,0.82106 -0.9574,2.29988 -1.28544,2.21193c-0.32804,-0.08796 -0.55676,-1.67387 -0.31734,-2.49493c0.23942,-0.82106 0.68863,-0.68467 1.01667,-0.59673c0.32804,0.08796 0.82554,0.05866 0.58611,0.87971z"/><path d="M340.46215,189.79018c-0.23942,0.82106 -0.9574,2.29987 -1.28544,2.21193c-0.32804,-0.08796 -0.55676,-1.67385 -0.31732,-2.49491c0.23942,-0.82106 0.68863,-0.68468 1.01667,-0.59673c0.32804,0.08796 0.82553,0.05867 0.58611,0.87973z"/><path d="M342.58961,189.77088c-0.23942,0.82106 -0.9574,2.29987 -1.28544,2.21193c-0.32804,-0.08796 -0.55676,-1.67387 -0.31732,-2.49492c0.23942,-0.82106 0.68861,-0.68467 1.01667,-0.59673c0.32804,0.08796 0.82553,0.05867 0.58611,0.87973z"/><path d="M344.53817,189.7036c-0.23942,0.82106 -0.9574,2.29987 -1.28544,2.21193c-0.32804,-0.08796 -0.55674,-1.67387 -0.31732,-2.49492c0.23942,-0.82106 0.68861,-0.68467 1.01665,-0.59673c0.32804,0.08796 0.82553,0.05867 0.58611,0.87973z"/></g><path d="M346.99648,190.244c0.42323,2.80832 -0.50769,11.69922 -4.78225,15.47199c-5.13872,4.53549 -13.16115,7.589 -21.59673,5.61819c-11.23424,-2.62466 -17.06307,-16.47462 -15.34631,-23.82281c0.87564,-3.74796 12.00193,0.67512 22.50159,1.07523c10.08577,0.38434 18.67274,-1.99849 19.2237,1.65739z" fill="none" stroke="#000000" stroke-width="0.5"/><path d="M332.07998,211.34324c-0.00769,1.2549 -2.1958,2.62079 -5.29145,2.49452c-3.09565,-0.12626 -5.87064,-0.79014 -5.86294,-2.04506c0.00769,-1.2549 11.16209,-1.70438 11.1544,-0.44946z" fill="#0c0c0c" stroke="none" stroke-width="0"/><path d="M333.48259,187.73767c-0.09848,1.25106 -2.51075,1.32934 -5.58913,0.97943c-3.07838,-0.34991 -5.82023,-0.34327 -5.72176,-1.59433c0.09848,-1.25106 2.83687,-2.3077 5.91527,-1.95778c3.07838,0.34991 5.57563,1.32163 5.47717,2.57269z" fill="#0c0c0c" stroke="none" stroke-width="0"/><path d="M317.08011,172.6072c-0.21789,0.93265 -1.15059,1.51208 -2.08326,1.29418c-0.93265,-0.21789 -1.51208,-1.15061 -1.29418,-2.08326c0.2179,-0.93266 1.15061,-1.51208 2.08326,-1.29418c0.93265,0.21789 1.51208,1.15061 1.29418,2.08326z" fill="#ffffff" stroke="none" stroke-width="0"/><path d="M339.65342,172.86684c-0.2179,0.93266 -1.15059,1.51208 -2.08326,1.29418c-0.93265,-0.21789 -1.51208,-1.15061 -1.29418,-2.08326c0.21789,-0.93265 1.15061,-1.51208 2.08326,-1.29418c0.93265,0.21789 1.51208,1.15061 1.29418,2.08326z" fill="#ffffff" stroke="none" stroke-width="0"/></g><path d="M275.93029,221.94001v-83.87989h88.13942v83.87989z" fill="none" stroke="#ffffff" stroke-width="1.5"/></g></g></svg>