<svg version="1.1" xmlns="http://www.w3.org/2000/svg" xmlns:xlink="http://www.w3.org/1999/xlink" width="89.79137" height="85.37989" viewBox="0,0,89.79137,85.37989"><defs><linearGradient x1="275.34016" y1="222.33606" x2="300.37775" y2="227.06831" gradientUnits="userSpaceOnUse" id="color-1"><stop offset="0" stop-color="#c08775"/><stop offset="1" stop-color="#b0746f"/></linearGradient><linearGradient x1="351.51925" y1="236.99709" x2="326.48168" y2="232.26484" gradientUnits="userSpaceOnUse" id="color-2"><stop offset="0" stop-color="#c08775"/><stop offset="1" stop-color="#b0746f"/></linearGradient><linearGradient x1="317.12192" y1="207.94994" x2="310.69692" y2="241.94365" gradientUnits="userSpaceOnUse" id="color-3"><stop offset="0" stop-color="#383551"/><stop offset="1" stop-color="#2a284d"/></linearGradient><linearGradient x1="317.02133" y1="208.94555" x2="311.00524" y2="240.77577" gradientUnits="userSpaceOnUse" id="color-4"><stop offset="0" stop-color="#c08775"/><stop offset="1" stop-color="#b0746f"/></linearGradient><radialGradient cx="314.4698" cy="225.55655" r="12.99485" gradientUnits="userSpaceOnUse" id="color-5"><stop offset="0" stop-color="#875f52" stop-opacity="0"/><stop offset="1" stop-color="#875f52"/></radialGradient><radialGradient cx="313.25696" cy="226.46297" r="10.18885" gradientUnits="userSpaceOnUse" id="color-6"><stop offset="0" stop-color="#5e0c0c"/><stop offset="1" stop-color="#3c0a08"/></radialGradient><linearGradient x1="330.57131" y1="137.19232" x2="314.51097" y2="222.16515" gradientUnits="userSpaceOnUse" id="color-7"><stop offset="0" stop-color="#383551"/><stop offset="1" stop-color="#2a284d"/></linearGradient><linearGradient x1="351.45674" y1="188.12242" x2="347.5357" y2="208.86804" gradientUnits="userSpaceOnUse" id="color-8"><stop offset="0" stop-color="#383551"/><stop offset="1" stop-color="#2a284d"/></linearGradient><linearGradient x1="356.5246" y1="190.37496" x2="354.79518" y2="199.52508" gradientUnits="userSpaceOnUse" id="color-9"><stop offset="0" stop-color="#2e2a52"/><stop offset="1" stop-color="#1c1b34"/></linearGradient><linearGradient x1="356.69164" y1="186.4179" x2="355.64925" y2="191.93302" gradientUnits="userSpaceOnUse" id="color-10"><stop offset="0" stop-color="#2e2a52"/><stop offset="1" stop-color="#1c1b34"/></linearGradient><linearGradient x1="354.45362" y1="193.04574" x2="351.23959" y2="210.0507" gradientUnits="userSpaceOnUse" id="color-11"><stop offset="0" stop-color="#2e2a52"/><stop offset="1" stop-color="#1c1b34"/></linearGradient><linearGradient x1="357.20685" y1="192.38161" x2="354.52444" y2="206.57382" gradientUnits="userSpaceOnUse" id="color-12"><stop offset="0" stop-color="#2e2a52"/><stop offset="1" stop-color="#1c1b34"/></linearGradient><linearGradient x1="292.44772" y1="176.21955" x2="288.52668" y2="196.96517" gradientUnits="userSpaceOnUse" id="color-13"><stop offset="0" stop-color="#383551"/><stop offset="1" stop-color="#2a284d"/></linearGradient><linearGradient x1="285.70285" y1="176.26959" x2="283.97343" y2="185.41969" gradientUnits="userSpaceOnUse" id="color-14"><stop offset="0" stop-color="#2e2a52"/><stop offset="1" stop-color="#1c1b34"/></linearGradient><linearGradient x1="288.19604" y1="172.72201" x2="287.15365" y2="178.23715" gradientUnits="userSpaceOnUse" id="color-15"><stop offset="0" stop-color="#2e2a52"/><stop offset="1" stop-color="#1c1b34"/></linearGradient><linearGradient x1="287.86069" y1="179.70946" x2="284.64666" y2="196.71441" gradientUnits="userSpaceOnUse" id="color-16"><stop offset="0" stop-color="#2e2a52"/><stop offset="1" stop-color="#1c1b34"/></linearGradient><linearGradient x1="284.65594" y1="178.47232" x2="281.97353" y2="192.66454" gradientUnits="userSpaceOnUse" id="color-17"><stop offset="0" stop-color="#2e2a52"/><stop offset="1" stop-color="#1c1b34"/></linearGradient><linearGradient x1="321.37337" y1="157.76146" x2="317.33674" y2="179.11865" gradientUnits="userSpaceOnUse" id="color-18"><stop offset="0" stop-color="#000000"/><stop offset="1" stop-color="#000000" stop-opacity="0"/></linearGradient><linearGradient x1="342.64187" y1="193.76612" x2="340.41831" y2="205.53067" gradientUnits="userSpaceOnUse" id="color-19"><stop offset="0" stop-color="#250627"/><stop offset="1" stop-color="#4e0d5a"/></linearGradient><linearGradient x1="298.81031" y1="187.35629" x2="296.58674" y2="199.12084" gradientUnits="userSpaceOnUse" id="color-20"><stop offset="0" stop-color="#250627"/><stop offset="1" stop-color="#4e0d5a"/></linearGradient><linearGradient x1="325.39405" y1="182.05936" x2="322.28105" y2="198.52974" gradientUnits="userSpaceOnUse" id="color-21"><stop offset="0" stop-color="#000000" stop-opacity="0"/><stop offset="1" stop-color="#000000" stop-opacity="0.80392"/></linearGradient><linearGradient x1="311.03036" y1="158.61845" x2="307.23464" y2="178.701" gradientUnits="userSpaceOnUse" id="color-22"><stop offset="0" stop-color="#2d2a41"/><stop offset="1" stop-color="#2a284d"/></linearGradient><linearGradient x1="340.15437" y1="163.65441" x2="336.29023" y2="184.09894" gradientUnits="userSpaceOnUse" id="color-23"><stop offset="0" stop-color="#2d2a41"/><stop offset="1" stop-color="#2a284d"/></linearGradient><radialGradient cx="333.42343" cy="185.99422" r="8.68768" gradientUnits="userSpaceOnUse" id="color-24"><stop offset="0" stop-color="#3f002f"/><stop offset="1" stop-color="#000000"/></radialGradient><radialGradient cx="333.11658" cy="186.21365" r="3.80004" gradientUnits="userSpaceOnUse" id="color-25"><stop offset="0" stop-color="#ff0000"/><stop offset="1" stop-color="#ff0000" stop-opacity="0"/></radialGradient><radialGradient cx="333.24906" cy="185.93604" r="3.80003" gradientUnits="userSpaceOnUse" id="color-26"><stop offset="0" stop-color="#ff0000"/><stop offset="1" stop-color="#ff0000" stop-opacity="0"/></radialGradient><radialGradient cx="333.24736" cy="186.05087" r="1.89347" gradientUnits="userSpaceOnUse" id="color-27"><stop offset="0" stop-color="#ffffff"/><stop offset="1" stop-color="#ffffff" stop-opacity="0"/></radialGradient><radialGradient cx="333.21285" cy="186.2335" r="1.89347" gradientUnits="userSpaceOnUse" id="color-28"><stop offset="0" stop-color="#ffffff"/><stop offset="1" stop-color="#ffffff" stop-opacity="0"/></radialGradient><radialGradient cx="309.41883" cy="181.68217" r="8.68767" gradientUnits="userSpaceOnUse" id="color-29"><stop offset="0" stop-color="#3f002f"/><stop offset="1" stop-color="#000000"/></radialGradient><radialGradient cx="309.11198" cy="181.9016" r="3.80003" gradientUnits="userSpaceOnUse" id="color-30"><stop offset="0" stop-color="#ff0000"/><stop offset="1" stop-color="#ff0000" stop-opacity="0"/></radialGradient><radialGradient cx="309.24447" cy="181.62399" r="3.80003" gradientUnits="userSpaceOnUse" id="color-31"><stop offset="0" stop-color="#ff0000"/><stop offset="1" stop-color="#ff0000" stop-opacity="0"/></radialGradient><radialGradient cx="309.24277" cy="181.73881" r="1.89347" gradientUnits="userSpaceOnUse" id="color-32"><stop offset="0" stop-color="#ffffff"/><stop offset="1" stop-color="#ffffff" stop-opacity="0"/></radialGradient><radialGradient cx="309.20824" cy="181.92145" r="1.89347" gradientUnits="userSpaceOnUse" id="color-33"><stop offset="0" stop-color="#ffffff"/><stop offset="1" stop-color="#ffffff" stop-opacity="0"/></radialGradient><linearGradient x1="321.19809" y1="183.88948" x2="314.72915" y2="218.11566" gradientUnits="userSpaceOnUse" id="color-34"><stop offset="0" stop-color="#c08775"/><stop offset="1" stop-color="#b0746f"/></linearGradient><linearGradient x1="319.63749" y1="189.16471" x2="315.94295" y2="208.71198" gradientUnits="userSpaceOnUse" id="color-35"><stop offset="0" stop-color="#c4766c"/><stop offset="1" stop-color="#c4766c" stop-opacity="0"/></linearGradient><linearGradient x1="315.46213" y1="210.50932" x2="314.77796" y2="214.12918" gradientUnits="userSpaceOnUse" id="color-36"><stop offset="0" stop-color="#c4766c" stop-opacity="0.68627"/><stop offset="1" stop-color="#c4766c" stop-opacity="0"/></linearGradient><linearGradient x1="320.58705" y1="193.78368" x2="319.88007" y2="197.52421" gradientUnits="userSpaceOnUse" id="color-37"><stop offset="0" stop-color="#c4766c" stop-opacity="0"/><stop offset="1" stop-color="#c4766c"/></linearGradient><linearGradient x1="320.35093" y1="188.14743" x2="319.2928" y2="193.74587" gradientUnits="userSpaceOnUse" id="color-38"><stop offset="0" stop-color="#191919"/><stop offset="1" stop-color="#000000"/></linearGradient><linearGradient x1="316.46715" y1="198.31882" x2="315.28332" y2="204.58228" gradientUnits="userSpaceOnUse" id="color-39"><stop offset="0" stop-color="#a46717"/><stop offset="1" stop-color="#2c1c06"/></linearGradient><linearGradient x1="321.2955" y1="199.16892" x2="320.11167" y2="205.43238" gradientUnits="userSpaceOnUse" id="color-40"><stop offset="0" stop-color="#a46717"/><stop offset="1" stop-color="#2c1c06"/></linearGradient><linearGradient x1="324.47623" y1="200.86994" x2="323.48741" y2="206.10166" gradientUnits="userSpaceOnUse" id="color-41"><stop offset="0" stop-color="#a46717"/><stop offset="1" stop-color="#2c1c06"/></linearGradient><linearGradient x1="327.77146" y1="201.37347" x2="326.58763" y2="207.63693" gradientUnits="userSpaceOnUse" id="color-42"><stop offset="0" stop-color="#a46717"/><stop offset="1" stop-color="#2c1c06"/></linearGradient><linearGradient x1="330.68324" y1="201.65383" x2="329.94178" y2="205.57676" gradientUnits="userSpaceOnUse" id="color-43"><stop offset="0" stop-color="#a46717"/><stop offset="1" stop-color="#2c1c06"/></linearGradient><linearGradient x1="333.30298" y1="201.83174" x2="332.56153" y2="205.75466" gradientUnits="userSpaceOnUse" id="color-44"><stop offset="0" stop-color="#a46717"/><stop offset="1" stop-color="#2c1c06"/></linearGradient><linearGradient x1="334.58333" y1="200.80341" x2="334.04125" y2="203.67146" gradientUnits="userSpaceOnUse" id="color-45"><stop offset="0" stop-color="#a46717"/><stop offset="1" stop-color="#2c1c06"/></linearGradient><linearGradient x1="306.4344" y1="197.71749" x2="305.69295" y2="201.64042" gradientUnits="userSpaceOnUse" id="color-46"><stop offset="0" stop-color="#a46717"/><stop offset="1" stop-color="#2c1c06"/></linearGradient><linearGradient x1="312.91314" y1="198.79157" x2="311.92431" y2="204.02329" gradientUnits="userSpaceOnUse" id="color-47"><stop offset="0" stop-color="#a46717"/><stop offset="1" stop-color="#2c1c06"/></linearGradient><linearGradient x1="309.28857" y1="197.82654" x2="308.10474" y2="204.09" gradientUnits="userSpaceOnUse" id="color-48"><stop offset="0" stop-color="#a46717"/><stop offset="1" stop-color="#2c1c06"/></linearGradient><linearGradient x1="304.00064" y1="196.42554" x2="303.31356" y2="200.0608" gradientUnits="userSpaceOnUse" id="color-49"><stop offset="0" stop-color="#a46717"/><stop offset="1" stop-color="#2c1c06"/></linearGradient><linearGradient x1="302.85423" y1="195.40631" x2="302.31216" y2="198.27435" gradientUnits="userSpaceOnUse" id="color-50"><stop offset="0" stop-color="#a46717"/><stop offset="1" stop-color="#2c1c06"/></linearGradient><linearGradient x1="317.81216" y1="205.31735" x2="317.12038" y2="208.97743" gradientUnits="userSpaceOnUse" id="color-51"><stop offset="0" stop-color="#a46717"/><stop offset="1" stop-color="#2c1c06"/></linearGradient><linearGradient x1="314.18789" y1="204.94919" x2="314.61526" y2="208.02171" gradientUnits="userSpaceOnUse" id="color-52"><stop offset="0" stop-color="#a46717"/><stop offset="1" stop-color="#2c1c06"/></linearGradient><linearGradient x1="320.29474" y1="206.11779" x2="319.4122" y2="209.07599" gradientUnits="userSpaceOnUse" id="color-53"><stop offset="0" stop-color="#a46717"/><stop offset="1" stop-color="#2c1c06"/></linearGradient><linearGradient x1="322.90759" y1="206.27837" x2="322.02504" y2="209.23657" gradientUnits="userSpaceOnUse" id="color-54"><stop offset="0" stop-color="#a46717"/><stop offset="1" stop-color="#2c1c06"/></linearGradient><linearGradient x1="312.28633" y1="204.22924" x2="312.02832" y2="207.30548" gradientUnits="userSpaceOnUse" id="color-55"><stop offset="0" stop-color="#a46717"/><stop offset="1" stop-color="#2c1c06"/></linearGradient><linearGradient x1="331.75167" y1="207.19113" x2="333.03145" y2="204.55594" gradientUnits="userSpaceOnUse" id="color-56"><stop offset="0" stop-color="#a46717"/><stop offset="1" stop-color="#2c1c06"/></linearGradient><linearGradient x1="329.55494" y1="207.85902" x2="330.8347" y2="205.22384" gradientUnits="userSpaceOnUse" id="color-57"><stop offset="0" stop-color="#a46717"/><stop offset="1" stop-color="#2c1c06"/></linearGradient><linearGradient x1="327.09539" y1="208.51891" x2="328.37516" y2="205.88373" gradientUnits="userSpaceOnUse" id="color-58"><stop offset="0" stop-color="#a46717"/><stop offset="1" stop-color="#2c1c06"/></linearGradient><linearGradient x1="303.18062" y1="201.97848" x2="302.9509" y2="199.05801" gradientUnits="userSpaceOnUse" id="color-59"><stop offset="0" stop-color="#a46717"/><stop offset="1" stop-color="#2c1c06"/></linearGradient><linearGradient x1="304.98205" y1="203.40206" x2="304.75234" y2="200.48159" gradientUnits="userSpaceOnUse" id="color-60"><stop offset="0" stop-color="#a46717"/><stop offset="1" stop-color="#2c1c06"/></linearGradient><linearGradient x1="307.0311" y1="204.9141" x2="306.80138" y2="201.99362" gradientUnits="userSpaceOnUse" id="color-61"><stop offset="0" stop-color="#a46717"/><stop offset="1" stop-color="#2c1c06"/></linearGradient><linearGradient x1="296.26484" y1="142.80776" x2="295.17016" y2="148.59955" gradientUnits="userSpaceOnUse" id="color-62"><stop offset="0" stop-color="#c08775"/><stop offset="1" stop-color="#b0746f"/></linearGradient><linearGradient x1="360.15405" y1="154.51854" x2="359.05937" y2="160.31033" gradientUnits="userSpaceOnUse" id="color-63"><stop offset="0" stop-color="#c08775"/><stop offset="1" stop-color="#b0746f"/></linearGradient></defs><g transform="translate(-275.18029,-137.31011)"><g data-paper-data="{&quot;isPaintingLayer&quot;:true}" fill-rule="nonzero" stroke-linecap="butt" stroke-linejoin="miter" stroke-miterlimit="10" stroke-dasharray="" stroke-dashoffset="0" style="mix-blend-mode: normal"><path d="M275.9303,221.94v-83.87989h88.13942v83.87989z" fill="#000000" stroke="#ffffff" stroke-width="0"/><g><path d="M284.89731,216.18853c4.66463,-8.62229 13.83267,-15.29198 15.50705,-14.9755c3.36611,0.63621 7.00038,11.2051 6.03899,16.29165c-0.24106,1.27542 -3.70023,4.34598 -3.70023,4.34598l-19.83928,0.2284c0,0 1.02332,-4.09727 1.99348,-5.89054z" fill="#23213d" stroke="none" stroke-width="0"/><g fill="url(#color-1)" stroke="none" stroke-width="0"><g><path d="M282.30022,221.97595c0,0 3.25536,-2.06235 4.89612,-3.14843c6.83434,-4.52389 13.89037,-9.17671 15.20917,-8.92745c1.16285,0.21979 2.21199,2.27026 -3.3057,7.86658c-2.31383,2.3468 -5.99457,4.29367 -5.99457,4.29367z"/></g></g><path d="M323.93687,221.57593c0,0 -4.08555,2.41746 -3.12416,-2.66909c0.96139,-5.08657 8.20232,-13.59996 11.56843,-12.96375c1.45623,0.27524 6.26096,7.53893 8.27503,15.82782c0.30173,1.24177 -16.71929,-0.19499 -16.71929,-0.19499z" data-paper-data="{&quot;index&quot;:null}" fill="#23213d" stroke="none" stroke-width="0"/><g data-paper-data="{&quot;index&quot;:null}" fill="url(#color-2)" stroke="none" stroke-width="0"><g><path d="M330.29084,222.10927c-1.98661,-5.54423 -0.48007,-6.76669 0.56891,-6.56842c0.78623,0.1486 2.81113,2.7467 5.4452,6.09153c0.6873,0.87276 -5.79846,1.07873 -6.01411,0.47689z"/></g></g><g stroke="none"><g stroke-width="0"><path d="M296.05275,221.90826c0,0 0.09954,-0.78539 0.17401,-1.17941c1.77422,-9.3871 11.09815,-17.43323 20.39185,-15.67667c7.97611,1.50753 15.16905,8.93029 15.92672,16.93856c0.12516,1.3229 -36.49259,-0.08248 -36.49259,-0.08248z" fill="url(#color-3)"/><path d="M297.67926,221.69031c2.94768,-8.03851 9.73344,-14.56085 18.32574,-12.93685c6.7022,1.26675 12.83214,6.91421 14.45005,13.33028c0.10544,0.41815 -33.17241,0.68819 -32.77578,-0.39342z" fill="url(#color-4)"/><path d="M328.63197,220.59774c-0.60539,0.41205 -1.92626,1.42154 -1.92626,1.42154l-21.57818,-0.06858c0,0 -1.63354,-6.58509 -1.92384,-8.61134c-0.27537,-1.92209 5.1379,8.382 5.1379,8.382l15.47713,0.13789c0,0 5.77344,-1.91501 4.81327,-1.26149z" fill="url(#color-5)"/><path d="M327.2052,221.65467c-2.07807,1.10544 -21.24689,0.35479 -21.24689,0.35479c0,0 -1.49026,-5.57904 -1.97762,-6.98017c-0.45809,-1.31699 3.7563,6.81992 3.7563,6.81992c0,0 20.19168,-0.57938 19.46822,-0.19454z" fill="url(#color-6)"/></g><path d="M305.74796,222.50838c-0.12417,0.03528 -0.15945,-0.08889 -0.15945,-0.08889l-0.00235,-0.07882c-0.2584,-0.08212 -0.15022,-0.40838 -0.30419,-0.60184c0,0 -0.07274,-0.10664 0.0339,-0.17939c0.10664,-0.07274 0.17938,0.03391 0.17938,0.03391c0.11045,0.17763 0.11418,0.55474 0.26507,0.55673l0.07654,0.19884c0,0 0.03528,0.12417 -0.08889,0.15946z" fill="#000000" stroke-width="0.5"/><path d="M306.54327,218.33725c-0.02398,0.12684 -0.15082,0.10287 -0.15082,0.10287l-0.18995,-0.05552c-0.22409,-0.78866 -1.07615,-1.50439 -1.43596,-2.34657c0,0 -0.05041,-0.11884 0.06843,-0.16925c0.11884,-0.05041 0.16925,0.06842 0.16925,0.06842c0.34422,0.81796 1.16238,1.51754 1.37244,2.25681l0.06373,-0.00758c0,0 0.12685,0.02398 0.10287,0.15081z" fill="#000000" stroke-width="0.5"/></g><g><path d="M364.13469,155.54444c0,0 -3.31464,9.54402 -3.00431,9.95994c2.31281,3.09967 2.70815,3.4479 2.93309,6.54665c0.50724,6.98763 0.13126,23.55901 0.13126,23.55901c0,0 -1.49257,-3.21179 -3.21537,-5.66617c-1.53897,-2.19248 -3.33056,-3.65999 -3.30683,-3.61744c2.20415,3.9527 3.88409,8.24298 4.40208,12.84463c0.53519,4.75439 -9.40669,22.56742 -9.40669,22.56742l-6.09506,0.15932c0,0 -4.75522,-10.14324 -7.16881,-13.35579c-2.33341,-3.10583 8.84858,-15.30638 9.58888,-27.30199c0.30558,-4.95165 -1.48812,-6.66653 -4.10167,-8.35361c-7.836,-5.05822 -20.7004,8.90624 -22.86244,8.69705c-1.5779,-1.07599 -8.41931,-13.95235 -14.00482,-15.88074c-8.31413,-1.46649 -11.23691,5.4915 -11.6311,6.19117c-4.28821,7.61146 6.05358,21.67479 0.04703,29.30501c-0.52506,0.66698 -6.0779,4.32671 -6.79138,4.83583c-5.77071,4.11789 -10.06797,10.74767 -11.16025,9.15231c-0.1967,-0.28728 -2.41221,-13.22857 0.38272,-24.04236c0.93514,-3.61812 0.89769,-5.24899 2.94967,-7.81641c2.03258,-2.54315 2.07762,-4.37371 2.10632,-4.52554c0.08104,-0.42876 -7.83668,4.2117 -7.83668,4.2117l0.00048,-16.82429c0,0 1.48489,-2.58348 2.35156,-3.75526c5.21303,-7.04836 12.7681,-8.0934 12.76371,-8.97846c-0.02985,-6.02309 1.14184,-14.98455 1.37673,-15.36084c0.49651,-0.79541 16.98881,8.36747 17.26076,7.7392c3.18533,-7.35878 13.5065,-8.89906 20.0348,-7.66518c5.159,0.97508 13.85137,7.1173 15.46472,13.27695c0.23383,0.89275 14.30507,-0.7486 18.80399,-1.21876z" fill="url(#color-7)" stroke="#000000" stroke-width="0"/><path d="M349.08115,187.88284c0.1658,-0.52439 1.73511,0.40181 2.01435,1.34008c0.72411,2.43309 1.08076,3.82298 0.92706,6.70898c-0.31709,5.95377 -2.66319,14.68372 -2.41332,13.14719c0.35204,-2.16475 -0.04857,1.43304 0.13375,-0.77444c0.10199,-1.23499 0.98804,-6.82377 0.63146,-10.26026c-0.01308,-0.12607 -1.82691,-8.47383 -1.2933,-10.16155z" data-paper-data="{&quot;index&quot;:null}" fill="url(#color-8)" stroke="#000000" stroke-width="0"/><path d="M345.91481,189.51452c-0.40515,-0.43518 1.45841,-0.93591 2.42021,-0.68326c2.49412,0.65516 3.5921,1.23027 6.13396,2.93228c5.24383,3.51123 10.6537,9.75766 9.36952,8.69801c-1.80924,-1.49291 2.55231,1.75752 0.63468,0.39652c-1.07283,-0.76143 -5.60149,-4.66925 -8.85018,-6.20305c-0.11917,-0.05626 -8.40425,-3.73989 -9.70819,-5.14051z" data-paper-data="{&quot;index&quot;:null}" fill="url(#color-9)" stroke="#000000" stroke-width="0"/><path d="M346.50444,190.2046c-0.53791,-0.09839 0.19134,-1.54005 0.92408,-1.89726c1.90015,-0.9263 2.93654,-1.11708 5.59429,-1.27818c5.48291,-0.33237 12.65804,0.86537 11.17601,0.79555c-2.08799,-0.09836 2.07587,0.15004 0.01716,0.21333c-1.15177,0.0354 -5.55963,-0.16973 -8.5091,0.52176c-0.1082,0.02537 -7.47121,1.96144 -9.20244,1.6448z" data-paper-data="{&quot;index&quot;:null}" fill="url(#color-10)" stroke="#000000" stroke-width="0"/><path d="M347.56905,192.22043c-0.09898,-0.54441 1.72642,-0.36983 2.41398,0.36087c1.78294,1.89485 2.75093,3.00136 3.9682,5.6769c2.51121,5.51957 4.52591,14.40788 4.02678,12.9124c-0.70321,-2.10693 0.62904,1.31681 -0.24465,-0.75705c-0.4888,-1.16024 -2.3245,-6.59011 -4.25225,-9.54793c-0.07072,-0.10851 -5.5935,-6.89303 -5.91205,-8.64519z" data-paper-data="{&quot;index&quot;:null}" fill="url(#color-11)" stroke="#000000" stroke-width="0"/><path d="M347.17647,191.07382c-0.30012,-0.53766 1.92484,-0.4258 2.90069,0.11415c2.53054,1.4002 3.54781,2.28708 5.77773,4.69002c4.60029,4.9572 9.55501,13.83296 8.49584,12.43048c-1.49223,-1.97591 1.12842,1.17285 -0.5279,-0.71259c-0.92663,-1.05482 -4.60409,-6.16198 -7.67058,-8.6278c-0.11249,-0.09046 -8.00987,-6.16386 -8.97578,-7.89426z" data-paper-data="{&quot;index&quot;:null}" fill="url(#color-12)" stroke="#000000" stroke-width="0"/><path d="M289.83411,185.85208c-1.58621,3.06929 -2.80105,8.59592 -3.15682,9.78295c-0.63594,2.12174 0.30419,-1.37408 -0.15813,0.76982c-0.32815,1.52173 0.67377,-7.46228 2.55152,-13.12106c0.91021,-2.74302 1.74955,-3.90686 3.31173,-5.90782c0.60242,-0.77163 2.40152,-1.06119 2.36449,-0.51246c-0.11918,1.76604 -4.85459,8.87597 -4.91278,8.98857z" fill="url(#color-13)" stroke="#000000" stroke-width="0"/><path d="M346.97012,196.1116c-1.01078,5.34785 -13.19443,18.00066 -31.41039,15.15237c-13.3555,-2.0883 -22.21562,-18.81181 -21.20484,-24.15966c1.01078,-5.34785 14.82287,2.89533 24.86517,4.79339c10.0423,1.89805 28.76083,-1.13396 27.75006,4.21389z" fill="#000000" stroke="none" stroke-width="0"/><path d="M284.98013,180.58344c-3.58438,0.24232 -7.77767,1.4605 -9.05439,1.77784c-2.28207,0.56724 1.94365,-0.71653 -0.28565,0.01307c-1.58234,0.51787 5.30617,-2.70657 11.46979,-4.06174c2.98773,-0.6569 4.21985,-0.7916 6.78103,-0.49127c0.98766,0.11581 2.53992,1.26215 2.00388,1.51944c-1.72519,0.82809 -10.78316,1.23377 -10.91465,1.24266z" fill="url(#color-14)" stroke="#000000" stroke-width="0"/><path d="M288.33114,175.07556c-2.49363,-1.72027 -7.60758,-3.32154 -8.66698,-3.77487c-1.89361,-0.8103 1.26603,0.43622 -0.71382,-0.23427c-1.40528,-0.4759 7.45495,1.25315 12.43833,3.5637c2.41562,1.12001 3.31089,1.67588 4.74189,3.23179c0.55183,0.6 0.70461,2.20836 0.16789,2.10365c-1.72737,-0.33705 -7.87585,-4.82689 -7.96732,-4.88999z" fill="url(#color-15)" stroke="#000000" stroke-width="0"/><path d="M349.6655,183.83123c-0.89116,4.71499 -4.10411,9.9255 -11.09385,11.90809c-6.05055,1.71619 -15.48746,0.62654 -21.93721,-0.5925c-13.90067,-2.62731 -23.18114,-12.8293 -21.51856,-21.62577c0.89002,-4.70896 9.41176,-13.06734 14.69002,-11.74484c4.58167,1.14798 6.26215,17.43292 12.72145,18.65377c6.70338,1.26698 12.31501,-12.09882 18.80497,-11.22371c9.91451,1.33688 9.19401,10.07046 8.33318,14.62497z" fill="#000000" stroke="none" stroke-width="0"/><path d="M285.91209,187.34486c-2.8743,2.05021 -6.56513,6.43552 -7.44366,7.33733c-1.57032,1.61192 0.91958,-1.08942 -0.50409,0.61553c-1.01051,1.21016 4.10922,-6.32972 8.4617,-10.552c2.1098,-2.0467 3.41486,-2.72359 5.76638,-3.83701c0.90681,-0.42936 2.67001,0.07432 2.37917,0.54506c-0.93607,1.51503 -8.55404,5.81589 -8.65949,5.89109z" fill="url(#color-16)" stroke="#000000" stroke-width="0"/><path d="M283.23388,184.98934c-3.75491,1.17653 -6.1442,2.6285 -7.39191,3.27237c-2.23019,1.15086 2.38186,-1.50619 0.27141,-0.21121c-1.49797,0.91917 2.43295,-2.89329 8.52516,-5.82955c2.9531,-1.42332 4.22389,-1.87776 7.0909,-2.25778c1.10561,-0.14655 3.2179,0.56137 2.74226,0.95239c-1.53082,1.25851 -11.10007,4.03061 -11.23781,4.07378z" fill="url(#color-17)" stroke="#000000" stroke-width="0"/><path d="M349.29409,175.98796c-4.04644,2.14568 -21.33544,6.13835 -27.75892,5.0177c-1.73987,-0.30354 -3.61408,-6.40054 -5.39623,-6.73738c-13.21357,-2.49744 -18.99001,0.83196 -17.87532,-5.06566c0.81494,-4.31173 4.14267,-8.30184 13.03697,-9.58853c0.84954,-0.12289 5.56718,7.10954 7.83624,8.18114c0.11494,0.05428 0.46855,-0.65437 0.17132,-1.5623c-0.19205,-0.58659 -0.71047,-1.17285 -1.00966,-1.7477c-0.42898,-0.82424 -0.52765,-1.52598 -0.42541,-1.49023c0.46925,0.16413 0.43656,-2.18952 0.87879,-1.96767c0.09244,0.04638 -0.49582,1.07066 -0.39196,1.57744c0.15298,0.74647 0.99937,1.06068 1.12748,1.11801c0.12709,0.05687 0.27547,0.39696 0.47532,0.62279c0.24964,0.28211 0.56186,0.47956 0.80916,0.80309c0.27278,0.35689 0.49511,0.71608 0.61948,0.70641c0.09106,-0.00708 0.20252,0.56094 0.19135,1.34729c-0.00939,0.66051 -0.14062,1.4561 -0.09624,2.3803c0.05827,1.2131 -0.14132,2.93741 -0.017,4.0585c0.20709,1.8675 0.78704,2.77504 1.09713,2.0943c0.11113,-0.24398 -0.09582,-0.73331 -0.0197,-1.30101c0.0674,-0.5026 0.25739,-1.45048 0.55296,-2.06951c0.31313,-0.65582 0.73233,-0.99078 0.792,-1.81003c0.0428,-0.58759 -0.25565,-1.17318 -0.25924,-1.78652c-0.00252,-0.43105 -0.78084,-0.96373 -0.78679,-1.38394c-0.01708,-1.20618 0.26983,-2.14672 0.46556,-3.13482c0.21207,-1.07049 0.34009,-2.15628 0.48189,-2.59589c0.31979,-0.99144 0.11286,-3.54891 0.40747,-4.20156c0.11331,-0.25099 0.55755,1.70722 0.66115,1.50328c0.33151,-0.65263 0.2807,-1.30198 0.51656,-1.2497c0.11818,0.0262 -0.3818,3.52107 -0.36916,6.2183c0.00662,1.4118 0.11424,2.02359 0.24671,2.94946c0.07225,0.5049 -0.23927,1.03661 -0.17371,1.48677c0.06757,0.46401 0.39899,0.73479 0.41634,0.76812c0.03498,0.06719 0.03497,0.47231 -0.14913,0.97911c-0.15695,0.43203 -0.48255,0.93135 -0.65593,1.42969c-0.3361,0.96613 -0.44673,1.92938 -0.42083,2.05194c0.23321,1.10328 -0.91937,3.28323 -0.81855,3.29747c0.12029,0.017 1.06626,-1.44682 1.74367,-2.98645c0.31936,-0.72583 0.15374,-1.76098 0.51628,-2.34319c0.2897,-0.46524 0.30067,-0.13098 0.60572,-0.27613c0.38701,-0.18417 0.8982,-0.62568 1.01365,-0.68664c0.57918,-0.30586 0.44851,-0.75055 1.71582,-0.96212c0.03177,-0.0053 0.09521,-0.2599 0.20056,-0.51796c0.12798,-0.31346 0.39435,-0.74047 0.60072,-1.18013c0.38014,-0.80988 0.72323,-1.63115 0.79837,-1.64222c0.1252,-0.01845 -0.04357,-0.56617 0.16707,-0.6299c0.21175,-0.06405 0.81823,-1.40042 1.04257,-1.4308c0.51232,-0.06938 -1.06282,1.41043 -0.51268,1.52914c0.12003,0.0259 1.22069,-0.18699 1.76498,-0.38733c0.50029,-0.18414 0.44665,-0.35766 0.56649,-0.32555c0.35647,0.09549 -1.76744,1.34491 -1.40436,1.47866c0.06112,0.02252 -0.61226,-0.23605 -0.99007,0.25053c-0.30946,0.39855 -0.33967,1.55908 -0.28686,1.57767c3.27327,1.15299 10.43684,0.72033 12.43698,1.01829c5.41465,0.80661 7.46555,5.76465 5.86099,6.61549z" fill="url(#color-18)" stroke="none" stroke-width="0"/><path d="M339.26618,199.83084c0.75763,-2.54915 -1.58439,-4.40624 -0.26227,-4.72844c0.13125,-0.03199 3.49336,-1.36362 3.63797,-1.33628c2.69556,0.50948 6.884,-4.78179 6.26998,-1.53308c-0.61402,3.2487 0.13659,7.93032 -2.55897,7.42085c-1.59733,-0.30191 -7.32225,3.90183 -8.17874,3.62569c-0.32337,-0.10425 0.52298,-1.53409 1.09202,-3.44873z" data-paper-data="{&quot;index&quot;:null}" fill="url(#color-19)" stroke="none" stroke-width="0"/><path d="M299.49769,197.84409c-0.89819,-0.05552 -4.69394,-6.0587 -6.29127,-6.36061c-2.69558,-0.50948 -0.28806,-4.59421 0.32596,-7.84291c0.61402,-3.24869 2.58237,3.20623 5.27794,3.71571c0.14461,0.02733 2.78879,2.49418 2.89931,2.57187c1.11332,0.78251 -1.74493,1.65671 -1.96993,4.30653c-0.16899,1.99026 0.09712,3.63035 -0.242,3.60939z" fill="url(#color-20)" stroke="none" stroke-width="0"/><path d="M345.62336,200.99326l-0.03888,-0.06406c-0.32168,-0.53325 -0.40706,-1.03412 -0.65806,-1.57594c-0.2498,-0.53922 -0.81898,-0.84507 -1.11106,-1.3773c-0.2722,-0.49597 -0.42195,-1.01656 -0.75121,-1.50385c-0.78321,-1.15912 -2.26143,-1.43226 -1.93628,-2.88287c0,0 0.06192,-0.25786 0.3891,-0.18559c0.32718,0.07227 0.26527,0.33012 0.26527,0.33012c-0.29423,1.12991 1.20043,1.55152 1.85984,2.51319c0.34425,0.50204 0.50732,1.03721 0.78064,1.55217c0.28679,0.5403 0.85371,0.84081 1.1238,1.40248c0.25247,0.52502 0.3165,1.01127 0.6318,1.52719l0.03888,0.06405c0,0 0.15073,0.24833 -0.14619,0.34856c-0.29692,0.10022 -0.44766,-0.14813 -0.44766,-0.14813z" fill="#000000" stroke="none" stroke-width="0.5"/><path d="M341.14577,203.37174l-0.0082,-0.07881c-0.06658,-0.65528 0.05611,-1.18403 0.05328,-1.81951c-0.00282,-0.63242 -0.36968,-1.16223 -0.41137,-1.80467c-0.03886,-0.59867 0.03654,-1.17264 -0.05447,-1.7856c-0.21647,-1.45802 -1.37281,-2.31939 -0.52841,-3.6216c0,0 0.15362,-0.22984 0.40494,-0.02752c0.25133,0.20231 0.09771,0.43215 0.09771,0.43215c-0.69271,0.99791 0.41967,2.01248 0.60748,3.22597c0.09805,0.63351 0.02835,1.2272 0.06076,1.84508c0.034,0.64828 0.40102,1.17194 0.41242,1.83463c0.01065,0.61947 -0.12455,1.12523 -0.05667,1.76085l0.0082,0.07881c0,0 0.0318,0.30554 -0.26104,0.28565c-0.29284,-0.01989 -0.32464,-0.32544 -0.32464,-0.32544z" fill="#000000" stroke="none" stroke-width="0.5"/><path d="M346.42369,200.19165c-0.32553,0.03362 -0.39562,-0.23205 -0.39562,-0.23205l-0.01808,-0.06853c-0.14384,-0.55279 -0.4731,-0.982 -0.6763,-1.51762c-0.21737,-0.57299 0.01729,-1.04586 -0.16941,-1.60768c-0.17795,-0.53546 -0.46341,-1.04431 -0.57227,-1.59697c-0.20851,-1.0586 0.70173,-1.99729 -0.4315,-2.82029c0,0 -0.25426,-0.18987 -0.03927,-0.37871c0.21501,-0.18884 0.46929,0.00104 0.46929,0.00104c1.41118,1.07729 0.39779,1.88612 0.65877,3.15753c0.10971,0.5345 0.39477,1.02601 0.55872,1.54524c0.17595,0.55721 -0.0564,1.03538 0.16019,1.58174c0.21764,0.54901 0.54067,0.99877 0.69284,1.56848l0.01808,0.06852c0,0 0.07009,0.26567 -0.25543,0.2993z" data-paper-data="{&quot;index&quot;:null}" fill="#000000" stroke="none" stroke-width="0.5"/><path d="M294.71858,194.21086c-0.30421,-0.11429 -0.16817,-0.38159 -0.16817,-0.38159l0.03509,-0.06894c0.28479,-0.55528 0.31917,-1.0828 0.54033,-1.6491c0.2366,-0.60582 0.78722,-0.92237 1.04189,-1.50467c0.24271,-0.55499 0.37351,-1.13391 0.68821,-1.67357c0.60282,-1.03374 2.07727,-1.46532 1.71247,-2.69908c0,0 -0.07801,-0.28147 0.24598,-0.35417c0.324,-0.0727 0.40201,0.20878 0.40201,0.20878c0.41557,1.58302 -1.05151,1.85344 -1.76647,3.09964c-0.30057,0.52391 -0.41889,1.08723 -0.66164,1.62159c-0.26049,0.57342 -0.81304,0.89574 -1.03064,1.47753c-0.21866,0.5846 -0.27358,1.12764 -0.5637,1.70164l-0.0351,0.06895c0,0 -0.13605,0.2673 -0.44027,0.15301z" fill="#000000" stroke="none" stroke-width="0.5"/><path d="M295.62156,195.8133c-0.2778,-0.1403 -0.10623,-0.40234 -0.10623,-0.40234l0.04426,-0.06759c0.35852,-0.54419 0.47026,-1.07958 0.76877,-1.63997c0.31934,-0.59949 0.89997,-0.87946 1.23332,-1.45355c0.3177,-0.54717 0.53051,-1.12749 0.91571,-1.65341c0.73784,-1.00742 2.23078,-1.33268 2.0607,-2.61959c0,0 -0.03374,-0.29319 0.29103,-0.34208c0.32477,-0.04889 0.3585,0.2443 0.3585,0.2443c0.16734,1.6471 -1.2945,1.80855 -2.17258,3.02395c-0.36915,0.51096 -0.56757,1.07632 -0.88223,1.60245c-0.33768,0.56459 -0.92102,0.85028 -1.21839,1.42674c-0.29879,0.57925 -0.43275,1.12887 -0.79923,1.69174l-0.04425,0.06759c0,0 -0.17157,0.26204 -0.44937,0.12176z" fill="#000000" stroke="none" stroke-width="0.5"/><path d="M292.41584,191.0073l0.04292,-0.06287c0.3585,-0.52203 0.82981,-0.85677 1.24117,-1.33275c0.40939,-0.47369 0.3762,-1.04921 0.75201,-1.54945c0.3502,-0.46615 0.80218,-0.85787 1.10788,-1.36025c0.72715,-1.19502 0.09536,-2.40515 1.81573,-2.96375c0,0 0.30837,-0.09634 0.43585,0.17797c0.12748,0.27429 -0.1809,0.37063 -0.1809,0.37063c-1.36545,0.40571 -0.87891,1.7087 -1.4762,2.70705c-0.31182,0.52119 -0.77082,0.93042 -1.14019,1.40776c-0.38756,0.50083 -0.35018,1.07182 -0.77044,1.57234c-0.39286,0.46786 -0.8621,0.77929 -1.20644,1.28728l-0.04291,0.06289c0,0 -0.16639,0.24378 -0.45562,0.08537c-0.28923,-0.15841 -0.12285,-0.40219 -0.12285,-0.40219z" data-paper-data="{&quot;index&quot;:null}" fill="#000000" stroke="none" stroke-width="0.5"/><path d="M350.64771,194.23706c-0.31545,1.66898 -21.01099,-0.6341 -22.10903,0.50214c-1.89426,1.96014 -3.89164,5.36246 -6.76911,4.8186c-2.45238,-0.46352 -2.36064,-3.99472 -3.54664,-5.98239c-1.01223,-1.69645 -22.18592,-6.17875 -21.79009,-8.27306c0.33803,-1.78849 5.0816,-5.44726 9.90278,-5.96977c5.277,-0.57192 10.15162,5.12188 13.79944,8.42756c0.14286,0.12947 1.40575,-2.18758 1.54329,-2.06466c0.25723,0.22989 0.48166,2.08951 0.67854,2.41928c0.22294,0.37342 2.09259,-0.70251 2.2634,-0.47064c0.44151,0.59934 -0.4364,1.84108 -0.20266,1.85401c0.0602,0.00333 0.88599,-1.46958 1.42645,-1.60808c0.21123,-0.05412 0.32107,1.20582 0.56316,1.13855c0.19927,-0.05539 0.72573,-1.61993 0.94452,-1.68828c0.25189,-0.07867 0.7713,1.10634 1.04472,1.02208c4.5867,-1.41355 11.7752,-4.76093 16.36552,-3.46821c5.75452,1.62057 6.302,7.14048 5.88574,9.34286z" fill="url(#color-21)" stroke="none" stroke-width="0"/><path d="M319.2208,168.06239c-0.09571,-0.018 -0.07871,-0.10852 -0.07871,-0.10852l0.01182,-0.06295c0.09712,-0.51676 0.183,-1.6153 -0.13317,-2.04693c-0.19901,-0.56215 -0.62077,-1.01502 -0.91084,-1.57561c-0.221,-0.42708 -0.04856,-0.96279 -0.35926,-1.38523c0,0 -0.05557,-0.07679 0.02419,-0.12798c0.07976,-0.05121 0.13534,0.02558 0.13534,0.02558c0.27112,0.37969 0.27003,0.83409 0.31219,1.26564c0.0547,0.55973 0.77271,1.20779 0.97244,1.71875c0.32326,0.50199 0.2594,1.58263 0.15054,2.16178l-0.01183,0.06295c0,0 -0.01701,0.09051 -0.11273,0.07252z" fill="#000000" stroke="none" stroke-width="0.5"/><path d="M324.22893,157.06355c0.09839,0.00056 0.07999,0.15675 0.07999,0.15675l-0.0261,0.22154c-0.12644,1.06457 0.00978,1.96577 -0.19436,3.04587c-0.41005,2.16949 -0.83408,4.33777 -1.22745,6.51023c-0.10974,0.72848 0.13232,0.55012 0.40861,0.89015c0.45494,0.55993 0.82543,2.00695 0.67196,2.81627c-0.10728,0.5657 -0.13397,1.27173 -0.56841,1.37718c-0.60422,0.64831 -0.79644,2.36666 -0.74168,3.41687c0.01804,0.34586 -0.37975,1.20916 -0.11349,1.16478c0,0 0.09571,0.01808 0.06639,0.17322c-0.02932,0.15514 -0.12503,0.13705 -0.12503,0.13705c-0.55176,-0.20795 0.02052,-0.78204 -0.02714,-1.38974c-0.09765,-1.24523 0.20664,-3.00771 0.89844,-3.79048c0.21086,-0.02 0.65006,-1.38814 0.54154,-1.63821c-0.10827,-0.24949 -0.12309,-0.71699 -0.20904,-0.97201c-0.26207,-0.77758 -1.15465,-1.1166 -0.99566,-2.20925c0.39366,-2.17651 0.81877,-4.34878 1.22957,-6.52225c0.20085,-1.06269 0.06568,-1.95575 0.18899,-3.01082l0.02609,-0.22153c0,0 0.0184,-0.15619 0.11678,-0.15563z" fill="#000000" stroke="none" stroke-width="0.5"/><path d="M319.92381,180.3176c-0.08056,-0.01592 -0.06682,-0.08415 -0.06682,-0.08415l1.52693,-7.49021c0.17414,-0.94379 -0.2312,-3.49165 -0.04537,-4.47486c0.16892,-0.89375 0.35932,-2.00335 -0.39497,-2.69751c-0.03903,-0.31357 -0.50428,-0.62002 -0.7649,-0.86352c-0.27349,-0.25552 -0.29043,-0.55242 -0.58949,-0.82614c-0.19773,-0.18096 -0.56329,-0.27227 -0.79865,-0.44965c-0.14048,-0.19457 -0.43551,-0.56317 -0.50783,-0.75676c-0.17566,-0.47021 0.32878,-1.19878 0.41207,-1.63949c0,0 0.01292,-0.06838 0.0936,-0.05312c0.08068,0.01525 0.06776,0.08363 0.06776,0.08363c-0.07731,0.40907 -0.57888,1.1432 -0.41806,1.5737c0.06374,0.17062 0.34504,0.52204 0.47515,0.70604c0.24648,0.19083 0.56161,0.24288 0.79025,0.44162c0.30639,0.26634 0.33038,0.5834 0.59259,0.82897c0.27411,0.2567 0.74215,0.56828 0.79422,0.90075c0.77729,0.67932 0.57945,1.8834 0.40963,2.78198c-0.18608,0.98449 0.25822,3.62065 0.08202,4.57569l-1.56385,7.39074c0,0 -0.01372,0.06821 -0.09427,0.05228z" fill="#000000" stroke="none" stroke-width="0.5"/><path d="M319.99225,181.11003c-3.21886,-0.39401 -5.75812,-16.07482 -13.27163,-17.49492c-8.6681,-1.63832 -10.75509,12.72901 -12.69869,8.80054c-2.43851,-4.92879 6.52659,-15.77832 15.19468,-14.14c8.6681,1.63832 13.93649,16.99015 13.13826,21.21346c-0.10633,0.56255 -1.49822,1.72673 -2.36262,1.62092z" fill="url(#color-22)" stroke="#000000" stroke-width="0"/><path d="M331.60111,164.26697c0.09569,0.01809 0.0786,0.10859 0.0786,0.10859l-0.00009,0.00046c-0.08542,0.45182 -0.29131,0.55653 -0.41268,1.09009c-0.14416,0.29452 -0.29942,0.13763 -0.46139,0.31535c-0.07913,0.08683 -0.04448,0.40685 -0.10203,0.5203c-0.41312,0.81422 -0.83641,1.60425 -1.12936,2.48345c-0.25121,0.194 -0.29512,0.52673 -0.46672,0.76497c-0.15732,0.21842 -0.52122,0.21857 -0.70076,0.3469c-0.58943,0.42133 -1.19842,0.90711 -1.86581,1.29008c-0.15611,0.04138 -0.25174,0.19357 -0.39169,0.27011c-0.11131,0.06088 -0.27645,-0.14061 -0.38281,-0.07235c-0.01517,0.00974 -0.05455,0.44224 -0.0625,0.48429c-0.11403,0.60331 -0.22806,1.20663 -0.34209,1.80993c0,0 -0.0171,0.0905 -0.1128,0.07241c-0.0957,-0.01809 -0.07859,-0.10859 -0.07859,-0.10859c0.11403,-0.60331 0.22805,-1.20663 0.34208,-1.80993c0.02065,-0.10924 0.04915,-0.54158 0.14276,-0.60167c0.10634,-0.06826 0.2878,0.15422 0.3828,0.07235c0.14597,-0.1258 0.13251,-0.21215 0.4227,-0.28622c0.64977,-0.38102 1.24444,-0.86079 1.82785,-1.26928c0.15937,-0.11158 0.52816,-0.10985 0.65602,-0.30201c0.16057,-0.24134 0.21892,-0.57246 0.46693,-0.76524c0.24698,-0.87432 0.71203,-1.66482 1.11651,-2.46202c0.07464,-0.14711 0.0164,-0.43703 0.12975,-0.56025c0.1811,-0.19687 0.32417,0.00989 0.42367,-0.25144c0.11169,-0.50168 0.33424,-0.68363 0.40679,-1.06741l0.00009,-0.00046c0,0 0.01711,-0.09049 0.11281,-0.0724z" fill="#000000" stroke="none" stroke-width="0.5"/><path d="M333.64504,165.02845c0.0942,0.02464 0.07015,0.11357 0.07015,0.11357l-0.00178,0.00661c-0.16803,0.50233 -1.83076,0.62452 -2.37906,0.74665c0,0 -0.0942,0.02098 -0.11823,-0.06889c-0.02403,-0.08987 0.07017,-0.11085 0.07017,-0.11085c0.38705,-0.08621 2.18561,-0.29685 2.23872,-0.6162l0.00177,-0.00661c0,0 0.02404,-0.08893 0.11824,-0.0643z" fill="#000000" stroke="none" stroke-width="0.5"/><path d="M330.59736,169.06236c-0.00101,-0.09229 0.09621,-0.09135 0.09621,-0.09135l0.00346,0.00003c0.05776,0.00979 0.13337,-0.04945 0.13393,-0.10494c0.09514,-0.50333 0.11285,-2.0744 0.54867,-2.38824c0.19695,-0.14183 0.74395,-0.14051 0.99104,-0.18415c0,0 0.0952,-0.01682 0.11487,0.07392c0.01966,0.09074 -0.07555,0.10756 -0.07555,0.10756c-0.22354,0.03948 -0.73381,0.03375 -0.91313,0.15216c-0.35197,0.23242 -0.39684,1.86405 -0.47449,2.27493c-0.03681,0.12863 -0.18284,0.24303 -0.32333,0.25332l-0.00346,-0.00004c0,0 -0.09722,-0.00093 -0.09821,-0.09322z" fill="#000000" stroke="none" stroke-width="0.5"/><path d="M322.00453,179.83176c0.80906,-4.28064 11.74085,-17.38869 20.57861,-15.7183c8.83776,1.67039 12.18078,15.01657 8.03685,18.76192c-3.30291,2.98522 1.18965,-11.12791 -7.64811,-12.7983c-7.66057,-1.44789 -15.90065,12.49445 -19.10298,11.6719c-0.85996,-0.22089 -1.97213,-1.34703 -1.86436,-1.9172z" data-paper-data="{&quot;index&quot;:null}" fill="url(#color-23)" stroke="#000000" stroke-width="0"/><path d="M325.52024,157.62795c0.09593,0.01684 0.06739,0.17211 0.06739,0.17211l-0.04269,0.23228c-0.36025,1.95961 -0.42097,3.90578 -0.66096,5.83974c-0.12162,0.83684 0.34688,1.96069 0.42753,2.70598c0.0407,0.37624 -0.19938,0.82771 -0.12029,1.22131c0.13268,0.6603 0.44601,1.24632 0.29437,2.04526c-0.1698,0.74668 -0.48436,1.01355 -0.70651,1.65911c-0.36364,1.05677 -0.4823,2.56577 -0.69442,3.6881c0,0 -0.02932,0.15514 -0.12502,0.13705c-0.0957,-0.01809 -0.06638,-0.17323 -0.06638,-0.17323c0.21721,-1.14923 0.34002,-2.67446 0.71301,-3.75841c0.22355,-0.64966 0.52422,-0.87076 0.69042,-1.60118c0.15168,-0.69277 -0.18937,-1.28528 -0.29809,-1.85885c-0.07963,-0.42018 0.15553,-0.88253 0.11526,-1.25467c-0.08715,-0.8056 -0.52682,-1.89138 -0.42629,-2.81471c0.24084,-1.94088 0.30345,-3.89969 0.66549,-5.86915l0.04269,-0.23229c0,0 0.02855,-0.15528 0.12448,-0.13845z" fill="#000000" stroke="none" stroke-width="0.5"/><g stroke="none" stroke-width="0"><path d="M341.67542,187.55389c-0.84262,4.4582 -5.22025,7.37401 -9.77769,6.51263c-4.55744,-0.86139 -7.5689,-5.17376 -6.72627,-9.63197c0.84262,-4.4582 5.22025,-7.37402 9.77769,-6.51263c4.55744,0.86139 7.5689,5.17376 6.72627,9.63197z" fill="url(#color-24)"/><path d="M336.85051,186.91939c-0.36857,1.95005 -2.33909,3.2149 -4.40128,2.82513c-2.06219,-0.38977 -3.43514,-2.28655 -3.06657,-4.2366c0.36857,-1.95005 2.33909,-3.2149 4.40128,-2.82513c2.06219,0.38977 3.43514,2.28655 3.06658,4.2366z" fill="url(#color-25)"/><path d="M336.98299,186.64178c-0.36857,1.95005 -2.33908,3.21491 -4.40127,2.82514c-2.06219,-0.38977 -3.43515,-2.28655 -3.06658,-4.2366c0.36857,-1.95005 2.33909,-3.2149 4.40129,-2.82513c2.06219,0.38977 3.43513,2.28655 3.06656,4.23659z" fill="url(#color-26)"/><path d="M335.10789,186.40252c-0.18064,0.95573 -1.16006,1.57306 -2.18761,1.37885c-1.02754,-0.19421 -1.71409,-1.12642 -1.53346,-2.08216c0.18064,-0.95573 1.16006,-1.57307 2.18761,-1.37886c1.02754,0.19421 1.71409,1.12643 1.53346,2.08217z" fill="url(#color-27)"/><path d="M335.07337,186.58515c-0.18064,0.95573 -1.16006,1.57306 -2.18761,1.37885c-1.02754,-0.19421 -1.71409,-1.12642 -1.53346,-2.08216c0.18064,-0.95573 1.16006,-1.57307 2.18761,-1.37886c1.02754,0.19421 1.71409,1.12643 1.53346,2.08216z" fill="url(#color-28)"/></g><g stroke="none" stroke-width="0"><path d="M317.67082,183.24184c-0.84262,4.4582 -5.22026,7.37401 -9.77769,6.51263c-4.55746,-0.86139 -7.5689,-5.17376 -6.72627,-9.63198c0.84262,-4.4582 5.22025,-7.37401 9.77769,-6.51263c4.55746,0.86139 7.5689,5.17376 6.72627,9.63197z" fill="url(#color-29)"/><path d="M312.84591,182.60733c-0.36857,1.95005 -2.33909,3.21491 -4.40128,2.82514c-2.06219,-0.38977 -3.43515,-2.28655 -3.06658,-4.23661c0.36857,-1.95005 2.3391,-3.2149 4.40129,-2.82513c2.06219,0.38977 3.43514,2.28656 3.06657,4.2366z" fill="url(#color-30)"/><path d="M312.97839,182.32972c-0.36857,1.95005 -2.33909,3.21491 -4.40128,2.82514c-2.06219,-0.38977 -3.43515,-2.28655 -3.06658,-4.23661c0.36857,-1.95005 2.33909,-3.2149 4.40129,-2.82513c2.06219,0.38977 3.43514,2.28656 3.06657,4.2366z" fill="url(#color-31)"/><path d="M311.1033,182.09046c-0.18064,0.95573 -1.16006,1.57306 -2.18761,1.37885c-1.02754,-0.19421 -1.71408,-1.12643 -1.53344,-2.08216c0.18064,-0.95573 1.16006,-1.57306 2.18759,-1.37885c1.02754,0.19421 1.71409,1.12643 1.53346,2.08216z" fill="url(#color-32)"/><path d="M311.06878,182.2731c-0.18064,0.95573 -1.16006,1.57307 -2.18761,1.37886c-1.02754,-0.19421 -1.71408,-1.12642 -1.53344,-2.08216c0.18064,-0.95573 1.16006,-1.57306 2.18759,-1.37885c1.02754,0.19421 1.71409,1.12642 1.53346,2.08216z" fill="url(#color-33)"/></g><path d="M309.52847,182.02642c-0.03427,0.18129 -0.21435,0.29945 -0.40221,0.26395c-0.18786,-0.03551 -0.31238,-0.21125 -0.27811,-0.39254c0.03427,-0.18129 0.21434,-0.29944 0.40219,-0.26394c0.18786,0.03551 0.31239,0.21125 0.27813,0.39253z" fill="#000000" stroke="none" stroke-width="0"/><path d="M312.21545,180.50267c0.0672,0.09283 -0.02925,0.15473 -0.02925,0.15473l-0.05749,0.03285c-0.80272,0.26418 -1.6316,0.80764 -2.40926,1.16461c0,0 -0.10497,0.04815 -0.15785,-0.0525c-0.05287,-0.10065 0.0521,-0.1488 0.0521,-0.1488c0.7955,-0.36465 1.61493,-0.88631 2.43142,-1.17345l0.00669,-0.00836c0,0 0.09643,-0.0619 0.16363,0.03093z" fill="#000000" stroke="none" stroke-width="0.5"/><path d="M307.07464,179.50437l0.00319,0.01022c0.65537,0.56534 1.22787,1.35008 1.83542,1.97991c0,0 0.08015,0.08314 -0.00582,0.15755c-0.08596,0.07441 -0.16612,-0.00873 -0.16612,-0.00873c-0.59371,-0.61617 -1.16708,-1.42467 -1.81802,-1.96359l-0.04153,-0.05156c0,0 -0.0672,-0.09283 0.02925,-0.15473c0.09645,-0.0619 0.16363,0.03093 0.16363,0.03093z" data-paper-data="{&quot;index&quot;:null}" fill="#000000" stroke="none" stroke-width="0.5"/><path d="M306.21422,183.60763c-0.0672,-0.09284 0.02925,-0.15474 0.02925,-0.15474l0.05749,-0.03284c0.80272,-0.26418 1.6316,-0.80765 2.40927,-1.16462c0,0 0.10497,-0.04815 0.15785,0.0525c0.05287,0.10065 -0.0521,0.14881 -0.0521,0.14881c-0.7955,0.36465 -1.61492,0.8863 -2.43142,1.17345l-0.0067,0.00836c0,0 -0.09645,0.0619 -0.16363,-0.03093z" data-paper-data="{&quot;index&quot;:null}" fill="#000000" stroke="none" stroke-width="0.5"/><path d="M311.22377,184.55446l-0.00319,-0.01022c-0.65537,-0.56534 -1.22787,-1.35008 -1.83542,-1.97991c0,0 -0.08015,-0.08314 0.00582,-0.15756c0.08596,-0.07441 0.16612,0.00873 0.16612,0.00873c0.59371,0.61617 1.16708,1.42467 1.81802,1.96359l0.04154,0.05156c0,0 0.0672,0.09284 -0.02925,0.15474c-0.09645,0.0619 -0.16363,-0.03093 -0.16363,-0.03093z" data-paper-data="{&quot;index&quot;:null}" fill="#000000" stroke="none" stroke-width="0.5"/><path d="M333.48387,186.17921c-0.03427,0.18129 -0.21433,0.29945 -0.4022,0.26395c-0.18786,-0.03551 -0.31238,-0.21125 -0.27812,-0.39253c0.03427,-0.18129 0.21433,-0.29945 0.4022,-0.26395c0.18786,0.03551 0.31239,0.21124 0.27812,0.39253z" fill="#000000" stroke="none" stroke-width="0"/><path d="M336.19822,184.51067c0.06719,0.09283 -0.02925,0.15474 -0.02925,0.15474l-0.05748,0.03284c-0.80272,0.26418 -1.6316,0.80764 -2.40927,1.16462c0,0 -0.10497,0.04815 -0.15785,-0.0525c-0.05288,-0.10065 0.0521,-0.14881 0.0521,-0.14881c0.7955,-0.36465 1.61492,-0.88631 2.43142,-1.17345l0.0067,-0.00836c0,0 0.09643,-0.0619 0.16363,0.03092z" fill="#000000" stroke="none" stroke-width="0.5"/><path d="M331.05741,183.51236l0.00318,0.01022c0.65538,0.56534 1.22787,1.35008 1.83542,1.97991c0,0 0.08015,0.08314 -0.00581,0.15756c-0.08597,0.07441 -0.16612,-0.00873 -0.16612,-0.00873c-0.59371,-0.61617 -1.16708,-1.42467 -1.81802,-1.96359l-0.04153,-0.05155c0,0 -0.06719,-0.09283 0.02925,-0.15473c0.09643,-0.0619 0.16363,0.03092 0.16363,0.03092z" data-paper-data="{&quot;index&quot;:null}" fill="#000000" stroke="none" stroke-width="0.5"/><path d="M330.10674,187.67355c-0.06719,-0.09284 0.02925,-0.15473 0.02925,-0.15473l0.05748,-0.03284c0.80272,-0.26418 1.63161,-0.80765 2.40927,-1.16462c0,0 0.10497,-0.04815 0.15785,0.0525c0.05288,0.10065 -0.0521,0.14881 -0.0521,0.14881c-0.7955,0.36465 -1.61492,0.88631 -2.43142,1.17345l-0.00669,0.00835c0,0 -0.09643,0.06191 -0.16363,-0.03093z" data-paper-data="{&quot;index&quot;:null}" fill="#000000" stroke="none" stroke-width="0.5"/><path d="M335.20653,188.56245l-0.00318,-0.01022c-0.65538,-0.56534 -1.22787,-1.35008 -1.83542,-1.97991c0,0 -0.08015,-0.08315 0.00582,-0.15756c0.08596,-0.07441 0.16612,0.00874 0.16612,0.00874c0.59371,0.61617 1.16708,1.42467 1.81802,1.96359l0.04154,0.05155c0,0 0.06719,0.09283 -0.02925,0.15474c-0.09643,0.0619 -0.16363,-0.03093 -0.16363,-0.03093z" data-paper-data="{&quot;index&quot;:null}" fill="#000000" stroke="none" stroke-width="0.5"/><path d="M347.59386,189.04752c2.45858,0.58005 5.47716,3.101 2.6148,7.53869c-2.95006,4.57368 -9.50432,9.39573 -15.30275,13.81562c-5.57071,4.24633 -8.34246,8.4259 -11.61683,7.80703c-1.83816,-0.34742 -6.52074,-1.70063 -9.03912,-1.87389c-2.29622,-0.15797 -7.19321,-0.3617 -9.2068,-2.17466c-0.4173,-0.37572 -3.5222,-5.07045 -5.55721,-9.78873c-0.03185,-0.07386 0.72313,-2.92481 2.87001,-1.60401c0.63759,0.39226 0.22666,-0.06569 1.01444,0.97074c0.42293,0.55641 1.95162,2.6403 2.46702,3.05583c2.75358,2.2201 6.13612,2.76486 10.6303,2.9339c0.05203,0.00197 0.48396,0.03068 0.6129,0.06217c1.18225,0.28878 4.96144,1.66653 6.5524,1.54351c1.19968,-0.09277 2.93351,-0.40907 4.16812,-0.96801c2.19865,-0.9954 3.86158,-2.69553 5.76833,-4.03429c5.82612,-4.09058 11.80079,-10.10486 14.11984,-11.5317c0.19532,-0.12017 0.42748,-0.13673 0.5059,-0.25902c0.48961,-0.76366 -0.51429,-1.70961 -1.45057,-1.35668c-2.21517,0.83501 -6.69486,4.43544 -10.63882,5.61762c-2.656,0.79612 -5.04425,1.0132 -6.18412,0.91011c-0.96504,-0.08729 -10.87392,-3.3354 -10.93489,-3.34434c-1.41395,-0.2072 -7.31315,0.04107 -11.42464,-0.61666c-0.83532,-0.13363 -3.50246,-1.15619 -5.88878,-3.41798c-3.64371,-3.45356 -7.32986,-8.50186 -8.31264,-7.5252c-0.04282,0.04255 -0.20823,0.31515 -0.12047,0.55339c0.05138,0.13949 0.54577,0.17486 0.6371,0.3719c1.52526,3.291 7.88221,14.29821 9.30486,17.85793c0.28733,0.71895 -1.86219,0.41253 -1.9241,0.47692c-0.99836,1.03829 -1.15886,1.7041 -1.57756,0.94563c-1.23667,-2.24015 -6.28974,-11.36068 -6.45358,-11.6004c-1.5729,-2.30139 -4.44176,-5.8579 -3.93207,-9.02396c0.45486,-2.82548 2.34249,-4.95234 4.13761,-5.50326c4.32758,0.31154 3.86654,4.05793 6.55358,7.12847c1.4117,1.19104 2.11708,2.96968 4.36789,3.84071c3.63975,1.40855 8.00905,-0.71129 9.17876,-1.16967c1.95155,-0.76477 4.00743,-2.33741 6.83574,-1.80284c5.20621,0.984 7.26824,5.89221 10.85877,7.84795c1.94453,1.05918 5.03093,0.97573 8.70216,-0.71801c4.16681,-1.92237 5.93952,-5.37174 7.66445,-4.96478z" fill="url(#color-34)" stroke="none" stroke-width="0"/><path d="M344.26267,198.35045c-0.57395,-0.08958 0.50878,-0.62358 0.50878,-0.62358l0.12589,-0.49552c0.43406,-0.76815 0.95005,-1.35213 1.71671,-1.91035c0.10236,-0.07453 1.06137,-0.65169 1.06419,-0.80108c0.00315,-0.16575 -0.08189,-0.36141 -0.24929,-0.45631c-0.14517,-0.08229 -1.04678,0.21735 -1.19392,0.28988c-1.03127,0.5083 -2.84882,0.67549 -3.76168,1.29782l-0.06946,0.00436c1.18682,-0.79958 3.50014,-2.5738 5.17137,-2.62701c0.92918,-0.02959 1.37371,0.67306 1.26608,1.56815c-0.0956,0.795 -1.29881,1.2215 -1.88514,1.72752c-0.43403,0.37458 -1.10137,0.6584 -1.35828,1.1226l-0.60978,0.4914c0,0 -0.15152,0.50171 -0.72548,0.41213z" fill="#000000" stroke="none" stroke-width="0.5"/><path d="M347.616,196.88977c-1.96878,1.98277 -5.39997,4.96998 -9.75812,8.73364c-5.56381,4.80487 -13.61435,9.60034 -22.26435,8.0839c-9.1252,-1.59975 -13.89149,-8.28179 -16.53109,-14.86286c-2.48541,-3.95994 -1.44839,-2.96443 -4.47217,-8.79005c0.69563,-1.08754 0.72601,-1.40007 1.37194,-0.34532c0.93018,1.51894 3.1569,5.85002 4.96692,9.4612c1.50882,3.01026 2.41944,5.23314 4.93454,7.59495c0.93565,0.87864 2.51169,1.66789 4.07597,2.07295c2.45673,0.63616 5.11497,0.64316 6.9807,0.9958c1.70238,0.32176 3.36547,1.13637 5.05815,1.41957c1.70992,0.28608 3.45042,0.03506 5.3664,-0.77979c2.39911,-1.02032 4.38129,-2.68441 6.45171,-4.22275c6.88649,-5.11675 13.65374,-12.24788 13.81943,-9.36124z" fill="url(#color-35)" stroke="none" stroke-width="0"/><path d="M325.28052,212.92742c-0.18893,0.99961 -4.63575,2.31062 -10.50256,1.20176c-5.86681,-1.10886 -8.03601,-3.10797 -7.84708,-4.10756c0.1554,-0.82218 0.58967,0.61963 4.85692,1.60296c0.92082,0.21218 1.87856,0.23246 2.91985,0.42927c0.77676,0.14681 2.7349,-0.1261 3.46762,-0.01671c1.40864,0.21032 2.77516,0.53819 3.77675,0.61153c2.41244,0.17664 3.44432,-0.33407 3.3285,0.27875z" fill="url(#color-36)" stroke="none" stroke-width="0"/><path d="M343.61305,198.37293c0.11701,-0.61905 3.77142,-3.62992 4.03569,-3.57997c0.26427,0.04995 1.1406,-0.38259 1.0236,0.23647c-0.0415,0.21956 -4.24694,3.4428 -4.35168,3.74173c-0.19056,0.54387 -0.01977,1.15071 -0.19031,1.11848c-0.26427,-0.04995 -0.63431,-0.89764 -0.51731,-1.51669z" fill="#000000" stroke="none" stroke-width="0"/><path d="M295.19163,189.4577l-0.77697,-0.38128c-0.01608,-0.52885 -0.48077,-1.08072 -0.69585,-1.60902c-0.29055,-0.71367 -1.16742,-1.63272 -0.888,-2.38419c0.31462,-0.84608 1.03316,-1.27332 1.84784,-0.83079c1.46531,0.79594 2.83119,3.21083 3.52233,4.4551l0.2271,0.54414c-0.52826,-0.96358 -2.47635,-2.30308 -3.16246,-3.21804c-0.0979,-0.13055 -0.76414,-0.80147 -0.93129,-0.79313c-0.19274,0.0096 -0.35828,0.14593 -0.43151,0.2951c-0.06599,0.13443 0.52411,1.07842 0.58116,1.19069c0.42735,0.84097 0.61942,1.59262 0.654,2.47174l-0.11505,0.49808c0,0 0.7202,0.96094 0.16749,0.78373c-0.55271,-0.17721 0.00117,-1.02213 0.00117,-1.02213z" data-paper-data="{&quot;index&quot;:null}" fill="#000000" stroke="none" stroke-width="0.5"/><path d="M295.93692,189.98892c-0.11336,0.59976 -0.97415,1.39507 -1.23842,1.34513c-0.17054,-0.03223 0.20668,-0.51759 0.22447,-1.07604c0.00977,-0.30693 -2.10401,-4.37438 -2.06381,-4.58711c0.11336,-0.59976 0.40769,-0.39405 0.67196,-0.3441c0.26427,0.04995 2.51917,4.06237 2.40581,4.66213z" data-paper-data="{&quot;index&quot;:null}" fill="#000000" stroke="none" stroke-width="0"/><path d="M336.39849,198.44141c-0.1148,0.60739 -4.89873,1.64441 -6.70773,1.2696c-2.29257,-0.47498 -7.58147,-2.48317 -10.32502,-3.00171c-3.72943,-0.70488 -6.4236,-0.16376 -12.0045,-1.01649c-1.8433,-0.28164 -5.30612,-2.9094 -5.532,-3.32457c-0.37833,-0.69537 8.08546,1.63681 11.0613,1.3871c2.60642,-0.21872 4.58705,-0.55937 7.69651,0.02833c2.53102,0.47837 4.40654,1.8371 6.88442,2.58662c4.04197,1.22263 9.04805,1.43075 8.92702,2.07111z" fill="url(#color-37)" stroke="none" stroke-width="0"/><path d="M322.50727,190.98556c-0.24496,1.29606 -1.73075,3.04075 -3.16662,2.76936c-1.43587,-0.27139 -2.2781,-2.45607 -2.03314,-3.75214c0.24496,-1.29606 1.60755,-2.12674 3.04343,-1.85535c1.43587,0.27139 2.4013,1.54207 2.15634,2.83813z" fill="url(#color-38)" stroke="none" stroke-width="0"/><path d="M320.02008,188.46449c-0.60783,-0.11488 -1.50862,0.27277 -1.49917,0.22279c0.00945,-0.04998 1.02764,-0.49936 1.63546,-0.38448c0.60783,0.11488 1.56769,0.81316 1.55824,0.86314c-0.00945,0.04998 -1.08671,-0.58656 -1.69453,-0.70144z" fill-opacity="0.22745" fill="#ffffff" stroke="none" stroke-width="0"/><path d="M296.12736,182.37469c-0.03569,0.08514 -0.12612,0.04952 -0.12612,0.04952l-0.00585,-0.00232c-1.09418,-0.43876 -1.73957,-0.8586 -3.01992,-0.67482c-0.97738,0.35253 -1.6148,1.38455 -1.81061,2.42054c0,0 -0.0171,0.09051 -0.1128,0.07242c-0.0957,-0.01809 -0.0786,-0.10859 -0.0786,-0.10859c0.21346,-1.12936 0.90019,-2.15263 1.94763,-2.56259c1.3293,-0.19872 2.00755,0.24395 3.14567,0.68278l0.00586,0.00231c0,0 0.09044,0.03562 0.05474,0.12076z" fill="#a8655c" stroke="none" stroke-width="0.5"/><path d="M345.78639,191.02525l0.0063,-0.00001c1.21977,0.00684 2.01279,-0.15777 3.17787,0.51241c0.82556,0.76397 1.09147,1.9673 0.87801,3.09665c0,0 -0.0171,0.0905 -0.1128,0.07241c-0.0957,-0.01809 -0.0786,-0.10858 -0.0786,-0.10858c0.19581,-1.036 -0.02099,-2.22946 -0.80228,-2.91439c-1.12496,-0.63841 -1.87907,-0.48307 -3.05789,-0.47392l-0.00629,0.00002c0,0 -0.0972,0.00016 -0.09935,-0.09213c-0.00216,-0.09229 0.09505,-0.09245 0.09505,-0.09245z" data-paper-data="{&quot;index&quot;:null}" fill="#a8655c" stroke="none" stroke-width="0.5"/><path d="M332.14472,208.72667c0.03478,0.09322 -0.05165,0.13464 -0.05165,0.13464l-0.13312,0.06101c-0.19301,0.24757 -0.3905,0.49098 -0.58669,0.73556c-0.78675,1.12045 -2.21412,1.42941 -3.37868,1.92355c-1.33089,0.56452 -2.14634,1.2553 -3.63122,1.25032c-1.17397,-0.00394 -2.73094,0.03162 -3.85635,-0.26183c-1.23757,-0.32975 -2.31673,-0.42148 -3.57144,-0.44116c-1.23595,-0.02432 -2.44823,-0.15516 -3.68798,-0.1484c-1.26591,0.00657 -2.58298,-0.51185 -3.73487,-1.01187c-1.17609,-0.39824 -2.28812,-0.92739 -3.20708,-1.83489c-0.97098,-0.96169 -1.97654,-1.52146 -2.732,-2.77603c-0.579,-0.96152 -1.15269,-1.87726 -1.48729,-2.97652c0,0 -0.02895,-0.09577 0.05962,-0.13088c0.08857,-0.03511 0.1175,0.06066 0.1175,0.06066c0.32508,1.08464 0.89675,1.98355 1.46684,2.93027c0.74748,1.24132 1.74194,1.78715 2.70301,2.73902c0.89736,0.89168 1.9944,1.40889 3.14667,1.7956c1.13211,0.49036 2.4289,1.00772 3.6733,1.00062c1.24124,-0.00676 2.45494,0.12409 3.69225,0.14843c1.2665,0.03083 2.361,0.1136 3.61156,0.44682c1.09879,0.30021 2.66245,0.25228 3.81345,0.25614c1.46033,0.00491 2.25093,-0.68002 3.56214,-1.23621c1.12856,-0.47853 2.53659,-0.77659 3.29832,-1.85983c0.20682,-0.2581 0.41287,-0.51695 0.62237,-0.77248l0.17012,-0.08433c0,0 0.08644,-0.04143 0.12123,0.05179z" fill="#ae6960" stroke="none" stroke-width="0.5"/><g stroke="none" stroke-width="0"><path d="M316.26851,198.28728c0.76956,0.05326 1.54759,1.19917 1.61346,1.34986c0.14887,0.34058 -0.05856,1.1901 -0.44645,2.27371c-0.51553,1.44017 -0.76099,2.93438 -0.99221,2.89067c-0.22006,-0.04159 -0.54945,-1.48789 -1.07154,-2.6663c-0.43929,-0.99152 -1.081,-1.85262 -0.99899,-2.28654c0.10508,-0.55596 0.80889,-1.63662 1.89572,-1.56141z" data-paper-data="{&quot;index&quot;:null}" fill="url(#color-39)"/><path d="M322.68703,201.35765c-0.08201,0.43392 -0.99373,1.00139 -1.76459,1.7642c-0.91616,0.90658 -1.7507,2.13289 -1.97075,2.0913c-0.23123,-0.0437 0.0856,-1.52444 0.13126,-3.05341c0.03435,-1.15043 0.15129,-2.01707 0.41419,-2.27981c0.11632,-0.11625 1.25891,-0.89916 1.99481,-0.66788c1.03931,0.32664 1.30016,1.58963 1.19509,2.14559z" data-paper-data="{&quot;index&quot;:null}" fill="url(#color-40)"/><path d="M325.22103,202.64805c-0.06851,0.36245 -0.54823,1.12043 -1.19212,1.75758c-0.76524,0.75725 -1.75778,1.40847 -1.94158,1.37373c-0.19313,-0.03651 0.44378,-1.14529 0.48192,-2.4224c0.0287,-0.96093 0.18527,-1.67367 0.40485,-1.89314c0.09715,-0.0971 0.82648,-0.85125 1.44117,-0.65808c0.57891,0.18933 0.89353,1.37792 0.80576,1.84231z" data-paper-data="{&quot;index&quot;:null}" fill="url(#color-41)"/><path d="M328.36794,203.41192c-0.08201,0.43392 -0.37108,0.773 -1.31136,2.10942c-0.65114,0.95666 -2.35668,3.40267 -2.57673,3.36107c-0.23123,-0.0437 -0.08882,-2.53796 -0.04316,-4.06693c0.01405,-0.47035 0.54104,-1.02997 0.83895,-1.47273c0.43075,-0.64021 0.69455,-1.10297 0.84996,-1.25829c0.11632,-0.11625 0.91608,-1.02163 1.65199,-0.79036c1.03931,0.32664 0.69543,1.56185 0.59035,2.11782z" data-paper-data="{&quot;index&quot;:null}" fill="url(#color-42)"/><path d="M331.0127,203.04637c-0.5738,0.5678 -1.30352,2.27013 -1.44135,2.24408c-0.14482,-0.02737 -0.2667,-0.9144 -0.2381,-1.87203c0.02152,-0.72053 -0.0652,-0.65908 -0.0246,-1.13548c0.07285,-0.07281 0.86796,-0.82211 1.32888,-0.67725c0.43408,0.14198 0.85796,0.96292 0.37516,1.44067z" data-paper-data="{&quot;index&quot;:null}" fill="url(#color-43)"/><path d="M332.57236,203.02391c-0.26871,0.07125 -0.31654,0.54377 -0.50858,0.92022c-0.35501,0.69597 -0.78442,1.3519 -0.87387,1.33499c-0.14482,-0.02737 -0.09328,-0.21829 -0.06468,-1.17593c0.02152,-0.72053 0.34818,-1.07122 0.80316,-1.64235c0.07285,-0.07281 0.84591,-1.02816 1.30682,-0.8833c0.43408,0.14198 -0.18006,0.9686 -0.66287,1.44636z" data-paper-data="{&quot;index&quot;:null}" fill="url(#color-44)"/><path d="M334.17277,203.69632c-0.13824,-0.02613 -0.48012,-1.73588 -0.44088,-1.94349c0.03924,-0.20761 1.34531,-0.85606 1.48354,-0.82994c0.11102,0.02098 -0.90443,2.79957 -1.04267,2.77344z" fill="url(#color-45)"/><path d="M306.49451,197.68936c0.48198,0.03336 0.94878,1.02116 0.99003,1.11553c-0.13607,0.45836 -0.19438,0.3695 -0.43733,1.04818c-0.32289,0.90201 -0.76008,1.68337 -0.90491,1.65599c-0.13783,-0.02605 -0.19588,-1.87727 -0.52287,-2.61534c-0.27514,-0.62102 0.41913,-1.23063 0.87509,-1.20436z" data-paper-data="{&quot;index&quot;:null}" fill="url(#color-46)"/><path d="M312.99332,198.75406c0.64278,0.04448 1.04657,1.01281 1.10158,1.13868c0.12435,0.28447 0.00998,1.00519 -0.31401,1.9103c-0.43061,1.20293 -0.2423,2.46769 -0.43545,2.43118c-0.18381,-0.03474 -0.87019,-1.00329 -1.30628,-1.98759c-0.36694,-0.8282 -0.53692,-1.70898 -0.46841,-2.07143c0.08777,-0.46438 0.81448,-1.45615 1.42257,-1.42113z" data-paper-data="{&quot;index&quot;:null}" fill="url(#color-47)"/><path d="M309.31185,197.75042c0.76956,0.05326 1.1837,1.18808 1.24957,1.33876c0.08801,0.20132 0.16472,0.72844 0.33209,1.48171c0.11576,0.52095 0.40215,1.23432 0.24356,1.67734c-0.51553,1.44017 -1.29328,3.81434 -1.5245,3.77064c-0.22006,-0.04159 -0.91521,-2.94133 -1.17228,-4.06966c-0.38765,-1.5874 -0.53304,-2.0086 -0.45103,-2.44252c0.10508,-0.55596 0.23575,-1.83148 1.32258,-1.75626z" data-paper-data="{&quot;index&quot;:null}" fill="url(#color-48)"/><path d="M304.15327,196.23071c0.48122,0.03744 0.867,1.13105 0.90942,1.2193c0.22395,0.65126 0.40561,1.06779 0.17236,1.69517c-0.31,0.83382 -0.329,1.01619 -0.47384,0.98881c-0.08945,-0.01691 -0.25971,-0.73212 -0.34642,-1.45563c-0.04691,-0.39136 0.07457,-0.81465 -0.15123,-0.9704c-0.28276,-0.58073 -0.56544,-1.50773 -0.11028,-1.47724z" data-paper-data="{&quot;index&quot;:null}" fill="url(#color-49)"/><path d="M302.22213,195.28683c0.13824,0.02613 1.11754,1.10653 1.0783,1.31414c-0.03924,0.20761 -0.98155,1.67466 -1.11979,1.64853c-0.13824,-0.02613 -0.06954,-2.98364 0.04149,-2.96266z" data-paper-data="{&quot;index&quot;:null}" fill="url(#color-50)"/><path d="M318.30463,208.30563c-0.19103,1.01071 -1.08173,1.44102 -1.36362,1.38774c-0.28189,-0.05328 -1.31409,-0.972 -1.12306,-1.98271c0.19103,-1.01071 1.64717,-3.50034 1.92906,-3.44706c0.28189,0.05328 0.74865,3.03133 0.55762,4.04204z" fill="url(#color-51)"/><path d="M315.3658,207.20531c0.11802,0.84844 -0.46634,1.40293 -0.70148,1.42791c-0.23514,0.02498 -1.28788,-0.45835 -1.4059,-1.30679c-0.11802,-0.84844 0.36406,-3.17373 0.5992,-3.19871c0.23514,-0.02498 1.39016,2.22915 1.50817,3.0776z" fill="url(#color-52)"/><path d="M320.74389,205.36432c0.22832,0.06543 0.35536,2.44386 0.11166,3.26075c-0.2437,0.81689 -1.35515,1.11136 -1.58346,1.04593c-0.22832,-0.06543 -0.72188,-0.71397 -0.47816,-1.53086c0.2437,-0.81689 1.72166,-2.84125 1.94997,-2.77582z" data-paper-data="{&quot;index&quot;:null}" fill="url(#color-53)"/><path d="M323.35673,205.52491c0.22832,0.06543 0.35536,2.44386 0.11166,3.26075c-0.24371,0.81689 -1.35515,1.11136 -1.58346,1.04593c-0.22832,-0.06543 -0.72188,-0.71397 -0.47816,-1.53085c0.2437,-0.81689 1.72166,-2.84125 1.94997,-2.77582z" data-paper-data="{&quot;index&quot;:null}" fill="url(#color-54)"/><path d="M312.94551,206.65985c-0.07125,0.84948 -0.76746,1.27315 -1.00391,1.25074c-0.23645,-0.02241 -1.16374,-0.70222 -1.0925,-1.5517c0.07125,-0.84948 1.0576,-3.01748 1.29404,-2.99507c0.23645,0.02241 0.8736,2.44655 0.80235,3.29603z" data-paper-data="{&quot;index&quot;:null}" fill="url(#color-55)"/><path d="M332.90992,204.50092c0.12773,0.05784 0.01231,1.7859 -0.08033,1.97665c-0.09263,0.19075 -1.53428,0.50692 -1.66201,0.44909c-0.1026,-0.04646 1.61461,-2.48357 1.74235,-2.42575z" data-paper-data="{&quot;index&quot;:null}" fill="url(#color-56)"/><path d="M330.71317,205.16882c0.12773,0.05784 0.01231,1.7859 -0.08033,1.97665c-0.03666,0.07548 -0.60055,0.44414 -0.89467,0.52795c-0.44916,0.128 -0.72961,-0.3013 -0.8068,-0.33625c-0.03995,-0.01809 0.39937,-0.23885 0.7172,-0.64568c0.49855,-0.63817 0.98659,-1.55798 1.0646,-1.52267z" data-paper-data="{&quot;index&quot;:null}" fill="url(#color-57)"/><path d="M328.25363,205.82871c0.12773,0.05784 0.01231,1.78589 -0.08033,1.97664c-0.05458,0.11237 -0.56722,0.7522 -1.0228,0.76464c-0.31774,0.00868 -0.61858,-0.5894 -0.67106,-0.61316c-0.1026,-0.04646 1.64646,-2.18596 1.77419,-2.12812z" data-paper-data="{&quot;index&quot;:null}" fill="url(#color-58)"/><path d="M303.82095,201.94546c-0.14003,0.00723 -1.36683,-0.81331 -1.38346,-1.02471c-0.01662,-0.21141 0.5066,-1.86239 0.64663,-1.86961c0.14003,-0.00723 0.8493,2.88852 0.73682,2.89432z" data-paper-data="{&quot;index&quot;:null}" fill="url(#color-59)"/><path d="M305.321,202.28088c0.14742,0.49477 0.47586,0.86064 0.43206,0.8629c-0.08463,0.00436 -0.5024,0.3017 -0.87387,0.01861c-0.24324,-0.18538 -0.63369,-0.73441 -0.64027,-0.81806c-0.01662,-0.21141 0.5066,-1.8624 0.64664,-1.86961c0.08551,-0.0044 0.20418,1.03006 0.43543,1.80618z" data-paper-data="{&quot;index&quot;:null}" fill="url(#color-60)"/><path d="M307.80971,204.6156c-0.05754,0.00296 -0.55592,0.44998 -0.84857,0.32594c-0.41961,-0.17785 -0.66338,-0.96064 -0.67318,-1.08518c-0.01662,-0.21141 0.5066,-1.86239 0.64664,-1.86961c0.14003,-0.00723 0.98757,2.62305 0.87509,2.62885z" data-paper-data="{&quot;index&quot;:null}" fill="url(#color-61)"/></g><path d="M306.65202,147.84533c-0.30229,1.59936 -10.66525,5.48256 -11.93374,5.24281c-1.26851,-0.23976 -0.86186,-12.4602 0.40663,-12.22045c1.26851,0.23976 11.8294,5.37829 11.52711,6.97764z" fill="url(#color-62)" stroke="#000000" stroke-width="0"/><path d="M361.92342,153.12834c1.26851,0.23976 -2.81305,11.76562 -4.08156,11.52587c-1.26851,-0.23976 -9.49935,-7.63729 -9.19705,-9.23665c0.30228,-1.59935 12.0101,-2.52897 13.2786,-2.28922z" data-paper-data="{&quot;index&quot;:null}" fill="url(#color-63)" stroke="#000000" stroke-width="0"/></g></g><path d="M275.9303,221.94v-83.87989h88.13942v83.87989z" fill="none" stroke="#ffffff" stroke-width="1.5"/></g></g></svg>