<svg version="1.1" xmlns="http://www.w3.org/2000/svg" xmlns:xlink="http://www.w3.org/1999/xlink" width="170.77814" height="346.00057" viewBox="0,0,170.77814,346.00057"><defs><linearGradient x1="352.80179" y1="112.36743" x2="352.80179" y2="167.0758" gradientUnits="userSpaceOnUse" id="color-1"><stop offset="0" stop-color="#c4b6ae"/><stop offset="1" stop-color="#58514d"/></linearGradient><linearGradient x1="243.84145" y1="186.47337" x2="243.84145" y2="200.4583" gradientUnits="userSpaceOnUse" id="color-2"><stop offset="0" stop-color="#c4b6ae"/><stop offset="1" stop-color="#897e77"/></linearGradient><linearGradient x1="244.41288" y1="187.75908" x2="244.41288" y2="201.74401" gradientUnits="userSpaceOnUse" id="color-3"><stop offset="0" stop-color="#c4b6ae"/><stop offset="1" stop-color="#897e77"/></linearGradient><linearGradient x1="245.55574" y1="189.75908" x2="245.55574" y2="203.74401" gradientUnits="userSpaceOnUse" id="color-4"><stop offset="0" stop-color="#c4b6ae"/><stop offset="1" stop-color="#897e77"/></linearGradient><linearGradient x1="264.56395" y1="191.73172" x2="264.56395" y2="207.46572" gradientUnits="userSpaceOnUse" id="color-5"><stop offset="0" stop-color="#c4b6ae"/><stop offset="1" stop-color="#897e77"/></linearGradient><linearGradient x1="279.46725" y1="107.1364" x2="279.46725" y2="190.51743" gradientUnits="userSpaceOnUse" id="color-6"><stop offset="0" stop-color="#c4b6ae"/><stop offset="1" stop-color="#7d736d"/></linearGradient><linearGradient x1="313.23234" y1="97.71618" x2="313.23234" y2="324.95122" gradientUnits="userSpaceOnUse" id="color-7"><stop offset="0" stop-color="#c4b6ae"/><stop offset="1" stop-color="#716762"/></linearGradient><linearGradient x1="328.48207" y1="98.25255" x2="328.48207" y2="164.08593" gradientUnits="userSpaceOnUse" id="color-8"><stop offset="0" stop-color="#c4b6ae"/><stop offset="1" stop-color="#897e77"/></linearGradient><radialGradient cx="299.89453" cy="142.28238" r="9.0277" gradientUnits="userSpaceOnUse" id="color-9"><stop offset="0" stop-color="#000000" stop-opacity="0"/><stop offset="1" stop-color="#000000" stop-opacity="0.15294"/></radialGradient><radialGradient cx="325.51298" cy="140.08912" r="10.12149" gradientUnits="userSpaceOnUse" id="color-10"><stop offset="0" stop-color="#000000" stop-opacity="0"/><stop offset="1" stop-color="#000000" stop-opacity="0.15294"/></radialGradient><linearGradient x1="306.49066" y1="104.84296" x2="314.85787" y2="130.09364" gradientUnits="userSpaceOnUse" id="color-11"><stop offset="0" stop-color="#0b0913"/><stop offset="1" stop-color="#221b39"/></linearGradient><linearGradient x1="304.01647" y1="99.9039" x2="304.01647" y2="126.50478" gradientUnits="userSpaceOnUse" id="color-12"><stop offset="0" stop-color="#0b0913"/><stop offset="1" stop-color="#221b39"/></linearGradient><linearGradient x1="302.4946" y1="118.40596" x2="307.22419" y2="120.9597" gradientUnits="userSpaceOnUse" id="color-13"><stop offset="0" stop-color="#080715" stop-opacity="0"/><stop offset="1" stop-color="#080715"/></linearGradient><linearGradient x1="288.43124" y1="103.35105" x2="313.76457" y2="103.35105" gradientUnits="userSpaceOnUse" id="color-14"><stop offset="0" stop-color="#221b39"/><stop offset="1" stop-color="#110f34"/></linearGradient><linearGradient x1="334.78057" y1="118.21368" x2="317.4555" y2="99.73073" gradientUnits="userSpaceOnUse" id="color-15"><stop offset="0" stop-color="#221b39"/><stop offset="1" stop-color="#110f34"/></linearGradient><radialGradient cx="310.96578" cy="104.6448" r="5.97444" gradientUnits="userSpaceOnUse" id="color-16"><stop offset="0" stop-color="#241e46"/><stop offset="1" stop-color="#131031"/></radialGradient><linearGradient x1="297.05161" y1="107.7599" x2="297.05161" y2="113.1349" gradientUnits="userSpaceOnUse" id="color-17"><stop offset="0" stop-color="#080715" stop-opacity="0"/><stop offset="1" stop-color="#080715"/></linearGradient><linearGradient x1="323.20265" y1="113.77501" x2="320.37969" y2="118.94966" gradientUnits="userSpaceOnUse" id="color-18"><stop offset="0" stop-color="#080715" stop-opacity="0"/><stop offset="1" stop-color="#080715"/></linearGradient><linearGradient x1="313.34624" y1="122.71552" x2="315.96579" y2="123.55855" gradientUnits="userSpaceOnUse" id="color-19"><stop offset="0" stop-color="#080715" stop-opacity="0"/><stop offset="1" stop-color="#080715"/></linearGradient><linearGradient x1="285.61257" y1="13.86907" x2="285.61257" y2="46.92622" gradientUnits="userSpaceOnUse" id="color-20"><stop offset="0" stop-color="#c4b6ae"/><stop offset="1" stop-color="#58514d"/></linearGradient><linearGradient x1="279.30764" y1="23.92521" x2="285.24009" y2="32.42929" gradientUnits="userSpaceOnUse" id="color-21"><stop offset="0" stop-color="#a24435"/><stop offset="1" stop-color="#b14e43"/></linearGradient><linearGradient x1="327.78312" y1="8.28979" x2="327.78312" y2="42.95369" gradientUnits="userSpaceOnUse" id="color-22"><stop offset="0" stop-color="#c4b6ae"/><stop offset="1" stop-color="#58514d"/></linearGradient><linearGradient x1="332.41549" y1="19.59186" x2="326.26724" y2="28.09596" gradientUnits="userSpaceOnUse" id="color-23"><stop offset="0" stop-color="#b74d3c"/><stop offset="1" stop-color="#b14e43"/></linearGradient><linearGradient x1="312.13225" y1="34.95969" x2="312.13225" y2="105.08414" gradientUnits="userSpaceOnUse" id="color-24"><stop offset="0" stop-color="#c4b6ae"/><stop offset="1" stop-color="#7f756f"/></linearGradient><radialGradient cx="314.22586" cy="86.69665" r="3.16667" gradientUnits="userSpaceOnUse" id="color-25"><stop offset="0" stop-color="#000000" stop-opacity="0.64314"/><stop offset="1" stop-color="#000000" stop-opacity="0"/></radialGradient><linearGradient x1="322.93247" y1="70.41398" x2="322.93247" y2="86.60238" gradientUnits="userSpaceOnUse" id="color-26"><stop offset="0" stop-color="#b2a59e"/><stop offset="1" stop-color="#7f756f"/></linearGradient><linearGradient x1="301.60506" y1="70.71751" x2="301.60506" y2="88.2235" gradientUnits="userSpaceOnUse" id="color-27"><stop offset="0" stop-color="#b2a59e"/><stop offset="1" stop-color="#7f756f"/></linearGradient><linearGradient x1="286.95459" y1="64.49973" x2="306.68643" y2="62.96327" gradientUnits="userSpaceOnUse" id="color-28"><stop offset="0" stop-color="#770806"/><stop offset="1" stop-color="#ec0604"/></linearGradient><linearGradient x1="305.05572" y1="67.75889" x2="307.02108" y2="67.60586" gradientUnits="userSpaceOnUse" id="color-29"><stop offset="0" stop-color="#000000" stop-opacity="0"/><stop offset="1" stop-color="#000000" stop-opacity="0.57255"/></linearGradient><linearGradient x1="336.42392" y1="59.45202" x2="316.71178" y2="61.22335" gradientUnits="userSpaceOnUse" id="color-30"><stop offset="0" stop-color="#770806"/><stop offset="1" stop-color="#ec0604"/></linearGradient><linearGradient x1="319.11843" y1="65.6804" x2="317.15503" y2="65.85684" gradientUnits="userSpaceOnUse" id="color-31"><stop offset="0" stop-color="#000000" stop-opacity="0"/><stop offset="1" stop-color="#000000" stop-opacity="0.57255"/></linearGradient><radialGradient cx="311.84262" cy="66.50203" r="4.45588" gradientUnits="userSpaceOnUse" id="color-32"><stop offset="0" stop-color="#483b31" stop-opacity="0"/><stop offset="1" stop-color="#483b31"/></radialGradient><linearGradient x1="294.2134" y1="47.82666" x2="294.2134" y2="52.0122" gradientUnits="userSpaceOnUse" id="color-33"><stop offset="0" stop-color="#c4b6ae"/><stop offset="1" stop-color="#68605c"/></linearGradient><linearGradient x1="323.79673" y1="44.21554" x2="323.79673" y2="48.40109" gradientUnits="userSpaceOnUse" id="color-34"><stop offset="0" stop-color="#c4b6ae"/><stop offset="1" stop-color="#68605c"/></linearGradient><linearGradient x1="314.27418" y1="84.65321" x2="314.27418" y2="86.31988" gradientUnits="userSpaceOnUse" id="color-35"><stop offset="0" stop-color="#615141" stop-opacity="0.64314"/><stop offset="1" stop-color="#5c463d" stop-opacity="0.44314"/></linearGradient><linearGradient x1="269.40727" y1="13.6483" x2="269.40727" y2="61.53572" gradientUnits="userSpaceOnUse" id="color-36"><stop offset="0" stop-color="#c4b6ae"/><stop offset="1" stop-color="#58514d"/></linearGradient><linearGradient x1="343.05994" y1="6.99971" x2="343.05994" y2="54.97331" gradientUnits="userSpaceOnUse" id="color-37"><stop offset="0" stop-color="#c4b6ae"/><stop offset="1" stop-color="#58514d"/></linearGradient><linearGradient x1="289.55414" y1="166.12073" x2="289.55414" y2="201.17394" gradientUnits="userSpaceOnUse" id="color-38"><stop offset="0" stop-color="#7d7d7d"/><stop offset="1" stop-color="#665f5b"/></linearGradient><radialGradient cx="304.51409" cy="198.2399" r="7.36082" gradientUnits="userSpaceOnUse" id="color-39"><stop offset="0" stop-color="#000000" stop-opacity="0"/><stop offset="1" stop-color="#000000" stop-opacity="0.15294"/></radialGradient><radialGradient cx="316.59212" cy="197.90656" r="9.06262" gradientUnits="userSpaceOnUse" id="color-40"><stop offset="0" stop-color="#000000" stop-opacity="0"/><stop offset="1" stop-color="#000000" stop-opacity="0.15294"/></radialGradient><linearGradient x1="330.25716" y1="172.57725" x2="330.25716" y2="240.0698" gradientUnits="userSpaceOnUse" id="color-41"><stop offset="0" stop-color="#523128"/><stop offset="1" stop-color="#471918"/></linearGradient><linearGradient x1="273.27064" y1="314.7052" x2="273.27064" y2="346.9552" gradientUnits="userSpaceOnUse" id="color-42"><stop offset="0" stop-color="#887f79"/><stop offset="1" stop-color="#716964"/></linearGradient><linearGradient x1="263.92665" y1="336.7052" x2="263.92665" y2="352.2052" gradientUnits="userSpaceOnUse" id="color-43"><stop offset="0" stop-color="#887f79"/><stop offset="1" stop-color="#716964"/></linearGradient><linearGradient x1="283.52538" y1="335.7052" x2="283.52538" y2="351.2052" gradientUnits="userSpaceOnUse" id="color-44"><stop offset="0" stop-color="#887f79"/><stop offset="1" stop-color="#716964"/></linearGradient><linearGradient x1="274.52364" y1="334.7052" x2="274.52364" y2="353.00028" gradientUnits="userSpaceOnUse" id="color-45"><stop offset="0" stop-color="#887f79"/><stop offset="1" stop-color="#716964"/></linearGradient><linearGradient x1="353.42962" y1="314.45518" x2="353.42962" y2="346.70519" gradientUnits="userSpaceOnUse" id="color-46"><stop offset="0" stop-color="#7a706c"/><stop offset="1" stop-color="#665d58"/></linearGradient><linearGradient x1="362.77361" y1="336.4552" x2="362.77361" y2="351.9552" gradientUnits="userSpaceOnUse" id="color-47"><stop offset="0" stop-color="#7a706c"/><stop offset="1" stop-color="#665d58"/></linearGradient><linearGradient x1="343.17488" y1="335.4552" x2="343.17488" y2="350.9552" gradientUnits="userSpaceOnUse" id="color-48"><stop offset="0" stop-color="#7a706c"/><stop offset="1" stop-color="#665d58"/></linearGradient><linearGradient x1="352.17663" y1="334.4552" x2="352.17663" y2="352.75028" gradientUnits="userSpaceOnUse" id="color-49"><stop offset="0" stop-color="#7a706c"/><stop offset="1" stop-color="#665d58"/></linearGradient><linearGradient x1="256.78627" y1="182.96004" x2="256.78627" y2="196.95468" gradientUnits="userSpaceOnUse" id="color-50"><stop offset="0" stop-color="#c4b6ae"/><stop offset="1" stop-color="#837973"/></linearGradient><linearGradient x1="383.54875" y1="120.43175" x2="383.54875" y2="161.9367" gradientUnits="userSpaceOnUse" id="color-51"><stop offset="0" stop-color="#523128"/><stop offset="1" stop-color="#471918"/></linearGradient></defs><g transform="translate(-234.61093,-6.99971)"><g data-paper-data="{&quot;isPaintingLayer&quot;:true}" fill-rule="nonzero" stroke-linecap="butt" stroke-linejoin="miter" stroke-miterlimit="10" stroke-dasharray="" stroke-dashoffset="0" style="mix-blend-mode: normal"><path d="M356.54457,147.73583c0,5.13151 9.81343,-12.43166 10.25623,-7.16484c0.46931,5.58221 6.505,14.33565 1.99318,20.02777c-2.06149,2.60078 -7.10327,6.7064 -14.6494,6.46702c-2.36376,-0.07498 -8.57925,-5.91638 -12.55836,-13.5256c-4.38533,-8.38603 -6.44164,-18.8282 -6.44164,-25.67289c0,-13.05534 6.02943,-15.49986 11,-15.49986c4.97057,0 10.4,22.31307 10.4,35.36841z" fill="url(#color-1)" stroke="none" stroke-width="0"/><path d="M253.07196,192.16029c0,1.10457 -13.20616,7.79495 -14.78571,8.14285c-5.18884,1.14285 -3.83486,-4.35129 -2.24233,-5.89104c3.10692,-3.00396 10.68381,-7.34814 13.17011,-7.92153c0.59931,-0.13822 2.14695,0.57342 2.77666,1.53597c1.05444,1.61177 1.08128,3.92707 1.08128,4.13374z" fill="url(#color-2)" stroke="none" stroke-width="0"/><path d="M253.64339,193.446c0,1.10457 -13.20616,7.79495 -14.78571,8.14285c-5.18884,1.14285 -3.83485,-4.35129 -2.24233,-5.89104c3.10692,-3.00396 10.6838,-7.34814 13.1701,-7.92153c0.59931,-0.13822 2.14695,0.57342 2.77666,1.53597c1.05444,1.61177 1.08128,3.92707 1.08128,4.13374z" fill="url(#color-3)" stroke="none" stroke-width="0"/><path d="M254.78625,195.446c0,1.10457 -13.20616,7.79495 -14.78571,8.14285c-5.18884,1.14285 -3.83485,-4.35129 -2.24233,-5.89104c3.10692,-3.00396 10.6838,-7.34814 13.1701,-7.92153c0.59931,-0.13822 2.14695,0.57342 2.77666,1.53597c1.05444,1.61177 1.08128,3.92707 1.08128,4.13374z" fill="url(#color-4)" stroke="none" stroke-width="0"/><path d="M259.98171,195.22805c0.78697,-2.3892 3.76875,-3.49633 5.09025,-3.49633c6.25816,0 3.57143,3.73952 3.57143,8c0,4.26048 2.10771,8.04091 -3.57143,7.71428c-5.82896,-0.33525 -4.14285,-3.4538 -4.14285,-7.71428c0,-1.40605 -1.33504,-3.32679 -0.9474,-4.50367z" fill="url(#color-5)" stroke="none" stroke-width="0"/><path d="M290.67911,143.76743c0,2.50086 -2.47052,5.08548 -3.2826,8.09247c-4.47839,16.5827 -17.3442,38.65753 -20.9674,38.65753c-2.05969,0 -7.4162,-3.57393 -4.11902,-13.24796c1.49077,-4.37397 2.33721,-10.97271 4.61383,-16.34533c2.68216,-6.32966 3.7674,-9.69246 7.7423,-16.28344c0.18483,-0.30649 3.43464,-4.82106 4.13007,-5.30355c0.98475,-0.68323 -0.61718,2.60889 -0.61718,2.18028c0,-9.93932 0.82614,-18.91665 2.44224,-24.4066c1.03299,-3.5091 2.38873,-5.5934 4.05776,-5.5934c2.07466,0 11.25258,-7.7795 12.94625,-2.60515c0.35357,1.0802 -1.42964,6.83232 -1.30956,8.21074c0.49142,5.6411 -5.63668,19.89767 -5.63668,26.64441z" fill="url(#color-6)" stroke="none" stroke-width="0"/><path d="M335.71515,138.62408c0,1.68562 0.89819,4.69367 0.14101,8.11825c-0.75293,3.40538 -2.7231,8.77196 -2.47967,14.4861c0.14222,3.33841 2.22561,7.32238 2.61645,9.71106c2.23807,13.67828 7.92246,21.98851 9.38839,38.54123c1.44788,16.34891 1.90978,33.02419 0.21038,43.69443c-0.4986,3.13066 5.77697,12.00079 8.65357,17.4002c1.74755,3.28016 1.91691,9.80005 3.62086,18.12079c3.07687,15.02499 6.28834,29.86129 4.76567,29.86129c-1.07153,0 -10.78941,7.4555 -15.31686,3.47056c-0.16051,-0.14128 -3.15308,-7.75927 -6.28871,-17.34114c-0.39812,-1.21659 0.19752,-2.46287 -0.20962,-3.72654c-4.72591,-14.66839 -10.8252,-31.6801 -10.8751,-31.79436c-0.6599,-1.51105 -1.18583,-5.32546 -2.86007,-9.30842c-3.34253,-7.95177 -8.87337,-18.964 -12.46426,-30.38106c-2.98176,-9.48036 -3.34482,-20.52093 -4.44807,-25.87875c-2.69074,-13.06727 6.44221,0.76442 0.11964,-0.70231c-3.68365,-0.85455 1.32055,-5.77762 -0.32438,-0.14628c-3.71404,12.71488 -11.27328,45.08618 -15.72678,56.92271c-0.30991,0.82368 -13.39133,62.09344 -14.00182,62.62962c-4.1219,3.62021 -16.52773,5.74187 -16.79339,-8.8728c-0.01539,-0.84672 1.56167,-8.29832 3.56181,-17.40589c1.2199,-5.55476 -1.41284,-12.12777 -0.13345,-17.78947c2.51683,-11.13781 7.47414,-20.38731 7.45883,-20.52159c-0.05968,-0.5235 -0.10608,-25.44915 3.79418,-51.64074c1.91233,-12.84195 7.68554,-26.22218 10.49005,-35.65593c2.12852,-7.15987 1.55772,-11.76382 2.00868,-13.76743c1.0599,-4.70912 0.34263,-10.54713 0.34263,-11.0235c0,-2.55523 -6.57725,-2.65877 -6.27144,-12.24742c0.33202,-10.41106 6.12687,-13.20338 5.32453,-16.2304c-1.13242,-4.27231 -9.20841,-2.27012 -8.78797,-3.78422c2.71908,-9.79187 9.58456,-10.86967 19.54908,-11.5296c4.41326,-0.29229 11.84595,-1.70837 15.68581,-1.70837c3.64547,0 4.73911,-3.02769 8.73127,-2.29297c3.28267,0.60415 7.91575,5.88572 12.87164,5.72803c5.0378,-0.1603 8.46814,4.15175 9.09707,5.92363c1.49708,4.21769 -2.10539,4.33258 -5.86784,8.00212c-0.79841,0.77869 -2.32025,0.28501 -3.00399,1.62078c-1.50153,2.93343 -2.57815,16.83003 -2.57815,19.51842z" fill="url(#color-7)" stroke="none" stroke-width="0"/><path d="M336.67385,145.10104c0,5.07206 -1.9175,11.95745 -2.55781,15.28997c-0.53857,2.80303 0.78207,2.97004 0.1061,3.41417c-1.24539,0.81824 -4.38457,-0.41248 -5.75068,-0.41248c-4.85582,0 -7.01585,-6.02106 -11.82373,-12.74637c-4.15687,-5.81468 -8.38461,-14.24505 -8.38461,-20.0453c0,-12.52634 9.01352,-29.60128 15.8694,-33.06849c1.35592,-0.68573 7.42695,4.06928 8.73179,4.14587c3.64813,0.21415 7.91068,1.47115 10.76638,3.53524c2.14504,1.55043 4.28187,5.33358 4.95506,7.19299c0.78479,2.16766 -2.54974,3.92909 -6.59416,6.48644c-1.47811,0.93463 -1.5281,-1.03837 -2.52785,0.71471c-0.92242,1.61748 -0.9654,1.33866 -0.68399,4.69521c0.24062,2.87017 -1.59944,12.88798 -2.23158,17.87881c-0.17626,1.3916 0.12567,2.62294 0.12567,2.91923z" fill="url(#color-8)" stroke="#463a2f" stroke-width="0.45"/><path d="M308.92222,137.45613c0,0.76916 -1.13383,4.22546 -3.49897,7.05531c-1.78379,2.13428 -4.94495,2.7832 -5.03809,2.7832c-4.06456,0 -9.51834,-1.15537 -9.51834,-2.58059c0,-1.42521 1.09693,1.35482 8.57632,0.58064c1.30445,-0.13502 4.0521,-1.15199 5.42021,-2.41796c2.86138,-2.64777 4.05888,-6.38479 4.05888,-5.42059z" fill="url(#color-9)" stroke="none" stroke-width="0"/><path d="M314.28442,139.06632c-0.39795,-1.03118 2.36964,2.41645 6.39004,3.93636c1.92228,0.72672 5.15325,0.55467 6.54362,0.10106c7.97204,-2.60091 7.94696,-6.07694 8.53519,-4.55271c0.58823,1.52423 -4.51494,5.26009 -8.67358,7.12346c-0.0953,0.0427 -3.59746,0.79792 -6.3034,-0.66684c-3.58783,-1.94213 -6.17442,-5.11873 -6.49187,-5.94132z" data-paper-data="{&quot;index&quot;:null}" fill="url(#color-10)" stroke="none" stroke-width="0"/><path d="M311.42498,117.71303c-1.87023,0 -3.38636,-0.25184 -3.38636,-0.5625c0,-0.31066 1.51613,-0.5625 3.38636,-0.5625c1.87023,0 3.38636,0.25184 3.38636,0.5625c0,0.31066 -1.51613,0.5625 -3.38636,0.5625z" fill="#7c604c" stroke="none" stroke-width="NaN"/><path d="M312.92619,113.69923c-1.82439,-0.41156 -3.24793,-0.99087 -3.17957,-1.29391c0.06837,-0.30305 1.60275,-0.21507 3.42714,0.19649c1.82439,0.41156 3.24793,0.99087 3.17957,1.29391c-0.06837,0.30304 -1.60275,0.21507 -3.42714,-0.19649z" fill="#7c604c" stroke="none" stroke-width="NaN"/><path d="M310.27246,120.44923c-1.01954,-0.41156 -1.81509,-0.99087 -1.77688,-1.29391c0.0382,-0.30305 0.89568,-0.21507 1.91523,0.19649c1.01955,0.41156 1.8151,0.99087 1.77689,1.29391c-0.03821,0.30304 -0.89569,0.21507 -1.91524,-0.19649z" fill="#7c604c" stroke="none" stroke-width="NaN"/><path d="M312.35581,115.03257c-1.01954,-0.41156 -1.81509,-0.99087 -1.77688,-1.29391c0.0382,-0.30305 0.89568,-0.21507 1.91523,0.19649c1.01954,0.41156 1.81509,0.99087 1.77688,1.29391c-0.0382,0.30304 -0.89568,0.21507 -1.91523,-0.19649z" fill="#7c604c" stroke="none" stroke-width="NaN"/><path d="M307.4679,122.36902c0.13081,-0.27602 1.11307,-0.33643 2.19392,-0.13493c1.08086,0.2015 1.85104,0.5886 1.72023,0.86461c-0.13081,0.27602 -1.11307,0.33643 -2.19393,0.13493c-1.08086,-0.2015 -1.85103,-0.5886 -1.72022,-0.86461z" data-paper-data="{&quot;index&quot;:null}" fill="#7c604c" stroke="none" stroke-width="NaN"/><path d="M306.4679,124.28568c0.13081,-0.27602 1.11307,-0.33643 2.19392,-0.13493c1.08086,0.2015 1.85104,0.5886 1.72023,0.86462c-0.13081,0.27602 -1.11307,0.33642 -2.19393,0.13492c-1.08086,-0.2015 -1.85103,-0.5886 -1.72022,-0.86461z" data-paper-data="{&quot;index&quot;:null}" fill="#7c604c" stroke="none" stroke-width="NaN"/><path d="M306.45381,132.01271c0.03587,-0.30333 0.94748,-0.67407 2.03612,-0.82808c1.08864,-0.15401 1.94209,-0.03296 1.90621,0.27036c-0.03587,0.30333 -0.94748,0.67407 -2.03612,0.82808c-1.08864,0.15401 -1.94208,0.03296 -1.90621,-0.27036z" data-paper-data="{&quot;index&quot;:null}" fill="#7c604c" stroke="none" stroke-width="NaN"/><path d="M306.87048,133.76271c0.03587,-0.30333 0.94748,-0.67407 2.03612,-0.82808c1.08864,-0.15401 1.94208,-0.03296 1.90621,0.27036c-0.03587,0.30333 -0.94748,0.67407 -2.03612,0.82808c-1.08864,0.15401 -1.94208,0.03296 -1.90621,-0.27036z" data-paper-data="{&quot;index&quot;:null}" fill="#7c604c" stroke="none" stroke-width="NaN"/><path d="M307.70367,136.05546c0.03133,-0.26488 0.82738,-0.58862 1.77803,-0.72311c0.95065,-0.13449 1.69591,-0.02879 1.66458,0.23609c-0.03133,0.26488 -0.82738,0.58863 -1.77803,0.72312c-0.95065,0.13449 -1.69591,0.02878 -1.66458,-0.2361z" data-paper-data="{&quot;index&quot;:null}" fill="#7c604c" stroke="none" stroke-width="NaN"/><path d="M309.61596,140.435c0.09882,-0.24775 0.95154,-0.35443 1.9046,-0.2383c0.95306,0.11613 1.64558,0.41111 1.54676,0.65886c-0.09882,0.24775 -0.95153,0.35443 -1.90459,0.2383c-0.95306,-0.11613 -1.64558,-0.41111 -1.54676,-0.65886z" data-paper-data="{&quot;index&quot;:null}" fill="#7c604c" stroke="none" stroke-width="NaN"/><path d="M312.27055,143.09387c-0.95306,0.11613 -1.80577,0.00944 -1.90459,-0.2383c-0.09882,-0.24775 0.5937,-0.54273 1.54676,-0.65886c0.95306,-0.11613 1.80578,-0.00944 1.9046,0.2383c0.09882,0.24775 -0.59371,0.54273 -1.54677,0.65886z" data-paper-data="{&quot;index&quot;:null}" fill="#7c604c" stroke="none" stroke-width="NaN"/><path d="M313.18722,144.76054c-0.95306,0.11613 -1.80577,0.00944 -1.90459,-0.2383c-0.09882,-0.24775 0.5937,-0.54273 1.54676,-0.65886c0.95306,-0.11613 1.80578,-0.00944 1.90459,0.2383c0.09882,0.24775 -0.5937,0.54273 -1.54676,0.65886z" data-paper-data="{&quot;index&quot;:null}" fill="#7c604c" stroke="none" stroke-width="NaN"/><path d="M315.68722,149.76054c-0.95306,0.11613 -1.80577,0.00944 -1.90459,-0.2383c-0.09882,-0.24775 0.5937,-0.54273 1.54676,-0.65886c0.95306,-0.11613 1.80578,-0.00944 1.90459,0.2383c0.09882,0.24775 -0.5937,0.54273 -1.54676,0.65886z" data-paper-data="{&quot;index&quot;:null}" fill="#7c604c" stroke="none" stroke-width="NaN"/><path d="M316.77055,151.51054c-0.95306,0.11613 -1.80577,0.00944 -1.90459,-0.2383c-0.09882,-0.24775 0.5937,-0.54273 1.54676,-0.65886c0.95306,-0.11613 1.80578,-0.00944 1.9046,0.2383c0.09882,0.24775 -0.59371,0.54273 -1.54677,0.65886z" data-paper-data="{&quot;index&quot;:null}" fill="#7c604c" stroke="none" stroke-width="NaN"/><path d="M318.07593,153.25909c-0.86052,0.4258 -1.70032,0.60812 -1.87575,0.4072c-0.17543,-0.20092 0.37996,-0.70899 1.24049,-1.13479c0.86052,-0.4258 1.70033,-0.60812 1.87576,-0.40721c0.17543,0.20092 -0.37997,0.70899 -1.2405,1.13479z" data-paper-data="{&quot;index&quot;:null}" fill="#7c604c" stroke="none" stroke-width="NaN"/><path d="M317.44082,154.43995c0.08605,-0.25246 0.93222,-0.40249 1.88997,-0.33511c0.95774,0.06738 1.6644,0.32667 1.57834,0.57913c-0.08605,0.25246 -0.93221,0.40249 -1.88996,0.33511c-0.95774,-0.06738 -1.6644,-0.32667 -1.57835,-0.57913z" data-paper-data="{&quot;index&quot;:null}" fill="#7c604c" stroke="none" stroke-width="NaN"/><path d="M319.94082,158.10661c0.08605,-0.25246 0.93222,-0.40249 1.88997,-0.33511c0.95774,0.06738 1.6644,0.32667 1.57834,0.57913c-0.08605,0.25246 -0.93221,0.40249 -1.88996,0.33511c-0.95774,-0.06738 -1.6644,-0.32667 -1.57835,-0.57913z" data-paper-data="{&quot;index&quot;:null}" fill="#7c604c" stroke="none" stroke-width="NaN"/><path d="M333.93719,165.44429c-0.23057,-0.10883 -0.29858,-0.96519 -0.15192,-1.91272c0.14666,-0.94753 0.45247,-1.62745 0.68304,-1.51861c0.23057,0.10883 0.29858,0.96518 0.15192,1.91272c-0.14666,0.94753 -0.45247,1.62745 -0.68304,1.51862z" data-paper-data="{&quot;index&quot;:null}" fill="#7c604c" stroke="none" stroke-width="NaN"/><path d="M332.21464,165.69429c-0.14644,-0.10883 -0.18964,-0.96519 -0.09649,-1.91272c0.09314,-0.94753 0.28738,-1.62745 0.43382,-1.51861c0.14644,0.10883 0.18963,0.96518 0.09649,1.91272c-0.09314,0.94753 -0.28737,1.62745 -0.43381,1.51862z" data-paper-data="{&quot;index&quot;:null}" fill="#7c604c" stroke="none" stroke-width="NaN"/><path d="M330.63131,165.44429c-0.14644,-0.10883 -0.18964,-0.96519 -0.09649,-1.91272c0.09314,-0.94753 0.28737,-1.62745 0.43381,-1.51861c0.14644,0.10883 0.18964,0.96518 0.09649,1.91272c-0.09314,0.94753 -0.28737,1.62745 -0.43381,1.51862z" data-paper-data="{&quot;index&quot;:null}" fill="#7c604c" stroke="none" stroke-width="NaN"/><path d="M325.26252,164.17888c-0.09618,-0.15504 0.17839,-0.96733 0.61328,-1.8143c0.43489,-0.84697 0.86543,-1.40791 0.96162,-1.25287c0.09618,0.15504 -0.17839,0.96733 -0.61328,1.8143c-0.43489,0.84697 -0.86543,1.40792 -0.96162,1.25287z" data-paper-data="{&quot;index&quot;:null}" fill="#7c604c" stroke="none" stroke-width="NaN"/><path d="M326.09585,164.76221c-0.09618,-0.15504 0.1784,-0.96733 0.61329,-1.8143c0.43489,-0.84697 0.86543,-1.40791 0.96162,-1.25287c0.09618,0.15504 -0.1784,0.96733 -0.61329,1.8143c-0.43489,0.84697 -0.86543,1.40792 -0.96162,1.25287z" data-paper-data="{&quot;index&quot;:null}" fill="#7c604c" stroke="none" stroke-width="NaN"/><g stroke="none" stroke-width="0"><path d="M306.4958,106.35297c0.56421,0.07306 8.07624,-0.23363 9.47626,2.34891c0.99644,1.83808 0.78323,4.91906 0.66197,7.79833c-0.1925,4.57083 -0.72332,9.20337 -0.13566,11.86866c0.68831,3.1218 -8.72996,5.26445 -9.66525,4.21085c-0.56926,-0.64127 -0.49492,-5.16544 -0.30302,-8.36354c0.21157,-3.52601 2.06866,-7.4584 1.92307,-10.10501c-0.1182,-2.14864 -2.80928,-2.39471 -3.25059,-4.39626c-1.47796,-6.70315 -0.31004,-3.56956 1.29323,-3.36194z" fill="url(#color-11)"/><path d="M303.54637,101.33888c0.51259,0.24683 6.476,2.95329 6.99264,5.84511c0.95144,5.3256 -3.96556,13.77458 -4.4228,18.19959c-0.32858,3.17986 -8.00776,1.18057 -8.56417,-0.11375c-0.33866,-0.78778 -0.30541,-3.83095 0.8827,-6.80637c1.30992,-3.28049 3.83505,-6.58641 4.52933,-9.14447c0.56364,-2.07676 -1.91343,-3.15681 -1.70277,-5.19558c0.70551,-6.8278 0.82849,-3.48591 2.28508,-2.78452z" fill="url(#color-12)"/><path d="M308.40184,112.85902c0.45869,-0.79334 -0.66958,4.33423 -1.7731,8.57134c-0.68381,2.62559 -1.04423,4.9569 -1.95935,5.18174c-1.30201,0.3199 -2.44469,-0.29892 -2.91206,-1.1272c-0.43242,-0.76636 0.81203,-3.63056 2.82637,-6.18299c1.86906,-2.36834 2.91436,-4.87974 3.81814,-6.44289z" data-paper-data="{&quot;index&quot;:null}" fill="url(#color-13)"/><path d="M313.01457,104.60105c0,3.22166 -14.17106,10.95833 -21.16667,10.95833c-6.99561,0 -3.04167,-16.23667 -1.16667,-18.95833c1.28196,-1.86083 6.69582,-0.74593 12.0793,0.98161c2.29184,0.73544 4.37349,2.81006 6.46237,2.81006c6.99561,0 3.79167,0.98667 3.79167,4.20833z" fill="url(#color-14)"/><path d="M319.09484,101.52113c1.42855,1.52402 8.99078,1.24898 11.0947,2.41813c4.94207,2.7463 8.45796,5.80874 7.97702,8.01664c-0.70342,3.22929 -9.84551,17.21804 -14.62969,12.11411c-1.14635,-1.22296 -4.83049,-7.12803 -6.31635,-8.96823c-4.71526,-5.83969 -7.70138,-9.29368 -5.91409,-10.969c2.35049,-2.20324 3.00423,-7.71557 7.78841,-2.61164z" data-paper-data="{&quot;index&quot;:null}" fill="url(#color-15)"/><path d="M315.70188,105.47156c0.04302,1.81045 0.13334,3.70086 -0.92917,4.63611c-0.76441,0.67285 -2.805,0.51158 -3.80693,0.51158c-1.09591,0 -3.07722,0.50062 -3.87867,-0.29135c-0.92766,-0.91669 -0.89402,-2.94568 -0.8589,-4.70524c0.00677,-0.33927 0.43051,-5.59086 1.12246,-6.6301c0.86656,-1.30147 2.16447,-0.32219 3.61511,-0.32219c1.37867,0 4.42564,-0.50353 5.28923,0.68782c0.77065,1.06314 -0.55975,5.83463 -0.55313,6.11337z" fill="url(#color-16)"/><path d="M304.73911,110.3224c1.48363,0.04323 -12.22146,5.07548 -13.875,3.25c-0.90008,-0.99368 -1.21281,-3.88747 -0.70605,-4.69225c0.46888,-0.74461 3.61549,-0.73311 6.81848,-0.17333c2.97197,0.51941 5.95772,1.56299 7.76257,1.61558z" fill="url(#color-17)"/><path d="M322.76961,114.736c3.03699,1.56758 5.73774,3.62593 5.74821,4.65115c0.01132,1.10806 -1.77632,3.68831 -3.06903,4.053c-2.3748,0.66996 -11.4687,-13.1881 -10.17543,-12.25397c1.57327,1.13637 4.67831,2.0953 7.49625,3.54982z" data-paper-data="{&quot;index&quot;:null}" fill="url(#color-18)"/><path d="M316.56508,114.90007c0.08391,-0.90049 -0.72834,4.93635 -0.54961,9.2998c0.11075,2.70388 -0.17601,4.52296 -0.56535,5.03822c-0.55394,0.73309 -0.93713,1.02769 -1.29012,0.40098c-0.3266,-0.57987 -0.21532,-3.69458 0.30539,-6.77013c0.48315,-2.85372 1.93437,-6.1946 2.09969,-7.96887z" data-paper-data="{&quot;index&quot;:null}" fill="url(#color-19)"/></g><g><path d="M302.55136,44.86907c0,3.99675 -2.95259,1.41761 -9.19056,-1.39083c-6.40448,-2.8834 -17.16387,-6.41397 -22.30944,-8.60917c-7.1965,-3.07017 3.5093,-21 11.33333,-21c4.17235,0 8.96304,6.8456 13.14834,14.15291c3.66302,6.39543 7.01833,13.06652 7.01833,16.84709z" fill="url(#color-20)" stroke="none" stroke-width="0"/><path d="M284.83037,16.5748c0.75354,1.08019 4.49514,9.32792 7.92824,14.27969c4.03049,5.81343 9.63576,8.47115 7.48148,10.24146c-1.90293,1.56376 -7.72852,0.64099 -13.47926,-1.70414c-6.305,-2.57115 -12.52005,-6.71731 -13.37681,-7.94546c-1.6382,-2.34834 10.04346,-16.88258 11.44635,-14.87155z" fill="url(#color-21)" stroke="#544639" stroke-width="0.45"/><path d="M315.80392,23.59631c3.90214,-7.65613 8.52167,-14.90725 13.14543,-15.28489c8.67052,-0.70816 22.34044,16.17907 14.67456,19.88801c-5.48118,2.65192 -17.04905,7.14184 -23.85602,10.59309c-6.63001,3.36152 -9.64227,6.19732 -10.04481,2.21698c-0.38077,-3.76505 2.66565,-10.71245 6.08085,-17.41318z" data-paper-data="{&quot;index&quot;:null}" fill="url(#color-22)" stroke="none" stroke-width="0"/><path d="M338.55458,27.11302c-0.88792,1.22815 -7.32904,5.37432 -13.8634,7.94547c-5.95994,2.34512 -13.13566,2.4664 -13.13083,2.1403c0.02631,-1.77442 4.38625,-6.76673 7.91487,-11.67763c3.55798,-4.95178 6.43569,-12.1995 7.21663,-13.27969c1.45392,-2.01102 13.56051,12.52322 11.86272,14.87156z" data-paper-data="{&quot;index&quot;:null}" fill="url(#color-23)" stroke="#544639" stroke-width="0.45"/><g fill="#856751" stroke="none" stroke-width="0"><path d="M325.69176,15.35217c0.58805,1.03013 0.98552,1.97951 0.88778,2.12051c-0.09774,0.141 -0.65369,-0.57978 -1.24174,-1.6099c-0.58805,-1.03013 -0.98552,-1.97951 -0.88778,-2.12051c0.09774,-0.141 0.65369,0.57978 1.24174,1.6099z" data-paper-data="{&quot;index&quot;:null}"/><path d="M324.7646,16.23992c0.58805,1.03013 0.98552,1.97951 0.88778,2.12051c-0.09774,0.141 -0.65369,-0.57978 -1.24174,-1.6099c-0.58805,-1.03013 -0.98552,-1.97951 -0.88778,-2.12051c0.09774,-0.141 0.65369,0.57978 1.24174,1.6099z" data-paper-data="{&quot;index&quot;:null}"/><path d="M325.03194,19.91388c-0.13702,0.09402 -0.96591,-0.42348 -1.85138,-1.15587c-0.88546,-0.73239 -1.4922,-1.40232 -1.35518,-1.49634c0.13702,-0.09402 0.96592,0.42348 1.85138,1.15586c0.88546,0.73239 1.4922,1.40233 1.35517,1.49634z" data-paper-data="{&quot;index&quot;:null}"/><path d="M324.39451,21.18209c-0.13702,0.09402 -0.96591,-0.42348 -1.85138,-1.15587c-0.88546,-0.73239 -1.4922,-1.40232 -1.35518,-1.49634c0.13702,-0.09402 0.96592,0.42348 1.85138,1.15586c0.88546,0.73239 1.4922,1.40233 1.35517,1.49634z" data-paper-data="{&quot;index&quot;:null}"/><path d="M321.97106,24.54285c-0.06362,0.09402 -0.44848,-0.42348 -0.85961,-1.15587c-0.41112,-0.73239 -0.69283,-1.40232 -0.62921,-1.49634c0.06362,-0.09402 0.44848,0.42348 0.85961,1.15586c0.41112,0.73239 0.69283,1.40233 0.62921,1.49634z" data-paper-data="{&quot;index&quot;:null}"/><path d="M321.27568,25.55742c-0.06362,0.09402 -0.44848,-0.42348 -0.85961,-1.15587c-0.41112,-0.73239 -0.69283,-1.40232 -0.62921,-1.49634c0.06362,-0.09402 0.44848,0.42348 0.85961,1.15586c0.41112,0.73239 0.69283,1.40233 0.62921,1.49634z" data-paper-data="{&quot;index&quot;:null}"/><path d="M319.9696,25.90983c0.18767,0.83463 0.25399,1.49788 0.14815,1.4814c-0.10584,-0.01648 -0.34377,-0.70644 -0.53144,-1.54107c-0.18767,-0.83463 -0.25399,-1.49788 -0.14815,-1.48141c0.10584,0.01648 0.34378,0.70645 0.53145,1.54108z" data-paper-data="{&quot;index&quot;:null}"/><path d="M319.39013,26.67075c0.18767,0.83463 0.25399,1.49788 0.14815,1.4814c-0.10584,-0.01648 -0.34377,-0.70644 -0.53144,-1.54107c-0.18767,-0.83463 -0.25399,-1.49788 -0.14815,-1.48141c0.10584,0.01648 0.34378,0.70645 0.53145,1.54108z" data-paper-data="{&quot;index&quot;:null}"/><path d="M318.81065,27.81214c0.18767,0.83463 0.25399,1.49788 0.14815,1.4814c-0.10584,-0.01648 -0.34377,-0.70644 -0.53144,-1.54107c-0.18767,-0.83463 -0.25399,-1.49788 -0.14815,-1.48141c0.10584,0.01648 0.34378,0.70645 0.53145,1.54108z" data-paper-data="{&quot;index&quot;:null}"/><path d="M316.49274,30.60221c0.18767,0.83463 0.25399,1.49788 0.14815,1.4814c-0.10584,-0.01648 -0.34377,-0.70644 -0.53144,-1.54107c-0.18767,-0.83463 -0.25399,-1.49788 -0.14815,-1.48141c0.10584,0.01648 0.34378,0.70645 0.53145,1.54108z" data-paper-data="{&quot;index&quot;:null}"/><path d="M316.35841,32.70426c-0.04925,0.10384 -0.504,-0.34062 -1.01571,-0.99273c-0.51171,-0.6521 -0.88662,-1.26491 -0.83737,-1.36874c0.04925,-0.10384 0.504,0.34061 1.01571,0.99272c0.51171,0.6521 0.88662,1.26492 0.83737,1.36875z" data-paper-data="{&quot;index&quot;:null}"/><path d="M319.95117,37.96734c-0.04925,0.10384 -0.504,-0.34062 -1.01571,-0.99273c-0.51171,-0.6521 -0.88662,-1.26491 -0.83737,-1.36874c0.04925,-0.10384 0.504,0.34061 1.01571,0.99272c0.51171,0.6521 0.88662,1.26492 0.83737,1.36875z" data-paper-data="{&quot;index&quot;:null}"/><path d="M321.11013,37.84052c-0.04925,0.10384 -0.504,-0.34062 -1.01571,-0.99273c-0.51171,-0.6521 -0.88662,-1.26491 -0.83737,-1.36874c0.04925,-0.10384 0.504,0.34061 1.01571,0.99272c0.51171,0.6521 0.88662,1.26492 0.83737,1.36875z" data-paper-data="{&quot;index&quot;:null}"/><path d="M321.51737,37.08518c-0.03097,0.06529 -0.31691,-0.21418 -0.63868,-0.62422c-0.32176,-0.41004 -0.55751,-0.79538 -0.52655,-0.86067c0.03097,-0.06529 0.31692,0.21418 0.63868,0.62422c0.32176,0.41004 0.55751,0.79538 0.52654,0.86067z" data-paper-data="{&quot;index&quot;:null}"/><path d="M322.32864,36.83153c-0.03097,0.06529 -0.31691,-0.21418 -0.63868,-0.62422c-0.32176,-0.41004 -0.55751,-0.79538 -0.52655,-0.86067c0.03097,-0.06529 0.31692,0.21418 0.63868,0.62422c0.32176,0.41004 0.55751,0.79538 0.52654,0.86067z" data-paper-data="{&quot;index&quot;:null}"/><path d="M324.87834,36.19743c-0.03097,0.06529 -0.31691,-0.21418 -0.63868,-0.62422c-0.32176,-0.41004 -0.55751,-0.79538 -0.52655,-0.86067c0.03097,-0.06529 0.31692,0.21418 0.63868,0.62422c0.32176,0.41004 0.55751,0.79538 0.52654,0.86067z" data-paper-data="{&quot;index&quot;:null}"/><path d="M325.34192,35.62673c-0.03097,0.06529 -0.31691,-0.21418 -0.63868,-0.62422c-0.32176,-0.41004 -0.55751,-0.79538 -0.52655,-0.86067c0.03097,-0.06529 0.31692,0.21418 0.63868,0.62422c0.32176,0.41004 0.55751,0.79538 0.52654,0.86067z" data-paper-data="{&quot;index&quot;:null}"/><path d="M326.6731,35.5632c-0.04936,0.10407 -0.50516,-0.3414 -1.01804,-0.995c-0.51288,-0.65361 -0.88867,-1.26782 -0.83931,-1.37189c0.04936,-0.10407 0.50517,0.34139 1.01805,0.995c0.51288,0.65361 0.88866,1.26783 0.8393,1.3719z" data-paper-data="{&quot;index&quot;:null}"/><path d="M329.97612,33.66087c-0.04936,0.10407 -0.50516,-0.3414 -1.01804,-0.995c-0.51288,-0.65361 -0.88867,-1.26782 -0.83931,-1.37189c0.04936,-0.10407 0.50517,0.34139 1.01805,0.995c0.51288,0.65361 0.88866,1.26783 0.8393,1.3719z" data-paper-data="{&quot;index&quot;:null}"/><path d="M331.13602,32.64959c-0.03863,0.08145 -0.39535,-0.26718 -0.79674,-0.77871c-0.4014,-0.51153 -0.69549,-0.99223 -0.65686,-1.07368c0.03863,-0.08145 0.39535,0.26718 0.79675,0.77871c0.4014,0.51153 0.69549,0.99223 0.65686,1.07368z" data-paper-data="{&quot;index&quot;:null}"/><path d="M331.77344,32.58617c-0.03863,0.08145 -0.39535,-0.26718 -0.79674,-0.77871c-0.4014,-0.51153 -0.69549,-0.99223 -0.65686,-1.07368c0.03863,-0.08145 0.39535,0.26718 0.79675,0.77871c0.4014,0.51153 0.69549,0.99223 0.65686,1.07368z" data-paper-data="{&quot;index&quot;:null}"/><path d="M332.31939,30.72562c0.55085,0.30207 0.94645,0.59622 0.88361,0.65698c-0.06284,0.06076 -0.56035,-0.13487 -1.1112,-0.43694c-0.55085,-0.30207 -0.94645,-0.59621 -0.88361,-0.65697c0.06284,-0.06076 0.56034,0.13487 1.11119,0.43693z" data-paper-data="{&quot;index&quot;:null}"/><path d="M332.89251,30.33311c0.76994,0.42221 1.32288,0.83335 1.23504,0.91828c-0.08784,0.08493 -0.78321,-0.18851 -1.55314,-0.61072c-0.76994,-0.42221 -1.32288,-0.83334 -1.23504,-0.91827c0.08784,-0.08493 0.7832,0.18851 1.55314,0.61071z" data-paper-data="{&quot;index&quot;:null}"/><path d="M333.81967,29.31854c0.76994,0.42221 1.32288,0.83335 1.23504,0.91828c-0.08784,0.08493 -0.78321,-0.18851 -1.55314,-0.61072c-0.76994,-0.42221 -1.32288,-0.83334 -1.23504,-0.91827c0.08784,-0.08493 0.7832,0.18851 1.55314,0.61071z" data-paper-data="{&quot;index&quot;:null}"/></g><path d="M341.3631,62.39469c0,6.92797 -4.39559,14.72814 -8.32863,23.28766c-4.27022,9.29332 -8.71077,19.40179 -16.61191,19.40179c-8.10665,0 -16.48034,-10.4634 -23.11564,-19.15738c-5.78823,-7.5841 -10.40552,-12.98614 -10.40552,-19.71846c0,-14.44987 11.35113,-31.24861 26.52954,-31.24861c15.17841,0 31.93216,12.98513 31.93216,27.43499z" fill="url(#color-24)" stroke="#000000" stroke-width="0"/><path d="M336.12765,69.27288c-1.96329,0.25284 -4.57401,0.55566 -6.48145,0.40952c-2.08021,-0.15937 -4.1743,0.2828 -7.55927,1.34834c-1.4004,-0.35297 -2.25212,0.54332 -3.77036,0.46561c-0.8484,-0.04342 -2.64745,-0.46411 -4.2864,-0.69249c-3.00266,-1.59132 -4.58067,-6.84112 -5.37622,-16.10849c-0.7533,-8.77527 -5.67728,-19.62195 -2.47597,-19.62195c3.65722,0 12.73806,-1.17524 20.78481,4.97089c2.60435,1.98921 10.02656,7.29196 12.09422,12.12053c3.18529,5.57842 2.41833,14.59031 1.04624,17.6993c-0.36687,0.83128 -3.70243,-0.62643 -3.97561,-0.59125z" fill="none" stroke="none" stroke-width="0"/><path d="M304.71422,65.83753l-0.06298,-0.63477c0,0 4.61246,-0.88859 6.95777,-1.06173c2.36155,-0.17434 7.16314,0.01926 7.16314,0.01926l0.06298,0.63477c0,0 -4.97158,-0.0897 -7.34891,0.0858c-2.32863,0.17191 -6.772,0.95667 -6.772,0.95667z" fill="#544639" stroke="none" stroke-width="0"/><path d="M338.0173,75.59194c-0.032,0.95489 -0.12623,-1.75834 -1.48911,-4.11568c-1.33702,-2.3126 -4.67715,-4.0039 -6.93236,-5.25728c-9.96244,-5.53688 8.75481,-0.57391 8.42147,9.37296z" data-paper-data="{&quot;index&quot;:null}" fill="#544639" stroke="none" stroke-width="0"/><path d="M296.27946,69.67353c-2.25521,1.25338 -5.59534,2.94469 -6.93236,5.25729c-1.36289,2.35734 -1.45711,5.07057 -1.48911,4.11568c-0.33334,-9.94688 18.38391,-14.90984 8.42147,-9.37297z" fill="#544639" stroke="none" stroke-width="0"/><path d="M307.91091,49.64633c0,1.80169 0.49914,3.78084 0.77728,6.11665c0.23533,1.97626 0.19068,4.28903 0.80617,6.12933c1.77105,5.29533 4.72034,9.36117 4.23797,9.36117c-0.37837,0 -1.90321,-2.33666 -3.79284,-6.08465c-0.55923,-1.1092 -1.2045,-2.7745 -1.53194,-4.51732c-0.36621,-1.94915 -0.26663,-4.36436 -0.56971,-5.89746c-0.35843,-1.81313 -0.9141,-5.66158 -1.27675,-9.42985c-0.20406,-2.1204 -0.87035,-4.23381 -1.19684,-6.10916c-0.42622,-2.44824 -0.47456,-4.39014 -0.20335,-4.39014c0.43205,0 0.50029,2.01015 0.96744,4.91409c0.28304,1.75943 1.07417,3.84695 1.14602,6.01428c0.04235,1.27772 0.63654,2.48979 0.63654,3.89307z" fill="#000000" stroke="none" stroke-width="0"/><path d="M315.96308,102.56913c-4.36463,-0.01196 -8.9037,-6.55762 -9.01452,-6.66012c-2.0033,-1.85289 -6.12184,-5.72459 -6.12184,-6.26845c0,-3.36392 26.32545,-5.79783 27.13986,-3.75495c0.14202,0.35626 -3.84392,6.36776 -5.04864,9.79303c-1.49442,4.24894 -3.38854,6.90026 -6.95486,6.89049z" fill="#181716" stroke="none" stroke-width="0"/><path d="M336.61772,73.73371c0,2.56276 -5.27364,8.05747 -8.65763,13.11388c-0.2018,0.30153 -4.53368,5.43021 -10.75885,6.92558c-4.74096,1.13885 -13.3298,-1.78606 -13.48859,-1.89003c-4.67126,-3.05867 -12.35876,-7.83343 -12.35876,-9.66457c0,-2.29757 5.07128,2.7412 8.51601,4.6389c0.87597,0.48257 4.40528,0.56597 6.56799,-0.26136c3.64189,-1.39319 6.30316,-4.28341 7.00143,-4.28341c1.30654,0 9.06366,3.50305 11.44922,2.31529c3.70579,-1.84509 7.04467,-5.6589 8.72662,-7.36015c1.00171,-1.0132 3.00258,-5.10479 3.00258,-3.53411z" fill="#181716" stroke="none" stroke-width="0"/><path d="M315.06701,90.18443l-1.16322,-10.27483l4.57303,-1.04007l1.16323,10.27482z" fill="#9a9a9a" stroke="none" stroke-width="0"/><path d="M310.52179,91.18696l-1.20533,-10.33114l4.07859,-0.80629l1.20533,10.33114z" fill="#9a9a9a" stroke="none" stroke-width="0"/><path d="M317.39253,86.69665c0,1.51878 -1.41777,2.75 -3.16667,2.75c-1.7489,0 -3.16667,-1.23122 -3.16667,-2.75c0,-1.51878 1.41777,-2.75 3.16667,-2.75c1.7489,0 3.16667,1.23122 3.16667,2.75z" fill="url(#color-25)" stroke="none" stroke-width="0"/><path d="M336.37376,72.07546c0,3.79659 -9.22009,14.52692 -15.51743,14.52692c-6.29734,0 -11.32002,-2.66612 -11.32002,-6.4627c0,-2.13026 -0.37785,-6.02532 1.05329,-7.8778c0.3786,-0.49007 3.22199,-1.90642 6.71072,-1.78508c6.82691,0.23745 19.07344,-0.91392 19.07344,1.59867z" data-paper-data="{&quot;index&quot;:null}" fill="url(#color-26)" stroke="none" stroke-width="0"/><path d="M313.64183,82.72054c0,3.79659 -1.8196,5.50296 -8.11694,5.50296c-6.29734,0 -15.97604,-5.54757 -15.97604,-9.34416c0,-1.01818 0.10841,-3.20004 3.15074,-4.43194c2.99419,-1.21242 7.90083,-1.4733 10.62364,-2.67434c4.82664,-2.12904 8.06027,-0.46599 8.58081,0.05905c2.39269,2.41331 1.64743,7.57405 1.64743,10.16559z" fill="url(#color-27)" stroke="none" stroke-width="0"/><path d="M317.8143,73.24702c0,0.73254 -3.28096,3.87853 -6.21112,3.87853c-2.93016,0 -5.63483,-0.92315 -5.63483,-1.65569c0,-0.73254 2.32283,-1.75847 5.14087,-2.56129c2.60085,-0.74094 6.70509,-0.39409 6.70509,0.33845z" fill="#070707" stroke="none" stroke-width="0"/><path d="M309.59481,38.4617c0.02098,0.21531 -1.1249,0.45043 -2.5594,0.52514c-1.4345,0.07471 -2.6144,-0.03925 -2.63538,-0.25456c-0.02098,-0.21531 1.12489,-0.45043 2.55939,-0.52514c1.4345,-0.07471 2.6144,0.03925 2.63539,0.25456z" fill="#856751" stroke="none" stroke-width="0"/><path d="M309.68448,41.22399c0.14329,0.11941 -0.73136,0.57581 -1.95358,1.01939c-1.22222,0.44358 -2.32918,0.70635 -2.47248,0.58694c-0.14329,-0.11941 0.73134,-0.57581 1.95356,-1.01938c1.22222,-0.44358 2.3292,-0.70636 2.4725,-0.58694z" fill="#856751" stroke="none" stroke-width="0"/><path d="M309.17118,35.44191c0.04229,0.21363 -1.07724,0.50888 -2.50055,0.65947c-1.4233,0.15058 -2.6114,0.09948 -2.65369,-0.11415c-0.04229,-0.21363 1.07724,-0.50889 2.50054,-0.65948c1.4233,-0.15058 2.61141,-0.09947 2.6537,0.11416z" fill="#856751" stroke="none" stroke-width="0"/><path d="M311.09176,46.20867c0.04229,0.21363 -1.07725,0.50888 -2.50055,0.65947c-1.4233,0.15058 -2.6114,0.09948 -2.65369,-0.11415c-0.04229,-0.21363 1.07724,-0.50889 2.50054,-0.65948c1.4233,-0.15058 2.61141,-0.09947 2.6537,0.11416z" fill="#856751" stroke="none" stroke-width="0"/><path d="M310.56994,47.90654c0.01096,0.21562 -0.87031,0.39876 -1.96838,0.40905c-1.09807,0.01029 -1.99711,-0.15614 -2.00807,-0.37176c-0.01096,-0.21562 0.8703,-0.39877 1.96837,-0.40906c1.09807,-0.01029 1.99712,0.15615 2.00808,0.37177z" fill="#856751" stroke="none" stroke-width="0"/><path d="M310.73894,52.51276c0.09911,0.1997 -0.5123,0.592 -1.3656,0.87624c-0.8533,0.28424 -1.62536,0.35278 -1.72447,0.15308c-0.09911,-0.1997 0.51229,-0.59201 1.36559,-0.87625c0.8533,-0.28424 1.62537,-0.35277 1.72448,-0.15307z" fill="#856751" stroke="none" stroke-width="0"/><path d="M311.04476,55.46938c0.00764,0.21236 -0.74209,0.4432 -1.67455,0.51559c-0.93247,0.07239 -1.69455,-0.04107 -1.70219,-0.25344c-0.00764,-0.21236 0.74209,-0.4432 1.67455,-0.51559c0.93247,-0.07239 1.69455,0.04107 1.70219,0.25344z" fill="#856751" stroke="none" stroke-width="0"/><path d="M312.05205,60.94163c-0.07675,0.2049 -0.88576,0.26723 -1.80699,0.13926c-0.92122,-0.12797 -1.60579,-0.39781 -1.52904,-0.60271c0.07675,-0.2049 0.88577,-0.26724 1.807,-0.13927c0.92122,0.12797 1.60578,0.39782 1.52903,0.60271z" fill="#856751" stroke="none" stroke-width="0"/><path d="M312.22079,63.57887c-0.07675,0.20489 -0.88576,0.26723 -1.80699,0.13926c-0.92122,-0.12798 -1.60579,-0.39781 -1.52904,-0.60271c0.07675,-0.20489 0.88577,-0.26723 1.807,-0.13926c0.92122,0.12798 1.60578,0.39781 1.52903,0.60271z" fill="#856751" stroke="none" stroke-width="0"/><path d="M310.68563,65.01769c0.70951,-0.17769 1.3597,-0.19539 1.45225,-0.03953c0.09255,0.15586 -0.40758,0.42624 -1.11709,0.60393c-0.70951,0.17769 -1.3597,0.1954 -1.45225,0.03954c-0.09255,-0.15586 0.40758,-0.42625 1.11709,-0.60394z" data-paper-data="{&quot;index&quot;:null}" fill="#856751" stroke="none" stroke-width="0"/><path d="M313.33495,67.29703c-0.06139,0.16388 -0.70844,0.21373 -1.44524,0.11138c-0.7368,-0.10236 -1.28432,-0.31817 -1.22293,-0.48204c0.06139,-0.16388 0.70844,-0.21374 1.44524,-0.11138c0.7368,0.10236 1.28431,0.31817 1.22293,0.48205z" data-paper-data="{&quot;index&quot;:null}" fill="#856751" stroke="none" stroke-width="0"/><path d="M312.89312,68.64588c0.70951,-0.17769 1.35969,-0.19539 1.45224,-0.03953c0.09255,0.15586 -0.40758,0.42624 -1.11709,0.60393c-0.70951,0.17769 -1.35969,0.19539 -1.45224,0.03954c-0.09255,-0.15586 0.40758,-0.42624 1.11709,-0.60393z" data-paper-data="{&quot;index&quot;:null}" fill="#856751" stroke="none" stroke-width="0"/><path d="M317.57014,71.24378c0.03086,-0.45938 0.24401,-0.83912 0.47608,-0.84817c0.23207,-0.00906 0.39517,0.35599 0.36432,0.81537c-0.03086,0.45938 -0.244,0.83912 -0.47607,0.84818c-0.23207,0.00906 -0.39518,-0.356 -0.36433,-0.81538z" data-paper-data="{&quot;index&quot;:null}" fill="#856751" stroke="none" stroke-width="0"/><path d="M323.9017,70.96705c-0.23148,0.01509 -0.51611,-0.33873 -0.63575,-0.79027c-0.11964,-0.45154 -0.02898,-0.8298 0.20251,-0.84489c0.23148,-0.01509 0.51611,0.33873 0.63575,0.79027c0.11964,0.45154 0.02898,0.8298 -0.20251,0.84489z" data-paper-data="{&quot;index&quot;:null}" fill="#856751" stroke="none" stroke-width="0"/><path d="M328.17127,69.78295c0.04468,-0.31753 0.26896,-0.58304 0.50094,-0.59304c0.23198,-0.01 0.3838,0.2393 0.33911,0.55683c-0.04468,0.31753 -0.26895,0.58304 -0.50093,0.59304c-0.23198,0.01 -0.38381,-0.23931 -0.33912,-0.55684z" data-paper-data="{&quot;index&quot;:null}" fill="#856751" stroke="none" stroke-width="0"/><path d="M334.23257,69.9617c-0.20712,0.07703 -0.58412,-0.06934 -0.84206,-0.32689c-0.25794,-0.25755 -0.29913,-0.52878 -0.09201,-0.60581c0.20712,-0.07703 0.58413,0.06933 0.84206,0.32689c0.25794,0.25755 0.29912,0.52878 0.092,0.60581z" data-paper-data="{&quot;index&quot;:null}" fill="#856751" stroke="none" stroke-width="0"/><path d="M340.4088,70.66312c-0.19099,0.11926 -0.55826,-0.13555 -0.8203,-0.56911c-0.26205,-0.43357 -0.31967,-0.88171 -0.12868,-1.00097c0.19099,-0.11926 0.55826,0.13555 0.82031,0.56911c0.26205,0.43357 0.31966,0.88171 0.12867,1.00097z" data-paper-data="{&quot;index&quot;:null}" fill="#856751" stroke="none" stroke-width="0"/><path d="M305.72091,66.91419c0.12532,1.6094 -18.2728,0.37074 -18.49064,-2.42682c-0.34316,-4.40695 1.67333,-10.11132 6.84095,-10.51371c2.96861,-0.23116 6.66989,-0.31917 9.46272,3.05094c2.0688,2.49643 2.04094,8.01426 2.18697,9.88958z" fill="none" stroke="#000000" stroke-width="0.25"/><path d="M306.79473,68.51927c-0.82968,0.06982 -1.97338,0.5401 -2.46563,0.8288c-1.2569,0.73717 -2.41583,2.12726 -4.5733,2.70666c-1.82901,0.49119 -4.78095,0.24951 -4.88652,0.24124c-5.07348,-0.39789 -7.62038,-4.01665 -7.99323,-8.8049c-0.37285,-4.78825 2.92896,-7.89329 7.59449,-8.25658c2.51284,-0.19567 6.6505,0.74541 9.1717,4.00601c1.32909,1.71889 1.48639,5.58073 2.29157,7.00084c0.50326,0.88763 1.72994,2.2048 0.86093,2.27793z" fill="url(#color-28)" stroke="none" stroke-width="0"/><path d="M299.54213,63.76015c0.15064,1.93465 -0.46426,3.56038 -1.37344,3.63118c-0.90918,0.0708 -1.76834,-1.44015 -1.91899,-3.3748c-0.15064,-1.93465 0.46427,-3.56039 1.37345,-3.63119c0.90918,-0.07079 1.76834,1.44016 1.91898,3.37481z" fill="#150100" stroke="none" stroke-width="0"/><path d="M306.91943,67.62549c0.14655,0.1752 0.31704,0.58555 0.25327,0.72648c-0.11391,0.25174 -0.67782,0.31425 -1.08172,0.3457c-0.63001,0.04905 -1.00805,-0.58926 -1.05764,-1.22605c-0.04959,-0.63679 0.85369,-1.55388 1.1554,-0.99219c0.44302,0.82476 0.11714,0.41258 0.73069,1.14606z" fill="url(#color-29)" stroke="none" stroke-width="0"/><path d="M301.38076,63.13887c0.01763,0.22642 -0.55825,0.45591 -1.28626,0.5126c-0.72801,0.05669 -1.33247,-0.08089 -1.3501,-0.30731c-0.01763,-0.22642 0.55825,-0.45591 1.28626,-0.5126c0.72801,-0.05669 1.33247,0.08089 1.3501,0.30731z" fill="#ebebeb" stroke="none" stroke-width="0"/><path d="M318.28943,54.84504c0.56207,-0.97113 1.65789,-2.70637 2.78317,-3.26733c2.98048,-1.12723 4.70893,-1.1213 6.91431,-1.31947c5.16246,-0.4639 8.10084,4.82494 8.49646,9.22751c0.25114,2.79477 -17.68371,7.08033 -17.82819,5.47255c-0.16835,-1.87345 -1.98987,-7.30714 -0.36575,-10.11325z" fill="none" stroke="#000000" stroke-width="0.25"/><path d="M317.99986,64.33029c0.55741,-1.53438 0.06931,-5.36848 1.09356,-7.28473c1.94293,-3.63497 5.86606,-5.25202 8.3764,-5.4776c4.66088,-0.41882 8.4337,2.09291 8.86354,6.87639c0.42985,4.78348 -1.47878,8.77589 -6.41512,10.0132c-0.10271,0.02574 -2.97319,0.75568 -4.85845,0.57598c-2.22384,-0.21197 -3.59811,-1.38963 -4.96022,-1.90717c-0.53346,-0.20269 -1.73951,-0.4759 -2.56923,-0.40657c-0.86905,0.07262 0.12111,-1.43045 0.46951,-2.38951z" fill="url(#color-30)" stroke="none" stroke-width="0"/><path d="M325.21912,57.17194c0.90827,-0.08161 1.78537,1.419 1.95904,3.35172c0.17368,1.93272 -0.42184,3.56566 -1.33011,3.64727c-0.90827,0.08161 -1.78536,-1.41899 -1.95903,-3.35171c-0.17368,-1.93272 0.42184,-3.56566 1.33011,-3.64728z" fill="#150100" stroke="none" stroke-width="0"/><path d="M317.78812,64.60752c0.20395,-0.6041 1.24735,0.14974 1.30452,0.78589c0.05716,0.63615 -0.20929,1.32852 -0.83867,1.38508c-0.40349,0.03626 -0.96992,0.06854 -1.12418,-0.16071c-0.08635,-0.12834 0.01342,-0.56136 0.12874,-0.75851c0.48282,-0.82542 0.23013,-0.36472 0.5296,-1.25174z" fill="url(#color-31)" stroke="none" stroke-width="0"/><path d="M323.25265,59.98496c0.72728,-0.06535 1.33334,0.06502 1.35367,0.29122c0.02033,0.22619 -0.55277,0.46253 -1.28006,0.52788c-0.72728,0.06535 -1.33335,-0.06502 -1.35367,-0.29122c-0.02033,-0.22619 0.55278,-0.46253 1.28007,-0.52788z" fill="#ebebeb" stroke="none" stroke-width="0"/><path d="M265.25384,58.54698c0,-0.13807 0.11193,-0.25 0.25,-0.25c0.13807,0 0.25,0.11193 0.25,0.25c0,0.13807 -0.11193,0.25 -0.25,0.25c-0.13807,0 -0.25,-0.11193 -0.25,-0.25z" fill="#000000" stroke="none" stroke-width="0.5"/><path d="M311.8132,66.96222c-2.34721,0 -4.42647,-0.00261 -4.42647,-0.22353c0,-0.22092 1.96161,-0.28236 4.30882,-0.28236c2.34721,0 4.60295,-0.58562 4.60295,-0.3647c0,0.22092 -2.13809,0.87059 -4.4853,0.87059z" fill="url(#color-32)" stroke="none" stroke-width="0"/><path d="M297.38497,56.2398c-1.25454,-0.14017 -3.20055,-0.01367 -5.62754,0.73689c-3.84035,1.18765 -4.35711,2.8432 -3.9381,1.88235c0.75,-1.71984 2.85161,-3.75354 6.20476,-3.75354c2.24951,0 4.62944,0.52016 6.09591,1.21177c0.71947,0.33932 1.25345,0.74126 1.47552,1.00223c0.65189,0.7661 -0.40266,-0.65426 -4.21055,-1.07971z" data-paper-data="{&quot;index&quot;:null}" fill="#000000" stroke="none" stroke-width="0"/><path d="M297.76896,50.93777c0,0.73638 -7.11111,1.51416 -7.11111,0.77778c0,-0.73638 1.7511,-3.88889 3.5,-3.88889c1.7489,0 3.61111,2.37473 3.61111,3.11111z" fill="url(#color-33)" stroke="#000000" stroke-width="0.25"/><path d="M327.35229,47.32666c0,0.73638 -7.11111,1.51415 -7.11111,0.77777c0,-0.73638 1.7511,-3.88889 3.5,-3.88889c1.7489,0 3.61111,2.37473 3.61111,3.11111z" fill="url(#color-34)" stroke="#000000" stroke-width="0.25"/><path d="M319.04869,86.31006c0,0.46023 -2.89272,-0.7549 -5.00981,-0.7549c-0.85513,0 -1.478,0.77316 -2.12709,1.17368c-0.95789,0.59107 -1.76506,0.85556 -1.76506,0.58122c0,-0.20972 1.18213,-0.72115 1.83688,-1.27983c0.39981,-0.34114 1.52926,-0.87899 1.59919,-2.01338c0.06686,-1.08475 -0.93075,-3.65776 -0.36745,-3.65776c0.45188,0 0.44414,2.90066 1.12669,4.05038c0.30584,0.51516 1.40845,0.66788 1.61606,0.71136c1.49981,0.31406 3.09059,0.87125 3.09059,1.18924z" fill="url(#color-35)" stroke="none" stroke-width="0"/><g fill="#000000" stroke="none"><path d="M282.26608,79.35984c-7.88197,0.73232 -14.8461,4.37157 -18.50318,6.25101c-1.61603,0.83051 -2.7428,1.08275 -2.75165,0.9875c-0.0209,-0.22496 4.72979,-3.3712 11.6411,-5.74703c2.63796,-0.90682 5.40243,-1.92588 8.54196,-2.21758c11.36494,-1.05592 20.06062,-1.7228 20.08363,-0.62747c0.02093,0.9965 -7.64692,0.29764 -19.01186,1.35357z" stroke-width="NaN"/><path d="M300.64113,79.5595c-0.0208,0.46051 2.02374,0.15257 -5.52163,0.91424c-0.95806,0.09671 -2.74991,1.07805 -4.03037,1.19702c-1.21957,0.11331 -2.80432,0.80936 -4.10117,1.69177c-1.02719,0.69893 -1.78514,1.60545 -2.66133,1.79419c-2.11824,0.4563 -3.07399,2.06233 -5.42423,2.55388c-4.36584,0.9131 -10.09385,4.33236 -9.62037,3.0147c0.49659,-1.38193 4.92141,-1.90399 9.65848,-4.11931c2.17997,-1.01948 3.08543,-1.25734 4.03306,-2.03345c1.10025,-0.90111 2.80773,-2.00692 4.20469,-2.59195c2.24831,-0.94157 4.53149,-1.69453 6.46164,-1.86205c4.70331,-0.40821 7.09054,-1.22039 7.00123,-0.55903z" stroke-width="NaN"/></g><g data-paper-data="{&quot;index&quot;:null}" fill="#000000" stroke="none"><path d="M321.685,75.93249c-0.40992,-1.01599 7.84647,-3.8252 18.70982,-7.32725c3.00097,-0.96743 5.94341,-1.11858 8.72537,-1.32313c7.28859,-0.5359 12.89413,0.48676 12.96345,0.70179c0.02936,0.09105 -1.10575,0.30262 -2.91823,0.17513c-4.10162,-0.28849 -11.93599,-0.89327 -19.4701,1.53552c-10.86335,3.50205 -17.63737,7.16226 -18.0103,6.23794z" stroke-width="NaN"/><path d="M322.88171,77.10978c-0.34239,-0.57283 2.17183,-0.76572 6.65624,-2.24148c1.84032,-0.60563 4.23558,-0.81199 6.67301,-0.83125c1.51447,-0.01197 3.51936,0.33261 4.88546,0.72799c1.17659,0.34053 2.1026,0.20284 4.50787,0.28211c5.22664,0.17224 9.49984,-1.08927 10.50022,-0.0143c0.95385,1.02497 -5.65759,0.13597 -10.03046,1.01477c-2.35403,0.47308 -3.86472,-0.6272 -5.9916,-0.21303c-0.87976,0.17132 -1.93332,-0.36374 -3.15268,-0.60201c-1.53948,-0.30082 -3.27027,-0.317 -4.43601,0.0588c-1.22394,0.39457 -3.25741,0.19763 -4.17621,0.48577c-7.23622,2.26934 -5.23549,1.74778 -5.43583,1.33262z" stroke-width="NaN"/></g><g fill="#000000" stroke="none" stroke-width="0"><path d="M293.54064,56.11637c-0.14777,0.53215 -0.87615,0.55733 -1.51473,0.38001c-0.38205,-0.10609 -0.08678,0.05727 -0.25438,-1.07706c-0.11254,-0.76168 -0.00897,-1.70878 0.05039,-1.92256c0.14777,-0.53215 0.73201,2.57546 1.37059,2.75278c0.63858,0.17732 0.4959,-0.66531 0.34813,-0.13316z"/><path d="M291.29574,56.35237c-0.22162,0.79813 -0.5268,0.632 -1.38614,0.39339c-0.51412,-0.14276 -0.96949,-0.73648 -1.15182,-2.4186c-0.12243,-1.12951 0.35386,-3.35044 0.44289,-3.67108c0.22162,-0.79813 0.08792,4.02707 0.94727,4.26568c0.85934,0.23862 1.36943,0.63247 1.14781,1.43061z"/><path d="M289.9267,56.6458c0.16889,0.93444 -0.29961,0.86204 -1.49179,0.90436c-0.71325,0.02532 -1.6039,-0.45424 -2.76087,-2.19793c-0.77689,-1.17086 -1.42001,-3.72227 -1.48786,-4.09766c-0.16889,-0.93444 2.33986,4.29561 3.53203,4.25329c1.19218,-0.04232 2.0396,0.2035 2.20848,1.13794z"/><path d="M290.02574,56.3582c0.70962,0.63098 0.32036,0.6291 -0.59153,1.39822c-0.54555,0.46014 -1.56635,0.86661 -3.55286,0.20876c-1.33391,-0.44174 -3.41468,-2.05225 -3.69975,-2.30573c-0.70962,-0.63098 4.49228,1.93563 5.40417,1.1665c0.91189,-0.76913 1.73036,-1.09873 2.43998,-0.46775z"/></g><path d="M321.6427,53.73127c0.22206,-0.26097 0.75604,-0.66291 1.47552,-1.00223c1.46647,-0.69161 3.8464,-1.21177 6.09591,-1.21177c3.35315,0 5.45476,2.0337 6.20476,3.75354c0.41902,0.96085 -0.09775,-0.69471 -3.9381,-1.88236c-2.42699,-0.75056 -4.373,-0.87706 -5.62754,-0.73689c-3.8079,0.42545 -4.86244,1.8458 -4.21055,1.07971z" data-paper-data="{&quot;index&quot;:null}" fill="#000000" stroke="none" stroke-width="0"/><g data-paper-data="{&quot;index&quot;:null}" fill="#000000" stroke="none" stroke-width="0"><path d="M329.44667,52.39239c0.63858,-0.17732 1.22283,-3.28493 1.3706,-2.75278c0.05936,0.21378 0.16293,1.16088 0.05039,1.92256c-0.16761,1.13434 0.12766,0.97097 -0.25439,1.07706c-0.63858,0.17732 -1.36696,0.15214 -1.51473,-0.38001c-0.14776,-0.53215 -0.29045,0.31048 0.34813,0.13316z"/><path d="M332.49125,51.06462c0.85934,-0.23862 0.72565,-5.06381 0.94727,-4.26568c0.08903,0.32064 0.56532,2.54156 0.44289,3.67107c-0.18233,1.68212 -0.6377,2.27584 -1.15182,2.4186c-0.85934,0.23862 -1.16452,0.40474 -1.38614,-0.39339c-0.22162,-0.79813 0.28847,-1.19199 1.14781,-1.4306z"/><path d="M334.92095,51.65072c1.19218,0.04232 3.70092,-5.18773 3.53203,-4.25329c-0.06785,0.37539 -0.71097,2.92681 -1.48786,4.09766c-1.15697,1.74369 -2.04763,2.22324 -2.76087,2.19792c-1.19218,-0.04232 -1.66067,0.03008 -1.49178,-0.90436c0.16888,-0.93444 1.0163,-1.18026 2.20848,-1.13794z"/><path d="M335.05341,52.96881c0.91189,0.76913 6.1138,-1.79749 5.40418,-1.16651c-0.28508,0.25348 -2.36585,1.86399 -3.69976,2.30573c-1.98651,0.65785 -3.00731,0.25139 -3.55286,-0.20875c-0.91189,-0.76913 -1.30115,-0.76725 -0.59153,-1.39823c0.70962,-0.63098 1.52809,-0.30138 2.43998,0.46775z"/></g><path d="M286.21803,16.03572c0,0.95997 -3.18099,7.43134 -7.48124,13.57235c-3.62319,5.17413 -8.56206,10.01706 -7.8417,12.10008c1.299,3.75622 2.6392,7.8798 3.20533,11.41428c0.71237,4.44749 -1.62411,8.41329 -2.25352,8.41329c-0.9166,0 -16.31902,-11.33015 -18.78448,-18.68101c-1.39925,-4.17194 0.35644,-12.38684 5.22271,-19.04947c2.80068,-3.83453 9.33477,-8.26952 9.96899,-8.26952c1.73621,0 17.96391,-4.56261 17.96391,0.5z" fill="url(#color-36)" stroke="none" stroke-width="0"/><path d="M339.72329,7.2646c1.29435,0.57584 10.3962,5.0294 13.71713,8.42334c5.77024,5.89709 8.68425,13.7759 7.89686,18.10522c-1.38736,7.62816 -15.00851,21.04723 -15.91566,21.17849c-0.62292,0.09013 -3.50323,-3.50021 -3.43511,-8.00386c0.05414,-3.57912 0.79001,-7.85212 1.53771,-11.75565c0.41464,-2.16471 -5.16686,-6.25045 -9.49366,-10.8524c-5.13535,-5.46191 -9.2103,-11.41103 -9.34777,-12.36111c-0.72499,-5.01043 13.45419,-5.43976 15.0405,-4.73403z" data-paper-data="{&quot;index&quot;:null}" fill="url(#color-37)" stroke="none" stroke-width="0"/><path d="M259.30164,51.95279c-0.80671,-0.45009 0.46371,-0.23734 3.06431,-0.4201c2.55125,-0.17929 5.41494,-2.43027 7.44419,-3.90092c1.36961,-0.99258 2.33708,-1.90024 2.56722,-1.58137c0.53894,0.74672 -0.5306,1.2886 -2.96048,2.89941c-1.05079,0.6966 -2.20811,1.63191 -3.56959,2.21236c-1.31172,0.55924 -2.82321,0.77166 -4.08054,1.02651c-1.92897,0.39098 -0.63623,0.7845 -2.46512,-0.2359z" data-paper-data="{&quot;index&quot;:null}" fill="#544639" stroke="none" stroke-width="0"/><path d="M353.66526,43.18868c-1.25733,-0.25485 -2.76882,-0.46727 -4.08055,-1.02651c-1.36148,-0.58046 -2.5188,-1.51577 -3.56959,-2.21236c-2.42988,-1.61082 -3.49941,-2.1527 -2.96048,-2.89941c0.23014,-0.31887 1.19761,0.58879 2.56722,1.58137c2.02925,1.47065 4.89294,3.72163 7.4442,3.90092c2.6006,0.18276 3.87102,-0.02999 3.06431,0.4201c-1.82889,1.0204 -0.53615,0.62688 -2.46511,0.2359z" data-paper-data="{&quot;index&quot;:null}" fill="#544639" stroke="none" stroke-width="0"/><path d="M343.97139,36.32261c0.19462,0.08532 0.07703,0.86092 -0.26262,1.73233c-0.33965,0.87141 -0.77276,1.50866 -0.96738,1.42334c-0.19462,-0.08532 -0.07703,-0.86092 0.26262,-1.73233c0.33965,-0.87141 0.77276,-1.50866 0.96738,-1.42334z" fill="#856751" stroke="none" stroke-width="0"/><path d="M345.86365,37.22431c0.23758,0.10416 0.09403,1.05096 -0.3206,2.11474c-0.41464,1.06378 -0.94334,1.8417 -1.18093,1.73754c-0.23758,-0.10416 -0.09404,-1.05096 0.3206,-2.11474c0.41464,-1.06378 0.94335,-1.8417 1.18093,-1.73754z" fill="#856751" stroke="none" stroke-width="0"/><path d="M347.67308,40.94445c-0.27476,1.10818 -0.70352,1.96445 -0.95768,1.91253c-0.25417,-0.05192 -0.23745,-0.99236 0.03731,-2.10054c0.27476,-1.10818 0.70352,-1.96445 0.95768,-1.91253c0.25417,0.05192 0.23745,0.99236 -0.03731,2.10054z" data-paper-data="{&quot;index&quot;:null}" fill="#856751" stroke="none" stroke-width="0"/><path d="M349.53022,41.65874c-0.27476,1.10818 -0.70352,1.96446 -0.95768,1.91253c-0.25417,-0.05192 -0.23745,-0.99236 0.03731,-2.10054c0.27476,-1.10818 0.70352,-1.96446 0.95768,-1.91253c0.25417,0.05192 0.23745,0.99236 -0.03731,2.10054z" data-paper-data="{&quot;index&quot;:null}" fill="#856751" stroke="none" stroke-width="0"/><path d="M353.53022,43.23017c-0.27476,1.10818 -0.70352,1.96446 -0.95768,1.91253c-0.25417,-0.05192 -0.23745,-0.99236 0.03731,-2.10054c0.27476,-1.10818 0.70352,-1.96446 0.95768,-1.91253c0.25417,0.05192 0.23745,0.99236 -0.03731,2.10054z" data-paper-data="{&quot;index&quot;:null}" fill="#856751" stroke="none" stroke-width="0"/><path d="M355.74386,43.68641c-0.68165,0.91591 -1.40799,1.53999 -1.62235,1.39388c-0.21436,-0.14611 0.16447,-1.00703 0.84612,-1.92295c0.68165,-0.91591 1.40799,-1.53999 1.62235,-1.39388c0.21436,0.14611 -0.16447,1.00704 -0.84612,1.92295z" data-paper-data="{&quot;index&quot;:null}" fill="#856751" stroke="none" stroke-width="0"/><path d="M272.72194,46.88881c0.33965,0.87141 0.45725,1.64701 0.26262,1.73233c-0.19462,0.08532 -0.62772,-0.55192 -0.96738,-1.42334c-0.33965,-0.87141 -0.45725,-1.647 -0.26262,-1.73233c0.19462,-0.08532 0.62772,0.55192 0.96738,1.42334z" data-paper-data="{&quot;index&quot;:null}" fill="#856751" stroke="none" stroke-width="0"/><path d="M271.04323,48.1047c0.41464,1.06378 0.55818,2.01058 0.3206,2.11474c-0.23758,0.10416 -0.76629,-0.67376 -1.18093,-1.73754c-0.41464,-1.06378 -0.55818,-2.01058 -0.3206,-2.11474c0.23758,-0.10416 0.76629,0.67376 1.18093,1.73754z" data-paper-data="{&quot;index&quot;:null}" fill="#856751" stroke="none" stroke-width="0"/><path d="M268.01557,47.98677c0.25417,-0.05192 0.68292,0.80436 0.95768,1.91253c0.27476,1.10818 0.29147,2.04861 0.03731,2.10054c-0.25417,0.05192 -0.68292,-0.80436 -0.95768,-1.91253c-0.27476,-1.10818 -0.29147,-2.04861 -0.03731,-2.10054z" data-paper-data="{&quot;index&quot;:null}" fill="#856751" stroke="none" stroke-width="0"/><path d="M266.15843,48.70106c0.25417,-0.05192 0.68292,0.80435 0.95768,1.91253c0.27476,1.10818 0.29147,2.04861 0.03731,2.10054c-0.25417,0.05192 -0.68292,-0.80435 -0.95768,-1.91253c-0.27476,-1.10818 -0.29147,-2.04861 -0.03731,-2.10054z" data-paper-data="{&quot;index&quot;:null}" fill="#856751" stroke="none" stroke-width="0"/><path d="M262.15843,50.27249c0.25417,-0.05192 0.68292,0.80435 0.95768,1.91253c0.27476,1.10818 0.29147,2.04861 0.03731,2.10054c-0.25417,0.05192 -0.68292,-0.80435 -0.95768,-1.91253c-0.27476,-1.10818 -0.29147,-2.04861 -0.03731,-2.10054z" data-paper-data="{&quot;index&quot;:null}" fill="#856751" stroke="none" stroke-width="0"/><path d="M259.13597,50.90632c0.21435,-0.14611 0.9407,0.47797 1.62235,1.39389c0.68165,0.91591 1.06047,1.77683 0.84612,1.92294c-0.21435,0.14611 -0.9407,-0.47797 -1.62235,-1.39388c-0.68165,-0.91591 -1.06047,-1.77684 -0.84612,-1.92295z" data-paper-data="{&quot;index&quot;:null}" fill="#856751" stroke="none" stroke-width="0"/><path d="M287.25635,18.2442c0.10542,0.13898 -0.32328,1.07473 -0.95753,2.09006c-0.63424,1.01534 -1.23387,1.72577 -1.33929,1.58679c-0.10542,-0.13898 0.32328,-1.07473 0.95752,-2.09006c0.63424,-1.01534 1.23387,-1.72577 1.33929,-1.58679z" fill="#856751" stroke="none" stroke-width="0"/><path d="M288.25635,19.1192c0.10542,0.13898 -0.32328,1.07473 -0.95753,2.09006c-0.63424,1.01534 -1.23387,1.72577 -1.33929,1.58679c-0.10542,-0.13898 0.32328,-1.07473 0.95752,-2.09006c0.63424,-1.01534 1.23387,-1.72577 1.33929,-1.58679z" fill="#856751" stroke="none" stroke-width="0"/><path d="M288.09035,22.85233c0.95503,-0.72187 1.84904,-1.23193 1.99682,-1.13926c0.14778,0.09267 -0.50661,0.75298 -1.46164,1.47485c-0.95503,0.72187 -1.84904,1.23194 -1.99682,1.13927c-0.14778,-0.09267 0.50661,-0.75299 1.46164,-1.47486z" data-paper-data="{&quot;index&quot;:null}" fill="#856751" stroke="none" stroke-width="0"/><path d="M288.77785,24.10233c0.95503,-0.72187 1.84904,-1.23193 1.99682,-1.13926c0.14778,0.09267 -0.50661,0.75298 -1.46164,1.47485c-0.95503,0.72187 -1.84904,1.23194 -1.99682,1.13927c-0.14778,-0.09267 0.50661,-0.75299 1.46164,-1.47486z" data-paper-data="{&quot;index&quot;:null}" fill="#856751" stroke="none" stroke-width="0"/><path d="M290.6087,27.41483c0.44342,-0.72187 0.85852,-1.23193 0.92713,-1.13926c0.06861,0.09267 -0.23522,0.75298 -0.67865,1.47485c-0.44342,0.72187 -0.85852,1.23194 -0.92713,1.13927c-0.06861,-0.09267 0.23522,-0.75299 0.67865,-1.47486z" data-paper-data="{&quot;index&quot;:null}" fill="#856751" stroke="none" stroke-width="0"/><path d="M291.3587,28.41483c0.44342,-0.72187 0.85852,-1.23193 0.92713,-1.13926c0.06861,0.09267 -0.23522,0.75298 -0.67865,1.47485c-0.44342,0.72187 -0.85852,1.23194 -0.92713,1.13927c-0.06861,-0.09266 0.23522,-0.75299 0.67865,-1.47486z" data-paper-data="{&quot;index&quot;:null}" fill="#856751" stroke="none" stroke-width="0"/><path d="M292.66194,28.71808c0.11415,-0.01624 0.04262,0.63749 -0.15979,1.46014c-0.20241,0.82265 -0.45904,1.5027 -0.57319,1.51895c-0.11415,0.01624 -0.04263,-0.63748 0.15978,-1.46013c0.20241,-0.82265 0.45904,-1.50271 0.5732,-1.51895z" data-paper-data="{&quot;index&quot;:null}" fill="#856751" stroke="none" stroke-width="0"/><path d="M293.28694,29.46808c0.11415,-0.01624 0.04262,0.63749 -0.15979,1.46014c-0.20241,0.82265 -0.45904,1.5027 -0.57319,1.51895c-0.11415,0.01624 -0.04263,-0.63748 0.15978,-1.46013c0.20241,-0.82265 0.45904,-1.50271 0.5732,-1.51895z" data-paper-data="{&quot;index&quot;:null}" fill="#856751" stroke="none" stroke-width="0"/><path d="M293.91194,30.59308c0.11415,-0.01624 0.04262,0.63749 -0.15979,1.46014c-0.20241,0.82265 -0.45904,1.5027 -0.57319,1.51895c-0.11415,0.01624 -0.04263,-0.63748 0.15978,-1.46013c0.20241,-0.82265 0.45904,-1.50271 0.5732,-1.51895z" data-paper-data="{&quot;index&quot;:null}" fill="#856751" stroke="none" stroke-width="0"/><path d="M296.41194,33.34308c0.11416,-0.01624 0.04262,0.63749 -0.15979,1.46014c-0.20241,0.82265 -0.45903,1.5027 -0.57319,1.51895c-0.11416,0.01624 -0.04262,-0.63748 0.15978,-1.46013c0.20241,-0.82265 0.45904,-1.50271 0.57319,-1.51895z" data-paper-data="{&quot;index&quot;:null}" fill="#856751" stroke="none" stroke-width="0"/><path d="M296.88678,35.5848c0.55191,-0.64274 1.04238,-1.0808 1.0955,-0.97846c0.05311,0.10234 -0.35125,0.70635 -0.90315,1.34909c-0.55191,0.64274 -1.04238,1.08082 -1.0955,0.97847c-0.05311,-0.10234 0.35125,-0.70636 0.90315,-1.3491z" data-paper-data="{&quot;index&quot;:null}" fill="#856751" stroke="none" stroke-width="0"/><path d="M293.01178,40.7723c0.55191,-0.64274 1.04238,-1.0808 1.0955,-0.97846c0.05312,0.10234 -0.35124,0.70635 -0.90315,1.34909c-0.55191,0.64274 -1.04238,1.08082 -1.0955,0.97847c-0.05312,-0.10234 0.35125,-0.70636 0.90316,-1.3491z" data-paper-data="{&quot;index&quot;:null}" fill="#856751" stroke="none" stroke-width="0"/><path d="M291.76178,40.6473c0.55191,-0.64274 1.04238,-1.0808 1.0955,-0.97846c0.05312,0.10234 -0.35124,0.70635 -0.90315,1.34909c-0.55191,0.64274 -1.04238,1.08082 -1.0955,0.97847c-0.05312,-0.10234 0.35125,-0.70636 0.90316,-1.3491z" data-paper-data="{&quot;index&quot;:null}" fill="#856751" stroke="none" stroke-width="0"/><path d="M290.98729,40.40359c0.34704,-0.40416 0.65545,-0.67961 0.68885,-0.61525c0.0334,0.06435 -0.22087,0.44415 -0.56791,0.84831c-0.34704,0.40416 -0.65545,0.67961 -0.68885,0.61526c-0.0334,-0.06435 0.22087,-0.44416 0.56791,-0.84831z" data-paper-data="{&quot;index&quot;:null}" fill="#856751" stroke="none" stroke-width="0"/><path d="M290.11229,40.15359c0.34704,-0.40416 0.65545,-0.67961 0.68885,-0.61525c0.0334,0.06435 -0.22087,0.44415 -0.56791,0.84831c-0.34704,0.40416 -0.65545,0.67961 -0.68885,0.61526c-0.0334,-0.06435 0.22087,-0.44416 0.56791,-0.84831z" data-paper-data="{&quot;index&quot;:null}" fill="#856751" stroke="none" stroke-width="0"/><path d="M287.36229,39.52859c0.34704,-0.40416 0.65545,-0.67961 0.68885,-0.61525c0.0334,0.06435 -0.22087,0.44415 -0.56791,0.84831c-0.34704,0.40416 -0.65545,0.67961 -0.68885,0.61526c-0.0334,-0.06435 0.22087,-0.44416 0.56791,-0.84831z" data-paper-data="{&quot;index&quot;:null}" fill="#856751" stroke="none" stroke-width="0"/><path d="M286.86229,38.96609c0.34704,-0.40416 0.65545,-0.67961 0.68885,-0.61525c0.0334,0.06435 -0.22087,0.44415 -0.56791,0.84831c-0.34704,0.40416 -0.65545,0.67961 -0.68885,0.61526c-0.0334,-0.06435 0.22087,-0.44416 0.56791,-0.84831z" data-paper-data="{&quot;index&quot;:null}" fill="#856751" stroke="none" stroke-width="0"/><path d="M285.76387,38.39959c0.55317,-0.64422 1.04478,-1.08329 1.09802,-0.98071c0.05324,0.10258 -0.35206,0.70798 -0.90524,1.3522c-0.55317,0.64422 -1.04478,1.0833 -1.09802,0.98072c-0.05324,-0.10258 0.35206,-0.70798 0.90524,-1.3522z" data-paper-data="{&quot;index&quot;:null}" fill="#856751" stroke="none" stroke-width="0"/><path d="M282.20137,36.52459c0.55317,-0.64422 1.04478,-1.08329 1.09802,-0.98071c0.05324,0.10258 -0.35206,0.70798 -0.90524,1.3522c-0.55317,0.64422 -1.04478,1.0833 -1.09802,0.98072c-0.05324,-0.10258 0.35206,-0.70798 0.90524,-1.3522z" data-paper-data="{&quot;index&quot;:null}" fill="#856751" stroke="none" stroke-width="0"/><path d="M280.75357,35.82175c0.43293,-0.50418 0.81768,-0.84781 0.85934,-0.76753c0.04166,0.08028 -0.27554,0.55408 -0.70847,1.05826c-0.43293,0.50418 -0.81767,0.84781 -0.85934,0.76753c-0.04166,-0.08028 0.27553,-0.55408 0.70846,-1.05826z" data-paper-data="{&quot;index&quot;:null}" fill="#856751" stroke="none" stroke-width="0"/><path d="M280.06607,35.75925c0.43293,-0.50418 0.81768,-0.84781 0.85934,-0.76753c0.04166,0.08028 -0.27554,0.55408 -0.70847,1.05826c-0.43293,0.50418 -0.81767,0.84781 -0.85934,0.76753c-0.04166,-0.08028 0.27553,-0.55408 0.70846,-1.05826z" data-paper-data="{&quot;index&quot;:null}" fill="#856751" stroke="none" stroke-width="0"/><path d="M279.96727,34.55302c0.06778,0.05989 -0.3589,0.34981 -0.95302,0.64754c-0.59413,0.29773 -1.13071,0.49056 -1.19849,0.43066c-0.06778,-0.05989 0.3589,-0.34981 0.95302,-0.64754c0.59413,-0.29773 1.13071,-0.49055 1.19849,-0.43066z" data-paper-data="{&quot;index&quot;:null}" fill="#856751" stroke="none" stroke-width="0"/><path d="M279.82579,33.99484c0.09474,0.08371 -0.50164,0.48894 -1.33206,0.90508c-0.83042,0.41615 -1.58042,0.68566 -1.67516,0.60195c-0.09474,-0.08371 0.50164,-0.48895 1.33207,-0.90509c0.83042,-0.41615 1.58041,-0.68566 1.67515,-0.60195z" data-paper-data="{&quot;index&quot;:null}" fill="#856751" stroke="none" stroke-width="0"/><path d="M278.82579,32.99484c0.09474,0.08371 -0.50164,0.48894 -1.33206,0.90508c-0.83042,0.41615 -1.58042,0.68566 -1.67516,0.60195c-0.09474,-0.08371 0.50164,-0.48895 1.33207,-0.90509c0.83042,-0.41615 1.58041,-0.68566 1.67515,-0.60195z" data-paper-data="{&quot;index&quot;:null}" fill="#856751" stroke="none" stroke-width="0"/><path d="M281.57766,16.99801c0.24496,0.04994 0.19502,0.2949 0.19502,0.2949l-0.0009,0.0044c-0.13845,0.65446 -0.35867,1.39713 -0.85628,1.82333c-0.32421,0.84289 -1.22447,1.45076 -1.48207,2.36396c-0.42339,1.50093 -0.80837,4.50799 -1.98012,5.64024c-0.30062,0.29048 -0.78263,0.45815 -0.91904,0.8533c-1.84632,2.31124 -4.68857,4.7466 -6.45616,7.57859c-0.22497,2.2588 -5.06415,4.93399 -2.37361,7.50947c0,0 0.17678,0.17678 0,0.35355c-0.17678,0.17678 -0.35355,0 -0.35355,0c-3.00192,-3.10337 2.06635,-5.38737 2.25272,-8.02083c1.7988,-2.8971 4.77884,-5.1273 6.48934,-7.6559c0.26923,-0.77363 0.56272,-0.62514 1.02689,-0.99078c1.06314,-0.83746 1.43221,-4.14793 1.83495,-5.41239c0.30514,-0.95804 1.22952,-1.61486 1.55329,-2.50912c0.44955,-0.35801 0.65999,-1.04926 0.77373,-1.6333l0.0009,-0.0044c0,0 0.04994,-0.24496 0.2949,-0.19502z" fill="#624b3c" stroke="none" stroke-width="0.5"/><path d="M346.52991,35.15964c-0.24999,0.00219 -0.25218,-0.2478 -0.25218,-0.2478l-0.00269,-0.30658c-0.00777,-0.89788 -0.3107,-1.55894 -0.37877,-2.39828c-0.17234,-1.46784 -1.70312,-2.22076 -2.6812,-3.05584c-1.43391,-1.22425 -2.0473,-3.8399 -3.52505,-4.40065c-1.51208,-2.79237 -4.48551,-5.52362 -6.78263,-7.76774c-2.10388,-1.9828 -5.4344,-3.03783 -6.92102,-5.26776c0,0 -0.13868,-0.20801 0.06934,-0.34669c0.20801,-0.13868 0.34669,0.06934 0.34669,0.06934c1.43696,2.15545 4.77148,3.22696 6.85187,5.18501c2.23761,2.22567 5.33951,4.96482 6.76152,7.74853c1.31528,0.39281 0.62318,0.95979 1.37044,1.69943c1.46162,1.44672 4.74593,4.10038 5.00774,6.08837c0.04207,0.81919 0.37315,1.55055 0.38106,2.4419l0.00269,0.30658c0,0 0.00219,0.24999 -0.2478,0.25218z" fill="#624b3c" stroke="none" stroke-width="0.5"/></g><path d="M342.1806,118.79818c0.26641,0.97684 0.26641,1.82763 0,1.90029c-0.26641,0.07266 -0.69835,-0.66033 -0.96476,-1.63717c-0.26641,-0.97684 -0.26641,-1.82763 0,-1.90029c0.26641,-0.07266 0.69835,0.66033 0.96476,1.63717z" fill="#7c604c" stroke="none" stroke-width="0"/><path d="M343.31384,118.56741c0.19131,0.97684 0.19131,1.82763 0,1.90029c-0.19131,0.07266 -0.50149,-0.66033 -0.6928,-1.63717c-0.19131,-0.97684 -0.19131,-1.82763 0,-1.90029c0.19131,-0.07266 0.50149,0.66033 0.6928,1.63717z" fill="#7c604c" stroke="none" stroke-width="0"/><path d="M345.69846,117.18279c0.19131,0.97684 0.19131,1.82763 0,1.90029c-0.19131,0.07266 -0.50149,-0.66033 -0.6928,-1.63717c-0.19131,-0.97684 -0.19131,-1.82763 0,-1.90029c0.19131,-0.07266 0.50149,0.66033 0.6928,1.63717z" fill="#7c604c" stroke="none" stroke-width="0"/><path d="M348.62154,114.33664c0.19131,0.97684 0.19131,1.82763 0,1.90029c-0.19131,0.07266 -0.50149,-0.66033 -0.6928,-1.63718c-0.19131,-0.97684 -0.19131,-1.82763 0,-1.90029c0.19131,-0.07266 0.50149,0.66033 0.6928,1.63718z" fill="#7c604c" stroke="none" stroke-width="0"/><path d="M349.31384,112.8751c0.19131,0.97684 0.19131,1.82763 0,1.90029c-0.19131,0.07266 -0.50149,-0.66033 -0.6928,-1.63717c-0.19131,-0.97684 -0.19131,-1.82763 0,-1.90029c0.19131,-0.07266 0.50149,0.66033 0.6928,1.63717z" fill="#7c604c" stroke="none" stroke-width="0"/><path d="M346.92923,116.25971c0.19131,0.97684 0.19131,1.82763 0,1.90029c-0.19131,0.07266 -0.50149,-0.66033 -0.6928,-1.63717c-0.19131,-0.97684 -0.19131,-1.82763 0,-1.90029c0.19131,-0.07266 0.50149,0.66033 0.6928,1.63717z" fill="#7c604c" stroke="none" stroke-width="0"/><path d="M300.01315,173.64271c0,1.32939 -0.9852,6.01897 -2.81978,11.13733c-1.43302,3.99802 -5.58554,11.00766 -8.262,14.13186c-3.38706,3.95368 -9.2828,1.52248 -9.70988,1.52248c-1.19662,0 6.45833,-21.85977 8.08333,-25.29167c1.10748,-2.33893 0.90103,-8.08585 2.37196,-8.97041c0.62184,-0.37395 0.00499,1.38322 1.08638,2.13708c2.26348,1.57793 9.25,1.65143 9.25,5.33333z" fill="url(#color-38)" stroke="#463a2f" stroke-width="0.45"/><path d="M299.98786,178.76054c-0.85183,0.11613 -1.61398,0.00944 -1.7023,-0.2383c-0.08832,-0.24775 0.53064,-0.54273 1.38247,-0.65886c0.85183,-0.11613 1.61398,-0.00944 1.7023,0.2383c0.08832,0.24775 -0.53064,0.54273 -1.38247,0.65886z" data-paper-data="{&quot;index&quot;:null}" fill="#7c604c" stroke="none" stroke-width="NaN"/><path d="M297.61522,180.10168c0.08832,-0.24775 0.85047,-0.35443 1.7023,-0.2383c0.85183,0.11613 1.47079,0.41111 1.38247,0.65886c-0.08832,0.24775 -0.85046,0.35443 -1.70229,0.2383c-0.85183,-0.11613 -1.4708,-0.41111 -1.38247,-0.65886z" data-paper-data="{&quot;index&quot;:null}" fill="#7c604c" stroke="none" stroke-width="NaN"/><path d="M296.79592,181.76834c0.08832,-0.24775 0.85047,-0.35444 1.7023,-0.23831c0.85183,0.11613 1.4708,0.41111 1.38247,0.65886c-0.08832,0.24775 -0.85047,0.35443 -1.7023,0.2383c-0.85183,-0.11613 -1.4708,-0.41111 -1.38247,-0.65886z" data-paper-data="{&quot;index&quot;:null}" fill="#7c604c" stroke="none" stroke-width="NaN"/><path d="M294.56145,186.76834c0.08832,-0.24775 0.85047,-0.35444 1.7023,-0.23831c0.85183,0.11613 1.4708,0.41111 1.38247,0.65886c-0.08832,0.24775 -0.85047,0.35443 -1.7023,0.2383c-0.85183,-0.11613 -1.4708,-0.41111 -1.38247,-0.65886z" data-paper-data="{&quot;index&quot;:null}" fill="#7c604c" stroke="none" stroke-width="NaN"/><path d="M293.59318,188.51834c0.08832,-0.24775 0.85047,-0.35444 1.7023,-0.23831c0.85183,0.11613 1.4708,0.41111 1.38247,0.65886c-0.08832,0.24775 -0.85046,0.35443 -1.70229,0.2383c-0.85183,-0.11613 -1.4708,-0.41111 -1.38248,-0.65886z" data-paper-data="{&quot;index&quot;:null}" fill="#7c604c" stroke="none" stroke-width="NaN"/><path d="M292.70019,189.79096c0.15679,-0.20092 0.9074,-0.0186 1.67652,0.40721c0.76913,0.4258 1.26552,0.93388 1.10873,1.13479c-0.15679,0.20092 -0.90739,0.01861 -1.67652,-0.4072c-0.76913,-0.4258 -1.26552,-0.93388 -1.10873,-1.1348z" data-paper-data="{&quot;index&quot;:null}" fill="#7c604c" stroke="none" stroke-width="NaN"/><path d="M292.96588,192.68574c-0.85602,0.06738 -1.6123,-0.08265 -1.68922,-0.33511c-0.07692,-0.25246 0.55469,-0.51175 1.41071,-0.57913c0.85602,-0.06738 1.61231,0.08265 1.68922,0.33511c0.07692,0.25246 -0.55469,0.51175 -1.41071,0.57913z" data-paper-data="{&quot;index&quot;:null}" fill="#7c604c" stroke="none" stroke-width="NaN"/><path d="M290.73141,196.35241c-0.85602,0.06738 -1.6123,-0.08265 -1.68922,-0.33511c-0.07692,-0.25246 0.55469,-0.51175 1.41071,-0.57913c0.85602,-0.06738 1.61231,0.08265 1.68922,0.33511c0.07692,0.25246 -0.55469,0.51175 -1.41071,0.57913z" data-paper-data="{&quot;index&quot;:null}" fill="#7c604c" stroke="none" stroke-width="NaN"/><path d="M279.06068,201.59234c-0.20467,-0.94753 -0.10975,-1.80389 0.21201,-1.91272c0.32176,-0.10883 0.74852,0.57108 0.95318,1.51861c0.20467,0.94753 0.10975,1.80389 -0.21201,1.91273c-0.32176,0.10883 -0.74852,-0.57109 -0.95318,-1.51862z" data-paper-data="{&quot;index&quot;:null}" fill="#7c604c" stroke="none" stroke-width="NaN"/><path d="M280.78421,201.84234c-0.08325,-0.94753 -0.04465,-1.80389 0.08624,-1.91272c0.13089,-0.10883 0.30448,0.57108 0.38773,1.51861c0.08325,0.94753 0.04465,1.80389 -0.08624,1.91273c-0.13089,0.10883 -0.30449,-0.57109 -0.38774,-1.51862z" data-paper-data="{&quot;index&quot;:null}" fill="#7c604c" stroke="none" stroke-width="NaN"/><path d="M282.19937,201.59234c-0.08325,-0.94753 -0.04465,-1.80389 0.08624,-1.91272c0.13089,-0.10883 0.30449,0.57108 0.38774,1.51861c0.08325,0.94753 0.04465,1.80389 -0.08624,1.91273c-0.13089,0.10883 -0.30449,-0.57109 -0.38774,-1.51862z" data-paper-data="{&quot;index&quot;:null}" fill="#7c604c" stroke="none" stroke-width="NaN"/><path d="M286.52618,200.59267c-0.3887,-0.84697 -0.63411,-1.65926 -0.54814,-1.8143c0.08597,-0.15504 0.47078,0.4059 0.85948,1.25287c0.3887,0.84697 0.63412,1.65926 0.54815,1.8143c-0.08597,0.15504 -0.47079,-0.4059 -0.85949,-1.25287z" data-paper-data="{&quot;index&quot;:null}" fill="#7c604c" stroke="none" stroke-width="NaN"/><path d="M285.78135,201.176c-0.3887,-0.84697 -0.63412,-1.65926 -0.54815,-1.8143c0.08597,-0.15504 0.47079,0.4059 0.85949,1.25287c0.3887,0.84697 0.63412,1.65926 0.54815,1.8143c-0.08597,0.15504 -0.47079,-0.4059 -0.85949,-1.25287z" data-paper-data="{&quot;index&quot;:null}" fill="#7c604c" stroke="none" stroke-width="NaN"/><path d="M299.98786,174.1772c-0.85183,0.11613 -1.61398,0.00944 -1.7023,-0.2383c-0.08832,-0.24775 0.53064,-0.54273 1.38247,-0.65886c0.85183,-0.11613 1.61398,-0.00944 1.7023,0.23831c0.08832,0.24775 -0.53064,0.54273 -1.38247,0.65886z" data-paper-data="{&quot;index&quot;:null}" fill="#7c604c" stroke="none" stroke-width="NaN"/><path d="M298.09253,170.79524c-0.29309,0.74294 -0.6678,1.2781 -0.83694,1.19529c-0.16914,-0.08282 -0.06865,-0.75225 0.22444,-1.4952c0.29309,-0.74294 0.6678,-1.2781 0.83694,-1.19528c0.16914,0.08282 0.06865,0.75225 -0.22444,1.49519z" data-paper-data="{&quot;index&quot;:null}" fill="#7c604c" stroke="none" stroke-width="NaN"/><path d="M296.67586,170.37858c-0.29309,0.74294 -0.6678,1.2781 -0.83694,1.19528c-0.16914,-0.08282 -0.06865,-0.75225 0.22444,-1.49519c0.29309,-0.74294 0.6678,-1.2781 0.83694,-1.19528c0.16914,0.08282 0.06865,0.75225 -0.22444,1.49519z" data-paper-data="{&quot;index&quot;:null}" fill="#7c604c" stroke="none" stroke-width="NaN"/><path d="M293.5092,169.46191c-0.29309,0.74294 -0.6678,1.2781 -0.83694,1.19528c-0.16914,-0.08282 -0.06865,-0.75225 0.22444,-1.49519c0.29309,-0.74294 0.6678,-1.2781 0.83694,-1.19528c0.16914,0.08282 0.06865,0.75225 -0.22444,1.49519z" data-paper-data="{&quot;index&quot;:null}" fill="#7c604c" stroke="none" stroke-width="NaN"/><path d="M291.17586,168.04525c-0.29309,0.74294 -0.6678,1.2781 -0.83694,1.19528c-0.16914,-0.08282 -0.06865,-0.75225 0.22444,-1.49519c0.29309,-0.74294 0.6678,-1.2781 0.83694,-1.19529c0.16914,0.08282 0.06865,0.75225 -0.22444,1.4952z" data-paper-data="{&quot;index&quot;:null}" fill="#7c604c" stroke="none" stroke-width="NaN"/><path d="M290.0092,166.29525c-0.29309,0.74294 -0.6678,1.2781 -0.83694,1.19528c-0.16914,-0.08282 -0.06865,-0.75225 0.22444,-1.49519c0.29309,-0.74294 0.6678,-1.2781 0.83694,-1.19529c0.16914,0.08282 0.06865,0.75225 -0.22444,1.4952z" data-paper-data="{&quot;index&quot;:null}" fill="#7c604c" stroke="none" stroke-width="NaN"/><path d="M302.89456,198.17123c1.72337,1.97873 7.92439,4.9168 7.17771,4.9168c-0.74668,0 -7.75191,-3.19584 -8.86302,-5.04206c-1.35306,-2.24824 -2.09867,-5.33294 -1.35199,-5.33294c0.39654,0 0.06895,1.08708 0.82082,2.0828c0.66391,0.87924 0.66094,1.58935 2.21649,3.3754z" fill="url(#color-39)" stroke="none" stroke-width="0"/><path d="M321.31503,194.4625c0.9257,-0.99572 0.52237,-2.08281 1.01058,-2.08281c0.91931,0 0.00132,3.0847 -1.66456,5.33294c-1.368,1.84622 -9.99283,5.04206 -10.91214,5.04206c-0.91931,0 6.71537,-2.93806 8.83718,-4.9168c1.91519,-1.78605 1.91154,-2.49615 2.72894,-3.3754z" data-paper-data="{&quot;index&quot;:null}" fill="url(#color-40)" stroke="none" stroke-width="0"/><path d="M347.50547,238.47708c0,2.1269 -17.45753,2.01279 -26.38211,0.31482c-6.71796,-1.27815 -8.60064,-14.71379 -8.60064,-16.31481c0,-2.04714 12.17222,-7.96564 11.54334,-20.46088c-0.51634,-10.2591 -7.05516,-26.08912 -4.04888,-26.08912c1.83756,0 12.09783,-7.13262 16.1972,-0.58213c6.08448,9.72256 8.56563,23.9615 10.86127,39.00816c1.76999,11.60135 0.42982,22.94827 0.42982,24.12397z" fill="url(#color-41)" stroke="#261514" stroke-width="0"/><path d="M317.64525,236.67542c0.28485,1.06721 0.40523,1.96185 0.26887,1.99825c-0.13637,0.0364 -0.47784,-0.79924 -0.76269,-1.86644c-0.28485,-1.06721 -0.40523,-1.96186 -0.26887,-1.99826c0.13637,-0.0364 0.47784,0.79924 0.76269,1.86645z" fill="#7e644f" stroke="none" stroke-width="0"/><path d="M321.52056,239.03022c0,0.7732 -0.22386,1.4 -0.5,1.4c-0.27614,0 -0.5,-0.6268 -0.5,-1.4c0,-0.7732 0.22386,-1.4 0.5,-1.4c0.27614,0 0.5,0.6268 0.5,1.4z" fill="#7e644f" stroke="none" stroke-width="0"/><path d="M324.52056,239.23021c0,0.88365 -0.26863,1.6 -0.6,1.6c-0.33137,0 -0.6,-0.71635 -0.6,-1.6c0,-0.88365 0.26863,-1.6 0.6,-1.6c0.33137,0 0.6,0.71634 0.6,1.6z" fill="#7e644f" stroke="none" stroke-width="0"/><path d="M327.92056,239.13022c0,0.93889 -0.26863,1.7 -0.6,1.7c-0.33137,0 -0.6,-0.76111 -0.6,-1.7c0,-0.93889 0.26863,-1.7 0.6,-1.7c0.33137,0 0.6,0.76111 0.6,1.7z" fill="#7e644f" stroke="none" stroke-width="0"/><path d="M336.43166,239.75244c0,0.93889 -0.20893,1.7 -0.46666,1.7c-0.25774,0 -0.46667,-0.76112 -0.46667,-1.7c0,-0.93889 0.20893,-1.7 0.46667,-1.7c0.25774,0 0.46666,0.76111 0.46666,1.7z" fill="#7e644f" stroke="none" stroke-width="0"/><path d="M338.32055,240.19688c0,0.93889 -0.20893,1.7 -0.46666,1.7c-0.25774,0 -0.46667,-0.76111 -0.46667,-1.7c0,-0.93889 0.20893,-1.7 0.46667,-1.7c0.25774,0 0.46666,0.76111 0.46666,1.7z" fill="#7e644f" stroke="none" stroke-width="0"/><path d="M342.65389,239.14133c0,1.58322 -0.20893,2.86667 -0.46667,2.86667c-0.25774,0 -0.46667,-1.28345 -0.46667,-2.86667c0,-1.58322 0.20893,-2.86667 0.46667,-2.86667c0.25774,0 0.46667,1.28345 0.46667,2.86667z" fill="#7e644f" stroke="none" stroke-width="0"/><path d="M344.43166,240.36354c0,1.58322 -0.20893,2.86667 -0.46667,2.86667c-0.25774,0 -0.46667,-1.28345 -0.46667,-2.86667c0,-1.58322 0.20893,-2.86666 0.46667,-2.86666c0.25774,0 0.46667,1.28344 0.46667,2.86666z" fill="#7e644f" stroke="none" stroke-width="0"/><path d="M347.20945,239.80799c0,1.58322 -0.20893,2.86667 -0.46667,2.86667c-0.25774,0 -0.46667,-1.28345 -0.46667,-2.86667c0,-1.58322 0.20893,-2.86667 0.46667,-2.86667c0.25774,0 0.46667,1.28345 0.46667,2.86667z" fill="#7e644f" stroke="none" stroke-width="0"/><path d="M313.07801,221.75244c0,0.92661 -0.18444,1.67778 -0.41195,1.67778c-0.22751,0 -0.41195,-0.75116 -0.41195,-1.67778c0,-0.92661 0.18444,-1.67777 0.41195,-1.67777c0.22751,0 0.41195,0.75116 0.41195,1.67777z" fill="#7e644f" stroke="none" stroke-width="0"/><path d="M315.41135,219.86355c0,0.92661 -0.18444,1.67778 -0.41195,1.67778c-0.22751,0 -0.41196,-0.75116 -0.41196,-1.67778c0,-0.92661 0.18444,-1.67777 0.41196,-1.67777c0.22751,0 0.41195,0.75116 0.41195,1.67777z" fill="#7e644f" stroke="none" stroke-width="0"/><path d="M318.18913,216.80799c0,1.26413 -0.18444,2.28889 -0.41195,2.28889c-0.22751,0 -0.41196,-1.02476 -0.41196,-2.28889c0,-1.26413 0.18444,-2.28889 0.41196,-2.28889c0.22751,0 0.41195,1.02476 0.41195,2.28889z" fill="#7e644f" stroke="none" stroke-width="0"/><path d="M319.30024,216.25244c0,1.26413 -0.18444,2.28889 -0.41195,2.28889c-0.22751,0 -0.41196,-1.02476 -0.41196,-2.28889c0,-1.26413 0.18444,-2.28889 0.41196,-2.28889c0.22751,0 0.41195,1.02476 0.41195,2.28889z" fill="#7e644f" stroke="none" stroke-width="0"/><path d="M321.39985,212.60021c0.29664,1.22883 0.35782,2.26826 0.13666,2.32165c-0.22116,0.05339 -0.64092,-0.89948 -0.93757,-2.12831c-0.29664,-1.22883 -0.35782,-2.26825 -0.13666,-2.32164c0.22116,-0.05339 0.64092,0.89948 0.93756,2.1283z" fill="#7e644f" stroke="none" stroke-width="0"/><path d="M323.73318,208.4891c0.29664,1.22883 0.35782,2.26825 0.13666,2.32164c-0.22116,0.05339 -0.64092,-0.89948 -0.93757,-2.1283c-0.29664,-1.22883 -0.35782,-2.26826 -0.13666,-2.32165c0.22116,-0.05339 0.64092,0.89948 0.93756,2.12831z" fill="#7e644f" stroke="none" stroke-width="0"/><path d="M324.51096,206.93355c0.29664,1.22883 0.35783,2.26825 0.13667,2.32164c-0.22116,0.05339 -0.64092,-0.89948 -0.93757,-2.1283c-0.29664,-1.22883 -0.35782,-2.26826 -0.13666,-2.32165c0.22116,-0.05339 0.64092,0.89948 0.93756,2.12831z" fill="#7e644f" stroke="none" stroke-width="0"/><path d="M324.91709,198.3326c0.21292,0.08017 0.02441,1.1042 -0.42105,2.28723c-0.44547,1.18303 -0.9792,2.07707 -1.19212,1.99689c-0.21292,-0.08017 -0.02441,-1.1042 0.42106,-2.28723c0.44547,-1.18303 0.97919,-2.07707 1.19211,-1.99689z" data-paper-data="{&quot;index&quot;:null}" fill="#7e644f" stroke="none" stroke-width="0"/><path d="M323.91709,195.55482c0.21292,0.08017 0.02441,1.1042 -0.42105,2.28723c-0.44547,1.18303 -0.9792,2.07707 -1.19212,1.99689c-0.21292,-0.08017 -0.02441,-1.1042 0.42106,-2.28723c0.44547,-1.18303 0.97919,-2.07707 1.19211,-1.99689z" data-paper-data="{&quot;index&quot;:null}" fill="#7e644f" stroke="none" stroke-width="0"/><path d="M321.52257,186.95919c1.24083,0.24157 2.21146,0.61843 2.16798,0.84175c-0.04348,0.22332 -1.08459,0.20854 -2.32542,-0.03303c-1.24083,-0.24157 -2.21146,-0.61843 -2.16799,-0.84175c0.04348,-0.22332 1.0846,-0.20854 2.32543,0.03303z" data-paper-data="{&quot;index&quot;:null}" fill="#7e644f" stroke="none" stroke-width="0"/><path d="M321.96701,188.40363c1.24083,0.24157 2.21146,0.61843 2.16799,0.84175c-0.04348,0.22332 -1.08459,0.20854 -2.32542,-0.03303c-1.24083,-0.24157 -2.21147,-0.61843 -2.16799,-0.84175c0.04348,-0.22332 1.0846,-0.20854 2.32543,0.03303z" data-paper-data="{&quot;index&quot;:null}" fill="#7e644f" stroke="none" stroke-width="0"/><path d="M336.82704,177.07033c-0.46406,1.17586 -1.0118,2.06137 -1.22343,1.97786c-0.21163,-0.08352 -0.00701,-1.10444 0.45705,-2.2803c0.46406,-1.17586 1.01181,-2.06138 1.22344,-1.97786c0.21163,0.08352 0.00701,1.10445 -0.45705,2.28031z" data-paper-data="{&quot;index&quot;:null}" fill="#7e644f" stroke="none" stroke-width="0"/><path d="M335.16037,175.84811c-0.46406,1.17586 -1.0118,2.06137 -1.22343,1.97785c-0.21163,-0.08352 -0.00701,-1.10444 0.45705,-2.2803c0.46406,-1.17586 1.0118,-2.06138 1.22343,-1.97786c0.21163,0.08352 0.00701,1.10445 -0.45705,2.28031z" data-paper-data="{&quot;index&quot;:null}" fill="#7e644f" stroke="none" stroke-width="0"/><path d="M332.00232,170.87728c0.22505,0.03342 0.25693,1.07417 0.07123,2.32458c-0.1857,1.25041 -0.51869,2.23695 -0.74373,2.20353c-0.22505,-0.03342 -0.25694,-1.07416 -0.07124,-2.32457c0.1857,-1.25041 0.51869,-2.23696 0.74374,-2.20354z" data-paper-data="{&quot;index&quot;:null}" fill="#7e644f" stroke="none" stroke-width="0"/><path d="M330.22454,170.43283c0.22505,0.03342 0.25693,1.07417 0.07123,2.32458c-0.1857,1.25041 -0.51869,2.23695 -0.74374,2.20353c-0.22505,-0.03342 -0.25694,-1.07416 -0.07124,-2.32457c0.1857,-1.25041 0.51869,-2.23696 0.74374,-2.20354z" data-paper-data="{&quot;index&quot;:null}" fill="#7e644f" stroke="none" stroke-width="0"/><path d="M325.11343,171.87728c0.22505,0.03342 0.25693,1.07417 0.07123,2.32458c-0.1857,1.25041 -0.51869,2.23695 -0.74374,2.20353c-0.22505,-0.03342 -0.25694,-1.07416 -0.07124,-2.32457c0.1857,-1.25041 0.51869,-2.23696 0.74374,-2.20354z" data-paper-data="{&quot;index&quot;:null}" fill="#7e644f" stroke="none" stroke-width="0"/><path d="M322.85133,174.9697c0.1857,1.25041 0.15381,2.29115 -0.07124,2.32457c-0.22505,0.03342 -0.55803,-0.95312 -0.74373,-2.20353c-0.1857,-1.25041 -0.15382,-2.29115 0.07123,-2.32458c0.22505,-0.03342 0.55804,0.95313 0.74374,2.20354z" data-paper-data="{&quot;index&quot;:null}" fill="#7e644f" stroke="none" stroke-width="0"/><path d="M319.85133,177.41415c0.1857,1.25041 0.15381,2.29115 -0.07124,2.32457c-0.22505,0.03342 -0.55803,-0.95312 -0.74373,-2.20353c-0.1857,-1.25041 -0.15382,-2.29115 0.07123,-2.32458c0.22505,-0.03342 0.55804,0.95313 0.74374,2.20354z" data-paper-data="{&quot;index&quot;:null}" fill="#7e644f" stroke="none" stroke-width="0"/><g stroke="none" stroke-width="0"><path d="M281.13251,317.9552c0,2.27697 1.02151,9.3437 2.69746,15.4369c1.22985,4.47134 7.07188,4.43769 5.45709,10.01676c-0.46119,1.59339 -29.09995,3.54634 -30.03221,3.54634c-4.53101,0 -0.91156,-9.52943 -0.91156,-14.5c0,-2.39402 1.7965,-7.34953 2.74766,-11.06619c1.02367,-4.00002 1.28463,-6.68381 3.63332,-6.68381c1.88581,0 0.94252,6.06285 5.92366,6.36846c8.5085,0.52202 10.48458,-6.02028 10.48458,-3.11846z" fill="url(#color-42)"/><path d="M270.87736,344.4552c0,4.28021 -3.11194,7.75 -6.95071,7.75c-3.83877,0 -6.95072,-3.46979 -6.95072,-7.75c0,-4.28021 3.11194,-7.75 6.95072,-7.75c3.83877,0 6.95071,3.46979 6.95071,7.75z" fill="url(#color-43)"/><path d="M290.4761,343.4552c0,4.28021 -3.11194,7.75 -6.95072,7.75c-3.83877,0 -6.95072,-3.46979 -6.95072,-7.75c0,-4.28021 3.11194,-7.75 6.95072,-7.75c3.83877,0 6.95072,3.46979 6.95072,7.75z" fill="url(#color-44)"/><path d="M282.72776,343.85274c0,5.05205 -3.67311,9.14754 -8.20412,9.14754c-4.53101,0 -8.20413,-4.0955 -8.20413,-9.14754c0,-5.05205 3.67311,-9.14754 8.20413,-9.14754c4.53101,0 8.20412,4.09549 8.20412,9.14754z" fill="url(#color-45)"/></g><g data-paper-data="{&quot;index&quot;:null}" stroke="none" stroke-width="0"><path d="M356.05233,320.82365c4.98114,-0.30561 4.03785,-6.36846 5.92366,-6.36846c2.3487,0 2.60965,2.68379 3.63332,6.68381c0.95116,3.71666 2.74766,8.67217 2.74766,11.06619c0,4.97057 3.61945,14.5 -0.91156,14.5c-0.93225,0 -29.57103,-1.95295 -30.03221,-3.54634c-1.61478,-5.57907 4.22724,-5.54541 5.45709,-10.01676c1.67595,-6.0932 2.69746,-13.15993 2.69746,-15.4369c0,-2.90182 1.97608,3.64047 10.48458,3.11846z" fill="url(#color-46)"/><path d="M362.77361,336.4552c3.83877,0 6.95071,3.46979 6.95071,7.75c0,4.28021 -3.11194,7.75 -6.95071,7.75c-3.83877,0 -6.95072,-3.46979 -6.95072,-7.75c0,-4.28021 3.11194,-7.75 6.95072,-7.75z" fill="url(#color-47)"/><path d="M343.17488,335.4552c3.83877,0 6.95072,3.46979 6.95072,7.75c0,4.28021 -3.11194,7.75 -6.95072,7.75c-3.83877,0 -6.95072,-3.46979 -6.95072,-7.75c0,-4.28021 3.11194,-7.75 6.95072,-7.75z" fill="url(#color-48)"/><path d="M352.17662,334.4552c4.53101,0 8.20413,4.09549 8.20413,9.14754c0,5.05205 -3.67312,9.14754 -8.20413,9.14754c-4.53101,0 -8.20412,-4.0955 -8.20412,-9.14754c0,-5.05205 3.67311,-9.14754 8.20412,-9.14754z" fill="url(#color-49)"/></g><path d="M280.97608,317.161c0.00334,0.24998 -0.24663,0.25332 -0.24663,0.25332l-0.00084,0.00002c-0.32692,-0.0559 -1.16965,0.78975 -1.86677,0.99839c-2.12168,0.635 -4.82154,0.25628 -7.03867,0.24967c-3.47388,-0.04498 -5.15958,-2.26986 -8.17612,-3.26088c0,0 -0.23717,-0.07906 -0.15812,-0.31623c0.07906,-0.23717 0.31623,-0.15811 0.31623,-0.15811c2.96028,0.99932 4.62426,3.19198 8.02195,3.23524c2.15855,0.00642 4.82903,0.39412 6.89083,-0.22854c1.00129,-0.30239 1.16073,-0.92953 2.00397,-1.0195l0.00084,-0.00001c0,0 0.24998,-0.00334 0.25332,0.24664z" fill="#715f4d" stroke="none" stroke-width="0.5"/><path d="M362.21403,314.5876c0.07674,0.23793 -0.16119,0.31467 -0.16119,0.31467l-0.11265,-0.079c-0.35161,1.04766 -1.30576,0.87592 -2.22921,1.12367c-1.96167,0.52628 -4.18475,1.43502 -5.6957,2.24017c-1.85334,0.23268 -3.59956,1.13485 -5.53098,0.63861c-0.95883,-0.24635 -2.21464,-1.44873 -3.0082,-1.41138c0,0 -0.25,0 -0.25,-0.25c0,-0.25 0.25,-0.25 0.25,-0.25c1.00112,0.03199 2.03694,1.13693 3.1343,1.42754c1.82824,0.48416 3.50062,-0.43277 5.25544,-0.63191c1.51139,-0.79877 3.73689,-1.67982 5.7113,-2.24478c0.64748,-0.18527 1.71345,-0.02752 1.88302,-0.78179l0.43921,-0.25699c0,0 0.23793,-0.07674 0.31467,0.16119z" fill="#715f4d" stroke="none" stroke-width="0.5"/><path d="M264.62086,315.23224c0,0.9665 -0.30134,1.75 -0.67308,1.75c-0.37173,0 -0.67307,-0.7835 -0.67307,-1.75c0,-0.9665 0.30134,-1.75 0.67307,-1.75c0.37173,0 0.67308,0.7835 0.67308,1.75z" fill="#7e644f" stroke="none" stroke-width="0"/><path d="M266.0824,316.15531c0,0.9665 -0.14637,1.75 -0.32693,1.75c-0.18055,0 -0.32692,-0.7835 -0.32692,-1.75c0,-0.9665 0.14637,-1.75 0.32692,-1.75c0.18055,0 0.32693,0.7835 0.32693,1.75z" fill="#7e644f" stroke="none" stroke-width="0"/><path d="M267.31317,316.69378c0,0.9665 -0.14637,1.75 -0.32692,1.75c-0.18055,0 -0.32692,-0.7835 -0.32692,-1.75c0,-0.9665 0.14637,-1.75 0.32692,-1.75c0.18055,0 0.32692,0.7835 0.32692,1.75z" fill="#7e644f" stroke="none" stroke-width="0"/><path d="M269.31317,317.69378c0,0.9665 -0.14637,1.75 -0.32692,1.75c-0.18055,0 -0.32692,-0.7835 -0.32692,-1.75c0,-0.9665 0.14637,-1.75 0.32692,-1.75c0.18055,0 0.32692,0.7835 0.32692,1.75z" fill="#7e644f" stroke="none" stroke-width="0"/><path d="M270.92855,318.23224c0,0.9665 -0.14637,1.75 -0.32692,1.75c-0.18055,0 -0.32692,-0.7835 -0.32692,-1.75c0,-0.9665 0.14637,-1.75 0.32692,-1.75c0.18055,0 0.32692,0.7835 0.32692,1.75z" fill="#7e644f" stroke="none" stroke-width="0"/><path d="M274.62086,318.23224c0,0.9665 -0.14637,1.75 -0.32693,1.75c-0.18055,0 -0.32692,-0.7835 -0.32692,-1.75c0,-0.9665 0.14637,-1.75 0.32692,-1.75c0.18055,0 0.32693,0.7835 0.32693,1.75z" fill="#7e644f" stroke="none" stroke-width="0"/><path d="M275.92855,318.15531c0,0.9665 -0.14637,1.75 -0.32692,1.75c-0.18055,0 -0.32692,-0.7835 -0.32692,-1.75c0,-0.9665 0.14637,-1.75 0.32692,-1.75c0.18055,0 0.32692,0.7835 0.32692,1.75z" fill="#7e644f" stroke="none" stroke-width="0"/><path d="M281.23624,317.07838c0,0.9665 -0.14637,1.75 -0.32692,1.75c-0.18055,0 -0.32692,-0.7835 -0.32692,-1.75c0,-0.9665 0.14637,-1.75 0.32692,-1.75c0.18055,0 0.32692,0.7835 0.32692,1.75z" fill="#7e644f" stroke="none" stroke-width="0"/><path d="M280.15932,317.84763c0,0.9665 -0.14637,1.75 -0.32692,1.75c-0.18055,0 -0.32692,-0.7835 -0.32692,-1.75c0,-0.9665 0.14637,-1.75 0.32692,-1.75c0.18055,0 0.32692,0.7835 0.32692,1.75z" fill="#7e644f" stroke="none" stroke-width="0"/><path d="M362.5215,312.98224c0.25667,0 0.46474,0.7835 0.46474,1.75c0,0.9665 -0.20807,1.75 -0.46474,1.75c-0.25667,0 -0.46474,-0.7835 -0.46474,-1.75c0,-0.9665 0.20807,-1.75 0.46474,-1.75z" data-paper-data="{&quot;index&quot;:null}" fill="#7e644f" stroke="none" stroke-width="0"/><path d="M360.50548,313.90531c0.18055,0 0.32692,0.7835 0.32692,1.75c0,0.9665 -0.14637,1.75 -0.32692,1.75c-0.18055,0 -0.32693,-0.7835 -0.32693,-1.75c0,-0.9665 0.14637,-1.75 0.32693,-1.75z" data-paper-data="{&quot;index&quot;:null}" fill="#7e644f" stroke="none" stroke-width="0"/><path d="M359.27471,314.44378c0.18055,0 0.32692,0.7835 0.32692,1.75c0,0.9665 -0.14637,1.75 -0.32692,1.75c-0.18055,0 -0.32693,-0.7835 -0.32693,-1.75c0,-0.9665 0.14637,-1.75 0.32693,-1.75z" data-paper-data="{&quot;index&quot;:null}" fill="#7e644f" stroke="none" stroke-width="0"/><path d="M357.27471,315.44378c0.18055,0 0.32692,0.7835 0.32692,1.75c0,0.9665 -0.14637,1.75 -0.32692,1.75c-0.18055,0 -0.32693,-0.7835 -0.32693,-1.75c0,-0.9665 0.14637,-1.75 0.32693,-1.75z" data-paper-data="{&quot;index&quot;:null}" fill="#7e644f" stroke="none" stroke-width="0"/><path d="M355.65932,315.98224c0.18055,0 0.32692,0.7835 0.32692,1.75c0,0.9665 -0.14637,1.75 -0.32692,1.75c-0.18055,0 -0.32693,-0.7835 -0.32693,-1.75c0,-0.9665 0.14637,-1.75 0.32693,-1.75z" data-paper-data="{&quot;index&quot;:null}" fill="#7e644f" stroke="none" stroke-width="0"/><path d="M351.96701,315.98224c0.18055,0 0.32692,0.7835 0.32692,1.75c0,0.9665 -0.14637,1.75 -0.32692,1.75c-0.18056,0 -0.32693,-0.7835 -0.32693,-1.75c0,-0.9665 0.14637,-1.75 0.32693,-1.75z" data-paper-data="{&quot;index&quot;:null}" fill="#7e644f" stroke="none" stroke-width="0"/><path d="M350.65932,315.90531c0.18055,0 0.32692,0.7835 0.32692,1.75c0,0.9665 -0.14637,1.75 -0.32692,1.75c-0.18055,0 -0.32693,-0.7835 -0.32693,-1.75c0,-0.9665 0.14637,-1.75 0.32693,-1.75z" data-paper-data="{&quot;index&quot;:null}" fill="#7e644f" stroke="none" stroke-width="0"/><path d="M345.35162,314.82838c0.18055,0 0.32692,0.7835 0.32692,1.75c0,0.9665 -0.14637,1.75 -0.32692,1.75c-0.18055,0 -0.32693,-0.7835 -0.32693,-1.75c0,-0.9665 0.14637,-1.75 0.32693,-1.75z" data-paper-data="{&quot;index&quot;:null}" fill="#7e644f" stroke="none" stroke-width="0"/><path d="M346.42855,315.59763c0.18055,0 0.32692,0.7835 0.32692,1.75c0,0.9665 -0.14637,1.75 -0.32692,1.75c-0.18055,0 -0.32693,-0.7835 -0.32693,-1.75c0,-0.9665 0.14637,-1.75 0.32693,-1.75z" data-paper-data="{&quot;index&quot;:null}" fill="#7e644f" stroke="none" stroke-width="0"/><path d="M269.32196,194.80314c0,0.81424 -1.03858,-2.66175 -4.36646,-2.50622c-3.95883,0.18501 -3.80838,2.72642 -6.11745,3.81267c-2.39993,1.129 -5.23896,0.8007 -6.12323,0.8007c-1.62135,0 0.57277,-0.85666 -0.9464,-2.63331c-0.32675,-0.38213 -1.2079,-1.2383 -2.2494,-1.68165c-0.78922,-0.33596 -1.73135,-0.25241 -2.24484,-0.59353c-0.8751,-0.58134 -1.12305,-1.29426 -1.44166,-1.78903c-0.34734,-0.53938 -1.58197,-0.13213 -1.58197,-0.40962c0,-1.79493 6.57437,-5.39285 9.75,-5.39285c2.22312,0 7.55657,-3.21494 11.32735,-0.07141c1.61563,1.34688 3.99408,9.92589 3.99408,10.46427z" fill="url(#color-50)" stroke="none" stroke-width="0"/><path d="M377.1634,132.8584c0.00137,0.00924 4.15956,-0.07601 7.62057,-2.34226c4.64914,-3.04424 9.07141,-8.55008 10.27879,-9.02854c4.51282,-1.78832 7.4694,4.06501 4.64667,7.12293c-1.66452,1.80321 -9.62397,6.35306 -9.86735,7.37008c-0.34791,1.45386 7.25797,-1.4724 8.73741,-1.8524c3.12962,-0.80385 4.67118,0.40079 5.48579,1.4331c0.48996,0.6209 3.60003,3.76538 -1.86401,5.84768c-3.87724,1.47758 -15.92681,2.71807 -15.06081,3.01332c3.02508,1.03136 7.09816,-0.62579 9.84986,-0.06314c2.44081,0.49909 4.24919,2.92022 4.26785,3.12661c0.06802,0.75253 0.14333,3.50932 -2.55946,4.06498c-2.39146,0.49166 -7.42067,-1.19823 -9.80037,-0.83656c-3.25274,0.49436 -5.57245,0.6451 -4.19645,1.48166c2.47524,1.50487 8.61147,-1.82082 10.0922,1.09859c1.30775,2.57835 0.45395,5.11727 -2.62035,6.35407c-3.28895,1.32316 -8.37876,2.16206 -9.09606,2.26812c-1.85436,0.27421 -11.98094,-2.33431 -14.76256,-3.38357c-2.79122,-1.05289 -4.04829,-2.93873 -6.35976,-12.30622c-1.38149,-5.59869 3.43263,-8.66582 4.57532,-14.31554c0.84875,-4.19639 1.83345,-10.70187 4.99962,-11.17006c1.26948,-0.18772 4.80676,-1.12807 6.02583,1.58616c0.82344,1.83336 0.07545,8.24059 0.41112,10.9955c0.62172,5.10243 -1.19103,-3.08285 -0.80385,-0.46451z" fill="url(#color-51)" stroke="none" stroke-width="0"/><path d="M381.42011,148.9142c0,4.80666 -3.75034,8.70323 -6.86452,8.70323c-3.11417,0 -6.61935,-7.08367 -6.61935,-11.89032c0,-4.80666 8.16325,-10.90968 11.27742,-10.90968c0.69185,0 2.57146,0.00449 2.78859,0.82697c0.76023,2.8797 -0.58214,9.53099 -0.58214,13.26981z" fill="#914e4c" stroke="#261514" stroke-width="0"/><path d="M375.93623,125.71743c0,2.26436 -1.52223,4.1 -3.4,4.1c-1.87777,0 -3.4,-1.83563 -3.4,-4.1c0,-2.26436 1.52223,-4.1 3.4,-4.1c1.87777,0 3.4,1.83564 3.4,4.1z" fill="#914e4c" stroke="#261514" stroke-width="0"/><path d="M397.45283,128.37827c-1.77209,1.40962 -4.15629,1.36105 -5.32524,-0.10849c-1.16896,-1.46954 -0.68001,-3.80357 1.09208,-5.21319c1.77209,-1.40962 4.15629,-1.36105 5.32524,0.10849c1.16896,1.46954 0.68001,3.80357 -1.09208,5.21319z" fill="#914e4c" stroke="#261514" stroke-width="0"/><path d="M399.74431,140.89285c-2.248,0.27176 -4.25306,-1.01915 -4.47843,-2.88335c-0.22537,-1.8642 1.41431,-3.59574 3.6623,-3.8675c2.248,-0.27176 4.25306,1.01915 4.47843,2.88335c0.22537,1.8642 -1.41431,3.59574 -3.6623,3.8675z" fill="#914e4c" stroke="#261514" stroke-width="0"/><path d="M394.753,150.77215c-2.16761,-0.65483 -3.4846,-2.64286 -2.94157,-4.4404c0.54303,-1.79753 2.74045,-2.72388 4.90807,-2.06905c2.16761,0.65483 3.4846,2.64286 2.94157,4.4404c-0.54303,1.79753 -2.74045,2.72388 -4.90807,2.06905z" fill="#914e4c" stroke="#261514" stroke-width="0"/><path d="M390.3521,159.11056c-2.2598,0.14376 -4.18837,-1.25885 -4.30759,-3.13284c-0.11921,-1.87398 1.61607,-3.50969 3.87587,-3.65345c2.2598,-0.14376 4.18837,1.25885 4.30759,3.13284c0.11921,1.87398 -1.61607,3.50969 -3.87587,3.65345z" fill="#914e4c" stroke="#261514" stroke-width="0"/></g></g></svg>