<svg version="1.1" xmlns="http://www.w3.org/2000/svg" xmlns:xlink="http://www.w3.org/1999/xlink" width="345.49997" height="351.98999" viewBox="0,0,345.49997,351.98999"><defs><linearGradient x1="337.88672" y1="137.18946" x2="337.88672" y2="247.68946" gradientUnits="userSpaceOnUse" id="color-1"><stop offset="0" stop-color="#2f2f2f"/><stop offset="1" stop-color="#000000"/></linearGradient><linearGradient x1="299.15308" y1="137.78878" x2="299.15308" y2="245.87635" gradientUnits="userSpaceOnUse" id="color-2"><stop offset="0" stop-color="#2f2f2f"/><stop offset="1" stop-color="#000000"/></linearGradient><linearGradient x1="318.23401" y1="224.97982" x2="318.23401" y2="251.19299" gradientUnits="userSpaceOnUse" id="color-3"><stop offset="0" stop-color="#4a4a4a"/><stop offset="1" stop-color="#3d3d3d"/></linearGradient><linearGradient x1="314.28549" y1="236.93057" x2="303.7727" y2="237.54927" gradientUnits="userSpaceOnUse" id="color-4"><stop offset="0" stop-color="#636363"/><stop offset="1" stop-color="#373737"/></linearGradient><linearGradient x1="295.96619" y1="232.03631" x2="300.28827" y2="241.65446" gradientUnits="userSpaceOnUse" id="color-5"><stop offset="0" stop-color="#636363"/><stop offset="1" stop-color="#373737"/></linearGradient><linearGradient x1="302.64529" y1="231.74422" x2="292.1325" y2="232.563" gradientUnits="userSpaceOnUse" id="color-6"><stop offset="0" stop-color="#636363"/><stop offset="1" stop-color="#373737"/></linearGradient><linearGradient x1="310.98823" y1="227.43657" x2="281.01651" y2="239.91119" gradientUnits="userSpaceOnUse" id="color-7"><stop offset="0" stop-color="#3f3f3f"/><stop offset="1" stop-color="#3d3d3d"/></linearGradient><linearGradient x1="308.63302" y1="231.12372" x2="276.56777" y2="236.1972" gradientUnits="userSpaceOnUse" id="color-8"><stop offset="0" stop-color="#3f3f3f"/><stop offset="1" stop-color="#3d3d3d"/></linearGradient><linearGradient x1="311.06661" y1="211.23848" x2="304.33045" y2="219.35102" gradientUnits="userSpaceOnUse" id="color-9"><stop offset="0" stop-color="#636363"/><stop offset="1" stop-color="#373737"/></linearGradient><linearGradient x1="305.89492" y1="213.8693" x2="303.49018" y2="224.13607" gradientUnits="userSpaceOnUse" id="color-10"><stop offset="0" stop-color="#636363"/><stop offset="1" stop-color="#373737"/></linearGradient><linearGradient x1="302.96042" y1="218.54277" x2="300.55568" y2="228.80954" gradientUnits="userSpaceOnUse" id="color-11"><stop offset="0" stop-color="#636363"/><stop offset="1" stop-color="#373737"/></linearGradient><linearGradient x1="300.12777" y1="223.94679" x2="300.12777" y2="234.49142" gradientUnits="userSpaceOnUse" id="color-12"><stop offset="0" stop-color="#636363"/><stop offset="1" stop-color="#373737"/></linearGradient><linearGradient x1="274.14543" y1="228.52274" x2="285.28935" y2="237.55788" gradientUnits="userSpaceOnUse" id="color-13"><stop offset="0" stop-color="#636363"/><stop offset="1" stop-color="#373737"/></linearGradient><linearGradient x1="271.20135" y1="223.65419" x2="278.92087" y2="235.74674" gradientUnits="userSpaceOnUse" id="color-14"><stop offset="0" stop-color="#636363"/><stop offset="1" stop-color="#373737"/></linearGradient><linearGradient x1="270.35206" y1="217.83039" x2="276.2141" y2="230.92456" gradientUnits="userSpaceOnUse" id="color-15"><stop offset="0" stop-color="#636363"/><stop offset="1" stop-color="#373737"/></linearGradient><linearGradient x1="271.08777" y1="213.65827" x2="272.68058" y2="227.91604" gradientUnits="userSpaceOnUse" id="color-16"><stop offset="0" stop-color="#636363"/><stop offset="1" stop-color="#373737"/></linearGradient><linearGradient x1="273.1884" y1="208.83178" x2="273.1884" y2="223.17823" gradientUnits="userSpaceOnUse" id="color-17"><stop offset="0" stop-color="#636363"/><stop offset="1" stop-color="#373737"/></linearGradient><linearGradient x1="292.51239" y1="119.83693" x2="292.51239" y2="163.87859" gradientUnits="userSpaceOnUse" id="color-18"><stop offset="0" stop-color="#656565"/><stop offset="1" stop-color="#414141"/></linearGradient><linearGradient x1="293.35082" y1="125.14699" x2="293.35082" y2="169.18865" gradientUnits="userSpaceOnUse" id="color-19"><stop offset="0" stop-color="#656565"/><stop offset="1" stop-color="#414141"/></linearGradient><linearGradient x1="294.0495" y1="131.01599" x2="294.0495" y2="175.05765" gradientUnits="userSpaceOnUse" id="color-20"><stop offset="0" stop-color="#656565"/><stop offset="1" stop-color="#414141"/></linearGradient><linearGradient x1="299.74399" y1="151.12435" x2="299.74399" y2="170.72946" gradientUnits="userSpaceOnUse" id="color-21"><stop offset="0" stop-color="#636363"/><stop offset="1" stop-color="#4c4c4c"/></linearGradient><linearGradient x1="300.08074" y1="155.46491" x2="300.08074" y2="175.07002" gradientUnits="userSpaceOnUse" id="color-22"><stop offset="0" stop-color="#636363"/><stop offset="1" stop-color="#4c4c4c"/></linearGradient><linearGradient x1="300.14237" y1="159.39278" x2="300.14237" y2="178.99788" gradientUnits="userSpaceOnUse" id="color-23"><stop offset="0" stop-color="#636363"/><stop offset="1" stop-color="#4c4c4c"/></linearGradient><linearGradient x1="300.34155" y1="163.87091" x2="300.34155" y2="183.47602" gradientUnits="userSpaceOnUse" id="color-24"><stop offset="0" stop-color="#636363"/><stop offset="1" stop-color="#4c4c4c"/></linearGradient><linearGradient x1="262.28726" y1="165.61379" x2="262.28726" y2="191.70273" gradientUnits="userSpaceOnUse" id="color-25"><stop offset="0" stop-color="#676767"/><stop offset="1" stop-color="#454545"/></linearGradient><linearGradient x1="295.58663" y1="138.70161" x2="295.58663" y2="179.38955" gradientUnits="userSpaceOnUse" id="color-26"><stop offset="0" stop-color="#656565"/><stop offset="1" stop-color="#414141"/></linearGradient><linearGradient x1="266.29005" y1="160.94511" x2="266.29005" y2="189.22223" gradientUnits="userSpaceOnUse" id="color-27"><stop offset="0" stop-color="#676767"/><stop offset="1" stop-color="#454545"/></linearGradient><linearGradient x1="271.74577" y1="157.50726" x2="271.74577" y2="187.26857" gradientUnits="userSpaceOnUse" id="color-28"><stop offset="0" stop-color="#676767"/><stop offset="1" stop-color="#454545"/></linearGradient><linearGradient x1="277.41799" y1="154.06987" x2="277.41799" y2="185.0713" gradientUnits="userSpaceOnUse" id="color-29"><stop offset="0" stop-color="#676767"/><stop offset="1" stop-color="#454545"/></linearGradient><linearGradient x1="282.79852" y1="151.54394" x2="282.79852" y2="183.45667" gradientUnits="userSpaceOnUse" id="color-30"><stop offset="0" stop-color="#676767"/><stop offset="1" stop-color="#454545"/></linearGradient><linearGradient x1="300.23264" y1="167.41903" x2="300.23264" y2="187.02413" gradientUnits="userSpaceOnUse" id="color-31"><stop offset="0" stop-color="#636363"/><stop offset="1" stop-color="#4c4c4c"/></linearGradient><linearGradient x1="289.50885" y1="182.50999" x2="289.50885" y2="229.81751" gradientUnits="userSpaceOnUse" id="color-32"><stop offset="0" stop-color="#5e5e5e"/><stop offset="1" stop-color="#3e3e3e"/></linearGradient><linearGradient x1="315.02634" y1="147.72579" x2="315.02634" y2="223.51466" gradientUnits="userSpaceOnUse" id="color-33"><stop offset="0" stop-color="#636363"/><stop offset="1" stop-color="#444444"/></linearGradient><linearGradient x1="289.54765" y1="178.75433" x2="289.54765" y2="194.92573" gradientUnits="userSpaceOnUse" id="color-34"><stop offset="0" stop-color="#6c6c6c"/><stop offset="1" stop-color="#424242"/></linearGradient><linearGradient x1="289.897" y1="180.71066" x2="289.897" y2="199.49864" gradientUnits="userSpaceOnUse" id="color-35"><stop offset="0" stop-color="#6b6b6b"/><stop offset="1" stop-color="#424242"/></linearGradient><linearGradient x1="290.03674" y1="183.64517" x2="290.03674" y2="205.54585" gradientUnits="userSpaceOnUse" id="color-36"><stop offset="0" stop-color="#6b6b6b"/><stop offset="1" stop-color="#424242"/></linearGradient><linearGradient x1="317.98504" y1="261.70671" x2="317.98504" y2="327.71974" gradientUnits="userSpaceOnUse" id="color-37"><stop offset="0" stop-color="#4d4d4d"/><stop offset="1" stop-color="#2b2b2b"/></linearGradient><linearGradient x1="313.73504" y1="262.20671" x2="313.73504" y2="328.21974" gradientUnits="userSpaceOnUse" id="color-38"><stop offset="0" stop-color="#4d4d4d"/><stop offset="1" stop-color="#2b2b2b"/></linearGradient><linearGradient x1="326.23504" y1="262.20671" x2="326.23504" y2="328.21974" gradientUnits="userSpaceOnUse" id="color-39"><stop offset="0" stop-color="#4d4d4d"/><stop offset="1" stop-color="#2b2b2b"/></linearGradient><linearGradient x1="321.98504" y1="262.70671" x2="321.98504" y2="328.71974" gradientUnits="userSpaceOnUse" id="color-40"><stop offset="0" stop-color="#4d4d4d"/><stop offset="1" stop-color="#2b2b2b"/></linearGradient><linearGradient x1="301.48504" y1="262.20671" x2="301.48504" y2="328.21974" gradientUnits="userSpaceOnUse" id="color-41"><stop offset="0" stop-color="#4d4d4d"/><stop offset="1" stop-color="#2b2b2b"/></linearGradient><linearGradient x1="297.23504" y1="262.70671" x2="297.23504" y2="328.71974" gradientUnits="userSpaceOnUse" id="color-42"><stop offset="0" stop-color="#4d4d4d"/><stop offset="1" stop-color="#2b2b2b"/></linearGradient><linearGradient x1="309.73504" y1="262.70671" x2="309.73504" y2="328.71974" gradientUnits="userSpaceOnUse" id="color-43"><stop offset="0" stop-color="#4d4d4d"/><stop offset="1" stop-color="#2b2b2b"/></linearGradient><linearGradient x1="305.48504" y1="263.20671" x2="305.48504" y2="329.21974" gradientUnits="userSpaceOnUse" id="color-44"><stop offset="0" stop-color="#4d4d4d"/><stop offset="1" stop-color="#2b2b2b"/></linearGradient><linearGradient x1="350.73504" y1="262.20671" x2="350.73504" y2="328.21974" gradientUnits="userSpaceOnUse" id="color-45"><stop offset="0" stop-color="#4d4d4d"/><stop offset="1" stop-color="#2b2b2b"/></linearGradient><linearGradient x1="346.48504" y1="262.70671" x2="346.48504" y2="328.71974" gradientUnits="userSpaceOnUse" id="color-46"><stop offset="0" stop-color="#4d4d4d"/><stop offset="1" stop-color="#2b2b2b"/></linearGradient><linearGradient x1="358.98504" y1="262.70671" x2="358.98504" y2="328.71974" gradientUnits="userSpaceOnUse" id="color-47"><stop offset="0" stop-color="#4d4d4d"/><stop offset="1" stop-color="#2b2b2b"/></linearGradient><linearGradient x1="354.73504" y1="263.20671" x2="354.73504" y2="329.21974" gradientUnits="userSpaceOnUse" id="color-48"><stop offset="0" stop-color="#4d4d4d"/><stop offset="1" stop-color="#2b2b2b"/></linearGradient><linearGradient x1="334.23504" y1="262.70671" x2="334.23504" y2="328.71974" gradientUnits="userSpaceOnUse" id="color-49"><stop offset="0" stop-color="#4d4d4d"/><stop offset="1" stop-color="#2b2b2b"/></linearGradient><linearGradient x1="329.98504" y1="263.20671" x2="329.98504" y2="329.21974" gradientUnits="userSpaceOnUse" id="color-50"><stop offset="0" stop-color="#4d4d4d"/><stop offset="1" stop-color="#2b2b2b"/></linearGradient><linearGradient x1="342.48504" y1="263.20671" x2="342.48504" y2="329.21974" gradientUnits="userSpaceOnUse" id="color-51"><stop offset="0" stop-color="#4d4d4d"/><stop offset="1" stop-color="#2b2b2b"/></linearGradient><linearGradient x1="338.23504" y1="263.70671" x2="338.23504" y2="329.71974" gradientUnits="userSpaceOnUse" id="color-52"><stop offset="0" stop-color="#4d4d4d"/><stop offset="1" stop-color="#2b2b2b"/></linearGradient><linearGradient x1="293.48504" y1="263.70671" x2="293.48504" y2="329.71974" gradientUnits="userSpaceOnUse" id="color-53"><stop offset="0" stop-color="#4d4d4d"/><stop offset="1" stop-color="#2b2b2b"/></linearGradient><linearGradient x1="281.23504" y1="263.70671" x2="281.23504" y2="329.71974" gradientUnits="userSpaceOnUse" id="color-54"><stop offset="0" stop-color="#4d4d4d"/><stop offset="1" stop-color="#2b2b2b"/></linearGradient><linearGradient x1="276.98504" y1="264.20671" x2="276.98504" y2="330.21974" gradientUnits="userSpaceOnUse" id="color-55"><stop offset="0" stop-color="#4d4d4d"/><stop offset="1" stop-color="#2b2b2b"/></linearGradient><linearGradient x1="289.48504" y1="264.20671" x2="289.48504" y2="330.21974" gradientUnits="userSpaceOnUse" id="color-56"><stop offset="0" stop-color="#4d4d4d"/><stop offset="1" stop-color="#2b2b2b"/></linearGradient><linearGradient x1="285.23504" y1="264.70671" x2="285.23504" y2="330.71974" gradientUnits="userSpaceOnUse" id="color-57"><stop offset="0" stop-color="#4d4d4d"/><stop offset="1" stop-color="#2b2b2b"/></linearGradient><linearGradient x1="283.29102" y1="258.0248" x2="279.41602" y2="258.0248" gradientUnits="userSpaceOnUse" id="color-58"><stop offset="0" stop-color="#bababa"/><stop offset="1" stop-color="#848484"/></linearGradient><linearGradient x1="286.41602" y1="258.7748" x2="282.54102" y2="258.7748" gradientUnits="userSpaceOnUse" id="color-59"><stop offset="0" stop-color="#bababa"/><stop offset="1" stop-color="#848484"/></linearGradient><linearGradient x1="289.41602" y1="258.7748" x2="285.54102" y2="258.7748" gradientUnits="userSpaceOnUse" id="color-60"><stop offset="0" stop-color="#bababa"/><stop offset="1" stop-color="#848484"/></linearGradient><linearGradient x1="292.91602" y1="259.0248" x2="289.04102" y2="259.0248" gradientUnits="userSpaceOnUse" id="color-61"><stop offset="0" stop-color="#bababa"/><stop offset="1" stop-color="#848484"/></linearGradient><linearGradient x1="296.41602" y1="260.3998" x2="292.54102" y2="260.3998" gradientUnits="userSpaceOnUse" id="color-62"><stop offset="0" stop-color="#bababa"/><stop offset="1" stop-color="#707070"/></linearGradient><linearGradient x1="300.41602" y1="260.8998" x2="296.54102" y2="260.8998" gradientUnits="userSpaceOnUse" id="color-63"><stop offset="0" stop-color="#bababa"/><stop offset="1" stop-color="#707070"/></linearGradient><linearGradient x1="315.04102" y1="262.0248" x2="311.16602" y2="262.0248" gradientUnits="userSpaceOnUse" id="color-64"><stop offset="0" stop-color="#bababa"/><stop offset="1" stop-color="#848484"/></linearGradient><linearGradient x1="305.16602" y1="261.7748" x2="301.29102" y2="261.7748" gradientUnits="userSpaceOnUse" id="color-65"><stop offset="0" stop-color="#bababa"/><stop offset="1" stop-color="#707070"/></linearGradient><linearGradient x1="309.66602" y1="262.0248" x2="305.79102" y2="262.0248" gradientUnits="userSpaceOnUse" id="color-66"><stop offset="0" stop-color="#bababa"/><stop offset="1" stop-color="#707070"/></linearGradient><linearGradient x1="320.16602" y1="261.7748" x2="316.29102" y2="261.7748" gradientUnits="userSpaceOnUse" id="color-67"><stop offset="0" stop-color="#bababa"/><stop offset="1" stop-color="#848484"/></linearGradient><linearGradient x1="357.79102" y1="258.2748" x2="361.66602" y2="258.2748" gradientUnits="userSpaceOnUse" id="color-68"><stop offset="0" stop-color="#bababa"/><stop offset="1" stop-color="#848484"/></linearGradient><linearGradient x1="354.66602" y1="259.0248" x2="358.54102" y2="259.0248" gradientUnits="userSpaceOnUse" id="color-69"><stop offset="0" stop-color="#bababa"/><stop offset="1" stop-color="#848484"/></linearGradient><linearGradient x1="351.66602" y1="259.0248" x2="355.54102" y2="259.0248" gradientUnits="userSpaceOnUse" id="color-70"><stop offset="0" stop-color="#bababa"/><stop offset="1" stop-color="#848484"/></linearGradient><linearGradient x1="348.16602" y1="259.2748" x2="352.04102" y2="259.2748" gradientUnits="userSpaceOnUse" id="color-71"><stop offset="0" stop-color="#bababa"/><stop offset="1" stop-color="#848484"/></linearGradient><linearGradient x1="344.66602" y1="260.6498" x2="348.54102" y2="260.6498" gradientUnits="userSpaceOnUse" id="color-72"><stop offset="0" stop-color="#bababa"/><stop offset="1" stop-color="#707070"/></linearGradient><linearGradient x1="340.66602" y1="261.1498" x2="344.54102" y2="261.1498" gradientUnits="userSpaceOnUse" id="color-73"><stop offset="0" stop-color="#bababa"/><stop offset="1" stop-color="#707070"/></linearGradient><linearGradient x1="326.04102" y1="262.2748" x2="329.91602" y2="262.2748" gradientUnits="userSpaceOnUse" id="color-74"><stop offset="0" stop-color="#bababa"/><stop offset="1" stop-color="#848484"/></linearGradient><linearGradient x1="335.91602" y1="262.0248" x2="339.79102" y2="262.0248" gradientUnits="userSpaceOnUse" id="color-75"><stop offset="0" stop-color="#bababa"/><stop offset="1" stop-color="#707070"/></linearGradient><linearGradient x1="331.41602" y1="262.2748" x2="335.29102" y2="262.2748" gradientUnits="userSpaceOnUse" id="color-76"><stop offset="0" stop-color="#bababa"/><stop offset="1" stop-color="#707070"/></linearGradient><linearGradient x1="320.91602" y1="262.0248" x2="324.79102" y2="262.0248" gradientUnits="userSpaceOnUse" id="color-77"><stop offset="0" stop-color="#bababa"/><stop offset="1" stop-color="#848484"/></linearGradient><linearGradient x1="322.41657" y1="238.54402" x2="333.16399" y2="239.17653" gradientUnits="userSpaceOnUse" id="color-78"><stop offset="0" stop-color="#636363"/><stop offset="1" stop-color="#373737"/></linearGradient><linearGradient x1="341.14474" y1="233.54052" x2="336.7262" y2="243.37334" gradientUnits="userSpaceOnUse" id="color-79"><stop offset="0" stop-color="#636363"/><stop offset="1" stop-color="#373737"/></linearGradient><linearGradient x1="334.31657" y1="233.24191" x2="345.06399" y2="234.07897" gradientUnits="userSpaceOnUse" id="color-80"><stop offset="0" stop-color="#636363"/><stop offset="1" stop-color="#373737"/></linearGradient><linearGradient x1="325.78742" y1="228.83812" x2="356.42809" y2="241.59117" gradientUnits="userSpaceOnUse" id="color-81"><stop offset="0" stop-color="#3f3f3f"/><stop offset="1" stop-color="#3d3d3d"/></linearGradient><linearGradient x1="328.19519" y1="232.60756" x2="360.97612" y2="237.79428" gradientUnits="userSpaceOnUse" id="color-82"><stop offset="0" stop-color="#3f3f3f"/><stop offset="1" stop-color="#3d3d3d"/></linearGradient><linearGradient x1="325.70729" y1="212.2785" x2="332.59379" y2="220.57211" gradientUnits="userSpaceOnUse" id="color-83"><stop offset="0" stop-color="#636363"/><stop offset="1" stop-color="#373737"/></linearGradient><linearGradient x1="330.99441" y1="214.96804" x2="333.45282" y2="225.46395" gradientUnits="userSpaceOnUse" id="color-84"><stop offset="0" stop-color="#636363"/><stop offset="1" stop-color="#373737"/></linearGradient><linearGradient x1="333.99441" y1="219.74582" x2="336.45282" y2="230.24173" gradientUnits="userSpaceOnUse" id="color-85"><stop offset="0" stop-color="#636363"/><stop offset="1" stop-color="#373737"/></linearGradient><linearGradient x1="336.89028" y1="225.27045" x2="336.89028" y2="236.05043" gradientUnits="userSpaceOnUse" id="color-86"><stop offset="0" stop-color="#636363"/><stop offset="1" stop-color="#373737"/></linearGradient><linearGradient x1="363.45253" y1="229.94853" x2="352.05988" y2="239.18533" gradientUnits="userSpaceOnUse" id="color-87"><stop offset="0" stop-color="#636363"/><stop offset="1" stop-color="#373737"/></linearGradient><linearGradient x1="366.46231" y1="224.97132" x2="358.5705" y2="237.33377" gradientUnits="userSpaceOnUse" id="color-88"><stop offset="0" stop-color="#636363"/><stop offset="1" stop-color="#373737"/></linearGradient><linearGradient x1="367.33056" y1="219.01754" x2="361.33769" y2="232.40396" gradientUnits="userSpaceOnUse" id="color-89"><stop offset="0" stop-color="#636363"/><stop offset="1" stop-color="#373737"/></linearGradient><linearGradient x1="366.57843" y1="214.7523" x2="364.95007" y2="229.32829" gradientUnits="userSpaceOnUse" id="color-90"><stop offset="0" stop-color="#636363"/><stop offset="1" stop-color="#373737"/></linearGradient><linearGradient x1="364.43092" y1="209.81808" x2="364.43092" y2="224.48474" gradientUnits="userSpaceOnUse" id="color-91"><stop offset="0" stop-color="#636363"/><stop offset="1" stop-color="#373737"/></linearGradient><linearGradient x1="344.67563" y1="118.83693" x2="344.67563" y2="163.86157" gradientUnits="userSpaceOnUse" id="color-92"><stop offset="0" stop-color="#656565"/><stop offset="1" stop-color="#414141"/></linearGradient><linearGradient x1="343.81849" y1="124.2655" x2="343.81849" y2="169.29014" gradientUnits="userSpaceOnUse" id="color-93"><stop offset="0" stop-color="#656565"/><stop offset="1" stop-color="#414141"/></linearGradient><linearGradient x1="343.10421" y1="130.2655" x2="343.10421" y2="175.29014" gradientUnits="userSpaceOnUse" id="color-94"><stop offset="0" stop-color="#656565"/><stop offset="1" stop-color="#414141"/></linearGradient><linearGradient x1="337.28263" y1="150.82266" x2="337.28263" y2="170.86534" gradientUnits="userSpaceOnUse" id="color-95"><stop offset="0" stop-color="#636363"/><stop offset="1" stop-color="#4c4c4c"/></linearGradient><linearGradient x1="336.93836" y1="155.26011" x2="336.93836" y2="175.30278" gradientUnits="userSpaceOnUse" id="color-96"><stop offset="0" stop-color="#636363"/><stop offset="1" stop-color="#4c4c4c"/></linearGradient><linearGradient x1="336.87536" y1="159.27564" x2="336.87536" y2="179.31831" gradientUnits="userSpaceOnUse" id="color-97"><stop offset="0" stop-color="#636363"/><stop offset="1" stop-color="#4c4c4c"/></linearGradient><linearGradient x1="336.67173" y1="163.85372" x2="336.67173" y2="183.8964" gradientUnits="userSpaceOnUse" id="color-98"><stop offset="0" stop-color="#636363"/><stop offset="1" stop-color="#4c4c4c"/></linearGradient><linearGradient x1="375.57537" y1="165.6355" x2="375.57537" y2="192.30672" gradientUnits="userSpaceOnUse" id="color-99"><stop offset="0" stop-color="#676767"/><stop offset="1" stop-color="#454545"/></linearGradient><linearGradient x1="341.53278" y1="138.12265" x2="341.53278" y2="179.71872" gradientUnits="userSpaceOnUse" id="color-100"><stop offset="0" stop-color="#656565"/><stop offset="1" stop-color="#414141"/></linearGradient><linearGradient x1="371.48324" y1="160.86261" x2="371.48324" y2="189.77086" gradientUnits="userSpaceOnUse" id="color-101"><stop offset="0" stop-color="#676767"/><stop offset="1" stop-color="#454545"/></linearGradient><linearGradient x1="365.90575" y1="157.34804" x2="365.90575" y2="187.7736" gradientUnits="userSpaceOnUse" id="color-102"><stop offset="0" stop-color="#676767"/><stop offset="1" stop-color="#454545"/></linearGradient><linearGradient x1="360.10693" y1="153.83392" x2="360.10693" y2="185.52729" gradientUnits="userSpaceOnUse" id="color-103"><stop offset="0" stop-color="#676767"/><stop offset="1" stop-color="#454545"/></linearGradient><linearGradient x1="354.60631" y1="151.25162" x2="354.60631" y2="183.87662" gradientUnits="userSpaceOnUse" id="color-104"><stop offset="0" stop-color="#676767"/><stop offset="1" stop-color="#454545"/></linearGradient><linearGradient x1="336.78307" y1="167.48103" x2="336.78307" y2="187.5237" gradientUnits="userSpaceOnUse" id="color-105"><stop offset="0" stop-color="#636363"/><stop offset="1" stop-color="#4c4c4c"/></linearGradient><linearGradient x1="347.74621" y1="182.90881" x2="347.74621" y2="231.2722" gradientUnits="userSpaceOnUse" id="color-106"><stop offset="0" stop-color="#5e5e5e"/><stop offset="1" stop-color="#3e3e3e"/></linearGradient><linearGradient x1="321.65918" y1="147.34825" x2="321.65918" y2="224.82868" gradientUnits="userSpaceOnUse" id="color-107"><stop offset="0" stop-color="#636363"/><stop offset="1" stop-color="#444444"/></linearGradient><linearGradient x1="347.70654" y1="179.06932" x2="347.70654" y2="195.60166" gradientUnits="userSpaceOnUse" id="color-108"><stop offset="0" stop-color="#6c6c6c"/><stop offset="1" stop-color="#424242"/></linearGradient><linearGradient x1="347.34939" y1="181.06932" x2="347.34939" y2="200.27663" gradientUnits="userSpaceOnUse" id="color-109"><stop offset="0" stop-color="#6b6b6b"/><stop offset="1" stop-color="#424242"/></linearGradient><linearGradient x1="347.20654" y1="184.06932" x2="347.20654" y2="206.45881" gradientUnits="userSpaceOnUse" id="color-110"><stop offset="0" stop-color="#6b6b6b"/><stop offset="1" stop-color="#424242"/></linearGradient><linearGradient x1="320.82843" y1="243.34501" x2="320.82843" y2="254.94501" gradientUnits="userSpaceOnUse" id="color-111"><stop offset="0" stop-color="#373737"/><stop offset="1" stop-color="#323232"/></linearGradient><linearGradient x1="315.9668" y1="242.77421" x2="315.9668" y2="374.68137" gradientUnits="userSpaceOnUse" id="color-112"><stop offset="0" stop-color="#5a5a5a"/><stop offset="1" stop-color="#232323"/></linearGradient><linearGradient x1="393.57081" y1="205.33517" x2="393.57081" y2="214.08517" gradientUnits="userSpaceOnUse" id="color-113"><stop offset="0" stop-color="#a5a3a4"/><stop offset="1" stop-color="#595959"/></linearGradient><linearGradient x1="356.68243" y1="117.26771" x2="356.68243" y2="264.62399" gradientUnits="userSpaceOnUse" id="color-114"><stop offset="0" stop-color="#ffffff"/><stop offset="1" stop-color="#808080"/></linearGradient><linearGradient x1="408.57652" y1="189.08801" x2="408.57652" y2="230.69045" gradientUnits="userSpaceOnUse" id="color-115"><stop offset="0" stop-color="#c0c0c0"/><stop offset="1" stop-color="#a4a4a4"/></linearGradient><linearGradient x1="244.4292" y1="205.83517" x2="244.4292" y2="214.58517" gradientUnits="userSpaceOnUse" id="color-116"><stop offset="0" stop-color="#a5a3a4"/><stop offset="1" stop-color="#595959"/></linearGradient><linearGradient x1="281.31756" y1="117.43438" x2="281.31756" y2="264.79066" gradientUnits="userSpaceOnUse" id="color-117"><stop offset="0" stop-color="#ffffff"/><stop offset="1" stop-color="#808080"/></linearGradient><linearGradient x1="229.42348" y1="189.58801" x2="229.42348" y2="231.19045" gradientUnits="userSpaceOnUse" id="color-118"><stop offset="0" stop-color="#c0c0c0"/><stop offset="1" stop-color="#a4a4a4"/></linearGradient><linearGradient x1="287.3042" y1="260.80862" x2="287.3042" y2="309.55862" gradientUnits="userSpaceOnUse" id="color-119"><stop offset="0" stop-color="#ababab"/><stop offset="1" stop-color="#888888"/></linearGradient><linearGradient x1="350.8042" y1="260.80862" x2="350.8042" y2="309.55862" gradientUnits="userSpaceOnUse" id="color-120"><stop offset="0" stop-color="#ababab"/><stop offset="1" stop-color="#888888"/></linearGradient><radialGradient cx="317.61474" cy="234.21638" r="16.08334" gradientUnits="userSpaceOnUse" id="color-121"><stop offset="0" stop-color="#fa4f5b"/><stop offset="1" stop-color="#780508"/></radialGradient><radialGradient cx="285.92041" cy="38.98077" r="25.88272" gradientUnits="userSpaceOnUse" id="color-122"><stop offset="0" stop-color="#a66838"/><stop offset="1" stop-color="#b25905"/></radialGradient></defs><g transform="translate(-143.21683,-22.44138)"><g data-paper-data="{&quot;isPaintingLayer&quot;:true}" fill-rule="nonzero" stroke-linejoin="miter" stroke-miterlimit="10" stroke-dasharray="" stroke-dashoffset="0" style="mix-blend-mode: normal"><g><path d="M317.48672,267.48946l-2.6,-130.3h46v110.5c0,0 -10.1842,15.58406 -14.78054,20.82907c-5.10422,5.82457 -4.85662,1.37093 -8.93483,1.37093c-7.57886,0 -19.68463,-2.4 -19.68463,-2.4z" fill="url(#color-1)" stroke="none" stroke-width="0" stroke-linecap="butt"/><path d="M299.85284,267.59167c-3.98917,0 -3.74698,4.35641 -8.73977,-1.341c-4.49599,-5.1305 -14.45785,-20.37433 -14.45785,-20.37433v-108.08756h44.99572l-2.54323,127.45529c0,0 -11.84147,2.3476 -19.25487,2.3476z" data-paper-data="{&quot;index&quot;:null}" fill="url(#color-2)" stroke="none" stroke-width="0" stroke-linecap="butt"/><path d="M316.09414,235.38881c-0.54053,2.49763 -0.95015,5.04296 -0.20279,7.54411c0.33594,1.12426 1.94792,3.78139 1.40145,4.87434c-2.09188,4.18377 -4.65449,0.91277 -5.56255,-1.55443c-1.77849,-4.83217 -1.34858,-9.47858 0.21802,-14.36712c0.13721,-0.42817 0.88433,-4.24019 1.54676,-4.44545l1.04238,-0.45282c0.10789,-0.54014 0.38983,-1.01747 0.78486,-1.37104c0.4423,-0.39587 1.02637,-0.63658 1.66667,-0.63658c0.63709,0 1.21852,0.23831 1.66001,0.63065c1.27589,0.59812 2.31999,2.55668 4.3012,4.62837c4.45574,4.65923 3.02209,8.92727 1.11189,14.78969c-0.40523,1.24365 0.0771,4.07193 -0.8856,5.03464c-1.90991,1.90991 -4.22572,1.33596 -4.6875,-1.25c-0.4671,-2.61576 1.01467,-7.17 1.76286,-9.6868c0.12149,-0.40868 1.21427,-2.65807 0.90381,-3.22791c-0.44134,-0.81009 -2.24137,-2.59939 -3.86112,-4.31193c-0.33745,1.01293 -0.85539,2.20838 -1.20034,3.80231z" fill="url(#color-3)" stroke="none" stroke-width="0.5" stroke-linecap="butt"/><path d="M306.9171,228.93257c0.26473,-0.53859 1.88505,-4.24049 3.32222,-3.743c1.31523,-0.23191 2.63025,0.38575 2.93716,1.37958c0.04811,0.15578 0.0686,0.31154 0.06387,0.46438c0.29179,0.40795 -1.23975,1.99725 -1.39276,2.48147c-0.72564,2.29628 -1.69067,4.69632 -1.9112,7.08725c-0.22189,2.40565 -0.95256,5.18283 -0.39562,7.57806c0.13496,0.58041 0.95029,3.30158 0.47282,3.882c-1.40134,1.7035 -2.02524,1.43067 -4.16753,0.73485c-1.50038,-0.48732 -1.27084,-4.861 -1.2591,-5.89228c0.05127,-4.50514 0.24045,-9.72089 2.33016,-13.97233z" data-paper-data="{&quot;index&quot;:null}" fill="url(#color-4)" stroke="none" stroke-width="0.5" stroke-linecap="butt"/><path d="M288.49309,242.54719c-0.76029,-0.00839 -5.91875,0.12156 -5.78457,-1.45353c-0.73318,-1.13422 -0.40805,-2.64807 0.72617,-3.38125c0.17778,-0.11494 0.3649,-0.20385 0.55687,-0.26773c0.40957,-0.45702 2.90657,0.27393 3.56141,0.20148c3.10537,-0.3436 6.42087,-0.50831 9.47349,-1.36966c3.07143,-0.86666 6.77752,-1.42054 9.57286,-3.01557c0.67735,-0.3865 3.79143,-2.37044 4.67569,-2.18054c2.59528,0.55737 2.46619,1.26657 2.32319,3.594c-0.10015,1.63005 -5.62552,3.36934 -6.91405,3.81936c-5.6289,1.96587 -12.18955,4.11961 -18.19107,4.05344z" data-paper-data="{&quot;index&quot;:null}" fill="url(#color-5)" stroke="none" stroke-width="0.5" stroke-linecap="butt"/><path d="M295.27691,221.15967c0.26473,-0.71276 1.88506,-5.61186 3.32222,-4.95347c1.31523,-0.30692 2.63025,0.51051 2.93716,1.82574c0.04811,0.20616 0.0686,0.4123 0.06386,0.61457c0.29179,0.53989 -1.23975,2.64317 -1.39276,3.28399c-0.72566,3.03888 -1.69067,6.2151 -1.91119,9.37925c-0.22189,3.18364 -0.95256,6.85896 -0.39562,10.0288c0.13495,0.76809 0.95027,4.36931 0.4728,5.13743c-1.40134,2.25441 -2.02524,1.89334 -4.16753,0.9725c-1.50038,-0.64493 -1.27085,-6.43303 -1.25911,-7.79783c0.05127,-5.96209 0.24045,-12.86461 2.33016,-18.49096z" data-paper-data="{&quot;index&quot;:null}" fill="url(#color-6)" stroke="none" stroke-width="0.5" stroke-linecap="butt"/><path d="M286.00388,246.67055c-1.13315,0.24791 -2.31617,-0.34151 -2.77765,-1.45027c-0.18842,-0.4527 -0.23065,-0.92973 -0.14832,-1.3786c-0.75022,-2.12821 3.8709,-4.13263 4.96359,-5.96725c1.05842,-1.77708 2.51221,-3.11395 3.89015,-4.63244c2.39504,-2.63931 12.24994,-16.72696 16.88628,-10.85766c1.8379,2.32666 -4.92634,4.77929 -6.17515,5.95056c-4.50664,4.22682 -7.99647,9.38872 -12.20428,13.95298c-1.35068,1.46509 -2.26178,3.63819 -4.13528,4.31701c-0.10032,0.03635 -0.20007,0.05751 -0.29934,0.06566z" data-paper-data="{&quot;index&quot;:null}" fill="url(#color-7)" stroke="none" stroke-width="0.5" stroke-linecap="butt"/><path d="M280.13138,243.94676c-0.10604,0.01173 -0.20799,0.00883 -0.30638,-0.0066c-1.15967,-0.02563 -2.17084,-0.87682 -2.35852,-2.06301c-0.07663,-0.48432 -0.00544,-0.9579 0.18016,-1.37481c-0.22849,-2.24498 4.73448,-3.10599 6.22812,-4.63205c1.44679,-1.47822 3.17427,-2.43556 4.87077,-3.58725c2.94871,-2.00178 15.84124,-13.37564 18.96667,-6.58034c1.23895,2.69374 -5.91243,3.48622 -7.40173,4.33082c-5.37455,3.04797 -9.98079,7.24399 -15.14427,10.69024c-1.65744,1.10621 -3.05421,3.00397 -5.03481,3.22299z" data-paper-data="{&quot;index&quot;:null}" fill="url(#color-8)" stroke="none" stroke-width="0.5" stroke-linecap="butt"/><path d="M298.3399,209.1512c-0.32695,-0.68646 -2.71291,-5.2618 -1.23939,-5.8342c0.69606,-1.15739 2.19856,-1.53137 3.35595,-0.83532c0.18143,0.10909 0.34359,0.23801 0.48541,0.38231c0.5906,0.16677 1.03263,2.73076 1.38577,3.28694c1.67467,2.6376 3.2811,5.54259 5.39752,7.90505c2.12945,2.37702 4.25722,5.46156 6.91932,7.27022c0.64506,0.43827 3.79666,2.36207 4.01512,3.23971c0.64115,2.57585 -0.05252,2.77193 -2.20555,3.66736c-1.5079,0.62714 -5.50055,-3.56973 -6.47152,-4.52891c-4.24165,-4.19018 -9.0619,-9.13444 -11.64263,-14.55317z" data-paper-data="{&quot;index&quot;:null}" fill="url(#color-9)" stroke="none" stroke-width="0.5" stroke-linecap="butt"/><path d="M293.57545,217.6846c-0.59906,-0.46823 -4.777,-3.49667 -3.71414,-4.66682c0.10598,-1.3464 1.28338,-2.35196 2.62978,-2.24597c0.21105,0.01661 0.41372,0.05955 0.60505,0.12533c0.60291,-0.11452 2.14333,1.98227 2.70767,2.32224c2.67621,1.61223 5.41078,3.49419 8.3594,4.66297c2.96679,1.176 6.24801,2.98582 9.4376,3.41542c0.77288,0.1041 4.45185,0.41815 5.03922,1.10589c1.7239,2.01849 1.19077,2.50368 -0.33584,4.26629c-1.06919,1.23448 -6.51571,-0.73788 -7.81281,-1.16254c-5.66635,-1.85518 -12.18715,-4.12671 -16.91594,-7.8228z" data-paper-data="{&quot;index&quot;:null}" fill="url(#color-10)" stroke="none" stroke-width="0.5" stroke-linecap="butt"/><path d="M290.64095,222.35807c-0.59906,-0.46823 -4.777,-3.49666 -3.71414,-4.66681c0.10598,-1.3464 1.28339,-2.35196 2.62979,-2.24597c0.21105,0.01661 0.41371,0.05955 0.60504,0.12533c0.60291,-0.11451 2.14333,1.98227 2.70767,2.32224c2.67621,1.61222 5.41078,3.49419 8.3594,4.66297c2.96679,1.176 6.24801,2.98582 9.4376,3.41542c0.77288,0.1041 4.45186,0.41815 5.03923,1.10589c1.7239,2.01849 1.19077,2.50368 -0.33583,4.26629c-1.06919,1.23448 -6.51571,-0.73788 -7.81281,-1.16255c-5.66635,-1.85519 -12.18714,-4.12672 -16.91594,-7.82281z" data-paper-data="{&quot;index&quot;:null}" fill="url(#color-11)" stroke="none" stroke-width="0.5" stroke-linecap="butt"/><path d="M289.00304,230.47105c-0.69006,-0.31928 -5.44855,-2.31512 -4.68056,-3.69682c-0.20386,-1.33509 0.7132,-2.58265 2.04829,-2.78651c0.20927,-0.03197 0.41639,-0.03637 0.61768,-0.01596c0.56091,-0.249 2.53892,1.44124 3.16592,1.64356c2.97337,0.95943 6.06507,2.16817 9.20254,2.63371c3.15679,0.46841 6.76428,1.48226 9.96779,1.17315c0.77627,-0.0749 4.42991,-0.60813 5.15864,-0.07246c2.1388,1.57216 1.73036,2.16613 0.64595,4.23045c-0.75949,1.44578 -6.5123,0.7675 -7.87206,0.64983c-5.94011,-0.51406 -12.80711,-1.23865 -18.2542,-3.75894z" data-paper-data="{&quot;index&quot;:null}" fill="url(#color-12)" stroke="none" stroke-width="0.5" stroke-linecap="butt"/><path d="M272.38518,241.50133c-0.72533,0.22808 -5.58856,1.95308 -5.95001,0.41418c-1.04908,-0.85055 -1.21001,-2.39052 -0.35944,-3.43961c0.13333,-0.16445 0.28358,-0.30706 0.44624,-0.42739c0.24745,-0.5616 2.848,-0.64196 3.44799,-0.91415c2.84526,-1.29072 5.94578,-2.4766 8.58015,-4.24311c2.65059,-1.77738 6.0016,-3.45449 8.16363,-5.83854c0.52389,-0.5777 2.86816,-3.43041 3.76768,-3.52441c2.64008,-0.27589 2.73756,0.43832 3.32419,2.69514c0.41085,1.58059 -4.3015,4.94935 -5.38665,5.77715c-4.74045,3.61626 -10.30825,7.70039 -16.03376,9.50073z" data-paper-data="{&quot;index&quot;:null}" fill="url(#color-13)" stroke="none" stroke-width="0.5" stroke-linecap="butt"/><path d="M265.43174,235.41236c-0.76023,-0.01271 -5.91936,0.08787 -5.77622,-1.48644c-0.72671,-1.13839 -0.39297,-2.65034 0.74541,-3.37705c0.17843,-0.11391 0.36606,-0.20176 0.55838,-0.26456c0.41216,-0.45468 2.90498,0.29049 3.56022,0.22176c3.10728,-0.32592 6.42366,-0.47175 9.48114,-1.31571c3.07631,-0.84915 6.78548,-1.38195 9.58987,-2.96104c0.67955,-0.38264 3.80487,-2.34884 4.68802,-2.1539c2.59206,0.57213 2.78501,0.08505 2.62876,2.41162c-0.10943,1.62945 -5.97066,4.5328 -7.26173,4.97547c-5.64001,1.93378 -12.2128,4.05015 -18.21385,3.94983z" data-paper-data="{&quot;index&quot;:null}" fill="url(#color-14)" stroke="none" stroke-width="0.5" stroke-linecap="butt"/><path d="M262.91998,228.61493c-0.75014,-0.12409 -5.8682,-0.78144 -5.49566,-2.31771c-0.55185,-1.23268 0.00008,-2.67932 1.23275,-3.23117c0.19321,-0.0865 0.3917,-0.14588 0.59116,-0.17978c0.47441,-0.38929 2.83092,0.71352 3.48916,0.74165c3.12147,0.13344 6.42336,0.47571 9.57157,0.08939c3.16759,-0.38869 6.91481,-0.37158 9.9205,-1.52218c0.72832,-0.27882 4.10827,-1.76525 4.95328,-1.44287c2.48007,0.9462 2.24447,1.62746 1.74861,3.90593c-0.34728,1.59577 -6.0731,2.4731 -7.41515,2.72159c-5.86267,1.08548 -12.67483,2.21472 -18.59624,1.23514z" data-paper-data="{&quot;index&quot;:null}" fill="url(#color-15)" stroke="none" stroke-width="0.5" stroke-linecap="butt"/><path d="M260.72265,221.66494c-0.67665,-0.3468 -5.35093,-2.53259 -4.52794,-3.88225c-0.14995,-1.34222 0.81658,-2.55185 2.15879,-2.7018c0.21038,-0.02351 0.41752,-0.01958 0.61782,0.00893c0.57047,-0.2262 2.47884,1.54227 3.09719,1.76967c2.93233,1.07835 5.97286,2.41057 9.08905,3.00204c3.13538,0.59511 6.69914,1.75336 9.9125,1.57346c0.77864,-0.04359 4.45081,-0.42931 5.15738,0.13526c2.07376,1.65698 1.64176,2.23403 0.47512,4.25302c-0.81707,1.41403 -6.5379,0.50472 -7.89183,0.3324c-5.9146,-0.75278 -12.74686,-1.75321 -18.08809,-4.49073z" data-paper-data="{&quot;index&quot;:null}" fill="url(#color-16)" stroke="none" stroke-width="0.5" stroke-linecap="butt"/><path d="M257.92951,211.2772c0,-1.35056 1.09485,-2.44542 2.44542,-2.44542c0.2117,0 0.41711,0.0269 0.61301,0.07746c0.59206,-0.16146 2.29229,1.80795 2.88157,2.1026c2.79448,1.39723 5.6683,3.05879 8.69956,3.99258c3.04992,0.93954 6.46305,2.48629 9.67651,2.66427c0.77867,0.04313 4.47096,0.0675 5.11048,0.70702c1.87698,1.87698 1.38358,2.4025 0,4.27948c-0.96901,1.31458 -6.55352,-0.22427 -7.87996,-0.54584c-5.79446,-1.40479 -12.4734,-3.1576 -17.47767,-6.47119c-0.63395,-0.41977 -5.03668,-3.111 -4.06892,-4.36095z" data-paper-data="{&quot;index&quot;:null}" fill="url(#color-17)" stroke="none" stroke-width="0.5" stroke-linecap="butt"/><path d="M318.98357,126.46911c-0.31833,1.70523 -5.74671,2.58294 -7.17113,2.72395c-7.88645,0.78063 -15.48019,3.49827 -22.4191,7.48684c-5.58028,3.20762 -11.60497,8.73154 -14.05951,15.3c-0.63794,1.70716 -3.19427,11.03086 -4.79172,11.51221c-10.16614,3.06332 -3.31804,-12.97921 -1.01414,-16.5651c9.41676,-14.65664 19.51772,-21.71209 36.20053,-24.61258c3.26227,-0.56718 8.15612,-2.99755 11.19294,-2.37684c0.15911,0.03252 0.30651,0.08607 0.44398,0.15742c1.19711,0.62126 1.64253,2.59128 2.52953,3.76625z" data-paper-data="{&quot;index&quot;:null}" fill="url(#color-18)" stroke="none" stroke-width="0.5" stroke-linecap="butt"/><path d="M319.822,131.77916c-0.31833,1.70523 -5.74671,2.58292 -7.17113,2.72393c-7.88645,0.78063 -15.48019,3.49828 -22.4191,7.48685c-5.58028,3.20762 -11.60497,8.73154 -14.05951,15.3c-0.63794,1.70716 -3.19427,11.03086 -4.79171,11.51221c-10.16614,3.06332 -3.31804,-12.97922 -1.01414,-16.5651c9.41676,-14.65663 19.51771,-21.71209 36.20052,-24.61258c3.26227,-0.56718 8.15612,-2.99755 11.19294,-2.37684c0.15911,0.03252 0.30651,0.08607 0.44398,0.15742c1.19711,0.62126 1.64253,2.59128 2.52952,3.76625z" data-paper-data="{&quot;index&quot;:null}" fill="url(#color-19)" stroke="none" stroke-width="0.5" stroke-linecap="butt"/><path d="M320.52067,137.64817c-0.31833,1.70523 -5.74672,2.58293 -7.17114,2.72393c-7.88645,0.78063 -15.48019,3.49828 -22.4191,7.48685c-5.58028,3.20762 -11.60497,8.73154 -14.05951,15.3c-0.63793,1.70716 -3.19426,11.03086 -4.7917,11.5122c-10.16613,3.06332 -3.31804,-12.97921 -1.01414,-16.56509c9.41676,-14.65663 19.51772,-21.71208 36.20054,-24.61258c3.26227,-0.56718 8.15613,-2.99755 11.19295,-2.37684c0.15911,0.03251 0.30651,0.08606 0.44398,0.15741c1.19711,0.62125 1.64252,2.59128 2.52952,3.76625z" data-paper-data="{&quot;index&quot;:null}" fill="url(#color-20)" stroke="none" stroke-width="0.5" stroke-linecap="butt"/><path d="M308.10241,151.41072c2.2631,-0.36726 4.66359,-0.4734 6.64113,0.2443c0.16024,-0.0295 0.3254,-0.04492 0.49419,-0.04492c1.4977,0 2.71183,1.21411 2.71183,2.71182c0,0.99531 -0.5362,1.86536 -1.33549,2.3371c-0.47436,0.83013 -3.13968,0.39213 -4.04394,0.16951c-2.728,-0.6716 -8.14805,0.22755 -10.58596,1.51525c-3.22262,1.70219 -5.99941,3.21837 -8.88821,5.40459c-2.34791,1.77687 -10.48198,11.66667 -11.5387,4.26962c-0.36609,-2.56267 4.70898,-4.96549 5.99473,-6.53383c4.8433,-5.90788 13.29104,-8.89542 20.55041,-10.07345z" data-paper-data="{&quot;index&quot;:null}" fill="url(#color-21)" stroke="none" stroke-width="0.5" stroke-linecap="butt"/><path d="M308.43917,155.75128c2.2631,-0.36726 4.66359,-0.47339 6.64114,0.24431c0.16024,-0.0295 0.3254,-0.04492 0.49419,-0.04492c1.4977,0 2.71182,1.21412 2.71182,2.71183c0,0.99529 -0.5362,1.86535 -1.33548,2.33709c-0.47436,0.83013 -3.13968,0.39214 -4.04395,0.16952c-2.728,-0.6716 -8.14805,0.22755 -10.58596,1.51525c-3.22262,1.70219 -5.99941,3.21836 -8.88822,5.40459c-2.34791,1.77687 -10.48197,11.66667 -11.5387,4.26963c-0.36609,-2.56267 4.70898,-4.96548 5.99473,-6.53383c4.8433,-5.90787 13.29105,-8.89542 20.55041,-10.07345z" data-paper-data="{&quot;index&quot;:null}" fill="url(#color-22)" stroke="none" stroke-width="0.5" stroke-linecap="butt"/><path d="M308.50079,159.67915c2.2631,-0.36726 4.66359,-0.4734 6.64113,0.2443c0.16024,-0.02951 0.3254,-0.04492 0.49419,-0.04492c1.4977,0 2.71183,1.21412 2.71183,2.71182c0,0.99529 -0.5362,1.86536 -1.33548,2.33709c-0.47436,0.83013 -3.13968,0.39214 -4.04395,0.16952c-2.728,-0.6716 -8.14804,0.22755 -10.58595,1.51525c-3.22262,1.7022 -5.99941,3.21837 -8.88822,5.4046c-2.34791,1.77687 -10.48198,11.66667 -11.5387,4.26963c-0.36609,-2.56267 4.70898,-4.96549 5.99473,-6.53383c4.8433,-5.90787 13.29104,-8.89541 20.55041,-10.07345z" data-paper-data="{&quot;index&quot;:null}" fill="url(#color-23)" stroke="none" stroke-width="0.5" stroke-linecap="butt"/><path d="M308.69997,164.15728c2.26311,-0.36726 4.66359,-0.47339 6.64114,0.24431c0.16024,-0.0295 0.3254,-0.04492 0.49419,-0.04492c1.49769,0 2.71183,1.21412 2.71183,2.71183c0,0.99529 -0.5362,1.86535 -1.33548,2.33708c-0.47436,0.83013 -3.13968,0.39214 -4.04395,0.16952c-2.728,-0.6716 -8.14805,0.22755 -10.58596,1.51525c-3.22262,1.70219 -5.9994,3.21837 -8.88821,5.40459c-2.34791,1.77687 -10.48198,11.66667 -11.5387,4.26962c-0.36609,-2.56267 4.70898,-4.96549 5.99473,-6.53383c4.8433,-5.90787 13.29104,-8.89541 20.55041,-10.07345z" data-paper-data="{&quot;index&quot;:null}" fill="url(#color-24)" stroke="none" stroke-width="0.5" stroke-linecap="butt"/><path d="M258.1211,169.52528c4.24927,6.09163 10.07384,10.92451 14.6257,16.84777c0.1302,0.14214 0.24925,0.29819 0.35495,0.46764c0.01481,0.02375 0.02928,0.04762 0.0434,0.07161c1.72631,1.75763 0.81849,3.27049 -0.70233,4.05105c-0.11103,0.09251 -0.22969,0.17855 -0.35577,0.25719c-1.06682,0.66548 -2.37534,0.6214 -3.37354,-0.0044c-0.07067,-0.03785 -0.13821,-0.07932 -0.20223,-0.12446c-1.69101,-1.19243 -3.90644,-4.55233 -5.10632,-6.39653c-2.15217,-3.30786 -6.25942,-5.70139 -8.80508,-8.75003c-1.00129,-1.19914 -1.48845,-2.62503 -2.5985,-3.75522c-1.50842,-1.53579 -2.45358,-4.52208 -0.02073,-6.0397c2.94566,-1.83753 4.82143,1.48413 6.14047,3.37506z" data-paper-data="{&quot;index&quot;:null}" fill="url(#color-25)" stroke="none" stroke-width="0.5" stroke-linecap="butt"/><path d="M321.78763,144.82874c-0.31508,1.57538 -5.68806,2.38625 -7.09794,2.51651c-7.80595,0.7212 -15.32218,3.2319 -22.19027,6.91674c-5.52335,2.96337 -11.48653,8.06665 -13.91602,14.13493c-0.63142,1.57716 -3.16167,10.19087 -4.74281,10.63556c-10.06237,2.83005 -3.28418,-11.99086 -1.00379,-15.30368c9.32066,-13.54056 19.31851,-20.05874 35.83106,-22.73836c3.22897,-0.524 8.07287,-2.76929 11.0787,-2.19585c0.15749,0.03004 0.30336,0.07951 0.43944,0.14543c1.18489,0.57395 1.62578,2.39396 2.50371,3.47946z" data-paper-data="{&quot;index&quot;:null}" fill="url(#color-26)" stroke="none" stroke-width="0.5" stroke-linecap="butt"/><path d="M263.50233,165.48126c3.33321,6.63732 8.40571,12.25444 12.06248,18.76845c0.1085,0.15932 0.20398,0.33083 0.28433,0.51367c0.01126,0.02562 0.02215,0.05131 0.03269,0.07707c1.45684,1.98672 0.34175,3.35399 -1.27517,3.90874c-0.12313,0.07566 -0.2529,0.14382 -0.38893,0.2036c-1.15112,0.50587 -2.43984,0.27484 -3.33814,-0.48743c-0.06453,-0.04757 -0.12544,-0.09828 -0.18234,-0.15213c-1.50283,-1.42228 -3.2143,-5.0648 -4.13774,-7.0618c-1.65633,-3.58195 -5.37852,-6.53895 -7.4614,-9.92069c-0.81928,-1.33016 -1.09724,-2.81113 -2.034,-4.08861c-1.27295,-1.73595 -1.78077,-4.82683 0.84434,-5.98043c3.17843,-1.39678 4.55923,2.15924 5.5939,4.21956z" data-paper-data="{&quot;index&quot;:null}" fill="url(#color-27)" stroke="none" stroke-width="0.5" stroke-linecap="butt"/><path d="M270.18058,162.53973c2.50853,6.99082 6.86668,13.17862 9.71129,20.08605c0.08848,0.17124 0.1626,0.353 0.22032,0.5442c0.00809,0.02679 0.0158,0.05362 0.02316,0.08046c1.20664,2.14789 -0.06518,3.37072 -1.73719,3.72644c-0.13136,0.06026 -0.26838,0.11228 -0.41064,0.15521c-1.20373,0.36338 -2.45519,-0.02136 -3.25502,-0.88639c-0.05833,-0.055 -0.11267,-0.11266 -0.16267,-0.17299c-1.32035,-1.59312 -2.58013,-5.41544 -3.25601,-7.50922c-1.21232,-3.75555 -4.55079,-7.13982 -6.21069,-10.74804c-0.6529,-1.41924 -0.75024,-2.92291 -1.52613,-4.30403c-1.05435,-1.87678 -1.18574,-5.00633 1.5593,-5.83498c3.32367,-1.00332 4.26558,2.69324 5.04427,4.8633z" data-paper-data="{&quot;index&quot;:null}" fill="url(#color-28)" stroke="none" stroke-width="0.5" stroke-linecap="butt"/><path d="M277.25351,159.61662c1.55367,7.26295 5.04753,13.97674 6.94539,21.20188c0.06486,0.18152 0.11406,0.37154 0.14576,0.56872c0.00445,0.02765 0.00852,0.05525 0.01223,0.08283c0.90936,2.28964 -0.51419,3.33192 -2.21872,3.46144c-0.13822,0.04221 -0.28096,0.07547 -0.42768,0.09905c-1.24143,0.19957 -2.43039,-0.34865 -3.1077,-1.31264c-0.05046,-0.06229 -0.09664,-0.1267 -0.13814,-0.19315c-1.09607,-1.75499 -1.83474,-5.71119 -2.22531,-7.87642c-0.70058,-3.88369 -3.5578,-7.683 -4.7216,-11.48039c-0.45776,-1.49364 -0.35367,-2.99687 -0.93841,-4.46914c-0.7946,-2.00064 -0.5074,-5.11976 2.32365,-5.57487c3.4278,-0.55104 3.86825,3.23814 4.35053,5.49267z" data-paper-data="{&quot;index&quot;:null}" fill="url(#color-29)" stroke="none" stroke-width="0.5" stroke-linecap="butt"/><path d="M284.33746,157.65747c0.3812,7.41747 2.76518,14.60072 3.49221,22.03549c0.03524,0.18951 0.05365,0.38493 0.05365,0.58465c0,0.028 -0.00035,0.0559 -0.00108,0.08372c0.53443,2.40496 -1.03653,3.20807 -2.74,3.06542c-0.14317,0.01973 -0.28938,0.02992 -0.43797,0.02992c-1.25736,0 -2.34425,-0.72996 -2.85996,-1.78924c-0.03994,-0.06951 -0.0753,-0.14043 -0.10573,-0.21263c-0.80363,-1.9067 -0.90501,-5.93 -0.94698,-8.12977c-0.07527,-3.94565 -2.29326,-8.1503 -2.83958,-12.08426c-0.2149,-1.54737 0.12646,-3.01502 -0.21719,-4.56144c-0.46697,-2.1014 0.31165,-5.13538 3.17905,-5.13538c3.4718,0 3.30525,3.81105 3.42359,6.11355z" data-paper-data="{&quot;index&quot;:null}" fill="url(#color-30)" stroke="none" stroke-width="0.5" stroke-linecap="butt"/><path d="M308.59106,167.70541c2.26311,-0.36726 4.66359,-0.4734 6.64114,0.2443c0.16024,-0.02951 0.3254,-0.04493 0.49419,-0.04493c1.4977,0 2.71182,1.21412 2.71182,2.71183c0,0.99529 -0.5362,1.86536 -1.33548,2.33709c-0.47436,0.83013 -3.13968,0.39213 -4.04394,0.16951c-2.728,-0.6716 -8.14805,0.22756 -10.58596,1.51526c-3.22262,1.7022 -5.99941,3.21837 -8.88822,5.4046c-2.34789,1.77687 -10.48198,11.66666 -11.5387,4.26961c-0.36609,-2.56267 4.70898,-4.96549 5.99473,-6.53383c4.8433,-5.90788 13.29105,-8.89541 20.55042,-10.07344z" data-paper-data="{&quot;index&quot;:null}" fill="url(#color-31)" stroke="none" stroke-width="0.5" stroke-linecap="butt"/><path d="M289.50885,182.50999c14.0845,0 25.50224,10.59015 25.50224,23.65376c0,13.06361 -11.41774,23.65376 -25.50224,23.65376c-14.0845,0 -25.50223,-10.59015 -25.50223,-23.65376c0,-13.06361 11.41774,-23.65376 25.50223,-23.65376z" data-paper-data="{&quot;index&quot;:null}" fill="url(#color-32)" stroke="none" stroke-width="0" stroke-linecap="butt"/><path d="M310.44118,223.51467v-75.78887c0,0 6.94813,-1.25765 8.5804,-1.25765c0.81988,0 0.58993,1.25765 0.58993,1.25765v75.78886z" data-paper-data="{&quot;index&quot;:null}" fill="url(#color-33)" stroke="none" stroke-width="0" stroke-linecap="butt"/><path d="M289.94902,179.42876c12.73393,0 18.05682,9.42347 18.05682,22.48708c0,13.06361 -20.55682,14.15377 -20.55682,14.15377c0,0 -20.55682,0.07652 -20.55682,-12.9871c0,-13.06361 10.32289,-23.65375 23.05682,-23.65375z" data-paper-data="{&quot;index&quot;:null}" fill="#cfcfcf" stroke="none" stroke-width="0" stroke-linecap="butt"/><path d="M310.18492,194.03651c-0.70753,-0.30946 -0.1358,-1.64155 -0.50944,-2.17969c-0.83512,-1.20281 -3.19475,-2.88001 -4.47535,-3.92797c-2.23017,-1.82503 -4.78097,-2.74442 -7.50152,-4.03734c-0.82716,-0.3931 -2.59734,-1.65769 -3.50753,-1.53128c-3.52782,0.48996 -7.56315,0.10833 -10.963,0.72266c-4.35846,0.78753 -8.71071,4.32471 -11.47165,6.82813c-1.04082,0.94375 -1.82619,3.74224 -3.24429,4.10407c-1.31709,0.33605 -4.37772,6.46701 -4.99224,6.02311c-0.36996,-0.26722 -0.80839,-3.66641 1.29971,-7.43629c2.10809,-3.76987 6.20362,-7.01564 7.4398,-8.19244c4.36554,-4.15588 9.60162,-4.56167 16.13427,-5.06425c2.39874,-0.18454 5.20725,-0.97719 7.54597,-0.35882c3.87779,1.02531 7.29021,3.29962 10.5492,4.95043c2.86201,1.44973 8.85785,6.32023 8.76301,9.31914c-0.0319,1.00874 0.50372,4.57405 -0.98858,5.22675z" data-paper-data="{&quot;index&quot;:null}" fill="url(#color-34)" stroke="none" stroke-width="0.5" stroke-linecap="butt"/><path d="M311.28963,198.46552c-0.73342,-0.35953 -0.14077,-1.90715 -0.52808,-2.53235c-0.86569,-1.39742 -3.31169,-3.34602 -4.63916,-4.56354c-2.3118,-2.12033 -4.95597,-3.18847 -7.77609,-4.69059c-0.85744,-0.4567 -2.6924,-1.92592 -3.63591,-1.77905c-3.65695,0.56923 -7.83999,0.12587 -11.36427,0.83959c-4.51799,0.91496 -9.02953,5.02446 -11.89152,7.93293c-1.07892,1.09645 -4.02722,9.68331 -5.49722,10.10367c-2.18725,0.62546 -3.35656,-2.4194 -1.6935,-6.97739c1.66305,-4.558 6.43068,-8.15079 7.71211,-9.518c4.52532,-4.8283 9.95304,-5.29976 16.72479,-5.88367c2.48653,-0.2144 5.39783,-1.1353 7.82216,-0.41687c4.01972,1.1912 7.55703,3.83352 10.9353,5.75142c2.96677,1.68429 8.26027,6.30974 8.16197,9.79388c-0.03306,1.17195 0.7466,6.89507 -0.8003,7.65339z" data-paper-data="{&quot;index&quot;:null}" fill="url(#color-35)" stroke="none" stroke-width="0.5" stroke-linecap="butt"/><path d="M310.40127,206.88964c-0.86569,-1.62894 -13.47459,2.29615 -22.24875,1.95092c-8.77416,-0.34523 -20.59969,-4.1847 -22.06969,-3.6947c-2.18725,0.72908 -0.95013,-0.55993 -1.67921,-2.74718c-0.99484,-2.98451 6.43068,-9.50117 7.7121,-11.0949c4.52532,-5.62823 9.95305,-6.17779 16.7248,-6.85843c1.23212,-0.12384 6.97566,-0.12523 10.89427,1.16385c3.98953,1.3124 6.15892,3.92665 7.8632,5.05451c2.96677,1.96333 8.26027,7.35511 8.16196,11.41648c-0.03306,1.36611 -0.67618,2.58171 -2.22308,3.46565c0,0 -2.74826,2.07259 -3.13558,1.3438z" data-paper-data="{&quot;index&quot;:null}" fill="url(#color-36)" stroke="none" stroke-width="0.5" stroke-linecap="butt"/><g stroke="none" stroke-width="0.5" stroke-linecap="butt"><path d="M318.00227,261.75856c1.96116,0.39223 1.56893,2.3534 1.56893,2.3534l-0.21116,0.85776c0,7.11489 -0.2629,14.15792 -0.25,21.25c0,13.23233 1.75,26.2856 1.75,39.5c0,0 0,2 -2,2c-2,0 -2,-2 -2,-2c0,-13.21192 -1.75,-26.26741 -1.75,-39.5c0.01461,-7.08755 0.25,-14.1395 0.25,-21.25l0.28884,-1.64223c0,0 0.39223,-1.96116 2.35339,-1.56893z" fill="url(#color-37)"/><path d="M313.75227,262.25856c1.96116,0.39223 1.56893,2.3534 1.56893,2.3534l-0.21116,0.85776c0,7.11489 -0.2629,14.15792 -0.25,21.25c0,13.23233 1.75,26.2856 1.75,39.5c0,0 0,2 -2,2c-2,0 -2,-2 -2,-2c0,-13.21192 -1.75,-26.26741 -1.75,-39.5c0.01461,-7.08755 0.25,-14.1395 0.25,-21.25l0.28884,-1.64223c0,0 0.39223,-1.96116 2.35339,-1.56893z" fill="url(#color-38)"/><path d="M326.25227,262.25856c1.96116,0.39223 1.56893,2.3534 1.56893,2.3534l-0.21116,0.85776c0,7.11489 -0.2629,14.15792 -0.25,21.25c0,13.23233 1.75,26.2856 1.75,39.5c0,0 0,2 -2,2c-2,0 -2,-2 -2,-2c0,-13.21192 -1.75,-26.26741 -1.75,-39.5c0.01461,-7.08755 0.25,-14.1395 0.25,-21.25l0.28884,-1.64223c0,0 0.39223,-1.96116 2.35339,-1.56893z" fill="url(#color-39)"/><path d="M322.00227,262.75856c1.96116,0.39223 1.56893,2.3534 1.56893,2.3534l-0.21116,0.85776c0,7.11489 -0.2629,14.15792 -0.25,21.25c0,13.23233 1.75,26.2856 1.75,39.5c0,0 0,2 -2,2c-2,0 -2,-2 -2,-2c0,-13.21192 -1.75,-26.26741 -1.75,-39.5c0.01461,-7.08755 0.25,-14.1395 0.25,-21.25l0.28884,-1.64223c0,0 0.39223,-1.96116 2.35339,-1.56893z" fill="url(#color-40)"/><path d="M301.50227,262.25856c1.96116,0.39223 1.56893,2.3534 1.56893,2.3534l-0.21116,0.85776c0,7.11489 -0.2629,14.15792 -0.25,21.25c0,13.23233 1.75,26.2856 1.75,39.5c0,0 0,2 -2,2c-2,0 -2,-2 -2,-2c0,-13.21192 -1.75,-26.26741 -1.75,-39.5c0.01461,-7.08755 0.25,-14.1395 0.25,-21.25l0.28884,-1.64223c0,0 0.39223,-1.96116 2.35339,-1.56893z" fill="url(#color-41)"/><path d="M297.25227,262.75856c1.96116,0.39223 1.56893,2.3534 1.56893,2.3534l-0.21116,0.85776c0,7.11489 -0.2629,14.15792 -0.25,21.25c0,13.23233 1.75,26.2856 1.75,39.5c0,0 0,2 -2,2c-2,0 -2,-2 -2,-2c0,-13.21192 -1.75,-26.26741 -1.75,-39.5c0.01461,-7.08755 0.25,-14.1395 0.25,-21.25l0.28884,-1.64223c0,0 0.39223,-1.96116 2.35339,-1.56893z" fill="url(#color-42)"/><path d="M309.75227,262.75856c1.96116,0.39223 1.56893,2.3534 1.56893,2.3534l-0.21116,0.85776c0,7.11489 -0.2629,14.15792 -0.25,21.25c0,13.23233 1.75,26.2856 1.75,39.5c0,0 0,2 -2,2c-2,0 -2,-2 -2,-2c0,-13.21192 -1.75,-26.26741 -1.75,-39.5c0.01461,-7.08755 0.25,-14.1395 0.25,-21.25l0.28884,-1.64223c0,0 0.39223,-1.96116 2.35339,-1.56893z" fill="url(#color-43)"/><path d="M305.50227,263.25856c1.96116,0.39223 1.56893,2.3534 1.56893,2.3534l-0.21116,0.85776c0,7.11489 -0.2629,14.15792 -0.25,21.25c0,13.23233 1.75,26.2856 1.75,39.5c0,0 0,2 -2,2c-2,0 -2,-2 -2,-2c0,-13.21192 -1.75,-26.26741 -1.75,-39.5c0.01461,-7.08755 0.25,-14.1395 0.25,-21.25l0.28884,-1.64223c0,0 0.39223,-1.96116 2.35339,-1.56893z" fill="url(#color-44)"/><path d="M350.75227,262.25856c1.96116,0.39223 1.56893,2.3534 1.56893,2.3534l-0.21116,0.85776c0,7.11489 -0.2629,14.15792 -0.25,21.25c0,13.23233 1.75,26.2856 1.75,39.5c0,0 0,2 -2,2c-2,0 -2,-2 -2,-2c0,-13.21192 -1.75,-26.26741 -1.75,-39.5c0.01461,-7.08755 0.25,-14.1395 0.25,-21.25l0.28884,-1.64223c0,0 0.39223,-1.96116 2.35339,-1.56893z" fill="url(#color-45)"/><path d="M346.50227,262.75856c1.96116,0.39223 1.56893,2.3534 1.56893,2.3534l-0.21116,0.85776c0,7.11489 -0.2629,14.15792 -0.25,21.25c0,13.23233 1.75,26.2856 1.75,39.5c0,0 0,2 -2,2c-2,0 -2,-2 -2,-2c0,-13.21192 -1.75,-26.26741 -1.75,-39.5c0.01461,-7.08755 0.25,-14.1395 0.25,-21.25l0.28884,-1.64223c0,0 0.39223,-1.96116 2.35339,-1.56893z" fill="url(#color-46)"/><path d="M359.00227,262.75856c1.96116,0.39223 1.56893,2.3534 1.56893,2.3534l-0.21116,0.85776c0,7.11489 -0.2629,14.15792 -0.25,21.25c0,13.23233 1.75,26.2856 1.75,39.5c0,0 0,2 -2,2c-2,0 -2,-2 -2,-2c0,-13.21192 -1.75,-26.26741 -1.75,-39.5c0.01461,-7.08755 0.25,-14.1395 0.25,-21.25l0.28884,-1.64223c0,0 0.39223,-1.96116 2.35339,-1.56893z" fill="url(#color-47)"/><path d="M354.75227,263.25856c1.96116,0.39223 1.56893,2.3534 1.56893,2.3534l-0.21116,0.85776c0,7.11489 -0.2629,14.15792 -0.25,21.25c0,13.23233 1.75,26.2856 1.75,39.5c0,0 0,2 -2,2c-2,0 -2,-2 -2,-2c0,-13.21192 -1.75,-26.26741 -1.75,-39.5c0.01461,-7.08755 0.25,-14.1395 0.25,-21.25l0.28884,-1.64223c0,0 0.39223,-1.96116 2.35339,-1.56893z" fill="url(#color-48)"/><path d="M334.25227,262.75856c1.96116,0.39223 1.56893,2.3534 1.56893,2.3534l-0.21116,0.85776c0,7.11489 -0.2629,14.15792 -0.25,21.25c0,13.23233 1.75,26.2856 1.75,39.5c0,0 0,2 -2,2c-2,0 -2,-2 -2,-2c0,-13.21192 -1.75,-26.26741 -1.75,-39.5c0.01461,-7.08755 0.25,-14.1395 0.25,-21.25l0.28884,-1.64223c0,0 0.39223,-1.96116 2.35339,-1.56893z" fill="url(#color-49)"/><path d="M330.00227,263.25856c1.96116,0.39223 1.56893,2.3534 1.56893,2.3534l-0.21116,0.85776c0,7.11489 -0.2629,14.15792 -0.25,21.25c0,13.23233 1.75,26.2856 1.75,39.5c0,0 0,2 -2,2c-2,0 -2,-2 -2,-2c0,-13.21192 -1.75,-26.26741 -1.75,-39.5c0.01461,-7.08755 0.25,-14.1395 0.25,-21.25l0.28884,-1.64223c0,0 0.39223,-1.96116 2.35339,-1.56893z" fill="url(#color-50)"/><path d="M342.50227,263.25856c1.96116,0.39223 1.56893,2.3534 1.56893,2.3534l-0.21116,0.85776c0,7.11489 -0.2629,14.15792 -0.25,21.25c0,13.23233 1.75,26.2856 1.75,39.5c0,0 0,2 -2,2c-2,0 -2,-2 -2,-2c0,-13.21192 -1.75,-26.26741 -1.75,-39.5c0.01461,-7.08755 0.25,-14.1395 0.25,-21.25l0.28884,-1.64223c0,0 0.39223,-1.96116 2.35339,-1.56893z" fill="url(#color-51)"/><path d="M338.25227,263.75856c1.96116,0.39223 1.56893,2.3534 1.56893,2.3534l-0.21116,0.85776c0,7.11489 -0.2629,14.15792 -0.25,21.25c0,13.23233 1.75,26.2856 1.75,39.5c0,0 0,2 -2,2c-2,0 -2,-2 -2,-2c0,-13.21192 -1.75,-26.26741 -1.75,-39.5c0.01461,-7.08755 0.25,-14.1395 0.25,-21.25l0.28884,-1.64223c0,0 0.39223,-1.96116 2.35339,-1.56893z" fill="url(#color-52)"/><path d="M293.50227,263.75856c1.96116,0.39223 1.56893,2.3534 1.56893,2.3534l-0.21116,0.85776c0,7.11489 -0.2629,14.15792 -0.25,21.25c0,13.23233 1.75,26.2856 1.75,39.5c0,0 0,2 -2,2c-2,0 -2,-2 -2,-2c0,-13.21192 -1.75,-26.26741 -1.75,-39.5c0.01461,-7.08755 0.25,-14.1395 0.25,-21.25l0.28884,-1.64223c0,0 0.39223,-1.96116 2.35339,-1.56893z" fill="url(#color-53)"/><path d="M281.25227,263.75856c1.96116,0.39223 1.56893,2.3534 1.56893,2.3534l-0.21116,0.85776c0,7.11489 -0.2629,14.15792 -0.25,21.25c0,13.23233 1.75,26.2856 1.75,39.5c0,0 0,2 -2,2c-2,0 -2,-2 -2,-2c0,-13.21192 -1.75,-26.26741 -1.75,-39.5c0.01461,-7.08755 0.25,-14.1395 0.25,-21.25l0.28884,-1.64223c0,0 0.39223,-1.96116 2.35339,-1.56893z" fill="url(#color-54)"/><path d="M277.00227,264.25856c1.96116,0.39223 1.56893,2.3534 1.56893,2.3534l-0.21116,0.85776c0,7.11489 -0.2629,14.15792 -0.25,21.25c0,13.23233 1.75,26.2856 1.75,39.5c0,0 0,2 -2,2c-2,0 -2,-2 -2,-2c0,-13.21192 -1.75,-26.26741 -1.75,-39.5c0.01461,-7.08755 0.25,-14.1395 0.25,-21.25l0.28884,-1.64223c0,0 0.39223,-1.96116 2.35339,-1.56893z" fill="url(#color-55)"/><path d="M289.50227,264.25856c1.96116,0.39223 1.56893,2.3534 1.56893,2.3534l-0.21116,0.85776c0,7.11489 -0.2629,14.15792 -0.25,21.25c0,13.23233 1.75,26.2856 1.75,39.5c0,0 0,2 -2,2c-2,0 -2,-2 -2,-2c0,-13.21192 -1.75,-26.26741 -1.75,-39.5c0.01461,-7.08755 0.25,-14.1395 0.25,-21.25l0.28884,-1.64223c0,0 0.39223,-1.96116 2.35339,-1.56893z" fill="url(#color-56)"/><path d="M285.25227,264.75856c1.96116,0.39223 1.56893,2.3534 1.56893,2.3534l-0.21116,0.85776c0,7.11489 -0.2629,14.15792 -0.25,21.25c0,13.23233 1.75,26.2856 1.75,39.5c0,0 0,2 -2,2c-2,0 -2,-2 -2,-2c0,-13.21192 -1.75,-26.26741 -1.75,-39.5c0.01461,-7.08755 0.25,-14.1395 0.25,-21.25l0.28884,-1.64223c0,0 0.39223,-1.96116 2.35339,-1.56893z" fill="url(#color-57)"/></g><g stroke="#000000" stroke-width="0" stroke-linecap="round"><path d="M283.29102,249.2123c0,0 -0.74659,17.73976 -2.25,17.75c-1.25128,0.00852 -1.625,-17.875 -1.625,-17.875z" data-paper-data="{&quot;index&quot;:null}" fill="url(#color-58)"/><path d="M286.41602,249.9623c0,0 -0.74659,17.73976 -2.25,17.75c-1.25128,0.00852 -1.625,-17.875 -1.625,-17.875z" data-paper-data="{&quot;index&quot;:null}" fill="url(#color-59)"/><path d="M289.41602,249.9623c0,0 -0.74659,17.73976 -2.25,17.75c-1.25128,0.00852 -1.625,-17.875 -1.625,-17.875z" data-paper-data="{&quot;index&quot;:null}" fill="url(#color-60)"/><path d="M292.91602,250.2123c0,0 -0.74659,17.73976 -2.25,17.75c-1.25128,0.00852 -1.625,-17.875 -1.625,-17.875z" data-paper-data="{&quot;index&quot;:null}" fill="url(#color-61)"/><path d="M296.41602,251.5873c0,0 -0.74659,17.73976 -2.25,17.75c-1.25128,0.00852 -1.625,-17.875 -1.625,-17.875z" data-paper-data="{&quot;index&quot;:null}" fill="url(#color-62)"/><path d="M300.41602,252.0873c0,0 -0.74659,17.73976 -2.25,17.75c-1.25128,0.00852 -1.625,-17.875 -1.625,-17.875z" data-paper-data="{&quot;index&quot;:null}" fill="url(#color-63)"/><path d="M315.04102,253.2123c0,0 -0.74659,17.73976 -2.25,17.75c-1.25128,0.00852 -1.625,-17.875 -1.625,-17.875z" data-paper-data="{&quot;index&quot;:null}" fill="url(#color-64)"/><path d="M305.16602,252.9623c0,0 -0.74659,17.73976 -2.25,17.75c-1.25128,0.00852 -1.625,-17.875 -1.625,-17.875z" data-paper-data="{&quot;index&quot;:null}" fill="url(#color-65)"/><path d="M309.66602,253.2123c0,0 -0.74659,17.73976 -2.25,17.75c-1.25128,0.00852 -1.625,-17.875 -1.625,-17.875z" data-paper-data="{&quot;index&quot;:null}" fill="url(#color-66)"/><path d="M320.16602,252.9623c0,0 -0.74659,17.73976 -2.25,17.75c-1.25128,0.00852 -1.625,-17.875 -1.625,-17.875z" data-paper-data="{&quot;index&quot;:null}" fill="url(#color-67)"/></g><path d="M361.66602,249.3373c0,0 -0.37372,17.88352 -1.625,17.875c-1.50341,-0.01024 -2.25,-17.75 -2.25,-17.75z" fill="url(#color-68)" stroke="#000000" stroke-width="0" stroke-linecap="round"/><path d="M358.54102,250.0873c0,0 -0.37372,17.88352 -1.625,17.875c-1.50341,-0.01024 -2.25,-17.75 -2.25,-17.75z" fill="url(#color-69)" stroke="#000000" stroke-width="0" stroke-linecap="round"/><path d="M355.54102,250.0873c0,0 -0.37372,17.88352 -1.625,17.875c-1.50341,-0.01024 -2.25,-17.75 -2.25,-17.75z" fill="url(#color-70)" stroke="#000000" stroke-width="0" stroke-linecap="round"/><path d="M352.04102,250.3373c0,0 -0.37372,17.88352 -1.625,17.875c-1.50341,-0.01024 -2.25,-17.75 -2.25,-17.75z" fill="url(#color-71)" stroke="#000000" stroke-width="0" stroke-linecap="round"/><path d="M348.54102,251.7123c0,0 -0.37372,17.88352 -1.625,17.875c-1.50341,-0.01024 -2.25,-17.75 -2.25,-17.75z" fill="url(#color-72)" stroke="#000000" stroke-width="0" stroke-linecap="round"/><path d="M344.54102,252.2123c0,0 -0.37372,17.88352 -1.625,17.875c-1.50341,-0.01024 -2.25,-17.75 -2.25,-17.75z" fill="url(#color-73)" stroke="#000000" stroke-width="0" stroke-linecap="round"/><path d="M329.91602,253.3373c0,0 -0.37372,17.88352 -1.625,17.875c-1.50341,-0.01024 -2.25,-17.75 -2.25,-17.75z" fill="url(#color-74)" stroke="#000000" stroke-width="0" stroke-linecap="round"/><path d="M339.79102,253.0873c0,0 -0.37372,17.88352 -1.625,17.875c-1.50341,-0.01024 -2.25,-17.75 -2.25,-17.75z" fill="url(#color-75)" stroke="#000000" stroke-width="0" stroke-linecap="round"/><path d="M335.29102,253.3373c0,0 -0.37372,17.88352 -1.625,17.875c-1.50341,-0.01024 -2.25,-17.75 -2.25,-17.75z" fill="url(#color-76)" stroke="#000000" stroke-width="0" stroke-linecap="round"/><path d="M324.79102,253.0873c0,0 -0.37372,17.88352 -1.625,17.875c-1.50341,-0.01024 -2.25,-17.75 -2.25,-17.75z" fill="url(#color-77)" stroke="#000000" stroke-width="0" stroke-linecap="round"/><path d="M329.94941,230.36751c2.13635,4.34633 2.32975,9.67849 2.38217,14.28418c0.012,1.0543 0.24666,5.52559 -1.28721,6.02379c-2.1901,0.71135 -2.82793,0.99027 -4.26054,-0.75125c-0.48812,-0.59338 0.3454,-3.37529 0.48337,-3.96865c0.56937,-2.44869 -0.17761,-5.28786 -0.40445,-7.7472c-0.22544,-2.44429 -1.21201,-4.8979 -1.95385,-7.24543c-0.15643,-0.49503 -1.72215,-2.1198 -1.42385,-2.53686c-0.00484,-0.15625 0.0161,-0.3155 0.06529,-0.47475c0.31376,-1.01601 1.65812,-1.64746 3.00271,-1.41037c1.46924,-0.5086 3.12573,3.27593 3.39637,3.82654z" fill="url(#color-78)" stroke="none" stroke-width="0.5" stroke-linecap="butt"/><path d="M348.78464,244.28599c-6.13547,0.06764 -12.84254,-2.13417 -18.59708,-4.14391c-1.31729,-0.46006 -6.96598,-2.23817 -7.06837,-3.9046c-0.14619,-2.37937 -0.27816,-3.1044 2.37505,-3.67421c0.904,-0.19414 4.08758,1.83408 4.78005,2.22921c2.85773,1.63063 6.64654,2.19688 9.78652,3.08288c3.12075,0.88058 6.51025,1.04896 9.68493,1.40023c0.66946,0.07407 3.22219,-0.6732 3.6409,-0.20598c0.19626,0.0653 0.38755,0.1562 0.5693,0.2737c1.15954,0.74955 1.49193,2.29718 0.74238,3.45672c0.13717,1.61024 -5.13642,1.4774 -5.91368,1.48597z" fill="url(#color-79)" stroke="none" stroke-width="0.5" stroke-linecap="butt"/><path d="M341.84941,222.42112c2.13635,5.75192 2.32976,12.8085 2.38217,18.90366c0.012,1.39526 0.24665,7.31256 -1.28722,7.97188c-2.1901,0.9414 -2.82792,1.31053 -4.26054,-0.9942c-0.48812,-0.78527 0.3454,-4.46686 0.48336,-5.2521c0.56937,-3.24059 -0.17761,-6.99794 -0.40445,-10.25263c-0.22544,-3.23477 -1.212,-6.48188 -1.95385,-9.58859c-0.15643,-0.65512 -1.72216,-2.80534 -1.42385,-3.35728c-0.00484,-0.20678 0.0161,-0.41753 0.06529,-0.62829c0.31376,-1.34458 1.65812,-2.18025 3.00271,-1.86648c1.46924,-0.67308 3.12573,4.33536 3.39637,5.06403z" fill="url(#color-80)" stroke="none" stroke-width="0.5" stroke-linecap="butt"/><path d="M351.02339,248.43426c-1.91531,-0.69397 -2.84676,-2.91557 -4.22758,-4.41336c-4.30172,-4.66613 -7.86944,-9.94324 -12.47667,-14.2644c-1.27668,-1.19741 -8.19189,-3.70479 -6.31297,-6.08338c4.73982,-6.00029 14.81468,8.40179 17.26317,11.1c1.40869,1.55238 2.89492,2.91909 3.97697,4.73584c1.11708,1.87556 5.84134,3.92472 5.07438,6.10043c0.08416,0.45889 0.04099,0.94657 -0.15163,1.40937c-0.47178,1.1335 -1.68121,1.73607 -2.83965,1.48263c-0.10149,-0.00833 -0.20346,-0.02997 -0.30602,-0.06713z" fill="url(#color-81)" stroke="none" stroke-width="0.5" stroke-linecap="butt"/><path d="M357.33298,245.7168c-2.02481,-0.22391 -3.45276,-2.16403 -5.14719,-3.29493c-5.27873,-3.52317 -9.98778,-7.81284 -15.48228,-10.92884c-1.52254,-0.86345 -8.83354,-1.67362 -7.56693,-4.42748c3.19519,-6.94696 16.37546,4.68075 19.38999,6.72721c1.73436,1.1774 3.5004,2.15611 4.97948,3.66732c1.52697,1.56012 6.60071,2.44035 6.36712,4.73543c0.18975,0.42621 0.26253,0.91036 0.18419,1.40549c-0.19187,1.21267 -1.2256,2.08286 -2.41116,2.10906c-0.10059,0.01578 -0.20481,0.01874 -0.31322,0.00675z" fill="url(#color-82)" stroke="none" stroke-width="0.5" stroke-linecap="butt"/><path d="M338.71805,210.14463c-2.63833,5.53966 -7.56617,10.59428 -11.90249,14.87798c-0.99264,0.98059 -5.0744,5.27113 -6.61596,4.63c-2.20108,-0.91542 -2.91023,-1.11588 -2.25477,-3.74922c0.22333,-0.89723 3.44527,-2.86397 4.10473,-3.31202c2.72152,-1.84903 4.89678,-5.00242 7.07376,-7.43249c2.16366,-2.41519 3.80595,-5.38502 5.51799,-8.08149c0.36102,-0.5686 0.81292,-3.18981 1.4167,-3.3603c0.14498,-0.14752 0.31076,-0.27931 0.49624,-0.39084c1.18322,-0.71159 2.71927,-0.32926 3.43086,0.85396c1.50641,0.58518 -0.93281,5.26264 -1.26705,5.96442z" fill="url(#color-83)" stroke="none" stroke-width="0.5" stroke-linecap="butt"/><path d="M343.58884,218.8685c-4.83434,3.77858 -11.50067,6.10082 -17.29349,7.9974c-1.32605,0.43415 -6.89414,2.45052 -7.98719,1.18849c-1.56068,-1.80195 -2.1057,-2.29797 -0.34333,-4.36151c0.60048,-0.70309 4.36157,-1.02415 5.1517,-1.13057c3.26078,-0.43919 6.61523,-2.28941 9.64824,-3.49165c3.01443,-1.19487 5.81004,-3.11883 8.54598,-4.76705c0.57693,-0.34756 2.15173,-2.49114 2.7681,-2.37407c0.1956,-0.06725 0.40279,-0.11115 0.61855,-0.12813c1.37645,-0.10835 2.58013,0.91965 2.68848,2.2961c1.08658,1.19627 -3.18461,4.2923 -3.79704,4.77098z" fill="url(#color-84)" stroke="none" stroke-width="0.5" stroke-linecap="butt"/><path d="M346.58884,223.64628c-4.83434,3.77858 -11.50067,6.10082 -17.29349,7.99741c-1.32605,0.43415 -6.89414,2.45052 -7.98719,1.18849c-1.56068,-1.80195 -2.1057,-2.29797 -0.34333,-4.36151c0.60048,-0.70309 4.36157,-1.02415 5.1517,-1.13057c3.26078,-0.43919 6.61523,-2.28941 9.64824,-3.49165c3.01443,-1.19487 5.81004,-3.11884 8.54598,-4.76705c0.57693,-0.34756 2.15173,-2.49113 2.7681,-2.37407c0.1956,-0.06725 0.40279,-0.11115 0.61855,-0.12813c1.37645,-0.10835 2.58013,0.91965 2.68848,2.2961c1.08658,1.19627 -3.18461,4.29229 -3.79704,4.77097z" fill="url(#color-85)" stroke="none" stroke-width="0.5" stroke-linecap="butt"/><path d="M348.26332,231.94033c-5.56867,2.57653 -12.58893,3.31729 -18.66162,3.84283c-1.39011,0.1203 -7.27132,0.81372 -8.04776,-0.66433c-1.10861,-2.11039 -1.52616,-2.71762 0.66037,-4.32487c0.745,-0.54762 4.48019,-0.00249 5.27378,0.07408c3.27501,0.31601 6.96302,-0.72046 10.19027,-1.19933c3.20749,-0.47593 6.3682,-1.71165 9.40793,-2.69249c0.64099,-0.20683 2.66315,-1.93479 3.23658,-1.68024c0.20578,-0.02087 0.41752,-0.01637 0.63146,0.01631c1.36489,0.20841 2.30241,1.48382 2.094,2.84871c0.78514,1.41254 -4.07956,3.45293 -4.78502,3.77933z" fill="url(#color-86)" stroke="none" stroke-width="0.5" stroke-linecap="butt"/><path d="M365.25206,243.2168c-5.8533,-1.84052 -11.54537,-6.0158 -16.39162,-9.71278c-1.10937,-0.84628 -5.9269,-4.29023 -5.50688,-5.9061c0.59972,-2.30719 0.69938,-3.03735 3.39838,-2.7553c0.9196,0.0961 3.31618,3.01248 3.85177,3.60307c2.21028,2.43726 5.63608,4.1518 8.34583,5.96885c2.69317,1.80594 5.8629,3.01829 8.77166,4.33782c0.61338,0.27826 3.27198,0.36042 3.52495,0.93455c0.16629,0.12301 0.3199,0.26881 0.4562,0.43693c0.86955,1.0725 0.70503,2.64684 -0.36747,3.51638c-0.36952,1.57326 -5.34129,-0.19025 -6.08281,-0.42342z" fill="url(#color-87)" stroke="none" stroke-width="0.5" stroke-linecap="butt"/><path d="M372.36069,236.9919c-6.13499,0.10256 -12.85448,-2.06104 -18.62037,-4.03798c-1.31988,-0.45255 -7.31194,-3.4207 -7.42381,-5.08652c-0.15974,-2.3785 0.03751,-1.88054 2.68743,-2.46544c0.90287,-0.19929 4.09795,1.81079 4.79266,2.20197c2.86698,1.61433 6.65894,2.15901 9.80391,3.02712c3.12572,0.8628 6.51612,1.01189 9.69275,1.34508c0.66987,0.07027 3.21832,-0.69154 3.63968,-0.22671c0.19662,0.06419 0.38843,0.154 0.57085,0.27046c1.16379,0.74293 1.50498,2.28863 0.76205,3.45243c0.14634,1.60944 -5.12794,1.50662 -5.90514,1.51961z" fill="url(#color-88)" stroke="none" stroke-width="0.5" stroke-linecap="butt"/><path d="M374.92853,230.04278c-6.05357,1.00145 -13.01777,-0.15301 -19.01129,-1.26271c-1.372,-0.25403 -7.22562,-1.15095 -7.58065,-2.78233c-0.50693,-2.32933 -0.74779,-3.02579 1.78764,-3.99311c0.86387,-0.32958 4.31925,1.19003 5.06383,1.47507c3.07278,1.17628 6.90363,1.15879 10.14192,1.55615c3.21848,0.39493 6.59406,0.04503 9.7852,-0.09139c0.67293,-0.02876 3.08204,-1.15618 3.56704,-0.7582c0.20391,0.03465 0.40683,0.09536 0.60435,0.18379c1.26019,0.56417 1.82443,2.0431 1.26027,3.30329c0.38086,1.57056 -4.85143,2.24258 -5.61832,2.36944z" fill="url(#color-89)" stroke="none" stroke-width="0.5" stroke-linecap="butt"/><path d="M377.17489,222.93767c-5.46044,2.79862 -12.44519,3.82138 -18.4918,4.59096c-1.38415,0.17616 -7.23266,1.10577 -8.06797,-0.33982c-1.19268,-2.06405 -1.63432,-2.65398 0.48573,-4.34795c0.72234,-0.57717 4.47647,-0.18284 5.27249,-0.13828c3.28508,0.18392 6.92838,-1.00018 10.13374,-1.60858c3.18574,-0.60467 6.29413,-1.96662 9.29191,-3.06904c0.63215,-0.23247 2.58311,-2.04042 3.16632,-1.80917c0.20477,-0.02914 0.41653,-0.03316 0.63161,-0.00913c1.37218,0.1533 2.36028,1.38993 2.20698,2.76211c0.84136,1.37979 -3.93725,3.61436 -4.629,3.9689z" fill="url(#color-90)" stroke="none" stroke-width="0.5" stroke-linecap="butt"/><path d="M375.87064,216.77637c-5.11596,3.38755 -11.94397,5.17948 -17.86776,6.61562c-1.35604,0.32875 -7.06519,1.90195 -8.05583,0.55803c-1.41446,-1.91888 -1.91888,-2.45612 0,-4.375c0.6538,-0.6538 4.42849,-0.67871 5.22454,-0.7228c3.28519,-0.18195 6.7745,-1.76322 9.89249,-2.72373c3.09891,-0.95463 6.03688,-2.65327 8.89373,-4.08169c0.60243,-0.30122 2.3406,-2.3146 2.94588,-2.14953c0.20027,-0.05169 0.41027,-0.07919 0.62669,-0.07919c1.38071,0 2.5,1.11929 2.5,2.5c0.98935,1.27785 -3.51164,4.02915 -4.15974,4.45829z" fill="url(#color-91)" stroke="none" stroke-width="0.5" stroke-linecap="butt"/><path d="M316.68192,122.95107c0.90679,-1.20119 1.36215,-3.21519 2.58598,-3.85031c0.14054,-0.07294 0.29123,-0.12769 0.45389,-0.16093c3.1046,-0.63456 8.10768,1.85005 11.44276,2.42989c17.05516,2.96523 27.38156,10.17815 37.0085,25.16192c2.35532,3.66592 9.35626,20.06651 -1.03678,16.93482c-1.6331,-0.49209 -4.24648,-10.02389 -4.89866,-11.76915c-2.50932,-6.71507 -8.66848,-12.36228 -14.37331,-15.64149c-7.09378,-4.07759 -14.85701,-6.85589 -22.91948,-7.65395c-1.45621,-0.14415 -7.00576,-1.04145 -7.33119,-2.78474z" fill="url(#color-92)" stroke="none" stroke-width="0.5" stroke-linecap="butt"/><path d="M315.82478,128.37964c0.90679,-1.20119 1.36215,-3.21519 2.58598,-3.85031c0.14054,-0.07294 0.29123,-0.12769 0.45389,-0.16093c3.1046,-0.63456 8.10768,1.85005 11.44276,2.42989c17.05516,2.96522 27.38156,10.17815 37.0085,25.16191c2.35532,3.66592 9.35626,20.06651 -1.03678,16.93482c-1.6331,-0.49209 -4.24648,-10.02389 -4.89866,-11.76915c-2.50932,-6.71507 -8.66848,-12.36228 -14.37331,-15.64149c-7.09378,-4.07759 -14.85701,-6.85589 -22.91948,-7.65395c-1.45621,-0.14415 -7.00576,-1.04144 -7.33119,-2.78473z" fill="url(#color-93)" stroke="none" stroke-width="0.5" stroke-linecap="butt"/><path d="M315.1105,134.37964c0.90679,-1.2012 1.36215,-3.21519 2.58598,-3.85031c0.14054,-0.07294 0.29123,-0.12769 0.45389,-0.16093c3.1046,-0.63457 8.10768,1.85005 11.44276,2.42989c17.05516,2.96523 27.38157,10.17815 37.00851,25.16191c2.35532,3.66592 9.35625,20.06651 -1.03678,16.93482c-1.6331,-0.49209 -4.24648,-10.02389 -4.89865,-11.76915c-2.50932,-6.71507 -8.66848,-12.36228 -14.37331,-15.64149c-7.09378,-4.07759 -14.85701,-6.85589 -22.91948,-7.65395c-1.45621,-0.14415 -7.00576,-1.04144 -7.33119,-2.78473z" fill="url(#color-94)" stroke="none" stroke-width="0.5" stroke-linecap="butt"/><path d="M328.73766,151.11542c7.42139,1.20433 16.05768,4.25855 21.00908,10.29829c1.31444,1.60335 6.50279,4.0598 6.12853,6.67966c-1.08031,7.56214 -9.39593,-2.54839 -11.79624,-4.36492c-2.95328,-2.23502 -5.79204,-3.78504 -9.08659,-5.52522c-2.49232,-1.31644 -8.03335,-2.23566 -10.82223,-1.54907c-0.92444,0.22759 -3.64926,0.67536 -4.1342,-0.1733c-0.81712,-0.48226 -1.36529,-1.37174 -1.36529,-2.38926c0,-1.53113 1.24122,-2.77234 2.77235,-2.77234c0.17255,0 0.34141,0.01576 0.50522,0.04592c2.02168,-0.73372 4.47575,-0.62521 6.78936,-0.24976z" fill="url(#color-95)" stroke="none" stroke-width="0.5" stroke-linecap="butt"/><path d="M328.39339,155.55287c7.42139,1.20433 16.05768,4.25855 21.00908,10.29828c1.31444,1.60335 6.50279,4.0598 6.12853,6.67966c-1.08031,7.56214 -9.39593,-2.54839 -11.79624,-4.36492c-2.95328,-2.23502 -5.79204,-3.78504 -9.08659,-5.52522c-2.49232,-1.31644 -8.03335,-2.23566 -10.82223,-1.54907c-0.92444,0.22759 -3.64926,0.67536 -4.1342,-0.1733c-0.81712,-0.48226 -1.36529,-1.37174 -1.36529,-2.38925c0,-1.53113 1.24122,-2.77235 2.77235,-2.77235c0.17255,0 0.34141,0.01576 0.50522,0.04592c2.02168,-0.73372 4.47575,-0.62521 6.78936,-0.24976z" fill="url(#color-96)" stroke="none" stroke-width="0.5" stroke-linecap="butt"/><path d="M328.33039,159.5684c7.42139,1.20433 16.05768,4.25855 21.00908,10.29828c1.31444,1.60335 6.50279,4.0598 6.12853,6.67966c-1.08031,7.56214 -9.39593,-2.54839 -11.79624,-4.36492c-2.95328,-2.23502 -5.79204,-3.78503 -9.08659,-5.52522c-2.49232,-1.31644 -8.03335,-2.23566 -10.82223,-1.54907c-0.92444,0.22759 -3.64926,0.67536 -4.1342,-0.1733c-0.81712,-0.48226 -1.36529,-1.37174 -1.36529,-2.38925c0,-1.53113 1.24122,-2.77235 2.77235,-2.77235c0.17255,0 0.34141,0.01576 0.50522,0.04593c2.02168,-0.73372 4.47575,-0.62521 6.78936,-0.24976z" fill="url(#color-97)" stroke="none" stroke-width="0.5" stroke-linecap="butt"/><path d="M328.12676,164.14649c7.42139,1.20433 16.05768,4.25855 21.00908,10.29828c1.31444,1.60335 6.50279,4.0598 6.12853,6.67966c-1.08031,7.56214 -9.39593,-2.54839 -11.79624,-4.36492c-2.95328,-2.23502 -5.79204,-3.78504 -9.08659,-5.52522c-2.49232,-1.31644 -8.03335,-2.23566 -10.82223,-1.54907c-0.92444,0.22759 -3.64925,0.67536 -4.1342,-0.1733c-0.81712,-0.48226 -1.36529,-1.37174 -1.36529,-2.38925c0,-1.53113 1.24123,-2.77235 2.77235,-2.77235c0.17255,0 0.34141,0.01576 0.50522,0.04592c2.02168,-0.73372 4.47574,-0.62521 6.78936,-0.24976z" fill="url(#color-98)" stroke="none" stroke-width="0.5" stroke-linecap="butt"/><path d="M379.8345,169.63427c1.34848,-1.93313 3.26611,-5.32893 6.27752,-3.45039c2.48715,1.5515 1.52089,4.60444 -0.02119,6.17451c-1.13482,1.15541 -1.63286,2.61313 -2.6565,3.83903c-2.60248,3.11668 -6.8014,5.56363 -9.00161,8.94532c-1.22666,1.88536 -3.49153,5.32026 -5.22028,6.5393c-0.06545,0.04615 -0.1345,0.08854 -0.20675,0.12723c-1.02048,0.63976 -2.35821,0.68484 -3.44884,0.0045c-0.12889,-0.0804 -0.2502,-0.16835 -0.36371,-0.26293c-1.55476,-0.79798 -2.48284,-2.34461 -0.718,-4.14147c0.01443,-0.02452 0.02922,-0.04892 0.04436,-0.0732c0.10806,-0.17323 0.22978,-0.33276 0.36288,-0.47808c4.65345,-6.05546 10.60802,-10.99621 14.95213,-17.2238z" fill="url(#color-99)" stroke="none" stroke-width="0.5" stroke-linecap="butt"/><path d="M313.82478,141.9235c0.89753,-1.10972 1.34825,-2.97035 2.55959,-3.55711c0.13911,-0.06739 0.28825,-0.11797 0.44925,-0.14868c3.07292,-0.58624 8.02493,1.70917 11.32597,2.24486c16.8811,2.73943 27.1021,9.4031 36.63079,23.24587c2.33128,3.38676 9.26076,18.53847 -1.0262,15.64525c-1.61643,-0.45462 -4.20314,-9.26058 -4.84866,-10.87294c-2.48372,-6.20372 -8.58,-11.4209 -14.22662,-14.45041c-7.02138,-3.76709 -14.70537,-6.33382 -22.68555,-7.07112c-1.44135,-0.13317 -6.93425,-0.96214 -7.25636,-2.57268z" fill="url(#color-100)" stroke="none" stroke-width="0.5" stroke-linecap="butt"/><path d="M374.33317,165.50001c1.05777,-2.10631 2.46938,-5.7417 5.71875,-4.31374c2.68369,1.17936 2.16454,4.33921 0.86318,6.11391c-0.95767,1.30599 -1.24184,2.82001 -2.0794,4.17986c-2.12937,3.45722 -5.93463,6.48022 -7.62793,10.14212c-0.94405,2.04157 -2.69372,5.7654 -4.23009,7.21942c-0.05817,0.05505 -0.12044,0.10689 -0.18641,0.15552c-0.91836,0.77929 -2.23584,1.01547 -3.41265,0.49831c-0.13907,-0.06112 -0.27173,-0.1308 -0.39761,-0.20815c-1.65301,-0.56713 -2.79298,-1.96492 -1.30363,-3.99598c0.01077,-0.02633 0.02191,-0.0526 0.03342,-0.07879c0.08214,-0.18692 0.17976,-0.36225 0.29068,-0.52513c3.73838,-6.6594 8.9241,-12.40189 12.3317,-19.18735z" fill="url(#color-101)" stroke="none" stroke-width="0.5" stroke-linecap="butt"/><path d="M367.50588,162.49282c0.79607,-2.21849 1.75901,-5.99757 5.15686,-4.97185c2.80632,0.84715 2.67199,4.04655 1.59411,5.96522c-0.79321,1.41195 -0.89273,2.94918 -1.5602,4.4001c-1.69695,3.68875 -5.10993,7.14855 -6.34931,10.98792c-0.69097,2.14051 -1.97886,6.04816 -3.32868,7.67683c-0.05111,0.06167 -0.10667,0.12062 -0.1663,0.17685c-0.81768,0.88434 -2.09708,1.27767 -3.32767,0.90618c-0.14543,-0.0439 -0.28551,-0.09707 -0.4198,-0.15868c-1.70934,-0.36366 -3.00954,-1.61379 -1.77597,-3.80962c0.00752,-0.02744 0.01541,-0.05486 0.02368,-0.08225c0.05901,-0.19546 0.13477,-0.38128 0.22523,-0.55634c2.9081,-7.0616 7.36352,-13.3875 9.92804,-20.53435z" fill="url(#color-102)" stroke="none" stroke-width="0.5" stroke-linecap="butt"/><path d="M360.27507,159.50447c0.49305,-2.30485 0.94333,-6.1786 4.44763,-5.61526c2.89424,0.46527 3.18785,3.65399 2.37552,5.69929c-0.59779,1.50513 -0.49138,3.04191 -0.95936,4.56889c-1.18977,3.88214 -4.11077,7.76625 -4.82698,11.73662c-0.39929,2.21355 -1.15445,6.25805 -2.27498,8.05221c-0.04242,0.06793 -0.08963,0.13378 -0.14122,0.19746c-0.69242,0.98551 -1.90792,1.54596 -3.17706,1.34194c-0.14999,-0.02411 -0.29591,-0.05812 -0.43722,-0.10127c-1.74257,-0.13242 -3.1979,-1.19796 -2.26824,-3.5387c0.00379,-0.0282 0.00795,-0.05642 0.0125,-0.08468c0.0324,-0.20158 0.0827,-0.39584 0.14901,-0.58141c1.94022,-7.38639 5.51207,-14.25004 7.10041,-21.67509z" fill="url(#color-103)" stroke="none" stroke-width="0.5" stroke-linecap="butt"/><path d="M353.03301,157.50162c0.12097,-2.35389 -0.04929,-6.25 3.5,-6.25c2.9314,0 3.7274,3.1017 3.25,5.25c-0.35132,1.58093 -0.00235,3.08134 -0.22204,4.66324c-0.55852,4.02177 -2.82601,8.32026 -2.90296,12.35398c-0.0429,2.24886 -0.14655,6.36196 -0.96811,8.31122c-0.03111,0.0738 -0.06726,0.14631 -0.10809,0.21737c-0.52722,1.08292 -1.63837,1.82918 -2.9238,1.82918c-0.15191,0 -0.30138,-0.01042 -0.44775,-0.03059c-1.74149,0.14584 -3.34751,-0.6752 -2.80115,-3.13383c-0.00074,-0.02844 -0.0011,-0.05697 -0.0011,-0.08559c0,-0.20417 0.01883,-0.40396 0.05485,-0.5977c0.74326,-7.60071 3.18045,-14.94427 3.57016,-22.5273z" fill="url(#color-104)" stroke="none" stroke-width="0.5" stroke-linecap="butt"/><path d="M328.2381,167.7738c7.42139,1.20433 16.05769,4.25854 21.00909,10.29828c1.31444,1.60335 6.50279,4.0598 6.12853,6.67966c-1.08031,7.56214 -9.39594,-2.54838 -11.79624,-4.36491c-2.95328,-2.23502 -5.79204,-3.78503 -9.08659,-5.52522c-2.49232,-1.31644 -8.03335,-2.23567 -10.82223,-1.54908c-0.92444,0.22759 -3.64926,0.67536 -4.1342,-0.1733c-0.81712,-0.48226 -1.36529,-1.37174 -1.36529,-2.38925c0,-1.53113 1.24122,-2.77235 2.77235,-2.77235c0.17255,0 0.34141,0.01576 0.50522,0.04593c2.02168,-0.73372 4.47574,-0.6252 6.78936,-0.24975z" fill="url(#color-105)" stroke="none" stroke-width="0.5" stroke-linecap="butt"/><path d="M373.81764,207.0905c0,13.35518 -11.67258,24.1817 -26.07143,24.1817c-14.39885,0 -26.07143,-10.82652 -26.07143,-24.1817c0,-13.35518 11.67258,-24.18169 26.07143,-24.18169c14.39885,0 26.07143,10.82651 26.07143,24.18169z" fill="url(#color-106)" stroke="none" stroke-width="0" stroke-linecap="butt"/><path d="M316.97168,224.82868v-77.48042c0,0 -0.23509,-1.28572 0.60309,-1.28572c1.6687,0 8.77191,1.28572 8.77191,1.28572v77.48043z" fill="url(#color-107)" stroke="none" stroke-width="0" stroke-linecap="butt"/><path d="M370.86764,203.9405c0,13.35518 -10.55329,24.1817 -23.57143,24.1817c-13.01814,0 -23.57143,-10.82652 -23.57143,-24.1817c0,-13.35518 10.55329,-24.18169 23.57143,-24.18169c13.01814,0 23.57143,10.82651 23.57143,24.18169z" fill="#cfcfcf" stroke="none" stroke-width="0" stroke-linecap="butt"/><path d="M322.43929,199.23803c-1.5256,-0.66727 -0.97803,-4.31216 -1.01064,-5.34341c-0.09695,-3.06584 6.03271,-8.04506 8.9586,-9.52714c3.33173,-1.68765 6.82031,-4.01273 10.78465,-5.06092c2.39092,-0.63217 5.26211,0.17817 7.71439,0.36683c6.67845,0.5138 12.0314,0.92865 16.49437,5.17728c1.26376,1.20307 5.45071,4.52128 7.60585,8.37529c2.15515,3.85402 1.70693,7.32908 1.32871,7.60227c-0.62824,0.4538 -3.75717,-5.814 -5.10366,-6.15755c-1.44975,-0.3699 -2.25265,-3.23086 -3.3167,-4.19567c-2.82256,-2.55929 -7.27195,-6.17542 -11.72769,-6.98053c-3.47573,-0.62804 -7.60113,-0.23789 -11.20769,-0.73878c-0.93051,-0.12923 -2.7402,1.16358 -3.58582,1.56546c-2.78127,1.32178 -5.389,2.26169 -7.66895,4.12745c-1.30918,1.07135 -3.72148,2.78599 -4.57524,4.01564c-0.38198,0.55015 0.20251,1.91197 -0.52081,2.22834z" fill="url(#color-108)" stroke="none" stroke-width="0.5" stroke-linecap="butt"/><path d="M321.87023,205.0614c-1.58143,-0.77524 -0.78436,-6.6261 -0.81816,-7.82421c-0.1005,-3.5619 5.31115,-8.29059 8.34413,-10.01247c3.45367,-1.96071 7.06994,-4.662 11.17937,-5.87979c2.47843,-0.73446 5.45471,0.20699 7.99674,0.42618c6.92289,0.59694 12.47176,1.07891 17.09808,6.01498c1.31002,1.39773 6.18406,5.07071 7.88423,9.73044c1.70018,4.65972 0.50477,7.77254 -1.7313,7.13312c-1.50281,-0.42974 -4.51691,-9.20826 -5.61991,-10.32918c-2.92587,-2.97339 -7.5381,-7.17461 -12.15693,-8.10999c-3.60294,-0.72965 -7.87934,-0.27639 -11.61791,-0.85833c-0.96457,-0.15014 -2.84049,1.35186 -3.71706,1.81876c-2.88306,1.53565 -5.58624,2.62763 -7.94964,4.79528c-1.3571,1.24469 -3.85769,3.23678 -4.7427,4.66539c-0.39596,0.63916 0.20992,2.22132 -0.53987,2.58888z" fill="url(#color-109)" stroke="none" stroke-width="0.5" stroke-linecap="butt"/><path d="M323.18192,206.45881c-1.58143,-0.90367 -2.2389,-2.1464 -2.2727,-3.543c-0.1005,-4.15202 5.31115,-9.66414 8.34413,-11.67129c1.74232,-1.15303 3.96013,-3.82563 8.0387,-5.16732c4.00607,-1.31785 9.8778,-1.31643 11.13742,-1.18983c6.92289,0.69583 12.47176,1.25766 17.09808,7.01151c1.31002,1.6293 8.90127,8.29141 7.88423,11.34253c-0.74536,2.23607 -0.84372,2.70192 -3.07979,1.95656c-1.50281,-0.50094 -3.16843,-4.37551 -4.27143,-5.68213c-2.92587,-3.46601 -7.5381,-8.36327 -12.15693,-9.45362c-3.60294,-0.85054 -14.45839,0.5753 -15.33497,1.11956c-2.88306,1.79006 -5.58624,3.06296 -7.94964,5.58974c-1.3571,1.45091 -3.85769,3.77303 -4.7427,5.43832c-0.39596,0.74506 -2.6944,4.24897 -2.6944,4.24897z" fill="url(#color-110)" stroke="none" stroke-width="0.5" stroke-linecap="butt"/><g stroke="none" stroke-width="0" stroke-linecap="butt"><path d="M354.92977,208.23391c0,4.63384 -3.85983,8.39028 -8.62119,8.39028c-4.76136,0 -8.62119,-3.75645 -8.62119,-8.39028c0,-4.63384 3.85983,-8.39028 8.6212,-8.39028c4.76136,0 8.6212,3.75644 8.6212,8.39028z" fill="#76c8e5"/><path d="M351.24335,208.28066c0,2.56742 -2.1386,4.64874 -4.77668,4.64874c-2.63808,0 -4.77668,-2.08132 -4.77668,-4.64874c0,-2.56742 2.1386,-4.64874 4.77668,-4.64874c2.63808,0 4.77668,2.08132 4.77668,4.64874z" fill="#000000"/><path d="M349.23352,202.41332c0,0.76521 -0.65478,1.38555 -1.46253,1.38555c-0.80772,0 -1.46253,-0.62034 -1.46253,-1.38555c0,-0.76521 0.65478,-1.38555 1.46253,-1.38555c0.80772,0 1.46253,0.62034 1.46253,1.38555z" fill="#ffffff"/></g><path d="M279.69426,252.34501v-9c0,0 24.64666,3.975 37.825,3.975c13.54494,0 42.375,-3.85 42.375,-3.85c0,0 3.49347,6.09404 1.4,6.675c-2.61078,0.72452 -29.62375,4.8 -43.2,4.8c-13.14303,0 -38.4,-2.6 -38.4,-2.6z" fill="url(#color-111)" stroke="none" stroke-width="0" stroke-linecap="butt"/></g><path d="M350.15023,309.3444c-0.55248,-0.85797 -3.48788,-6.88058 -4.88374,-8.81894c0,0 -3.46688,-5.20031 1.73344,-8.66719c5.20031,-3.46688 8.66719,1.73344 8.66719,1.73344c0.83847,1.31281 1.89,2.51176 2.5154,3.93842c0.47162,1.07586 0.20099,2.39678 0.72304,3.44909c0.38467,0.7754 1.44808,1.04218 1.87782,1.79355c0.97637,1.70712 1.41875,3.65368 1.9165,5.56568c2.64071,-2.12245 5.41469,-4.0405 8.31819,-5.65806c5.84406,-3.25577 12.6089,-3.20075 18.65235,-5.58286c3.43886,-2.34864 7.83073,-4.90427 7.27245,-9.78669c-0.18966,-1.6587 -2.97939,-3.34534 -4.11277,-4.18192l-2,-1.5c0,0 -5,-3.75 -1.25,-8.75c3.75,-5 8.75,-1.25 8.75,-1.25l2,1.5c6.91023,5.24059 11.13865,12.23504 8.11509,21.15945c-0.38327,1.13126 -1.22368,2.05364 -1.76605,3.11782c-0.57385,1.12596 -0.79547,2.45545 -1.57954,3.44658c-2.2796,2.88163 -6.58282,5.32021 -9.60983,7.30754c-0.41092,0.16528 -0.8274,0.31895 -1.24855,0.46291c0.61139,0.35636 1.21131,0.77421 1.79761,1.25965c5.53397,0.56505 11.29509,3.61352 16.10329,6.29752c1.31743,0.7354 2.27348,2.10415 3.6917,2.61902c2.40294,0.87236 5.1096,1.58721 7.59342,2.3587c2.24443,0.69714 7.1108,2.4601 9.47093,1.83358c3.31694,-0.88052 6.71359,-2.80779 9.43192,-4.86277l0.83058,-0.91942c0,0 4.41942,-4.41942 8.83883,0c4.41942,4.41942 0,8.83883 0,8.83883l-2.16942,2.08058c-4.04474,3.01501 -9.49395,6.21409 -14.56808,7.13723c-2.92543,0.53222 -4.83492,-0.0315 -7.63768,-0.46074c-4.49952,-0.68909 -9.41685,-1.81263 -13.84655,-3.3987c0.02182,1.48305 0.13495,2.98238 -0.14168,4.65302c-0.06144,0.37106 -0.15458,0.73435 -0.26794,1.09266c1.28513,0.25236 2.56713,0.55134 3.84607,0.90545c4.51857,1.25107 8.52441,3.65766 13.01622,4.79758c4.02087,-0.08419 10.36333,1.20702 13.95054,-1.1134c0.79163,-0.51207 1.18679,-1.52294 2,-2c2.94885,-1.72991 7.14672,-2.23331 10,-4c0.80159,-0.49633 1.18182,-1.53152 2,-2c0.71437,-0.40904 7.27528,-2.68559 8.28468,-2.85273c5.04211,-0.83487 10.88507,-0.0807 16.00114,-0.0807c0,0 6.25,0 6.25,6.25c0,6.25 -6.25,6.25 -6.25,6.25c-4.41016,0 -9.67341,-0.81094 -13.99886,-0.0807c-2.88485,0.48703 -3.39353,1.78522 -5.71532,3.14727c-2.94885,1.72991 -7.14672,2.23331 -10,4c-0.80159,0.49633 -1.18182,1.53152 -2,2c-6.71084,3.84256 -14.6602,2.97854 -22.04946,2.8866c-6.00997,-1.49159 -11.62875,-5.09302 -17.80614,-5.9733c-0.07206,0.59362 -0.15662,1.18455 -0.26092,1.77126c-0.54273,3.05292 -2.54148,5.96844 -3,9c-0.14955,0.98875 0.21824,2.02411 0,3c-0.49818,2.22765 -1.57673,4.3368 -2.94106,6.21852c-0.13414,0.93651 -0.50979,1.92 -1.31349,2.81059c-0.71077,0.95639 -1.7999,1.78897 -3.46879,2.09494c-1.62953,0.47268 -2.97602,0.21507 -4.03946,-0.32249c-1.82134,-0.7127 -2.73545,-2.15512 -3.19423,-3.42347l-1.14154,-2.40281c-0.79826,-2.39477 -1.23773,-5.03774 -2.90412,-7.01399c-1.80122,-2.13616 -2.63678,-1.77063 -4.48318,-4.67661c-0.56529,-0.88969 -0.46968,-2.08902 -1,-3c-0.93318,-1.60302 -2.57826,-3.05284 -4.02189,-4.55526c-5.73339,1.78226 -10.03044,6.08257 -15.68512,8.19871c-1.75313,0.40162 -2.90994,2.18915 -4.58465,2.84498c-1.36828,0.53583 -2.94668,0.12249 -4.39063,0.39505c-1.0358,0.19552 -1.95825,0.83919 -3,1c-4.1211,0.63614 -8.82581,0.0807 -13.00114,0.0807c-1.6702,0 -8.42568,0.0103 -8.86688,-0.06041c-2.49799,-0.40033 -4.8158,-1.61168 -7.30725,-2.05087c-3.29909,-0.58155 -6.7026,-0.40894 -10,-1c-1.91537,-0.34333 -3.73423,-1.10311 -5.57014,-1.78185c-1.62049,0.39119 -3.28663,0.5262 -4.87808,0.17498c-1.14574,0.61728 -2.04588,1.05061 -2.26436,1.03847c-0.40277,-0.02238 -2.57026,-1.07808 -4.66079,-2.25089c-0.82515,0.01033 -1.64502,-0.02532 -2.45363,-0.15014c-1.04175,-0.16081 -1.96329,-0.80935 -3,-1c-2.40528,-0.44233 -5.5453,0.0807 -7.99886,0.0807c-2.97676,0 -5.80062,0.02263 -8.61975,-0.17069c-3.96484,3.3937 -12.24495,4.42589 -16.76696,4.49102c-8.50239,0.12246 -17.00708,-0.09616 -25.5098,0c-4.73529,0.05356 -9.74857,1.0537 -14.49019,0c-9.83072,-2.1846 -19.0064,-5.79907 -28.21391,-9.71523c-6.51881,-2.7726 -8.62561,-5.67825 -11.32431,-9.6471c-0.0459,-0.01916 -0.09311,-0.03582 -0.14176,-0.0497c-0.46631,-0.13293 -0.7433,0.64437 -1.18588,0.84245c-0.88915,0.39795 -1.84392,0.6294 -2.771,0.92852c-4.99003,1.61003 -8.94346,5.19351 -11.77611,9.53761l1.04969,-1.46688c0,0 0,6.25 -6.25,6.25c-6.25,0 -6.25,-6.25 -6.25,-6.25l1.04969,-5.46688c4.52349,-6.68044 10.51214,-11.83293 18.22389,-14.46239c0.14719,-0.05019 0.29772,-0.10167 0.45125,-0.15415c-0.23093,-0.75478 -0.22904,-1.52576 0.15361,-2.29106c-0.01005,-0.18379 -0.01515,-0.3689 -0.01515,-0.55519c0,-4.17254 2.5555,-7.74821 6.18676,-9.24725c-2.50482,-0.59159 -5.00701,-1.22914 -7.56369,-1.61991c-0.66763,-0.10204 -4.31988,-0.38505 -4.95054,0.1134c-1.12799,0.89151 -3.31611,2.76551 -3.96925,3.96925c-0.4067,0.74956 -0.32386,1.69581 -0.7021,2.46013c-0.86926,1.7565 -2.10969,3.35706 -2.6852,5.23048l0.32073,0.02358c0,0 0,6.25 -6.25,6.25c-6.25,0 -6.25,-6.25 -6.25,-6.25l0.32073,-3.97642c2.2659,-6.49632 6.28244,-14.75105 12.64345,-18.34014c3.76699,-2.12546 8.81862,-2.45708 13.04946,-1.8866c1.99367,0.26882 3.99238,0.50951 5.97921,0.82376c-1.87015,-3.54711 -2.99529,-7.44828 -4.22084,-11.26262c-0.50828,-0.54732 -4.05648,-4.66235 0.05856,-8.77739c4.41942,-4.41942 8.83883,0 8.83883,0l2.50985,3.44299c1.18374,3.55123 1.97804,8.20427 4.14099,11.32198c0.43284,0.62391 1.08292,1.0761 1.62646,1.60953c5.20872,1.25501 10.39247,5.11956 15.2234,6.40381c1.95958,0.52093 4.12476,0.64498 6.28538,0.7716c-0.35609,-0.73991 -0.65716,-1.48994 -0.89521,-2.23898c-0.57024,-1.79429 -1.6021,-3.59521 -1.41341,-5.46845c0.21938,-2.17795 3.05575,-5.93227 3.57917,-8.53466c1.1089,-5.51341 0.40649,-11.68081 -0.51037,-17.19132c-1.25456,-6.45616 -7.59388,-14.46202 -13.41444,-17.67823c-5.79079,-3.19977 -12.00261,1.68532 -13.21839,7.66733c0.01014,0.62805 0.02028,1.25609 0.03042,1.88414v0.5c0,0 0,6.25 -6.25,6.25c-6.25,0 -6.25,-6.25 -6.25,-6.25v-0.5c0.01014,-1.03862 0.02028,-2.07724 0.03042,-3.11586c0.79615,-4.00439 1.77593,-6.94217 4.27877,-10.21178c1.41249,-1.84523 3.24651,-4.17038 5.09449,-5.59865c15.27032,-11.80207 33.09745,3.72946 39.9608,17.68034c1.22323,2.48641 1.50401,4.52371 2.03312,7.11919c1.07375,6.43227 1.24669,12.29395 0.57199,18.74262c-0.34881,3.33388 -0.54653,7.5613 -2.96253,10.03803c0.01743,0.00326 0.03291,0.01128 0.04593,0.02492c0.70735,0.74098 0.72621,1.97121 1.41861,2.72618c2.52218,2.75009 6.04507,3.47173 9.48402,4.553c6.93415,-1.60251 11.73295,-5.58601 17.80354,-8.73998c-1.76689,-0.63864 -3.87243,-2.16072 -3.87243,-5.78833c0,-6.25 6.25,-6.25 6.25,-6.25l4.46688,1.04969c2.50266,1.74143 4.61338,2.30565 7.50955,3.27104c0,0 0.93171,0.31057 1.93334,1.05482c2.55762,-0.94139 5.10785,-1.89939 7.61437,-2.95375c4.31785,-1.81628 9.05908,-7.71864 14.64816,-6.60323c1.38673,0.27675 8.23827,5.33294 8.38526,5.59017c0.24326,0.4257 -0.34772,9.6661 -0.55902,10.06231c-1.89002,3.54401 -3.80203,3.28183 -6.538,4.21518c-0.64326,0.21945 -1.23488,0.57098 -1.80235,0.98389c7.2971,6.07394 15.71492,14.19401 18.67782,22.99856c0.7642,2.2709 3.18724,1.69004 3.95622,0.83059c2.87016,-3.20782 4.07841,-3.21426 7.97213,-5.68327c0.24853,-0.15759 0.47057,-0.35853 0.67171,-0.5941c-3.1661,-1.67847 -7.32277,-13.75788 -7.32277,-17.59101c0,-3.25429 -1.19551,6.35449 1.21143,4.52837c0.30786,-0.29804 1.15113,-2.06044 1.53857,-2.27837c5.09357,-2.86518 -4.98161,-8.28115 -0.1853,-7.04633c5.54253,1.42693 27.72703,10.99005 31.25636,15.22526c1.84733,2.21679 3.83759,4.20797 5.80903,6.24107c0.68881,-0.79762 1.39141,-1.59074 2.1077,-2.37637c-1.13372,-2.38602 -1.27115,-6.22003 -2.66764,-8.38869zM401.2975,334.30744c0.38842,-2.30078 -0.33965,-4.69152 0,-7c0.10506,-0.71403 0.32436,-1.40201 0.5688,-2.08426c-3.43862,-1.58488 -7.02063,-2.83575 -10.74496,-3.59823c-3.4617,-2.42401 -4.48057,-2.31444 -8.39153,-0.87739c-1.25149,0.45985 -2.85504,0.20221 -3.84794,1.09207c-1.43245,1.2838 -2.84533,2.65262 -4.22578,4.08799c2.27033,1.44927 4.3943,3.14018 6.23012,4.96154c0.85319,0.84647 1.15613,2.14424 2,3c0.84613,0.85806 2.07045,1.30077 2.99016,2.06472c1.23224,0.04813 2.44716,0.1047 3.59043,0.1047c3.80039,0 7.57088,-0.04329 11.3134,0.07005c0.22296,-0.59441 0.41198,-1.1973 0.51731,-1.82119zM394.31445,348.57088c0.11349,0.50262 0.2265,1.00616 0.46892,1.45188c0.51834,0.95305 1.48226,1.55179 2.35932,2.22899c0.32096,-1.2244 0.57818,-2.42922 0.80173,-3.63068c-1.2046,-0.02611 -2.41369,-0.04133 -3.62998,-0.05018zM369.50437,338.14197c-1.2787,-1.00935 -2.07129,-1.80393 -2.99551,-2.46403c-1.64921,2.26838 -3.18384,4.59038 -4.56944,6.91657c0,0 -1.17644,1.96073 -3.29213,2.79869c-0.00434,0.09376 -0.00896,0.18749 -0.01388,0.28113c0.28826,-0.09284 0.57476,-0.1894 0.85697,-0.29501c1.42814,-0.32717 2.43426,-1.63349 3.6906,-2.3873c0.90388,-0.54233 2.09612,-0.45767 3,-1c0.80845,-0.48507 1.18182,-1.53152 2,-2c0.66528,-0.38093 1.51394,-0.78116 2.46041,-1.17504c-0.39614,-0.20122 -0.79276,-0.40326 -1.13702,-0.675zM281.4668,342.05858c2.21122,0 4.65022,-0.19412 6.98517,-0.15207c-0.24903,-3.12201 -0.55164,-6.15143 -1.56616,-8.18047c-1.9484,-3.89679 -4.78302,-7.98757 -8.14419,-11.38813c-0.62804,0.43084 -1.17971,0.80513 -1.59047,1.11206c-0.61726,0.46123 -2.40015,1.50828 -2.33174,2.38623c0.23452,3.00946 1.08505,7.26259 1.34091,11.43667c0.88353,1.53171 1.50798,2.92129 1.64247,3.95438c0.02932,0.22518 -0.00763,0.52548 -0.08378,0.86505c1.22972,-0.00786 2.47435,-0.03373 3.74778,-0.03373zM324.64093,347.16986c2.28816,0.40425 4.40373,1.54978 6.69275,1.94913c2.27045,0.39611 4.87331,0.32327 7.44891,0.18612c-1.07968,-4.50359 0.71738,-12.99635 -3.30749,-16.21493c-0.31133,-0.24896 -0.61066,-0.51579 -0.90035,-0.79692c-1.74574,1.98005 -3.66454,3.87713 -5.27613,6.00925c-2.26287,2.99376 -4.47151,5.92395 -6.94943,8.56434c0.76766,0.07381 1.53239,0.16886 2.29174,0.30301zM192.7577,328.57177c1.58772,2.20083 5.42824,3.07369 7.53628,4.02237c4.96258,2.2333 11.64608,5.24 16.93278,6.28476c4.26462,0.84278 8.24502,0.03821 12.35332,0c7.53018,-0.07003 15.06101,0.01479 22.59153,0.00626c-1.12169,-1.10224 -2.36482,-1.99373 -3.79331,-2.53259c-6.58199,-2.48288 -14.30698,-5.58178 -21.40498,-5.97367c-3.89493,-0.21504 -6.92461,-0.16933 -10.62237,-1.05728c-1.07256,-0.25756 -2.74271,-0.82428 -4.3652,-1.59368c-1.58413,-0.31272 -3.20044,-0.59902 -4.90568,-0.78848c-6.54157,-0.72684 -12.25187,-2.099 -18.05112,-4.32452c1.26609,1.93129 2.33931,4.03087 3.72874,5.95684z" fill="url(#color-112)" stroke="none" stroke-width="0.5" stroke-linecap="butt"/><path d="M386.32081,214.08517v-8.75h14.5v8.75z" data-paper-data="{&quot;index&quot;:null}" fill="url(#color-113)" stroke="none" stroke-width="0" stroke-linecap="butt"/><path d="M319.9641,260.84078c-1.85402,-9.34808 0.27203,-144.56781 0.27203,-144.56781c0,0 31.57603,0.04324 48.82081,15.05147c8.54115,7.43341 8.07112,8.62458 8.07112,8.62458c0,0 -25.84309,24.7074 -36.89143,41.43658c-10.4781,15.86575 -9.82385,31.34512 -9.61089,31.83236c0.2587,0.59187 34.0458,7.25393 34.0458,7.25393c0,0 17.45653,-32.28387 -10.17982,-35.33752c-28.3123,-3.12834 -23.49036,29.14592 -23.8493,28.28224c-9.5908,-23.07779 43.92715,-76.03271 44.59695,-75.61219c10.97199,6.88853 16.89132,39.67157 17.23367,43.27436c1.95497,20.57362 -0.83715,17.10632 -0.26756,28.09387c0.56959,10.98755 3.08078,18.82882 0.80268,27.80005c-2.2781,8.97123 -14.18071,24.88314 -14.18071,24.88314c0,0 -16.57725,-2.20484 -28.36143,-2.40805c-11.78418,-0.20321 -28.6479,10.74108 -30.50191,1.39299z" data-paper-data="{&quot;index&quot;:null}" fill="url(#color-114)" stroke="#000000" stroke-width="0" stroke-linecap="round"/><path d="M419.57081,209.94045c0.59169,19.56277 -22,20.75 -22,20.75l0.5,-41.5c0,0 20.78801,-2.78995 21.5,20.75z" data-paper-data="{&quot;index&quot;:null}" fill="url(#color-115)" stroke="#000000" stroke-width="0" stroke-linecap="round"/><path d="M351.66749,175.66692c-7.89527,0.07333 -17.22388,5.60429 -19.5,1.875c-3.57476,-5.85703 6.19117,-7.13914 15.875,-7.5c9.95627,-0.37101 20.79648,1.85621 24.5,7.125c1.88691,2.68439 -12.97973,-1.57333 -20.875,-1.5z" data-paper-data="{&quot;index&quot;:null}" fill="#7d0505" stroke="#000000" stroke-width="0" stroke-linecap="round"/><path d="M273.64254,124.42665l5.83333,-59.59235l14.33333,-3.66667l30.83333,51.88577z" fill="#556b2a" stroke="#000000" stroke-width="0" stroke-linecap="round"/><path d="M237.1792,214.58517v-8.75h14.5v8.75z" fill="url(#color-116)" stroke="none" stroke-width="0" stroke-linecap="butt"/><path d="M318.03588,261.00745c-1.85401,9.34809 -18.71773,-1.5962 -30.50191,-1.39299c-11.78418,0.20321 -28.36143,2.40805 -28.36143,2.40805c0,0 -11.90261,-15.91191 -14.18071,-24.88314c-2.2781,-8.97123 0.23309,-16.8125 0.80268,-27.80005c0.56959,-10.98755 -2.22253,-7.52025 -0.26756,-28.09387c0.34235,-3.60279 6.26168,-36.38583 17.23367,-43.27436c0.6698,-0.42052 54.18775,52.5344 44.59695,75.61219c-0.35894,0.86368 4.463,-31.41058 -23.8493,-28.28224c-27.63635,3.05365 -10.17982,35.33752 -10.17982,35.33752c0,0 33.7871,-6.66206 34.0458,-7.25393c0.21296,-0.48724 0.86721,-15.96661 -9.61089,-31.83236c-11.04834,-16.72918 -36.89143,-41.43658 -36.89143,-41.43658c0,0 -0.47003,-1.19117 8.07112,-8.62458c17.24478,-15.00823 47.48748,-12.05147 47.48748,-12.05147c0,0 3.45938,132.21973 1.60536,141.56781z" fill="url(#color-117)" stroke="#000000" stroke-width="0" stroke-linecap="round"/><path d="M239.9292,189.69045l0.5,41.5c0,0 -22.59169,-1.18723 -22,-20.75c0.71199,-23.53995 21.5,-20.75 21.5,-20.75z" fill="url(#color-118)" stroke="#000000" stroke-width="0" stroke-linecap="round"/><path d="M295.6792,277.30862c9.10356,6.70721 21,9.5 21,9.5l1,22.75c0,0 -19.84855,-2.29513 -33.5,-13.25c-13.65145,-10.95487 -27.25,-35.5 -27.25,-35.5c0,0 3.99244,3.23433 10,4c6.00756,0.76567 15.5,-0.75 15.5,-0.75c0,0 5.77301,7.7412 13.25,13.25z" fill="url(#color-119)" stroke="#000000" stroke-width="0" stroke-linecap="round"/><path d="M355.6792,264.05862c0,0 9.49244,1.51567 15.5,0.75c6.00756,-0.76567 10,-4 10,-4c0,0 -13.59855,24.54513 -27.25,35.5c-13.65145,10.95487 -33.5,13.25 -33.5,13.25l1,-22.75c0,0 11.89644,-2.79279 21,-9.5c7.47699,-5.5088 13.25,-13.25 13.25,-13.25z" data-paper-data="{&quot;index&quot;:null}" fill="url(#color-120)" stroke="#000000" stroke-width="0" stroke-linecap="round"/><path d="M265.45752,177.66692c3.70352,-5.26879 14.54373,-7.49601 24.5,-7.125c9.68383,0.36086 19.44976,1.64297 15.875,7.5c-2.27612,3.72929 -11.60473,-1.80167 -19.5,-1.875c-7.89527,-0.07333 -22.76191,4.18439 -20.875,1.5z" fill="#7d0505" stroke="#000000" stroke-width="0" stroke-linecap="round"/><path d="M333.69808,234.21638c0,8.46837 -7.20076,15.33333 -16.08334,15.33333c-8.88258,0 -16.08333,-6.86496 -16.08333,-15.33333c0,-8.46837 7.20075,-15.33334 16.08333,-15.33334c8.88258,0 16.08334,6.86497 16.08334,15.33334z" fill="url(#color-121)" stroke="none" stroke-width="0" stroke-linecap="butt"/><path d="M276.41587,95.86802c0,0 4.75993,1.19025 8.95141,1.51062c7.19198,0.54971 29.8958,0.00327 29.8958,0.00327l10.15278,17.36111c0,0 -30.49272,1.46126 -39.7538,1.75562c-5.02305,0.15965 -11.17676,-0.01951 -11.17676,-0.01951z" fill="#998339" stroke="#000000" stroke-width="0" stroke-linecap="round"/><path d="M271.47585,122.90081c2.5513,-0.9788 54.69646,-12.92289 56,-12.33333c2.83974,1.28436 2.29147,3.67091 1,5.5c-2.28249,3.23265 -52.22514,13.04908 -56.66667,13c-1.62453,-0.01795 -2.88464,-5.18787 -0.33333,-6.16667z" fill="#d7670b" stroke="#000000" stroke-width="0" stroke-linecap="round"/><path d="M278.97844,68.79762c0,0 5.30404,1.60395 7.82213,1.79641c4.32067,0.33025 12.8492,0.3353 12.8492,0.3353l9.76609,16.65214c0,0 -19.31892,-2.8999 -24.88264,-2.72306c-3.01766,0.09592 -6.8257,-1.90061 -6.8257,-1.90061z" fill="#998339" stroke="#000000" stroke-width="0" stroke-linecap="round"/><path d="M273.41063,26.73444c3.69561,-4.6195 9.79882,-5.03654 14.93449,-3.46965c1.37451,0.41936 2.10835,2.48909 3.30881,2.86654c3.13745,0.98647 7.01216,1.3238 9.14002,4.1254c1.97469,2.59995 1.06579,3.90553 2.20282,6.77082c0.67316,1.69636 2.95167,3.06302 3.73128,4.97661c1.27882,3.13893 0.52659,11.59304 -0.97506,14.6541c-0.29123,0.59365 -1.90597,2.39453 -1.91705,2.99435c-0.10316,5.58426 -2.10847,7.27734 -6.53285,10.47272c-1.69603,1.22491 -4.84672,-0.38126 -5.98626,0.33904c-3.42674,2.16606 -5.48725,3.94876 -9.72792,3.72314c-1.1001,-0.05853 -2.19753,-1.62258 -3.147,-1.62888c-3.58731,-0.02378 -5.8342,0.42728 -9.43562,-1.16281c-1.74725,-0.77144 -2.24057,-4.29094 -3.36433,-4.75318c-4.05406,-1.66756 -6.71488,-3.88724 -8.1934,-8.02708c-1.18408,-3.31541 1.08432,-9.26269 0.813,-11.70992c-0.31454,-2.8371 -1.19033,-4.45945 -0.71043,-7.58068c0.14279,-0.92872 2.21172,-2.93489 2.1412,-3.19331c-0.3208,-1.17558 1.34108,-3.08394 2.07964,-3.90912c3.49665,-3.90668 6.315,-5.79212 11.54071,-5.39014z" fill="url(#color-122)" stroke="none" stroke-width="0.5" stroke-linecap="butt"/></g></g></svg>