<svg version="1.1" xmlns="http://www.w3.org/2000/svg" xmlns:xlink="http://www.w3.org/1999/xlink" width="170.70894" height="224.97096" viewBox="0,0,170.70894,224.97096"><defs><linearGradient x1="289.22575" y1="168.50628" x2="289.22575" y2="178.35385" gradientUnits="userSpaceOnUse" id="color-1"><stop offset="0" stop-color="#484848"/><stop offset="1" stop-color="#262626"/></linearGradient><linearGradient x1="317.64696" y1="259.23871" x2="317.64696" y2="291.21663" gradientUnits="userSpaceOnUse" id="color-2"><stop offset="0" stop-color="#573515"/><stop offset="1" stop-color="#4d3014"/></linearGradient><linearGradient x1="350.13114" y1="171.50629" x2="350.13114" y2="181.35385" gradientUnits="userSpaceOnUse" id="color-3"><stop offset="0" stop-color="#484848"/><stop offset="1" stop-color="#262626"/></linearGradient><linearGradient x1="358.47435" y1="168.82686" x2="358.47435" y2="181.95186" gradientUnits="userSpaceOnUse" id="color-4"><stop offset="0" stop-color="#434343"/><stop offset="1" stop-color="#2a2a2a"/></linearGradient><linearGradient x1="381.72604" y1="205.02023" x2="388.90926" y2="216.35422" gradientUnits="userSpaceOnUse" id="color-5"><stop offset="0" stop-color="#424242"/><stop offset="1" stop-color="#282828"/></linearGradient><linearGradient x1="354.69463" y1="197.54011" x2="388.14735" y2="189.33433" gradientUnits="userSpaceOnUse" id="color-6"><stop offset="0" stop-color="#5f3916"/><stop offset="1" stop-color="#4f3214"/></linearGradient><linearGradient x1="373.11612" y1="227.26537" x2="403.94186" y2="240.90922" gradientUnits="userSpaceOnUse" id="color-7"><stop offset="0" stop-color="#5f3916"/><stop offset="1" stop-color="#4f3214"/></linearGradient><linearGradient x1="374.41629" y1="234.73215" x2="402.40573" y2="244.08318" gradientUnits="userSpaceOnUse" id="color-8"><stop offset="0" stop-color="#2c1b0b"/><stop offset="1" stop-color="#000000"/></linearGradient><linearGradient x1="387.68443" y1="245.15122" x2="386.47424" y2="258.51511" gradientUnits="userSpaceOnUse" id="color-9"><stop offset="0" stop-color="#424242"/><stop offset="1" stop-color="#292929"/></linearGradient><linearGradient x1="377.71935" y1="249.94179" x2="382.19517" y2="294.77516" gradientUnits="userSpaceOnUse" id="color-10"><stop offset="0" stop-color="#5a3715"/><stop offset="1" stop-color="#583615"/></linearGradient><linearGradient x1="354.16329" y1="160.49295" x2="354.16329" y2="178.19742" gradientUnits="userSpaceOnUse" id="color-11"><stop offset="0" stop-color="#5b3716"/><stop offset="1" stop-color="#583615"/></linearGradient><linearGradient x1="318.29922" y1="163.02709" x2="318.29922" y2="264.78381" gradientUnits="userSpaceOnUse" id="color-12"><stop offset="0" stop-color="#603916"/><stop offset="1" stop-color="#4a2f13"/></linearGradient><linearGradient x1="318.04314" y1="173.14467" x2="318.04314" y2="264.68021" gradientUnits="userSpaceOnUse" id="color-13"><stop offset="0" stop-color="#bb8049"/><stop offset="1" stop-color="#c0844b"/></linearGradient><linearGradient x1="375.94263" y1="103.28089" x2="369.83805" y2="127.68442" gradientUnits="userSpaceOnUse" id="color-14"><stop offset="0" stop-color="#9d551f"/><stop offset="1" stop-color="#80481b"/></linearGradient><linearGradient x1="341.89532" y1="69.85589" x2="336.22287" y2="92.53197" gradientUnits="userSpaceOnUse" id="color-15"><stop offset="0" stop-color="#040000"/><stop offset="1" stop-color="#242424"/></linearGradient><linearGradient x1="337.36529" y1="88.566" x2="335.21164" y2="97.17537" gradientUnits="userSpaceOnUse" id="color-16"><stop offset="0" stop-color="#040000"/><stop offset="1" stop-color="#303240"/></linearGradient><linearGradient x1="336.9637" y1="91.68832" x2="322.52418" y2="149.41153" gradientUnits="userSpaceOnUse" id="color-17"><stop offset="0" stop-color="#9f561f"/><stop offset="1" stop-color="#442c12"/></linearGradient><linearGradient x1="297.18796" y1="132.13725" x2="325.9407" y2="139.32978" gradientUnits="userSpaceOnUse" id="color-18"><stop offset="0" stop-color="#c2854c"/><stop offset="1" stop-color="#b67d47"/></linearGradient><linearGradient x1="325.73686" y1="139.27879" x2="353.65806" y2="146.2633" gradientUnits="userSpaceOnUse" id="color-19"><stop offset="0" stop-color="#c2854c"/><stop offset="1" stop-color="#a16f3f"/></linearGradient><radialGradient cx="328.08161" cy="128.81543" r="10.10394" gradientUnits="userSpaceOnUse" id="color-20"><stop offset="0" stop-color="#484848"/><stop offset="1" stop-color="#000000"/></radialGradient><linearGradient x1="296.63633" y1="83.23617" x2="290.53175" y2="107.6397" gradientUnits="userSpaceOnUse" id="color-21"><stop offset="0" stop-color="#9d551f"/><stop offset="1" stop-color="#80481b"/></linearGradient><linearGradient x1="296.47664" y1="86.97588" x2="292.19212" y2="104.10359" gradientUnits="userSpaceOnUse" id="color-22"><stop offset="0" stop-color="#54311b"/><stop offset="1" stop-color="#35231b"/></linearGradient><radialGradient cx="330.71049" cy="178.31677" r="10.02194" gradientUnits="userSpaceOnUse" id="color-23"><stop offset="0" stop-color="#000011"/><stop offset="1" stop-color="#262626"/></radialGradient><linearGradient x1="375.02303" y1="106.62434" x2="370.73853" y2="123.75205" gradientUnits="userSpaceOnUse" id="color-24"><stop offset="0" stop-color="#54311b"/><stop offset="1" stop-color="#35231b"/></linearGradient><linearGradient x1="321.96439" y1="154.27961" x2="317.59591" y2="171.74299" gradientUnits="userSpaceOnUse" id="color-25"><stop offset="0" stop-color="#623a16"/><stop offset="1" stop-color="#462d12"/></linearGradient><radialGradient cx="304.98825" cy="177.92788" r="10.02194" gradientUnits="userSpaceOnUse" id="color-26"><stop offset="0" stop-color="#000011"/><stop offset="1" stop-color="#262626"/></radialGradient><linearGradient x1="271.61557" y1="226.4606" x2="310.07214" y2="249.9373" gradientUnits="userSpaceOnUse" id="color-27"><stop offset="0" stop-color="#5a3715"/><stop offset="1" stop-color="#583615"/></linearGradient><radialGradient cx="296.3558" cy="244.75346" r="20" gradientUnits="userSpaceOnUse" id="color-28"><stop offset="0" stop-color="#010e05"/><stop offset="1" stop-color="#2b2b2b"/></radialGradient><radialGradient cx="301.68763" cy="220.56106" r="9.7" gradientUnits="userSpaceOnUse" id="color-29"><stop offset="0" stop-color="#5e626a"/><stop offset="1" stop-color="#494949"/></radialGradient><linearGradient x1="277.36972" y1="169.37323" x2="275.53623" y2="182.36954" gradientUnits="userSpaceOnUse" id="color-30"><stop offset="0" stop-color="#434343"/><stop offset="1" stop-color="#2a2a2a"/></linearGradient><linearGradient x1="244.05038" y1="200.07208" x2="241.03891" y2="213.14836" gradientUnits="userSpaceOnUse" id="color-31"><stop offset="0" stop-color="#424242"/><stop offset="1" stop-color="#282828"/></linearGradient><linearGradient x1="277.10125" y1="198.33297" x2="245.12287" y2="185.53448" gradientUnits="userSpaceOnUse" id="color-32"><stop offset="0" stop-color="#5f3916"/><stop offset="1" stop-color="#4f3214"/></linearGradient><linearGradient x1="262.9783" y1="209.25327" x2="250.87282" y2="240.71494" gradientUnits="userSpaceOnUse" id="color-33"><stop offset="0" stop-color="#5f3916"/><stop offset="1" stop-color="#4f3214"/></linearGradient><linearGradient x1="267.34743" y1="215.44632" x2="254.20499" y2="241.8684" gradientUnits="userSpaceOnUse" id="color-34"><stop offset="0" stop-color="#2c1b0b"/><stop offset="1" stop-color="#000000"/></linearGradient><linearGradient x1="265.35625" y1="232.19849" x2="275.67366" y2="240.77805" gradientUnits="userSpaceOnUse" id="color-35"><stop offset="0" stop-color="#424242"/><stop offset="1" stop-color="#292929"/></linearGradient><linearGradient x1="282.80267" y1="161.72328" x2="280.32946" y2="179.25414" gradientUnits="userSpaceOnUse" id="color-36"><stop offset="0" stop-color="#5b3716"/><stop offset="1" stop-color="#583615"/></linearGradient><linearGradient x1="271.33266" y1="226.4207" x2="309.78923" y2="249.89739" gradientUnits="userSpaceOnUse" id="color-37"><stop offset="0" stop-color="#5a3715"/><stop offset="1" stop-color="#583615"/></linearGradient></defs><g transform="translate(-234.64554,-68.57179)"><g data-paper-data="{&quot;isPaintingLayer&quot;:true}" fill-rule="nonzero" stroke-linejoin="miter" stroke-miterlimit="10" stroke-dasharray="" stroke-dashoffset="0" style="mix-blend-mode: normal"><path d="M279.097,169.18376l20.04502,-0.67748l0.21247,9.16065l-19.82799,0.68691z" fill="url(#color-1)" stroke="#000000" stroke-width="0" stroke-linecap="butt"/><path d="M356.19882,259.77204c0,0 4.11956,6.9837 2.04356,11.73334c-1.92457,4.40315 -32.69689,18.93333 -32.69689,18.93333c0,0 -8.09825,1.60821 -12.63288,0.2c-1.7069,-0.53007 -6.06806,-3.01475 -12.2336,-5.65801c-10.21408,-4.37894 -16.16042,-3.49803 -20.92773,-9.54199c-7.33536,-9.29972 -0.09289,-16.2 -0.09289,-16.2c0,0 25.75766,2.93296 38.65908,3.02286c12.60517,0.08783 37.88136,-2.48953 37.88136,-2.48953z" fill="url(#color-2)" stroke="#000000" stroke-width="0" stroke-linecap="round"/><g data-paper-data="{&quot;index&quot;:null}" stroke-width="0"><path d="M359.83039,181.35385l-19.82799,-0.68691l0.21247,-9.16065l20.04502,0.67748z" fill="url(#color-3)" stroke="#000000" stroke-linecap="butt"/><path d="M364.97435,175.38936c0,3.62437 -2.91015,6.5625 -6.5,6.5625c-3.58985,0 -6.5,-2.93813 -6.5,-6.5625c0,-3.62437 2.91015,-6.5625 6.5,-6.5625c3.58985,0 6.5,2.93813 6.5,6.5625z" fill="url(#color-4)" stroke="none" stroke-linecap="butt"/><path d="M386.70546,217.75097l-6.23793,-9.56153l4.33149,-2.8926l6.3141,9.66065z" fill="url(#color-5)" stroke="#000000" stroke-linecap="butt"/><path d="M371.91658,216.92961c-3.98772,-2.07455 -9.80104,-7.89041 -14.08121,-13.63586c-12.53248,-16.8229 -6.74302,-25.76493 -6.74302,-25.76493l12.37831,-9.0156c0,0 11.35505,3.78139 18.6941,11.6595c6.20923,6.42045 9.82382,17.45465 9.53909,21.6958c-0.20396,3.03812 -7.32492,9.34678 -7.32492,9.34678c0,0 -7.86272,8.10721 -12.46236,5.71432z" fill="url(#color-6)" stroke="#000000" stroke-linecap="round"/><path d="M373.71823,250.28237c-1.70086,-3.69392 -2.37552,-10.96958 -1.92609,-17.31754c1.31596,-18.58705 11.51402,-21.32012 11.51402,-21.32012l15.27211,0.99901c0,0 6.21769,9.07865 6.72296,18.62674c0.5858,7.91236 -3.79078,17.46017 -6.75008,20.16913c-2.11987,1.94054 -5.32163,4.46399 -11.82783,4.28974c-6.50675,-0.17426 -11.04324,-1.18622 -13.00509,-5.44697z" fill="url(#color-7)" stroke="#000000" stroke-linecap="round"/><path d="M374.96298,250.50723c-1.54437,-2.53169 7.55496,-3.69149 12.71906,-3.50984c5.16409,0.18165 12.51599,2.44634 9.82898,4.30297c-1.92482,1.32998 -4.83198,3.05947 -10.73954,2.94004c-5.90806,-0.11944 -10.02715,-0.813 -11.80849,-3.73317z" fill="url(#color-8)" stroke="#000000" stroke-linecap="round"/><path d="M383.87569,258.27979l0.87977,-11.38247c0,0 1.61806,-0.02615 2.42619,0.05679c0.9105,0.09346 2.77087,0.28883 2.77087,0.28883l-0.87976,11.50748z" fill="url(#color-9)" stroke="#000000" stroke-linecap="butt"/><path d="M372.97901,257.46226c3.28133,-3.15157 2.91975,-7.35251 5.80898,-7.62712c3.73563,-0.35506 12.07859,0.26046 17.59455,5.28603c1.72147,1.56842 1.42251,9.35264 2.60816,15.36212c1.18565,6.00948 2.16335,7.46815 1.93267,12.90604c-0.23068,5.43788 -0.56246,6.24475 -3.27169,8.767c-2.70923,2.52224 -5.96758,1.02217 -6.18101,0.0333c-0.55147,-2.55515 1.16763,-10.30528 1.16763,-10.30528c0,0 -0.64391,5.89567 -2.70388,8.38922c-3.42537,4.14634 -8.00504,0.07366 -8.31504,-0.63804c-0.78037,-1.79156 0.05057,-3.52902 0.60963,-5.07375c0.52756,-1.45767 0.76432,-2.77529 0.76432,-2.77529c0,0 -2.18207,6.51886 -3.86461,8.17128c-2.38293,2.34027 -7.21127,-0.59323 -8.11872,-2.3844c-1.66413,-3.2848 1.8966,-6.75659 2.45524,-11.37869c0.55863,-4.62211 -0.48854,-4.89359 -0.48854,-4.89359c0,0 -2.1456,1.57693 -3.22364,2.70946c-1.401,1.47181 -2.45888,6.33382 -5.73017,5.24959c-2.87944,-0.95435 -7.47918,-7.38599 -0.7582,-15.78103c4.088,-5.10624 6.43299,-2.86528 9.71432,-6.01684z" fill="url(#color-10)" stroke="#000000" stroke-linecap="round"/><path d="M345.11436,160.49295c0,0 3.81369,-0.18651 9.46643,1.28631c5.22366,1.36102 8.63147,4.61518 8.63147,4.61518l-13.77014,11.80298z" fill="url(#color-11)" stroke="#000000" stroke-linecap="round"/></g><path d="M341.06576,165.4063c2.47841,0.42002 4.83918,5.33223 6,9.25c1.16082,3.91777 0.53814,11.12493 2.25,18.25c1.71186,7.12507 5.53675,11.51252 7,20.25c5.07327,30.2939 0.83715,41.69301 -1.25,43.5c-2.20216,1.90657 -11.16417,3.65381 -19.75,5.43322c-5.26526,1.09122 -3.1538,2.18238 -15.25,2.66667c-8.58883,0.34387 -10.6602,-1.29157 -17.41667,-1.91667c-6.93854,-0.64194 -20.61504,-5.18796 -22.83333,-7.83333c-3.13429,-3.73771 -1.69539,-25.98585 0.25,-41.28607c1.28381,-10.09695 2.243,-5.54649 6.25,-21.5c1.74345,-6.94137 -0.40983,-10.0287 1.75,-16.75c2.17965,-5.3215 2.43404,-9.20149 8,-10.25c5.56596,-1.04851 27.87366,-2.71626 45,0.18619z" fill="url(#color-12)" stroke="#000000" stroke-width="0" stroke-linecap="round"/><path d="M348.73507,259.02436c-1.11189,0.96264 -13.77724,6.2571 -29.40755,5.93483c-17.3117,0.13926 -30.28079,-5.50127 -31.11565,-6.49686c-2.44895,-2.92042 -7.80668,-84.27092 30.46987,-85.30993c34.69227,-0.94171 31.68411,84.46008 30.05334,85.87196z" data-paper-data="{&quot;index&quot;:null}" fill="url(#color-13)" stroke="#000000" stroke-width="0" stroke-linecap="round"/><path d="M292.84791,153.73779l0.56809,-15.32009l60.10635,14.52026l-4.8522,10.46876z" fill="#5f3916" stroke="#000000" stroke-width="0" stroke-linecap="round"/><path d="M300.17728,155.09706c0,0 -1.60297,-6.23105 -1.85643,-9.43283c-0.27182,-3.43361 0.27672,-10.52201 0.27672,-10.52201l50.83373,12.2007c0,0 -3.01998,7.377 -4.87819,10.61871c-1.61225,2.8126 -5.63834,7.72762 -5.63834,7.72762z" fill="#150f09" stroke="none" stroke-width="0" stroke-linecap="butt"/><path d="M303.21591,146.51597c2.36806,0.93117 2.50322,2.18378 2.05089,3.99203c-0.45233,1.80824 -2.10393,2.95269 -3.68893,2.5562c-1.585,-0.39649 -2.50321,-2.18378 -2.05088,-3.99202c0.45233,-1.80824 1.30336,-3.49426 3.68892,-2.55621z" data-paper-data="{&quot;index&quot;:null}" fill="#e5d7d6" stroke="none" stroke-width="0" stroke-linecap="butt"/><path d="M312.4705,153.30311c-0.46909,1.87522 -2.31522,3.02869 -4.12346,2.57636c-1.80824,-0.45233 -2.89385,-2.33918 -2.42477,-4.2144c0.46909,-1.87522 1.57945,-3.081 4.0573,-2.31178c2.99692,0.93034 2.96002,2.07461 2.49093,3.94983z" fill="#e5d7d6" stroke="none" stroke-width="0" stroke-linecap="butt"/><path d="M320.97544,155.70395c-0.46909,1.87522 -2.55049,2.96984 -4.64894,2.44491c-2.09846,-0.52493 -3.41932,-2.47063 -2.95024,-4.34585c0.46909,-1.87522 1.68202,-2.86654 4.36226,-2.04807c2.85239,0.87106 3.706,2.0738 3.23692,3.94901z" fill="#e5d7d6" stroke="none" stroke-width="0" stroke-linecap="butt"/><path d="M343.75452,159.87807c-0.45233,1.80824 -2.10391,2.9527 -3.68892,2.55621c-1.585,-0.39649 -2.50322,-2.18378 -2.05089,-3.99203c0.45233,-1.80824 1.20969,-2.68944 3.66687,-2.46801c2.91998,0.26313 2.52527,2.09559 2.07294,3.90383z" fill="#e5d7d6" stroke="none" stroke-width="0" stroke-linecap="butt"/><path d="M337.32211,159.7228c-0.46909,1.87522 -2.31522,3.02869 -4.12347,2.57636c-1.80824,-0.45233 -2.89385,-2.33918 -2.42476,-4.2144c0.46909,-1.87522 1.21255,-3.04639 4.12347,-2.57636c2.67207,0.43147 2.89385,2.33918 2.42476,4.2144z" fill="#e5d7d6" stroke="none" stroke-width="0" stroke-linecap="butt"/><path d="M367.20631,118.2082l-10.83376,3.4748l-1.37339,-6.87203l11.35906,-2.14078z" data-paper-data="{&quot;index&quot;:null}" fill="#220d0d" stroke="#000000" stroke-width="0.5" stroke-linecap="round"/><path d="M363.87191,122.99482c-0.7007,-1.48469 -1.79999,-9.2592 -2.01955,-11.15692c-1.17265,-10.13584 20.95254,-13.37581 23.24293,0.48837c1.98898,12.03967 -16.07881,21.5693 -21.22338,10.66855z" data-paper-data="{&quot;index&quot;:null}" fill="url(#color-14)" stroke="#000000" stroke-width="0" stroke-linecap="round"/><path d="M323.65305,89.38761l4.27672,-20.23731c0,0 4.33583,-1.67933 13.419,0.68442c9.58842,2.49524 13.38919,5.21569 13.38919,5.21569l-5.66989,19.80623z" fill="url(#color-15)" stroke="#000000" stroke-width="0" stroke-linecap="round"/><path d="M317.59978,92.76974l1.29728,-5.71043c0,0 5.50803,-1.76969 17.63244,1.29802c12.79884,3.23835 18.06767,6.65782 18.06767,6.65782l-1.60603,6.27042z" fill="url(#color-16)" stroke="#000000" stroke-width="0" stroke-linecap="round"/><path d="M300.43111,97.38107l9.01321,7.23692l-4.44726,5.41599l-7.92167,-8.16649z" fill="#220d0d" stroke="#000000" stroke-width="0.5" stroke-linecap="round"/><path d="M295.96576,142.304c0,0 -9.37306,-2.4698 -6.93443,-14.7229c1.1941,-6.21044 5.4478,-6.69197 8.53883,-11.05841c3.09103,-4.36644 4.98058,-15.2732 14.28834,-21.06219c5.9398,-5.21513 9.12393,-6.71426 24.82407,-3.84066c9.35949,2.41076 16.52369,5.47021 20.94103,13.53646c4.41734,8.06626 2.76923,14.38492 1.45165,25.10264c-0.2978,2.42248 4.32433,6.16518 3.22346,15.9593c-3.30756,10.90414 -11.82506,10.18482 -11.82506,10.18482z" fill="url(#color-17)" stroke="#000000" stroke-width="0" stroke-linecap="round"/><path d="M348.53437,127.54124c-1.09826,4.39038 -5.50667,7.06945 -9.84645,5.98385c-4.33978,-1.0856 -6.96756,-5.52477 -5.8693,-9.91516c1.09826,-4.39038 5.50667,-7.06944 9.84645,-5.98384c4.33978,1.0856 6.96756,5.52477 5.8693,9.91515z" fill="#000000" stroke="none" stroke-width="0" stroke-linecap="butt"/><path d="M325.67958,121.78113c-1.09826,4.39038 -5.50667,7.06944 -9.84645,5.98384c-4.33978,-1.0856 -6.96756,-5.52477 -5.8693,-9.91515c1.09826,-4.39038 5.50667,-7.06945 9.84645,-5.98385c4.33978,1.0856 6.96756,5.52477 5.8693,9.91516z" fill="#000000" stroke="none" stroke-width="0" stroke-linecap="butt"/><path d="M328.46288,129.24719l-5.36999,21.27567c0,0 -20.38587,-4.51716 -23.71559,-6.60987c-3.94134,-2.47709 -5.9594,-17.10275 8.36678,-19.4363c8.84911,-1.44141 20.7188,4.7705 20.7188,4.7705z" fill="url(#color-18)" stroke="#000000" stroke-width="0" stroke-linecap="round"/><path d="M348.18731,134.59361c11.16608,8.71046 2.65387,20.70197 -1.86543,21.06262c-3.818,0.3047 -23.34757,-5.16303 -23.34757,-5.16303l5.28472,-21.297c0,0 13.03114,0.01705 19.92829,5.39741z" data-paper-data="{&quot;index&quot;:null}" fill="url(#color-19)" stroke="#000000" stroke-width="0" stroke-linecap="round"/><path d="M305.77105,133.56342c-0.14073,0.56257 -0.69186,0.90928 -1.23098,0.77442c-0.53912,-0.13486 -0.86209,-0.70024 -0.72136,-1.2628c0.14073,-0.56257 0.69185,-0.90929 1.23098,-0.77442c0.53912,0.13486 0.86209,0.70024 0.72136,1.2628z" fill="#000000" stroke="none" stroke-width="0" stroke-linecap="butt"/><path d="M309.57926,130.70208c-0.14073,0.56257 -0.69186,0.90928 -1.23098,0.77442c-0.53912,-0.13486 -0.86209,-0.70024 -0.72136,-1.2628c0.14073,-0.56257 0.69185,-0.90929 1.23098,-0.77442c0.53912,0.13486 0.86209,0.70024 0.72136,1.2628z" fill="#000000" stroke="none" stroke-width="0" stroke-linecap="butt"/><path d="M305.48053,129.77984c-0.14073,0.56257 -0.69185,0.90929 -1.23098,0.77442c-0.53912,-0.13486 -0.86209,-0.70024 -0.72136,-1.2628c0.14073,-0.56257 0.69185,-0.90929 1.23098,-0.77442c0.53912,0.13486 0.86209,0.70024 0.72136,1.2628z" fill="#000000" stroke="none" stroke-width="0" stroke-linecap="butt"/><path d="M347.43718,143.78012c-0.14073,0.56257 -0.69185,0.90929 -1.23098,0.77442c-0.53913,-0.13486 -0.86209,-0.70024 -0.72136,-1.2628c0.14073,-0.56257 0.69185,-0.90929 1.23098,-0.77442c0.53913,0.13486 0.86209,0.70024 0.72136,1.2628z" fill="#000000" stroke="none" stroke-width="0" stroke-linecap="butt"/><path d="M349.42644,140.77295c-0.14073,0.56257 -0.69185,0.90929 -1.23098,0.77442c-0.53913,-0.13486 -0.86209,-0.70024 -0.72136,-1.2628c0.14073,-0.56257 0.69185,-0.90929 1.23098,-0.77442c0.53913,0.13486 0.86209,0.70024 0.72136,1.2628z" fill="#000000" stroke="none" stroke-width="0" stroke-linecap="butt"/><path d="M344.79417,139.51113c-0.14073,0.56257 -0.69185,0.90929 -1.23098,0.77442c-0.53913,-0.13486 -0.86209,-0.70024 -0.72136,-1.2628c0.14073,-0.56257 0.69185,-0.90929 1.23098,-0.77442c0.53913,0.13486 0.86209,0.70024 0.72136,1.2628z" fill="#000000" stroke="none" stroke-width="0" stroke-linecap="butt"/><path d="M318.60201,118.6878c-0.08041,0.32146 -0.42068,0.51325 -0.76,0.42837c-0.33932,-0.08488 -0.54921,-0.41429 -0.46879,-0.73576c0.08041,-0.32146 0.42068,-0.51325 0.76,-0.42837c0.33932,0.08488 0.54921,0.41429 0.46879,0.73576z" fill="#ffffff" stroke="none" stroke-width="0" stroke-linecap="butt"/><path d="M341.26283,124.36576c-0.08041,0.32146 -0.42069,0.51325 -0.76001,0.42837c-0.33932,-0.08488 -0.54921,-0.41429 -0.46879,-0.73576c0.08041,-0.32146 0.42068,-0.51325 0.76,-0.42837c0.33932,0.08488 0.54922,0.41429 0.4688,0.73576z" fill="#ffffff" stroke="none" stroke-width="0" stroke-linecap="butt"/><path d="M318.52959,125.36454c0,0 0.82635,-2.80388 10.78111,-0.24346c10.11877,2.6026 8.7908,5.24248 8.7908,5.24248c0,0 -0.79136,5.06355 -10.47787,2.32685c-10.12361,-2.86019 -9.09404,-7.32587 -9.09404,-7.32587z" fill="url(#color-20)" stroke="#000000" stroke-width="0" stroke-linecap="round"/><path d="M313.88196,104.12996c0.9154,0.04519 13.5857,2.77338 12.90065,6.07001c-0.03665,0.17636 -4.48357,-1.2441 -8.33814,-1.7349c-3.26664,-0.41594 -5.62087,0.75197 -5.96078,-0.1105c-0.42412,-1.07614 0.7102,-4.25858 1.39827,-4.22461z" fill="#060203" stroke="#000000" stroke-width="0.5" stroke-linecap="round"/><path d="M350.41446,117.62823c-0.70595,0.60084 -2.23299,-1.53797 -5.31074,-2.70908c-3.63166,-1.38189 -8.22363,-2.22251 -8.17293,-2.39535c0.94782,-3.2309 13.41034,0.32791 14.23919,0.71905c0.62302,0.294 0.12531,3.63569 -0.75554,4.38539z" data-paper-data="{&quot;index&quot;:null}" fill="#060203" stroke="#000000" stroke-width="0.5" stroke-linecap="round"/><path d="M284.30273,86.90675c8.54842,-11.15285 26.54218,2.12292 20.73529,10.51283c-1.08722,1.57085 -5.71757,7.91207 -7.03479,8.89197c-9.67113,7.19458 -21.12396,-9.71966 -13.70051,-19.4048z" fill="url(#color-21)" stroke="#000000" stroke-width="0" stroke-linecap="round"/><path d="M297.43602,103.17142c-6.78773,5.04955 -14.82594,-6.82178 -9.61576,-13.61934c5.99975,-7.82766 18.62874,1.48998 14.55315,7.37847c-0.76308,1.1025 -4.01291,5.55311 -4.9374,6.24087z" fill="url(#color-22)" stroke="#000000" stroke-width="0" stroke-linecap="round"/><path d="M329.70086,158.25365c-0.46909,1.87522 -2.55049,2.96984 -4.64894,2.44491c-2.09846,-0.52493 -3.41932,-2.47063 -2.95024,-4.34585c0.46909,-1.87522 1.16144,-3.03618 4.62689,-2.35671c3.55006,0.69605 3.44138,2.38244 2.97229,4.25766z" fill="#e5d7d6" stroke="none" stroke-width="0" stroke-linecap="butt"/><path d="M320.96632,174.81217c0,0 9.28961,-7.3593 18,-5.33333c5.26407,1.22438 -2.91666,8.11111 -2.91666,8.11111c0,0 6.91553,5.55071 2.55555,8.08333c-10.35772,6.01659 -17.91667,-4.69444 -17.91667,-4.69444z" data-paper-data="{&quot;index&quot;:null}" fill="url(#color-23)" stroke="#000000" stroke-width="0" stroke-linecap="round"/><path d="M366.55115,120.46064c-0.49178,-1.04204 -1.26332,-6.4986 -1.41742,-7.83053c-0.82303,-7.11389 14.70562,-9.38787 16.31314,0.34276c1.39596,8.45009 -11.28498,15.1385 -14.89572,7.48777z" data-paper-data="{&quot;index&quot;:null}" fill="url(#color-24)" stroke="#000000" stroke-width="0" stroke-linecap="round"/><path d="M297.02732,148.7057c5.75527,0.13205 3.02822,2.09229 24.36032,7.72988c19.34816,4.63451 18.40514,2.5561 25.91792,4.18461c5.73028,1.24213 -1.02706,18.36892 -29.26757,11.23338c-27.61603,-6.97775 -28.4782,-23.3192 -21.01068,-23.14786z" fill="url(#color-25)" stroke="#000000" stroke-width="0" stroke-linecap="round"/><path d="M315.01022,180.58995c0,0 -7.55894,10.71103 -17.91666,4.69444c-4.35997,-2.53262 2.55555,-8.08333 2.55555,-8.08333c0,0 -8.18074,-6.88673 -2.91667,-8.11111c8.71039,-2.02597 18,5.33333 18,5.33333z" fill="url(#color-26)" stroke="#000000" stroke-width="0" stroke-linecap="round"/><path d="M323.91299,178.08262c0,2.94552 -2.61167,5.33333 -5.83333,5.33333c-3.22166,0 -5.83334,-2.38781 -5.83334,-5.33333c0,-2.94552 2.61168,-5.33333 5.83334,-5.33333c3.22166,0 5.83333,2.38781 5.83333,5.33333z" fill="#1f1f22" stroke="#000000" stroke-width="0" stroke-linecap="butt"/><path d="M290.08234,219.30703c10.47928,-2.4152 14.27973,4.51879 13.89088,7.52723c-0.44177,3.41787 -5.28153,2.26248 -7.21532,2.88656c-1.48802,0.48022 -3.83945,1.72964 -3.83945,1.72964c0,0 -0.20952,1.0613 4.19756,2.5625c4.40708,1.5012 9.07963,-0.20158 11.31773,2.72248c1.22041,1.59447 1.76968,7.21734 -1.3725,8.34957c-2.21863,0.79944 -9.03888,-0.06154 -9.03888,-0.06154c0,0 1.28994,0.3581 2.8322,0.51492c1.63435,0.16618 3.56028,0.17096 4.83616,1.65111c0.50685,0.58799 2.19044,6.48083 -3.03123,7.76909c-3.14023,0.77473 -8.73185,-1.20194 -8.73185,-1.20194c0,0 7.72892,1.81211 9.7921,3.41717c0.79847,0.62117 0.73704,4.20772 -2.71064,5.55503c-3.44766,1.34732 -4.3186,1.29635 -9.31851,-0.85414c-4.99992,-2.15048 -5.89026,-3.66406 -10.79097,-7.33866c-4.90072,-3.67458 -12.04444,-6.78113 -12.71111,-9.01249c-2.13616,-7.14976 0.92747,-14.93424 2.86751,-18.14629c1.50048,-2.48428 5.12898,-0.33658 9.3918,-1.92646c4.26283,-1.58989 3.26057,-4.67475 9.63454,-6.14378z" fill="url(#color-27)" stroke="#000000" stroke-width="0" stroke-linecap="round"/><g stroke="#000000" stroke-width="0"><path d="M307.04578,227.67937l-10.11718,37.35295l-11.31863,-2.80869l8.19267,-38.02842z" fill="url(#color-28)" stroke-linecap="round"/><path d="M311.29251,221.91609c-0.7175,5.08589 -5.59941,8.60214 -10.90405,7.85378c-5.30463,-0.74836 -9.02324,-5.47795 -8.30574,-10.56385c0.7175,-5.08589 5.59941,-8.60214 10.90405,-7.85378c5.30463,0.74836 9.02324,5.47795 8.30574,10.56385z" fill="url(#color-29)" stroke-linecap="butt"/></g><path d="M277.36972,169.37323c3.55465,0.50148 6.02582,3.81733 5.51952,7.40616c-0.5063,3.58883 -3.79835,6.09162 -7.353,5.59015c-3.55465,-0.50148 -6.02582,-3.81733 -5.51952,-7.40616c0.5063,-3.58883 3.79835,-6.09162 7.353,-5.59015z" fill="url(#color-30)" stroke="none" stroke-width="0" stroke-linecap="butt"/><path d="M238.4963,212.56279l2.74738,-11.20927l5.04629,1.28991l-2.70845,11.09049z" fill="url(#color-31)" stroke="#000000" stroke-width="0" stroke-linecap="butt"/><path d="M245.79771,207.72735c0,0 -6.16985,-7.24156 -5.94741,-10.27838c0.31053,-4.23934 5.43108,-14.66041 12.47633,-20.15051c8.36762,-6.77564 20.13956,-8.93372 20.13956,-8.93372l10.99751,10.65637c0,0 4.48356,9.6631 -10.27611,24.57034c-5.04081,5.0912 -11.60957,10.03796 -15.84799,11.53509c-4.88881,1.7269 -11.54191,-7.3992 -11.54191,-7.3992z" fill="url(#color-32)" stroke="#000000" stroke-width="0" stroke-linecap="round"/><path d="M273.5252,238.98736c-4.47077,4.73004 -8.51842,5.21534 -11.38939,5.34614c-4.00781,0.18261 -13.85894,-3.46024 -19.04799,-9.4621c-6.40416,-7.09986 -8.44227,-17.91317 -8.44227,-17.91317l10.07652,-11.51951c0,0 9.1363,-5.29132 23.22691,6.90153c4.8123,4.16418 9.48776,9.77937 10.90239,13.59209c1.63171,4.39777 -0.85502,8.32459 -5.32617,13.05503z" fill="url(#color-33)" stroke="#000000" stroke-width="0" stroke-linecap="round"/><path d="M272.43689,237.97008c-4.08687,4.26744 -7.36431,5.10475 -9.66521,5.52858c-3.21201,0.59166 0.37567,-6.21331 3.89352,-9.99824c3.51784,-3.78493 10.76429,-9.40915 11.46646,-6.52793c0.80992,3.32335 -1.60753,6.72979 -5.69476,10.99758z" fill="url(#color-34)" stroke="#000000" stroke-width="0" stroke-linecap="round"/><path d="M274.00541,242.78422l-8.76959,-7.50268c0,0 1.1753,-1.45527 1.75204,-2.16598c0.5119,-0.6308 1.67296,-1.75807 1.67296,-1.75807l8.68108,7.41442z" fill="url(#color-35)" stroke="#000000" stroke-width="0" stroke-linecap="butt"/><path d="M285.00435,179.91367l-11.98631,-13.61086c0,0 3.82898,-2.7462 9.19155,-3.36417c5.80306,-0.66874 9.5533,0.0487 9.5533,0.0487z" fill="url(#color-36)" stroke="#000000" stroke-width="0" stroke-linecap="round"/><path d="M292.63554,231.41054c0,0 -0.20953,1.06131 4.19756,2.5625c4.40708,1.50119 9.07964,-0.20158 11.31773,2.72248c1.22041,1.59446 1.76969,7.21735 -1.3725,8.34957c-2.21863,0.79944 -9.03888,-0.06153 -9.03888,-0.06153c0,0 1.28994,0.3581 2.8322,0.51492c1.63434,0.16618 3.56027,0.17096 4.83616,1.65111c0.50685,0.58799 2.19044,6.48083 -3.03122,7.76909c-3.14023,0.77473 -8.73185,-1.20194 -8.73185,-1.20194c0,0 7.72891,1.81212 9.7921,3.41717c0.79847,0.62118 0.73704,4.20772 -2.71063,5.55504c-3.44766,1.34732 -4.31861,1.29635 -9.31851,-0.85415c-4.99992,-2.15049 -5.89026,-3.66407 -10.79097,-7.33866c-4.90072,-3.67458 -12.04444,-6.78114 -12.71111,-9.01249c-2.13616,-7.14976 0.92746,-14.93424 2.86751,-18.14629c1.50048,-2.48427 5.12898,-0.33658 9.3918,-1.92646c4.26283,-1.58989 12.47065,5.99965 12.47065,5.99965z" fill="url(#color-37)" stroke="#000000" stroke-width="0" stroke-linecap="round"/></g></g></svg>