<svg version="1.1" xmlns="http://www.w3.org/2000/svg" xmlns:xlink="http://www.w3.org/1999/xlink" width="664" height="378" viewBox="0,0,664,378"><g transform="translate(12,9)"><g data-paper-data="{&quot;isPaintingLayer&quot;:true}" fill-rule="nonzero" stroke-linejoin="miter" stroke-miterlimit="10" stroke-dasharray="" stroke-dashoffset="0" style="mix-blend-mode: normal"><path d="M-12,369v-378h664v378z" fill="#000000" stroke="none" stroke-width="0" stroke-linecap="butt"/><text transform="translate(30.375,34.59161) scale(0.5,0.5)" font-size="40" xml:space="preserve" fill="#ffffff" fill-rule="nonzero" stroke="none" stroke-width="1" stroke-linecap="butt" stroke-linejoin="miter" stroke-miterlimit="10" stroke-dasharray="" stroke-dashoffset="0" font-family="Serif" font-weight="normal" text-anchor="start" style="mix-blend-mode: normal"><tspan x="0" dy="0">Keep track of your Fazcoin count, while playing, in the monitor system</tspan><tspan x="0" dy="46.150000000000006px">will appear tokens known as Fazcoins.</tspan><tspan x="0" dy="46.150000000000006px"> </tspan><tspan x="0" dy="46.150000000000006px">        These are fazcoins.</tspan><tspan x="0" dy="46.150000000000006px"> </tspan><tspan x="0" dy="46.150000000000006px">Hover your mouse</tspan><tspan x="0" dy="46.150000000000006px">over these fazcoins to collect them, they will be used for certain in-game</tspan><tspan x="0" dy="46.150000000000006px">mechanics, usually related to characters, serving basically as a form of</tspan><tspan x="0" dy="46.150000000000006px">currency for the game.</tspan></text><g><path d="M46.23523,113.53705v-30.07408" fill="none" stroke="#ffffff" stroke-width="1.5" stroke-linecap="round"/><path d="M42.06957,83.46295v30.07408" fill="none" stroke="#ffffff" stroke-width="1.5" stroke-linecap="round"/><path d="M31.1982,98.49999c0,-7.07024 5.73156,-12.8018 12.8018,-12.8018c7.07024,0 12.8018,5.73156 12.8018,12.8018c0,7.07024 -5.73156,12.8018 -12.8018,12.8018c-7.07024,0 -12.8018,-5.73156 -12.8018,-12.8018z" fill="#282828" stroke="#ffffff" stroke-width="1.5" stroke-linecap="butt"/><text transform="translate(38.10165,105.12614) scale(0.53027,0.53027)" font-size="40" xml:space="preserve" fill="#ffffff" fill-rule="nonzero" stroke="none" stroke-width="3" stroke-linecap="butt" stroke-linejoin="miter" stroke-miterlimit="10" stroke-dasharray="" stroke-dashoffset="0" font-family="Serif" font-weight="normal" text-anchor="start" style="mix-blend-mode: normal"><tspan x="0" dy="0">F</tspan></text><path d="M34.65265,98.49999c0,-0.78558 0.63684,-1.42242 1.42242,-1.42242c0.78558,0 1.42242,0.63684 1.42242,1.42242c0,0.78558 -0.63684,1.42242 -1.42242,1.42242c-0.78558,0 -1.42242,-0.63684 -1.42242,-1.42242z" fill="#ffffff" stroke="#bababa" stroke-width="0" stroke-linecap="butt"/><path d="M51.92494,99.92242c-0.78558,0 -1.42242,-0.63684 -1.42242,-1.42242c0,-0.78558 0.63684,-1.42242 1.42242,-1.42242c0.78558,0 1.42242,0.63684 1.42242,1.42242c0,0.78558 -0.63684,1.42242 -1.42242,1.42242z" data-paper-data="{&quot;index&quot;:null}" fill="#ffffff" stroke="#bababa" stroke-width="0" stroke-linecap="butt"/></g><text transform="translate(32.25,291.75) scale(0.86836,0.86836)" font-size="40" xml:space="preserve" fill="#ffffff" fill-rule="nonzero" stroke="none" stroke-width="1" stroke-linecap="butt" stroke-linejoin="miter" stroke-miterlimit="10" stroke-dasharray="" stroke-dashoffset="0" font-family="Serif" font-weight="normal" text-anchor="start" style="mix-blend-mode: normal"><tspan x="0" dy="0">0              1</tspan></text><g><path d="M74.23524,294.53705v-30.07408" fill="none" stroke="#ffffff" stroke-width="1.5" stroke-linecap="round"/><path d="M70.06958,294.53703v-30.07408" fill="none" stroke="#ffffff" stroke-width="1.5" stroke-linecap="round"/><path d="M59.1982,279.49998c0,-7.07024 5.73156,-12.8018 12.8018,-12.8018c7.07024,0 12.8018,5.73156 12.8018,12.8018c0,7.07024 -5.73156,12.8018 -12.8018,12.8018c-7.07024,0 -12.8018,-5.73156 -12.8018,-12.8018z" fill="#282828" stroke="#ffffff" stroke-width="1.5" stroke-linecap="butt"/><text transform="translate(66.10166,286.12613) scale(0.53027,0.53027)" font-size="40" xml:space="preserve" fill="#ffffff" fill-rule="nonzero" stroke="none" stroke-width="3" stroke-linecap="butt" stroke-linejoin="miter" stroke-miterlimit="10" stroke-dasharray="" stroke-dashoffset="0" font-family="Serif" font-weight="normal" text-anchor="start" style="mix-blend-mode: normal"><tspan x="0" dy="0">F</tspan></text><path d="M62.65266,279.49998c0,-0.78558 0.63684,-1.42242 1.42242,-1.42242c0.78558,0 1.42242,0.63684 1.42242,1.42242c0,0.78558 -0.63684,1.42242 -1.42242,1.42242c-0.78558,0 -1.42242,-0.63684 -1.42242,-1.42242z" fill="#ffffff" stroke="#bababa" stroke-width="0" stroke-linecap="butt"/><path d="M79.92494,280.92242c-0.78558,0 -1.42242,-0.63684 -1.42242,-1.42242c0,-0.78558 0.63684,-1.42242 1.42242,-1.42242c0.78558,0 1.42242,0.63684 1.42242,1.42242c0,0.78558 -0.63684,1.42242 -1.42242,1.42242z" data-paper-data="{&quot;index&quot;:null}" fill="#ffffff" stroke="#bababa" stroke-width="0" stroke-linecap="butt"/></g><g><path d="M210.29379,264.46296v30.07408" fill="none" stroke="#ffffff" stroke-width="1.5" stroke-linecap="round"/><path d="M206.12813,294.53704v-30.07408" fill="none" stroke="#ffffff" stroke-width="1.5" stroke-linecap="round"/><path d="M195.25675,279.49998c0,-7.07024 5.73156,-12.8018 12.8018,-12.8018c7.07024,0 12.8018,5.73156 12.8018,12.8018c0,7.07024 -5.73156,12.8018 -12.8018,12.8018c-7.07024,0 -12.8018,-5.73156 -12.8018,-12.8018z" fill="#282828" stroke="#ffffff" stroke-width="1.5" stroke-linecap="butt"/><text transform="translate(202.16021,286.12613) scale(0.53027,0.53027)" font-size="40" xml:space="preserve" fill="#ffffff" fill-rule="nonzero" stroke="none" stroke-width="3" stroke-linecap="butt" stroke-linejoin="miter" stroke-miterlimit="10" stroke-dasharray="" stroke-dashoffset="0" font-family="Serif" font-weight="normal" text-anchor="start" style="mix-blend-mode: normal"><tspan x="0" dy="0">F</tspan></text><path d="M198.71121,279.49998c0,-0.78558 0.63684,-1.42242 1.42242,-1.42242c0.78558,0 1.42242,0.63684 1.42242,1.42242c0,0.78558 -0.63684,1.42242 -1.42242,1.42242c-0.78558,0 -1.42242,-0.63684 -1.42242,-1.42242z" fill="#ffffff" stroke="#bababa" stroke-width="0" stroke-linecap="butt"/><path d="M215.98349,280.92242c-0.78558,0 -1.42242,-0.63684 -1.42242,-1.42242c0,-0.78558 0.63684,-1.42242 1.42242,-1.42242c0.78558,0 1.42242,0.63684 1.42242,1.42242c0,0.78558 -0.63684,1.42242 -1.42242,1.42242z" data-paper-data="{&quot;index&quot;:null}" fill="#ffffff" stroke="#bababa" stroke-width="0" stroke-linecap="butt"/></g><g><path d="M144.27255,281h-36.74267" fill="none" stroke="#ffffff" stroke-width="5" stroke-linecap="round"/><path d="M131.64053,270.93982l20.82959,10.06018l-20.82959,10.06018z" fill="#ffffff" stroke="none" stroke-width="0" stroke-linecap="butt"/></g></g></g></svg>