<svg version="1.1" xmlns="http://www.w3.org/2000/svg" xmlns:xlink="http://www.w3.org/1999/xlink" width="181.64732" height="218.19398" viewBox="0,0,181.64732,218.19398"><defs><linearGradient x1="360.10013" y1="156.62481" x2="342.66192" y2="152.61099" gradientUnits="userSpaceOnUse" id="color-1"><stop offset="0" stop-color="#272727"/><stop offset="1" stop-color="#13100a"/></linearGradient><linearGradient x1="364.70097" y1="177.12985" x2="341.52838" y2="171.79612" gradientUnits="userSpaceOnUse" id="color-2"><stop offset="0" stop-color="#272727"/><stop offset="1" stop-color="#13100a"/></linearGradient><linearGradient x1="369.73869" y1="199.82363" x2="342.0959" y2="193.46097" gradientUnits="userSpaceOnUse" id="color-3"><stop offset="0" stop-color="#272727"/><stop offset="1" stop-color="#13100a"/></linearGradient><radialGradient cx="373.73039" cy="236.82501" r="3.65041" gradientUnits="userSpaceOnUse" id="color-4"><stop offset="0" stop-color="#313131"/><stop offset="1" stop-color="#000000"/></radialGradient><radialGradient cx="384.5797" cy="241.95683" r="3.15878" gradientUnits="userSpaceOnUse" id="color-5"><stop offset="0" stop-color="#1a1a1a"/><stop offset="1" stop-color="#000000"/></radialGradient><linearGradient x1="378.18165" y1="237.89903" x2="385.43734" y2="229.64318" gradientUnits="userSpaceOnUse" id="color-6"><stop offset="0" stop-color="#272727"/><stop offset="1" stop-color="#13100a"/></linearGradient><linearGradient x1="387.239" y1="235.51303" x2="397.46858" y2="223.87335" gradientUnits="userSpaceOnUse" id="color-7"><stop offset="0" stop-color="#272727"/><stop offset="1" stop-color="#13100a"/></linearGradient><linearGradient x1="362.23526" y1="231.97375" x2="373.96427" y2="218.62795" gradientUnits="userSpaceOnUse" id="color-8"><stop offset="0" stop-color="#272727"/><stop offset="1" stop-color="#13100a"/></linearGradient><linearGradient x1="362.47068" y1="225.42483" x2="369.15674" y2="217.81713" gradientUnits="userSpaceOnUse" id="color-9"><stop offset="0" stop-color="#272727"/><stop offset="1" stop-color="#13100a"/></linearGradient><linearGradient x1="378.70828" y1="238.2528" x2="386.17792" y2="229.7535" gradientUnits="userSpaceOnUse" id="color-10"><stop offset="0" stop-color="#272727"/><stop offset="1" stop-color="#13100a"/></linearGradient><linearGradient x1="387.61354" y1="233.87682" x2="397.85055" y2="222.22869" gradientUnits="userSpaceOnUse" id="color-11"><stop offset="0" stop-color="#272727"/><stop offset="1" stop-color="#13100a"/></linearGradient><linearGradient x1="375.5295" y1="240.67126" x2="382.02008" y2="233.28598" gradientUnits="userSpaceOnUse" id="color-12"><stop offset="0" stop-color="#272727"/><stop offset="1" stop-color="#13100a"/></linearGradient><linearGradient x1="388.03769" y1="242.33475" x2="392.21525" y2="228.99935" gradientUnits="userSpaceOnUse" id="color-13"><stop offset="0" stop-color="#272727"/><stop offset="1" stop-color="#13100a"/></linearGradient><radialGradient cx="371.3411" cy="223.4187" r="3.89566" gradientUnits="userSpaceOnUse" id="color-14"><stop offset="0" stop-color="#1a1a1a"/><stop offset="1" stop-color="#000000"/></radialGradient><linearGradient x1="374.43214" y1="225.97799" x2="383.93687" y2="215.16305" gradientUnits="userSpaceOnUse" id="color-15"><stop offset="0" stop-color="#272727"/><stop offset="1" stop-color="#13100a"/></linearGradient><linearGradient x1="272.39318" y1="159.42754" x2="290.27834" y2="158.85952" gradientUnits="userSpaceOnUse" id="color-16"><stop offset="0" stop-color="#272727"/><stop offset="1" stop-color="#13100a"/></linearGradient><linearGradient x1="263.91625" y1="178.65682" x2="287.68277" y2="177.90202" gradientUnits="userSpaceOnUse" id="color-17"><stop offset="0" stop-color="#272727"/><stop offset="1" stop-color="#13100a"/></linearGradient><linearGradient x1="254.58766" y1="199.94917" x2="282.93896" y2="199.04876" gradientUnits="userSpaceOnUse" id="color-18"><stop offset="0" stop-color="#272727"/><stop offset="1" stop-color="#13100a"/></linearGradient><radialGradient cx="243.52028" cy="235.48154" r="3.65041" gradientUnits="userSpaceOnUse" id="color-19"><stop offset="0" stop-color="#313131"/><stop offset="1" stop-color="#000000"/></radialGradient><radialGradient cx="231.88372" cy="238.41985" r="3.15878" gradientUnits="userSpaceOnUse" id="color-20"><stop offset="0" stop-color="#1a1a1a"/><stop offset="1" stop-color="#000000"/></radialGradient><linearGradient x1="238.94536" y1="235.67504" x2="233.422" y2="226.17259" gradientUnits="userSpaceOnUse" id="color-21"><stop offset="0" stop-color="#272727"/><stop offset="1" stop-color="#13100a"/></linearGradient><linearGradient x1="230.5199" y1="231.5836" x2="222.73267" y2="218.18637" gradientUnits="userSpaceOnUse" id="color-22"><stop offset="0" stop-color="#272727"/><stop offset="1" stop-color="#13100a"/></linearGradient><linearGradient x1="255.73624" y1="232.9433" x2="246.80759" y2="217.58235" gradientUnits="userSpaceOnUse" id="color-23"><stop offset="0" stop-color="#272727"/><stop offset="1" stop-color="#13100a"/></linearGradient><linearGradient x1="256.77092" y1="226.47235" x2="251.68119" y2="217.71592" gradientUnits="userSpaceOnUse" id="color-24"><stop offset="0" stop-color="#272727"/><stop offset="1" stop-color="#13100a"/></linearGradient><linearGradient x1="238.3603" y1="235.92037" x2="232.67407" y2="226.13772" gradientUnits="userSpaceOnUse" id="color-25"><stop offset="0" stop-color="#272727"/><stop offset="1" stop-color="#13100a"/></linearGradient><linearGradient x1="230.46863" y1="229.90585" x2="222.67575" y2="216.49889" gradientUnits="userSpaceOnUse" id="color-26"><stop offset="0" stop-color="#272727"/><stop offset="1" stop-color="#13100a"/></linearGradient><linearGradient x1="241.01175" y1="238.90758" x2="236.07082" y2="230.40715" gradientUnits="userSpaceOnUse" id="color-27"><stop offset="0" stop-color="#272727"/><stop offset="1" stop-color="#13100a"/></linearGradient><linearGradient x1="228.41788" y1="238.12235" x2="226.8963" y2="224.231" gradientUnits="userSpaceOnUse" id="color-28"><stop offset="0" stop-color="#272727"/><stop offset="1" stop-color="#13100a"/></linearGradient><radialGradient cx="248.45545" cy="222.78973" r="3.89566" gradientUnits="userSpaceOnUse" id="color-29"><stop offset="0" stop-color="#1a1a1a"/><stop offset="1" stop-color="#000000"/></radialGradient><linearGradient x1="244.92807" y1="224.70338" x2="237.69263" y2="212.25545" gradientUnits="userSpaceOnUse" id="color-30"><stop offset="0" stop-color="#272727"/><stop offset="1" stop-color="#13100a"/></linearGradient><linearGradient x1="285.33102" y1="226.05693" x2="352.55028" y2="226.05693" gradientUnits="userSpaceOnUse" id="color-31"><stop offset="0" stop-color="#272727"/><stop offset="1" stop-color="#13100a"/></linearGradient><linearGradient x1="318.18661" y1="155.29167" x2="318.18661" y2="225.72628" gradientUnits="userSpaceOnUse" id="color-32"><stop offset="0" stop-color="#272727"/><stop offset="1" stop-color="#13100a"/></linearGradient><linearGradient x1="316.75823" y1="156.88586" x2="316.75823" y2="231.61645" gradientUnits="userSpaceOnUse" id="color-33"><stop offset="0" stop-color="#afa8aa"/><stop offset="1" stop-color="#6d5954"/></linearGradient><linearGradient x1="305.35282" y1="148.29142" x2="305.35282" y2="160.39061" gradientUnits="userSpaceOnUse" id="color-34"><stop offset="0" stop-color="#f43c1f"/><stop offset="1" stop-color="#7c1518"/></linearGradient><linearGradient x1="320.02892" y1="149.02606" x2="318.95872" y2="161.07783" gradientUnits="userSpaceOnUse" id="color-35"><stop offset="0" stop-color="#f43c1f"/><stop offset="1" stop-color="#7c1518"/></linearGradient><linearGradient x1="311.7049" y1="152.09402" x2="311.7049" y2="160.04492" gradientUnits="userSpaceOnUse" id="color-36"><stop offset="0" stop-color="#f43c1f"/><stop offset="1" stop-color="#7c1518"/></linearGradient><linearGradient x1="311.78886" y1="165.32747" x2="311.78886" y2="184.5009" gradientUnits="userSpaceOnUse" id="color-37"><stop offset="0" stop-color="#eddd49"/><stop offset="1" stop-color="#b89400"/></linearGradient><linearGradient x1="334.26292" y1="72.4866" x2="328.92361" y2="89.54809" gradientUnits="userSpaceOnUse" id="color-38"><stop offset="0" stop-color="#f43c1f"/><stop offset="1" stop-color="#7c1518"/></linearGradient><linearGradient x1="318.72448" y1="85.81156" x2="338.55309" y2="92.01682" gradientUnits="userSpaceOnUse" id="color-39"><stop offset="0" stop-color="#f43c1f"/><stop offset="1" stop-color="#7c1518"/></linearGradient><linearGradient x1="312.08275" y1="133.85488" x2="308.47807" y2="145.37348" gradientUnits="userSpaceOnUse" id="color-40"><stop offset="0" stop-color="#0c0b0a"/><stop offset="1" stop-color="#4f0501"/></linearGradient><linearGradient x1="319.69916" y1="133.2535" x2="312.77604" y2="155.37604" gradientUnits="userSpaceOnUse" id="color-41"><stop offset="0" stop-color="#13100a"/><stop offset="1" stop-color="#413c34"/></linearGradient><radialGradient cx="296.17809" cy="134.68576" r="3.58874" gradientUnits="userSpaceOnUse" id="color-42"><stop offset="0" stop-color="#000000" stop-opacity="0"/><stop offset="1" stop-color="#000000" stop-opacity="0.22353"/></radialGradient><linearGradient x1="336.84821" y1="141.6437" x2="339.22436" y2="142.38729" gradientUnits="userSpaceOnUse" id="color-43"><stop offset="0" stop-color="#666666"/><stop offset="1" stop-color="#2b2b2b"/></linearGradient><linearGradient x1="340.39485" y1="140.89924" x2="341.70299" y2="141.30861" gradientUnits="userSpaceOnUse" id="color-44"><stop offset="0" stop-color="#666666"/><stop offset="1" stop-color="#2b2b2b"/></linearGradient><linearGradient x1="296.65805" y1="129.494" x2="299.23222" y2="130.29957" gradientUnits="userSpaceOnUse" id="color-45"><stop offset="0" stop-color="#666666"/><stop offset="1" stop-color="#2b2b2b"/></linearGradient><linearGradient x1="334.05562" y1="89.81508" x2="320.22679" y2="134.00446" gradientUnits="userSpaceOnUse" id="color-46"><stop offset="0" stop-color="#13100a"/><stop offset="1" stop-color="#413c34"/></linearGradient><radialGradient cx="296.95989" cy="114.81918" r="7.36635" gradientUnits="userSpaceOnUse" id="color-47"><stop offset="0" stop-color="#b54f76"/><stop offset="1" stop-color="#94211a"/></radialGradient><linearGradient x1="314.34326" y1="104.33811" x2="312.5701" y2="110.00413" gradientUnits="userSpaceOnUse" id="color-48"><stop offset="0" stop-color="#cb853b"/><stop offset="1" stop-color="#985100"/></linearGradient><radialGradient cx="329.60929" cy="111.86995" r="5.01422" gradientUnits="userSpaceOnUse" id="color-49"><stop offset="0" stop-color="#313131"/><stop offset="1" stop-color="#000000"/></radialGradient><radialGradient cx="337.75626" cy="124.90869" r="7.36635" gradientUnits="userSpaceOnUse" id="color-50"><stop offset="0" stop-color="#b54f76"/><stop offset="1" stop-color="#94211a"/></radialGradient><linearGradient x1="307.91739" y1="112.66877" x2="304.83104" y2="130.72012" gradientUnits="userSpaceOnUse" id="color-51"><stop offset="0" stop-color="#b0a9ab"/><stop offset="1" stop-color="#6e6766"/></linearGradient><linearGradient x1="327.78671" y1="116.48787" x2="322.07576" y2="134.73691" gradientUnits="userSpaceOnUse" id="color-52"><stop offset="0" stop-color="#afa8aa"/><stop offset="1" stop-color="#6b6362"/></linearGradient><radialGradient cx="317.08754" cy="113.19427" r="4.53314" gradientUnits="userSpaceOnUse" id="color-53"><stop offset="0" stop-color="#f5f5f5" stop-opacity="0.15294"/><stop offset="1" stop-color="#f5f5f5" stop-opacity="0"/></radialGradient><linearGradient x1="347.59953" y1="92.20088" x2="362.74139" y2="96.93944" gradientUnits="userSpaceOnUse" id="color-54"><stop offset="0" stop-color="#413c34"/><stop offset="1" stop-color="#13100a"/></linearGradient><linearGradient x1="314.34021" y1="84.64314" x2="299.19835" y2="79.90458" gradientUnits="userSpaceOnUse" id="color-55"><stop offset="0" stop-color="#413c34"/><stop offset="1" stop-color="#13100a"/></linearGradient><linearGradient x1="302.42152" y1="80.56153" x2="311.61484" y2="83.43853" gradientUnits="userSpaceOnUse" id="color-56"><stop offset="0" stop-color="#afa8aa"/><stop offset="1" stop-color="#6d5954"/></linearGradient><linearGradient x1="350.11431" y1="92.80536" x2="359.45514" y2="95.72851" gradientUnits="userSpaceOnUse" id="color-57"><stop offset="0" stop-color="#afa8aa"/><stop offset="1" stop-color="#6d5954"/></linearGradient><linearGradient x1="277.78372" y1="229.2563" x2="308.64904" y2="209.87979" gradientUnits="userSpaceOnUse" id="color-58"><stop offset="0" stop-color="#272727"/><stop offset="1" stop-color="#13100a"/></linearGradient><linearGradient x1="351.60383" y1="230.34563" x2="318.11445" y2="213.6517" gradientUnits="userSpaceOnUse" id="color-59"><stop offset="0" stop-color="#272727"/><stop offset="1" stop-color="#13100a"/></linearGradient><linearGradient x1="327.46958" y1="271.49878" x2="371.0034" y2="271.49878" gradientUnits="userSpaceOnUse" id="color-60"><stop offset="0" stop-color="#272727"/><stop offset="1" stop-color="#13100a"/></linearGradient><linearGradient x1="370.52356" y1="271.10426" x2="370.52356" y2="283.85398" gradientUnits="userSpaceOnUse" id="color-61"><stop offset="0" stop-color="#656565"/><stop offset="1" stop-color="#202020"/></linearGradient><linearGradient x1="361.62793" y1="273.17484" x2="361.62793" y2="285.92456" gradientUnits="userSpaceOnUse" id="color-62"><stop offset="0" stop-color="#656565"/><stop offset="1" stop-color="#202020"/></linearGradient><linearGradient x1="352.73021" y1="275.46147" x2="352.73021" y2="288.21119" gradientUnits="userSpaceOnUse" id="color-63"><stop offset="0" stop-color="#656565"/><stop offset="1" stop-color="#202020"/></linearGradient><linearGradient x1="342.57933" y1="276.21826" x2="342.57933" y2="288.97264" gradientUnits="userSpaceOnUse" id="color-64"><stop offset="0" stop-color="#656565"/><stop offset="1" stop-color="#202020"/></linearGradient><linearGradient x1="327.73286" y1="234.48336" x2="359.50678" y2="234.48336" gradientUnits="userSpaceOnUse" id="color-65"><stop offset="0" stop-color="#272727"/><stop offset="1" stop-color="#13100a"/></linearGradient><linearGradient x1="242.77099" y1="272.1872" x2="287.28564" y2="272.1872" gradientUnits="userSpaceOnUse" id="color-66"><stop offset="0" stop-color="#272727"/><stop offset="1" stop-color="#13100a"/></linearGradient><linearGradient x1="243.22415" y1="271.509" x2="243.22415" y2="284.22468" gradientUnits="userSpaceOnUse" id="color-67"><stop offset="0" stop-color="#656565"/><stop offset="1" stop-color="#202020"/></linearGradient><linearGradient x1="252.29855" y1="273.66958" x2="252.29855" y2="286.38526" gradientUnits="userSpaceOnUse" id="color-68"><stop offset="0" stop-color="#656565"/><stop offset="1" stop-color="#202020"/></linearGradient><linearGradient x1="261.37295" y1="276.04621" x2="261.37295" y2="288.76189" gradientUnits="userSpaceOnUse" id="color-69"><stop offset="0" stop-color="#656565"/><stop offset="1" stop-color="#202020"/></linearGradient><linearGradient x1="271.74369" y1="276.90302" x2="271.74369" y2="289.62612" gradientUnits="userSpaceOnUse" id="color-70"><stop offset="0" stop-color="#656565"/><stop offset="1" stop-color="#202020"/></linearGradient><linearGradient x1="263.40081" y1="230.9363" x2="293.64272" y2="230.9363" gradientUnits="userSpaceOnUse" id="color-71"><stop offset="0" stop-color="#272727"/><stop offset="1" stop-color="#13100a"/></linearGradient><radialGradient cx="275.00126" cy="202.10883" r="12.76367" gradientUnits="userSpaceOnUse" id="color-72"><stop offset="0" stop-color="#bd5050"/><stop offset="1" stop-color="#940700"/></radialGradient><radialGradient cx="338.05486" cy="197.60434" r="13.13198" gradientUnits="userSpaceOnUse" id="color-73"><stop offset="0" stop-color="#bd5050"/><stop offset="1" stop-color="#940700"/></radialGradient></defs><g transform="translate(-218.86079,-71.43213)"><g data-paper-data="{&quot;isPaintingLayer&quot;:true}" fill-rule="nonzero" stroke-linejoin="miter" stroke-miterlimit="10" stroke-dasharray="" stroke-dashoffset="0" style="mix-blend-mode: normal"><path d="M311.95797,84.61189c1.01643,1.73446 6.35884,10.91457 -1.15978,7.94683c-0.39949,-0.15769 -0.55011,-0.66224 -0.7843,-1.02226c-0.33362,-0.51289 -1.85419,-2.97307 -2.66574,-4.78946c-0.286,-0.38985 -0.4592,-0.86162 -0.48228,-1.36155c-0.00851,-0.18426 0.00338,-0.37234 0.03753,-0.56156c0.24522,-1.35876 1.5455,-2.26147 2.90426,-2.01625c0.69713,0.12581 1.2742,0.52934 1.63779,1.07601c0.17288,0.18179 0.34832,0.38409 0.52784,0.60446z" data-paper-data="{&quot;index&quot;:null}" fill="#111111" stroke="none" stroke-width="0.5" stroke-linecap="butt"/><path d="M350.12826,95.86697c0.27019,-0.08824 0.52717,-0.16349 0.77091,-0.22287c0.60151,-0.26311 1.30515,-0.29035 1.95954,-0.01907c1.27546,0.52875 1.88079,1.99134 1.35204,3.2668c-0.07363,0.17762 -0.16537,0.34224 -0.2722,0.49261c-0.28984,0.40799 -0.6907,0.71109 -1.14213,0.88428c-1.6651,1.08871 -4.27479,2.33538 -4.83282,2.58629c-0.39171,0.17613 -0.79132,0.51902 -1.21262,0.43555c-7.92901,-1.57095 1.53011,-6.4022 3.32321,-7.31119z" fill="#111111" stroke="none" stroke-width="0.5" stroke-linecap="butt"/><g data-paper-data="{&quot;index&quot;:null}" stroke-width="0"><path d="M342.67668,171.35291c5.77922,-16.56773 0.27922,-20.91728 10.99151,-17.0713c7.17384,2.57559 8.52961,6.21558 5.97789,14.24387c-1.25862,3.95993 5.75252,11.1961 3.84355,16.66872c-1.91755,5.49722 2.58256,11.76411 1.45445,16.43813c-1.24165,5.14438 1.76768,12.1475 -0.10817,15.64999c-1.55641,2.90605 -3.08087,1.93516 -6.32675,0.76982c-6.2055,-2.22792 -11.06286,-10.88288 -13.72002,-18.91885c-1.92978,-5.83621 -4.54386,-20.81012 -2.11247,-27.78039z" fill="#000000" stroke="none" stroke-linecap="butt"/><path d="M344.21092,146.04977c0.97067,-2.78268 8.23625,-1.54538 12.52828,2.3134c2.9403,2.6435 3.75845,7.43937 3.09348,9.34568c-1.63562,4.68898 -6.24085,7.31281 -10.28605,5.86049c-4.04522,-1.45232 -6.97133,-12.83057 -5.33571,-17.51955z" fill="url(#color-1)" stroke="none" stroke-linecap="butt"/><path d="M344.63241,170.96038c6.73254,0.65139 10.02562,-0.68464 11.93725,-2.81493c4.1533,-4.62837 1.9523,-10.74795 3.85038,-10.06649c2.77172,0.9951 6.96678,11.53098 3.8182,20.55727c-1.09431,3.13713 -2.25342,7.45251 -5.48668,9.27745c-6.06962,3.42586 -15.30995,2.77627 -16.03948,2.14844c-1.88755,-1.62449 -2.41766,-7.59913 -2.3393,-11.64246c0.06034,-3.11329 1.019,-7.77281 4.25964,-7.45928z" fill="url(#color-2)" stroke="none" stroke-linecap="butt"/><path d="M343.94146,185.67885c0.21043,-0.60325 13.03349,-6.944 17.84532,-5.21644c5.31869,1.90954 8.0346,22.03362 5.82651,28.36375c-1.13119,3.24287 -1.15499,0.56826 -7.66205,2.04579c-3.87855,0.8807 -9.29422,2.21604 -10.05967,1.94123c-5.31871,-1.90954 -8.15821,-20.80421 -5.95012,-27.13433z" fill="url(#color-3)" stroke="none" stroke-linecap="butt"/><g data-paper-data="{&quot;index&quot;:null}"><path d="M376.65132,238.1588c-0.81952,1.49953 -2.79161,2.11799 -4.40479,1.38136c-1.61318,-0.73663 -2.25657,-2.54939 -1.43706,-4.04892c0.81952,-1.49953 2.79161,-2.11799 4.40479,-1.38136c1.61318,0.73663 2.25657,2.5494 1.43706,4.04893z" data-paper-data="{&quot;index&quot;:null}" fill="url(#color-4)" stroke="none" stroke-linecap="butt"/><path d="M386.99479,240.92115c-0.81952,1.49953 -2.7916,2.11798 -4.40478,1.38136c-1.61318,-0.73663 -2.25657,-2.5494 -1.43707,-4.04893c0.81952,-1.49953 2.79161,-2.11799 4.40479,-1.38136c1.61318,0.73663 2.25657,2.5494 1.43706,4.04893z" data-paper-data="{&quot;index&quot;:null}" fill="url(#color-5)" stroke="none" stroke-linecap="butt"/><g stroke="#000000" stroke-linecap="round"><path d="M375.2029,234.84749c-0.53607,-1.36944 0.63843,-3.71387 0.63843,-3.71387l9.58227,-1.50251l2.20657,6.94527l-9.16464,1.26089c0,0 -2.72656,-1.62035 -3.26265,-2.9898z" fill="url(#color-6)"/><path d="M392.84134,225.23221c0,0 5.00146,-2.49787 7.16154,1.15407c1.91391,3.2358 -2.22663,6.07124 -2.22663,6.07124l-9.58076,3.89613l-4.19791,-6.40096l8.84375,-4.72045z" fill="url(#color-7)"/></g><path d="M365.36168,211.33834c2.18963,0.31149 12.93929,15.73981 13.87242,19.85019c0.93311,4.11038 -7.63105,7.64289 -7.63105,7.64289c0,0 -7.4933,-4.64953 -10.71734,-8.20504c-3.22406,-3.5555 -6.30029,-10.562 -6.30029,-10.562c0,0 7.96753,-9.12558 10.77626,-8.72603z" fill="url(#color-8)" stroke="#000000" stroke-linecap="round"/><path d="M359.3276,221.16485c-0.18097,-1.40952 1.47038,-3.3313 1.47038,-3.3313l9.33474,0.8413l0.43775,7.02825l-8.4892,-0.50548c0,0 -2.57268,-2.62324 -2.75367,-4.03278z" fill="url(#color-9)" stroke="#000000" stroke-linecap="round"/><g stroke="#000000" stroke-linecap="round"><path d="M376.23064,235.92221c-0.74565,-1.26759 0.0438,-3.76809 0.0438,-3.76809l9.22465,-2.99722l3.27589,6.50956l-8.85043,2.69265c0,0 -2.94826,-1.16933 -3.69394,-2.43691z" fill="url(#color-10)"/><path d="M392.12886,223.64156c0,0 4.5441,-3.25655 7.25393,0.00838c2.401,2.89286 -1.23969,6.34673 -1.23969,6.34673l-8.84508,5.36056l-5.15628,-5.65756l7.9871,-6.0581z" fill="url(#color-11)"/></g><path d="M372.36402,235.29146c0.09222,-1.46774 2.14672,-3.09709 2.14672,-3.09709l9.32072,2.68355l-0.93198,7.22753l-8.84013,-2.72624c0,0 -1.78753,-2.61999 -1.69533,-4.08774z" fill="url(#color-12)" stroke="#000000" stroke-linecap="round"/><path d="M391.06677,230.73038c0,0 5.04665,-2.40524 7.13905,1.28593c1.85393,3.27053 -2.33819,6.02916 -2.33819,6.02916l-9.65096,3.7188l-4.07918,-6.47728l8.92928,-4.55658z" fill="url(#color-13)" stroke="#000000" stroke-linecap="round"/><path d="M376.51639,223.88531c-1.0107,1.84935 -3.44282,2.61207 -5.43233,1.7036c-1.9895,-0.90847 -2.78299,-3.14411 -1.7723,-4.99345c1.0107,-1.84935 3.44283,-2.61209 5.43235,-1.7036c1.9895,0.90847 2.78299,3.14411 1.77229,4.99346z" data-paper-data="{&quot;index&quot;:null}" fill="url(#color-14)" stroke="none" stroke-linecap="butt"/><path d="M381.06146,216.34821c0,0 5.27458,-1.16717 6.44195,2.76315c1.03433,3.48243 -3.51253,5.16813 -3.51253,5.16813l-9.89528,1.40272c0,0 -0.00347,-2.84539 -0.42583,-4.05847c-0.38487,-1.10541 -2.00629,-2.92709 -2.00629,-2.92709l9.39797,-2.34841z" fill="url(#color-15)" stroke="#000000" stroke-linecap="round"/></g></g><g stroke-width="0"><path d="M286.64176,177.24523c1.03846,7.30875 -4.42021,21.49516 -7.44152,26.8484c-4.1601,7.37094 -10.59856,14.92398 -17.11764,15.91062c-3.4099,0.51607 -5.09326,1.17405 -6.0587,-1.97801c-1.16358,-3.79899 3.14245,-10.08849 2.91842,-15.37585c-0.20355,-4.80392 5.42288,-10.08298 4.60388,-15.84715c-0.81534,-5.73837 7.4621,-11.48314 6.99251,-15.61165c-0.95205,-8.37008 1.08164,-11.67943 8.61799,-12.82003c11.25362,-1.70318 5.01672,1.50142 7.48507,18.8737z" fill="#000000" stroke="none" stroke-linecap="butt"/><path d="M290.02658,152.12265c0.6986,4.91668 -4.37133,15.51492 -8.62096,16.15807c-4.24963,0.64316 -8.26095,-2.82121 -8.95953,-7.7379c-0.28401,-1.99888 1.44557,-6.54622 4.84132,-8.57163c4.95687,-2.95655 12.32459,-2.76637 12.73917,0.15144z" fill="url(#color-16)" stroke="none" stroke-linecap="butt"/><path d="M284.79877,176.48215c3.24015,0.31866 3.28023,5.07561 2.73775,8.14187c-0.70455,3.98224 -2.37932,9.74179 -4.54524,10.97087c-0.8371,0.47502 -10.02877,-0.67344 -15.32188,-5.20774c-2.81962,-2.4154 -3.12288,-6.87345 -3.59028,-10.16291c-1.34479,-9.46461 4.80737,-18.99111 7.71915,-19.43179c1.99399,-0.30179 -1.34819,5.27707 1.83233,10.62085c1.46389,2.45956 4.43668,4.40682 11.16818,5.06886z" fill="url(#color-17)" stroke="none" stroke-linecap="butt"/><path d="M271.55023,216.52951c-0.80412,0.12169 -5.85962,-2.23511 -9.49485,-3.84878c-6.09884,-2.70726 -6.63909,-0.08766 -7.12223,-3.48801c-0.94309,-6.63752 5.61083,-25.85733 11.19829,-26.70297c5.05499,-0.76504 16.41087,7.93437 16.50075,8.56691c0.9431,6.63752 -5.49448,24.62721 -11.08195,25.47285z" fill="url(#color-18)" stroke="none" stroke-linecap="butt"/><g data-paper-data="{&quot;index&quot;:null}"><path d="M240.39664,236.22568c-0.51425,-1.62964 0.46734,-3.28388 2.19248,-3.69487c1.72513,-0.41098 3.54052,0.57695 4.05479,2.20659c0.51425,1.62964 -0.46734,3.28387 -2.19248,3.69486c-1.72513,0.41098 -3.54051,-0.57694 -4.05478,-2.20659z" data-paper-data="{&quot;index&quot;:null}" fill="url(#color-19)" stroke="none" stroke-linecap="butt"/><path d="M229.71432,236.93696c-0.51425,-1.62964 0.46734,-3.28388 2.19247,-3.69487c1.72513,-0.41098 3.54052,0.57694 4.05479,2.20659c0.51425,1.62964 -0.46734,3.28388 -2.19248,3.69487c-1.72513,0.41098 -3.54051,-0.57694 -4.05478,-2.20659z" data-paper-data="{&quot;index&quot;:null}" fill="url(#color-20)" stroke="none" stroke-linecap="butt"/><g stroke="#000000" stroke-linecap="round"><path d="M242.45773,233.25671c-0.79065,1.24003 -3.77895,2.3029 -3.77895,2.3029l-8.74819,-3.0083l3.50722,-6.38789l9.11124,3.32607c0,0 0.69928,2.52721 -0.09135,3.76723z" fill="url(#color-21)"/><path d="M227.01006,220.4139l7.76474,6.34061l-5.35583,5.46899l-8.64716,-5.67427c0,0 -3.5145,-3.58219 -1.01132,-6.38711c2.82514,-3.16564 7.24956,0.25175 7.24956,0.25175z" fill="url(#color-22)"/></g><path d="M256.65681,212.09272c2.83299,0.15081 8.88669,10.64417 8.88669,10.64417c0,0 -4.37232,6.27988 -8.22274,9.14527c-3.85042,2.86539 -12.10102,5.9791 -12.10102,5.9791c0,0 -7.72001,-5.12105 -6.01011,-8.9736c1.70991,-3.85254 15.23862,-16.91251 17.44717,-16.79495z" fill="url(#color-23)" stroke="#000000" stroke-linecap="round"/><path d="M257.1969,226.32469l-8.42684,-1.14469l1.78777,-6.81115l9.32135,0.9786c0,0 1.24882,2.20469 0.79885,3.55266c-0.44999,1.34798 -3.48113,3.42457 -3.48113,3.42457z" fill="url(#color-24)" stroke="#000000" stroke-linecap="round"/><g stroke="#000000" stroke-linecap="round"><path d="M241.24167,234.11255c-0.9766,1.09958 -4.09526,1.67708 -4.09526,1.67708l-8.1632,-4.35233l4.47218,-5.75372l8.47149,4.72347c0,0 0.29132,2.60592 -0.68525,3.70551z" fill="url(#color-25)"/><path d="M228.01652,218.99092l6.66572,7.48749l-6.15245,4.55438l-7.64234,-6.9689c0,0 -2.90456,-4.09237 0.01026,-6.46667c3.28973,-2.67966 7.1188,1.39368 7.1188,1.39368z" fill="url(#color-26)"/></g><path d="M245.15725,234.24098c-0.1932,1.45791 -2.45337,3.68304 -2.45337,3.68304l-9.20035,0.96639l0.4824,-7.27139l9.66363,-0.83161c0,0 1.70088,1.99568 1.5077,3.45358z" fill="url(#color-27)" stroke="#000000" stroke-linecap="round"/><path d="M227.68859,226.15137l7.88033,6.19636l-5.25409,5.56682l-8.75032,-5.51386c0,0 -3.57995,-3.5168 -1.1289,-6.36738c2.76631,-3.2172 7.25298,0.11803 7.25298,0.11803z" fill="url(#color-28)" stroke="#000000" stroke-linecap="round"/><path d="M245.99147,217.69055c2.12758,-0.50686 4.36645,0.71153 5.00068,2.72134c0.63422,2.0098 -0.57637,4.04995 -2.70393,4.55679c-2.12758,0.50686 -4.36645,-0.71152 -5.00068,-2.72133c-0.63423,-2.00981 0.57637,-4.04996 2.70393,-4.5568z" data-paper-data="{&quot;index&quot;:null}" fill="url(#color-29)" stroke="none" stroke-linecap="butt"/><path d="M240.28482,213.97399l8.76693,4.12041c0,0 -1.94293,1.47397 -2.53417,2.48416c-0.64884,1.10859 -1.20215,3.89966 -1.20215,3.89966l-9.43764,-3.28864c0,0 -4.13537,-2.53266 -2.44752,-5.74954c1.90494,-3.63061 6.85452,-1.46607 6.85452,-1.46607z" fill="url(#color-30)" stroke="#000000" stroke-linecap="round"/></g></g><path d="" fill="#373539" stroke="none" stroke-width="0.5" stroke-linecap="butt"/><path d="M334.65421,149.40112c0,4.95664 6.17618,25.93703 2.45316,33.62819c-4.64219,9.58997 -19.72102,5.55017 -23.91483,5.55017c-4.14219,0 -14.3084,4.79879 -17.44341,-4.41413c-2.58468,-7.59565 1.45519,-28.86728 1.45519,-33.9c0,-3.59529 12.1615,-5.53043 13.28045,-8.45341c2.34718,-6.13144 1.91132,-7.39079 7.02892,-7.39079c5.37835,0 3.40623,1.11585 5.64259,7.76711c0.90601,2.69459 11.49794,4.00184 11.49794,7.21285z" fill="#000000" stroke="none" stroke-width="0" stroke-linecap="butt"/><path d="M352.53907,216.49814c0.39555,2.77064 -9.76556,5.24875 -16.64035,10.12298c-7.49205,5.31185 -10.66121,12.29514 -19.47338,12.13091c-9.12101,-0.16999 -12.28175,-5.34316 -18.315,-10.72545c-5.74577,-5.12583 -12.53097,-10.65024 -12.76471,-12.82478c-0.60589,-5.63694 17.7601,3.45691 31.29857,3.45691c13.53847,0 35.1149,-7.62387 35.89486,-2.16057z" fill="url(#color-31)" stroke="none" stroke-width="0" stroke-linecap="butt"/><g stroke-linecap="butt"><path d="M351.08541,214.23015c-7.00798,4.23806 -24.25438,5.01442 -33.33091,5.01442c-9.94829,0 -25.34978,-1.82611 -32.47197,-6.70457c-6.63161,-4.54244 -1.75652,-52.28514 5.83314,-59.47626c5.29194,-5.01405 12.98711,2.83272 21.24776,2.4533c8.77611,-0.4031 15.97428,-6.70709 21.81141,-6.70709c19.21133,0 24.73564,60.688 16.91057,65.4202z" fill="url(#color-32)" stroke="none" stroke-width="0"/><g stroke="none"><path d="M338.01825,210.24394c-0.10925,9.78865 -50.2182,9.20959 -49.79191,-1.69078c1.71917,-43.95855 11.86872,-51.36103 23.56257,-51.36103c11.69386,0 26.78461,3.29916 26.22933,53.05181z" fill="url(#color-33)" stroke-width="0"/><path d="M310.1925,154.34101c0,1.78458 -1.98947,5.75905 -5.10152,8.12036c-2.71434,2.05953 -6.57216,2.68509 -6.97284,2.22858c-0.54465,-0.62056 -1.36695,-3.32963 -0.54199,-5.82593c0.64587,-1.95441 2.93699,-3.74495 2.93699,-4.52301c0,-1.37551 -1.12976,-1.96704 -1.45906,-3.00049c-0.47056,-1.4768 -0.02701,-3.13553 1.54547,-3.13553c2.67289,0 9.59294,2.79492 9.59294,6.13602z" fill="url(#color-34)" stroke-width="0"/><path d="M325.30767,149.40805c1.7438,0.15484 2.08897,1.85075 1.43651,3.27543c-0.45658,0.99697 -1.76175,1.47494 -1.88341,2.84505c-0.06882,0.77501 2.31353,2.78415 2.8569,4.7945c0.69404,2.56775 -0.45747,5.18522 -1.11636,5.74972c-0.48469,0.41526 -4.7075,-0.58774 -7.53538,-2.90649c-3.24224,-2.6585 -5.09691,-6.81331 -4.93906,-8.5909c0.29552,-3.32801 8.21671,-5.43053 11.1808,-5.16732z" data-paper-data="{&quot;index&quot;:null}" fill="url(#color-35)" stroke-width="0"/><path d="M316.67421,156.06947c0,2.19558 -2.22484,3.97545 -4.96931,3.97545c-2.74447,0 -4.96931,-1.77987 -4.96931,-3.97545c0,-2.19558 2.22484,-3.97545 4.96931,-3.97545c2.74448,0 4.96931,1.77987 4.96931,3.97545z" fill="url(#color-36)" stroke-width="0"/><path d="M302.93298,158.01398c-0.21606,0 -0.21606,-0.21606 -0.21606,-0.21606l0.09621,-0.35261c1.04592,-0.69181 2.18446,-1.73584 3.46929,-1.84238c-1.25205,-1.09083 -2.64547,-1.68833 -3.29515,-3.52701l-0.03423,-0.00198c0,0 -0.15278,-0.15277 0,-0.30555c0.15278,-0.15277 0.30555,0 0.30555,0l0.13861,0.17088c0.60066,1.97022 2.31055,2.45113 3.57757,3.71815c0,0 0.15278,0.15277 0,0.30555c-0.15278,0.15277 -0.30555,0 -0.30555,0c-0.00595,-0.00595 -0.0119,-0.01187 -0.01785,-0.01779c-0.06266,0.08107 -0.17506,0.08107 -0.17506,0.08107c-1.24576,-0.01117 -2.42375,1.10753 -3.42349,1.7786l0.09621,-0.00693c0,0 0,0.21606 -0.21606,0.21606z" fill="#711c0f" stroke-width="0.5"/><path d="M323.28556,157.45224c0,0.21606 -0.21606,0.21606 -0.21606,0.21606l-0.15475,-0.01109c-0.1963,-0.06556 -0.39626,-0.12018 -0.59704,-0.17037c-1.75585,-0.59633 -2.6415,-1.80626 -4.69285,-1.80626c0,0 -0.12505,0 -0.18488,-0.09513c-0.18726,0.06079 -0.38404,0.09513 -0.59293,0.09513c0,0 -0.21606,0 -0.21606,-0.21606c0,-0.21606 0.21606,-0.21606 0.21606,-0.21606c1.78638,0 2.62736,-2.57579 4.40756,-2.59269l-0.06636,-0.02314c0,0 0.15278,-0.15277 0.30556,0c0.15278,0.15277 0,0.30555 0,0.30555l-0.23919,0.14971c-1.26034,-0.01565 -2.08238,1.44463 -3.18027,2.18018c1.80033,0.16044 2.70582,1.26474 4.36416,1.80389c0.20614,0.05153 0.41125,0.10824 0.61288,0.17532l0.0181,-0.01109c0,0 0.21606,0 0.21606,0.21606z" fill="#711c0f" stroke-width="0.5"/></g><path d="M321.34131,172.22027l-5.86658,5.39756l2.72573,6.45346l-6.15515,-3.66304l-6.94733,4.09264l3.12088,-6.71588l-5.98245,-5.27707l6.76697,-0.10952l2.56322,-7.07096l2.83821,6.8549z" fill="url(#color-37)" stroke="#ffa93e" stroke-width="0"/></g><g stroke="none" stroke-linecap="butt"><path d="M343.94846,142.41866c-0.53881,1.72172 -4.30288,4.49354 -9.95634,6.01785c-10.16057,2.73952 -20.08491,3.98152 -26.86516,1.8597c-10.55282,-3.30245 -14.76509,-15.02889 -13.25791,-19.84499c1.50717,-4.81609 10.56297,0.75721 21.1158,4.05966c10.55282,3.30245 30.47078,3.09172 28.9636,7.90781z" fill="#0c0b0a" stroke-width="0"/><path d="M302.32377,127.29648l-1.31289,3.62513l-1.58899,-1.0163l1.31289,-3.62513z" fill="#ffffff" stroke-width="0"/><g stroke-width="0"><path d="M340.23861,75.03357l-4.03249,14.79966c0,0 -15.32277,0.74259 -13.84836,-3.9688c1.4744,-4.71139 3.22488,-14.19031 3.22488,-14.19031c0,0 1.53966,-0.79579 7.58174,0.49886c5.94838,1.27456 7.07421,2.86057 7.07421,2.86057z" fill="url(#color-38)"/><path d="M316.92362,91.92766l1.44027,-6.99075c0,0 6.26515,0.98638 10.93814,1.8579c4.673,0.87155 11.77584,2.40007 11.77584,2.40007l-1.18958,7.04774z" fill="url(#color-39)"/></g><path d="M331.55878,139.54254c-0.9954,3.18076 -17.89939,9.38155 -24.17134,7.41879c-6.27197,-1.96278 -7.9821,-12.05959 -6.9867,-15.24035c0.9954,-3.18077 5.41006,0.17117 11.68202,2.13393c6.27197,1.96278 20.47142,2.50687 19.47602,5.68765z" fill="url(#color-40)" stroke-width="0"/><path d="M339.7839,125.40206c-1.35547,4.33133 -6.147,6.961 -9.14298,9.69116c-5.00952,4.56507 -9.29741,7.54628 -15.5726,5.5825c-7.51043,-2.35035 -10.13526,-6.92386 -10.5498,-15.29292c-0.13897,-2.80553 -1.95898,-8.43963 -1.04965,-11.34533c1.67047,-5.3379 6.57498,-9.15191 10.58017,-11.96105c4.67886,-3.28163 8.73238,-5.00346 14.13541,-3.31261c5.22312,1.63455 8.03416,5.30874 10.07166,10.41982c1.87442,4.70195 3.26328,10.67288 1.52782,16.21844z" fill="#6e695a" stroke-width="0"/><path d="M326.7013,133.34957l-0.64786,3.93649l-4.48425,-0.58944l0.86215,-3.72518z" fill="#ffffff" stroke-width="0"/><path d="M306.83982,128.79873l-1.15728,3.69805l-3.93336,-1.23092l1.15727,-3.69804z" fill="#ffffff" stroke-width="0"/><path d="M316.77346,131.67088l-1.15727,3.69804l-4.31706,-0.9904l1.26006,-4.02647z" fill="#ffffff" stroke-width="0"/><path d="M321.69252,132.809l-0.95135,3.75593l-4.43059,-0.82781l1.09743,-3.99871z" fill="#ffffff" stroke-width="0"/><path d="M311.76957,130.20994l-1.21896,3.8951c0,0 -1.70401,-0.54886 -2.44381,-0.81892c-0.62496,-0.22814 -1.72937,-0.63129 -1.72937,-0.63129l1.17784,-3.76372z" fill="#ffffff" stroke-width="0"/><path d="M302.52708,145.39905l1.18118,-3.77446l4.78824,1.49846l-1.18119,3.77445z" fill="#ffffff" stroke-width="0"/><path d="M308.13996,146.79763l0.93595,-3.63685l4.67504,1.16295l-1.09798,3.6576z" fill="#ffffff" stroke-width="0"/><path d="M323.51145,149.0635l0.97253,-3.9509l3.55821,0.22436l-0.72562,3.5836z" fill="#cecece" stroke-width="0"/><path d="M313.28886,147.98093l1.05654,-3.71342l4.27366,0.59433l-0.92251,4.21267z" fill="#ffffff" stroke-width="0"/><path d="M318.37349,149.20128l1.12413,-4.43537l4.14396,0.36865l-0.94799,3.8461z" fill="#ffffff" stroke-width="0"/><path d="M296.22363,139.53901c0,0 0.45433,-1.20805 0.84302,-1.72765c0.29493,-0.39426 0.6244,-1.55702 0.6244,-1.55702l1.06589,2.38629l-0.79426,3.39548z" fill="#ffffff" stroke-width="0"/><path d="M297.99397,143.83753l1.24926,-4.54648l3.74162,2.03636l-1.18119,3.77445z" fill="#ffffff" stroke-width="0"/><path d="M343.87731,141.26618c-0.56489,1.80506 -0.40867,10.24504 -9.27617,12.66225c-9.4949,2.58823 -23.30697,0.93753 -29.27362,-1.28004c-13.51132,-5.02162 -11.97856,-16.98093 -10.93566,-20.75576c0.9028,-3.26773 1.8631,-4.18274 2.20911,-0.47755c0.41608,4.45534 -0.24452,10.55868 7.49847,13.24625c5.41984,1.88121 18.46195,4.44191 27.06944,2.29004c9.86108,-2.46527 13.33299,-7.68099 12.70842,-5.6852z" fill="url(#color-41)" stroke-width="0"/><path d="M296.87859,137.5067c-1.1474,-0.35907 -0.63109,-3.01929 -1.0367,-5.39633c-0.19266,-1.12917 -2.63183,-1.43218 -2.4357,-2.0589c0.60901,-1.94601 3.13263,-1.32139 2.81425,-0.30038c-0.30673,0.9836 2.35059,8.28524 0.65817,7.7556z" fill="url(#color-42)" stroke-width="0"/><path d="M335.00783,147.5245l4.17617,-11.96495l1.98286,0.62053l-4.31175,11.47828c0,0 -0.27392,0.53862 -0.77881,0.54849c-0.90725,-0.20198 -1.06848,-0.68236 -1.06848,-0.68236z" fill="url(#color-43)" stroke-width="0"/><path d="M339.13274,145.09481l2.78572,-8.90165l1.26181,0.39487l-2.78572,8.90165c0,0 -0.23777,0.51792 -0.91447,0.30617c-0.79143,-0.24767 -0.34736,-0.70104 -0.34736,-0.70104z" fill="url(#color-44)" stroke-width="0"/><path d="M295.88283,136.56439c-0.4437,-0.31926 -0.35642,-0.96293 -0.35642,-0.96293l3.21924,-12.77829l2.1481,0.67224l-3.63935,13.12424c0,0 -0.43911,0.32461 -1.37156,-0.05525z" data-paper-data="{&quot;index&quot;:null}" fill="url(#color-45)" stroke-width="0"/><path d="M348.61023,101.33672c0.8746,4.6995 -1.56486,18.41853 0.78612,22.53183c3.23972,5.6682 0.13546,14.90943 -5.82733,13.04342c-10.28985,-3.22015 -54.64045,-6.7988 -50.32604,-16.54078c4.44129,-10.02846 3.36524,-4.53476 6.16402,-10.30919c2.44769,-5.05007 4.61554,-14.57471 8.30243,-17.73544c2.91924,-2.29114 8.75006,-4.86989 20.97515,-2.49538c13.63335,1.73785 18.89051,5.94356 19.92563,11.50559z" fill="url(#color-46)" stroke-width="0"/><path d="M303.98324,120.49567c-1.25005,3.99444 -4.84596,6.42438 -8.03172,5.42743c-3.18574,-0.99696 -4.75496,-5.0433 -3.50491,-9.03775c1.25005,-3.99444 4.84597,-6.42439 8.03172,-5.42743c3.18574,0.99696 4.75496,5.04331 3.50492,9.03775z" fill="url(#color-47)" stroke-width="0"/><g stroke-width="0"><path d="M319.135,109.59178c-1.09349,3.49421 -5.11675,5.34518 -8.9862,4.13426c-3.86942,-1.21091 -6.11981,-5.02518 -5.02629,-8.5194c1.09349,-3.49421 4.02766,-7.58316 9.39089,-5.80856c5.14583,1.70269 5.71509,6.69947 4.6216,10.19369z" fill="#1b1c1a"/><path d="M317.17959,108.81712c-0.79495,2.5402 -3.76398,3.87197 -6.6315,2.9746c-2.86753,-0.89738 -4.5477,-3.68409 -3.75275,-6.22429c0.79495,-2.5402 3.76397,-3.87198 6.6315,-2.9746c2.86753,0.89738 4.54769,3.68409 3.75275,6.22429z" fill="#ffffff"/><path d="M316.14657,108.01291c-0.48965,1.56461 -2.09088,2.45612 -3.57647,1.99122c-1.48558,-0.46491 -2.29297,-2.11016 -1.80332,-3.67479c0.48965,-1.56461 2.09088,-2.45612 3.57647,-1.99122c1.48558,0.46491 2.29297,2.11016 1.80332,3.67479z" fill="url(#color-48)"/><path d="M314.81561,107.357c-0.23369,0.74674 -1.01129,1.16805 -1.73681,0.941c-0.72552,-0.22704 -1.12423,-1.01646 -0.89055,-1.76322c0.23369,-0.74674 1.0113,-1.16805 1.73681,-0.941c0.72552,0.22704 1.12422,1.01647 0.89053,1.76322z" fill="#000000"/></g><path d="M336.76049,114.60829c-1.03568,3.30949 -5.18032,4.95807 -9.2573,3.68219c-4.07698,-1.27587 -6.54243,-4.99304 -5.50676,-8.30251c1.03568,-3.30949 3.97522,-7.13205 9.62903,-5.27157c5.42463,1.78506 6.17071,6.58242 5.13503,9.8919z" fill="#1b1c1a" stroke-width="0"/><path d="M334.58662,112.75409c-0.57539,1.83861 -2.42591,3.25619 -6.31827,2.34171c-3.42541,-0.80477 -3.82783,-3.49821 -3.25245,-5.33682c0.57539,-1.83861 3.62462,-1.85694 5.80534,-1.1745c2.1807,0.68244 4.34079,2.331 3.76541,4.16961z" fill="url(#color-49)" stroke-width="0"/><path d="M336.07455,112.38331c-0.15207,0.48594 -1.83444,-1.59913 -5.5837,-2.70912c-4.41872,-1.30818 -6.82529,0.20014 -6.60719,-0.49677c0.37399,-1.19509 2.49311,-4.68691 6.81006,-3.29058c5.46006,1.76609 5.56032,5.92291 5.38083,6.49647z" fill="#b02a25" stroke-width="0"/><path d="M347.09267,130.72872c-1.25005,3.99444 -5.41091,6.24759 -9.29355,5.03255c-3.88264,-1.21505 -6.01678,-5.43818 -4.76675,-9.43264c1.25005,-3.99444 5.41091,-6.2476 9.29355,-5.03254c3.88264,1.21505 6.01679,5.43819 4.76674,9.43264z" fill="url(#color-50)" stroke-width="0"/><path d="M302.29615,113.96259c4.89803,-2.28801 10.86441,-0.08625 12.91975,0.16984c3.41504,0.42552 1.449,2.16408 -0.0705,10.33405c-0.21801,1.17224 -1.12223,5.63774 -1.89156,6.46225c-0.73567,0.78843 -12.67022,-1.95471 -14.26752,-3.44863c-1.29416,-1.21039 -1.57571,-3.33301 -1.86919,-4.51535c-0.18406,-0.74142 1.51879,-7.29235 5.17902,-9.00214z" data-paper-data="{&quot;index&quot;:null}" fill="url(#color-51)" stroke-width="0"/><path d="M334.99032,131.39444c-0.94764,0.94868 -2.36493,2.77389 -4.48495,3.25066c-2.61661,0.58844 -18.21875,-2.71269 -18.66464,-3.80872c-0.46627,-1.14618 1.16453,-5.82775 1.51505,-7.02159c2.44285,-8.32046 1.06175,-10.90836 5.23245,-9.60316c2.51015,0.78553 10.54661,1.71558 15.03807,6.27105c3.35641,3.40425 1.95827,10.31689 1.36404,10.91178z" fill="url(#color-52)" stroke-width="0"/><path d="M323.04507,114.81486c-0.44344,1.417 -1.26826,3.99431 -3.11851,5.51779c-1.59346,1.31205 -4.16528,1.72169 -5.36299,1.34688c-1.36658,-0.42767 -3.73567,-1.84855 -4.33348,-3.77605c-0.53448,-1.72334 0.86587,-4.74853 1.25547,-5.99347c0.82535,-2.63736 12.38486,0.26748 11.55951,2.90485z" fill="#010007" stroke-width="0"/><path d="M303.8794,119.45585c0.06411,-0.20485 0.2775,-0.32039 0.47661,-0.25808c0.19911,0.06231 0.30856,0.27887 0.24444,0.48373c-0.06411,0.20485 -0.27748,0.32039 -0.4766,0.25808c-0.19911,-0.06231 -0.30856,-0.27889 -0.24445,-0.48374z" fill="#010007" stroke-width="0.5"/><path d="M304.46018,123.60805c0.06411,-0.20485 0.27748,-0.32039 0.4766,-0.25808c0.19911,0.06231 0.30856,0.27889 0.24445,0.48374c-0.06411,0.20485 -0.27749,0.32039 -0.4766,0.25808c-0.19911,-0.06231 -0.30856,-0.27888 -0.24445,-0.48374z" fill="#010007" stroke-width="0.5"/><path d="M300.9939,121.40344c0.0641,-0.20484 0.27749,-0.32039 0.4766,-0.25808c0.19911,0.06231 0.30856,0.27888 0.24445,0.48374c-0.0641,0.20484 -0.27748,0.32039 -0.4766,0.25808c-0.19911,-0.06231 -0.30856,-0.27888 -0.24445,-0.48374z" fill="#010007" stroke-width="0.5"/><path d="M327.43371,123.87466c0.06411,-0.20485 0.27748,-0.32039 0.4766,-0.25808c0.19911,0.06231 0.30856,0.27889 0.24445,0.48374c-0.06411,0.20485 -0.27749,0.32039 -0.4766,0.25808c-0.19911,-0.06231 -0.30856,-0.27888 -0.24445,-0.48374z" fill="#010007" stroke-width="0.5"/><path d="M324.76979,127.01146c0.06411,-0.20485 0.2775,-0.32039 0.4766,-0.25808c0.19911,0.06231 0.30856,0.27889 0.24445,0.48374c-0.06411,0.20485 -0.27748,0.32039 -0.4766,0.25808c-0.19911,-0.06231 -0.30856,-0.27888 -0.24445,-0.48374z" fill="#010007" stroke-width="0.5"/><path d="M329.64737,126.60354c0.0641,-0.20484 0.27748,-0.32039 0.4766,-0.25808c0.19911,0.06231 0.30856,0.27888 0.24445,0.48374c-0.0641,0.20484 -0.27748,0.32039 -0.4766,0.25808c-0.19911,-0.06231 -0.30856,-0.27888 -0.24445,-0.48374z" fill="#010007" stroke-width="0.5"/><path d="M321.41379,114.54814c-0.09615,0.30727 -2.01833,-1.6109 -4.40764,-2.35862c-2.38932,-0.74773 -4.34102,-0.04186 -4.24485,-0.34912c0.06674,-0.21325 3.85618,-0.43183 4.58727,-0.20303c0.12455,0.03898 4.15635,2.61954 4.0652,2.91078z" fill="url(#color-53)" stroke-width="0"/><path d="M320.17999,95.52345c-0.07804,0.24939 -0.66285,2.70852 -1.42896,2.78822c-1.00064,0.10409 -4.37874,-1.16466 -5.12769,-1.39902c-1.48376,-0.46434 -3.31302,-0.19884 -3.84283,-0.77827c-0.23236,-0.25412 0.31773,-2.22304 0.38026,-2.42289c0.08524,-0.2724 2.02393,-0.27265 4.06074,0.04709c2.86458,0.44969 6.07838,1.38178 5.95848,1.76488z" fill="#000000" stroke-width="0"/><path d="M335.71397,99.26207c2.0086,0.68444 3.78342,1.60652 3.73887,1.88905c-0.03266,0.20727 -0.41506,2.21806 -0.74216,2.33335c-0.74581,0.26286 -2.30106,-0.84283 -3.86842,-1.13586c-0.79116,-0.1479 -4.45481,-0.62702 -5.32406,-1.19531c-0.66553,-0.43511 -0.09432,-2.8979 -0.05355,-3.15658c0.06263,-0.39735 3.42437,0.30274 6.24929,1.26533z" data-paper-data="{&quot;index&quot;:null}" fill="#000000" stroke-width="0"/><path d="M362.74139,96.93944c-1.31413,4.19929 -5.7691,6.54273 -9.9504,5.23421c-4.18131,-1.30852 -6.50561,-5.77348 -5.19145,-9.97277c1.31413,-4.19929 5.76909,-6.54273 9.95039,-5.23421c4.18131,1.30852 6.5056,5.77349 5.19146,9.97277z" fill="url(#color-54)" stroke-width="0"/><path d="M309.14874,74.67035c4.18131,1.30852 6.50561,5.77348 5.19145,9.97276c-1.31413,4.19929 -5.76909,6.54274 -9.95039,5.23421c-4.18131,-1.30852 -6.50561,-5.77348 -5.19145,-9.97276c1.31413,-4.19929 5.76909,-6.54274 9.95039,-5.23421z" data-paper-data="{&quot;index&quot;:null}" fill="url(#color-55)" stroke-width="0"/><path d="M311.61484,83.43853c-0.77841,2.4874 -3.46746,3.8598 -6.00611,3.06534c-2.53866,-0.79446 -3.96563,-3.45493 -3.18721,-5.94233c0.77841,-2.4874 3.46746,-3.8598 6.00611,-3.06534c2.53866,0.79446 3.96562,3.45493 3.18721,5.94233z" fill="url(#color-56)" stroke-width="0"/><path d="M359.45514,95.72851c-0.7909,2.52731 -3.52307,3.92173 -6.10247,3.11453c-2.5794,-0.80721 -4.02926,-3.51035 -3.23835,-6.03767c0.7909,-2.52731 3.52306,-3.92172 6.10247,-3.11452c2.5794,0.80721 4.02926,3.51035 3.23835,6.03767z" fill="url(#color-57)" stroke-width="0"/><path d="M315.94801,107.32463c-0.1686,0.53872 -0.69831,0.85246 -1.18319,0.70071c-0.48486,-0.15173 -0.74126,-0.71147 -0.57266,-1.2502c0.1686,-0.53872 0.69833,-0.85246 1.18319,-0.70071c0.48486,0.15173 0.74124,0.71146 0.57266,1.2502z" fill="#ffffff" stroke-width="0"/><path d="M318.26474,107.99982c-0.15207,0.48594 -1.83444,-1.59913 -5.5837,-2.70912c-4.41872,-1.30818 -6.82529,0.20014 -6.60719,-0.49677c0.37399,-1.19509 2.49311,-4.68692 6.81006,-3.29058c5.46006,1.76609 5.56034,5.92292 5.38085,6.49648z" fill="#b02a25" stroke-width="0"/></g><path d="M287.17458,236.025c-7.47852,4.69484 -23.57651,-24.81459 -16.09799,-29.50942c2.95858,-1.85733 12.2731,-13.00228 17.59541,-13.3919c3.1713,-0.23215 7.61254,5.35216 10.04229,10.66373c2.42975,5.31157 9.26175,31.89574 9.86827,32.86187c0,0 -7.30386,2.05537 -13.23226,1.80003c-4.28058,-0.18436 -7.57055,-2.80422 -8.17572,-2.42431z" data-paper-data="{&quot;index&quot;:null}" fill="url(#color-58)" stroke="none" stroke-width="0" stroke-linecap="butt"/><path d="M312.24261,241.022c-7.90262,-3.93933 15.71094,-52.76297 23.61357,-48.82364c3.12636,1.55844 18.17623,10.56547 21.28061,14.90617c3.29109,4.60175 -8.17831,28.54787 -9.34034,30.87899c-1.87457,3.76055 -34.02869,3.79874 -35.55385,3.03848z" data-paper-data="{&quot;index&quot;:null}" fill="url(#color-59)" stroke="none" stroke-width="0" stroke-linecap="butt"/><g stroke="none" stroke-width="0" stroke-linecap="butt"><path d="M354.89554,257.78571c1.32082,9.74327 -0.80204,12.31859 -9.95195,13.55897c-5.33674,0.72345 -12.08396,0.23784 -14.98831,-3.66736c-2.07519,-2.79031 0.68858,-7.96339 0.13814,-12.02383c-0.5157,-3.80421 3.91555,-32.34895 4.99496,-35.39723c1.68515,-4.75891 -0.50525,16.56101 5.07212,15.80493c4.91263,-0.66597 12.26398,-9.46056 15.78822,-6.25504c3.03974,2.76484 -1.66484,23.4675 -1.05317,27.97956z" fill="#000000"/><path d="M331.2815,262.21822c4.5809,-4.58898 12.12628,-3.25341 15.53654,-3.21887c4.48153,0.04539 18.33689,6.95248 23.24675,12.72786c1.22709,1.4434 0.90295,3.00864 0.89186,4.15383c-0.05549,5.72732 -25.96622,8.37972 -31.56777,8.32299c-2.57899,-0.02612 -9.71967,-4.36146 -11.66402,-8.37487c-0.89144,-1.84008 0.61314,-10.66224 3.55665,-13.61093z" data-paper-data="{&quot;index&quot;:null}" fill="url(#color-60)"/><path d="M365.09251,270.41995c1.28369,0.013 2.2995,2.58682 2.26886,5.74877c-0.03063,3.16195 -1.0961,5.71469 -2.37979,5.7017c-1.28369,-0.013 -2.2995,-2.58682 -2.26886,-5.74877c0.03063,-3.16195 1.0961,-5.71469 2.37979,-5.7017z" data-paper-data="{&quot;index&quot;:null}" fill="#000000"/><path d="M368.67836,271.10448c2.10058,0.02127 6.93093,4.41063 6.89972,7.63225c-0.03121,3.22161 0.33357,4.59903 -1.73856,4.95195c-7.1844,1.22364 -8.40796,-4.64167 -8.37675,-7.86328c0.03121,-3.22161 1.115,-4.74219 3.21559,-4.72092z" data-paper-data="{&quot;index&quot;:null}" fill="url(#color-61)"/><path d="M356.94722,271.45215c1.98279,-0.36387 4.74866,1.8043 6.17774,4.84274c1.42908,3.03844 0.98022,5.79655 -1.00257,6.16043c-1.9828,0.36387 -4.74866,-1.8043 -6.17775,-4.84274c-1.42908,-3.03844 -0.98022,-5.79655 1.00258,-6.16043z" data-paper-data="{&quot;index&quot;:null}" fill="#000000"/><path d="M348.4348,273.52873c2.17086,-0.38019 5.20028,1.89224 6.76642,5.0756c1.56614,3.18336 1.07593,6.07219 -1.09492,6.45238c-2.17085,0.38019 -5.20028,-1.89223 -6.76642,-5.07559c-1.56614,-3.18336 -1.07593,-6.0722 1.09492,-6.45239z" data-paper-data="{&quot;index&quot;:null}" fill="#000000"/><path d="M344.13982,278.85672c1.46717,1.67952 0.168,2.04331 -1.6398,5.08986c-1.8078,3.04654 -2.98148,3.95367 -4.44865,2.27415c-1.46717,-1.67952 -2.67224,-5.30968 -0.86444,-8.35622c1.8078,-3.04654 5.48572,-0.6873 6.95288,0.99223z" data-paper-data="{&quot;index&quot;:null}" fill="#000000"/><path d="M359.78273,273.17505c2.10058,0.02127 6.93093,4.41063 6.89972,7.63225c-0.03121,3.22161 0.33357,4.59903 -1.73856,4.95195c-7.18439,1.22364 -8.40796,-4.64167 -8.37674,-7.86328c0.03121,-3.22161 1.115,-4.74219 3.21559,-4.72092z" data-paper-data="{&quot;index&quot;:null}" fill="url(#color-62)"/><path d="M350.88501,275.46169c2.10058,0.02127 6.93093,4.41063 6.89971,7.63224c-0.03121,3.22161 0.33357,4.59903 -1.73856,4.95195c-7.1844,1.22364 -8.40796,-4.64167 -8.37674,-7.86328c0.03121,-3.22161 1.115,-4.74219 3.21559,-4.72092z" data-paper-data="{&quot;index&quot;:null}" fill="url(#color-63)"/><path d="M340.73412,276.22315c4.0044,-0.17551 6.93093,4.41063 6.89972,7.63224c-0.03121,3.22161 0.33357,4.59903 -1.73856,4.95195c-4.09376,0.69724 -6.25211,-0.90719 -7.34574,-3.01267c-0.82564,-1.58957 -1.04443,-3.4647 -1.031,-4.8506c0.03121,-3.22161 1.11683,-4.62893 3.21558,-4.72092z" data-paper-data="{&quot;index&quot;:null}" fill="url(#color-64)"/><path d="M357.73176,250.44157c0,14.79631 -24.12341,21.15282 -27.14566,7.80136c-2.99316,-13.22295 -4.22878,-51.01278 -0.72571,-51.01278c4.82057,0 22.89898,-8.40656 28.6423,-0.23822c2.64448,3.76108 -0.77093,38.7847 -0.77093,43.44964z" fill="url(#color-65)"/></g><g stroke="none" stroke-width="0" stroke-linecap="butt"><path d="M284.30315,260.3478c0,9.83239 -1.95146,12.0992 -9.30746,12.0992c-4.29044,0 -9.56496,-1.38758 -11.43983,-5.64754c-1.33961,-3.04379 1.39581,-7.79871 1.39581,-11.89629c0,-3.83901 -0.93439,-29.75137 0.24395,-32.62702c1.8396,-4.48941 5.31618,14.56464 9.80007,14.56464c3.94948,0 10.69407,-7.72735 13.13318,-4.07747c2.1038,3.14812 -3.82571,23.03115 -3.82571,27.58449z" fill="#000000"/><path d="M287.00666,276.64821c-2.02766,3.99353 -9.37124,8.25635 -12.00825,8.25635c-5.7276,0 -32.19251,-2.91469 -32.19251,-8.64228c0,-1.14524 -0.3159,-2.71368 0.95298,-4.14459c5.07706,-5.72537 19.31124,-12.49181 23.89359,-12.49181c3.487,0 11.21463,-1.25909 15.8527,3.37607c2.98024,2.97836 4.43115,11.81532 3.50151,13.64628z" data-paper-data="{&quot;index&quot;:null}" fill="url(#color-66)"/><path d="M251.23212,276.58634c0,3.16211 -1.06406,5.72551 -2.37663,5.72551c-1.31257,0 -2.37663,-2.56341 -2.37663,-5.72551c0,-3.16211 1.06406,-5.72551 2.37663,-5.72551c1.31257,0 2.37663,2.56341 2.37663,5.72551z" data-paper-data="{&quot;index&quot;:null}" fill="#000000"/><path d="M248.42337,276.26226c0,3.22177 -1.30906,9.0744 -8.64228,7.77806c-2.11506,-0.37389 -1.72846,-1.74754 -1.72846,-4.96931c0,-3.22177 4.98203,-7.562 7.12988,-7.562c2.14785,0 3.24086,1.53148 3.24086,4.75326z" data-paper-data="{&quot;index&quot;:null}" fill="url(#color-67)"/><path d="M258.13703,278.14575c-1.49119,3.02381 -4.34049,5.16387 -6.3641,4.77993c-2.02361,-0.38393 -2.45521,-3.14647 -0.96402,-6.17028c1.49119,-3.02381 4.34049,-5.16387 6.3641,-4.77993c2.02361,0.38393 2.45521,3.14647 0.96402,6.17028z" data-paper-data="{&quot;index&quot;:null}" fill="#000000"/><path d="M266.9111,280.60132c-1.63276,3.16735 -4.75256,5.40898 -6.96827,5.00682c-2.21572,-0.40215 -2.68829,-3.29581 -1.05554,-6.46316c1.63276,-3.16735 4.75256,-5.40898 6.96827,-5.00682c2.21572,0.40215 2.68829,3.29581 1.05554,6.46316z" data-paper-data="{&quot;index&quot;:null}" fill="#000000"/><path d="M277.31245,278.58761c1.81812,3.0647 0.5501,6.68247 -0.96657,8.34706c-1.51667,1.66458 -2.70765,0.74562 -4.52577,-2.31908c-1.81812,-3.0647 -3.14279,-3.44163 -1.62613,-5.10621c1.51667,-1.66458 5.30035,-3.98647 7.11848,-0.92177z" data-paper-data="{&quot;index&quot;:null}" fill="#000000"/><path d="M257.49777,278.42284c0,3.22177 -1.30906,9.0744 -8.64228,7.77806c-2.11506,-0.37389 -1.72846,-1.74754 -1.72846,-4.96931c0,-3.22177 4.98203,-7.562 7.12988,-7.562c2.14785,0 3.24086,1.53148 3.24086,4.75326z" data-paper-data="{&quot;index&quot;:null}" fill="url(#color-68)"/><path d="M266.57217,280.79947c0,3.22177 -1.30906,9.0744 -8.64228,7.77806c-2.11506,-0.37389 -1.72846,-1.74754 -1.72846,-4.96931c0,-3.22177 4.98203,-7.562 7.12988,-7.562c2.14785,0 3.24086,1.53148 3.24086,4.75326z" data-paper-data="{&quot;index&quot;:null}" fill="url(#color-69)"/><path d="M276.94291,281.66369c0,1.38596 -0.24225,3.2588 -1.10214,4.83992c-1.13898,2.0943 -3.36158,3.67681 -7.54014,2.93813c-2.11506,-0.37389 -1.72846,-1.74754 -1.72846,-4.96931c0,-3.22177 3.03752,-7.77806 7.12988,-7.562c2.14487,0.11324 3.24086,1.53148 3.24086,4.75326z" data-paper-data="{&quot;index&quot;:null}" fill="url(#color-70)"/><path d="M289.47074,244.54929c-7.27615,23.38448 -21.53072,22.44916 -24.55297,9.09771c-2.99316,-13.22295 -1.20397,-51.01278 2.29909,-51.01278c4.82056,0 19.87419,-8.40656 25.61749,-0.23822c2.64448,3.76108 -1.92322,37.52408 -3.36361,42.1533z" fill="url(#color-71)"/></g><path d="M294.11655,199.70661c0,4.48584 -6.41651,8.74119 -12.99574,8.74119c-6.57923,0 -12.53161,-3.6365 -12.53161,-8.12233c0,-4.48584 1.00162,-7.96764 7.58085,-7.96764c6.57923,0 17.9465,2.86294 17.9465,7.34877z" fill="url(#color-72)" stroke="none" stroke-width="0" stroke-linecap="butt"/><path d="M358.43805,198.81832c0,4.97031 -6.60165,9.68522 -13.37074,9.68522c-6.76909,0 -12.89322,-4.02923 -12.89322,-8.99953c0,-4.97031 1.03051,-8.82812 7.7996,-8.82812c6.76909,0 18.46434,3.17213 18.46434,8.14243z" fill="url(#color-73)" stroke="none" stroke-width="0" stroke-linecap="butt"/></g></g></svg>