<svg version="1.1" xmlns="http://www.w3.org/2000/svg" xmlns:xlink="http://www.w3.org/1999/xlink" width="215.48216" height="286.78439" viewBox="0,0,215.48216,286.78439"><defs><linearGradient x1="195.82915" y1="256.90027" x2="199.19436" y2="302.12391" gradientUnits="userSpaceOnUse" id="color-1"><stop offset="0" stop-color="#2056d6"/><stop offset="1" stop-color="#2055d2"/></linearGradient><linearGradient x1="373.18116" y1="256.59832" x2="370.42288" y2="301.86302" gradientUnits="userSpaceOnUse" id="color-2"><stop offset="0" stop-color="#2056d6"/><stop offset="1" stop-color="#2055d2"/></linearGradient><linearGradient x1="286.56606" y1="214.51272" x2="286.56606" y2="295.51882" gradientUnits="userSpaceOnUse" id="color-3"><stop offset="0" stop-color="#144ccc"/><stop offset="1" stop-color="#154ed3"/></linearGradient><linearGradient x1="286.77775" y1="231.76272" x2="286.77775" y2="297.5125" gradientUnits="userSpaceOnUse" id="color-4"><stop offset="0" stop-color="#4da1ec"/><stop offset="1" stop-color="#4c9fe7"/></linearGradient><linearGradient x1="262.75672" y1="213.22299" x2="262.75672" y2="243.5055" gradientUnits="userSpaceOnUse" id="color-5"><stop offset="0" stop-color="#872f3f"/><stop offset="1" stop-color="#561c26"/></linearGradient><linearGradient x1="304.88172" y1="214.59799" x2="304.88172" y2="244.8805" gradientUnits="userSpaceOnUse" id="color-6"><stop offset="0" stop-color="#872f3f"/><stop offset="1" stop-color="#561c26"/></linearGradient><linearGradient x1="283.54821" y1="221.03061" x2="283.54821" y2="239.03082" gradientUnits="userSpaceOnUse" id="color-7"><stop offset="0" stop-color="#8b3141"/><stop offset="1" stop-color="#47161e"/></linearGradient><radialGradient cx="287.73572" cy="247.46547" r="8.4375" gradientUnits="userSpaceOnUse" id="color-8"><stop offset="0" stop-color="#808080"/><stop offset="1" stop-color="#000000"/></radialGradient><linearGradient x1="311.66677" y1="204.03933" x2="310.28691" y2="211.44847" gradientUnits="userSpaceOnUse" id="color-9"><stop offset="0" stop-color="#ffffff"/><stop offset="1" stop-color="#9a9a9a"/></linearGradient><linearGradient x1="302.61359" y1="204.8381" x2="300.28407" y2="212.65905" gradientUnits="userSpaceOnUse" id="color-10"><stop offset="0" stop-color="#ffffff"/><stop offset="1" stop-color="#9a9a9a"/></linearGradient><linearGradient x1="291.75016" y1="204.17202" x2="289.49755" y2="212.88697" gradientUnits="userSpaceOnUse" id="color-11"><stop offset="0" stop-color="#ffffff"/><stop offset="1" stop-color="#9a9a9a"/></linearGradient><linearGradient x1="278.09882" y1="203.27581" x2="279.68876" y2="212.13565" gradientUnits="userSpaceOnUse" id="color-12"><stop offset="0" stop-color="#ffffff"/><stop offset="1" stop-color="#9a9a9a"/></linearGradient><linearGradient x1="267.59882" y1="202.12057" x2="269.18876" y2="210.1247" gradientUnits="userSpaceOnUse" id="color-13"><stop offset="0" stop-color="#ffffff"/><stop offset="1" stop-color="#9a9a9a"/></linearGradient><linearGradient x1="258.98564" y1="199.47058" x2="258.98564" y2="207.00711" gradientUnits="userSpaceOnUse" id="color-14"><stop offset="0" stop-color="#ffffff"/><stop offset="1" stop-color="#9a9a9a"/></linearGradient><linearGradient x1="287.48726" y1="163.78022" x2="287.48726" y2="225.58985" gradientUnits="userSpaceOnUse" id="color-15"><stop offset="0" stop-color="#1550d9"/><stop offset="1" stop-color="#285bd4"/></linearGradient><linearGradient x1="259.81916" y1="184.80011" x2="262.09923" y2="177.04136" gradientUnits="userSpaceOnUse" id="color-16"><stop offset="0" stop-color="#ffffff"/><stop offset="1" stop-color="#9a9a9a"/></linearGradient><linearGradient x1="270.05629" y1="186.12868" x2="272.58525" y2="178.36993" gradientUnits="userSpaceOnUse" id="color-17"><stop offset="0" stop-color="#ffffff"/><stop offset="1" stop-color="#9a9a9a"/></linearGradient><linearGradient x1="280.94775" y1="186.85677" x2="283.5783" y2="178.24836" gradientUnits="userSpaceOnUse" id="color-18"><stop offset="0" stop-color="#ffffff"/><stop offset="1" stop-color="#9a9a9a"/></linearGradient><linearGradient x1="294.76608" y1="187.81621" x2="293.56407" y2="178.89546" gradientUnits="userSpaceOnUse" id="color-19"><stop offset="0" stop-color="#ffffff"/><stop offset="1" stop-color="#9a9a9a"/></linearGradient><linearGradient x1="305.33177" y1="188.84457" x2="303.94726" y2="180.80237" gradientUnits="userSpaceOnUse" id="color-20"><stop offset="0" stop-color="#ffffff"/><stop offset="1" stop-color="#9a9a9a"/></linearGradient><linearGradient x1="314.51178" y1="188.4268" x2="314.02132" y2="180.90624" gradientUnits="userSpaceOnUse" id="color-21"><stop offset="0" stop-color="#ffffff"/><stop offset="1" stop-color="#9a9a9a"/></linearGradient><linearGradient x1="290.67553" y1="96.75351" x2="290.67553" y2="178.92033" gradientUnits="userSpaceOnUse" id="color-22"><stop offset="0" stop-color="#185afd"/><stop offset="1" stop-color="#154fd5"/></linearGradient><radialGradient cx="332.8557" cy="162.29233" r="10.58333" gradientUnits="userSpaceOnUse" id="color-23"><stop offset="0" stop-color="#a93b51"/><stop offset="1" stop-color="#6e2531"/></radialGradient><radialGradient cx="245.01326" cy="154.29233" r="10.58334" gradientUnits="userSpaceOnUse" id="color-24"><stop offset="0" stop-color="#a93b51"/><stop offset="1" stop-color="#6e2531"/></radialGradient><linearGradient x1="314.48228" y1="124.58954" x2="312.67143" y2="156.54001" gradientUnits="userSpaceOnUse" id="color-25"><stop offset="0" stop-color="#ffffff"/><stop offset="1" stop-color="#bebebe"/></linearGradient><linearGradient x1="269.23023" y1="121.56308" x2="269.23023" y2="153.56718" gradientUnits="userSpaceOnUse" id="color-26"><stop offset="0" stop-color="#ffffff"/><stop offset="1" stop-color="#bebebe"/></linearGradient><linearGradient x1="269.16321" y1="150.64107" x2="269.16321" y2="180.89568" gradientUnits="userSpaceOnUse" id="color-27"><stop offset="0" stop-color="#53aaff"/><stop offset="1" stop-color="#4c9ee6"/></linearGradient><linearGradient x1="270.74385" y1="130.45948" x2="270.74385" y2="143.73448" gradientUnits="userSpaceOnUse" id="color-28"><stop offset="0" stop-color="#613fbc"/><stop offset="1" stop-color="#342466"/></linearGradient><linearGradient x1="312.04384" y1="134.05946" x2="312.04384" y2="147.33448" gradientUnits="userSpaceOnUse" id="color-29"><stop offset="0" stop-color="#613fbc"/><stop offset="1" stop-color="#342466"/></linearGradient><linearGradient x1="310.15085" y1="153.45629" x2="306.11543" y2="183.4138" gradientUnits="userSpaceOnUse" id="color-30"><stop offset="0" stop-color="#53aaff"/><stop offset="1" stop-color="#4c9ee6"/></linearGradient><radialGradient cx="290.36417" cy="150.47976" r="14.15243" gradientUnits="userSpaceOnUse" id="color-31"><stop offset="0" stop-color="#343434"/><stop offset="1" stop-color="#000000"/></radialGradient><radialGradient cx="276.16346" cy="132.54987" r="4.025" gradientUnits="userSpaceOnUse" id="color-32"><stop offset="0" stop-color="#e6e6e6"/><stop offset="1" stop-color="#e6e6e6" stop-opacity="0"/></radialGradient><radialGradient cx="317.96348" cy="136.34987" r="4.025" gradientUnits="userSpaceOnUse" id="color-33"><stop offset="0" stop-color="#e6e6e6"/><stop offset="1" stop-color="#e6e6e6" stop-opacity="0"/></radialGradient><linearGradient x1="255.03185" y1="54.71264" x2="255.03185" y2="102.94686" gradientUnits="userSpaceOnUse" id="color-34"><stop offset="0" stop-color="#185afb"/><stop offset="1" stop-color="#1652e2"/></linearGradient><linearGradient x1="254.93167" y1="57.10849" x2="254.93167" y2="99.26334" gradientUnits="userSpaceOnUse" id="color-35"><stop offset="0" stop-color="#52a8fb"/><stop offset="1" stop-color="#4ea1ed"/></linearGradient><linearGradient x1="253.69041" y1="59.07409" x2="231.70663" y2="16.14096" gradientUnits="userSpaceOnUse" id="color-36"><stop offset="0" stop-color="#185afb"/><stop offset="1" stop-color="#1652e2"/></linearGradient><linearGradient x1="256.62039" y1="58.76499" x2="237.40741" y2="21.24309" gradientUnits="userSpaceOnUse" id="color-37"><stop offset="0" stop-color="#5daefa"/><stop offset="1" stop-color="#4ea1ed"/></linearGradient><linearGradient x1="348.14143" y1="62.62719" x2="324.30751" y2="107.80933" gradientUnits="userSpaceOnUse" id="color-38"><stop offset="0" stop-color="#185afb"/><stop offset="1" stop-color="#1652e2"/></linearGradient><linearGradient x1="346.87048" y1="64.8181" x2="326.04053" y2="104.30556" gradientUnits="userSpaceOnUse" id="color-39"><stop offset="0" stop-color="#52a8fb"/><stop offset="1" stop-color="#4ea1ed"/></linearGradient><linearGradient x1="344.82008" y1="65.99848" x2="346.92213" y2="14.07784" gradientUnits="userSpaceOnUse" id="color-40"><stop offset="0" stop-color="#185afb"/><stop offset="1" stop-color="#1652e2"/></linearGradient><linearGradient x1="347.52011" y1="67.26886" x2="349.35721" y2="21.89222" gradientUnits="userSpaceOnUse" id="color-41"><stop offset="0" stop-color="#5daefa"/><stop offset="1" stop-color="#4ea1ed"/></linearGradient></defs><g transform="translate(-176.92302,-15.64489)"><g data-paper-data="{&quot;isPaintingLayer&quot;:true}" fill-rule="nonzero" stroke-width="0" stroke-linejoin="miter" stroke-miterlimit="10" stroke-dasharray="" stroke-dashoffset="0" style="mix-blend-mode: normal"><g stroke="#000000" stroke-linecap="round"><path d="M234.9334,245.67738c0,0 -7.09678,13.1949 -9.39392,15.53534c-2.29714,2.34045 -9.60735,6.90205 -9.60735,6.90205l-18.45678,-8.53497c0,0 -1.92328,-11.0554 3.93076,-16.30515c7.17365,-7.75335 10.97775,-10.14685 10.97775,-10.14685z" fill="#2056d6"/><path d="M259.32709,227.64359c0,0 -12.3394,12.86355 -14.93818,14.86379c-2.59878,2.00023 -10.48333,3.50188 -10.48333,3.50188l-20.49277,-11.65426c0,0 -2.00679,-0.67311 0.07291,-2.87047c4.71705,-4.98392 6.49999,-7.32341 13.02385,-11.71304c7.64813,-5.14611 18.64483,-7.404 18.64483,-7.404z" fill="#2056d6"/><path d="M217.08285,266.34914c0,0 1.24565,3.38238 -0.6448,12.51091c-2.69589,13.01783 -13.90244,24.65487 -23.03478,23.48841c-9.13235,-1.16647 -15.0747,-8.6949 -16.26853,-18.41496c-1.19383,-9.72006 2.87774,-16.14364 6.77872,-20.55972c3.90098,-4.41608 13.54796,-6.59497 13.54796,-6.59497z" fill="url(#color-1)"/><path d="M214.53657,260.49141c3.22796,3.46097 2.92707,11.2992 2.46147,15.56024c-0.46559,4.26104 -2.72945,10.11195 -5.14582,9.00669c-7.54835,-3.45263 -11.48681,-13.14242 -12.81145,-17.19671c-1.32464,-4.05429 -0.38157,-7.78658 4.11148,-9.43111c4.49304,-1.64452 7.4875,-2.11725 11.38432,2.06088z" fill="#4da0ea"/><path d="M199.47959,273.75893l-9.08519,14.01283c0,0 -2.73761,-2.79851 -3.51118,-6.75808c-0.51191,-2.62022 4.18815,-11.9069 7.00582,-13.65754c2.81768,-1.75065 5.59055,6.40279 5.59055,6.40279z" fill="#4da0ea"/><path d="M211.65038,289.86443c-0.619,3.25897 -4.99931,8.08658 -7.62813,8.5522c-3.97259,0.70362 -6.22893,-3.04858 -6.22893,-3.04858c0,0 3.31096,-3.32455 4.85116,-5.07113c1.47105,-1.66815 4.63874,-5.91906 4.63874,-5.91906c0,0 4.98617,2.22761 4.36718,5.48658z" data-paper-data="{&quot;index&quot;:null}" fill="#4da0ea"/><path d="M200.72497,275.67177l5.55019,7.20801l-9.70671,11.05078l-5.1026,-5.23578z" fill="#4da0ea"/></g><g data-paper-data="{&quot;index&quot;:null}" stroke="#000000" stroke-linecap="round"><path d="M356.30903,233.05005c0,0 3.83587,2.34226 11.11288,9.99868c5.92393,5.17075 4.14913,16.25095 4.14913,16.25095l-18.34063,8.78178c0,0 -7.37073,-4.46313 -9.69907,-6.77255c-2.32833,-2.30942 -9.60147,-15.40793 -9.60147,-15.40793z" fill="#2056d6"/><path d="M323.26297,212.73118c0,0 11.02601,2.11018 18.74248,7.15323c6.58216,4.30173 8.39632,6.61709 13.1798,11.53729c2.10899,2.16927 0.11141,2.86924 0.11141,2.86924l-20.33459,11.92811c0,0 -7.90398,-1.39574 -10.52936,-3.36094c-2.62538,-1.96519 -15.13622,-14.66207 -15.13622,-14.66207z" fill="#2056d6"/><path d="M371.54741,256.49876c0,0 9.67534,2.04929 13.6352,6.41265c3.95987,4.36335 8.11724,10.73174 7.05391,20.46694c-1.06334,9.7352 -6.90417,17.34266 -16.02005,18.63153c-9.11587,1.28887 -20.47752,-10.19681 -23.34779,-23.1773c-2.01274,-9.10235 -0.81257,-12.50114 -0.81257,-12.50114z" fill="url(#color-2)"/><path d="M365.87924,258.22667c4.5147,1.5841 5.50775,5.30341 4.23762,9.37511c-1.27014,4.07169 -5.07826,13.81344 -12.57962,17.36702c-2.40133,1.13757 -4.74347,-4.68244 -5.26618,-8.93685c-0.52271,-4.25441 -0.92872,-12.0879 2.25253,-15.59186c3.84043,-4.23002 6.84095,-3.79751 11.35565,-2.21341z" fill="#4da0ea"/><path d="M375.26134,267.02721c2.84091,1.71269 7.66511,10.93549 7.1884,13.56234c-0.72039,3.96958 -3.42021,6.80457 -3.42021,6.80457l-9.27234,-13.88969c0,0 2.66325,-8.1899 5.50416,-6.47721z" fill="#4da0ea"/><path d="M357.80353,289.77173c-0.66266,-3.25037 4.29319,-5.54467 4.29319,-5.54467c0,0 3.22443,4.20803 4.71772,5.8563c1.56349,1.72576 4.91875,5.0056 4.91875,5.0056c0,0 -2.20581,3.78213 -6.18748,3.13186c-2.63484,-0.43031 -7.07951,-5.19873 -7.74217,-8.4491z" data-paper-data="{&quot;index&quot;:null}" fill="#4da0ea"/><path d="M377.97056,288.33143l-5.03191,5.30376l-9.85408,-10.91958l5.453,-7.28181z" fill="#4da0ea"/></g><g><path d="M315.72141,215.51272c0,0 16.34084,48.87151 17.25,58.5c2.04485,21.65596 -12.75,21.25 -12.75,21.25c0,0 -22.50385,2.83491 -33.7531,2.87688c-11.08157,0.04135 -33.24691,-2.62688 -33.24691,-2.62688c0,0 -13.54325,0.98969 -13.25,-22.25c0.29325,-23.23969 9.75,-58.75 9.75,-58.75z" fill="url(#color-3)" stroke="#000000" stroke-linecap="round"/><path d="M306.21141,232.57438c0,0 10.89206,39.66726 11.49807,47.48237c1.363,17.57737 -8.49858,17.24787 -8.49858,17.24787c0,0 -15.00006,2.30099 -22.4983,2.33506c-7.38648,0.03357 -22.16089,-2.13214 -22.16089,-2.13214c0,0 -9.02733,0.80329 -8.83186,-18.05953c0.19546,-18.86282 6.49891,-47.68529 6.49891,-47.68529z" fill="url(#color-4)" stroke="#000000" stroke-linecap="round"/><path d="M275.98572,234.34799c0,0 -16.32342,9.79109 -22.125,9.125c-3.29868,-0.37873 -4.39998,-8.77472 -5,-15.375c-0.60002,-6.60028 2.25,-14.875 2.25,-14.875l25.625,10.5z" fill="url(#color-5)" stroke="#000000" stroke-linecap="round"/><path d="M290.90272,225.09799l25.625,-10.5c0,0 2.85003,8.27472 2.25,14.875c-0.60003,6.60028 -1.70132,14.99627 -5,15.375c-5.80158,0.66609 -22.125,-9.125 -22.125,-9.125z" data-paper-data="{&quot;index&quot;:null}" fill="url(#color-6)" stroke="#000000" stroke-linecap="round"/><path d="M292.98572,229.84311c0,4.86701 -2.22609,9.22217 -9.4375,9.1875c-7.21319,-0.03468 -9.4375,-4.32049 -9.4375,-9.1875c0,-2.48397 -0.02441,-4.8529 1.74626,-6.4548c1.69873,-1.53681 5.13919,-2.3577 7.69124,-2.3577c2.52443,0 5.94236,0.80052 7.63586,2.30801c1.80307,1.60502 1.80164,3.99473 1.80164,6.50449z" fill="url(#color-7)" stroke="none" stroke-linecap="butt"/><path d="M293.36072,250.65297c0,4.52183 -3.7776,8.1875 -8.4375,8.1875c-4.6599,0 -8.4375,-3.66567 -8.4375,-8.1875c0,-4.52183 3.7776,-8.1875 8.4375,-8.1875c4.6599,0 8.4375,3.66567 8.4375,8.1875z" fill="url(#color-8)" stroke="none" stroke-linecap="butt"/></g><g stroke="#000000" stroke-linecap="round"><path d="M338.20805,169.641l0.5,9l-7.75,19.5l-18.5,19.25l-45.5,0.25l-23.5,-13.5l-8.25,-31l5.75,-13.25z" fill="#000000"/><path d="M306.15786,210.67949l1.05037,-5.09379c0,0 3.75514,-1.33951 6.22137,-1.18089c2.46623,0.15861 2.12142,1.71744 2.12142,1.71744l-0.51264,2.75267z" data-paper-data="{&quot;index&quot;:null}" fill="url(#color-9)"/><path d="M296.28972,211.24247c0,0 -0.66052,-3.76694 0.80241,-4.81694c1.46292,-1.04999 4.79719,-1.46321 7.222,-0.94244c2.4248,0.52077 1.88065,2.15852 1.88065,2.15852l-0.56547,3.00568z" data-paper-data="{&quot;index&quot;:null}" fill="url(#color-10)"/><path d="M285.48666,211.43197c0,0 -0.76067,-4.6538 0.69261,-5.85598c1.45328,-1.20218 5.01674,-0.83241 7.44818,-0.32426c2.43144,0.50815 1.73405,1.92076 1.73405,1.92076l-0.1369,3.83782z" data-paper-data="{&quot;index&quot;:null}" fill="url(#color-11)"/><path d="M274.26249,209.38747l0.0093,-3.39165c0,0 -0.58903,-1.46112 1.87377,-1.78472c2.46281,-0.3236 6.044,-0.42397 7.40262,0.88423c1.35862,1.3082 0.24965,5.8915 0.24965,5.8915z" data-paper-data="{&quot;index&quot;:null}" fill="url(#color-12)"/><path d="M264.06248,207.6516l-0.29069,-3.07373c0,0 -0.38903,-1.68136 2.07377,-1.97371c2.46281,-0.29235 5.744,0.43005 7.10262,1.61191c1.35862,1.18186 0.34965,4.87077 0.34965,4.87077z" data-paper-data="{&quot;index&quot;:null}" fill="url(#color-13)"/><path d="M254.7857,203.60711v-2.8c0,0 -0.05358,-1.59561 2.4,-1.3c2.45358,0.29561 5.9,2.3 5.9,2.3l0.1,5.2z" fill="url(#color-14)"/><path d="M242.036,164.61936c0,0 -4.49284,5.78349 -3.63632,9.37053c0.57942,2.42661 1.69951,18.35035 13.87402,27.78337c7.79647,6.04083 26.39655,7.19225 31.71988,7.74071c6.95676,0.71676 22.16057,3.36243 33.47078,-3.00595c10.85895,-6.1143 17.95379,-21.19397 18.97619,-23.28746c2.08729,-4.27398 0.13986,-13.14671 0.13986,-13.14671l2.93703,-0.83915c0,0 2.13037,5.74923 0.83915,12.72714c-3.38823,18.31049 -16.66864,37.84954 -26.71299,41.39814c-15.57192,5.50145 -58.71828,-0.27929 -64.1951,-5.45449c-13.0376,-12.31958 -15.31324,-35.19637 -15.24459,-44.61489c0.02925,-4.01377 3.91604,-9.51038 3.91604,-9.51038z" fill="url(#color-15)"/></g><path d="M265.66664,178.55972c0,0 0.15124,4.21118 -1.19152,5.22338c-1.34276,1.0122 -5.07173,0.33994 -7.24517,-0.24274c-2.17344,-0.58267 -1.35948,-2.84881 -1.35948,-2.84881l0.30352,-2.94605z" data-paper-data="{&quot;index&quot;:null}" fill="url(#color-16)" stroke="#000000" stroke-linecap="round"/><path d="M276.54204,179.88829c0,0 0.56388,3.78261 -0.92545,4.79481c-1.48933,1.0122 -5.54736,0.4828 -7.95805,-0.09988c-2.41068,-0.58267 -0.67122,-5.15201 -0.67122,-5.15201z" data-paper-data="{&quot;index&quot;:null}" fill="url(#color-17)" stroke="#000000" stroke-linecap="round"/><path d="M287.52191,179.87689c0,0 0.48556,4.53969 -1.01877,5.67734c-1.50432,1.13765 -4.19113,0.82711 -6.5981,0.2134c-2.40697,-0.6137 -2.22006,-2.06598 -2.22006,-2.06598l0.17914,-3.36877z" data-paper-data="{&quot;index&quot;:null}" fill="url(#color-18)" stroke="#000000" stroke-linecap="round"/><path d="M298.59923,181.29591c0,0 0.15946,3.12686 -0.60542,4.54122c-0.76488,1.41436 -7.22084,1.147 -8.52112,-0.21922c-1.30027,-1.36622 -0.42105,-5.39679 -0.42105,-5.39679z" data-paper-data="{&quot;index&quot;:null}" fill="url(#color-19)" stroke="#000000" stroke-linecap="round"/><path d="M308.65868,182.72022c0,0 0.97907,4.38518 -0.77613,4.82868c-2.46949,0.22921 -6.51683,0.2802 -7.84474,-0.93605c-1.32792,-1.21625 -0.22485,-4.87814 -0.22485,-4.87814z" data-paper-data="{&quot;index&quot;:null}" fill="url(#color-20)" stroke="#000000" stroke-linecap="round"/><path d="M319.00507,181.09712c0,0 0.96709,2.49156 0.3965,4.00835c-0.5706,1.51679 -1.62841,2.30303 -4.09603,2.16772c-2.46762,-0.1353 -3.52913,0.31654 -4.89431,-1.2683c-1.36518,-1.58484 -0.58105,-4.82532 -0.58105,-4.82532z" data-paper-data="{&quot;index&quot;:null}" fill="url(#color-21)" stroke="#000000" stroke-linecap="round"/><path d="M229.52005,153.17818c0.06438,-6.16524 1.46293,-5.45086 3.6648,-11.37781c2.87633,-7.74246 1.06435,-11.54735 7.82978,-21.94886c6.76543,-10.40151 12.51344,-19.292 21.44254,-23.05584c8.9291,-3.76384 33.15804,0.40566 33.15804,0.40566c0,0 18.76484,-1.73745 30.11991,6.5059c11.35507,8.24334 13.18349,13.42097 16.62618,20.72249c3.44269,7.30152 5.41156,25.54168 5.41156,25.54168c0,0 3.69587,3.90117 1.89151,10.95559c-1.87335,7.32414 -7.04989,10.41498 -12.06864,14.14794c-4.67561,3.47773 -17.95299,6.23729 -17.95299,6.23729c0,0 -55.93164,-1.19175 -67.40021,-5.07626c-8.73487,-2.95858 -14.78766,-7.55457 -18.64036,-15.40109c-1.20576,-2.45569 -4.13086,-2.99059 -4.08214,-7.6567z" fill="url(#color-22)" stroke="#000000" stroke-linecap="round"/><path d="M282.28564,181.92172v-24.61071h15.25l-0.07143,25.325z" fill="#000000" stroke="none" stroke-linecap="butt"/><path d="M344.62893,164.56316c0,5.84501 -4.30238,10.58334 -9.60964,10.58334c-3.07503,0 -2.70679,-2.69643 -4.28688,-4.91171c-1.58009,-2.21528 -3.49236,-3.53637 -3.49236,-5.99478c0,-1.33174 -0.02189,-4.71845 1.72195,-7.32558c1.57415,-2.35343 4.63092,-2.9346 6.05729,-2.9346c5.30726,0 9.60965,4.73832 9.60965,10.58333z" fill="url(#color-23)" stroke="none" stroke-linecap="butt"/><path d="M242.84968,145.97983c1.42637,0 4.48314,0.58116 6.05729,2.9346c1.74384,2.60713 1.72195,5.99384 1.72195,7.32558c0,2.45841 -1.91227,3.7795 -3.49236,5.99478c-1.58009,2.21528 -1.21185,4.91171 -4.28688,4.91171c-5.30727,0 -9.60964,-4.73832 -9.60964,-10.58334c0,-5.84501 4.30238,-10.58333 9.60965,-10.58333z" data-paper-data="{&quot;index&quot;:null}" fill="url(#color-24)" stroke="none" stroke-linecap="butt"/><path d="M254.11514,131.20586c7.89538,-18.16399 23.99631,-11.85459 27.875,-10.75c6.06211,1.72639 3.27339,14.5916 2.375,19.875c-0.89839,5.2834 -7.375,11.5 -7.375,11.5c0,0 -6.4895,0.44447 -14.75,-0.75c-4.07378,-0.58907 -12.79678,-9.12715 -8.125,-19.875z" fill="#000000" stroke="#000000" stroke-linecap="round"/><path d="M319.06932,154.82645c-8.34469,0.1695 -14.73027,-1.06968 -14.73027,-1.06968c0,0 -5.66291,-6.96592 -5.90472,-12.3197c-0.2418,-5.35378 -1.42717,-18.46428 4.80124,-19.43204c3.98509,-0.6192 20.73973,-4.90057 26.34134,14.09652c3.31453,11.2408 -6.39229,18.64131 -10.50759,18.7249z" data-paper-data="{&quot;index&quot;:null}" fill="#000000" stroke="#000000" stroke-linecap="round"/><path d="M315.31962,124.63918c9.04933,0.53646 14.51632,9.25982 14.0208,18.00281c-0.27411,4.83647 -3.46681,9.29477 -7.32509,11.45133c-3.1164,1.74189 -9.71213,3.10807 -14.70878,0.83668c-8.47998,-3.85485 -9.74273,-9.54923 -9.28965,-20.01189c0.37887,-8.74908 8.2534,-10.81539 17.30273,-10.27893z" data-paper-data="{&quot;index&quot;:null}" fill="url(#color-25)" stroke="none" stroke-linecap="butt"/><path d="M285.44383,132.8488c-0.14285,10.47195 -1.76166,16.08204 -10.64285,19.42857c-5.23307,1.97187 -11.88831,0.21764 -14.96939,-1.70577c-2.11058,-1.31756 -3.87234,-3.42654 -5.1145,-5.77906c-1.00285,-1.89929 -1.70183,-3.92251 -1.70183,-6.08659c0,-8.75766 6.08665,-17.14286 15.35714,-17.14286c9.27049,0 17.19089,2.52887 17.07143,11.28571z" fill="url(#color-26)" stroke="none" stroke-linecap="butt"/><path d="M260.56799,153.72896c11.85516,-3.89084 29.13594,-3 29.13594,-3l-1.89931,31.5c0,0 -29.59557,-1.26861 -36.37394,-5.33334c-4.14514,-2.48568 -5.55256,-18.34548 9.13731,-23.16666z" fill="url(#color-27)" stroke="#000000" stroke-linecap="round"/><path d="M277.88669,137.09697c0,3.66579 -3.19797,6.6375 -7.14285,6.6375c-3.94489,0 -7.14285,-2.97171 -7.14285,-6.6375c0,-3.66579 3.19797,-6.6375 7.14285,-6.6375c3.94489,0 7.14285,2.97171 7.14285,6.6375z" fill="url(#color-28)" stroke="none" stroke-linecap="butt"/><path d="M319.1867,140.69698c0,3.66579 -3.19797,6.6375 -7.14285,6.6375c-3.94489,0 -7.14286,-2.97171 -7.14286,-6.6375c0,-3.66579 3.19797,-6.6375 7.14286,-6.6375c3.94489,0 7.14285,2.97171 7.14285,6.6375z" fill="url(#color-29)" stroke="none" stroke-linecap="butt"/><path d="M274.38669,137.05641c0,1.92087 -1.67574,3.47805 -3.74286,3.47805c-2.06712,0 -3.74286,-1.55718 -3.74286,-3.47805c0,-1.92087 1.67574,-3.47805 3.74286,-3.47805c2.06712,0 3.74286,1.55718 3.74286,3.47805z" fill="#000000" stroke="none" stroke-linecap="butt"/><path d="M315.6867,140.35643c0,1.92087 -1.67574,3.47805 -3.74286,3.47805c-2.06712,0 -3.74286,-1.55718 -3.74286,-3.47805c0,-1.92087 1.67574,-3.47805 3.74286,-3.47805c2.06712,0 3.74286,1.55718 3.74286,3.47805z" fill="#000000" stroke="none" stroke-linecap="butt"/><path d="M323.38928,182.19292c-6.75891,3.10488 -33.89989,0.11743 -33.89989,0.11743l1.65196,-31.55472c0,0 16.12679,0.96318 26.4807,6.42472c12.82965,6.76747 9.90046,23.11386 5.76723,25.01257z" data-paper-data="{&quot;index&quot;:null}" fill="url(#color-30)" stroke="#000000" stroke-linecap="round"/><path d="M276.09272,151.75994c0.17023,-2.9331 1.13285,-4.21824 3.19399,-4.4513c2.06114,-0.23306 13.42811,-0.68986 21.73585,1.08514c1.42655,0.3048 3.07342,2.49158 3.30139,4.80145c0.22798,2.30987 -0.79089,8.18836 -4.77087,9.42759c-3.97998,1.23924 -12.60949,1.60155 -19.85337,-1.55617c-2.57912,-1.12428 -3.82776,-5.50272 -3.60699,-9.3067z" fill="url(#color-31)" stroke="#000000" stroke-linecap="round"/><path d="M279.74126,132.54987c0,1.90538 -1.60183,3.45 -3.57778,3.45c-1.97595,0 -3.57777,-1.54462 -3.57777,-3.45c0,-1.90538 1.60182,-3.45 3.57777,-3.45c1.97595,0 3.57778,1.54462 3.57778,3.45z" fill="url(#color-32)" stroke="none" stroke-linecap="butt"/><path d="M321.54123,136.34987c0,1.90538 -1.60183,3.45 -3.57778,3.45c-1.97595,0 -3.57778,-1.54462 -3.57778,-3.45c0,-1.90538 1.60183,-3.45 3.57778,-3.45c1.97595,0 3.57778,1.54462 3.57778,3.45z" fill="url(#color-33)" stroke="none" stroke-linecap="butt"/><g stroke="#000000" stroke-linecap="round"><path d="M259.27522,55.06641c0,0 1.59129,-1.30979 6.44445,1.11111c2.50702,0.87748 8.21768,13.32519 9.77777,20c1.56009,6.67482 2.0522,10.37346 1.22223,14.44445c-2.43332,11.93537 -26.41333,13.78691 -33.88889,11.44444c-7.47556,-2.34247 -9.52977,-11.43563 -10.44445,-20.11111c-2.36447,-22.42623 5,-21.11111 5,-21.11111z" fill="url(#color-34)"/><path d="M239.01453,62.33355c0.55604,-1.11139 16.20492,-6.93637 19.80615,-4.73072c1.86031,0.79946 8.23916,11.47572 10.47772,17.88846c2.23856,6.41274 2.63393,11.0067 2.01805,14.71574c-0.862,5.19136 -7.85327,6.73009 -13.08986,7.9658c-5.73235,1.35269 -10.71367,1.43325 -13.61261,0.31792c-5.54716,-2.13421 -5.03574,-7.14902 -5.89704,-14.43913c-0.86129,-7.29011 -0.25844,-20.60667 0.2976,-21.71807z" fill="url(#color-35)"/><path d="M235.41184,61.76984c0,0 -9.40349,-2.9873 -9.90928,-19.55764c-0.40427,-13.24417 2.5593,-17.48376 5.74523,-20.06c4.47904,-3.62189 13.4019,-8.43481 20.82489,-5.70337c7.42299,2.73144 12.33209,10.70668 13.71769,17.85847c1.3856,7.15179 -0.9784,18.4458 -2.80996,20.36947c-3.21641,4.36677 -5.67422,2.14842 -5.67422,2.14842z" data-paper-data="{&quot;index&quot;:null}" fill="url(#color-36)"/><path d="M234.68558,54.1732c-3.6671,-11.3259 3.65501,-17.3859 9.37388,-18.79452c5.22428,-1.28679 12.6653,-2.32803 15.30369,5.25366c2.72589,7.83311 1.78501,14.36066 0.49353,15.92013c-2.20017,3.60458 -19.89516,6.66321 -20.89663,5.92739c0,0 -1.71848,-1.42521 -4.27447,-8.30666z" data-paper-data="{&quot;index&quot;:null}" fill="url(#color-37)"/></g><g stroke="#000000" stroke-linecap="round"><path d="M351.65578,65.21775c0,0 2.03066,-0.3797 5.0537,4.47183c1.74599,2.15669 0.55999,16.85711 -1.3819,23.94016c-1.94189,7.08306 -3.34167,10.80965 -6.07483,14.18117c-8.01311,9.88465 -29.77596,-1.14793 -35.11765,-7.32216c-5.34168,-6.17423 -2.6344,-15.78567 0.8572,-24.39917c9.0258,-22.26603 14.77855,-17.11328 14.77855,-17.11328z" fill="url(#color-38)"/><path d="M330.45044,61.23826c1.03258,-0.74503 17.51583,2.13003 19.55683,6.11341c1.22229,1.7393 1.49255,15.13611 0.27001,22.33489c-1.22254,7.19877 -3.14882,11.71254 -5.517,14.85899c-3.31462,4.40394 -10.15308,2.12316 -15.3163,0.49272c-5.65204,-1.78481 -10.02256,-4.3614 -11.99175,-6.94955c-3.76806,-4.95247 -0.84547,-9.37768 2.00798,-16.66506c2.85346,-7.28737 9.95766,-19.44035 10.99025,-20.18539z" fill="url(#color-39)"/><path d="M327.59684,58.79215c0,0 -6.69918,-7.80469 1.04898,-23.5958c6.19286,-12.62136 10.86426,-15.01488 14.90706,-15.73192c5.6837,-1.00807 15.81934,-0.76592 20.92312,5.74469c5.10378,6.5106 5.4309,16.59481 3.10162,24.03175c-2.32928,7.43695 -9.96521,16.75772 -12.50809,17.58454c-4.95406,2.37804 -5.9947,-1.00848 -5.9947,-1.00848z" data-paper-data="{&quot;index&quot;:null}" fill="url(#color-40)"/><path d="M330.71916,51.28953c2.40832,-12.5616 11.7685,-14.33985 17.43646,-12.61462c5.17777,1.57604 12.16141,4.56228 10.70887,13.06891c-1.50071,8.78873 -5.54415,14.40231 -7.43753,15.17552c-3.69393,2.20512 -20.58911,-4.35059 -21.09619,-5.57304c0,0 -0.78979,-2.24995 0.38839,-10.05678z" data-paper-data="{&quot;index&quot;:null}" fill="url(#color-41)"/></g></g></g></svg>