<svg version="1.1" xmlns="http://www.w3.org/2000/svg" xmlns:xlink="http://www.w3.org/1999/xlink" width="642.51199" height="412.65581" viewBox="0,0,642.51199,412.65581"><defs><linearGradient x1="302.27721" y1="-26.5779" x2="302.27721" y2="270.65675" gradientUnits="userSpaceOnUse" id="color-1"><stop offset="0" stop-color="#d3abbf"/><stop offset="1" stop-color="#9a649b"/></linearGradient><linearGradient x1="233.46823" y1="110.6477" x2="233.46823" y2="322.96928" gradientUnits="userSpaceOnUse" id="color-2"><stop offset="0" stop-color="#b687ad"/><stop offset="1" stop-color="#9c679c"/></linearGradient><linearGradient x1="376.49012" y1="109.30267" x2="376.49012" y2="321.62425" gradientUnits="userSpaceOnUse" id="color-3"><stop offset="0" stop-color="#b788ad"/><stop offset="1" stop-color="#9d679d"/></linearGradient><linearGradient x1="302.32224" y1="87.83993" x2="302.32224" y2="140.74456" gradientUnits="userSpaceOnUse" id="color-4"><stop offset="0" stop-color="#ff0000"/><stop offset="1" stop-color="#730101"/></linearGradient><linearGradient x1="268.23808" y1="234.92098" x2="268.23808" y2="257.37698" gradientUnits="userSpaceOnUse" id="color-5"><stop offset="0" stop-color="#989683"/><stop offset="1" stop-color="#9a814b"/></linearGradient><linearGradient x1="343.04181" y1="235.15981" x2="343.04181" y2="258.44774" gradientUnits="userSpaceOnUse" id="color-6"><stop offset="0" stop-color="#989683"/><stop offset="1" stop-color="#9a814b"/></linearGradient><linearGradient x1="329.16216" y1="232.16474" x2="329.16216" y2="254.40906" gradientUnits="userSpaceOnUse" id="color-7"><stop offset="0" stop-color="#989683"/><stop offset="1" stop-color="#9a814b"/></linearGradient><linearGradient x1="281.96111" y1="232.78297" x2="281.96111" y2="255.0273" gradientUnits="userSpaceOnUse" id="color-8"><stop offset="0" stop-color="#989683"/><stop offset="1" stop-color="#9a814b"/></linearGradient><linearGradient x1="298.3208" y1="229.23955" x2="298.3208" y2="251.85762" gradientUnits="userSpaceOnUse" id="color-9"><stop offset="0" stop-color="#989683"/><stop offset="1" stop-color="#9a814b"/></linearGradient><linearGradient x1="314.3822" y1="228.81711" x2="314.3822" y2="251.43522" gradientUnits="userSpaceOnUse" id="color-10"><stop offset="0" stop-color="#989683"/><stop offset="1" stop-color="#9a814b"/></linearGradient><linearGradient x1="356.00497" y1="172.7056" x2="356.00497" y2="206.66813" gradientUnits="userSpaceOnUse" id="color-11"><stop offset="0" stop-color="#9a814b"/><stop offset="1" stop-color="#989683"/></linearGradient><linearGradient x1="340.03973" y1="177.39493" x2="340.03973" y2="208.8553" gradientUnits="userSpaceOnUse" id="color-12"><stop offset="0" stop-color="#9a814b"/><stop offset="1" stop-color="#989683"/></linearGradient><linearGradient x1="316.79338" y1="181.35172" x2="316.79338" y2="210.21546" gradientUnits="userSpaceOnUse" id="color-13"><stop offset="0" stop-color="#9a814b"/><stop offset="1" stop-color="#989683"/></linearGradient><linearGradient x1="254.75713" y1="204.06621" x2="246.71417" y2="174.63378" gradientUnits="userSpaceOnUse" id="color-14"><stop offset="0" stop-color="#989683"/><stop offset="1" stop-color="#9a814b"/></linearGradient><linearGradient x1="269.7804" y1="180.60982" x2="269.7804" y2="208.85532" gradientUnits="userSpaceOnUse" id="color-15"><stop offset="0" stop-color="#9a814b"/><stop offset="1" stop-color="#989683"/></linearGradient><linearGradient x1="291.03609" y1="182.134" x2="291.03609" y2="210.91813" gradientUnits="userSpaceOnUse" id="color-16"><stop offset="0" stop-color="#9a814b"/><stop offset="1" stop-color="#989683"/></linearGradient><linearGradient x1="260.0837" y1="241.07528" x2="260.0837" y2="278.6558" gradientUnits="userSpaceOnUse" id="color-17"><stop offset="0" stop-color="#ebe7c9"/><stop offset="1" stop-color="#e8c372"/></linearGradient><linearGradient x1="348.44644" y1="241.24712" x2="350.5207" y2="280.33086" gradientUnits="userSpaceOnUse" id="color-18"><stop offset="0" stop-color="#ebe7c9"/><stop offset="1" stop-color="#e8c372"/></linearGradient><linearGradient x1="329.42331" y1="237.32521" x2="337.43452" y2="273.25003" gradientUnits="userSpaceOnUse" id="color-19"><stop offset="0" stop-color="#ebe7c9"/><stop offset="1" stop-color="#e8c372"/></linearGradient><linearGradient x1="280.02645" y1="238.35984" x2="271.4315" y2="274.28466" gradientUnits="userSpaceOnUse" id="color-20"><stop offset="0" stop-color="#ebe7c9"/><stop offset="1" stop-color="#e8c372"/></linearGradient><linearGradient x1="301.4734" y1="233.45411" x2="288.53921" y2="268.63302" gradientUnits="userSpaceOnUse" id="color-21"><stop offset="0" stop-color="#ebe7c9"/><stop offset="1" stop-color="#e8c372"/></linearGradient><linearGradient x1="309.6179" y1="232.74716" x2="322.55209" y2="267.92607" gradientUnits="userSpaceOnUse" id="color-22"><stop offset="0" stop-color="#ebe7c9"/><stop offset="1" stop-color="#e8c372"/></linearGradient><linearGradient x1="361.59204" y1="189.43926" x2="371.18574" y2="140.18355" gradientUnits="userSpaceOnUse" id="color-23"><stop offset="0" stop-color="#ebe7c9"/><stop offset="1" stop-color="#e8c372"/></linearGradient><linearGradient x1="341.56549" y1="193.34997" x2="353.49128" y2="148.06022" gradientUnits="userSpaceOnUse" id="color-24"><stop offset="0" stop-color="#ebe7c9"/><stop offset="1" stop-color="#e8c372"/></linearGradient><linearGradient x1="313.09544" y1="195.9649" x2="327.14563" y2="154.41322" gradientUnits="userSpaceOnUse" id="color-25"><stop offset="0" stop-color="#ebe7c9"/><stop offset="1" stop-color="#e8c372"/></linearGradient><linearGradient x1="244.00348" y1="189.43926" x2="234.40978" y2="140.18355" gradientUnits="userSpaceOnUse" id="color-26"><stop offset="0" stop-color="#ebe7c9"/><stop offset="1" stop-color="#e8c372"/></linearGradient><linearGradient x1="266.08707" y1="193.76935" x2="254.1613" y2="153.10765" gradientUnits="userSpaceOnUse" id="color-27"><stop offset="0" stop-color="#ebe7c9"/><stop offset="1" stop-color="#e8c372"/></linearGradient><linearGradient x1="293.40467" y1="196.80065" x2="276.25546" y2="156.42921" gradientUnits="userSpaceOnUse" id="color-28"><stop offset="0" stop-color="#ebe7c9"/><stop offset="1" stop-color="#e8c372"/></linearGradient></defs><g transform="translate(1.25601,26.57791)"><g data-paper-data="{&quot;isPaintingLayer&quot;:true}" fill-rule="nonzero" stroke-width="0" stroke-linejoin="miter" stroke-miterlimit="10" stroke-dasharray="" stroke-dashoffset="0" style="mix-blend-mode: normal"><path d="M408.48795,245.52863c-8.29003,-3.07023 -13.64405,-7.9312 -13.64405,-13.40261c0,-7.01588 8.80325,-13.02807 21.31186,-15.54799c1.27111,-0.25607 2.58052,-0.47609 3.92282,-0.65743c10.75306,-3.95448 19.341,-15.51485 24.48268,-21.24523c20.32147,-22.64834 34.04625,-66.39329 100.84994,-63.5062c54.03007,2.33506 91.83117,33.72095 94.31916,57.25799c1.27745,12.08534 9.70491,32.16857 -32.62767,32.16857c-11.57002,0 -21.95562,-4.41279 -30.13687,-8.40646c-3.99534,-1.95035 -6.74184,-26.53866 -11.12668,-32.35459c-1.42089,-1.88463 -17.44205,-14.75945 -22.29437,-13.01903c-13.01389,4.66778 -15.9067,13.7343 -22.93505,20.8318c-17.56334,17.73623 -19.607,30.87607 -45.97634,48.73526c-13.61374,9.2202 -38.77011,16.98941 -62.56841,10.45465c-1.33437,-0.36641 -2.5167,-0.80758 -3.57702,-1.30869z" data-paper-data="{&quot;index&quot;:null}" fill="#211c39" stroke="#000000" stroke-linecap="butt"/><path d="M205.59002,246.0571c-21.47808,6.53476 -44.18188,-1.23444 -56.46829,-10.45465c-23.79846,-17.85919 -25.64282,-30.99904 -41.49382,-48.73526c-6.34311,-7.0975 -8.95389,-16.16402 -20.69899,-20.8318c-4.37924,-1.74042 -18.83846,11.1344 -20.12082,13.01906c-3.95734,5.81592 -6.43602,30.40426 -10.04189,32.35459c-7.38361,3.99367 -16.75662,8.40646 -27.19867,8.40646c-38.20541,0 -30.59958,-20.08323 -29.44663,-32.16857c2.24542,-23.53703 36.36109,-54.92293 85.12349,-57.25799c60.2907,-2.88709 72.67733,40.85786 91.01755,63.50623c4.64035,5.73038 12.391,17.29075 22.09569,21.24523c1.21144,0.18134 2.39318,0.40136 3.54041,0.65743c11.28908,2.51995 19.234,8.53211 19.234,15.54799c0,5.47141 -4.83198,10.33241 -12.31377,13.40264c-0.95695,0.50108 -2.024,0.94225 -3.22833,1.30866z" fill="#211c39" stroke="#000000" stroke-linecap="butt"/><path d="M416.66578,267.39063c0,65.54918 -51.35361,118.68727 -114.70151,118.68727c-63.34789,0 -114.70151,-53.1381 -114.70151,-118.68727c0,-65.54918 51.35361,-118.68727 114.70151,-118.68727c63.34789,0 114.70151,53.13807 114.70151,118.68724z" fill="#2b1005" stroke="#000000" stroke-linecap="butt"/><path d="M381.79536,22.57004c25.45855,-16.97236 53.8706,9.58153 66.54103,30.69893c2.89249,4.82084 1.41941,8.29851 2.69846,12.90247c0.64376,2.31725 9.16831,7.47855 10.40773,10.04589c6.89144,14.27513 1.77945,26.69821 -10.78254,36.22438c-10.80987,8.19749 -21.50808,7.53434 -33.34596,11.36088c-21.87315,7.07038 -58.45283,20.15253 -59.02391,-16.98409c-0.07352,-4.77971 1.22516,-11.9857 1.93895,-15.58837c1.39733,-7.05257 7.13414,-16.28674 12.87038,-20.61901c0.67628,-0.51076 12.01803,-6.38928 12.38485,-6.97346c1.10987,-1.76745 -2.85545,-3.20885 -3.49305,-5.19608c-0.63303,-1.97292 -1.41885,-3.88505 -2.30232,-5.7572c-4.7955,-2.96147 -7.99122,-8.26523 -7.99122,-14.31538c-2.16959,-3.85675 0.74544,-7.80641 4.09961,-11.00248c1.02911,-1.18809 2.222,-2.23047 3.54352,-3.09202c0.78518,-0.65105 1.49113,-1.23342 2.04066,-1.73299z" data-paper-data="{&quot;index&quot;:null}" fill="#420b0b" stroke="none" stroke-linecap="butt"/><path d="M390.06998,93.75109c0,0 9.11965,-13.43968 17.28438,-11.89246c8.16473,1.54722 12.51597,6.22527 15.62808,14.01414c3.11211,7.78887 -3.50537,16.32612 -3.50537,16.32612c0,0 3.65669,9.3235 0.78319,13.96414c-2.8735,4.64063 -15.99584,15.75155 -27.67801,17.72235c-11.68218,1.9708 -23.80238,-9.03747 -23.80238,-9.03747z" data-paper-data="{&quot;index&quot;:null}" fill="#a47d9a" stroke="#000000" stroke-linecap="round"/><path d="M224.43451,24.33489c0.54953,0.49957 1.25548,1.08192 2.04066,1.73299c1.32152,0.86155 2.51441,1.90392 3.54352,3.09202c3.35414,3.19607 6.26917,7.14573 4.09961,11.00248c0,6.05017 -3.19569,11.35391 -7.99119,14.31538c-0.88347,1.87215 -1.66929,3.78428 -2.30232,5.7572c-0.63763,1.98723 -4.60292,3.42865 -3.49308,5.19608c0.36684,0.58417 11.70857,6.4627 12.38485,6.97346c5.73624,4.33227 11.47305,13.56641 12.87038,20.61898c0.71381,3.60267 2.01247,10.80866 1.93897,15.58837c-0.57107,37.13661 -37.15076,24.05447 -59.02393,16.98411c-11.83791,-3.82654 -22.53609,-3.16338 -33.34596,-11.36088c-12.56199,-9.52617 -17.67398,-21.94925 -10.78254,-36.22438c1.23939,-2.56737 9.76397,-7.72867 10.40773,-10.04592c1.27905,-4.60397 -0.19406,-8.08166 2.69843,-12.90247c12.67043,-21.11737 41.08248,-47.67129 66.54103,-30.69891z" fill="#420b0b" stroke="none" stroke-linecap="butt"/><path d="M242.11093,131.36293c0,0 -9.35697,13.4361 -21.18427,14.12285c-11.82731,0.68675 -27.09884,-7.21444 -30.93577,-11.09652c-3.83692,-3.88209 -2.35381,-13.78659 -2.35381,-13.78659c0,0 -8.35626,-6.84458 -7.06142,-15.13162c1.29484,-8.28705 4.49201,-13.81836 12.1053,-17.14917c7.61329,-3.33081 19.50298,7.73394 19.50298,7.73394z" fill="#a47d9a" stroke="#000000" stroke-linecap="round"/><path d="M299.45563,337.65129c-51.96638,-0.49968 -63.75838,-118.71798 -74.36649,-175.72189c-7.24013,-38.90557 -21.30487,-83.43769 -17.88916,-103.71813c7.07353,-41.99861 41.26229,-84.05619 91.46226,-84.77481c50.19998,-0.71865 81.81305,25.51033 97.7391,81.15032c6.88205,24.04344 -12.28543,60.028 -15.90607,91.069c-7.64547,65.54697 -1.7859,193.16138 -71.03962,192.49548z" fill="url(#color-1)" stroke="#000000" stroke-linecap="round"/><path d="M274.90002,294.6909c0,0 -75.07944,47.78656 -76.21854,19.11973c-0.70975,-17.86123 8.56886,-28.49726 7.62185,-86.63615c-0.60629,-37.22174 -19.20535,-82.31658 -13.00198,-106.29739c6.29529,-24.33619 36.76423,2.38998 36.76423,2.38998" fill="url(#color-2)" stroke="#000000" stroke-linecap="round"/><path d="M376.30606,121.92204c0,0 34.05571,-26.72616 40.351,-2.38998c6.20335,23.98081 -12.39572,69.07565 -13.00198,106.29739c-0.94701,58.13888 8.33159,68.77491 7.62185,86.63615c-1.13911,28.66683 -76.21854,-19.11973 -76.21854,-19.11973" data-paper-data="{&quot;index&quot;:null}" fill="url(#color-3)" stroke="#000000" stroke-linecap="round"/><path d="M300.4061,164.31591c39.85175,-0.667 89.9193,-49.56049 96.45809,-44.12349c11.45083,9.52133 -3.6296,85.5614 -4.61155,113.46038c-0.98198,27.89898 9.74853,71.24675 3.84295,72.4886c-20.22147,4.25229 -55.73527,-33.31 -93.76803,-32.56733c-38.03273,0.74263 -70.33879,45.32056 -92.99945,39.39595c-7.20588,-1.88396 8.43016,-36.03992 6.14874,-79.84252c-0.94658,-18.17407 -18.44821,-101.06371 -6.91732,-109.78342c13.71331,-10.37009 51.99482,41.63881 91.84657,40.97183z" fill="#280606" stroke="#000000" stroke-linecap="round"/><path d="M328.21413,114.29222c0,14.60921 -11.5922,26.45234 -25.89189,26.45234c-14.29969,0 -25.89189,-11.84313 -25.89189,-26.45234c0,-14.60921 11.5922,-26.45231 25.89189,-26.45231c14.29969,0 25.89189,11.8431 25.89189,26.45231z" fill="url(#color-4)" stroke="#000000" stroke-linecap="butt"/><path d="M281.22905,103.76308l-4.70762,-9.75149l12.1053,3.53071" fill="#d70000" stroke="#000000" stroke-linecap="round"/><path d="M317.20869,97.5423l12.1053,-3.53071l-4.70762,9.75149" data-paper-data="{&quot;index&quot;:null}" fill="#d70000" stroke="#000000" stroke-linecap="round"/><path d="M321.58005,129.48685l4.70762,9.75149l-12.1053,-3.53071" data-paper-data="{&quot;index&quot;:null}" fill="#8c0101" stroke="#000000" stroke-linecap="round"/><path d="M289.96299,134.54534l-12.1053,3.53071l4.70762,-9.75149" data-paper-data="{&quot;index&quot;:null}" fill="#8c0101" stroke="#000000" stroke-linecap="round"/><path d="M250.73359,84.7587l12.5009,-1.74063l-4.4307,13.60856l6.80428,13.60856l-13.45033,-0.15823l-6.01311,11.39324l-4.90539,-11.23498l-14.39979,-0.94943l6.32959,-14.08331l-4.58896,-11.39321l12.02618,0.94943l4.11421,-10.12729z" fill="#000000" stroke="#000000" stroke-linecap="round"/><path d="M258.99863,96.99697c0,7.19383 -5.60989,13.0256 -12.53003,13.0256c-6.92014,0 -12.53006,-5.83174 -12.53006,-13.0256c0,-7.19383 5.60989,-13.02557 12.53006,-13.02557c6.92014,0 12.53003,5.83174 12.53003,13.02557z" fill="#ffffff" stroke="none" stroke-linecap="butt"/><path d="M257.592,97.18974c0,6.38361 -4.97808,11.55857 -11.11885,11.55857c-6.14078,0 -11.11885,-5.17493 -11.11885,-11.55857c0,-6.38361 4.97808,-11.55857 11.11885,-11.55857c6.14078,0 11.11885,5.17493 11.11885,11.55857z" fill="#000000" stroke="none" stroke-linecap="butt"/><path d="M255.58674,97.13855c0,5.23899 -4.08546,9.48604 -9.12514,9.48604c-5.03968,0 -9.12516,-4.24702 -9.12516,-9.48604c0,-5.23899 4.08546,-9.48601 9.12516,-9.48601c5.03968,0 9.12514,4.24702 9.12514,9.48601z" fill="#ffffff" stroke="none" stroke-linecap="butt"/><path d="M254.07328,97.18084c0,4.29792 -3.35161,7.78209 -7.48605,7.78209c-4.13444,0 -7.48605,-3.48415 -7.48605,-7.78209c0,-4.29792 3.35161,-7.78209 7.48605,-7.78209c4.13444,0 7.48605,3.48415 7.48605,7.78209z" fill="#000000" stroke="none" stroke-linecap="butt"/><path d="M252.31925,96.93583c0,3.3108 -2.58182,5.99473 -5.76667,5.99473c-3.18485,0 -5.76667,-2.68393 -5.76667,-5.99473c0,-3.3108 2.58182,-5.99473 5.76667,-5.99473c3.18485,0 5.76667,2.68393 5.76667,5.99473z" fill="#ffffff" stroke="none" stroke-linecap="butt"/><path d="M250.75888,96.90228c0,2.4652 -1.9224,4.46363 -4.29383,4.46363c-2.37143,0 -4.29383,-1.99842 -4.29383,-4.46363c0,-2.4652 1.9224,-4.46363 4.29383,-4.46363c2.37143,0 4.29383,1.99842 4.29383,4.46363z" fill="#000000" stroke="none" stroke-linecap="butt"/><g><path d="M363.26809,84.31038l12.5009,-1.74063l-4.4307,13.60856l6.80428,13.60856l-13.45033,-0.15823l-6.01311,11.39324l-4.90539,-11.23498l-14.39979,-0.94943l6.32959,-14.08331l-4.58896,-11.39321l12.02618,0.94943l4.11421,-10.12729z" fill="#000000" stroke="#000000" stroke-linecap="round"/><path d="M371.5331,96.54865c0,7.19383 -5.60989,13.0256 -12.53003,13.0256c-6.92014,0 -12.53006,-5.83174 -12.53006,-13.0256c0,-7.19383 5.60989,-13.02557 12.53006,-13.02557c6.92014,0 12.53003,5.83174 12.53003,13.02557z" fill="#ffffff" stroke="none" stroke-linecap="butt"/><path d="M370.1265,96.74142c0,6.38361 -4.97808,11.55857 -11.11885,11.55857c-6.14078,0 -11.11885,-5.17493 -11.11885,-11.55857c0,-6.38361 4.97808,-11.55857 11.11885,-11.55857c6.14078,0 11.11885,5.17493 11.11885,11.55857z" fill="#000000" stroke="none" stroke-linecap="butt"/><path d="M368.12127,96.69023c0,5.23899 -4.08546,9.48604 -9.12514,9.48604c-5.03968,0 -9.12516,-4.24702 -9.12516,-9.48604c0,-5.23899 4.08546,-9.48601 9.12516,-9.48601c5.03968,0 9.12514,4.24702 9.12514,9.48601z" fill="#ffffff" stroke="none" stroke-linecap="butt"/><path d="M366.60778,96.73251c0,4.29792 -3.35161,7.78209 -7.48605,7.78209c-4.13444,0 -7.48605,-3.48415 -7.48605,-7.78209c0,-4.29792 3.35161,-7.78209 7.48605,-7.78209c4.13444,0 7.48605,3.48415 7.48605,7.78209z" fill="#000000" stroke="none" stroke-linecap="butt"/><path d="M364.85378,96.4875c0,3.3108 -2.58182,5.99473 -5.76667,5.99473c-3.18485,0 -5.76667,-2.68393 -5.76667,-5.99473c0,-3.3108 2.58182,-5.99473 5.76667,-5.99473c3.18485,0 5.76667,2.68393 5.76667,5.99473z" fill="#ffffff" stroke="none" stroke-linecap="butt"/><path d="M363.29335,96.45396c0,2.4652 -1.9224,4.46363 -4.29383,4.46363c-2.37143,0 -4.29383,-1.99842 -4.29383,-4.46363c0,-2.4652 1.9224,-4.46363 4.29383,-4.46363c2.37143,0 4.29383,1.99842 4.29383,4.46363z" fill="#000000" stroke="none" stroke-linecap="butt"/></g><path d="M373.24353,48.39272c-0.74609,1.0035 -1.86521,0.33451 -1.86521,0.33451l-1.34503,-0.80403c-8.80034,-5.26069 -16.82666,-2.89736 -26.38748,-3.02918c-9.516,2.84426 -19.74958,3.11082 -29.43011,5.99775c-9.63246,2.15929 -20.9837,0.10077 -30.18225,-2.78161c-5.08562,0.02569 -9.76335,-2.97347 -14.74426,-3.61163c-4.94883,-0.63405 -10.52276,0.21375 -15.2948,-1.21257c-7.98546,0.1101 -19.72228,2.67406 -24.22106,8.72494c0,0 -0.74609,1.0035 -1.86524,0.33451c-1.11912,-0.66899 -0.37303,-1.6725 -0.37303,-1.6725c5.03373,-6.77041 17.9318,-9.85732 26.8902,-9.76793c4.73659,1.41573 10.27702,0.56994 15.19261,1.1995c5.02195,0.64319 9.74009,3.60079 14.84648,3.6247c8.96556,2.58507 19.6387,4.94499 28.99924,2.84666c9.78592,-2.93198 20.11871,-3.18369 29.75133,-6.06279c10.19915,-0.10179 18.98923,-2.169 28.31056,3.40312l1.34503,0.80403c0,0 1.11912,0.66899 0.37303,1.67252z" fill="#9d679d" stroke="none" stroke-linecap="butt"/><path d="M237.70146,29.14949l1.16768,-0.56946c8.09223,-3.9466 15.72325,-2.48245 24.57758,-2.41035c8.36248,2.03918 17.3328,2.21748 25.82838,4.29413c8.12626,1.48621 17.39206,-0.18526 25.17545,-2.0162c4.43307,-0.01692 8.5291,-2.11173 12.88886,-2.56727c4.26744,-0.44591 9.07728,0.15312 13.18932,-0.8496c7.7772,-0.06332 18.97452,2.12303 23.34451,6.91834c0,0 0.64771,0.71074 -0.32386,1.18457c-0.97157,0.47383 -1.61929,-0.23691 -1.61929,-0.23691c-3.90555,-4.28568 -14.09479,-6.10169 -21.02731,-6.17965c-4.14284,1.01023 -8.98181,0.40978 -13.27809,0.85886c-4.32412,0.45201 -8.38507,2.5762 -12.80012,2.55801c-7.98565,2.04152 -17.84012,3.49953 -26.20246,1.97015c-8.40409,-2.04472 -17.2883,-2.23356 -25.54953,-4.24807c-8.30012,0.09337 -15.26812,-1.58052 -22.90807,2.14549l-1.1677,0.56946c0,0 -0.97157,0.47386 -1.61929,-0.23691c-0.64771,-0.71074 0.32386,-1.1846 0.32386,-1.1846z" data-paper-data="{&quot;index&quot;:null}" fill="#9d679d" stroke="none" stroke-linecap="butt"/><path d="M348.6719,11.05527c-0.49215,0.71074 -1.23036,0.23691 -1.23036,0.23691l-0.88721,-0.56949c-5.80489,-3.72601 -11.09921,-2.05212 -17.40573,-2.14546c-6.27695,2.01448 -13.02727,2.20333 -19.41276,4.24805c-6.35378,1.52936 -13.84131,0.07137 -19.90886,-1.97015c-3.35459,0.01821 -6.44013,-2.10603 -9.72564,-2.55801c-3.26434,-0.44908 -6.94102,0.15137 -10.08877,-0.85886c-5.26739,0.07799 -13.00927,1.89397 -15.97674,6.17965c0,0 -0.49212,0.71074 -1.23033,0.23691c-0.73821,-0.47383 -0.24609,-1.18457 -0.24609,-1.18457c3.32038,-4.79531 11.8282,-6.98166 17.73738,-6.91834c3.12438,1.00272 6.77894,0.40367 10.02136,0.84958c3.3126,0.45556 6.42477,2.55034 9.79305,2.56729c5.91387,1.83094 12.95412,3.50239 19.1285,2.0162c6.455,-2.07665 13.27074,-2.25495 19.62463,-4.29413c6.72759,-0.07209 12.52573,-1.53624 18.67425,2.41035l0.88721,0.56949c0,0 0.73821,0.47383 0.24609,1.18457z" fill="#9d679d" stroke="none" stroke-linecap="butt"/><path d="M301.8345,152.3144c27.62715,-0.30764 67.59945,-17.86832 67.59945,-17.86832l0.84781,11.8904c0,0 -37.3271,31.10293 -66.65388,31.68301c-29.32681,0.58009 -69.34394,-28.99295 -69.34394,-28.99295l-0.00551,-15.37936c0,0 39.92892,18.97488 67.55606,18.66721z" fill="#c5378e" stroke="#000000" stroke-linecap="round"/><path d="M259.64599,288.47256l-1.55623,-9.989c0,0 28.07144,-14.04801 48.05234,-13.77774c19.9809,0.27027 45.41252,14.76214 45.41252,14.76214l-0.4073,7.52032c0,0 -27.40419,-10.16229 -46.2271,-10.30565c-18.82291,-0.14333 -45.27425,11.78992 -45.27425,11.78992z" data-paper-data="{&quot;index&quot;:null}" fill="#c5378e" stroke="#000000" stroke-linecap="round"/><g stroke="#000000" stroke-linecap="round"><path d="M271.69874,234.92099c0,0 5.93534,15.63333 5.55136,18.54729c-0.38398,2.91395 -7.52514,4.82001 -9.19443,3.46215c-6.4924,-6.32145 -8.84748,-21.3912 -8.84748,-21.3912l12.49055,-0.61825z" fill="url(#color-5)"/><path d="M338.71854,235.15981l13.03807,0.15158c0,0 -1.28228,15.76519 -7.54485,22.59491c-1.6309,1.47786 -9.20532,-0.22351 -9.83031,-3.23892c-0.625,-3.01541 4.33709,-19.50757 4.33709,-19.50757z" data-paper-data="{&quot;index&quot;:null}" fill="url(#color-6)"/><path d="M322.26712,233.10417l14.99158,-0.93943c0,0 1.71538,14.69437 -4.09024,21.53282c-1.57267,1.50257 -10.60812,0.55546 -11.93483,-2.18305c-1.32671,-2.73854 1.03349,-18.41032 1.03349,-18.41032z" data-paper-data="{&quot;index&quot;:null}" fill="url(#color-7)"/><path d="M290.46735,252.13274c-1.4234,2.73854 -11.11718,3.68563 -12.80445,2.18305c-6.22865,-6.83845 -4.38827,-21.53282 -4.38827,-21.53282l16.08391,0.93943c0,0 2.5322,15.67179 1.10881,18.41032z" data-paper-data="{&quot;index&quot;:null}" fill="url(#color-8)"/><path d="M306.55783,249.43182c-1.94295,2.65519 -12.82894,3.09012 -14.50276,1.50364c-6.00775,-7.14421 -2.01749,-21.69591 -2.01749,-21.69591l17.7293,1.78135c0,0 0.7339,15.75574 -1.20905,18.41093z" data-paper-data="{&quot;index&quot;:null}" fill="url(#color-9)"/><path d="M304.93612,230.59847l17.7293,-1.78135c0,0 3.99028,14.55171 -2.01749,21.69593c-1.67381,1.5865 -12.5598,1.15155 -14.50276,-1.50364c-1.94295,-2.65519 -1.20905,-18.41093 -1.20905,-18.41093z" data-paper-data="{&quot;index&quot;:null}" fill="url(#color-10)"/><path d="M344.87066,179.91595c0.90498,-2.0972 4.98464,-6.21595 9.05809,-7.07866c3.27389,-0.69337 6.64875,1.53537 7.57228,2.39909c7.68851,8.90252 5.90133,28.87787 5.90133,28.87787c0,0 -5.71236,1.9924 -9.91193,2.42002c-4.19957,0.42763 -10.84873,-0.30606 -10.84873,-0.30606c0,0 -3.40338,-22.52954 -1.77104,-26.31228z" data-paper-data="{&quot;index&quot;:null}" fill="url(#color-11)"/><path d="M329.11637,183.81393c1.05683,-1.91988 5.52166,-5.63185 9.79741,-6.32745c3.43646,-0.55907 6.81375,1.5916 7.7237,2.41528c7.47947,8.44323 4.50407,26.90364 4.50407,26.90364c0,0 -6.03993,1.70048 -10.42211,1.98979c-4.38218,0.28931 -11.24134,-0.55958 -11.24134,-0.55958c0,0 -2.26791,-20.95876 -0.36169,-24.42169z" data-paper-data="{&quot;index&quot;:null}" fill="url(#color-12)"/><path d="M303.92415,187.24089c1.2451,-1.76142 6.50532,-5.16701 11.54273,-5.80519c4.04862,-0.51291 8.02757,1.46024 9.09959,2.21592c8.81187,7.74636 5.30642,24.68311 5.30642,24.68311c0,0 -7.11589,1.56013 -12.27871,1.82556c-5.16282,0.26543 -13.24393,-0.51338 -13.24393,-0.51338c0,0 -2.67191,-19.2289 -0.42613,-22.40602z" data-paper-data="{&quot;index&quot;:null}" fill="url(#color-13)"/><path d="M261.45383,206.22825c0,0 -6.64917,0.73368 -10.84873,0.30606c-4.19957,-0.42763 -9.91193,-2.42002 -9.91193,-2.42002c0,0 -1.78719,-19.97535 5.90133,-28.87787c0.92352,-0.86372 4.29839,-3.09246 7.57228,-2.39909c4.07345,0.86269 8.15314,4.98146 9.05812,7.07866c1.63232,3.78274 -1.77104,26.31228 -1.77104,26.31228z" data-paper-data="{&quot;index&quot;:null}" fill="url(#color-14)"/><path d="M280.34203,208.29894c0,0 -6.85919,0.76215 -11.24134,0.5024c-4.38218,-0.25976 -10.42211,-1.78647 -10.42211,-1.78647c0,0 -2.97541,-16.57398 4.50407,-24.15441c0.90995,-0.7395 4.28723,-2.67039 7.7237,-2.16846c4.27575,0.6245 8.74058,3.95714 9.79741,5.68086c1.90622,3.10906 -0.36169,21.9261 -0.36169,21.9261z" data-paper-data="{&quot;index&quot;:null}" fill="url(#color-15)"/><path d="M304.65801,209.69292c0,0 -7.97545,1.21175 -13.15164,1.22509c-5.1762,0.01334 -12.43712,-1.15917 -12.43712,-1.15917c0,0 -5.29065,-16.69958 2.67494,-24.8983c0.98888,-0.81125 4.7473,-2.99302 8.83873,-2.69959c5.09068,0.36511 10.69681,3.4777 12.12506,5.16704c2.57614,3.04711 1.95004,22.36494 1.95004,22.36494z" data-paper-data="{&quot;index&quot;:null}" fill="url(#color-16)"/></g><path d="M264.21158,241.0753c0,0 7.07972,26.16267 6.62171,31.03923c-0.45801,4.87655 -8.97605,8.06638 -10.96719,5.79397c-7.74419,-10.57906 -10.55335,-35.79857 -10.55335,-35.79857l14.89883,-1.03465z" fill="url(#color-17)" stroke="#000000" stroke-linecap="round"/><path d="M344.15336,241.47497l15.55192,0.25367c0,0 -1.52952,26.38334 -8.99956,37.813c-1.94535,2.47322 -10.98018,-0.37405 -11.72568,-5.4204c-0.7455,-5.04635 5.17332,-32.64627 5.17332,-32.64627z" data-paper-data="{&quot;index&quot;:null}" fill="url(#color-18)" stroke="#000000" stroke-linecap="round"/><path d="M324.52997,238.03482l17.88208,-1.57216c0,0 2.04612,24.5913 -4.87887,36.03557c-1.87589,2.51457 -12.65345,0.92958 -14.23597,-3.65338c-1.58251,-4.58299 1.23275,-30.81001 1.23275,-30.81001z" data-paper-data="{&quot;index&quot;:null}" fill="url(#color-19)" stroke="#000000" stroke-linecap="round"/><path d="M286.59893,269.87948c-1.69784,4.58299 -13.26066,6.16797 -15.27326,3.65338c-7.42959,-11.44427 -5.23436,-36.03557 -5.23436,-36.03557l19.18502,1.57216c0,0 3.02043,26.22702 1.3226,30.81001z" data-paper-data="{&quot;index&quot;:null}" fill="url(#color-20)" stroke="#000000" stroke-linecap="round"/><path d="M305.79179,265.35943c-2.31757,4.44351 -15.30247,5.17138 -17.29901,2.51637c-7.1661,-11.95597 -2.40648,-36.3085 -2.40648,-36.3085l21.14766,2.98113c0,0 0.8754,26.36752 -1.44217,30.81103z" data-paper-data="{&quot;index&quot;:null}" fill="url(#color-21)" stroke="#000000" stroke-linecap="round"/><path d="M303.8574,233.84148l21.14766,-2.98113c0,0 4.75964,24.35255 -2.40648,36.30853c-1.99654,2.65504 -14.98144,1.92714 -17.29901,-2.51637c-2.31757,-4.44351 -1.44217,-30.81103 -1.44217,-30.81103z" data-paper-data="{&quot;index&quot;:null}" fill="url(#color-22)" stroke="#000000" stroke-linecap="round"/><path d="M351.49165,149.02337c1.07947,-3.5097 5.94572,-10.40251 10.80457,-11.84627c3.90512,-1.16036 7.93069,2.56947 9.03228,4.01492c9.17092,14.89853 7.03915,48.32764 7.03915,48.32764c0,0 -6.81375,3.33431 -11.82303,4.04995c-5.00928,0.71564 -12.94046,-0.51219 -12.94046,-0.51219c0,0 -4.05958,-37.7036 -2.11251,-44.03408z" data-paper-data="{&quot;index&quot;:null}" fill="url(#color-23)" stroke="#000000" stroke-linecap="round"/><path d="M332.69981,155.5467c1.26059,-3.21296 6.58628,-9.425 11.68643,-10.5891c4.09904,-0.93561 8.1275,2.66357 9.21289,4.04201c8.92158,14.1299 5.37249,45.02373 5.37249,45.02373c0,0 -7.20448,2.84579 -12.43158,3.32995c-5.2271,0.48416 -13.40877,-0.93647 -13.40877,-0.93647c0,0 -2.70518,-35.07486 -0.43143,-40.87015z" data-paper-data="{&quot;index&quot;:null}" fill="url(#color-24)" stroke="#000000" stroke-linecap="round"/><path d="M302.65032,161.28179c1.48516,-2.94777 7.7596,-8.64708 13.76827,-9.71509c4.82923,-0.85837 9.57535,2.44374 10.85407,3.70839c10.51087,12.96367 6.32954,41.30764 6.32954,41.30764c0,0 -8.48789,2.6109 -14.64615,3.05511c-6.15826,0.44421 -15.79747,-0.85915 -15.79747,-0.85915c0,0 -3.18708,-32.17992 -0.50829,-37.49689z" data-paper-data="{&quot;index&quot;:null}" fill="url(#color-25)" stroke="#000000" stroke-linecap="round"/><path d="M251.99136,193.05748c0,0 -7.93118,1.22783 -12.94046,0.51219c-5.00928,-0.71564 -11.82303,-4.04995 -11.82303,-4.04995c0,0 -2.13177,-33.42911 7.03915,-48.32764c1.10158,-1.44545 5.12716,-5.17528 9.03228,-4.01492c4.85885,1.44373 9.72513,8.33657 10.8046,11.84627c1.94704,6.33048 -2.11251,44.03408 -2.11251,44.03408z" data-paper-data="{&quot;index&quot;:null}" fill="url(#color-26)" stroke="#000000" stroke-linecap="round"/><path d="M274.52137,196.52282c0,0 -8.1817,1.27547 -13.40877,0.84078c-5.2271,-0.43471 -12.43158,-2.98969 -12.43158,-2.98969c0,0 -3.54909,-27.73685 5.37249,-40.42285c1.08539,-1.23757 5.11384,-4.46895 9.21289,-3.62895c5.10015,1.04512 10.42584,6.62235 11.68643,9.50702c2.27375,5.20307 -0.43143,36.69372 -0.43143,36.69372z" data-paper-data="{&quot;index&quot;:null}" fill="url(#color-27)" stroke="#000000" stroke-linecap="round"/><path d="M303.52567,198.85567c0,0 -9.51318,2.02788 -15.68739,2.05021c-6.17421,0.02233 -14.8351,-1.93989 -14.8351,-1.93989c0,0 -6.31073,-27.94705 3.19069,-41.66776c1.17954,-1.35765 5.66262,-5.00888 10.54291,-4.51781c6.07221,0.61102 12.75925,5.81999 14.46287,8.64714c3.07284,5.0994 2.32602,37.42813 2.32602,37.42813z" data-paper-data="{&quot;index&quot;:null}" fill="url(#color-28)" stroke="#000000" stroke-linecap="round"/></g></g></svg>