<svg version="1.1" xmlns="http://www.w3.org/2000/svg" xmlns:xlink="http://www.w3.org/1999/xlink" width="170.70895" height="345.59633" viewBox="0,0,170.70895,345.59633"><defs><linearGradient x1="296.03501" y1="102.07577" x2="296.03501" y2="111.92334" gradientUnits="userSpaceOnUse" id="color-1"><stop offset="0" stop-color="#484848"/><stop offset="1" stop-color="#262626"/></linearGradient><linearGradient x1="299.51968" y1="307.18369" x2="298.05897" y2="327.42091" gradientUnits="userSpaceOnUse" id="color-2"><stop offset="0" stop-color="#424242"/><stop offset="1" stop-color="#282828"/></linearGradient><linearGradient x1="350.56643" y1="305.61226" x2="352.02712" y2="325.84949" gradientUnits="userSpaceOnUse" id="color-3"><stop offset="0" stop-color="#424242"/><stop offset="1" stop-color="#282828"/></linearGradient><linearGradient x1="334.05222" y1="288.59191" x2="368.24245" y2="302.15409" gradientUnits="userSpaceOnUse" id="color-4"><stop offset="0" stop-color="#553314"/><stop offset="1" stop-color="#432a11"/></linearGradient><linearGradient x1="316.14126" y1="289.09191" x2="281.95102" y2="302.65407" gradientUnits="userSpaceOnUse" id="color-5"><stop offset="0" stop-color="#553314"/><stop offset="1" stop-color="#432a11"/></linearGradient><linearGradient x1="330.74926" y1="231.92524" x2="368.3892" y2="245.48744" gradientUnits="userSpaceOnUse" id="color-6"><stop offset="0" stop-color="#553314"/><stop offset="1" stop-color="#432a11"/></linearGradient><linearGradient x1="319.31297" y1="233.09191" x2="281.67304" y2="246.6541" gradientUnits="userSpaceOnUse" id="color-7"><stop offset="0" stop-color="#553314"/><stop offset="1" stop-color="#432a11"/></linearGradient><linearGradient x1="324.45622" y1="192.8082" x2="324.45622" y2="224.78612" gradientUnits="userSpaceOnUse" id="color-8"><stop offset="0" stop-color="#573515"/><stop offset="1" stop-color="#4d3014"/></linearGradient><linearGradient x1="356.94042" y1="105.07578" x2="356.94042" y2="114.92334" gradientUnits="userSpaceOnUse" id="color-9"><stop offset="0" stop-color="#484848"/><stop offset="1" stop-color="#262626"/></linearGradient><linearGradient x1="365.28361" y1="102.39635" x2="365.28361" y2="115.52135" gradientUnits="userSpaceOnUse" id="color-10"><stop offset="0" stop-color="#434343"/><stop offset="1" stop-color="#2a2a2a"/></linearGradient><linearGradient x1="388.53531" y1="138.58972" x2="395.71854" y2="149.92371" gradientUnits="userSpaceOnUse" id="color-11"><stop offset="0" stop-color="#424242"/><stop offset="1" stop-color="#282828"/></linearGradient><linearGradient x1="361.50391" y1="131.1096" x2="394.95662" y2="122.90382" gradientUnits="userSpaceOnUse" id="color-12"><stop offset="0" stop-color="#5f3916"/><stop offset="1" stop-color="#4f3214"/></linearGradient><linearGradient x1="379.9254" y1="160.83486" x2="410.75114" y2="174.47871" gradientUnits="userSpaceOnUse" id="color-13"><stop offset="0" stop-color="#5f3916"/><stop offset="1" stop-color="#4f3214"/></linearGradient><linearGradient x1="381.22556" y1="168.30164" x2="409.215" y2="177.65267" gradientUnits="userSpaceOnUse" id="color-14"><stop offset="0" stop-color="#2c1b0b"/><stop offset="1" stop-color="#000000"/></linearGradient><linearGradient x1="394.49369" y1="178.72071" x2="393.28351" y2="192.0846" gradientUnits="userSpaceOnUse" id="color-15"><stop offset="0" stop-color="#424242"/><stop offset="1" stop-color="#292929"/></linearGradient><linearGradient x1="384.52863" y1="183.51128" x2="389.00443" y2="228.34465" gradientUnits="userSpaceOnUse" id="color-16"><stop offset="0" stop-color="#5a3715"/><stop offset="1" stop-color="#583615"/></linearGradient><linearGradient x1="360.97257" y1="94.06244" x2="360.97257" y2="111.76691" gradientUnits="userSpaceOnUse" id="color-17"><stop offset="0" stop-color="#5b3716"/><stop offset="1" stop-color="#583615"/></linearGradient><linearGradient x1="325.1085" y1="96.59658" x2="325.1085" y2="198.3533" gradientUnits="userSpaceOnUse" id="color-18"><stop offset="0" stop-color="#603916"/><stop offset="1" stop-color="#4a2f13"/></linearGradient><linearGradient x1="324.85242" y1="106.71416" x2="324.85242" y2="198.2497" gradientUnits="userSpaceOnUse" id="color-19"><stop offset="0" stop-color="#bb8049"/><stop offset="1" stop-color="#c0844b"/></linearGradient><radialGradient cx="311.79753" cy="111.49737" r="10.02194" gradientUnits="userSpaceOnUse" id="color-20"><stop offset="0" stop-color="#000011"/><stop offset="1" stop-color="#262626"/></radialGradient><radialGradient cx="337.51976" cy="111.88626" r="10.02194" gradientUnits="userSpaceOnUse" id="color-21"><stop offset="0" stop-color="#000011"/><stop offset="1" stop-color="#262626"/></radialGradient><linearGradient x1="350.38935" y1="257.9438" x2="343.63699" y2="281.1298" gradientUnits="userSpaceOnUse" id="color-22"><stop offset="0" stop-color="#4f3013"/><stop offset="1" stop-color="#503113"/></linearGradient><linearGradient x1="298.7911" y1="258.54663" x2="305.54347" y2="282.69034" gradientUnits="userSpaceOnUse" id="color-23"><stop offset="0" stop-color="#4f3013"/><stop offset="1" stop-color="#503113"/></linearGradient><linearGradient x1="287.62552" y1="319.07067" x2="287.62552" y2="347.97218" gradientUnits="userSpaceOnUse" id="color-24"><stop offset="0" stop-color="#482c12"/><stop offset="1" stop-color="#33200d"/></linearGradient><linearGradient x1="362.42552" y1="318.204" x2="362.42552" y2="347.10551" gradientUnits="userSpaceOnUse" id="color-25"><stop offset="0" stop-color="#482c12"/><stop offset="1" stop-color="#33200d"/></linearGradient><linearGradient x1="278.42483" y1="160.03009" x2="316.8814" y2="183.50679" gradientUnits="userSpaceOnUse" id="color-26"><stop offset="0" stop-color="#5a3715"/><stop offset="1" stop-color="#583615"/></linearGradient><radialGradient cx="303.16508" cy="178.32295" r="20" gradientUnits="userSpaceOnUse" id="color-27"><stop offset="0" stop-color="#010e05"/><stop offset="1" stop-color="#2b2b2b"/></radialGradient><radialGradient cx="308.49689" cy="154.13055" r="9.7" gradientUnits="userSpaceOnUse" id="color-28"><stop offset="0" stop-color="#5e626a"/><stop offset="1" stop-color="#494949"/></radialGradient><linearGradient x1="284.17897" y1="102.94272" x2="282.34549" y2="115.93903" gradientUnits="userSpaceOnUse" id="color-29"><stop offset="0" stop-color="#434343"/><stop offset="1" stop-color="#2a2a2a"/></linearGradient><linearGradient x1="250.85964" y1="133.64157" x2="247.84817" y2="146.71785" gradientUnits="userSpaceOnUse" id="color-30"><stop offset="0" stop-color="#424242"/><stop offset="1" stop-color="#282828"/></linearGradient><linearGradient x1="283.91051" y1="131.90246" x2="251.93215" y2="119.10397" gradientUnits="userSpaceOnUse" id="color-31"><stop offset="0" stop-color="#5f3916"/><stop offset="1" stop-color="#4f3214"/></linearGradient><linearGradient x1="269.78756" y1="142.82276" x2="257.68208" y2="174.28443" gradientUnits="userSpaceOnUse" id="color-32"><stop offset="0" stop-color="#5f3916"/><stop offset="1" stop-color="#4f3214"/></linearGradient><linearGradient x1="274.15669" y1="149.01581" x2="261.01425" y2="175.43789" gradientUnits="userSpaceOnUse" id="color-33"><stop offset="0" stop-color="#2c1b0b"/><stop offset="1" stop-color="#000000"/></linearGradient><linearGradient x1="272.16551" y1="165.76798" x2="282.48292" y2="174.34754" gradientUnits="userSpaceOnUse" id="color-34"><stop offset="0" stop-color="#424242"/><stop offset="1" stop-color="#292929"/></linearGradient><linearGradient x1="289.61193" y1="95.29277" x2="287.13872" y2="112.82363" gradientUnits="userSpaceOnUse" id="color-35"><stop offset="0" stop-color="#5b3716"/><stop offset="1" stop-color="#583615"/></linearGradient><linearGradient x1="278.14192" y1="159.99019" x2="316.59849" y2="183.46688" gradientUnits="userSpaceOnUse" id="color-36"><stop offset="0" stop-color="#5a3715"/><stop offset="1" stop-color="#583615"/></linearGradient><linearGradient x1="381.38106" y1="39.55784" x2="373.8869" y2="63.57108" gradientUnits="userSpaceOnUse" id="color-37"><stop offset="0" stop-color="#9d551f"/><stop offset="1" stop-color="#80481b"/></linearGradient><linearGradient x1="349.30686" y1="4.23511" x2="342.34319" y2="26.54853" gradientUnits="userSpaceOnUse" id="color-38"><stop offset="0" stop-color="#040000"/><stop offset="1" stop-color="#242424"/></linearGradient><linearGradient x1="343.71118" y1="22.65462" x2="341.0673" y2="31.12629" gradientUnits="userSpaceOnUse" id="color-39"><stop offset="0" stop-color="#040000"/><stop offset="1" stop-color="#303240"/></linearGradient><linearGradient x1="343.13118" y1="25.74875" x2="325.40476" y2="82.54878" gradientUnits="userSpaceOnUse" id="color-40"><stop offset="0" stop-color="#9f561f"/><stop offset="1" stop-color="#442c12"/></linearGradient><linearGradient x1="301.101" y1="63.8498" x2="329.3939" y2="72.67958" gradientUnits="userSpaceOnUse" id="color-41"><stop offset="0" stop-color="#c2854c"/><stop offset="1" stop-color="#b67d47"/></linearGradient><linearGradient x1="329.19331" y1="72.61698" x2="356.66797" y2="81.1914" gradientUnits="userSpaceOnUse" id="color-42"><stop offset="0" stop-color="#c2854c"/><stop offset="1" stop-color="#a16f3f"/></linearGradient><radialGradient cx="332.13432" cy="62.30533" r="10.10394" gradientUnits="userSpaceOnUse" id="color-43"><stop offset="0" stop-color="#484848"/><stop offset="1" stop-color="#000000"/></radialGradient><linearGradient x1="303.35496" y1="14.99758" x2="295.86079" y2="39.01082" gradientUnits="userSpaceOnUse" id="color-44"><stop offset="0" stop-color="#9d551f"/><stop offset="1" stop-color="#80481b"/></linearGradient><linearGradient x1="302.98104" y1="18.72197" x2="297.72123" y2="35.57575" gradientUnits="userSpaceOnUse" id="color-45"><stop offset="0" stop-color="#54311b"/><stop offset="1" stop-color="#35231b"/></linearGradient><linearGradient x1="380.27124" y1="42.84306" x2="375.01143" y2="59.69684" gradientUnits="userSpaceOnUse" id="color-46"><stop offset="0" stop-color="#54311b"/><stop offset="1" stop-color="#35231b"/></linearGradient><linearGradient x1="323.23336" y1="89.71008" x2="317.87047" y2="106.89416" gradientUnits="userSpaceOnUse" id="color-47"><stop offset="0" stop-color="#623a16"/><stop offset="1" stop-color="#462d12"/></linearGradient></defs><g transform="translate(-241.4548,-2.37585)"><g data-paper-data="{&quot;isPaintingLayer&quot;:true}" fill-rule="nonzero" stroke-linejoin="miter" stroke-miterlimit="10" stroke-dasharray="" stroke-dashoffset="0" style="mix-blend-mode: normal"><path d="M285.90626,102.75325l20.04502,-0.67748l0.21247,9.16065l-19.82799,0.68691z" fill="url(#color-1)" stroke="#000000" stroke-width="0" stroke-linecap="butt"/><path d="M292.90673,328.1645l1.5754,-17.45002l10.26867,-1.29622l-1.53957,17.25904z" data-paper-data="{&quot;index&quot;:null}" fill="url(#color-2)" stroke="#000000" stroke-width="0" stroke-linecap="butt"/><path d="M346.87488,325.10588l-1.53957,-17.25904l10.26867,1.29622l1.57539,17.45001z" data-paper-data="{&quot;index&quot;:null}" fill="url(#color-3)" stroke="#000000" stroke-width="0" stroke-linecap="butt"/><path d="M363.47518,315.00329c-2.08115,2.4598 -12.06674,3.45447 -12.06674,3.45447c0,0 -12.05968,2.06948 -14.55394,-2.79135c-2.16244,-4.21415 -4.01951,-12.73285 -4.13526,-20.25008c-1.09588,-9.51074 4.17826,-22.89711 4.17826,-22.89711l16.35073,-1.81828l11.3842,2.24903c0,0 4.2443,4.92105 4.15699,17.73469c-0.09306,13.65721 -2.40899,20.8848 -5.31424,24.31862z" data-paper-data="{&quot;index&quot;:null}" fill="url(#color-4)" stroke="#000000" stroke-width="0" stroke-linecap="round"/><path d="M286.7183,315.50327c-2.90525,-3.43382 -5.22118,-10.66141 -5.31424,-24.31862c-0.08731,-12.81364 4.15699,-17.73469 4.15699,-17.73469l11.3842,-2.24903l16.35073,1.81828c0,0 5.27414,13.38637 4.17826,22.89711c-0.11575,7.51723 -1.97281,16.03593 -4.13526,20.25008c-2.49426,4.86083 -14.55393,2.79135 -14.55393,2.79135c0,0 -9.98559,-0.99467 -12.06674,-3.45447z" fill="url(#color-5)" stroke="#000000" stroke-width="0" stroke-linecap="round"/><path d="M349.85668,261.79109c0,0 -13.27647,2.06947 -16.02238,-2.79135c-2.38063,-4.21415 -4.42506,-12.73285 -4.55249,-20.25008c-1.20645,-9.51074 1.66411,-14.73045 1.66411,-14.73045c0,0 3.69435,-4.34086 14.69777,-8.48493c11.64153,-4.3844 19.68867,-3.41764 19.68867,-3.41764c0,0 3.75513,9.08772 3.659,21.90136c-0.10245,13.65721 -2.65205,20.8848 -5.85042,24.31862c-2.29113,2.45979 -13.28425,3.45447 -13.28425,3.45447z" data-paper-data="{&quot;index&quot;:null}" fill="url(#color-6)" stroke="#000000" stroke-width="0" stroke-linecap="round"/><path d="M286.92132,259.50327c-3.19838,-3.43382 -5.74798,-10.66141 -5.85043,-24.31862c-0.09612,-12.81364 3.659,-21.90136 3.659,-21.90136c0,0 8.04714,-0.96676 19.68866,3.41764c11.00342,4.14407 14.69777,8.48494 14.69777,8.48494c0,0 2.87056,5.21971 1.66411,14.73045c-0.12743,7.51723 -2.17186,16.03593 -4.55249,20.25008c-2.74592,4.86083 -16.02238,2.79135 -16.02238,2.79135c0,0 -10.99311,-0.99467 -13.28424,-3.45447z" fill="url(#color-7)" stroke="#000000" stroke-width="0" stroke-linecap="round"/><path d="M363.00808,193.34153c0,0 4.11956,6.9837 2.04356,11.73334c-1.92457,4.40315 -32.69689,18.93333 -32.69689,18.93333c0,0 -8.09825,1.60821 -12.63288,0.2c-1.7069,-0.53007 -6.06806,-3.01475 -12.2336,-5.65801c-10.21408,-4.37894 -16.16042,-3.49803 -20.92773,-9.54199c-7.33536,-9.29972 -0.09289,-16.2 -0.09289,-16.2c0,0 25.75766,2.93296 38.65908,3.02286c12.60517,0.08783 37.88136,-2.48953 37.88136,-2.48953z" fill="url(#color-8)" stroke="#000000" stroke-width="0" stroke-linecap="round"/><g data-paper-data="{&quot;index&quot;:null}" stroke-width="0"><path d="M366.63967,114.92334l-19.82799,-0.68691l0.21247,-9.16065l20.04502,0.67748z" fill="url(#color-9)" stroke="#000000" stroke-linecap="butt"/><path d="M371.78361,108.95885c0,3.62437 -2.91015,6.5625 -6.5,6.5625c-3.58985,0 -6.5,-2.93813 -6.5,-6.5625c0,-3.62437 2.91015,-6.5625 6.5,-6.5625c3.58985,0 6.5,2.93813 6.5,6.5625z" fill="url(#color-10)" stroke="none" stroke-linecap="butt"/><path d="M393.51472,151.32046l-6.23793,-9.56153l4.33149,-2.8926l6.3141,9.66065z" fill="url(#color-11)" stroke="#000000" stroke-linecap="butt"/><path d="M378.72584,150.4991c-3.98772,-2.07455 -9.80104,-7.89041 -14.08121,-13.63586c-12.53248,-16.8229 -6.74302,-25.76493 -6.74302,-25.76493l12.37831,-9.0156c0,0 11.35505,3.78139 18.6941,11.6595c6.20923,6.42045 9.82382,17.45465 9.53909,21.6958c-0.20396,3.03812 -7.32492,9.34678 -7.32492,9.34678c0,0 -7.86272,8.10721 -12.46236,5.71432z" fill="url(#color-12)" stroke="#000000" stroke-linecap="round"/><path d="M380.5275,183.85186c-1.70086,-3.69392 -2.37552,-10.96958 -1.92609,-17.31754c1.31596,-18.58705 11.51402,-21.32012 11.51402,-21.32012l15.27211,0.99901c0,0 6.21769,9.07865 6.72296,18.62674c0.5858,7.91236 -3.79078,17.46017 -6.75008,20.16913c-2.11987,1.94054 -5.32163,4.46399 -11.82783,4.28974c-6.50675,-0.17426 -11.04324,-1.18622 -13.00509,-5.44697z" fill="url(#color-13)" stroke="#000000" stroke-linecap="round"/><path d="M381.77225,184.07672c-1.54437,-2.53169 7.55496,-3.69149 12.71906,-3.50984c5.16409,0.18165 12.51599,2.44634 9.82898,4.30297c-1.92482,1.32998 -4.83198,3.05947 -10.73954,2.94004c-5.90806,-0.11944 -10.02715,-0.813 -11.80849,-3.73317z" fill="url(#color-14)" stroke="#000000" stroke-linecap="round"/><path d="M390.68497,191.84928l0.87977,-11.38247c0,0 1.61806,-0.02615 2.42619,0.05679c0.9105,0.09346 2.77087,0.28883 2.77087,0.28883l-0.87976,11.50748z" fill="url(#color-15)" stroke="#000000" stroke-linecap="butt"/><path d="M379.78829,191.03175c3.28133,-3.15157 2.91975,-7.35251 5.80898,-7.62712c3.73563,-0.35506 12.07859,0.26046 17.59455,5.28603c1.72147,1.56842 1.42251,9.35264 2.60816,15.36212c1.18565,6.00948 2.16335,7.46815 1.93267,12.90604c-0.23068,5.43788 -0.56246,6.24475 -3.27169,8.767c-2.70923,2.52224 -5.96758,1.02217 -6.18101,0.0333c-0.55147,-2.55515 1.16763,-10.30528 1.16763,-10.30528c0,0 -0.64391,5.89567 -2.70388,8.38922c-3.42537,4.14634 -8.00504,0.07366 -8.31504,-0.63804c-0.78037,-1.79156 0.05057,-3.52902 0.60963,-5.07375c0.52756,-1.45767 0.76432,-2.77529 0.76432,-2.77529c0,0 -2.18207,6.51886 -3.86461,8.17128c-2.38293,2.34027 -7.21127,-0.59323 -8.11872,-2.3844c-1.66413,-3.2848 1.8966,-6.75659 2.45524,-11.37869c0.55863,-4.62211 -0.48854,-4.89359 -0.48854,-4.89359c0,0 -2.1456,1.57693 -3.22364,2.70946c-1.401,1.47181 -2.45888,6.33382 -5.73017,5.24959c-2.87944,-0.95435 -7.47918,-7.38599 -0.7582,-15.78103c4.088,-5.10624 6.43299,-2.86528 9.71432,-6.01684z" fill="url(#color-16)" stroke="#000000" stroke-linecap="round"/><path d="M351.92362,94.06244c0,0 3.81369,-0.18651 9.46643,1.28631c5.22366,1.36102 8.63147,4.61518 8.63147,4.61518l-13.77014,11.80298z" fill="url(#color-17)" stroke="#000000" stroke-linecap="round"/></g><path d="M347.87503,98.97579c2.47841,0.42002 4.83918,5.33223 6,9.25c1.16082,3.91777 0.53814,11.12493 2.25,18.25c1.71186,7.12507 5.53675,11.51252 7,20.25c5.07327,30.2939 0.83715,41.69301 -1.25,43.5c-2.20216,1.90657 -11.16417,3.65381 -19.75,5.43322c-5.26526,1.09122 -3.1538,2.18238 -15.25,2.66667c-8.58883,0.34387 -10.6602,-1.29157 -17.41667,-1.91667c-6.93854,-0.64194 -20.61504,-5.18796 -22.83333,-7.83333c-3.13429,-3.73771 -1.69539,-25.98585 0.25,-41.28607c1.28381,-10.09695 2.243,-5.54649 6.25,-21.5c1.74345,-6.94137 -0.40983,-10.0287 1.75,-16.75c2.17965,-5.3215 2.43404,-9.20149 8,-10.25c5.56596,-1.04851 27.87366,-2.71626 45,0.18619z" fill="url(#color-18)" stroke="#000000" stroke-width="0" stroke-linecap="round"/><path d="M355.54434,192.59385c-1.11189,0.96264 -13.77724,6.2571 -29.40755,5.93483c-17.3117,0.13926 -30.28079,-5.50127 -31.11565,-6.49686c-2.44895,-2.92042 -7.80668,-84.27092 30.46987,-85.30993c34.69227,-0.94171 31.68411,84.46008 30.05334,85.87196z" data-paper-data="{&quot;index&quot;:null}" fill="url(#color-19)" stroke="#000000" stroke-width="0" stroke-linecap="round"/><path d="M321.81948,114.15944c0,0 -7.55894,10.71103 -17.91666,4.69444c-4.35997,-2.53262 2.55555,-8.08333 2.55555,-8.08333c0,0 -8.18074,-6.88673 -2.91667,-8.11111c8.71039,-2.02597 18,5.33333 18,5.33333z" fill="url(#color-20)" stroke="#000000" stroke-width="0" stroke-linecap="round"/><path d="M327.77558,108.38166c0,0 9.28961,-7.3593 18,-5.33333c5.26407,1.22438 -2.91666,8.11111 -2.91666,8.11111c0,0 6.91553,5.55071 2.55555,8.08333c-10.35772,6.01659 -17.91667,-4.69444 -17.91667,-4.69444z" data-paper-data="{&quot;index&quot;:null}" fill="url(#color-21)" stroke="#000000" stroke-width="0" stroke-linecap="round"/><path d="M330.72225,111.65211c0,2.94552 -2.61167,5.33333 -5.83333,5.33333c-3.22166,0 -5.83334,-2.38781 -5.83334,-5.33333c0,-2.94552 2.61168,-5.33333 5.83334,-5.33333c3.22166,0 5.83333,2.38781 5.83333,5.33333z" fill="#1f1f22" stroke="#000000" stroke-width="0" stroke-linecap="butt"/><path d="M351.07759,275.61161c-6.66784,0.18139 -15.19766,-0.96895 -15.89535,-7.23961c-0.69769,-6.27066 5.89131,-8.80612 14.10182,-8.88019c8.88494,-0.08017 15.45425,1.83372 16.27671,6.60225c0.59114,3.4274 -2.33044,9.18697 -14.48318,9.51756z" data-paper-data="{&quot;index&quot;:null}" fill="url(#color-22)" stroke="#000000" stroke-width="0" stroke-linecap="round"/><path d="M283.61967,267.03355c0.82245,-4.96549 7.39177,-6.95844 16.27671,-6.87496c8.21051,0.07713 14.79951,2.71732 14.10182,9.247c-0.69769,6.52967 -9.22751,7.72752 -15.89535,7.53865c-12.15273,-0.34424 -15.07431,-6.34172 -14.48317,-9.91069z" data-paper-data="{&quot;index&quot;:null}" fill="url(#color-23)" stroke="#000000" stroke-width="0" stroke-linecap="round"/><path d="M303.87504,329.26455c0,0 -5.34183,1.18974 -6.46429,5.07143c-1.04643,3.61875 -0.00431,9.2805 -3.21429,11.35714c-6.25015,4.04343 -17.90322,1.7895 -19.39286,0.21429c-2.81451,-2.97618 -0.86603,-10.00556 0.64286,-13.25c1.50889,-3.24444 7.67857,-4.64286 7.67857,-4.64286c0,0 -4.57404,0.77463 -6.96429,4.89286c-1.8035,3.10731 -2.66009,10.61044 -4.67857,11.92857c-5.75426,3.75773 -16.45763,-0.47552 -16.67857,-1.32143c-1.49297,-5.71611 4.85094,-11.41578 7.03571,-13.39286c2.8973,-2.62187 7.10611,-1.5351 10.78571,-3.28571c5.25323,-2.49928 2.3705,-3.46156 12.375,-6.07143c10.0045,-2.60987 20.72076,-1.87767 26.625,0c5.90424,1.87767 7.4562,5.46168 8.625,11.25c1.1688,5.78832 -0.22472,12.43957 -2.5,14.75c-1.30185,1.32196 -17.2138,1.53798 -19,0.375c-2.67404,-1.74105 -3.03065,-9.9937 -2.07143,-13.05357c1.04109,-3.32102 7.19643,-4.82143 7.19643,-4.82143z" fill="url(#color-24)" stroke="#000000" stroke-width="0" stroke-linecap="round"/><path d="M346.17601,328.39788c0,0 6.15534,1.50042 7.19643,4.82143c0.95922,3.05987 0.60261,11.31252 -2.07143,13.05357c-1.7862,1.16298 -17.69816,0.94696 -19,-0.375c-2.27527,-2.31043 -3.66879,-8.96168 -2.5,-14.75c1.16879,-5.78832 2.72077,-9.37233 8.625,-11.25c5.90423,-1.87767 16.6205,-2.60987 26.625,0c10.0045,2.60987 7.12178,3.57215 12.375,6.07143c3.6796,1.75061 7.88841,0.66384 10.78572,3.28571c2.18477,1.97708 8.52868,7.67675 7.03571,13.39285c-0.22094,0.84591 -10.92431,5.07916 -16.67858,1.32143c-2.01848,-1.31813 -2.87507,-8.82127 -4.67857,-11.92858c-2.39025,-4.11822 -6.96428,-4.89285 -6.96428,-4.89285c0,0 6.16968,1.39842 7.67857,4.64285c1.50889,3.24444 3.45737,10.27382 0.64286,13.25c-1.48964,1.57521 -13.14271,3.82914 -19.39286,-0.21428c-3.20998,-2.07664 -2.16786,-7.73839 -3.21429,-11.35714c-1.12247,-3.88169 -6.46429,-5.07143 -6.46429,-5.07143z" data-paper-data="{&quot;index&quot;:null}" fill="url(#color-25)" stroke="#000000" stroke-width="0" stroke-linecap="round"/><g stroke-width="0"><path d="M296.89161,152.87652c10.47928,-2.4152 14.27973,4.51879 13.89088,7.52723c-0.44177,3.41787 -5.28153,2.26248 -7.21532,2.88656c-1.48802,0.48022 -3.83945,1.72964 -3.83945,1.72964c0,0 -0.20952,1.0613 4.19756,2.5625c4.40708,1.5012 9.07963,-0.20158 11.31773,2.72248c1.22041,1.59447 1.76968,7.21734 -1.3725,8.34957c-2.21863,0.79944 -9.03888,-0.06154 -9.03888,-0.06154c0,0 1.28994,0.3581 2.8322,0.51492c1.63435,0.16618 3.56028,0.17096 4.83616,1.65111c0.50685,0.58799 2.19044,6.48083 -3.03123,7.76909c-3.14023,0.77473 -8.73185,-1.20194 -8.73185,-1.20194c0,0 7.72892,1.81211 9.7921,3.41717c0.79847,0.62117 0.73704,4.20772 -2.71064,5.55503c-3.44766,1.34732 -4.3186,1.29635 -9.31851,-0.85414c-4.99992,-2.15048 -5.89026,-3.66406 -10.79097,-7.33866c-4.90072,-3.67458 -12.04444,-6.78113 -12.71111,-9.01249c-2.13616,-7.14976 0.92747,-14.93424 2.86751,-18.14629c1.50048,-2.48428 5.12898,-0.33658 9.3918,-1.92646c4.26283,-1.58989 3.26057,-4.67475 9.63454,-6.14378z" fill="url(#color-26)" stroke="#000000" stroke-linecap="round"/><g stroke="#000000"><path d="M313.85504,161.24886l-10.11718,37.35295l-11.31863,-2.80869l8.19267,-38.02842z" fill="url(#color-27)" stroke-linecap="round"/><path d="M318.10177,155.48558c-0.7175,5.08589 -5.59941,8.60214 -10.90405,7.85378c-5.30463,-0.74836 -9.02324,-5.47795 -8.30574,-10.56385c0.7175,-5.08589 5.59941,-8.60214 10.90405,-7.85378c5.30463,0.74836 9.02324,5.47795 8.30574,10.56385z" fill="url(#color-28)" stroke-linecap="butt"/></g><path d="M284.17897,102.94272c3.55465,0.50148 6.02582,3.81733 5.51952,7.40616c-0.5063,3.58883 -3.79835,6.09162 -7.353,5.59015c-3.55465,-0.50148 -6.02582,-3.81733 -5.51952,-7.40616c0.5063,-3.58883 3.79835,-6.09162 7.353,-5.59015z" fill="url(#color-29)" stroke="none" stroke-linecap="butt"/><path d="M245.30556,146.13228l2.74738,-11.20927l5.04629,1.28991l-2.70845,11.09049z" fill="url(#color-30)" stroke="#000000" stroke-linecap="butt"/><path d="M252.60698,141.29684c0,0 -6.16985,-7.24156 -5.94741,-10.27838c0.31053,-4.23934 5.43108,-14.66041 12.47633,-20.15051c8.36762,-6.77564 20.13956,-8.93372 20.13956,-8.93372l10.99751,10.65637c0,0 4.48356,9.6631 -10.27611,24.57034c-5.04081,5.0912 -11.60957,10.03796 -15.84799,11.53509c-4.88881,1.7269 -11.54191,-7.3992 -11.54191,-7.3992z" fill="url(#color-31)" stroke="#000000" stroke-linecap="round"/><path d="M280.33446,172.55685c-4.47077,4.73004 -8.51842,5.21534 -11.38939,5.34614c-4.00781,0.18261 -13.85894,-3.46024 -19.04799,-9.4621c-6.40416,-7.09986 -8.44227,-17.91317 -8.44227,-17.91317l10.07652,-11.51951c0,0 9.1363,-5.29132 23.22691,6.90153c4.8123,4.16418 9.48776,9.77937 10.90239,13.59209c1.63171,4.39777 -0.85502,8.32459 -5.32617,13.05503z" fill="url(#color-32)" stroke="#000000" stroke-linecap="round"/><path d="M279.24615,171.53957c-4.08687,4.26744 -7.36431,5.10475 -9.66521,5.52858c-3.21201,0.59166 0.37567,-6.21331 3.89352,-9.99824c3.51784,-3.78493 10.76429,-9.40915 11.46646,-6.52793c0.80992,3.32335 -1.60753,6.72979 -5.69476,10.99758z" fill="url(#color-33)" stroke="#000000" stroke-linecap="round"/><path d="M280.81467,176.35371l-8.76959,-7.50268c0,0 1.1753,-1.45527 1.75204,-2.16598c0.5119,-0.6308 1.67296,-1.75807 1.67296,-1.75807l8.68108,7.41442z" fill="url(#color-34)" stroke="#000000" stroke-linecap="butt"/><path d="M291.81362,113.48316l-11.98631,-13.61086c0,0 3.82898,-2.7462 9.19155,-3.36417c5.80306,-0.66874 9.5533,0.0487 9.5533,0.0487z" fill="url(#color-35)" stroke="#000000" stroke-linecap="round"/><path d="M299.4448,164.98003c0,0 -0.20953,1.06131 4.19756,2.5625c4.40708,1.50119 9.07964,-0.20158 11.31773,2.72248c1.22041,1.59446 1.76969,7.21735 -1.3725,8.34957c-2.21863,0.79944 -9.03888,-0.06153 -9.03888,-0.06153c0,0 1.28994,0.3581 2.8322,0.51492c1.63434,0.16618 3.56027,0.17096 4.83616,1.65111c0.50685,0.58799 2.19044,6.48083 -3.03122,7.76909c-3.14023,0.77473 -8.73185,-1.20194 -8.73185,-1.20194c0,0 7.72891,1.81212 9.7921,3.41717c0.79847,0.62118 0.73704,4.20772 -2.71063,5.55504c-3.44766,1.34732 -4.31861,1.29635 -9.31851,-0.85415c-4.99992,-2.15049 -5.89026,-3.66407 -10.79097,-7.33866c-4.90072,-3.67458 -12.04444,-6.78114 -12.71111,-9.01249c-2.13616,-7.14976 0.92746,-14.93424 2.86751,-18.14629c1.50048,-2.48427 5.12898,-0.33658 9.3918,-1.92646c4.26283,-1.58989 12.47065,5.99965 12.47065,5.99965z" fill="url(#color-36)" stroke="#000000" stroke-linecap="round"/></g><g><path d="M295.52921,85.16586l1.44583,-15.26229l59.17461,17.94371l-7.44464,13.17323z" fill="#5f3916" stroke="#000000" stroke-width="0" stroke-linecap="round"/><path d="M302.76857,86.94327c0,0 -1.24295,-6.31273 -1.31237,-9.52378c-0.07444,-3.44355 0.87975,-10.48882 0.87975,-10.48882l50.05029,15.09615c0,0 -3.43811,7.19165 -5.47918,10.32144c-1.77091,2.71551 -6.07227,7.39152 -6.07227,7.39152z" fill="#150f09" stroke="none" stroke-width="0" stroke-linecap="butt"/><path d="M305.29435,79.88392c2.31075,1.06545 2.37385,2.32376 1.81855,4.10308c-0.5553,1.77932 -2.26982,2.82716 -3.82947,2.34042c-1.55965,-0.48674 -2.37384,-2.32376 -1.81854,-4.10308c0.5553,-1.77932 1.50163,-3.41375 3.82946,-2.34042z" data-paper-data="{&quot;index&quot;:null}" fill="#e5d7d6" stroke="none" stroke-width="0" stroke-linecap="butt"/><path d="M313.8111,87.19066c-0.57587,1.84523 -2.48512,2.89092 -4.26444,2.33562c-1.77932,-0.5553 -2.75493,-2.50131 -2.17906,-4.34654c0.57587,-1.84523 1.75356,-2.98534 4.18321,-2.07528c2.93863,1.1007 2.83616,2.24097 2.26029,4.08619z" fill="#e5d7d6" stroke="none" stroke-width="0" stroke-linecap="butt"/><path d="M322.49768,90.40868c-0.57587,1.84523 -2.71662,2.81867 -4.78151,2.17425c-2.0649,-0.64442 -3.27199,-2.66268 -2.69613,-4.5079c0.57587,-1.84523 1.84366,-2.76535 4.47254,-1.7945c2.79774,1.03322 3.58096,2.28294 3.0051,4.12816z" fill="#e5d7d6" stroke="none" stroke-width="0" stroke-linecap="butt"/><path d="M346.99985,97.54907c-0.5553,1.77932 -2.2698,2.82717 -3.82946,2.34042c-1.55965,-0.48674 -2.37385,-2.32376 -1.81855,-4.10308c0.5553,-1.77932 1.36195,-2.61564 3.80239,-2.25364c2.90008,0.43017 2.40092,2.23697 1.84562,4.0163z" fill="#e5d7d6" stroke="none" stroke-width="0" stroke-linecap="butt"/><path d="M339.92029,96.02514c-0.57587,1.84523 -2.48512,2.89092 -4.26445,2.33562c-1.77932,-0.5553 -2.75492,-2.50131 -2.17905,-4.34653c0.57587,-1.84523 1.38528,-2.97183 4.26445,-2.33562c2.64292,0.58401 2.75492,2.50131 2.17905,4.34653z" fill="#e5d7d6" stroke="none" stroke-width="0" stroke-linecap="butt"/><path d="M371.80298,53.95953l-11.01522,2.84772l-0.97699,-6.93949l11.46314,-1.48577z" data-paper-data="{&quot;index&quot;:null}" fill="#220d0d" stroke="#000000" stroke-width="0.5" stroke-linecap="round"/><path d="M368.19955,58.54703c-0.61439,-1.52244 -1.26598,-9.34719 -1.37633,-11.25439c-0.58939,-10.18641 21.68521,-12.15208 23.17666,1.82065c1.29518,12.13393 -17.28944,20.6116 -21.80033,9.43374z" data-paper-data="{&quot;index&quot;:null}" fill="url(#color-37)" stroke="#000000" stroke-width="0" stroke-linecap="round"/><path d="M329.97439,22.68842l5.43037,-19.95871c0,0 4.42501,-1.42788 13.35766,1.45293c9.42952,3.04107 13.06801,5.97503 13.06801,5.97503l-6.79653,19.44844z" fill="url(#color-38)" stroke="#000000" stroke-width="0" stroke-linecap="round"/><path d="M323.73711,25.7178l1.62266,-5.62663c0,0 5.60046,-1.45086 17.52897,2.30718c12.59204,3.96709 17.65608,7.68312 17.65608,7.68312l-1.96302,6.16799z" fill="url(#color-39)" stroke="#000000" stroke-width="0" stroke-linecap="round"/><path d="M306.33223,29.33685l8.58331,7.74196l-4.75056,5.15201l-7.44025,-8.60739z" fill="#220d0d" stroke="#000000" stroke-width="0.5" stroke-linecap="round"/><path d="M299.29773,73.92973c0,0 -9.21598,-3.00332 -6.07859,-15.09638c1.54833,-6.13173 5.82264,-6.3685 9.15902,-10.55047c3.33637,-4.18197 5.84836,-14.9624 15.47283,-20.20802c6.22913,-4.86587 9.49401,-6.17991 25.00348,-2.41058c9.20581,2.9436 16.18275,6.40891 20.13018,14.71524c3.94743,8.30633 1.93963,14.52007 0.00951,25.14458c-0.43625,2.40142 3.96361,6.40305 2.30282,16.11791c-3.92752,10.69649 -12.38974,9.48983 -12.38974,9.48983z" fill="url(#color-40)" stroke="#000000" stroke-width="0" stroke-linecap="round"/><path d="M352.6265,62.20629c-1.34826,4.32016 -5.90307,6.74198 -10.17344,5.40926c-4.27037,-1.33272 -6.63922,-5.91529 -5.29096,-10.23546c1.34826,-4.32016 5.90307,-6.74197 10.17344,-5.40925c4.27037,1.33272 6.63922,5.91529 5.29096,10.23545z" fill="#000000" stroke="none" stroke-width="0" stroke-linecap="butt"/><path d="M330.13968,55.14484c-1.34826,4.32016 -5.90307,6.74197 -10.17344,5.40925c-4.27037,-1.33272 -6.63922,-5.91529 -5.29096,-10.23545c1.34826,-4.32016 5.90307,-6.74198 10.17344,-5.40926c4.27037,1.33272 6.63922,5.91529 5.29096,10.23546z" fill="#000000" stroke="none" stroke-width="0" stroke-linecap="butt"/><path d="M332.49019,62.75825l-6.5814,20.93265c0,0 -20.09323,-5.67894 -23.29744,-7.95917c-3.79278,-2.69907 -4.96868,-17.4164 9.46776,-18.92444c8.91721,-0.93151 20.41109,5.95096 20.41109,5.95096z" fill="url(#color-41)" stroke="#000000" stroke-width="0" stroke-linecap="round"/><path d="M351.87553,69.22714c10.64812,9.33655 1.46216,20.8201 -3.07039,20.92096c-3.82919,0.08522 -23.01302,-6.49361 -23.01302,-6.49361l6.49749,-20.95884c0,0 13.00871,0.76441 19.58592,6.53149z" data-paper-data="{&quot;index&quot;:null}" fill="url(#color-42)" stroke="#000000" stroke-width="0" stroke-linecap="round"/><path d="M309.58815,65.76591c-0.17276,0.55357 -0.74287,0.86811 -1.27337,0.70255c-0.5305,-0.16556 -0.82051,-0.74853 -0.64775,-1.3021c0.17276,-0.55357 0.74286,-0.86811 1.27337,-0.70255c0.5305,0.16556 0.82051,0.74853 0.64775,1.3021z" fill="#000000" stroke="none" stroke-width="0" stroke-linecap="butt"/><path d="M313.55421,63.12768c-0.17276,0.55357 -0.74287,0.86811 -1.27337,0.70255c-0.5305,-0.16556 -0.82051,-0.74853 -0.64775,-1.3021c0.17276,-0.55357 0.74286,-0.86811 1.27337,-0.70255c0.5305,0.16556 0.82051,0.74853 0.64775,1.3021z" fill="#000000" stroke="none" stroke-width="0" stroke-linecap="butt"/><path d="M309.51514,61.97189c-0.17276,0.55357 -0.74286,0.86811 -1.27337,0.70255c-0.5305,-0.16556 -0.82051,-0.74853 -0.64775,-1.3021c0.17276,-0.55357 0.74286,-0.86811 1.27337,-0.70255c0.5305,0.16556 0.82051,0.74853 0.64775,1.3021z" fill="#000000" stroke="none" stroke-width="0" stroke-linecap="butt"/><path d="M350.59976,78.35551c-0.17276,0.55357 -0.74286,0.86811 -1.27337,0.70255c-0.53051,-0.16556 -0.82051,-0.74853 -0.64775,-1.3021c0.17276,-0.55357 0.74286,-0.86811 1.27337,-0.70255c0.53051,0.16556 0.82051,0.74853 0.64775,1.3021z" fill="#000000" stroke="none" stroke-width="0" stroke-linecap="butt"/><path d="M352.75819,75.46739c-0.17276,0.55357 -0.74286,0.86811 -1.27337,0.70255c-0.53051,-0.16556 -0.82051,-0.74853 -0.64775,-1.3021c0.17276,-0.55357 0.74286,-0.86811 1.27337,-0.70255c0.53051,0.16556 0.82051,0.74853 0.64775,1.3021z" fill="#000000" stroke="none" stroke-width="0" stroke-linecap="butt"/><path d="M348.20593,73.94195c-0.17276,0.55357 -0.74286,0.86811 -1.27337,0.70255c-0.53051,-0.16556 -0.82051,-0.74853 -0.64775,-1.3021c0.17276,-0.55357 0.74286,-0.86811 1.27337,-0.70255c0.53051,0.16556 0.82051,0.74853 0.64775,1.3021z" fill="#000000" stroke="none" stroke-width="0" stroke-linecap="butt"/><path d="M322.79594,58.31227c0,0 0.9858,-2.75187 10.77733,0.37528c9.95284,3.17867 8.47565,5.73804 8.47565,5.73804c0,0 -1.08048,5.00982 -10.59408,1.72207c-9.9429,-3.43611 -8.65891,-7.83539 -8.65891,-7.83539z" fill="url(#color-43)" stroke="#000000" stroke-width="0" stroke-linecap="round"/><path d="M319.37388,36.84609c0.9113,0.09762 13.40427,3.54801 12.53127,6.79992c-0.04671,0.17396 -4.40484,-1.49921 -8.22491,-2.21028c-3.23741,-0.60261 -5.65475,0.42835 -5.94463,-0.45219c-0.3617,-1.09869 0.95328,-4.21084 1.63827,-4.13746z" fill="#060203" stroke="#000000" stroke-width="0.5" stroke-linecap="round"/><path d="M355.07205,52.41742c-0.73925,0.55937 -2.14111,-1.66351 -5.14662,-3.00922c-3.54643,-1.5879 -8.08262,-2.69051 -8.02209,-2.86016c1.13156,-3.17122 13.36945,1.09651 14.17451,1.53454c0.60513,0.32925 -0.08342,3.63689 -1.00582,4.33484z" data-paper-data="{&quot;index&quot;:null}" fill="#060203" stroke="#000000" stroke-width="0.5" stroke-linecap="round"/><path d="M290.83115,17.95473c9.17401,-10.6442 26.37673,3.64173 20.09821,11.68478c-1.17553,1.5059 -6.16195,7.57111 -7.5332,8.47386c-10.06785,6.62806 -20.53173,-10.9152 -12.56501,-20.15864z" fill="url(#color-44)" stroke="#000000" stroke-width="0" stroke-linecap="round"/><path d="M303.00997,34.94588c-7.06617,4.65193 -14.41028,-7.66088 -8.81881,-14.14842c6.43882,-7.47067 18.51262,2.55596 14.10601,8.20101c-0.82505,1.05692 -4.32479,5.31381 -5.28721,5.94741z" fill="url(#color-45)" stroke="#000000" stroke-width="0" stroke-linecap="round"/><path d="M331.72916,93.45462c-0.57587,1.84523 -2.71662,2.81867 -4.78151,2.17425c-2.0649,-0.64442 -3.27199,-2.66268 -2.69613,-4.5079c0.57587,-1.84523 1.33366,-2.96457 4.75444,-2.08746c3.5043,0.89852 3.29907,2.57589 2.7232,4.42112z" fill="#e5d7d6" stroke="none" stroke-width="0" stroke-linecap="butt"/><path d="M371.01972,56.17068c-0.43121,-1.06853 -0.88852,-6.56036 -0.96597,-7.89893c-0.41366,-7.14938 15.21984,-8.52899 16.26663,1.27783c0.90902,8.51625 -12.13466,14.46634 -15.30065,6.62111z" data-paper-data="{&quot;index&quot;:null}" fill="url(#color-46)" stroke="#000000" stroke-width="0" stroke-linecap="round"/><path d="M298.65702,82.7151c5.73822,0.46192 2.90323,2.26253 23.87688,9.11432c19.0505,5.73658 18.22824,3.6075 25.63526,5.66422c5.6496,1.56874 -2.07891,18.27978 -29.86367,9.53628c-27.17037,-8.55016 -27.09387,-24.91416 -19.64847,-24.31481z" fill="url(#color-47)" stroke="#000000" stroke-width="0" stroke-linecap="round"/></g></g></g></svg>