<svg version="1.1" xmlns="http://www.w3.org/2000/svg" xmlns:xlink="http://www.w3.org/1999/xlink" width="89.87971" height="85.37989" viewBox="0,0,89.87971,85.37989"><defs><linearGradient x1="348.1133" y1="264.59678" x2="349.8048" y2="296.6148" gradientUnits="userSpaceOnUse" id="color-1"><stop offset="0" stop-color="#313131"/><stop offset="1" stop-color="#515151"/></linearGradient><linearGradient x1="299.57088" y1="263.529" x2="297.87939" y2="295.54702" gradientUnits="userSpaceOnUse" id="color-2"><stop offset="0" stop-color="#313131"/><stop offset="1" stop-color="#515151"/></linearGradient><radialGradient cx="321.25569" cy="231.34578" r="40.67534" gradientUnits="userSpaceOnUse" id="color-3"><stop offset="0" stop-color="#686468"/><stop offset="1" stop-color="#494949"/></radialGradient><linearGradient x1="321.74433" y1="178.82878" x2="321.74433" y2="227.9553" gradientUnits="userSpaceOnUse" id="color-4"><stop offset="0" stop-color="#000000" stop-opacity="0.23529"/><stop offset="1" stop-color="#000000" stop-opacity="0"/></linearGradient><radialGradient cx="318.87246" cy="193.20306" r="21.18694" gradientUnits="userSpaceOnUse" id="color-5"><stop offset="0" stop-color="#920000"/><stop offset="1" stop-color="#630000"/></radialGradient><radialGradient cx="318.85252" cy="174.44134" r="29.20088" gradientUnits="userSpaceOnUse" id="color-6"><stop offset="0" stop-color="#007724"/><stop offset="1" stop-color="#02531b"/></radialGradient><linearGradient x1="292.12277" y1="165.78272" x2="292.12277" y2="176.10463" gradientUnits="userSpaceOnUse" id="color-7"><stop offset="0" stop-color="#460000"/><stop offset="1" stop-color="#920000"/></linearGradient><linearGradient x1="287.88203" y1="159.19806" x2="287.88203" y2="167.91829" gradientUnits="userSpaceOnUse" id="color-8"><stop offset="0" stop-color="#460000"/><stop offset="1" stop-color="#920000"/></linearGradient><linearGradient x1="296.98194" y1="154.74897" x2="296.98194" y2="167.91829" gradientUnits="userSpaceOnUse" id="color-9"><stop offset="0" stop-color="#460000"/><stop offset="1" stop-color="#920000"/></linearGradient><linearGradient x1="294.50818" y1="165.24883" x2="294.50818" y2="170.76572" gradientUnits="userSpaceOnUse" id="color-10"><stop offset="0" stop-color="#460000"/><stop offset="1" stop-color="#920000"/></linearGradient><linearGradient x1="295.92176" y1="145.31688" x2="295.92176" y2="157.0625" gradientUnits="userSpaceOnUse" id="color-11"><stop offset="0" stop-color="#460000"/><stop offset="1" stop-color="#920000"/></linearGradient><linearGradient x1="299.45571" y1="164.18105" x2="299.45571" y2="167.91829" gradientUnits="userSpaceOnUse" id="color-12"><stop offset="0" stop-color="#460000"/><stop offset="1" stop-color="#920000"/></linearGradient><linearGradient x1="298.83726" y1="167.91829" x2="298.83726" y2="173.07925" gradientUnits="userSpaceOnUse" id="color-13"><stop offset="0" stop-color="#460000"/><stop offset="1" stop-color="#920000"/></linearGradient><linearGradient x1="303.07799" y1="152.6134" x2="303.07799" y2="161.15567" gradientUnits="userSpaceOnUse" id="color-14"><stop offset="0" stop-color="#460000"/><stop offset="1" stop-color="#920000"/></linearGradient><linearGradient x1="303.69644" y1="148.87616" x2="303.69644" y2="153.14729" gradientUnits="userSpaceOnUse" id="color-15"><stop offset="0" stop-color="#460000"/><stop offset="1" stop-color="#920000"/></linearGradient><linearGradient x1="304.66827" y1="146.2067" x2="304.66827" y2="154.74897" gradientUnits="userSpaceOnUse" id="color-16"><stop offset="0" stop-color="#460000"/><stop offset="1" stop-color="#920000"/></linearGradient><linearGradient x1="301.92947" y1="159.19806" x2="301.92947" y2="163.11326" gradientUnits="userSpaceOnUse" id="color-17"><stop offset="0" stop-color="#460000"/><stop offset="1" stop-color="#920000"/></linearGradient><linearGradient x1="296.62854" y1="139.26611" x2="296.62854" y2="145.85077" gradientUnits="userSpaceOnUse" id="color-18"><stop offset="0" stop-color="#460000"/><stop offset="1" stop-color="#920000"/></linearGradient><linearGradient x1="301.27568" y1="140.12034" x2="301.27568" y2="148.1999" gradientUnits="userSpaceOnUse" id="color-19"><stop offset="0" stop-color="#460000"/><stop offset="1" stop-color="#920000"/></linearGradient><linearGradient x1="306.17019" y1="142.46946" x2="306.17019" y2="147.63041" gradientUnits="userSpaceOnUse" id="color-20"><stop offset="0" stop-color="#460000"/><stop offset="1" stop-color="#920000"/></linearGradient><linearGradient x1="274.188" y1="137.3085" x2="274.188" y2="143.00335" gradientUnits="userSpaceOnUse" id="color-21"><stop offset="0" stop-color="#460000"/><stop offset="1" stop-color="#920000"/></linearGradient><linearGradient x1="278.60544" y1="140.86779" x2="278.60544" y2="148.52023" gradientUnits="userSpaceOnUse" id="color-22"><stop offset="0" stop-color="#460000"/><stop offset="1" stop-color="#920000"/></linearGradient><linearGradient x1="277.54525" y1="147.45245" x2="277.54525" y2="149.58801" gradientUnits="userSpaceOnUse" id="color-23"><stop offset="0" stop-color="#460000"/><stop offset="1" stop-color="#920000"/></linearGradient><linearGradient x1="277.19185" y1="149.23208" x2="277.19185" y2="155.28286" gradientUnits="userSpaceOnUse" id="color-24"><stop offset="0" stop-color="#460000"/><stop offset="1" stop-color="#920000"/></linearGradient><linearGradient x1="283.02286" y1="155.63878" x2="283.02286" y2="162.40141" gradientUnits="userSpaceOnUse" id="color-25"><stop offset="0" stop-color="#460000"/><stop offset="1" stop-color="#920000"/></linearGradient><linearGradient x1="290.0024" y1="154.21508" x2="290.0024" y2="161.68956" gradientUnits="userSpaceOnUse" id="color-26"><stop offset="0" stop-color="#460000"/><stop offset="1" stop-color="#920000"/></linearGradient><linearGradient x1="283.11121" y1="147.80838" x2="283.11121" y2="158.13028" gradientUnits="userSpaceOnUse" id="color-27"><stop offset="0" stop-color="#460000"/><stop offset="1" stop-color="#920000"/></linearGradient><linearGradient x1="279.40057" y1="145.67281" x2="279.40057" y2="151.36765" gradientUnits="userSpaceOnUse" id="color-28"><stop offset="0" stop-color="#460000"/><stop offset="1" stop-color="#920000"/></linearGradient><linearGradient x1="283.6413" y1="138.73222" x2="283.6413" y2="146.74059" gradientUnits="userSpaceOnUse" id="color-29"><stop offset="0" stop-color="#460000"/><stop offset="1" stop-color="#920000"/></linearGradient><linearGradient x1="278.16369" y1="139.62203" x2="278.16369" y2="145.49484" gradientUnits="userSpaceOnUse" id="color-30"><stop offset="0" stop-color="#460000"/><stop offset="1" stop-color="#920000"/></linearGradient><linearGradient x1="283.90635" y1="144.42706" x2="283.90635" y2="149.58801" gradientUnits="userSpaceOnUse" id="color-31"><stop offset="0" stop-color="#460000"/><stop offset="1" stop-color="#920000"/></linearGradient><linearGradient x1="288.92455" y1="141.18812" x2="288.92455" y2="150.05072" gradientUnits="userSpaceOnUse" id="color-32"><stop offset="0" stop-color="#460000"/><stop offset="1" stop-color="#920000"/></linearGradient><linearGradient x1="293.53635" y1="143.53724" x2="293.53635" y2="149.23208" gradientUnits="userSpaceOnUse" id="color-33"><stop offset="0" stop-color="#460000"/><stop offset="1" stop-color="#920000"/></linearGradient><linearGradient x1="288.32378" y1="148.34227" x2="288.32378" y2="155.10489" gradientUnits="userSpaceOnUse" id="color-34"><stop offset="0" stop-color="#460000"/><stop offset="1" stop-color="#920000"/></linearGradient><linearGradient x1="304.22808" y1="185.43939" x2="304.22808" y2="190.29915" gradientUnits="userSpaceOnUse" id="color-35"><stop offset="0" stop-color="#5b5b5b"/><stop offset="1" stop-color="#cccccc"/></linearGradient><linearGradient x1="307.69837" y1="185.06566" x2="307.69837" y2="189.92543" gradientUnits="userSpaceOnUse" id="color-36"><stop offset="0" stop-color="#5b5b5b"/><stop offset="1" stop-color="#cccccc"/></linearGradient><linearGradient x1="310.87503" y1="184.21144" x2="310.87503" y2="190.19237" gradientUnits="userSpaceOnUse" id="color-37"><stop offset="0" stop-color="#5b5b5b"/><stop offset="1" stop-color="#cccccc"/></linearGradient><linearGradient x1="314.26524" y1="190.19237" x2="314.26524" y2="184.21144" gradientUnits="userSpaceOnUse" id="color-38"><stop offset="0" stop-color="#cccccc"/><stop offset="1" stop-color="#5b5b5b"/></linearGradient><linearGradient x1="318.45088" y1="183.51738" x2="318.45088" y2="189.81865" gradientUnits="userSpaceOnUse" id="color-39"><stop offset="0" stop-color="#5b5b5b"/><stop offset="1" stop-color="#cccccc"/></linearGradient><linearGradient x1="322.27361" y1="190.13899" x2="322.27361" y2="184.79872" gradientUnits="userSpaceOnUse" id="color-40"><stop offset="0" stop-color="#cccccc"/><stop offset="1" stop-color="#5b5b5b"/></linearGradient><linearGradient x1="324.83629" y1="190.40593" x2="324.83629" y2="184.63855" gradientUnits="userSpaceOnUse" id="color-41"><stop offset="0" stop-color="#cccccc"/><stop offset="1" stop-color="#5b5b5b"/></linearGradient><linearGradient x1="327.66592" y1="190.83305" x2="327.66592" y2="185.49278" gradientUnits="userSpaceOnUse" id="color-42"><stop offset="0" stop-color="#cccccc"/><stop offset="1" stop-color="#5b5b5b"/></linearGradient><linearGradient x1="330.86927" y1="191.20677" x2="330.86927" y2="185.54617" gradientUnits="userSpaceOnUse" id="color-43"><stop offset="0" stop-color="#cccccc"/><stop offset="1" stop-color="#5b5b5b"/></linearGradient><linearGradient x1="334.17939" y1="191.95422" x2="334.17939" y2="185.70633" gradientUnits="userSpaceOnUse" id="color-44"><stop offset="0" stop-color="#cccccc"/><stop offset="1" stop-color="#5b5b5b"/></linearGradient><linearGradient x1="337.16919" y1="192.32794" x2="337.16919" y2="186.08006" gradientUnits="userSpaceOnUse" id="color-45"><stop offset="0" stop-color="#cccccc"/><stop offset="1" stop-color="#5b5b5b"/></linearGradient><linearGradient x1="305.28869" y1="201.29732" x2="305.28869" y2="195.91822" gradientUnits="userSpaceOnUse" id="color-46"><stop offset="0" stop-color="#5b5b5b"/><stop offset="1" stop-color="#cccccc"/></linearGradient><linearGradient x1="307.83681" y1="203.28729" x2="307.83681" y2="198.24793" gradientUnits="userSpaceOnUse" id="color-47"><stop offset="0" stop-color="#5b5b5b"/><stop offset="1" stop-color="#cccccc"/></linearGradient><linearGradient x1="310.74895" y1="204.84043" x2="310.74895" y2="199.46132" gradientUnits="userSpaceOnUse" id="color-48"><stop offset="0" stop-color="#5b5b5b"/><stop offset="1" stop-color="#cccccc"/></linearGradient><linearGradient x1="313.36326" y1="206.38899" x2="313.08334" y2="201.01903" gradientUnits="userSpaceOnUse" id="color-49"><stop offset="0" stop-color="#5b5b5b"/><stop offset="1" stop-color="#cccccc"/></linearGradient><linearGradient x1="316.97004" y1="206.30422" x2="315.18766" y2="201.81997" gradientUnits="userSpaceOnUse" id="color-50"><stop offset="0" stop-color="#5b5b5b"/><stop offset="1" stop-color="#cccccc"/></linearGradient><linearGradient x1="318.94485" y1="205.80731" x2="318.66493" y2="202.32594" gradientUnits="userSpaceOnUse" id="color-51"><stop offset="0" stop-color="#5b5b5b"/><stop offset="1" stop-color="#cccccc"/></linearGradient><linearGradient x1="321.75991" y1="206.82615" x2="321.48" y2="202.32785" gradientUnits="userSpaceOnUse" id="color-52"><stop offset="0" stop-color="#5b5b5b"/><stop offset="1" stop-color="#cccccc"/></linearGradient><linearGradient x1="324.67156" y1="206.29216" x2="324.98922" y2="201.55174" gradientUnits="userSpaceOnUse" id="color-53"><stop offset="0" stop-color="#5b5b5b"/><stop offset="1" stop-color="#cccccc"/></linearGradient><linearGradient x1="327.76466" y1="205.75827" x2="328.06135" y2="201.01784" gradientUnits="userSpaceOnUse" id="color-54"><stop offset="0" stop-color="#5b5b5b"/><stop offset="1" stop-color="#cccccc"/></linearGradient><linearGradient x1="330.62838" y1="204.35037" x2="330.87894" y2="198.64142" gradientUnits="userSpaceOnUse" id="color-55"><stop offset="0" stop-color="#5b5b5b"/><stop offset="1" stop-color="#cccccc"/></linearGradient><linearGradient x1="334.708" y1="197.14903" x2="335.85855" y2="192.98548" gradientUnits="userSpaceOnUse" id="color-56"><stop offset="0" stop-color="#5b5b5b"/><stop offset="1" stop-color="#cccccc"/></linearGradient><linearGradient x1="334.06985" y1="199.30306" x2="334.37493" y2="194.61105" gradientUnits="userSpaceOnUse" id="color-57"><stop offset="0" stop-color="#5b5b5b"/><stop offset="1" stop-color="#cccccc"/></linearGradient><linearGradient x1="333.2493" y1="201.77838" x2="333.49987" y2="197.08637" gradientUnits="userSpaceOnUse" id="color-58"><stop offset="0" stop-color="#5b5b5b"/><stop offset="1" stop-color="#cccccc"/></linearGradient><linearGradient x1="346.15221" y1="170.05385" x2="346.15221" y2="180.37576" gradientUnits="userSpaceOnUse" id="color-59"><stop offset="0" stop-color="#460000"/><stop offset="1" stop-color="#920000"/></linearGradient><linearGradient x1="350.39295" y1="163.4692" x2="350.39295" y2="172.18942" gradientUnits="userSpaceOnUse" id="color-60"><stop offset="0" stop-color="#460000"/><stop offset="1" stop-color="#920000"/></linearGradient><linearGradient x1="341.29304" y1="159.0201" x2="341.29304" y2="172.18942" gradientUnits="userSpaceOnUse" id="color-61"><stop offset="0" stop-color="#460000"/><stop offset="1" stop-color="#920000"/></linearGradient><linearGradient x1="343.7668" y1="169.51996" x2="343.7668" y2="175.03685" gradientUnits="userSpaceOnUse" id="color-62"><stop offset="0" stop-color="#460000"/><stop offset="1" stop-color="#920000"/></linearGradient><linearGradient x1="342.35323" y1="149.58801" x2="342.35323" y2="161.33363" gradientUnits="userSpaceOnUse" id="color-63"><stop offset="0" stop-color="#460000"/><stop offset="1" stop-color="#920000"/></linearGradient><linearGradient x1="338.81928" y1="168.45218" x2="338.81928" y2="172.18942" gradientUnits="userSpaceOnUse" id="color-64"><stop offset="0" stop-color="#460000"/><stop offset="1" stop-color="#920000"/></linearGradient><linearGradient x1="339.43772" y1="172.18942" x2="339.43772" y2="177.35038" gradientUnits="userSpaceOnUse" id="color-65"><stop offset="0" stop-color="#460000"/><stop offset="1" stop-color="#920000"/></linearGradient><linearGradient x1="335.19699" y1="156.88453" x2="335.19699" y2="165.4268" gradientUnits="userSpaceOnUse" id="color-66"><stop offset="0" stop-color="#460000"/><stop offset="1" stop-color="#920000"/></linearGradient><linearGradient x1="334.57855" y1="153.14729" x2="334.57855" y2="157.41842" gradientUnits="userSpaceOnUse" id="color-67"><stop offset="0" stop-color="#460000"/><stop offset="1" stop-color="#920000"/></linearGradient><linearGradient x1="333.60671" y1="150.47783" x2="333.60671" y2="159.0201" gradientUnits="userSpaceOnUse" id="color-68"><stop offset="0" stop-color="#460000"/><stop offset="1" stop-color="#920000"/></linearGradient><linearGradient x1="336.34552" y1="163.4692" x2="336.34552" y2="167.3844" gradientUnits="userSpaceOnUse" id="color-69"><stop offset="0" stop-color="#460000"/><stop offset="1" stop-color="#920000"/></linearGradient><linearGradient x1="341.64644" y1="143.53724" x2="341.64644" y2="150.12191" gradientUnits="userSpaceOnUse" id="color-70"><stop offset="0" stop-color="#460000"/><stop offset="1" stop-color="#920000"/></linearGradient><linearGradient x1="336.9993" y1="144.39147" x2="336.9993" y2="152.47103" gradientUnits="userSpaceOnUse" id="color-71"><stop offset="0" stop-color="#460000"/><stop offset="1" stop-color="#920000"/></linearGradient><linearGradient x1="332.10479" y1="146.74059" x2="332.10479" y2="151.90154" gradientUnits="userSpaceOnUse" id="color-72"><stop offset="0" stop-color="#460000"/><stop offset="1" stop-color="#920000"/></linearGradient><linearGradient x1="363.82194" y1="148.87616" x2="363.82194" y2="155.10489" gradientUnits="userSpaceOnUse" id="color-73"><stop offset="0" stop-color="#460000"/><stop offset="1" stop-color="#920000"/></linearGradient><linearGradient x1="364.08698" y1="141.57964" x2="364.08698" y2="147.27449" gradientUnits="userSpaceOnUse" id="color-74"><stop offset="0" stop-color="#460000"/><stop offset="1" stop-color="#920000"/></linearGradient><linearGradient x1="359.66955" y1="145.13892" x2="359.66955" y2="152.79136" gradientUnits="userSpaceOnUse" id="color-75"><stop offset="0" stop-color="#460000"/><stop offset="1" stop-color="#920000"/></linearGradient><linearGradient x1="360.72973" y1="151.72358" x2="360.72973" y2="153.85915" gradientUnits="userSpaceOnUse" id="color-76"><stop offset="0" stop-color="#460000"/><stop offset="1" stop-color="#920000"/></linearGradient><linearGradient x1="364.17533" y1="147.45245" x2="364.17533" y2="150.83376" gradientUnits="userSpaceOnUse" id="color-77"><stop offset="0" stop-color="#460000"/><stop offset="1" stop-color="#920000"/></linearGradient><linearGradient x1="361.08313" y1="153.50322" x2="361.08313" y2="159.55399" gradientUnits="userSpaceOnUse" id="color-78"><stop offset="0" stop-color="#460000"/><stop offset="1" stop-color="#920000"/></linearGradient><linearGradient x1="355.25212" y1="159.90992" x2="355.25212" y2="166.67254" gradientUnits="userSpaceOnUse" id="color-79"><stop offset="0" stop-color="#460000"/><stop offset="1" stop-color="#920000"/></linearGradient><linearGradient x1="348.27258" y1="158.48621" x2="348.27258" y2="165.96069" gradientUnits="userSpaceOnUse" id="color-80"><stop offset="0" stop-color="#460000"/><stop offset="1" stop-color="#920000"/></linearGradient><linearGradient x1="355.16378" y1="152.07951" x2="355.16378" y2="162.40141" gradientUnits="userSpaceOnUse" id="color-81"><stop offset="0" stop-color="#460000"/><stop offset="1" stop-color="#920000"/></linearGradient><linearGradient x1="358.87441" y1="149.94394" x2="358.87441" y2="155.63878" gradientUnits="userSpaceOnUse" id="color-82"><stop offset="0" stop-color="#460000"/><stop offset="1" stop-color="#920000"/></linearGradient><linearGradient x1="354.63369" y1="143.00335" x2="354.63369" y2="151.01173" gradientUnits="userSpaceOnUse" id="color-83"><stop offset="0" stop-color="#460000"/><stop offset="1" stop-color="#920000"/></linearGradient><linearGradient x1="360.1113" y1="143.89317" x2="360.1113" y2="149.76598" gradientUnits="userSpaceOnUse" id="color-84"><stop offset="0" stop-color="#460000"/><stop offset="1" stop-color="#920000"/></linearGradient><linearGradient x1="354.36864" y1="148.69819" x2="354.36864" y2="153.85915" gradientUnits="userSpaceOnUse" id="color-85"><stop offset="0" stop-color="#460000"/><stop offset="1" stop-color="#920000"/></linearGradient><linearGradient x1="349.35044" y1="145.45925" x2="349.35044" y2="154.32186" gradientUnits="userSpaceOnUse" id="color-86"><stop offset="0" stop-color="#460000"/><stop offset="1" stop-color="#920000"/></linearGradient><linearGradient x1="344.73864" y1="147.80838" x2="344.73864" y2="153.50322" gradientUnits="userSpaceOnUse" id="color-87"><stop offset="0" stop-color="#460000"/><stop offset="1" stop-color="#920000"/></linearGradient><linearGradient x1="349.95121" y1="152.6134" x2="349.95121" y2="159.37603" gradientUnits="userSpaceOnUse" id="color-88"><stop offset="0" stop-color="#460000"/><stop offset="1" stop-color="#920000"/></linearGradient><radialGradient cx="288.32291" cy="207.23347" r="18.15232" gradientUnits="userSpaceOnUse" id="color-89"><stop offset="0" stop-color="#007c25"/><stop offset="1" stop-color="#02531b"/></radialGradient><radialGradient cx="351.72507" cy="210.10606" r="18.15232" gradientUnits="userSpaceOnUse" id="color-90"><stop offset="0" stop-color="#007c25"/><stop offset="1" stop-color="#02531b"/></radialGradient></defs><g transform="translate(-275.07148,-137.31011)"><g data-paper-data="{&quot;isPaintingLayer&quot;:true}" fill-rule="nonzero" stroke-linecap="butt" stroke-linejoin="miter" stroke-miterlimit="10" stroke-dasharray="" stroke-dashoffset="0" style="mix-blend-mode: normal"><path d="M275.9303,221.94001v-83.87989h88.13942v83.87989z" fill="#000000" stroke="#ffffff" stroke-width="0"/><g stroke="none"><path d="" data-paper-data="{&quot;index&quot;:null}" fill="url(#color-1)" stroke-width="0"/><path d="" data-paper-data="{&quot;index&quot;:null}" fill="url(#color-2)" stroke-width="0"/><path d="M294.27225,222.02596c0,0 0.45591,-3.86657 0.6582,-5.70307c0.17676,-1.60472 -0.34681,-3.15004 -0.07795,-4.60939c1.73558,-9.42076 8.63229,-12.51511 8.63229,-12.51511c0,0 -2.81568,-10.84668 17.02965,-10.89651c19.59504,-0.0492 16.76693,10.35778 16.76693,10.35778c0,0 7.69418,3.9984 8.77333,11.14147c0.17138,1.13443 -0.17019,2.59716 -0.03269,3.83956c0.33523,3.02885 1.16911,8.54775 1.16911,8.54775z" fill="url(#color-3)" stroke-width="0"/><path d="M339.18314,203.50497c0,13.56591 -7.42295,17.22251 -19.02416,17.22251c-11.6012,0 -19.42049,-3.76954 -19.42049,-17.33545c0,-2.55159 -0.24205,-5.48571 1.37587,-8.50212c0.59963,-1.11793 1.28112,-1.83328 2.19576,-2.45107c0.78139,-0.52779 1.80433,-0.95388 2.30521,-1.83514c3.76297,-6.62067 7.82118,-11.77493 15.129,-11.77493c7.03162,0 8.50346,5.39531 11.20294,11.5987c1.07315,2.4661 3.80335,2.11607 4.92606,4.77331c0.35114,0.83109 0.86096,4.09598 0.93345,5.08447c0.07463,1.01751 0.37636,2.16735 0.37636,3.21971z" fill="url(#color-4)" stroke-width="0"/><g><path d="M339.92183,188.66498c0,1.62389 0.55844,3.87023 0.25123,5.37462c-0.728,3.56497 -3.00447,10.58178 -6.37153,12.91398c-0.90373,0.62597 -2.27775,0.28746 -3.70231,0.81052c-1.43084,0.52536 -2.91267,1.91165 -4.02006,2.24709c-1.9257,0.5833 -4.04476,0.73521 -6.262,0.55093c-1.4687,-0.12206 -3.05768,-0.54146 -4.38414,-0.54146c-3.69531,0 -3.72588,-0.23551 -7.51046,-1.73953c-1.17933,-0.46868 -2.02361,-2.89518 -2.51289,-3.24051c-2.11536,-1.49303 -1.6299,0.89317 -3.09244,-1.58174c-0.50133,-0.84835 -0.79742,-2.62135 -1.26081,-3.93869c-0.21776,-0.61907 -1.23717,-0.66257 -1.38885,-1.11043c-0.75216,-2.22091 -1.15659,-5.59814 -1.15659,-7.87613c0,-10.54126 8.66025,-16.41717 20.36148,-16.41717c11.70123,0 21.04937,4.00729 21.04937,14.54854z" fill="url(#color-5)" stroke-width="0"/><path d="M346.49636,174.69265c0,6.36836 -1.1559,11.66808 -2.93089,15.39274c-0.95857,2.01149 -1.22334,4.46941 -3.24862,4.01502c-0.28742,-0.06449 -0.29991,-5.58483 -0.55131,-6.15772c-0.37288,-0.84974 -0.93952,2.04153 -2.86511,1.21566c-1.06032,-0.45476 -0.52707,-2.39409 -1.71319,-3.54684c-1.20075,-1.16698 -0.88422,0.41652 -3.3564,-1.43147c-0.35143,-0.2627 0.17191,-2.93905 -0.10527,-2.97419c-0.44034,-0.05583 -0.47886,-1.863 -1.88901,-1.24153c-0.97499,0.42969 -0.96722,2.17593 -1.89071,2.95234c-0.80613,0.67775 -1.025,0.15423 -1.89016,0.46653c-0.97156,0.35072 -2.56133,1.49302 -2.87301,1.45416c-0.91102,-0.11359 -0.0651,0.78059 -2.06667,-2.02453c-1.63858,-2.16314 -1.0964,-1.79019 -1.84825,-1.79019c-0.62099,0 -1.11674,0.44355 -2.55824,1.02383c-1.1031,0.44406 -2.70773,0.44727 -2.99566,0.84934c-0.67254,0.93915 -1.70235,2.33337 -2.74407,2.62405c-1.15335,0.32182 -0.8406,-0.66401 -3.07336,-0.63853c-1.67415,0.01911 -2.29686,2.67279 -3.40993,3.20713c-0.86842,0.4169 -1.30622,-2.41196 -2.30714,-2.32016c-1.68428,0.15447 0.20855,3.44442 -0.35596,3.79959c-0.53272,0.33517 -1.33584,0.8323 -1.99828,1.6252c-0.29552,0.35372 0.31196,1.54731 0.06099,1.93554c-0.3716,0.57482 -1.57644,0.28293 -1.86275,0.18632c-2.63736,-0.88998 -5.18113,-13.71574 -5.18113,-20.00451c0,-16.1272 12.48908,-27.69301 27.89515,-27.69301c15.40606,0 25.75902,12.94803 25.75902,29.07522z" fill="url(#color-6)" stroke-width="0"/><path d="M341.85729,156.84374c-0.95438,0.29085 -2.15848,-0.0025 -2.15848,-0.0025l-0.73521,-0.18316c-2.68207,-0.5383 -5.68366,-0.41172 -8.69433,-0.41714c-3.61814,0.12076 -5.53238,0.99824 -9.21488,1.0959c-6.97885,0.18508 -12.94437,-3.06913 -18.39162,-1.24607c0,0 -0.92613,0.2976 -2.15211,0.01109c-1.22597,-0.28652 -0.29984,-0.58411 -0.29984,-0.58411c0.95988,-0.29941 2.1547,-0.56054 3.54147,-0.71006c6.84492,-0.73803 10.37365,1.9606 16.67622,1.70599c3.50948,-0.14178 5.58943,-0.95446 9.28037,-1.09724c3.89738,0.00232 7.32174,-0.07709 10.85003,0.59167l1.04865,0.25144c0,0 1.2041,0.29335 0.24972,0.58422z" fill="#000000" stroke-width="0.5"/><path d="M330.13159,154.31018c-0.44103,0.17432 -0.99747,-0.0015 -0.99747,-0.0015l-0.33974,-0.10977c-1.23941,-0.32262 -2.62649,-0.24676 -4.01776,-0.25001c-1.67199,0.07237 -2.55657,0.59829 -4.25831,0.65681c-3.22501,0.11093 -5.98175,-1.83946 -8.49899,-0.74683c0,0 -0.42798,0.17838 -0.99451,0.00665c-0.56654,-0.17172 -0.13856,-0.35009 -0.13856,-0.35009c0.44358,-0.17945 0.99572,-0.33596 1.63656,-0.42558c3.16312,-0.44234 4.79379,1.17508 7.70628,1.02247c1.62177,-0.08497 2.58294,-0.57204 4.28857,-0.65762c1.80102,0.00138 3.38346,-0.04621 5.01393,0.3546l0.4846,0.15069c0,0 0.55644,0.17583 0.11541,0.35014z" fill="#000000" stroke-width="0.5"/><path d="M343.13673,171.30014c0.79187,0.13766 0.39594,0.41296 0.39594,0.41296l-0.50312,0.31452c-4.74453,1.59766 -11.75759,2.31601 -18.50157,2.31807c-9.86052,-0.00009 -18.46289,-0.30029 -27.37786,-1.85001c0,0 -0.79187,-0.13766 -0.39593,-0.41297c0.39594,-0.27531 1.18782,-0.13766 1.18782,-0.13766c8.66956,1.50707 16.99624,1.78494 26.586,1.78502c6.08394,0.00198 13.07025,-0.61545 17.24948,-2.13777l0.17143,-0.15452c0,0 0.39594,-0.27532 1.18782,-0.13765z" fill="#000000" stroke-width="0.5"/><g stroke-width="0"><path d="M298.39552,170.94368c0,2.85031 -2.80841,5.16095 -6.27275,5.16095c-3.46434,0 -6.27275,-2.31063 -6.27275,-5.16095c0,-2.85031 2.80841,-5.16096 6.27275,-5.16096c3.46434,0 6.27275,2.31064 6.27275,5.16096z" fill="url(#color-7)"/><path d="M295.03827,163.55818c0,2.40802 -3.20395,4.36012 -7.15624,4.36012c-3.95229,0 -7.15623,-1.95209 -7.15623,-4.36012c0,-2.40802 3.20395,-4.36011 7.15623,-4.36011c3.95229,0 7.15624,1.95209 7.15624,4.36011z" fill="url(#color-8)"/><path d="M301.75277,161.33363c0,3.63661 -2.13597,6.58467 -4.77083,6.58467c-2.63485,0 -4.77082,-2.94806 -4.77082,-6.58467c0,-3.63661 2.13597,-6.58467 4.77082,-6.58467c2.63485,0 4.77083,2.94806 4.77083,6.58467z" fill="url(#color-9)"/><path d="M298.57222,168.00727c0,1.52344 -1.81953,2.75844 -4.06404,2.75844c-2.24451,0 -4.06404,-1.23501 -4.06404,-2.75844c0,-1.52344 1.81953,-2.75844 4.06404,-2.75844c2.24451,0 4.06404,1.235 4.06404,2.75844z" fill="url(#color-10)"/><path d="M302.45956,151.18969c0,3.24346 -2.92708,5.87281 -6.5378,5.87281c-3.61073,0 -6.5378,-2.62934 -6.5378,-5.8728c0,-3.24346 2.92707,-5.87282 6.5378,-5.87282c3.61073,0 6.5378,2.62935 6.5378,5.87282z" fill="url(#color-11)"/><path d="M301.57607,166.04967c0,1.03202 -0.94932,1.86862 -2.12036,1.86862c-1.17104,0 -2.12037,-0.83661 -2.12037,-1.86862c0,-1.03202 0.94933,-1.86862 2.12037,-1.86862c1.17104,0 2.12036,0.83661 2.12036,1.86862z" fill="url(#color-12)"/><path d="M301.75277,170.49877c0,1.42516 -1.30532,2.58047 -2.9155,2.58047c-1.61019,0 -2.9155,-1.15532 -2.9155,-2.58047c0,-1.42516 1.30532,-2.58048 2.9155,-2.58048c1.61019,0 2.9155,1.15532 2.9155,2.58048z" fill="url(#color-13)"/><path d="M307.58378,156.88453c0,2.35888 -2.01731,4.27113 -4.50578,4.27113c-2.48847,0 -4.50577,-1.91225 -4.50577,-4.27113c0,-2.35888 2.0173,-4.27113 4.50577,-4.27113c2.48847,0 4.50578,1.91225 4.50578,4.27113z" fill="url(#color-14)"/><path d="M305.9935,151.01173c0,1.17944 -1.02842,2.13556 -2.29706,2.13556c-1.26864,0 -2.29707,-0.95612 -2.29707,-2.13556c0,-1.17944 1.02844,-2.13557 2.29707,-2.13557c1.26864,0 2.29706,0.95613 2.29706,2.13557z" fill="url(#color-15)"/><path d="M309.17404,150.47783c0,2.35888 -2.0173,4.27113 -4.50577,4.27113c-2.48847,0 -4.50578,-1.91225 -4.50578,-4.27113c0,-2.35888 2.01731,-4.27113 4.50578,-4.27113c2.48847,0 4.50577,1.91225 4.50577,4.27113z" fill="url(#color-16)"/><path d="M304.22653,161.15567c0,1.08116 -1.02843,1.95759 -2.29707,1.95759c-1.26864,0 -2.29706,-0.87644 -2.29706,-1.95759c0,-1.08116 1.02843,-1.9576 2.29706,-1.9576c1.26864,0 2.29707,0.87645 2.29707,1.9576z" fill="url(#color-17)"/><path d="M299.8091,142.55844c0,1.81831 -1.42398,3.29234 -3.18055,3.29234c-1.75657,0 -3.18055,-1.47403 -3.18055,-3.29234c0,-1.81831 1.42399,-3.29233 3.18055,-3.29233c1.75657,0 3.18055,1.47402 3.18055,3.29233z" fill="url(#color-18)"/><path d="M305.60476,144.16011c0,2.23111 -1.93819,4.03978 -4.32908,4.03978c-2.39089,0 -4.32908,-1.80867 -4.32908,-4.03978c0,-2.23111 1.93819,-4.03977 4.32908,-4.03977c2.39089,0 4.32908,1.80867 4.32908,4.03977z" fill="url(#color-19)"/><path d="M309.52744,145.04993c0,1.42516 -1.50309,2.58048 -3.35725,2.58048c-1.85416,0 -3.35724,-1.15532 -3.35724,-2.58048c0,-1.42516 1.50308,-2.58048 3.35724,-2.58048c1.85416,0 3.35725,1.15532 3.35725,2.58048z" fill="url(#color-20)"/><path d="M277.36855,140.15593c0,1.57259 0.10593,2.88161 -1.65063,2.88161c-0.88225,0 0.20853,-1.50398 0.21252,-2.82248c0.00395,-1.30665 -0.93299,-2.19715 -0.05867,-2.19715c1.75657,0 1.49679,0.56544 1.49679,2.13802z" fill="url(#color-21)"/><path d="M282.84617,144.69401c0,2.11317 -1.89864,3.82622 -4.24073,3.82622c-2.34209,0 -3.00997,-2.02075 -3.00997,-4.13392c0,-2.11317 0.66788,-3.51853 3.00997,-3.51853c2.34209,0 4.24073,1.71305 4.24073,3.82622z" fill="url(#color-22)"/><path d="M278.95883,148.52023c0,0.58972 -0.63288,1.06778 -1.41358,1.06778c-0.7807,0 -1.41358,-0.47806 -1.41358,-1.06778c0,-0.58972 0.63288,-1.06778 1.41358,-1.06778c0.7807,0 1.41358,0.47806 1.41358,1.06778z" fill="url(#color-23)"/><path d="M280.7258,152.25747c0,1.67087 -1.58221,3.02539 -3.53395,3.02539c-1.95175,0 -1.53394,-1.35452 -1.53394,-3.02539c0,-1.67087 -0.4178,-3.02538 1.53394,-3.02538c1.95175,0 3.53395,1.35451 3.53395,3.02539z" fill="url(#color-24)"/><path d="M287.2636,159.0201c0,1.86745 -1.89865,3.38132 -4.24074,3.38132c-2.34209,0 -4.24073,-1.51387 -4.24073,-3.38132c0,-1.86745 1.89864,-3.38132 4.24073,-3.38132c2.34209,0 4.24074,1.51387 4.24074,3.38132z" fill="url(#color-25)"/><path d="M294.33148,157.95232c0,2.06402 -1.93819,3.73724 -4.32908,3.73724c-2.39089,0 -4.32908,-1.67322 -4.32908,-3.73724c0,-2.06402 1.9382,-3.73724 4.32908,-3.73724c2.39089,0 4.32908,1.67322 4.32908,3.73724z" fill="url(#color-26)"/><path d="M288.50047,152.96933c0,2.85032 -2.41285,5.16096 -5.38926,5.16096c-2.97641,0 -5.38927,-2.31064 -5.38927,-5.16096c0,-2.85032 2.41286,-5.16095 5.38927,-5.16095c2.97641,0 5.38926,2.31064 5.38926,5.16095z" fill="url(#color-27)"/><path d="M283.02286,148.52023c0,1.57259 -1.62175,2.84742 -3.62229,2.84742c-2.00054,0 -3.6223,-1.27483 -3.6223,-2.84742c0,-1.57259 1.62176,-2.84742 3.6223,-2.84742c2.00054,0 3.62229,1.27484 3.62229,2.84742z" fill="url(#color-28)"/><path d="M287.97038,142.7364c0,2.21145 -1.93819,4.00419 -4.32908,4.00419c-2.39089,0 -4.32909,-1.79274 -4.32909,-4.00419c0,-2.21145 1.9382,-4.00418 4.32909,-4.00418c2.39089,0 4.32908,1.79273 4.32908,4.00418z" fill="url(#color-29)"/><path d="M281.25588,142.55844c0,1.62173 -1.38442,2.93641 -3.0922,2.93641c-1.70778,0 -3.0922,-1.31467 -3.0922,-2.93641c0,-1.62173 1.38443,-2.93641 3.0922,-2.93641c1.70778,0 3.0922,1.31467 3.0922,2.93641z" fill="url(#color-30)"/><path d="M286.91021,147.00754c0,1.42516 -1.34488,2.58048 -3.00386,2.58048c-1.65898,0 -3.00385,-1.15532 -3.00385,-2.58048c0,-1.42516 1.34487,-2.58048 3.00385,-2.58048c1.65898,0 3.00386,1.15532 3.00386,2.58048z" fill="url(#color-31)"/><path d="M293.23596,145.61942c0,2.44734 -1.93029,4.4313 -4.31142,4.4313c-2.38113,0 -4.31141,-1.98396 -4.31141,-4.4313c0,-2.44734 1.93028,-4.4313 4.31141,-4.4313c2.38113,0 4.31142,1.98396 4.31142,4.4313z" fill="url(#color-32)"/><path d="M296.27515,146.38466c0,1.57259 -1.2262,2.84742 -2.7388,2.84742c-1.5126,0 -2.73882,-1.27483 -2.73882,-2.84742c0,-1.57259 1.22622,-2.84742 2.73882,-2.84742c1.5126,0 2.7388,1.27484 2.7388,2.84742z" fill="url(#color-33)"/><path d="M292.21112,151.72358c0,1.86745 -1.74043,3.38132 -3.88734,3.38132c-2.14691,0 -3.88734,-1.51387 -3.88734,-3.38132c0,-1.86745 1.74043,-3.38131 3.88734,-3.38131c2.14691,0 3.88734,1.51386 3.88734,3.38131z" fill="url(#color-34)"/></g><path d="M335.28091,196.57047c-3.49887,4.61365 -7.53044,8.00838 -16.39998,8.00838c-6.755,0 -12.85438,-4.21594 -15.35529,-9.27257c-0.08496,-0.17178 -0.27846,-0.32776 -0.46197,-0.6746c-0.1658,-0.31338 -0.32345,-0.81933 -0.38556,-0.97463c-0.08441,-0.21106 0.11062,-0.73443 0.04092,-1.07093c-0.09082,-0.43843 -0.44112,-0.69929 -0.50594,-0.96453c-0.06072,-0.24842 0.23634,-0.66509 0.23506,-1.15784c-0.00144,-0.55069 -0.29079,-1.17979 -0.15353,-1.43882c0.10733,-0.20254 0.66269,0.6663 0.66269,0.47148c0,-2.43472 -0.24397,-1.64535 1.32515,-1.54184c2.1365,0.14094 6.7627,-0.7272 11.87649,-0.7272c7.48536,0 17.95896,-1.82132 20.34477,1.8995c0.18368,0.28645 0.43499,1.40235 0.16256,2.75005c-0.04652,0.23014 -0.7029,0.53184 -0.7411,0.76797c-0.27535,1.70236 -0.29545,3.46566 -0.64426,3.92559z" fill="#3b0000" stroke-width="0"/><path d="M321.66273,203.40418c-0.05189,0.01018 -0.05625,-0.11099 -0.05625,-0.11099l-0.00674,-0.19879c-0.04696,-0.31144 -0.09708,-0.60932 -0.1189,-0.93626c-0.10786,-1.63716 -0.20842,-3.27649 -0.30806,-4.91646c-0.10172,-1.67415 -0.28311,-3.33304 -0.44438,-4.98056c-0.13718,-1.40142 -0.29041,-2.79379 -0.43973,-4.18841c0,0 -0.01263,-0.11796 0.03789,-0.14746c0.05052,-0.02949 0.06315,0.08848 0.06315,0.08848c0.14949,1.39622 0.30288,2.79017 0.44022,4.1932c0.16192,1.65417 0.34383,3.31968 0.44597,5.00059c0.09958,1.63903 0.20007,3.27743 0.30787,4.91364c0.02085,0.32119 0.07273,0.61596 0.11784,0.92277l0.00865,0.2289c0,0 0.00436,0.12117 -0.04753,0.13135z" data-paper-data="{&quot;index&quot;:null}" fill-opacity="0.26667" fill="#88e7ff" stroke-width="0.5"/><path d="M306.2969,187.8419c0,1.32687 -0.07188,2.50273 -2.28239,2.45591c-1.30242,-0.02758 -1.85527,-1.12903 -1.85527,-2.45591c0,-1.32687 0.92624,-2.40252 2.06883,-2.40252c1.14258,0 2.06883,1.07565 2.06883,2.40252z" fill="url(#color-35)" stroke-width="0"/><path d="M309.50026,187.46818c0,1.32687 -0.0626,2.50273 -1.98789,2.45591c-1.13437,-0.02758 -1.61588,-1.12903 -1.61588,-2.45591c0,-1.32687 0.80673,-2.40251 1.80189,-2.40251c0.99516,0 1.80188,1.07564 1.80188,2.40251z" fill="url(#color-36)" stroke-width="0"/><path d="M320.806,203.77856l-0.00965,-0.22886c0.02047,-0.30943 0.04867,-0.6074 0.04382,-0.92923c-0.02312,-1.6396 -0.05372,-3.28079 -0.08527,-4.92254c-0.03235,-1.6837 0.01606,-3.35842 0.04545,-5.02023c0.02492,-1.40951 0.06659,-2.81126 0.10416,-4.21496c0,0 0.00317,-0.11859 0.05588,-0.09323c0.05271,0.02536 0.04954,0.14396 0.04954,0.14396c-0.03753,1.4021 -0.07916,2.80224 -0.10406,4.21014c-0.02927,1.65514 -0.07768,3.32321 -0.04546,5.00013c0.03157,1.6427 0.06217,3.28483 0.08531,4.92537c0.00434,0.32764 -0.02184,0.62857 -0.0438,0.94277l0.00915,0.19869c0,0 0.00532,0.12112 -0.04721,0.11512c-0.05253,-0.006 -0.05786,-0.12713 -0.05786,-0.12713z" data-paper-data="{&quot;index&quot;:null}" fill-opacity="0.26667" fill="#88e7ff" stroke-width="0.5"/><path d="M305.24811,199.04251c0,0 0,0.08693 -0.04158,0.08693c-0.04158,0 -0.04157,-0.08693 -0.04157,-0.08693l0.00115,-0.11881c-0.09968,-0.394 -0.26826,-0.70627 -0.36169,-1.09024c-0.30823,-0.93478 -0.46832,-2.10186 -0.60267,-3.22015c-0.02184,-0.16599 -0.04419,-0.33035 -0.06647,-0.49374c0.02431,0.60924 0.04839,1.21887 0.04737,1.83108c-0.00153,0.91537 0.09085,2.30656 -0.2439,3.01423c0,0 -0.0294,0.06148 -0.0588,0c-0.0294,-0.06148 0,-0.12295 0,-0.12295c0.3154,-0.65118 0.21812,-2.04456 0.21954,-2.89189c0.00151,-0.90288 -0.05139,-1.80004 -0.07936,-2.69868c-0.08637,-0.69355 -0.15236,-1.38959 -0.15236,-2.1377c0,-0.85131 -0.08858,-1.95457 0.0217,-2.7773c0.0866,-0.64604 0.22738,0.05538 0.22776,0.35278c-0.00002,1.21848 -0.03324,2.43055 -0.0307,3.64876c0.00056,0.29563 0.00677,0.59087 0.01576,0.88593c0.0557,0.44496 0.11983,0.88889 0.17989,1.34531c0.1311,1.10153 0.28823,2.25605 0.59376,3.17561c0.09458,0.39995 0.27232,0.7222 0.37103,1.13834l0.00115,0.1594zM304.0033,192.2982c-0.00174,-1.20486 0.03075,-2.40383 0.03076,-3.60907c0.00005,-0.03714 -0.01119,-0.52505 -0.05115,-0.42516c-0.05455,0.13638 -0.03152,0.61487 -0.03165,0.78531c-0.00054,0.68813 -0.00034,1.37626 -0.00034,2.06439c0,0.40781 0.02003,0.79989 0.05239,1.18453z" data-paper-data="{&quot;index&quot;:null}" fill-opacity="0.26667" fill="#88e7ff" stroke-width="0.5"/><path d="M312.91716,187.16822c0,1.63299 -0.07094,3.08013 -2.25294,3.0225c-1.28562,-0.03395 -1.83133,-1.38951 -1.83133,-3.0225c0,-1.63299 0.91429,-2.95678 2.04213,-2.95678c1.12784,0 2.04214,1.32379 2.04214,2.95678z" fill="url(#color-37)" stroke-width="0"/><path d="M314.26524,190.19237c-1.02464,0 -1.85528,-1.32379 -1.85528,-2.95678c0,-1.63299 0.49579,-2.98854 1.66377,-3.02249c1.98233,-0.05764 2.04679,1.38951 2.04679,3.02249c0,1.63299 -0.83064,2.95678 -1.85528,2.95678z" data-paper-data="{&quot;index&quot;:null}" fill="url(#color-38)" stroke-width="0"/><path d="M320.86132,186.63252c0,1.72045 -0.08374,3.24509 -2.65927,3.18437c-1.51749,-0.03577 -2.16162,-1.46393 -2.16162,-3.18437c0,-1.72045 1.07919,-3.11514 2.41045,-3.11514c1.33125,0 2.41044,1.39469 2.41044,3.11514z" fill="url(#color-39)" stroke-width="0"/><path d="M322.27361,190.13899c-1.02464,0 -1.85528,-1.18199 -1.85528,-2.64006c0,-1.45807 0.49579,-2.66841 1.66377,-2.69872c1.98233,-0.05146 2.04678,1.24066 2.04678,2.69872c0,1.45807 -0.83063,2.64006 -1.85527,2.64006z" data-paper-data="{&quot;index&quot;:null}" fill="url(#color-40)" stroke-width="0"/><path d="M324.83629,190.40593c-0.72978,0 -1.32138,-1.27653 -1.32138,-2.85121c0,-1.57468 0.35311,-2.88182 1.18498,-2.91457c1.41188,-0.05558 1.45778,1.33989 1.45778,2.91457c0,1.57468 -0.5916,2.85121 -1.32138,2.85121z" data-paper-data="{&quot;index&quot;:null}" fill="url(#color-41)" stroke-width="0"/><path d="M327.66592,190.83305c-1.02464,0 -1.85527,-1.182 -1.85527,-2.64006c0,-1.45807 0.49578,-2.6684 1.66375,-2.69872c1.98233,-0.05146 2.04679,1.24065 2.04679,2.69872c0,1.45807 -0.83064,2.64006 -1.85528,2.64006z" data-paper-data="{&quot;index&quot;:null}" fill="url(#color-42)" stroke-width="0"/><path d="M331.20117,200.86264l0.00119,-0.19393c0.10265,-0.50627 0.2875,-0.89832 0.38586,-1.3849c0.31775,-1.11874 0.48115,-2.52332 0.61749,-3.86343c0.06245,-0.55528 0.12917,-1.09538 0.18708,-1.63671c0.00936,-0.35898 0.01579,-0.71815 0.01638,-1.07781c0.00264,-1.48207 -0.0319,-2.95666 -0.03193,-4.43907c0.00039,-0.36181 0.1468,-1.21517 0.23686,-0.42919c0.11469,1.00093 0.02256,2.34316 0.02256,3.37886c0,0.91015 -0.06863,1.75695 -0.15845,2.6007c-0.02909,1.09327 -0.0841,2.18475 -0.08252,3.28319c0.00148,1.03085 -0.09968,2.72603 0.22832,3.51825c0,0 0.03057,0.07479 0,0.14958c-0.03057,0.07478 -0.06115,0 -0.06115,0c-0.34813,-0.86094 -0.25205,-2.55347 -0.25364,-3.6671c-0.00106,-0.74481 0.02398,-1.4865 0.04926,-2.22769c-0.02317,0.19878 -0.04642,0.39875 -0.06914,0.60069c-0.13972,1.3605 -0.3062,2.78037 -0.62675,3.91761c-0.09717,0.46714 -0.27247,0.84703 -0.37614,1.32638l0.00119,0.14454c0,0 0,0.10576 -0.04323,0.10576c-0.04323,0 -0.04323,-0.10576 -0.04323,-0.10576zM332.55021,191.21647c0,-0.83718 0.0002,-1.67435 -0.00036,-2.51152c-0.00014,-0.20737 0.02382,-0.78948 -0.03292,-0.9554c-0.04156,-0.12152 -0.05325,0.47207 -0.0532,0.51725c0.00002,1.46629 0.03381,2.92495 0.032,4.39076c0.03366,-0.46794 0.05448,-0.94494 0.05448,-1.44109z" data-paper-data="{&quot;index&quot;:null}" fill-opacity="0.26667" fill="#88e7ff" stroke-width="0.5"/><path d="M330.86927,191.20677c-1.02464,0 -1.85528,-1.25289 -1.85528,-2.79841c0,-1.54552 0.49579,-2.82848 1.66377,-2.86062c1.98233,-0.05454 2.04679,1.31509 2.04679,2.86062c0,1.54552 -0.83064,2.79841 -1.85528,2.79841z" data-paper-data="{&quot;index&quot;:null}" fill="url(#color-43)" stroke-width="0"/><path d="M334.17939,191.95422c-1.02464,0 -1.85527,-1.38288 -1.85527,-3.08875c0,-1.70587 0.49579,-3.12193 1.66377,-3.15741c1.98233,-0.0602 2.04679,1.45154 2.04679,3.15741c0,1.70587 -0.83064,3.08875 -1.85528,3.08875z" data-paper-data="{&quot;index&quot;:null}" fill="url(#color-44)" stroke-width="0"/><path d="M337.16919,192.32794c-1.02464,0 -1.85528,-1.38289 -1.85528,-3.08876c0,-1.70587 0.49579,-3.12193 1.66376,-3.15739c1.98233,-0.0602 2.04679,1.45152 2.04679,3.15739c0,1.70587 -0.83063,3.08876 -1.85527,3.08876z" data-paper-data="{&quot;index&quot;:null}" fill="url(#color-45)" stroke-width="0"/><path d="M305.28869,201.29732c-1.08757,0 -1.96921,-1.1906 -1.96921,-2.65926c0,-1.46866 0.52623,-2.68781 1.76594,-2.71835c2.10408,-0.05183 2.17249,1.24968 2.17249,2.71835c0,1.46866 -0.88165,2.65926 -1.96922,2.65926z" data-paper-data="{&quot;index&quot;:null}" fill="url(#color-46)" stroke-width="0"/><path d="M307.83681,203.28729c-0.99375,0 -1.79935,-1.1154 -1.79935,-2.4913c0,-1.3759 0.48084,-2.51805 1.61361,-2.54665c1.92257,-0.04856 1.98508,1.17075 1.98508,2.54665c0,1.3759 -0.80559,2.4913 -1.79934,2.4913z" data-paper-data="{&quot;index&quot;:null}" fill="url(#color-47)" stroke-width="0"/><path d="M308.94961,202.18117c0,-1.46866 0.06251,-2.77018 1.98508,-2.71834c1.13276,0.03054 1.61361,1.24968 1.61361,2.71834c0,1.46866 -0.80559,2.65926 -1.79935,2.65926c-0.99375,0 -1.79934,-1.1906 -1.79934,-2.65926z" data-paper-data="{&quot;index&quot;:null}" fill="url(#color-48)" stroke-width="0"/><path d="M311.62085,203.83912c-0.07642,-1.46617 -0.08843,-2.76912 1.62814,-2.82941c1.01139,-0.03553 1.50348,1.15352 1.5799,2.61969c0.07642,1.46617 -0.57975,2.70168 -1.46563,2.75959c-0.88588,0.05791 -1.66599,-1.0837 -1.74241,-2.54987z" data-paper-data="{&quot;index&quot;:null}" fill="url(#color-49)" stroke-width="0"/><path d="M314.75679,204.63832c-0.48665,-1.22434 -0.87163,-2.32848 0.56887,-2.87396c0.84873,-0.32139 1.60868,0.5477 2.09532,1.77204c0.48665,1.22434 0.28476,2.46353 -0.45094,2.76782c-0.7357,0.30429 -1.7266,-0.44156 -2.21325,-1.6659z" data-paper-data="{&quot;index&quot;:null}" fill="url(#color-50)" stroke-width="0"/><path d="M317.20245,204.15421c-0.07642,-0.95052 -0.08843,-1.79523 1.62814,-1.83432c1.01139,-0.02303 1.50348,0.74784 1.5799,1.69836c0.07642,0.95052 -0.57976,1.75151 -1.46563,1.78906c-0.88588,0.03754 -1.66598,-0.70257 -1.74241,-1.6531z" data-paper-data="{&quot;index&quot;:null}" fill="url(#color-51)" stroke-width="0"/><path d="M320.01751,204.69018c-0.07642,-1.22817 -0.08844,-2.31964 1.62813,-2.37014c1.01139,-0.02976 1.50348,0.96629 1.5799,2.19446c0.07642,1.22817 -0.57976,2.26315 -1.46564,2.31166c-0.88588,0.04851 -1.66598,-0.90779 -1.7424,-2.13598z" data-paper-data="{&quot;index&quot;:null}" fill="url(#color-52)" stroke-width="0"/><path d="M324.67156,206.29216c-1.00534,-0.05112 -1.75001,-1.14178 -1.66327,-2.43607c0.08673,-1.29429 0.64518,-2.34394 1.79295,-2.31258c1.94804,0.05322 1.93442,1.20342 1.84769,2.49771c-0.08673,1.29429 -0.97202,2.30206 -1.97736,2.25095z" data-paper-data="{&quot;index&quot;:null}" fill="url(#color-53)" stroke-width="0"/><path d="M327.76466,205.75827c-0.93897,-0.05112 -1.63448,-1.14179 -1.55347,-2.43608c0.08101,-1.29429 0.60258,-2.34395 1.67458,-2.31258c1.81944,0.05322 1.80672,1.20342 1.72572,2.49771c-0.08101,1.29429 -0.90786,2.30207 -1.84683,2.25095z" data-paper-data="{&quot;index&quot;:null}" fill="url(#color-54)" stroke-width="0"/><path d="M330.62838,204.35037c-0.79296,-0.06157 -1.38033,-1.37507 -1.31192,-2.9338c0.06841,-1.55872 0.50888,-2.82283 1.4142,-2.78506c1.53654,0.0641 1.52579,1.4493 1.45738,3.00802c-0.06841,1.55872 -0.7667,2.77241 -1.55966,2.71084z" data-paper-data="{&quot;index&quot;:null}" fill="url(#color-55)" stroke-width="0"/><path d="M333.31412,194.45727c0.31414,-1.13678 0.6607,-2.12217 2.74671,-1.40524c1.22906,0.42241 1.49278,1.53534 1.17864,2.67211c-0.31414,1.13678 -1.4475,1.77473 -2.53146,1.42489c-1.08396,-0.34984 -1.70802,-1.55499 -1.39388,-2.69177z" data-paper-data="{&quot;index&quot;:null}" fill="url(#color-56)" stroke-width="0"/><path d="M334.06985,199.30306c-0.96551,-0.0506 -1.68069,-1.13013 -1.59739,-2.41119c0.0833,-1.28106 0.61962,-2.32001 1.72193,-2.28896c1.87089,0.05268 1.85781,1.19114 1.77451,2.47219c-0.0833,1.28106 -0.93354,2.27856 -1.89905,2.22796z" data-paper-data="{&quot;index&quot;:null}" fill="url(#color-57)" stroke-width="0"/><path d="M333.2493,201.77838c-0.79296,-0.0506 -1.38034,-1.13013 -1.31192,-2.4112c0.06841,-1.28106 0.50889,-2.32001 1.4142,-2.28896c1.53654,0.05268 1.5258,1.19113 1.45739,2.4722c-0.06841,1.28106 -0.7667,2.27856 -1.55966,2.22796z" data-paper-data="{&quot;index&quot;:null}" fill="url(#color-58)" stroke-width="0"/><g data-paper-data="{&quot;index&quot;:null}" stroke-width="0"><path d="M346.15221,170.05385c3.46434,0 6.27275,2.31063 6.27275,5.16096c0,2.85031 -2.80841,5.16096 -6.27275,5.16096c-3.46434,0 -6.27275,-2.31063 -6.27275,-5.16096c0,-2.85031 2.80841,-5.16096 6.27275,-5.16096z" fill="url(#color-59)"/><path d="M350.39295,163.4692c3.95229,0 7.15624,1.95208 7.15624,4.36011c0,2.40802 -3.20396,4.36011 -7.15624,4.36011c-3.95229,0 -7.15623,-1.95209 -7.15623,-4.36011c0,-2.40802 3.20395,-4.36011 7.15623,-4.36011z" fill="url(#color-60)"/><path d="M341.29304,159.0201c2.63485,0 4.77083,2.94806 4.77083,6.58467c0,3.63661 -2.13597,6.58466 -4.77083,6.58466c-2.63485,0 -4.77083,-2.94805 -4.77083,-6.58466c0,-3.63661 2.13598,-6.58467 4.77083,-6.58467z" fill="url(#color-61)"/><path d="M343.7668,169.51996c2.24451,0 4.06403,1.23501 4.06403,2.75844c0,1.52344 -1.81952,2.75844 -4.06403,2.75844c-2.24451,0 -4.06403,-1.235 -4.06403,-2.75844c0,-1.52344 1.81952,-2.75844 4.06403,-2.75844z" fill="url(#color-62)"/><path d="M342.35323,149.58801c3.61073,0 6.53779,2.62935 6.53779,5.87281c0,3.24346 -2.92706,5.87281 -6.53779,5.87281c-3.61073,0 -6.5378,-2.62934 -6.5378,-5.8728c0,-3.24346 2.92708,-5.87281 6.5378,-5.87281z" fill="url(#color-63)"/><path d="M338.81928,168.45218c1.17105,0 2.12036,0.8366 2.12036,1.86862c0,1.03202 -0.94932,1.86862 -2.12036,1.86862c-1.17105,0 -2.12036,-0.83661 -2.12036,-1.86862c0,-1.03202 0.94932,-1.86862 2.12036,-1.86862z" fill="url(#color-64)"/><path d="M339.43772,172.18942c1.61019,0 2.9155,1.15532 2.9155,2.58048c0,1.42516 -1.30532,2.58048 -2.9155,2.58048c-1.61019,0 -2.9155,-1.15532 -2.9155,-2.58048c0,-1.42516 1.30532,-2.58048 2.9155,-2.58048z" fill="url(#color-65)"/><path d="M335.19699,156.88453c2.48847,0 4.50578,1.91225 4.50578,4.27113c0,2.35888 -2.01731,4.27113 -4.50578,4.27113c-2.48847,0 -4.50578,-1.91225 -4.50578,-4.27113c0,-2.35888 2.01731,-4.27113 4.50578,-4.27113z" fill="url(#color-66)"/><path d="M334.57855,153.14729c1.26864,0 2.29706,0.95613 2.29706,2.13557c0,1.17944 -1.02843,2.13556 -2.29706,2.13556c-1.26864,0 -2.29706,-0.95612 -2.29706,-2.13556c0,-1.17944 1.02843,-2.13557 2.29706,-2.13557z" fill="url(#color-67)"/><path d="M333.60671,150.47783c2.48847,0 4.50578,1.91225 4.50578,4.27113c0,2.35888 -2.0173,4.27113 -4.50578,4.27113c-2.48847,0 -4.50578,-1.91225 -4.50578,-4.27113c0,-2.35888 2.0173,-4.27113 4.50578,-4.27113z" fill="url(#color-68)"/><path d="M336.34552,163.4692c1.26864,0 2.29706,0.87644 2.29706,1.95759c0,1.08116 -1.02842,1.9576 -2.29706,1.9576c-1.26864,0 -2.29707,-0.87645 -2.29707,-1.9576c0,-1.08116 1.02843,-1.95759 2.29707,-1.95759z" fill="url(#color-69)"/><path d="M341.64644,143.53724c1.75657,0 3.18054,1.47402 3.18054,3.29233c0,1.81831 -1.42398,3.29234 -3.18054,3.29234c-1.75657,0 -3.18055,-1.47403 -3.18055,-3.29234c0,-1.81831 1.42398,-3.29233 3.18055,-3.29233z" fill="url(#color-70)"/><path d="M336.9993,144.39147c2.39089,0 4.32908,1.80867 4.32908,4.03977c0,2.23111 -1.93819,4.03978 -4.32908,4.03978c-2.39089,0 -4.32908,-1.80867 -4.32908,-4.03978c0,-2.23111 1.93819,-4.03977 4.32908,-4.03977z" fill="url(#color-71)"/><path d="M332.10479,146.74059c1.85416,0 3.35725,1.15532 3.35725,2.58048c0,1.42516 -1.50309,2.58048 -3.35725,2.58048c-1.85416,0 -3.35724,-1.15532 -3.35724,-2.58048c0,-1.42516 1.50308,-2.58048 3.35724,-2.58048z" fill="url(#color-72)"/><path d="M363.82194,148.87616c1.90295,0 0.4456,1.06102 0.4456,2.78104c0,1.72001 1.45735,3.4477 -0.4456,3.4477c-1.90295,0 -3.44559,-1.39436 -3.44559,-3.11437c0,-1.72001 1.54264,-3.11436 3.44559,-3.11436z" fill="url(#color-73)"/><path d="M364.08698,141.57964c1.75657,0 0.29166,1.49705 0.29166,3.06964c0,1.57259 1.4649,2.6252 -0.29166,2.6252c-1.75657,0 -3.18054,-1.27484 -3.18054,-2.84742c0,-1.57259 1.42398,-2.84742 3.18054,-2.84742z" fill="url(#color-74)"/><path d="M359.66955,145.13892c2.34209,0 4.24073,1.71305 4.24073,3.82622c0,2.11317 -1.89864,3.82622 -4.24073,3.82622c-2.34209,0 -4.24074,-1.71306 -4.24074,-3.82622c0,-2.11317 1.89865,-3.82622 4.24074,-3.82622z" fill="url(#color-75)"/><path d="M360.72973,151.72358c0.78069,0 1.41358,0.47806 1.41358,1.06778c0,0.58972 -0.63288,1.06779 -1.41358,1.06779c-0.78069,0 -1.41358,-0.47807 -1.41358,-1.06779c0,-0.58972 0.63288,-1.06778 1.41358,-1.06778z" fill="url(#color-76)"/><path d="M364.17533,147.45245c0.92708,0 0.01196,0.42359 0.01196,1.35732c0,0.93373 0.91512,2.02399 -0.01196,2.02399c-0.92708,0 -1.67862,-0.75692 -1.67862,-1.69065c0,-0.93373 0.75155,-1.69065 1.67862,-1.69065z" fill="url(#color-77)"/><path d="M361.08313,153.50322c1.95174,0 3.53394,1.35452 3.53394,3.02539c0,1.67087 -1.5822,3.02538 -3.53394,3.02538c-1.95174,0 -3.53394,-1.35451 -3.53394,-3.02538c0,-1.67087 1.5822,-3.02539 3.53394,-3.02539z" fill="url(#color-78)"/><path d="M355.25212,159.90992c2.34209,0 4.24074,1.51387 4.24074,3.38132c0,1.86745 -1.89865,3.38131 -4.24074,3.38131c-2.34209,0 -4.24073,-1.51386 -4.24073,-3.38131c0,-1.86745 1.89864,-3.38132 4.24073,-3.38132z" fill="url(#color-79)"/><path d="M348.27258,158.48621c2.39089,0 4.32908,1.67323 4.32908,3.73725c0,2.06402 -1.93819,3.73724 -4.32908,3.73724c-2.39089,0 -4.32909,-1.67322 -4.32909,-3.73724c0,-2.06402 1.9382,-3.73725 4.32909,-3.73725z" fill="url(#color-80)"/><path d="M355.16378,152.07951c2.97641,0 5.38927,2.31064 5.38927,5.16095c0,2.85032 -2.41286,5.16096 -5.38927,5.16096c-2.97641,0 -5.38926,-2.31064 -5.38926,-5.16096c0,-2.85032 2.41285,-5.16095 5.38926,-5.16095z" fill="url(#color-81)"/><path d="M358.87441,149.94394c2.00054,0 3.62229,1.27484 3.62229,2.84743c0,1.57259 -1.62175,2.84742 -3.62229,2.84742c-2.00054,0 -3.62229,-1.27483 -3.62229,-2.84742c0,-1.57259 1.62175,-2.84743 3.62229,-2.84743z" fill="url(#color-82)"/><path d="M354.63369,143.00335c2.39089,0 4.32908,1.79274 4.32908,4.00419c0,2.21145 -1.93819,4.00419 -4.32908,4.00419c-2.39089,0 -4.32909,-1.79273 -4.32909,-4.00419c0,-2.21145 1.9382,-4.00419 4.32909,-4.00419z" fill="url(#color-83)"/><path d="M360.1113,143.89317c1.70778,0 3.0922,1.31467 3.0922,2.9364c0,1.62173 -1.38442,2.93641 -3.0922,2.93641c-1.70778,0 -3.0922,-1.31468 -3.0922,-2.93641c0,-1.62173 1.38442,-2.9364 3.0922,-2.9364z" fill="url(#color-84)"/><path d="M354.36864,148.69819c1.65898,0 3.00386,1.15532 3.00386,2.58048c0,1.42516 -1.34487,2.58048 -3.00386,2.58048c-1.65898,0 -3.00385,-1.15532 -3.00385,-2.58048c0,-1.42516 1.34487,-2.58048 3.00385,-2.58048z" fill="url(#color-85)"/><path d="M349.35044,145.45925c2.38113,0 4.31142,1.98396 4.31142,4.4313c0,2.44734 -1.93029,4.43131 -4.31142,4.43131c-2.38113,0 -4.31142,-1.98397 -4.31142,-4.43131c0,-2.44734 1.93029,-4.4313 4.31142,-4.4313z" fill="url(#color-86)"/><path d="M344.73864,147.80838c1.5126,0 2.73881,1.27484 2.73881,2.84742c0,1.57259 -1.2262,2.84742 -2.73881,2.84742c-1.5126,0 -2.73881,-1.27483 -2.73881,-2.84742c0,-1.57259 1.2262,-2.84742 2.73881,-2.84742z" fill="url(#color-87)"/><path d="M349.95121,152.6134c2.14691,0 3.88734,1.51387 3.88734,3.38132c0,1.86745 -1.74043,3.38131 -3.88734,3.38131c-2.14691,0 -3.88734,-1.51386 -3.88734,-3.38131c0,-1.86745 1.74043,-3.38132 3.88734,-3.38132z" fill="url(#color-88)"/></g><path d="M320.3018,181.70091c-0.56711,0 -0.56711,-2.93357 -0.56711,-2.93357l0.00087,-3.03802c-0.11816,-5.42844 0.0558,-13.37347 0.0558,-18.83295c0,0 -0.19415,-0.26411 0.37296,-0.26411c0.56711,0 0.42151,0.36118 0.42151,0.36118c0,5.35784 0.16918,13.08432 0.28222,18.41142l0.00086,3.36248c0,0 0,2.93357 -0.5671,2.93357z" fill="#000000" stroke-width="0.5"/><path d="M327.47184,151.67598c-0.31795,0.17933 -0.72528,0.00987 -0.72528,0.00987l-0.24875,-0.10589c-0.90625,-0.30846 -1.9136,-0.21679 -2.92525,-0.20418c-1.21457,0.09142 -1.84952,0.62736 -3.08594,0.70528c-2.34318,0.14767 -4.37818,-1.77106 -6.19135,-0.64987c0,0 -0.30839,0.18322 -0.72302,0.01798c-0.41462,-0.16524 -0.10623,-0.34846 -0.10623,-0.34846c0.31971,-0.18448 0.71873,-0.34727 1.18329,-0.44418c2.29298,-0.47833 3.50399,1.1203 5.61929,0.93452c1.17786,-0.10345 1.8691,-0.60143 3.10793,-0.70643c1.30955,-0.01914 2.45939,-0.08476 3.65119,0.29743l0.35472,0.14515c0,0 0.40734,0.16945 0.0894,0.34878z" fill="#000000" stroke-width="0.5"/></g><g><path d="M292.98449,187.60821c2.72683,0.60668 4.49326,3.25673 6.73336,4.89306c2.61868,1.91287 4.82157,4.91935 5.46546,8.43993c0.65652,3.58961 -1.65141,9.57594 -2.42355,13.04644c-1.14927,5.16547 -5.39916,2.0906 -7.78708,4.52785c-1.74605,1.78213 -1.11181,3.58634 -1.11181,3.58634l-18.0774,-0.19431c0,0 -0.72141,-20.68484 0.297,-25.26217c0.92432,-4.15444 11.63006,-10.21054 16.90403,-9.03714z" fill="url(#color-89)" stroke-width="0"/><path d="M278.74743,204.4284c0.45598,-0.29646 0.75243,0.15953 0.75243,0.15953l0.18667,0.45472c-0.0522,0.89067 0.48327,0.9559 0.12903,1.87611c1.42447,3.39035 1.11064,8.96213 5.48327,9.87452c0,0 0.53206,0.11281 0.41925,0.64486c-0.11281,0.53206 -0.64486,0.41925 -0.64486,0.41925c-4.83454,-1.04372 -5.13797,-6.97556 -6.34467,-10.97932c0.36823,-0.7563 -0.11434,-0.95509 -0.12973,-1.84797l-0.01095,0.15073c0,0 -0.29645,-0.45598 0.15953,-0.75243z" fill="#004515" stroke-width="0.5"/><path d="M283.36045,201.21306c0.45598,-0.29646 0.75243,0.15953 0.75243,0.15953l0.19763,0.30399c0.99773,1.53465 2.34463,4.17994 4.27821,4.54448c0,0 0.53206,0.11281 0.41925,0.64487c-0.11281,0.53206 -0.64486,0.41925 -0.64486,0.41925c-2.31784,-0.53098 -3.74398,-3.13826 -4.96457,-5.01569l-0.19763,-0.30399c0,0 -0.29645,-0.45598 0.15953,-0.75243z" fill="#004515" stroke-width="0.5"/><path d="M293.26355,201.47811c-0.45598,0.29646 -0.75244,-0.15953 -0.75244,-0.15953l-0.09882,-0.15199c-0.33751,-0.52896 -0.79217,-0.89361 -1.14017,-1.42113c0,0 -0.29645,-0.45598 0.15954,-0.75243c0.45598,-0.29646 0.75243,0.15954 0.75243,0.15954c0.33751,0.52896 0.79216,0.8936 1.14016,1.42112l0.09882,0.15199c0,0 0.29645,0.45598 -0.15954,0.75243z" fill="#004515" stroke-width="0.5"/></g><g data-paper-data="{&quot;index&quot;:null}"><path d="M363.98257,221.40364c0,0 -13.22495,1.81805 -15.37772,0.55701c-2.94416,-1.72461 -6.57072,3.13619 -9.03617,-1.54617c-1.65645,-3.14592 -5.45546,-8.31603 -5.76466,-11.95206c-0.30326,-3.5661 1.03276,-7.04558 3.05719,-9.57901c1.73176,-2.16718 2.74025,-5.1881 5.21204,-6.4896c4.78071,-2.51723 19.97605,1.45289 21.95893,5.21877z" fill="url(#color-90)" stroke-width="0"/><path d="M360.57935,205.56892l-0.05015,-0.14256c0.21963,0.86558 -0.1938,1.18412 0.36012,1.81717c-0.11291,4.18013 1.1521,9.98344 -3.23865,12.26015c0,0 -0.48376,0.24857 -0.73233,-0.23519c-0.24858,-0.48376 0.23519,-0.73233 0.23519,-0.73233c3.97955,-2.02869 2.2135,-7.32247 2.69763,-10.96792c-0.58346,-0.79488 -0.08391,-0.99845 -0.36818,-1.84416l0.06071,-0.48779c0,0 0.1663,-0.51783 0.68414,-0.35153c0.51783,0.1663 0.35153,0.68413 0.35153,0.68413z" fill="#004515" stroke-width="0.5"/><path d="M355.28385,203.67787l-0.11086,0.34522c-0.68471,2.13208 -1.37608,5.02237 -3.47313,6.14341c0,0 -0.48375,0.24857 -0.73232,-0.23519c-0.24858,-0.48376 0.23518,-0.73233 0.23518,-0.73233c1.76999,-0.85953 2.37491,-3.76569 2.9346,-5.5085l0.11087,-0.34522c0,0 0.1663,-0.51783 0.68413,-0.35153c0.51783,0.1663 0.35153,0.68413 0.35153,0.68413z" fill="#004515" stroke-width="0.5"/><path d="M345.09487,205.16606l0.05543,-0.17261c0.19725,-0.60039 0.54019,-1.07165 0.72695,-1.67068c0,0 0.1663,-0.51783 0.68413,-0.35153c0.51783,0.1663 0.35154,0.68413 0.35154,0.68413c-0.19725,0.60039 -0.54019,1.07165 -0.72694,1.67068l-0.05543,0.1726c0,0 -0.1663,0.51783 -0.68413,0.35153c-0.51783,-0.1663 -0.35153,-0.68413 -0.35153,-0.68413z" fill="#004515" stroke-width="0.5"/></g></g><path d="M275.93029,221.94001v-83.87989h88.13942v83.87989z" fill="none" stroke="#ffffff" stroke-width="1.5"/></g></g></svg>