<svg version="1.1" xmlns="http://www.w3.org/2000/svg" xmlns:xlink="http://www.w3.org/1999/xlink" width="217.37248" height="305.54458" viewBox="0,0,217.37248,305.54458"><defs><linearGradient x1="275.64131" y1="247.44432" x2="286.08508" y2="278.70603" gradientUnits="userSpaceOnUse" id="color-1"><stop offset="0" stop-color="#68950d"/><stop offset="1" stop-color="#50730a"/></linearGradient><linearGradient x1="286.28496" y1="207.49339" x2="305.21163" y2="264.14727" gradientUnits="userSpaceOnUse" id="color-2"><stop offset="0" stop-color="#64900d"/><stop offset="1" stop-color="#567c0b"/></linearGradient><linearGradient x1="267.75524" y1="259.79818" x2="290.43531" y2="327.6873" gradientUnits="userSpaceOnUse" id="color-3"><stop offset="0" stop-color="#5e880c"/><stop offset="1" stop-color="#5b820c"/></linearGradient><linearGradient x1="363.88939" y1="246.94432" x2="353.44561" y2="278.20603" gradientUnits="userSpaceOnUse" id="color-4"><stop offset="0" stop-color="#68950d"/><stop offset="1" stop-color="#50730a"/></linearGradient><linearGradient x1="353.24572" y1="206.99339" x2="334.31905" y2="263.64727" gradientUnits="userSpaceOnUse" id="color-5"><stop offset="0" stop-color="#64900d"/><stop offset="1" stop-color="#567c0b"/></linearGradient><linearGradient x1="371.77544" y1="259.29818" x2="349.09538" y2="327.1873" gradientUnits="userSpaceOnUse" id="color-6"><stop offset="0" stop-color="#5e880c"/><stop offset="1" stop-color="#5b820c"/></linearGradient><linearGradient x1="290.68405" y1="86.25831" x2="316.983" y2="177.55063" gradientUnits="userSpaceOnUse" id="color-7"><stop offset="0" stop-color="#68950d"/><stop offset="1" stop-color="#5b820c"/></linearGradient><linearGradient x1="292.99673" y1="36.43732" x2="292.99673" y2="99.72151" gradientUnits="userSpaceOnUse" id="color-8"><stop offset="0" stop-color="#68950d"/><stop offset="1" stop-color="#5b820c"/></linearGradient><linearGradient x1="309.84188" y1="75.50511" x2="313.65056" y2="102.23618" gradientUnits="userSpaceOnUse" id="color-9"><stop offset="0" stop-color="#587f0a"/><stop offset="1" stop-color="#5e870c"/></linearGradient><linearGradient x1="309.00709" y1="62.07133" x2="307.99243" y2="71.42788" gradientUnits="userSpaceOnUse" id="color-10"><stop offset="0" stop-color="#ffad00"/><stop offset="1" stop-color="#ff6c29"/></linearGradient><linearGradient x1="330.03503" y1="61.37041" x2="329.02038" y2="70.72694" gradientUnits="userSpaceOnUse" id="color-11"><stop offset="0" stop-color="#ffad00"/><stop offset="1" stop-color="#ff6c29"/></linearGradient><linearGradient x1="392.53749" y1="123.44075" x2="392.53749" y2="148.40903" gradientUnits="userSpaceOnUse" id="color-12"><stop offset="0" stop-color="#68950d"/><stop offset="1" stop-color="#50730a"/></linearGradient><linearGradient x1="375.30054" y1="97.29095" x2="375.30054" y2="142.53958" gradientUnits="userSpaceOnUse" id="color-13"><stop offset="0" stop-color="#64900d"/><stop offset="1" stop-color="#567c0b"/></linearGradient><linearGradient x1="400.61048" y1="130.29905" x2="400.61048" y2="184.52112" gradientUnits="userSpaceOnUse" id="color-14"><stop offset="0" stop-color="#5e880c"/><stop offset="1" stop-color="#5b820c"/></linearGradient><linearGradient x1="367.04866" y1="66.82044" x2="367.04866" y2="116.78533" gradientUnits="userSpaceOnUse" id="color-15"><stop offset="0" stop-color="#84217a"/><stop offset="1" stop-color="#701c68"/></linearGradient><linearGradient x1="247.46254" y1="124.10741" x2="247.46254" y2="149.07569" gradientUnits="userSpaceOnUse" id="color-16"><stop offset="0" stop-color="#68950d"/><stop offset="1" stop-color="#50730a"/></linearGradient><linearGradient x1="264.6995" y1="97.95761" x2="264.6995" y2="143.20625" gradientUnits="userSpaceOnUse" id="color-17"><stop offset="0" stop-color="#64900d"/><stop offset="1" stop-color="#567c0b"/></linearGradient><linearGradient x1="239.38956" y1="130.96571" x2="239.38956" y2="185.18778" gradientUnits="userSpaceOnUse" id="color-18"><stop offset="0" stop-color="#5e880c"/><stop offset="1" stop-color="#5b820c"/></linearGradient><linearGradient x1="272.95135" y1="67.4871" x2="272.95135" y2="117.45199" gradientUnits="userSpaceOnUse" id="color-19"><stop offset="0" stop-color="#84217a"/><stop offset="1" stop-color="#701c68"/></linearGradient><linearGradient x1="331.37106" y1="58.75084" x2="328.29578" y2="73.74662" gradientUnits="userSpaceOnUse" id="color-20"><stop offset="0" stop-color="#8f54c7"/><stop offset="1" stop-color="#5200a6"/></linearGradient><linearGradient x1="306.96374" y1="58.39892" x2="309.90999" y2="73.85687" gradientUnits="userSpaceOnUse" id="color-21"><stop offset="0" stop-color="#8f54c7"/><stop offset="1" stop-color="#5200a6"/></linearGradient></defs><g transform="translate(-211.31377,-27.22771)"><g data-paper-data="{&quot;isPaintingLayer&quot;:true}" fill-rule="nonzero" stroke-linejoin="miter" stroke-miterlimit="10" stroke-dasharray="" stroke-dashoffset="0" style="mix-blend-mode: normal"><g data-paper-data="{&quot;index&quot;:null}" stroke-width="0"><path d="M275.6413,247.44432c7.99845,-2.67208 16.82038,2.15993 19.70435,10.79262c2.88397,8.63269 -1.26214,17.79701 -9.26058,20.46909c-7.99844,2.67209 -16.82037,-2.15993 -19.70434,-10.79262c-2.88397,-8.63269 1.26214,-17.79701 9.26058,-20.46909z" data-paper-data="{&quot;index&quot;:null}" fill="url(#color-1)" stroke="none" stroke-linecap="butt"/><path d="M320.77817,210.4377c0,0 -6.96813,21.33985 -11.00763,31.09278c-3.70412,8.94319 -12.31057,25.20642 -12.31057,25.20642c0,0 -12.06146,-2.75345 -16.81454,-4.9195c-5.02007,-2.28771 -12.54866,-8.46176 -12.54866,-8.46176c0,0 6.27661,-19.02007 9.89194,-27.28252c3.10226,-7.08991 10.49732,-19.31505 10.49732,-19.31505z" data-paper-data="{&quot;index&quot;:null}" fill="url(#color-2)" stroke="#000000" stroke-linecap="round"/><path d="M285.42367,207.78113l-12.22989,33.44651" data-paper-data="{&quot;index&quot;:null}" fill="none" stroke="none" stroke-linecap="round"/><path d="M266.27985,260.58072c0,0 6.98332,-3.1496 11.89707,-3.68203c16.01141,-1.73493 19.03355,8.42569 19.03355,8.42569c0,0 -0.96284,16.98241 -1.30688,27.53318c-0.31547,9.67479 -7.35687,35.46066 -7.35687,35.46066c0,0 -6.86572,-1.05472 -11.85496,-0.12964c-4.98923,0.92506 -12.16744,4.58371 -12.16744,4.58371c0,0 -4.83189,-34.29719 -2.75184,-50.20281c1.13588,-8.68587 4.50736,-21.98875 4.50736,-21.98875z" data-paper-data="{&quot;index&quot;:null}" fill="url(#color-3)" stroke="#000000" stroke-linecap="round"/></g><g stroke-width="0"><path d="M363.88939,246.94432c7.99844,2.67208 12.14455,11.8364 9.26058,20.46909c-2.88397,8.63269 -11.7059,13.46471 -19.70434,10.79262c-7.99844,-2.67208 -12.14455,-11.8364 -9.26058,-20.46909c2.88397,-8.63269 11.7059,-13.4647 19.70435,-10.79262z" data-paper-data="{&quot;index&quot;:null}" fill="url(#color-4)" stroke="none" stroke-linecap="butt"/><path d="M351.04463,206.25807c0,0 7.39506,12.22514 10.49732,19.31505c3.61533,8.26245 9.89194,27.28252 9.89194,27.28252c0,0 -7.52859,6.17405 -12.54866,8.46176c-4.75308,2.16605 -16.81454,4.9195 -16.81454,4.9195c0,0 -8.60645,-16.26323 -12.31057,-25.20642c-4.0395,-9.75293 -11.00763,-31.09278 -11.00763,-31.09278z" data-paper-data="{&quot;index&quot;:null}" fill="url(#color-5)" stroke="#000000" stroke-linecap="round"/><path d="M354.10701,207.28113l12.22989,33.44651" data-paper-data="{&quot;index&quot;:null}" fill="none" stroke="none" stroke-linecap="round"/><path d="M373.25084,260.08072c0,0 3.37148,13.30288 4.50736,21.98875c2.08005,15.90562 -2.75184,50.20281 -2.75184,50.20281c0,0 -7.17821,-3.65865 -12.16744,-4.58371c-4.98924,-0.92508 -11.85496,0.12964 -11.85496,0.12964c0,0 -7.0414,-25.78587 -7.35687,-35.46066c-0.34404,-10.55077 -1.30688,-27.53318 -1.30688,-27.53318c0,0 3.02214,-10.16062 19.03355,-8.42569c4.91375,0.53243 11.89707,3.68203 11.89707,3.68203z" data-paper-data="{&quot;index&quot;:null}" fill="url(#color-6)" stroke="#000000" stroke-linecap="round"/></g><path d="M336.99866,196.92993l14.16667,-2.75l2,13.33333c0,0 -13.56077,5.1921 -18.25947,9.42755c-3.48824,3.14433 -7.48447,6.57505 -11.59789,7.96675c-1.93046,0.65313 -6.22598,0.27236 -6.22598,0.27236c0,0 -7.73673,-6.06371 -13.11371,-9.55739c-5.56125,-3.6134 -16.46963,-7.52595 -16.46963,-7.52595l2.83333,-12.58333l13.33333,-1.75z" fill="#5f880d" stroke="#000000" stroke-width="0" stroke-linecap="round"/><g stroke-width="0"><path d="M299.7351,191.97606c0,0 -8.4097,-9.21233 -12.30695,-14.53307c-2.40975,-3.28994 -3.66912,-15.13059 -3.66912,-15.13059l70.81793,-0.47282c0,0 -1.86269,5.17098 -2.99186,7.67543c-1.16914,2.59308 -3.90725,7.62639 -3.90725,7.62639z" fill="#243305" stroke="none" stroke-linecap="butt"/><path d="M347.86808,98.03569c17.89241,1.57377 15.41067,18.08621 15.62539,31.4317c0.21471,13.34549 -11.36877,38.61461 -11.36877,38.61461l-13.47675,2.45772c0,0 0.10401,-3.72551 -2.63599,-3.96839c-13.16816,-1.16728 -30.16043,1.7488 -34.42403,2.22472c-4.2636,0.47592 -1.01109,4.78534 -9.34928,4.29739c-8.33819,-0.48795 -6.78329,-1.43566 -6.78329,-1.43566c0,0 -9.45582,-22.90423 -8.5555,-38.66643c0.90033,-15.7622 1.80027,-34.06609 17.53628,-34.69656c5.55964,-0.22275 32.24578,-2.12257 53.43194,-0.2591z" fill="url(#color-7)" stroke="#000000" stroke-linecap="round"/><path d="M311.22409,119.29989c2.57165,-0.51197 7.84651,-3.60001 7.84651,-3.60001c0,0 6.95151,4.14897 10.30868,3.34003c3.89007,-0.93732 13.6172,-8.13111 13.6172,-8.13111c0,0 1.22395,9.35592 1.21307,13.24024c-0.00925,3.2993 -1.27426,8.5984 -1.27426,8.5984c0,0 3.90053,-2.5424 4.96267,-4.96188c1.21779,-2.77405 1.94114,-10.76463 1.94114,-10.76463c0,0 4.2306,14.34882 2.62394,25.80436c-1.60666,11.45555 -10.00799,26.84446 -10.00799,26.84446l-4.27206,1.15729c0,0 1.00406,-3.40617 -1.25932,-3.58397c-14.16184,-1.11256 -32.20517,1.60267 -33.45005,1.77606c-1.24486,0.17339 -2.14848,3.68004 -2.14848,3.68004c0,0 -3.99414,0.29916 -5.03433,0.49559c-1.03974,0.19633 -6.15958,-19.87981 -6.76338,-27.7431c-0.67457,-8.7849 1.15334,-25.65697 1.15334,-25.65697c0,0 1.02134,6.10625 3.16837,9.20315c2.14703,3.0969 7.57638,6.29519 7.57638,6.29519c0,0 -3.64972,-6.37053 -5.29092,-11.08498c-1.38362,-3.97457 0.22296,-13.09185 0.22296,-13.09185c0,0 5.25789,10.09659 14.86651,8.18368z" fill="#eedd0b" stroke="#000000" stroke-linecap="round"/><path d="M285.37728,172.51648c2.76284,0.71886 15.95383,0.53031 15.95383,0.53031c0,0 3.20076,5.97986 5.60188,6.51144c2.40113,0.53159 11.5586,4.34798 26.45724,-1.50997c3.56067,-1.40001 5.46445,-6.89898 5.46445,-6.89898l13.15737,-2.48462c0,0 -0.13046,18.40794 -11.4784,24.90112c-8.42625,4.22215 -34.2081,3.56242 -41.77729,2.04443c-7.56918,-1.51799 -16.32034,-23.85903 -13.37908,-23.09374z" fill="#60890c" stroke="#000000" stroke-linecap="round"/><path d="M302.60307,172.97774l35.6065,-1.8836c0,0 -2.37162,5.59099 -5.20333,6.46392c-1.64386,0.50676 -7.70005,2.36849 -13.28139,2.66858c-4.03305,0.21684 -7.80513,-0.61751 -11.71432,-1.61435c-2.4484,-0.62433 -5.40746,-5.63454 -5.40746,-5.63454z" fill="#eedd0b" stroke="#000000" stroke-linecap="round"/></g><path d="M347.6388,89.46505c0,0 -2.3625,17.99983 -8.02272,25.76928c-5.66022,7.76946 -8.06876,16.3615 -19.55485,16.62278c-11.48609,0.26128 -11.44662,-6.9182 -16.81719,-13.65677c-4.7817,-5.99971 -12.23073,-26.52759 -12.23073,-26.52759l25.84848,-11.74066z" fill="#eedd0b" stroke="#000000" stroke-width="0" stroke-linecap="round"/><path d="M343.31671,92.47957c0,0 -1.99091,13.92183 -6.69509,19.93869c-4.7042,6.01686 -6.71575,12.66441 -16.23298,12.88534c-9.51722,0.22093 -9.47117,-5.3305 -13.9084,-10.5321c-3.9507,-4.63127 -10.08438,-20.49171 -10.08438,-20.49171l21.43846,-9.1207z" fill="#0d0b07" stroke="#000000" stroke-width="0" stroke-linecap="round"/><g fill="#ffffff" stroke="#000000" stroke-width="0" stroke-linecap="round"><path d="M300.89087,105.35992c0,0 -1.22037,0.69995 -1.69615,0.54197c-0.47578,-0.15797 -0.83606,-1.38277 -0.83606,-1.38277l0.36327,-2.79348l1.04488,-3.58605c0,0 0.47149,1.85934 0.65385,3.10064c0.18235,1.24127 0.4702,4.11967 0.4702,4.11967z" data-paper-data="{&quot;index&quot;:null}"/><path d="M306.95589,116.81535c0,0 -1.22037,0.69995 -1.69615,0.54197c-0.47578,-0.15797 -0.83606,-1.38277 -0.83606,-1.38277l0.36327,-2.79348l1.04488,-3.58605c0,0 0.47149,1.85934 0.65385,3.10064c0.18235,1.24127 0.4702,4.11967 0.4702,4.11967z" data-paper-data="{&quot;index&quot;:null}"/><path d="M304.02225,112.15327c0,0 -1.22037,0.69995 -1.69615,0.54197c-0.47578,-0.15797 -0.83606,-1.38277 -0.83606,-1.38277l0.36327,-2.79348l1.04488,-3.58605c0,0 0.47149,1.85934 0.65385,3.10064c0.18235,1.24127 0.4702,4.11967 0.4702,4.11967z" data-paper-data="{&quot;index&quot;:null}"/></g><path d="M315.07696,126.88362c0,0 0.49218,-2.30581 0.91696,-3.71121c0.42479,-1.40539 1.34126,-3.75998 1.34126,-3.75998c0,0 0.49236,1.86507 0.67906,3.1086c0.18669,1.24355 0.47477,4.12557 0.47477,4.12557l-1.53215,0.59945z" data-paper-data="{&quot;index&quot;:null}" fill="#ffffff" stroke="#000000" stroke-width="0" stroke-linecap="round"/><path d="M309.34019,122.86463c0,0 0.49408,-1.74077 1.10422,-3.03987c0.61013,-1.29911 1.85698,-3.43282 1.85698,-3.43282c0,0 0.34889,1.9449 0.42621,3.21205c0.07732,1.26715 0.09782,4.17365 0.09782,4.17365c0,0 -1.22389,0.76341 -2.01902,0.55511c-0.79515,-0.2083 -1.46622,-1.46812 -1.46622,-1.46812z" data-paper-data="{&quot;index&quot;:null}" fill="#ffffff" stroke="#000000" stroke-width="0" stroke-linecap="round"/><path d="M336.25934,112.97651c0,0 0.09415,-2.88974 0.19286,-4.13937c0.09873,-1.24964 0.44451,-3.13327 0.44451,-3.13327l1.28339,3.51688l0.54998,2.76634c0,0 -0.27738,1.24373 -0.74161,1.42964c-0.46423,0.18591 -1.72913,-0.44021 -1.72913,-0.44021z" data-paper-data="{&quot;index&quot;:null}" fill="#ffffff" stroke="#000000" stroke-width="0" stroke-linecap="round"/><path d="M325.4054,126.76821l-1.68667,-0.4954c0,0 0.12526,-2.89589 0.24643,-4.1496c0.12118,-1.2537 0.53135,-3.1483 0.53135,-3.1483c0,0 1.13677,2.28855 1.68379,3.66275c0.54702,1.37419 1.22423,3.64256 1.22423,3.64256z" data-paper-data="{&quot;index&quot;:null}" fill="#ffffff" stroke="#000000" stroke-width="0" stroke-linecap="round"/><path d="M331.17464,124.08324c-0.76084,0.25625 -2.0014,-0.43133 -2.0014,-0.43133c0,0 -0.16624,-2.90222 -0.17216,-4.17165c-0.0059,-1.26943 0.20919,-3.23185 0.20919,-3.23185c0,0 1.35071,2.05386 2.028,3.3134c0.67728,1.25954 1.26989,2.96697 1.26989,2.96697c0,0 -0.57267,1.29821 -1.33352,1.55446z" data-paper-data="{&quot;index&quot;:null}" fill="#ffffff" stroke="#000000" stroke-width="0" stroke-linecap="round"/><path d="M338.87433,108.14959c0,0 0.09415,-2.88974 0.19286,-4.13937c0.09873,-1.24964 0.44451,-3.13327 0.44451,-3.13327l1.28339,3.51688l0.54998,2.76634c0,0 -0.27738,1.24373 -0.74161,1.42964c-0.46423,0.18591 -1.72913,-0.44021 -1.72913,-0.44021z" data-paper-data="{&quot;index&quot;:null}" fill="#ffffff" stroke="#000000" stroke-width="0" stroke-linecap="round"/><path d="M341.68964,101.44763c0,0 0.19109,-3.06778 0.33169,-4.39256c0.14061,-1.3248 0.54946,-3.31549 0.54946,-3.31549l1.16472,3.77768l0.45685,2.95698c0,0 -0.31899,1.31289 -0.78923,1.49578c-0.47024,0.18289 -1.71349,-0.52237 -1.71349,-0.52237z" data-paper-data="{&quot;index&quot;:null}" fill="#ffffff" stroke="#000000" stroke-width="0" stroke-linecap="round"/><g fill="#ffffff" stroke="#000000" stroke-width="0" stroke-linecap="round"><g data-paper-data="{&quot;index&quot;:null}"><path d="M344.834,88.69954c0,0 -0.68199,5.07475 -1.56202,7.2478c-0.79313,1.95849 -3.48463,5.21386 -3.48463,5.21386c0,0 -0.00006,-3.82797 -0.10887,-5.6315c-0.11158,-1.84965 -0.55249,-5.33155 -0.55249,-5.33155z" data-paper-data="{&quot;index&quot;:null}"/></g><path d="M348.24805,85.51074c0,0 -0.24648,5.11443 -0.93788,7.35465c-0.62313,2.01902 -3.02704,5.49217 -3.02704,5.49217c0,0 -0.3267,-3.81401 -0.589,-5.60166c-0.269,-1.83338 -1.0054,-5.26496 -1.0054,-5.26496z" data-paper-data="{&quot;index&quot;:null}"/></g><path d="M300.80566,92.89857c0,0 -0.71277,3.43656 -0.96916,5.27175c-0.24999,1.78942 -0.55044,5.60559 -0.55044,5.60559c0,0 -2.42775,-3.45654 -3.06475,-5.47122c-0.7068,-2.23541 -0.98846,-7.34802 -0.98846,-7.34802z" data-paper-data="{&quot;index&quot;:null}" fill="#ffffff" stroke="#000000" stroke-width="0" stroke-linecap="round"/><path d="M297.46639,89.92014c0,0 -1.00341,3.36321 -1.41545,5.16983c-0.40177,1.76156 -1.02675,5.53818 -1.02675,5.53818c0,0 -2.12396,-3.65109 -2.58673,-5.71278c-0.51348,-2.28757 -0.35786,-7.40557 -0.35786,-7.40557z" data-paper-data="{&quot;index&quot;:null}" fill="#ffffff" stroke="#000000" stroke-width="0" stroke-linecap="round"/><g fill="#ffffff" stroke="#000000" stroke-width="0" stroke-linecap="round"><path d="M330.2111,92.34563c0,0 -0.4704,5.11767 -1.33094,7.35276c-0.77556,2.0144 -3.60393,5.46463 -3.60393,5.46463c0,0 -0.2219,-3.82215 -0.44835,-5.61485c-0.23224,-1.83856 -0.92823,-5.28243 -0.92823,-5.28243z" data-paper-data="{&quot;index&quot;:null}"/><path d="M336.74274,94.43607c0,0 -0.95863,5.07289 -2.02874,7.23842c-0.96445,1.95172 -4.1079,5.1801 -4.1079,5.1801c0,0 0.37444,-3.84328 0.3212,-5.65016c-0.05462,-1.85311 -0.64486,-5.33329 -0.64486,-5.33329z" data-paper-data="{&quot;index&quot;:null}"/></g><g fill="#ffffff" stroke="#000000" stroke-width="0" stroke-linecap="round"><path d="M315.68707,94.98408c0,0 -1.06273,3.34892 -1.49158,5.15179c-0.41816,1.75791 -1.05028,5.53394 -1.05028,5.53394c0,0 -2.44043,-3.7347 -2.99461,-5.82089c-0.61489,-2.31473 -0.53154,-7.45331 -0.53154,-7.45331z" data-paper-data="{&quot;index&quot;:null}"/><path d="M309.15155,96.04974c0,0 -0.70345,3.51252 -0.95726,5.34897c-0.24748,1.79065 -0.54706,5.53579 -0.54706,5.53579c0,0 -2.77759,-3.54806 -3.5263,-5.59228c-0.83073,-2.26816 -1.2376,-7.41478 -1.2376,-7.41478z" data-paper-data="{&quot;index&quot;:null}"/></g><path d="M316.01846,61.81965l-2.86336,-5.93781l-3.32486,-27.0864c0,0 4.50191,-1.70898 7.47992,-1.55832c2.97801,0.15066 8.6,2.3718 8.6,2.3718l-2.93779,25.29421z" fill="#c93315" stroke="#000000" stroke-width="0" stroke-linecap="round"/><path d="M316.14716,55.48656l-2.33913,-4.85071l-2.71615,-22.12742c0,0 3.67771,-1.39609 6.1105,-1.27303c2.43279,0.12306 7.02551,1.93757 7.02551,1.93757l-2.39993,20.66336z" fill="#b62f14" stroke="#000000" stroke-width="0" stroke-linecap="round"/><path d="M290.99109,75.14563c1.36376,-8.5475 1.51233,-28.60215 16.57507,-29.11113c8.09665,-0.27359 10.47092,4.7058 10.47092,4.7058c0,0 2.89484,-5.88728 9.19923,-6.11209c21.89007,-0.7806 12.73925,16.37983 19.52302,29.58697c6.78378,13.20714 -2.51326,23.2484 -12.2068,24.57589c-4.67638,2.88447 -17.53605,-5.85399 -17.53605,-5.85399c0,0 -8.87956,8.10885 -15.08288,6.49738c-19.59002,-5.08901 -11.62238,-23.65566 -10.94251,-24.28883z" fill="url(#color-8)" stroke="#000000" stroke-width="0" stroke-linecap="round"/><path d="M323.75389,73.02966l-3.31477,2.99361l-14.25693,2.64952l9.3364,-5.80371l-3.94561,-2.55776l10.06664,-9.0076l-2.2403,7.18633z" fill="#4f0c55" stroke="#000000" stroke-width="0" stroke-linecap="round"/><path d="M342.97354,85.15902c2.27946,2.668 0.086,6.6255 -0.21425,8.51362c-0.83171,5.23026 -12.84844,5.68386 -12.84844,5.68386c0,0 -5.81966,-2.06562 -12.24582,-1.81872c-6.42614,0.2469 -7.6533,3.09623 -12.78043,2.8578c-5.12712,-0.23842 -9.92098,-3.91349 -9.92098,-3.91349c0,0 -5.44805,-1.47111 -3.56218,-8.27667c1.88588,-6.80555 7.06641,-10.0676 12.14994,-11.52835c5.08353,-1.46073 11.52518,0.70509 13.80356,0.77897c2.27838,0.0739 9.08028,-2.61521 14.30946,-1.0699c5.22918,1.54533 8.43858,5.41302 11.30913,8.77286z" fill="url(#color-9)" stroke="#000000" stroke-width="0" stroke-linecap="round"/><path d="M347.40593,77.51641c0.18373,1.73229 -0.26417,3.1999 -1.0004,3.27798c-0.73623,0.07809 -1.48199,-1.26292 -1.66571,-2.99522c-0.18373,-1.73229 0.26416,-3.1999 1.00038,-3.27798c0.73623,-0.07809 1.482,1.26292 1.66573,2.99521z" fill="#334a05" stroke="none" stroke-width="0" stroke-linecap="butt"/><path d="M301.59389,173.33945c0,0 3.50283,4.95885 7.40923,6.12322c10.78201,3.21377 18.69241,0.04624 22.70627,-0.8689c4.01386,-0.91514 6.20291,-6.44853 6.87457,-7.06905c0.67166,-0.62053 5.82381,-1.52479 5.82381,-1.52479c0,0 -1.96736,19.03349 -9.92906,23.80986c-7.96171,4.77638 -24.92055,3.98783 -28.76482,2.89008c-10.10998,-2.88695 -9.88752,-23.15857 -9.88752,-23.15857z" fill="#eedd0b" stroke="#000000" stroke-width="0" stroke-linecap="round"/><path d="M297.575,191.60104c7.01288,1.17607 18.59492,1.591 24.36172,1.82447c7.21436,0.29208 13.12251,-1.10816 20.02689,-2.72546c2.34305,-0.54884 5.82181,-4.32525 5.82181,-4.32525l2.61796,9.8697c0,0 -5.31121,3.08947 -5.72201,2.94623c-14.34882,3.47955 -25.77103,2.98364 -41.19111,0.9578c-1.98064,-0.26021 -9.4908,0.40101 -11.79207,-1.40217c-4.04252,-3.16754 -1.63668,-11.23077 -1.18196,-11.16419c0.77157,0.01921 1.554,2.30168 1.554,2.30168c0,0 4.68907,1.58041 5.50479,1.7172z" fill="#000000" stroke="none" stroke-width="0.5" stroke-linecap="butt"/><path d="M323.08682,198.54975c0,0 -1.37544,-0.39422 -0.91277,-1.47231c0.46268,-1.07809 1.83813,-0.68387 1.83813,-0.68387c0.76435,0.22182 1.54753,0.41501 2.34318,0.54402c0.11251,-0.87326 0.17872,-1.75658 -0.20196,-2.44545c-2.95495,0.53589 -5.80211,-0.3968 -8.75754,-0.65825l-1.14781,0.02625c1.25855,2.49887 -0.06745,5.19204 1.2901,7.55256c0.299,0.51989 1.41912,-0.13573 2.10732,-0.27543c1.53854,-0.3123 3.10944,-0.57523 4.70239,-0.65117c0.60516,-0.02885 1.23233,-0.11698 1.82194,0.01066c0.27062,0.05858 0.42057,0.69359 0.55762,0.50444c0.36974,-0.51032 -0.17445,-1.1378 -0.42248,-1.74822c-1.09291,-0.1547 -2.16924,-0.40584 -3.21811,-0.70323zM314.32666,192.67172c-0.00502,-1.0684 1.37556,-1.09758 1.37556,-1.09758l1.73848,-0.03408c3.42195,0.29289 6.55285,0.77898 9.99925,0.92138c0.58377,0.63599 1.41402,1.17213 1.75134,1.90796c0.26397,0.57585 -0.05055,1.21349 -0.04194,1.82103c0.02609,1.84152 0.94064,5.4234 -0.8852,6.78941c-0.58652,0.4388 -1.62822,-0.1678 -2.4455,-0.21213c-0.96473,-0.05232 -3.35887,0.13382 -3.91176,0.21206c-1.98301,0.28062 -4.62175,1.55142 -6.49584,-0.04951c-2.45074,-2.09351 -0.28907,-6.19192 -2.03651,-8.57784c0,0 -0.71652,-1.01266 0.54542,-1.55324c0.14262,-0.06109 0.27828,-0.10234 0.40671,-0.12746z" fill="#b5b5b5" stroke="none" stroke-width="0.5" stroke-linecap="butt"/><path d="M336.24421,196.09626c0.23068,0.77212 -0.21609,1.58273 -0.99788,1.81055c-0.7818,0.22782 -1.60256,-0.21342 -1.83324,-0.98554c-0.23068,-0.77212 0.21609,-1.58272 0.99789,-1.81054c0.7818,-0.22782 1.60256,0.21341 1.83323,0.98553z" fill="#b5b5b5" stroke="none" stroke-width="0" stroke-linecap="butt"/><g fill="#334a05" stroke="none" stroke-width="0" stroke-linecap="butt"><path d="M291.78977,81.46158c-0.24593,3.3231 -1.05199,6.12046 -1.8004,6.24806c-0.74841,0.12759 -1.15577,-2.46288 -0.90983,-5.78598c0.24593,-3.3231 1.05199,-6.12045 1.8004,-6.24804c0.74841,-0.12759 1.15576,2.46288 0.90983,5.78598z"/><path d="M295.11133,75.35702c0.35979,1.22086 0.18253,3.12486 -0.39594,4.25267c-0.57847,1.12781 -1.33909,1.0524 -1.69888,-0.16846c-0.35979,-1.22086 -0.18254,-3.12484 0.39593,-4.25265c0.57847,-1.12781 1.33909,-1.0524 1.6989,0.16846z"/><path d="M293.83429,72.3589c0.19835,0.37136 0.15714,0.93388 -0.09203,1.25638c-0.24918,0.32252 -0.61198,0.28292 -0.81031,-0.08844c-0.19835,-0.37136 -0.15715,-0.93388 0.09201,-1.25639c0.24918,-0.32252 0.61198,-0.28291 0.81032,0.08846z"/></g><g stroke-width="0"><path d="M317.3918,66.13326c0,4.84859 -4.17969,8.77916 -9.33559,8.77916c-5.1559,0 -9.33559,-3.93056 -9.33559,-8.77916c0,-4.84859 4.17969,-8.77917 9.33559,-8.77917c5.1559,0 9.33559,3.93056 9.33559,8.77917z" fill="#000000" stroke="none" stroke-linecap="butt"/><path d="M316.30942,66.47175c0,4.1303 -3.5605,7.47857 -7.95257,7.47857c-4.39208,0 -7.95257,-3.34827 -7.95257,-7.47857c0,-4.1303 3.56049,-7.47857 7.95257,-7.47857c4.39208,0 7.95257,3.34827 7.95257,7.47857z" fill="#ffffff" stroke="none" stroke-linecap="butt"/><path d="M300.75414,64.55894c0,0 0.68271,-5.98223 7.94825,-5.76167c7.29054,0.22132 7.58746,6.25365 7.58746,6.25365c0,0 -2.49438,-4.80017 -7.70355,-4.66609c-6.53694,-0.11567 -7.83217,4.1741 -7.83217,4.1741z" fill="#6833d2" stroke="#000000" stroke-linecap="round"/></g><g stroke-width="0"><path d="M338.81771,66.15121c-0.33696,4.83689 -4.77969,8.46747 -9.92313,8.10916c-5.14344,-0.35832 -9.03987,-4.56984 -8.70291,-9.40673c0.33696,-4.83689 4.77969,-8.46746 9.92314,-8.10914c5.14344,0.35832 9.03986,4.56983 8.7029,9.40671z" fill="#000000" stroke="none" stroke-linecap="butt"/><path d="M337.71446,66.41366c-0.28703,4.12032 -4.0716,7.21306 -8.45308,6.90783c-4.38147,-0.30524 -7.70066,-3.89285 -7.41362,-8.01317c0.28703,-4.12032 4.07162,-7.21306 8.45308,-6.90783c4.38146,0.30524 7.70065,3.89285 7.41362,8.01317z" fill="#ffffff" stroke="none" stroke-linecap="butt"/><path d="M330.65916,58.10291c7.25754,0.72746 7.13452,6.76582 7.13452,6.76582c0,0 -2.26782,-5.24453 -7.97238,-5.26741c-5.3891,-0.3649 -7.49159,3.69694 -7.49159,3.69694c0,0 1.0968,-5.92032 8.32946,-5.19535z" fill="#6833d2" stroke="#000000" stroke-linecap="round"/></g><g stroke="none" stroke-width="0" stroke-linecap="butt"><path d="M311.75658,70.24629c-1.87946,1.75051 -4.86116,1.60407 -6.65986,-0.32711c-1.7987,-1.93117 -1.73321,-4.91577 0.14622,-6.66628c1.87946,-1.75051 4.86115,-1.60407 6.65984,0.32711c1.7987,1.93117 1.73323,4.91577 -0.14622,6.66628z" fill="url(#color-10)"/><path d="M310.34497,68.76878c-1.04134,0.9699 -2.69339,0.88875 -3.68997,-0.18124c-0.9966,-1.07 -0.96032,-2.72363 0.08102,-3.69353c1.04134,-0.9699 2.69339,-0.88876 3.68996,0.18123c0.9966,1.07 0.96032,2.72364 -0.08101,3.69353z" fill="#000000"/><path d="M311.96549,65.73713c-0.31036,0.28908 -0.80934,0.25784 -1.11448,-0.06978c-0.30514,-0.32761 -0.30091,-0.82752 0.00946,-1.11662c0.31036,-0.28908 0.80933,-0.25784 1.11446,0.06978c0.30514,0.32761 0.3009,0.82752 -0.00946,1.11661z" fill="#ffffff"/></g><g stroke="none" stroke-width="0" stroke-linecap="butt"><path d="M332.78451,69.54537c-1.87946,1.75051 -4.86116,1.60407 -6.65986,-0.32711c-1.7987,-1.93117 -1.73321,-4.91577 0.14622,-6.66628c1.87946,-1.75051 4.86116,-1.60407 6.65986,0.32711c1.7987,1.93117 1.73321,4.91577 -0.14622,6.66628z" fill="url(#color-11)"/><path d="M331.37296,68.06785c-1.04134,0.9699 -2.69339,0.88875 -3.68997,-0.18124c-0.9966,-1.07 -0.96032,-2.72363 0.08102,-3.69353c1.04134,-0.9699 2.69339,-0.88876 3.68997,0.18123c0.9966,1.07 0.96032,2.72364 -0.08101,3.69353z" fill="#000000"/><path d="M332.99342,65.0362c-0.31036,0.28908 -0.80934,0.25784 -1.11448,-0.06977c-0.30514,-0.32761 -0.3009,-0.82752 0.00948,-1.11662c0.31036,-0.28908 0.80933,-0.25784 1.11446,0.06977c0.30514,0.32761 0.3009,0.82753 -0.00946,1.11661z" fill="#ffffff"/></g><path d="M299.25248,56.03797c0,0 2.7232,-4.42683 7.81763,-5.02146c4.36723,-0.50975 8.47637,4.28031 8.47637,4.28031c0,0 -4.32943,-3.216 -8.53396,-2.57543c-4.22231,0.64328 -7.76004,3.31658 -7.76004,3.31658z" fill="#000000" stroke="#000000" stroke-width="0" stroke-linecap="round"/><path d="M330.15253,51.6891c-4.20453,-0.64057 -8.53397,2.57542 -8.53397,2.57542c0,0 4.10914,-4.79005 8.47637,-4.2803c5.09443,0.59464 7.81763,5.02146 7.81763,5.02146c0,0 -3.53771,-2.6733 -7.76004,-3.31658z" data-paper-data="{&quot;index&quot;:null}" fill="#000000" stroke="#000000" stroke-width="0" stroke-linecap="round"/><path d="M344.0666,194.58226c0.23068,0.77212 -0.21609,1.58273 -0.99788,1.81055c-0.7818,0.22782 -1.60256,-0.21342 -1.83324,-0.98554c-0.23068,-0.77212 0.21609,-1.58272 0.99789,-1.81054c0.7818,-0.22782 1.60256,0.21341 1.83323,0.98553z" fill="#b5b5b5" stroke="none" stroke-width="0" stroke-linecap="butt"/><path d="M349.95442,191.47012c0.23068,0.77212 -0.21609,1.58273 -0.99788,1.81055c-0.7818,0.22782 -1.60256,-0.21342 -1.83324,-0.98554c-0.23068,-0.77212 0.21609,-1.58272 0.99789,-1.81054c0.7818,-0.22782 1.60256,0.21341 1.83323,0.98553z" fill="#b5b5b5" stroke="none" stroke-width="0" stroke-linecap="butt"/><path d="M309.07612,196.18038c0.23068,0.77212 -0.21609,1.58273 -0.99788,1.81055c-0.7818,0.22782 -1.60256,-0.21342 -1.83324,-0.98554c-0.23068,-0.77212 0.21609,-1.58272 0.99789,-1.81054c0.7818,-0.22782 1.60256,0.21341 1.83323,0.98553z" fill="#b5b5b5" stroke="none" stroke-width="0" stroke-linecap="butt"/><path d="M300.58081,195.17104c0.23068,0.77212 -0.21609,1.58273 -0.99788,1.81055c-0.7818,0.22782 -1.60256,-0.21342 -1.83324,-0.98554c-0.23068,-0.77212 0.21609,-1.58272 0.99789,-1.81054c0.7818,-0.22782 1.60256,0.21341 1.83323,0.98553z" fill="#b5b5b5" stroke="none" stroke-width="0" stroke-linecap="butt"/><path d="M292.75844,193.15236c0.23068,0.77212 -0.21609,1.58273 -0.99788,1.81055c-0.7818,0.22782 -1.60256,-0.21342 -1.83324,-0.98554c-0.23068,-0.77212 0.21609,-1.58272 0.99789,-1.81054c0.7818,-0.22782 1.60256,0.21341 1.83323,0.98553z" fill="#b5b5b5" stroke="none" stroke-width="0" stroke-linecap="butt"/><g><g data-paper-data="{&quot;index&quot;:null}"><path d="M421.04833,182.02877c0,0 0.2869,3.55092 -5.08521,4.91961c-13.16339,3.35373 -12.60868,-1.90988 -12.60868,-1.90988c0,0 6.20285,-4.77085 9.28425,-5.17754c2.93437,-0.38728 8.40964,2.16781 8.40964,2.16781z" fill="#213d0e" stroke="#000000" stroke-width="0" stroke-linecap="round"/><path d="M414.83651,180.46953c0,0 6.65499,5.36024 8.98858,10.08923c2.33359,4.72899 4.86117,17.97716 4.86117,17.97716l-8.1631,3.57709c0,0 -8.54998,-6.82234 -11.39279,-12.91144c-2.8428,-6.08909 -2.82385,-17.53967 -2.82385,-17.53967z" fill="#602263" stroke="#000000" stroke-width="0" stroke-linecap="round"/><path d="M420.39085,177.84212c0.45591,0 0.82548,0.51331 0.82548,1.1465c0,0.6332 -0.36959,1.1465 -0.82548,1.1465c-0.45589,0 -0.82548,-0.51331 -0.82548,-1.1465c0,-0.6332 0.36959,-1.1465 0.82548,-1.1465z" fill="#b5b5b5" stroke="none" stroke-width="0" stroke-linecap="butt"/><path d="M392.53749,123.44075c6.38824,0 11.56694,5.58934 11.56694,12.48414c0,6.8948 -5.1787,12.48414 -11.56694,12.48414c-6.38824,0 -11.56694,-5.58934 -11.56694,-12.48414c0,-6.8948 5.1787,-12.48414 11.56694,-12.48414z" fill="url(#color-12)" stroke="none" stroke-width="0" stroke-linecap="butt"/><path d="M373.54257,97.29095c0,0 8.24775,7.00868 12.17852,11.35811c4.58085,5.06876 13.65601,17.22802 13.65601,17.22802c0,0 -3.9273,6.24314 -6.98508,9.09184c-2.89515,2.69719 -10.90037,7.57067 -10.90037,7.57067c0,0 -10.0874,-9.61926 -14.89546,-15.15581c-5.24339,-6.03784 -15.37222,-19.69788 -15.37222,-19.69788z" fill="url(#color-13)" stroke="#000000" stroke-width="0" stroke-linecap="round"/><path d="M392.80381,118.38661l-16.81537,-21.09566" fill="none" stroke="none" stroke-width="0" stroke-linecap="round"/><path d="M377.30239,100.48056c0.20509,0.10254 0.10254,0.30764 0.10254,0.30764l-0.08947,0.17379c-0.34137,1.00482 -0.65904,2.00309 -1.01031,3.02156c0.0124,1.1263 8.91949,12.32742 14.00847,16.10526c2.20275,1.63523 2.94479,-0.93614 3.17832,-1.64118c0,0 0.07251,-0.21753 0.29005,-0.14502c0.21753,0.07251 0.14502,0.29005 0.14502,0.29005c-0.30421,0.90744 -1.37625,4.08594 -3.48962,2.74003c-4.1856,-2.66561 -10.96665,-12.05822 -13.53157,-14.84092c-2.05612,-2.2307 -1.05894,-1.93717 -1.05336,-2.58168c0.33954,-1.04732 0.69269,-2.06366 1.02791,-3.09312l0.11436,-0.23386c0,0 0.10254,-0.20509 0.30764,-0.10254z" fill="#303421" stroke="none" stroke-width="0.5" stroke-linecap="butt"/><path d="M401.85838,130.50716c0,0 5.61551,8.74882 8.51653,14.71694c5.31237,10.92886 10.07309,36.7311 10.07309,36.7311c0,0 -6.03572,-0.90573 -9.84251,-0.37281c-3.8068,0.53291 -7.23663,4.93872 -7.23663,4.93872c0,0 -1.24764,-1.88032 -3.03492,-4.66965c-3.86966,-6.03921 -10.26906,-16.33956 -12.01266,-21.04284c-2.77972,-7.49812 -7.54784,-19.46881 -7.54784,-19.46881c0,0 -0.26747,-8.02578 11.65311,-10.62249c3.65832,-0.79691 9.43182,-0.21015 9.43182,-0.21015z" fill="url(#color-14)" stroke="#000000" stroke-width="0" stroke-linecap="round"/><path d="M377.30487,109.41401c1.83802,1.03758 2.52053,3.30911 1.52444,5.0736c-0.99608,1.76448 -3.29357,2.35376 -5.13158,1.31617c-1.83801,-1.03758 -2.52053,-3.30912 -1.52444,-5.07361c0.99608,-1.76448 3.29357,-2.35374 5.13158,-1.31616z" fill="#366517" stroke="none" stroke-width="0" stroke-linecap="butt"/><path d="M402.23535,140.43092c1.59811,-1.24565 3.9455,-0.90595 5.24306,0.75875c1.29756,1.66471 1.05391,4.02401 -0.5442,5.26966c-1.59811,1.24565 -3.94551,0.90594 -5.24306,-0.75877c-1.29756,-1.66471 -1.05389,-4.024 0.54422,-5.26965z" fill="#366517" stroke="none" stroke-width="0" stroke-linecap="butt"/><path d="M401.0957,133.47061c0.82338,1.05636 0.66879,2.55351 -0.34533,3.34395c-1.01412,0.79043 -2.50369,0.57488 -3.32708,-0.48149c-0.82338,-1.05636 -0.66878,-2.5535 0.34533,-3.34395c1.01412,-0.79043 2.50369,-0.57488 3.32707,0.48148z" fill="#366517" stroke="none" stroke-width="0" stroke-linecap="butt"/><path d="M411.6174,178.65465c-4.02006,0.23642 -9.67363,5.2459 -9.67363,5.2459c0,0 -3.8823,-2.56525 -2.65097,-3.96021c3.40097,-3.85289 3.22027,-3.63022 7.36439,-5.47966c4.14412,-1.84945 13.17219,-0.11225 13.41712,1.60224c0.24493,1.7145 0.6242,6.09413 0.6242,6.09413c0,0 -0.82031,-3.98823 -9.08111,-3.5024z" fill="#000000" stroke="#000000" stroke-width="0" stroke-linecap="round"/><path d="M411.77933,174.916c0.68385,0 1.23823,0.51331 1.23823,1.1465c0,0.6332 -0.55437,1.1465 -1.23823,1.1465c-0.68386,0 -1.23822,-0.5133 -1.23822,-1.1465c0,-0.6332 0.55436,-1.1465 1.23822,-1.1465z" fill="#b5b5b5" stroke="none" stroke-width="0" stroke-linecap="butt"/><path d="M406.15111,176.14244c0.68385,0 1.23823,0.51331 1.23823,1.1465c0,0.6332 -0.55437,1.1465 -1.23823,1.1465c-0.68386,0 -1.23822,-0.51331 -1.23822,-1.1465c0,-0.6332 0.55436,-1.1465 1.23822,-1.1465z" fill="#b5b5b5" stroke="none" stroke-width="0" stroke-linecap="butt"/><path d="M401.50667,179.74469c0.68385,0 1.23823,0.51331 1.23823,1.1465c0,0.6332 -0.55437,1.1465 -1.23823,1.1465c-0.68386,0 -1.23822,-0.51331 -1.23822,-1.1465c0,-0.6332 0.55436,-1.1465 1.23822,-1.1465z" fill="#b5b5b5" stroke="none" stroke-width="0" stroke-linecap="butt"/><path d="M417.90754,175.72363c0.68385,0 1.23823,0.51331 1.23823,1.1465c0,0.6332 -0.55437,1.1465 -1.23823,1.1465c-0.68386,0 -1.23822,-0.51331 -1.23822,-1.1465c0,-0.6332 0.55436,-1.1465 1.23822,-1.1465z" fill="#b5b5b5" stroke="none" stroke-width="0" stroke-linecap="butt"/><path d="M349.51155,90.81479l10.85356,-7.64334c0,0 6.77071,-8.7918 14.67524,-13.60517c7.90453,-4.81337 12.0765,-1.83441 12.0765,-1.83441c0,0 -1.85011,9.18685 -3.51594,15.28671c-1.66582,6.09984 -3.18951,13.60511 -7.94909,20.94279c-4.75958,7.33768 -7.63791,9.55063 -14.67524,12.22936c-7.03732,2.67873 -10.05156,-4.18876 -12.9937,-10.70069c-2.94214,-6.51194 1.52867,-14.67524 1.52867,-14.67524z" fill="url(#color-15)" stroke="#000000" stroke-width="0" stroke-linecap="round"/></g><g stroke="#000000" stroke-width="0" stroke-linecap="round"><path d="M420.72343,217.50691c1.67721,-5.62255 2.96584,-11.10638 2.96584,-11.10638c0,0 1.67202,-1.04393 3.24177,-0.27605c1.18652,0.58039 1.66,1.36304 1.66,1.36304c0,0 -2.24887,9.72232 -3.41933,14.22397c-0.17752,0.68269 -0.85396,2.3336 -0.85396,2.3336c0,0 -1.60357,-0.82789 -2.26789,-1.45438c-0.78282,-0.73823 -2.13212,-2.69514 -2.13212,-2.69514c0,0 0.56108,-1.56865 0.8057,-2.38867z" fill="#602263"/><path d="M405.66003,206.16615c3.82556,-4.01664 7.1133,-8.09494 7.1133,-8.09494c0,0 2.4482,-0.11577 4.22342,1.26568c1.34182,1.04418 1.7123,1.93063 1.7123,1.93063c0,0 -5.78312,7.24702 -8.62584,10.54273c-0.60129,0.6971 -2.51229,2.57233 -2.51229,2.57233c0,0 -2.5455,-0.84304 -3.52756,-1.55272c-0.92899,-0.67133 -2.21442,-2.59677 -2.21442,-2.59677c0,0 2.53699,-2.70815 3.83111,-4.06694z" fill="#602263"/><path d="M411.89456,211.86133c3.43437,-5.06336 6.28301,-10.09855 6.28301,-10.09855c0,0 2.60102,-0.56087 4.72771,0.63198c1.60749,0.90164 2.14953,1.80352 2.14953,1.80352c0,0 -4.99874,8.93689 -7.49971,13.03887c-0.40159,0.65862 -1.61291,2.38369 -1.61291,2.38369c0,0 -2.77382,-0.7414 -3.79178,-1.4336c-1.09973,-0.74779 -2.58026,-2.89929 -2.58026,-2.89929c0,0 1.55091,-2.28627 2.32437,-3.4266z" fill="#602263"/><path d="M400.59456,215.6666l-7.11673,2.98972l4.84991,-3.93838z" fill="#323232"/><path d="M403.48926,208.63841c0,0 2.71507,-0.13088 3.72475,1.54525c1.00966,1.67615 -0.10181,4.18305 -0.10181,4.18305l-8.51463,2.19381l-1.02851,-1.38975z" fill="#5c840c"/><path d="M409.51731,222.98486l-6.23896,5.21663l3.40919,-5.36006z" fill="#323232"/><path d="M409.47893,215.34416c0,0 2.82774,-1.03139 4.64378,0.22284c1.81604,1.25423 1.7458,4.00601 1.7458,4.00601l-8.07749,4.92789l-1.70912,-0.97598z" fill="#5c840c"/><path d="M416.62908,225.40195l-5.39206,5.38737l3.02902,-5.43668z" fill="#323232"/><path d="M416.84849,217.81322c0,0 2.4,-1.11764 3.87826,0.06847c1.47825,1.18613 1.32888,3.92194 1.32888,3.92194l-6.92088,5.1611l-1.39795,-0.91324z" fill="#5c840c"/><path d="M419.81808,227.39687l-4.82742,5.50121l2.77556,-5.4878z" fill="#323232"/><path d="M420.20934,219.84276c0,0 1.78902,-0.52352 3.04208,0.61719c1.25307,1.14072 1.37676,3.21431 1.37676,3.21431l-6.14984,5.31653l-1.19049,-0.87142z" fill="#5c840c"/><path d="M418.5463,215.32254c2.75831,-5.19965 5.09338,-10.33839 5.09338,-10.33839c0,0 1.90413,-0.70139 3.36772,0.35778c1.10629,0.80059 1.44559,1.66155 1.44559,1.66155c0,0 -4.10326,9.11744 -6.13531,13.31396c-0.30057,0.62075 -1.26614,2.0714 -1.26614,2.0714c0,0 -1.40271,-2.44747 -2.04945,-3.1253c-0.71972,-0.75432 -2.07336,-1.19574 -2.07336,-1.19574c0,0 1.1083,-1.78525 1.61758,-2.74528z" fill="#602263"/></g><g stroke="#000000" stroke-width="0" stroke-linecap="round"><path d="M399.80508,192.17313c2.25059,-2.35951 11.22905,-8.86687 11.75199,-3.22445c0.35337,3.81264 -3.58579,6.28949 -5.42047,8.15895c-1.33751,1.36283 -3.09176,5.12306 -3.09176,5.12306c0,0 -3.46358,0.10917 -5.04349,-1.24964c-0.80032,-0.68833 -0.92346,-1.75713 -0.92346,-1.75713c0,0 0.47657,-4.6912 2.72717,-7.05074z" fill="#602263"/><path d="M400.87572,207.95787l-1.4108,6.82647l-0.69289,-8.58479z" data-paper-data="{&quot;index&quot;:null}" fill="#323232"/><path d="M400.81676,208.94194l-1.90479,-0.30518l-2.19914,-9.56079c0,0 1.91254,-2.38828 4.09132,-2.24883c2.17879,0.13945 3.44333,2.89612 3.44333,2.89612z" data-paper-data="{&quot;index&quot;:null}" fill="#5d860c"/></g></g><g data-paper-data="{&quot;index&quot;:null}"><g data-paper-data="{&quot;index&quot;:null}"><path d="M227.36135,180.52762c3.0814,0.40669 9.28425,5.17754 9.28425,5.17754c0,0 0.55471,5.26361 -12.60868,1.90988c-5.37211,-1.36869 -5.08521,-4.91961 -5.08521,-4.91961c0,0 5.47527,-2.55509 8.40964,-2.16781z" fill="#213d0e" stroke="#000000" stroke-width="0" stroke-linecap="round"/><path d="M233.69352,182.32856c0,0 0.01895,11.45057 -2.82385,17.53967c-2.8428,6.08909 -11.39279,12.91144 -11.39279,12.91144l-8.1631,-3.57709c0,0 2.52758,-13.24817 4.86117,-17.97716c2.33359,-4.72899 8.98858,-10.08923 8.98858,-10.08923z" fill="#602263" stroke="#000000" stroke-width="0" stroke-linecap="round"/><path d="M220.43467,179.65528c0,0.63319 -0.36959,1.1465 -0.82548,1.1465c-0.45589,0 -0.82548,-0.5133 -0.82548,-1.1465c0,-0.63319 0.36957,-1.1465 0.82548,-1.1465c0.45589,0 0.82548,0.5133 0.82548,1.1465z" fill="#b5b5b5" stroke="none" stroke-width="0" stroke-linecap="butt"/><path d="M259.02949,136.59155c0,6.8948 -5.1787,12.48414 -11.56694,12.48414c-6.38824,0 -11.56694,-5.58934 -11.56694,-12.48414c0,-6.8948 5.1787,-12.48414 11.56694,-12.48414c6.38824,0 11.56694,5.58934 11.56694,12.48414z" fill="url(#color-16)" stroke="none" stroke-width="0" stroke-linecap="butt"/><path d="M288.77607,108.35256c0,0 -10.12883,13.66004 -15.37222,19.69788c-4.80806,5.53655 -14.89546,15.15581 -14.89546,15.15581c0,0 -8.00522,-4.87348 -10.90037,-7.57067c-3.05778,-2.8487 -6.98508,-9.09184 -6.98508,-9.09184c0,0 9.07516,-12.15926 13.65601,-17.22802c3.93077,-4.34943 12.17852,-11.35811 12.17852,-11.35811z" fill="url(#color-17)" stroke="#000000" stroke-width="0" stroke-linecap="round"/><path d="M264.01159,97.95761l-16.81537,21.09566" fill="none" stroke="none" stroke-width="0" stroke-linecap="round"/><path d="M262.69766,101.14723c0.2051,-0.10255 0.30764,0.10254 0.30764,0.10254l0.11436,0.23386c0.33522,1.02946 0.68837,2.0458 1.02791,3.09312c0.00558,0.64451 1.00276,0.35098 -1.05336,2.58168c-2.56492,2.7827 -9.34597,12.17531 -13.53157,14.84092c-2.11337,1.34591 -3.18541,-1.83259 -3.48962,-2.74003c0,0 -0.07251,-0.21754 0.14502,-0.29005c0.21754,-0.07251 0.29005,0.14502 0.29005,0.14502c0.23353,0.70504 0.97557,3.27641 3.17832,1.64118c5.08898,-3.77784 13.99607,-14.97896 14.00847,-16.10526c-0.35127,-1.01847 -0.66894,-2.01674 -1.01031,-3.02156l-0.08947,-0.17379c0,0 -0.10255,-0.2051 0.10254,-0.30764z" fill="#303421" stroke="none" stroke-width="0.5" stroke-linecap="butt"/><path d="M238.14167,131.17383c0,0 5.7735,-0.58676 9.43182,0.21015c11.92058,2.59671 11.65311,10.62249 11.65311,10.62249c0,0 -4.76812,11.97069 -7.54784,19.46881c-1.7436,4.70328 -8.14299,15.00364 -12.01266,21.04285c-1.78728,2.78933 -3.03492,4.66965 -3.03492,4.66965c0,0 -3.42983,-4.40581 -7.23663,-4.93872c-3.80679,-0.53292 -9.84251,0.37281 -9.84251,0.37281c0,0 4.76072,-25.80224 10.07309,-36.7311c2.90102,-5.96812 8.51653,-14.71694 8.51653,-14.71694z" fill="url(#color-18)" stroke="#000000" stroke-width="0" stroke-linecap="round"/><path d="M267.82675,111.39683c0.99609,1.76449 0.31357,4.03603 -1.52444,5.07361c-1.83801,1.03759 -4.1355,0.44831 -5.13158,-1.31617c-0.99609,-1.76449 -0.31358,-4.03602 1.52444,-5.0736c1.83801,-1.03758 4.1355,-0.44832 5.13158,1.31616z" fill="#366517" stroke="none" stroke-width="0" stroke-linecap="butt"/><path d="M237.76466,141.09757c1.59811,1.24565 1.84178,3.60494 0.54422,5.26965c-1.29755,1.66471 -3.64495,2.00442 -5.24306,0.75877c-1.59811,-1.24565 -1.84176,-3.60495 -0.5442,-5.26966c1.29756,-1.6647 3.64495,-2.0044 5.24306,-0.75875z" fill="#366517" stroke="none" stroke-width="0" stroke-linecap="butt"/><path d="M238.90434,134.13726c0.82338,-1.05636 2.31295,-1.27191 3.32707,-0.48148c1.01411,0.79045 1.16871,2.28759 0.34533,3.34395c-0.82339,1.05637 -2.31296,1.27192 -3.32708,0.48149c-1.01412,-0.79044 -1.16871,-2.28759 -0.34533,-3.34395z" fill="#366517" stroke="none" stroke-width="0" stroke-linecap="butt"/><path d="M219.30153,182.82371c0,0 0.37927,-4.37963 0.6242,-6.09413c0.24493,-1.71449 9.273,-3.45169 13.41712,-1.60224c4.14412,1.84944 3.96342,1.62677 7.36439,5.47966c1.23133,1.39496 -2.65097,3.96021 -2.65097,3.96021c0,0 -5.65357,-5.00948 -9.67363,-5.2459c-8.26081,-0.48583 -9.08111,3.5024 -9.08111,3.5024z" fill="#000000" stroke="#000000" stroke-width="0" stroke-linecap="round"/><path d="M229.45893,176.72916c0,0.6332 -0.55436,1.1465 -1.23822,1.1465c-0.68386,0 -1.23823,-0.5133 -1.23823,-1.1465c0,-0.63319 0.55438,-1.1465 1.23823,-1.1465c0.68386,0 1.23822,0.5133 1.23822,1.1465z" fill="#b5b5b5" stroke="none" stroke-width="0" stroke-linecap="butt"/><path d="M235.08715,177.9556c0,0.63319 -0.55436,1.1465 -1.23822,1.1465c-0.68386,0 -1.23823,-0.5133 -1.23823,-1.1465c0,-0.63319 0.55438,-1.1465 1.23823,-1.1465c0.68386,0 1.23822,0.5133 1.23822,1.1465z" fill="#b5b5b5" stroke="none" stroke-width="0" stroke-linecap="butt"/><path d="M239.73159,181.55785c0,0.63319 -0.55436,1.1465 -1.23822,1.1465c-0.68386,0 -1.23823,-0.5133 -1.23823,-1.1465c0,-0.63319 0.55438,-1.1465 1.23823,-1.1465c0.68386,0 1.23822,0.5133 1.23822,1.1465z" fill="#b5b5b5" stroke="none" stroke-width="0" stroke-linecap="butt"/><path d="M223.33072,177.53679c0,0.63319 -0.55436,1.1465 -1.23822,1.1465c-0.68386,0 -1.23823,-0.5133 -1.23823,-1.1465c0,-0.63319 0.55438,-1.1465 1.23823,-1.1465c0.68386,0 1.23822,0.5133 1.23822,1.1465z" fill="#b5b5b5" stroke="none" stroke-width="0" stroke-linecap="butt"/><path d="M290.48849,91.48146c0,0 4.47081,8.1633 1.52867,14.67524c-2.94214,6.51193 -5.95638,13.37942 -12.9937,10.70069c-7.03733,-2.67873 -9.91566,-4.89168 -14.67524,-12.22936c-4.75958,-7.33768 -6.28327,-14.84295 -7.94909,-20.94279c-1.66583,-6.09986 -3.51594,-15.28671 -3.51594,-15.28671c0,0 4.17197,-2.97896 12.0765,1.83441c7.90453,4.81337 14.67524,13.60517 14.67524,13.60517l10.85356,7.64334z" fill="url(#color-19)" stroke="#000000" stroke-width="0" stroke-linecap="round"/></g><g stroke="#000000" stroke-width="0" stroke-linecap="round"><path d="M220.0823,220.56225c0,0 -1.34931,1.95691 -2.13212,2.69514c-0.66431,0.62649 -2.26789,1.45438 -2.26789,1.45438c0,0 -0.67645,-1.65091 -0.85396,-2.3336c-1.17046,-4.50166 -3.41933,-14.22397 -3.41933,-14.22397c0,0 0.47348,-0.78265 1.66,-1.36305c1.56975,-0.76787 3.24177,0.27606 3.24177,0.27606c0,0 1.28863,5.48383 2.96584,11.10638c0.24462,0.82002 0.8057,2.38867 0.8057,2.38867z" fill="#602263"/><path d="M234.33997,206.83281c1.29412,1.35879 3.83111,4.06694 3.83111,4.06694c0,0 -1.28543,1.92544 -2.21442,2.59677c-0.98206,0.70969 -3.52756,1.55272 -3.52756,1.55272c0,0 -1.911,-1.87523 -2.51229,-2.57233c-2.84272,-3.29571 -8.62584,-10.54273 -8.62584,-10.54273c0,0 0.37048,-0.88645 1.7123,-1.93062c1.77522,-1.38145 4.22342,-1.26568 4.22342,-1.26568c0,0 3.28774,4.07829 7.1133,8.09494z" fill="#602263"/><path d="M228.10551,212.52801c0.77346,1.14033 2.32437,3.4266 2.32437,3.4266c0,0 -1.48053,2.1515 -2.58026,2.8993c-1.01797,0.69219 -3.79178,1.43359 -3.79178,1.43359c0,0 -1.21132,-1.72507 -1.61291,-2.38369c-2.50097,-4.10197 -7.49971,-13.03886 -7.49971,-13.03886c0,0 0.54204,-0.90188 2.14953,-1.80352c2.12669,-1.19285 4.72771,-0.63198 4.72771,-0.63198c0,0 2.84864,5.03519 6.28301,10.09855z" fill="#602263"/><path d="M241.67231,215.3846l4.84991,3.93838l-7.11673,-2.98972z" fill="#323232"/><path d="M242.43098,215.83744l-1.02851,1.38976l-8.51463,-2.19381c0,0 -1.11148,-2.50691 -0.10181,-4.18305c1.00968,-1.67613 3.72475,-1.54525 3.72475,-1.54525z" fill="#5c840c"/><path d="M233.31249,223.50809l3.40919,5.36006l-6.23896,-5.21663z" fill="#323232"/><path d="M233.91814,224.19158l-1.70912,0.97598l-8.07749,-4.92789c0,0 -0.07024,-2.75178 1.7458,-4.00601c1.81604,-1.25423 4.64378,-0.22284 4.64378,-0.22284z" fill="#5c840c"/><path d="M225.734,226.0193l3.02902,5.43668l-5.39206,-5.38737z" fill="#323232"/><path d="M226.26324,226.71816l-1.39795,0.91324l-6.92088,-5.1611c0,0 -0.14937,-2.73582 1.32888,-3.92195c1.47826,-1.18611 3.87826,-0.06847 3.87826,-0.06847z" fill="#5c840c"/><path d="M222.23382,228.07694l2.77556,5.4878l-4.82742,-5.50121z" fill="#323232"/><path d="M222.71218,228.78604l-1.19049,0.87142l-6.14984,-5.31653c0,0 0.12369,-2.07358 1.37676,-3.21431c1.25306,-1.14072 3.04208,-0.61719 3.04208,-0.61719z" fill="#5c840c"/><path d="M221.45374,215.98919c0.50928,0.96004 1.61758,2.74528 1.61758,2.74528c0,0 -1.35364,0.44142 -2.07336,1.19574c-0.64675,0.67783 -2.04945,3.1253 -2.04945,3.1253c0,0 -0.96557,-1.45065 -1.26614,-2.0714c-2.03206,-4.19652 -6.13531,-13.31396 -6.13531,-13.31396c0,0 0.33929,-0.86096 1.44559,-1.66155c1.46359,-1.05917 3.36772,-0.35778 3.36772,-0.35778c0,0 2.33507,5.13874 5.09338,10.33839z" fill="#602263"/></g><g stroke="#000000" stroke-width="0" stroke-linecap="round"><path d="M240.19498,192.83984c2.25059,2.35954 2.72717,7.05074 2.72717,7.05074c0,0 -0.12313,1.0688 -0.92346,1.75713c-1.5799,1.3588 -5.04349,1.24963 -5.04349,1.24963c0,0 -1.75425,-3.76023 -3.09176,-5.12306c-1.83468,-1.86946 -5.77384,-4.34631 -5.42047,-8.15895c0.52294,-5.64242 9.5014,0.86494 11.75199,3.22445z" fill="#602263"/><path d="M241.228,206.86621l-0.69289,8.58479l-1.4108,-6.82646z" data-paper-data="{&quot;index&quot;:null}" fill="#323232"/><path d="M235.75256,200.38993c0,0 1.26454,-2.75667 3.44333,-2.89612c2.17878,-0.13945 4.09132,2.24883 4.09132,2.24883l-2.19914,9.56079l-1.90479,0.30517z" data-paper-data="{&quot;index&quot;:null}" fill="#5d860c"/></g></g><path d="M334.16185,83.26535c0,0 -3.10518,0.10009 -4.97079,-0.14351c-1.86561,-0.24359 -4.75047,-1.12582 -4.75047,-1.12582c0,0 -0.22989,-4.60518 5.14684,-3.80473c5.53278,0.82367 4.57441,5.07406 4.57441,5.07406z" data-paper-data="{&quot;index&quot;:null}" fill="#4f0c55" stroke="#000000" stroke-width="0" stroke-linecap="round"/><path d="M306.33606,78.1733c5.37673,-0.80044 5.14684,3.80473 5.14684,3.80473c0,0 -2.88485,0.88222 -4.75046,1.12582c-1.86561,0.24359 -4.97079,0.14351 -4.97079,0.14351c0,0 -0.95837,-4.25038 4.57441,-5.07406z" data-paper-data="{&quot;index&quot;:null}" fill="#4f0c55" stroke="#000000" stroke-width="0" stroke-linecap="round"/><path d="M303.98877,67.42568c-0.22576,0.72221 -1.07588,1.00476 -1.07588,1.00476l0.20841,-0.63473c-2.54334,-0.46682 -5.22437,-1.48917 -7.48686,-2.94724c-1.19644,-0.77105 -1.6175,-3.55877 -2.72205,-2.10648c0,0 -0.42984,0.55002 -0.85967,0c-0.42984,-0.55002 0,-1.10002 0,-1.10002c0.4185,-0.52475 0.82435,-1.19561 1.49748,-1.22757c0.90924,-0.04317 1.80154,1.37944 2.48913,1.9694c2.06122,1.76858 4.7883,3.42313 7.25392,3.87186l0.35689,0.15893c0,0 0.5644,0.28888 0.33864,1.01109z" fill="#ffdd1f" stroke="none" stroke-width="0.5" stroke-linecap="butt"/><path d="M326.54868,65.89808c0.03613,0.99935 -0.96322,1.03548 -0.96322,1.03548l-0.50938,0.00782c-3.72003,-0.43073 -9.0475,-0.66177 -12.67312,0.21104c0,0 -0.97285,0.23142 -1.20427,-0.74144c-0.23142,-0.97285 0.74144,-1.20427 0.74144,-1.20427c3.89514,-0.91689 9.35927,-0.67339 13.35449,-0.25335l0.21857,-0.0185c0,0 0.99935,-0.03613 1.03548,0.96322z" fill="#ffdd1f" stroke="none" stroke-width="0.5" stroke-linecap="butt"/><path d="M333.25363,66.12887l0.35689,-0.15893c2.46561,-0.44873 5.19269,-2.10329 7.25392,-3.87187c0.68759,-0.58996 1.57989,-2.01257 2.48913,-1.9694c0.67313,0.03196 1.07898,0.70282 1.49748,1.22757c0,0 0.42984,0.55001 0,1.10003c-0.42983,0.55002 -0.85967,0 -0.85967,0c-1.10455,-1.45229 -1.52561,1.33543 -2.72205,2.10648c-2.2625,1.45807 -4.94353,2.48042 -7.48687,2.94724l0.20841,0.63473c0,0 -0.85012,-0.28254 -1.07588,-1.00476c-0.22576,-0.72221 0.33864,-1.01109 0.33864,-1.01109z" data-paper-data="{&quot;index&quot;:null}" fill="#ffdd1f" stroke="none" stroke-width="0.5" stroke-linecap="butt"/><g data-paper-data="{&quot;index&quot;:null}" stroke="#000000" stroke-width="0" stroke-linecap="round"><path d="M330.49278,54.4401l3.44964,8.40141l7.39094,0.80523l-6.00156,5.2504l2.92339,8.42536l-7.91372,-4.9929l-6.31801,3.90288l1.34919,-7.69082l-5.98077,-5.07943l7.36524,-0.78217z" fill="#ffdd1f"/><path d="M330.47272,56.99226l2.44179,6.96658l5.79932,0.58105l-4.61316,3.48108l2.24818,6.76189l-5.94603,-3.80403l-5.07517,3.34819l1.04969,-5.9018l-4.99607,-4.30321l6.30581,-0.40857z" fill="url(#color-20)"/></g><g data-paper-data="{&quot;index&quot;:null}" stroke="#000000" stroke-width="0" stroke-linecap="round"><path d="M311.77668,62.51327l7.799,0.9274l-6.45381,5.11792l1.26908,7.92401l-6.62177,-4.11593l-8.5031,4.99652l3.28025,-8.60683l-6.25748,-5.49501l7.71036,-1.11017l3.93595,-8.18447z" fill="#ffdd1f"/><path d="M310.768,63.5593l6.6827,0.52576l-5.39249,4.33701l0.98909,6.08099l-5.31467,-3.52516l-6.38998,3.8082l2.52858,-6.90919l-4.8216,-3.65392l5.93691,-0.98669l2.90495,-6.34756z" fill="url(#color-21)"/></g></g></g></svg>