<svg version="1.1" xmlns="http://www.w3.org/2000/svg" xmlns:xlink="http://www.w3.org/1999/xlink" width="262.50675" height="152.5" viewBox="0,0,262.50675,152.5"><defs><linearGradient x1="319" y1="105.10059" x2="319" y2="127.10059" gradientUnits="userSpaceOnUse" id="color-1"><stop offset="0" stop-color="#a16461"/><stop offset="1" stop-color="#824243"/></linearGradient><linearGradient x1="240.46951" y1="194.43411" x2="240.46951" y2="217.43062" gradientUnits="userSpaceOnUse" id="color-2"><stop offset="0" stop-color="#600000"/><stop offset="1" stop-color="#4c0003"/></linearGradient><linearGradient x1="244.32727" y1="190.32962" x2="244.32727" y2="231.13118" gradientUnits="userSpaceOnUse" id="color-3"><stop offset="0" stop-color="#960000"/><stop offset="1" stop-color="#4c0003"/></linearGradient><radialGradient cx="218.55311" cy="149.98607" r="16.78745" gradientUnits="userSpaceOnUse" id="color-4"><stop offset="0" stop-color="#d6030a"/><stop offset="1" stop-color="#b81c1a"/></radialGradient><linearGradient x1="234.87939" y1="144.65453" x2="234.87939" y2="244.96168" gradientUnits="userSpaceOnUse" id="color-5"><stop offset="0" stop-color="#d0060c"/><stop offset="1" stop-color="#600000"/></linearGradient></defs><g transform="translate(-188.75,-103.75)"><g data-paper-data="{&quot;isPaintingLayer&quot;:true}" fill-rule="nonzero" stroke-linejoin="miter" stroke-miterlimit="10" stroke-dasharray="" stroke-dashoffset="0" style="mix-blend-mode: normal"><path d="M190.75,254.25v-148.5h258l0.5,148.5z" fill="#be5a5a" stroke="#ffffff" stroke-width="4" stroke-linecap="butt"/><path d="M190,127.10059v-22h258v22z" fill="url(#color-1)" stroke="none" stroke-width="0" stroke-linecap="butt"/><text transform="translate(196.5,122.59217) scale(0.37072,0.37072)" font-size="40" xml:space="preserve" fill="#000000" fill-rule="nonzero" stroke="none" stroke-width="1" stroke-linecap="butt" stroke-linejoin="miter" stroke-miterlimit="10" stroke-dasharray="" stroke-dashoffset="0" font-family="Sans Serif" font-weight="normal" text-anchor="start" style="mix-blend-mode: normal"><tspan x="0" dy="0">Redman.exe</tspan></text><text transform="translate(293,159.22559) scale(0.61918,0.61918)" font-size="40" xml:space="preserve" fill="#000000" fill-rule="nonzero" stroke="none" stroke-width="1" stroke-linecap="butt" stroke-linejoin="miter" stroke-miterlimit="10" stroke-dasharray="" stroke-dashoffset="0" font-family="Serif" font-weight="normal" text-anchor="start" style="mix-blend-mode: normal"><tspan x="0" dy="0">INCOMING</tspan></text><path d="M285,193.60059v-19h140.5v19z" fill="none" stroke="#000000" stroke-width="2.5" stroke-linecap="butt"/><path d="M190.75,254.25v-148.5h258l0.5,148.5z" fill="none" stroke="#ffffff" stroke-width="4" stroke-linecap="butt"/><g><g fill="none" stroke="none" stroke-width="1" stroke-linecap="butt" font-family="sans-serif" font-weight="normal" font-size="12" text-anchor="start"/><g stroke="#000000" stroke-width="0"><path d="M251.7378,202.71285l-22.53659,14.71777l9.65853,-22.99651" fill="url(#color-2)" stroke-linecap="round"/><path d="M227.52175,224.67949c0,0 9.62096,-0.76617 12.87805,-4.79469c3.25709,-4.02851 4.15795,-9.97003 4.5993,-16.82203c0.44135,-6.852 -3.21951,-4.5993 -3.21951,-4.5993l18.05693,-8.13385c0,0 2.67445,11.37341 0.34028,17.79239c-2.33417,6.41898 -6.07853,17.02364 -15.37309,21.73637c-9.29456,4.71274 -17.28196,-5.17889 -17.28196,-5.17889z" fill="url(#color-3)" stroke-linecap="round"/><path d="M235.34056,149.98607c0,3.20573 -11.11628,14.94773 -16.78745,14.94773c-9.27146,0 -16.78746,-6.69233 -16.78746,-14.94773c0,-8.2554 7.516,-14.94774 16.78746,-14.94774c9.27146,0 16.78745,6.69233 16.78745,14.94774z" fill="url(#color-4)" stroke-linecap="butt"/><path d="M235.34055,144.69688c18.64783,-1.35858 41.20173,30.30605 25.7561,46.91289c-7.24024,7.78457 -26.67596,9.1986 -26.67596,9.1986c0,0 -10.83075,7.00071 -12.41812,17.47735c-1.58736,10.47664 5.05924,26.67596 5.05924,26.67596c0,0 -21.82802,-18.07217 -22.99651,-27.59582c-2.52942,-20.61578 4.58185,-19.40344 5.51916,-28.05575c2.53027,-14.50537 -12.30063,-41.84065 25.7561,-44.61324z" fill="url(#color-5)" stroke-linecap="round"/><path d="M241.31612,171.13044c0,3.9056 -2.02814,10.39143 -4.40644,13.18923c-2.85864,3.36287 -6.41376,2.66817 -10.09706,2.66817c-6.74769,0 -11.21779,-6.68598 -11.21779,-15.28598c0,-8.60001 4.47009,-13.42883 11.21779,-13.42883c6.74769,0 14.5035,4.25739 14.5035,12.8574z" fill="#000000" stroke-linecap="butt"/><path d="M254.44889,172.99743c0,1.42936 -0.30847,3.92356 -1.56992,5.27526c-1.48252,1.5886 -4.06346,1.92593 -5.79099,1.92593c-3.19744,0 -5.36091,-3.80624 -5.36091,-6.91547c0,-3.10923 2.44918,-7.77262 5.64662,-7.77262c1.38558,0 3.97002,-0.41 4.99697,0.83547c1.3429,1.62864 2.07822,4.88956 2.07822,6.65144z" fill="#000000" stroke-linecap="butt"/></g></g></g></g></svg>