<svg version="1.1" xmlns="http://www.w3.org/2000/svg" xmlns:xlink="http://www.w3.org/1999/xlink" width="89.63942" height="85.37989" viewBox="0,0,89.63942,85.37989"><defs><radialGradient cx="319.4981" cy="157.62058" r="54.1734" gradientUnits="userSpaceOnUse" id="color-1"><stop offset="0" stop-color="#000000"/><stop offset="1" stop-color="#0e0e0e"/></radialGradient><radialGradient cx="315.02703" cy="192.03196" r="32.20592" gradientUnits="userSpaceOnUse" id="color-2"><stop offset="0" stop-color="#eeaa2d"/><stop offset="1" stop-color="#8e5800"/></radialGradient><radialGradient cx="318.91761" cy="198.91468" r="25.80833" gradientUnits="userSpaceOnUse" id="color-3"><stop offset="0" stop-color="#eeaa2d"/><stop offset="1" stop-color="#8e5800"/></radialGradient><radialGradient cx="321.5111" cy="165.76827" r="36.53382" gradientUnits="userSpaceOnUse" id="color-4"><stop offset="0" stop-color="#000000"/><stop offset="1" stop-color="#0e0e0e"/></radialGradient></defs><g transform="translate(-275.18029,-137.31011)"><g data-paper-data="{&quot;isPaintingLayer&quot;:true}" fill-rule="nonzero" stroke-linejoin="miter" stroke-miterlimit="10" stroke-dasharray="" stroke-dashoffset="0" style="mix-blend-mode: normal"><path d="M275.9303,221.94v-83.87989h88.13942v83.87989z" fill="#000000" stroke="#ffffff" stroke-width="0" stroke-linecap="butt"/><path d="" fill="#000000" stroke="none" stroke-width="0.5" stroke-linecap="butt"/><g><path d="M326.88485,155.72757c27.26042,0.68518 21.47182,-16.18135 23.62539,-17.51349c5.48033,-3.38999 15.39665,14.34689 11.79901,36.83653c-0.54966,3.43605 -2.8479,6.92273 -4.80092,10.76715c-1.26863,2.49723 0.1885,5.44086 -1.49118,7.95953c-2.7519,4.12645 -11.05184,18.38037 -14.86484,22.06054c-1.69067,1.70579 -1.38644,-0.66842 -3.33283,0.38212c-2.9532,1.59395 -5.50774,4.41869 -6.89073,5.07463c-2.39822,1.13747 -1.65258,1.16106 -4.57821,-0.37957c-2.37171,-1.24894 -9.77329,1.45443 -13.56432,1.18274c-5.96066,-0.00974 -13.37756,-6.34932 -16.24043,-8.01455c-2.78338,-1.61899 -0.36123,7.85229 -3.78795,7.11494c-1.96341,-0.42247 -1.61861,-13.41011 -2.769,-15.19249c-6.36438,-9.86075 -11.33094,-22.40254 -12.76581,-34.42928c-1.74145,-12.31309 2.74705,-33.01612 2.74705,-33.01612l19.81046,-0.32013c0,0 1.81696,2.39388 2.72832,3.76185c6.28617,9.4357 24.37601,13.72559 24.37601,13.72559z" fill="url(#color-1)" stroke="#000000" stroke-width="0" stroke-linecap="round"/><path d="M291.3157,169.51033c5.45707,-4.29643 14.78869,-7.03251 30.73656,-4.20039c32.35161,5.7452 25.3803,32.15556 25.3803,32.15556c0,0 -5.62596,25.50131 -34.41397,20.86347c-26.32708,-4.24137 -29.35942,-32.47819 -29.35942,-32.47819c0,0 -0.5045,-9.91513 7.65653,-16.34045z" fill="url(#color-2)" stroke="#000000" stroke-width="0" stroke-linecap="round"/><path d="M335.87053,195.32866c4.1717,0.50092 8.74029,6.333 4.29849,10.92296c-4.29846,4.51829 -14.25246,8.3048 -25.79826,6.93886c-10.1041,-1.19538 -20.28496,-8.22622 -22.94048,-11.7915c-2.65552,-3.56528 -0.33874,-11.53293 7.28217,-10.74026c7.6209,0.79267 10.06454,7.61704 17.47233,8.49458c7.40779,0.87751 15.51399,-4.32557 19.68572,-3.82466z" fill="url(#color-3)" stroke="#000000" stroke-width="0" stroke-linecap="round"/><path d="M302.6084,181.41308c-0.84309,0.13401 -1.8081,0.18163 -2.65927,0.45057c1.0375,-0.18423 1.87278,0.03309 2.65701,0.68427c0.16432,-0.13668 0.33039,-0.26589 0.49777,-0.38529c0.38435,-0.3822 0.78792,-0.6598 1.19585,-0.78528c-0.39259,-0.20448 -0.93693,-0.21989 -1.69136,0.03573zM298.97539,182.1303c0.72366,-0.65306 1.62086,-0.97521 3.49909,-1.26714c0.93759,-0.30778 1.73401,-0.08327 2.3514,0.43982c2.83758,0.02316 3.38711,2.04183 3.46244,4.33044c0.3154,-0.40427 0.70401,-0.80228 1.1226,-1.17759c0.18683,-0.60825 0.85398,-1.43747 1.64394,-1.97624c-0.78806,-1.16676 -3.34793,-1.87083 -4.34524,-2.53571c-2.48262,-1.25792 -6.06258,-1.57502 -8.78172,-2.13711c-0.8213,-0.1644 -1.73998,-0.15782 -2.68177,-0.04134c0.39402,0.41743 0.74906,0.85566 1.06487,1.32805c0.32719,0.10584 0.45813,0.43084 0.50316,0.8462c0.36787,0.70049 0.66312,1.47805 0.88515,2.36616c0.00022,0.04175 -0.00064,0.17826 -0.00049,0.38147c0.4576,-0.22963 0.88118,-0.41572 1.27655,-0.55703zM306.26797,184.88999c0.29103,1.54128 0.64358,3.06901 0.97589,4.60745c0.03426,0.15861 0.12866,0.40591 0.23507,0.68259c-0.04011,-0.6588 -0.08382,-1.31747 -0.13432,-1.97525c-0.21349,-0.48259 -0.26155,-1.37338 -0.33719,-1.60181c-0.10772,-0.74393 -0.27788,-1.45718 -0.40681,-2.19495l-0.0792,-0.39597c-0.00434,-0.01972 -0.00664,-0.0402 -0.00664,-0.06122c0,-0.15629 0.1267,-0.283 0.283,-0.283c0.05946,0 0.11465,0.01835 0.1602,0.04968l0.23935,0.15956l-0.09669,0.14504l0.00297,0.01486c0.28815,0.32203 0.49527,0.83144 0.64385,1.44214c-0.05221,-1.44028 -0.34613,-2.72496 -1.46176,-3.29637c-0.0037,0.01648 -0.00776,0.03349 -0.01216,0.05105c-0.05148,0.2054 -0.19771,0.41705 -0.38521,0.62943c0.2521,0.63736 0.38422,1.34732 0.37963,2.02679zM318.68719,180.03784c0.75982,-0.36681 1.6976,-0.76637 2.27931,0.00444c0.109,0.51459 0.28417,1.11045 0.45733,1.73628c0.25849,-0.05137 0.32389,0.21024 0.32389,0.21024c0.25173,1.02877 0.32877,2.13561 0.33264,3.26184c0.02867,-0.06037 0.05705,-0.11885 0.08358,-0.17119c0.0354,-0.41766 0.07678,-0.8339 0.12523,-1.24821c0.22063,-1.85217 0.69714,-3.66893 0.8789,-5.55116c0.02495,-0.25837 -0.03725,-1.62379 0.2484,-1.75556c0.81461,-0.37582 0.89911,1.78504 0.94742,2.79336c0.01298,0.03247 0.02011,0.0679 0.02011,0.10499v0.2412c0.0034,0.04021 0.00707,0.07322 0.0112,0.09797c0.00025,0.07804 0.00125,0.15958 0.00317,0.24361c0.09608,0.38405 0.17261,0.7961 0.23193,1.22824c0.45063,0.0698 0.95323,0.21524 1.44939,0.3807c0.02101,-0.02976 0.04228,-0.06049 0.0638,-0.09221l0.18573,-0.27859c0.05039,-0.07802 0.13811,-0.12967 0.2379,-0.12967c0.1273,0 0.23498,0.08406 0.27054,0.19969l0.09227,0.27681l-0.04294,0.01431c0.05607,0.1142 0.10666,0.23034 0.15211,0.34828c0.05416,0.01965 0.1077,0.03907 0.16053,0.05816c0.20419,-0.82394 0.43544,-1.63994 0.6033,-2.47921l0.00907,-0.01551l-0.00402,-0.00134l0.17692,-0.53076c0.03556,-0.11564 0.14323,-0.19969 0.27053,-0.19969c0.11602,0 0.21574,0.06982 0.25942,0.16974l0.23539,0.50771l-0.08053,0.03734c0.43642,0.8789 0.7441,2.02664 0.94936,3.19635c0.25848,0.08506 0.48006,0.17658 0.66998,0.27776c0.56655,-1.28953 1.28757,-2.55246 1.58553,-3.29622l0.0078,-0.00925l-0.00275,-0.00138l0.25038,-0.50076c0.04538,-0.09572 0.14289,-0.16192 0.25586,-0.16192c0.14836,0 0.27006,0.11417 0.28203,0.25945l0.0296,0.31462l-0.09714,0.00914c0.16678,1.00371 -0.12715,2.27712 -0.52894,3.59732c0.01127,-0.00137 0.02275,-0.00206 0.03438,-0.00206c0.09979,0 0.18751,0.05165 0.2379,0.12967l0.15928,0.23892c0.49382,0.74073 0.65515,1.53625 1.03062,2.33816c0.06742,0.21266 0.33996,0.88478 0.69003,1.64303c0.3388,-0.63911 0.66055,-1.24089 0.93628,-1.78606c0.73388,-1.46723 1.79418,-4.7639 3.67596,-5.18398c1.2383,-0.27643 0.78725,3.58383 0.54208,4.32449c-0.07192,0.11093 -0.14224,0.22284 -0.21094,0.3357c0.2391,-0.10581 0.47552,-0.12804 0.70034,-0.03626c1.52467,0.62239 3.09264,2.20809 4.50192,3.12001c0.48437,0.3 1.4296,0.8 2.12772,1.42567c0.00041,0 0.00082,0 0.00123,0c0.15462,0 0.28027,0.124 0.28295,0.27798c0.57866,0.62412 0.84547,1.35096 0.20267,2.11778c-0.50693,0.60473 -1.11696,0.28352 -1.60083,0.93943l-0.18316,0.27475c-0.05039,0.07802 -0.13812,0.12967 -0.23791,0.12967c-0.00514,0 -0.01024,-0.00013 -0.0153,-0.00041c-0.34084,1.35841 -1.4128,3.58258 -1.61712,4.18103l-0.04608,-0.01052l0.0863,0.0863l-0.283,0.283c-0.05121,0.05121 -0.12197,0.08289 -0.20011,0.08289c-0.15629,0 -0.283,-0.1267 -0.283,-0.283c0,-0.05946 0.01835,-0.11465 0.04968,-0.1602l0.1706,-0.2559c0.0346,-0.10705 0.06931,-0.21609 0.10419,-0.32683c-0.01894,-0.40462 0.06808,-0.94159 0.18255,-1.49128c-0.13045,0.22591 -0.25081,0.42835 -0.33659,0.58752c-0.42278,0.78444 -0.70538,1.54824 -0.92545,2.31375c-0.21542,1.17387 -0.33591,2.38344 -0.64298,3.53637c-0.00224,0.09837 -0.0035,0.19538 -0.0035,0.29082v0.32342c0,0.15239 -0.12045,0.27666 -0.27135,0.28276c-0.04807,0.29814 -0.10712,0.58319 -0.17951,0.84922h0.04659v0.32343c0,0.15629 -0.12671,0.283 -0.283,0.283c-0.07909,0 -0.15059,-0.03244 -0.20195,-0.08474c-0.07352,0.26821 -0.10889,0.52841 -0.06828,0.77217c0.1379,0.82777 0.43957,1.25101 0.79186,1.2578c0.14556,-0.12975 0.29834,-0.25215 0.46159,-0.36404l0.28556,-0.1942c0.06925,-0.10515 0.1376,-0.22524 0.2043,-0.36036l0.02445,-0.01862l-0.00705,-0.00564l0.35194,-0.43993c0.05181,-0.06591 0.13228,-0.10825 0.22262,-0.10825c0.15629,0 0.283,0.1267 0.283,0.283c0,0.02372 -0.00292,0.04675 -0.00842,0.06877l-0.12418,0.5459l-0.07819,-0.01779c-0.10727,0.82152 -0.37393,1.79596 -0.74979,2.6931c0.7902,-0.17758 1.5892,-0.29934 2.35746,-0.3923l-0.84338,-0.47096c0.01679,-0.0031 -0.66178,-0.00473 -0.64409,-0.00473c0.15629,0 -0.15983,0.00018 -0.15983,0.15648c0,0.07734 1.17094,0.21068 1.12066,0.26177l-1.76125,-0.13018l1.25394,0.24196c-1.71045,2.59831 -3.06102,5.83579 -6.11516,6.44203c-0.43922,0.14689 -2.85564,0.91742 -3.13218,0.36362c-0.0635,-0.12715 -0.0657,-0.27734 -0.02783,-0.43828c-0.77281,0.66369 -1.69084,1.40659 -2.01019,1.29298c-0.30151,-0.10727 -0.40333,-0.45294 -0.38072,-0.92182c-0.51817,0.17308 -1.03904,0.24625 -1.46353,0.16246c-1.01716,1.06915 -2.13855,2.04268 -3.01836,2.3471c-0.8241,0.62752 -1.4714,0.68311 -1.97795,0.37592l-0.19852,0.09926l-0.02696,-0.05392c-0.03335,0.00913 -0.06655,0.0173 -0.09966,0.02462c-2.19537,1.34014 -6.5137,0.53085 -8.86717,0.53085c-2.08083,0 -3.92584,-0.49366 -5.97362,-0.74665c-0.48979,-0.06051 -2.23583,-0.57649 -2.57755,-1.0605c-0.60233,-0.85315 0.55603,-0.00833 0.99062,-0.15228c0.00414,-0.00205 0.00828,-0.00411 0.01242,-0.00616c-1.18414,-0.26167 -2.25745,-0.64854 -3.0545,-1.17991c-0.83059,-0.35159 -1.47075,-0.96601 -2.04071,-1.65775c-2.17426,-0.26336 -4.22497,-0.2011 -6.16318,-2.0975c-0.31394,-0.51906 -0.64404,-1.0137 -0.93204,-1.52018c-0.33064,-0.30569 -0.5188,-0.60515 -0.42295,-0.84223c-0.01002,-0.02361 -0.0199,-0.04727 -0.02962,-0.07101c-0.2074,0.2934 -0.27646,0.40739 -0.48297,0.71715l-0.12297,-0.60632c-0.05039,0.07802 0.24145,-0.06011 0.14166,-0.06011c-0.15629,0 -0.34625,-0.00018 -0.34625,-0.15647l-0.18978,-0.15648l0.1866,0.44283c-0.05057,-0.73377 -0.40675,-1.40218 -0.15728,-2.14695c-2.14964,0.07435 -4.08378,-0.56993 -1.70487,-2.2888c-0.12917,-0.08282 -0.24568,-0.14727 -0.34687,-0.18781c-0.60684,-0.31009 -1.67785,-0.13633 -2.07773,-0.77845c-0.06024,-0.09672 -0.1148,-0.19918 -0.1642,-0.30669c-0.19586,0.38792 -0.40492,0.75098 -0.62838,1.07361l0.03395,0.01132l0.09752,-0.73537c-0.03556,0.11564 0.04654,-0.05335 -0.08076,-0.05335c-0.15629,0 0.03331,-0.31648 0.03331,-0.47278l-0.37956,0.16095l0.40547,-0.25304l-0.46116,0.50433c0.19801,-0.41019 0.11697,-0.39515 0.3377,-0.78655c0.02218,-0.03932 0.05475,-0.08143 0.09377,-0.12507c0.0652,-0.17327 0.13554,-0.3539 0.20931,-0.53884c-0.01274,-0.0838 -0.02408,-0.16868 -0.03412,-0.25448c-2.26873,-0.70245 -3.0934,-2.63831 -3.42569,-4.9532c-0.4397,-3.07922 0.10578,-6.05816 0.10578,-9.09023c0,-2.75048 0.13756,-6.66793 2.38178,-8.64507c0.75965,-2.00767 2.00957,-3.79938 3.36764,-3.79227c0.83995,0.59697 1.58834,1.18164 2.24425,1.803c1.15287,-0.17976 2.28998,-0.21902 3.28839,-0.01951c2.81152,0.58672 6.37113,0.92457 8.95275,2.20217c1.20348,0.80232 3.60718,1.55603 4.51198,2.75826c0.52223,-0.26208 1.06714,-0.36905 1.5435,-0.19036c1.80777,-0.74187 4.27614,-1.32698 5.63799,-1.98442zM323.40845,181.35287c0.02947,-0.01826 0.06037,-0.03482 0.09263,-0.04977c0.10104,-0.50653 0.17115,-1.01082 0.23994,-1.52253l0.005,-0.00825l-0.00337,-0.00067l0.05685,-0.28424c-0.0229,-0.28266 -0.05153,-0.70309 -0.07604,-1.1169c-0.0426,0.24787 -0.08592,0.45515 -0.09988,0.53943c-0.14993,0.90522 -0.30668,1.80036 -0.44956,2.69447c0.06408,-0.10783 0.14121,-0.19378 0.23445,-0.25154zM328.36103,182.37962c0.07744,0.01549 0.15293,0.03107 0.22651,0.04678c-0.18202,-0.75185 -0.32935,-1.49531 -0.35431,-2.20825c-0.15321,0.66597 -0.33465,1.32128 -0.49697,1.98229c0.24082,0.08107 0.45344,0.14495 0.62477,0.17918zM331.54572,185.40804c0.02442,-0.32629 0.06224,-0.64288 0.11719,-0.94519c-0.06034,0.18424 -0.12057,0.368 -0.17976,0.55068c0.02483,0.12921 0.04551,0.26088 0.06257,0.3945zM336.08599,190.30504c0.07433,-0.02472 0.14746,-0.05105 0.21954,-0.07881c0.04942,-0.27576 0.10376,-0.55134 0.16352,-0.82678c0.07288,-0.48647 0.6378,-1.82117 1.36247,-2.87027c0.29935,-0.65458 0.64426,-1.28675 1.03656,-1.88804c0.15205,-0.45189 0.15091,-0.7927 0.15091,-1.26305c0,-0.76821 0.05533,-1.55825 0.01451,-2.32392c-0.0315,-0.59089 -0.91019,0.76589 -1.28946,1.22009c-0.93544,1.12027 -1.43106,2.43201 -2.07851,3.72644c-0.38567,0.76259 -0.74143,1.52417 -1.07877,2.28883c0.54885,1.09845 1.16984,2.12504 1.49924,2.0155zM341.75762,188.64049c-0.53055,0.15444 -1.03024,0.25123 -1.57201,0.33186c0.07649,0.04942 0.13613,0.1093 0.17444,0.18144c0.15356,0.28917 -0.19845,1.81066 -0.57291,3.1049c0.78553,-1.4852 2.09977,-3.44813 3.16434,-3.23904c0.50199,0.0986 0.63309,1.38205 0.54947,2.26079c0.26862,-0.49023 0.45921,-0.98694 0.77049,-1.44343c0.00541,-0.02333 0.01106,-0.04691 0.01692,-0.07076l0.03212,-0.00671l-0.00543,-0.00325l-0.02019,-0.00807l0.0013,-0.00326l-0.06207,-0.03724l0.2399,-0.39983c0.04888,-0.08478 0.14045,-0.14184 0.24534,-0.14184c0.15629,0 0.283,0.1267 0.283,0.283c0,0.03942 -0.00806,0.07696 -0.02262,0.11106l-0.15405,0.38513c-0.51289,2.00836 0.05201,0.86251 1.12589,0.1894l-0.06507,-0.13015l0.21234,-0.10616c-0.60327,-0.42685 -1.66941,-0.88891 -2.03237,-1.11374c-0.35602,-0.23035 -0.70666,-0.4695 -1.05432,-0.71328c-0.13724,0.16422 -0.52585,0.35709 -1.25452,0.5692zM346.58855,190.52015l-0.00537,0.03782c-0.42792,0.577 -0.8836,1.14065 -1.33826,1.7036v0.15952c0.73427,-0.56516 1.7871,-0.65071 1.34673,-1.89971zM340.02869,202.83925c-0.04265,0.41534 -0.12316,0.84415 -0.22307,1.27374c0.0843,-0.26511 0.19571,-0.53115 0.30141,-0.79634c-0.02076,-0.14729 -0.04767,-0.3077 -0.07834,-0.4774zM339.59722,204.92663c0.02273,0.69243 0.06862,1.37343 0.06862,1.98736c0,0.32064 -0.04993,0.66132 -0.1417,1.00696c0.38403,-0.39064 0.72848,-0.81765 1.10447,-1.21159c-0.46272,-0.21368 -0.83863,-0.77154 -0.94858,-1.61479c-0.02282,-0.17499 -0.01488,-0.35139 0.01381,-0.52867c-0.03132,0.12063 -0.06366,0.24096 -0.09661,0.36073zM333.86573,210.25654c-0.20733,-0.97799 -0.42444,-1.93856 -0.42582,-2.93826c-0.00011,-0.08329 0.01357,-0.24111 0.03419,-0.42782c-0.05196,0.16372 -0.10876,0.32904 -0.16378,0.49417c-0.07914,0.78544 -0.19091,1.56412 -0.35556,2.28217c0,0.05267 0,0.10535 0,0.15802v0.50188c0.03664,-0.0347 0.07351,-0.06888 0.11058,-0.10249l-0.03609,-0.02406l0.18623,-0.27934c0.05039,-0.07802 0.13811,-0.12968 0.2379,-0.12968c0.15629,0 0.283,0.1267 0.283,0.283c0,0.02589 -0.00347,0.05098 -0.00999,0.0748l-0.09279,0.37118l-0.01295,-0.00324l0.00269,0.03579c-0.11139,0.21374 -0.21512,0.43141 -0.31269,0.65209c0.195,0.04796 0.35173,0.16748 0.46439,0.33489c0.04315,-0.02894 0.08565,-0.06495 0.12755,-0.10926l0.1484,-0.2226c0.05039,-0.07802 0.13811,-0.12967 0.2379,-0.12967c0.15629,0 0.283,0.1267 0.283,0.283c0,0.02589 -0.00347,0.05098 -0.00999,0.0748l-0.07932,0.31726l-0.09853,-0.02463l-0.02141,0.03212l-0.08992,-0.05995l-0.0181,-0.00452l0.09141,0.08691c-0.10111,0.09717 -0.20074,0.17413 -0.3,0.2339c-0.02378,0.03649 -0.04851,0.07316 -0.07414,0.10988c0.03021,0.30359 -0.02086,0.64882 -0.16537,0.98606c-0.21026,0.49068 -0.80388,0.99888 -1.49997,1.36284c-0.00794,0.13951 -0.01428,0.27799 -0.02217,0.39923c0.51802,-0.58392 2.15968,-1.6509 2.41394,-1.82015c0.07084,-0.06313 0.14148,-0.12651 0.21192,-0.19013c0.29565,-0.4281 0.62003,-0.8524 0.96482,-1.26929c-0.70096,-0.01015 -1.4025,-0.39725 -2.00934,-1.33886zM332.5265,210.63371c-0.01703,0.06264 -0.03425,0.12534 -0.05168,0.18813c0.04668,-0.05197 0.09364,-0.10318 0.14091,-0.15359c-0.03203,-0.00644 -0.0621,-0.01828 -0.08923,-0.03454zM331.60819,213.36298c-0.02398,-0.01729 -0.04543,-0.03836 -0.06452,-0.06295c-0.27931,0.34697 -0.59174,0.71747 -0.92346,1.08856c0.31529,-0.0545 0.68441,-0.17304 1.04682,-0.32816c0.04189,-0.19008 0.09405,-0.38809 0.1535,-0.58954c-0.07386,-0.02375 -0.1449,-0.05928 -0.21234,-0.1079zM331.80357,210.73307c-0.02207,-0.07707 -0.04136,-0.15396 -0.05804,-0.23078c-0.18565,0.43796 -0.41668,0.81744 -0.70656,1.10662c0.18094,0.0096 0.35768,0.02385 0.52927,0.04367c0.0656,-0.29794 0.14754,-0.61089 0.23533,-0.9195zM325.2121,210.60951c-0.0217,0.13717 -0.04522,0.27455 -0.07064,0.41135c0.05632,-0.01193 0.11308,-0.02248 0.17025,-0.03171c-0.03873,-0.11352 -0.07197,-0.23959 -0.09961,-0.37964zM324.28945,213.54403l0.11881,0.08911l-0.21996,0.29328c0.17106,0.85575 0.43917,1.69088 0.84531,2.54214c0.02099,0.04399 0.1,0.3112 0.19373,0.59625c0.11979,0.03294 0.20779,0.14264 0.20779,0.2729c0,0.06146 -0.01959,0.11834 -0.05286,0.16474c0.07836,0.19868 0.15134,0.33814 0.1962,0.31058c0.3843,-0.23614 0.84532,-0.72124 1.2326,-1.00791c1.0726,-0.38265 1.93867,-1.17366 2.71996,-2.10966c-0.14198,-0.12363 -0.25075,-0.28924 -0.31571,-0.50296c-0.10905,-0.44548 0.34596,-1.37129 -0.11267,-1.37129c-0.60736,0 -1.19328,-0.0364 -1.70789,-0.14579c-0.84762,0.05288 -1.79406,0.13429 -2.76568,0.19744c-0.10144,0.24818 -0.21432,0.47477 -0.33962,0.67119zM323.35796,207.86379c0.17508,-1.72078 0.58071,-3.53178 1.03855,-5.27697c-0.14319,-0.01402 -0.25507,-0.13476 -0.25507,-0.28164v-0.40428h0.06781c-0.0593,-0.46588 -0.03494,-0.93558 0.04562,-1.402c-0.07858,-0.94031 -0.12433,-1.88588 -0.13685,-2.83791c-0.86146,0.55295 -1.9211,0.8479 -3.19686,0.89717c-0.69766,0.79068 -1.58923,1.01388 -2.67846,1.84064c-0.26493,0.2011 -0.40881,0.7567 -0.52276,1.29651c-0.03587,1.16784 -0.34645,2.46329 -0.66953,3.7526c-0.00258,0.97777 -0.02435,1.98019 -0.10492,2.96574c0.08367,0.93422 0.15326,1.89605 0.13826,2.77644c0.8096,-0.07788 1.63053,-0.07832 2.40846,-0.07832h0.37733c0.15629,0 0.283,0.1267 0.283,0.283c0,0.07815 -0.03168,0.14889 -0.08289,0.20011l-0.22827,0.22827c1.088,-0.14514 2.30252,-0.14233 3.53099,-0.0847c-0.00153,-0.05069 -0.00286,-0.10069 -0.004,-0.14997c-0.09429,-1.23558 -0.04195,-2.49006 -0.0104,-3.72468zM325.2071,197.7647l0.10497,-0.26081c-0.1845,-0.06631 -0.39793,-0.10908 -0.63137,-0.13229c0.00096,0.53072 0.00537,1.05701 0.0186,1.57998c0.15533,-0.40648 0.33134,-0.80383 0.5078,-1.18688zM317.04855,213.82018l-0.31768,0.07942l-0.05555,-0.22217l-0.03519,-0.02347c-1.31167,0.0388 -2.62772,0.01152 -3.93986,0.01152c-0.97895,0 -2.38648,-0.29993 -3.49683,-0.92212c-0.04922,0.04143 -0.11276,0.06639 -0.18213,0.06639c-0.15629,0 -0.283,-0.1267 -0.283,-0.283v-0.07663c-0.07969,-0.05666 -0.15687,-0.11537 -0.23117,-0.17611c-0.42964,0.00485 -0.85668,0.01685 -1.27266,0.02918c-0.0394,0.08956 -0.08157,0.17761 -0.12687,0.26393l0.10498,0.05249l-0.23983,0.47966c-0.04538,0.09572 -0.14289,0.16192 -0.25586,0.16192c-0.15629,0 -0.283,-0.1267 -0.283,-0.283c0,-0.00781 0.00032,-0.01555 0.00094,-0.0232l0.02422,-0.33739l0.00967,0.00069l-0.00686,-0.02505c0.02232,-0.0896 0.04354,-0.1795 0.06373,-0.26967c-0.31104,0.00809 -0.61246,0.014 -0.90027,0.01451c-1.57527,-0.00942 -2.61831,-0.52769 -3.49734,-1.38381c-0.06553,0.00184 -0.13143,0.00293 -0.19766,0.00328c0.51024,0.63862 0.96815,1.35765 1.49444,2.0049c0.74491,0.07398 1.49547,0.18851 2.24147,0.44769c1.21678,0.98258 3.66906,1.48709 5.75014,1.95424c1.1925,-0.21198 2.4212,-0.29021 3.54784,-0.29066c0.36348,-0.00015 1.64283,-0.20555 1.89809,0.08288c0.69644,0.78697 -0.64898,1.18202 -1.07079,1.32262c-0.04092,0.00811 -0.08232,0.01607 -0.12419,0.02384c2.60003,0.57316 5.58135,0.74029 8.0698,0.74029c0.29883,0 0.58111,0.0279 0.86512,-0.03091c-0.60514,-0.803 -0.93109,-2.2335 -1.09455,-3.61489l-0.09142,-0.03047c-2.04476,-0.01184 -4.12264,0.22324 -6.17347,0.09538c-0.0363,0.0788 -0.10776,0.13807 -0.19428,0.1577zM307.61102,211.10726c-0.04806,0.21252 -0.10218,0.42236 -0.16592,0.62729c0.17124,-0.00483 0.34405,-0.00949 0.51787,-0.0135c-0.14638,-0.19013 -0.26588,-0.39466 -0.35195,-0.61379zM307.32334,204.89258c0,-0.15629 0.1267,-0.283 0.283,-0.283c0.01114,0 0.02213,0.00064 0.03292,0.00189c0.12429,-0.28595 0.23984,-0.58131 0.34544,-0.88876c-0.0632,0.00901 -0.11857,0.00226 -0.16324,-0.0241c-0.9538,-0.56286 0.18584,-3.17492 0.4148,-3.84715c0.31815,-0.48329 0.52651,-1.02298 0.74885,-1.55775c0.02991,-0.42426 0.05843,-0.84887 0.09318,-1.27259c-0.23234,-0.11759 -0.38379,-0.26193 -0.41897,-0.43901c-0.04615,-0.23231 0.03359,-0.41226 0.1922,-0.54968c-0.38362,-0.14884 -0.89817,-0.25485 -1.58143,-0.31732c-0.72139,0.00038 -1.97339,0.09221 -2.53212,-0.48688c-0.09147,-0.09481 -0.15671,-0.19265 -0.19904,-0.29016l-0.04759,0.04759l-0.01076,-0.01076c-0.02025,0.01471 -0.04024,0.02911 -0.05997,0.0432c-0.09147,0.31193 -0.47771,0.39167 -0.86973,0.52724l-0.02274,-0.00182l0.00105,0.00631l-0.47988,0.07998c-0.01679,0.0031 -0.0341,0.00473 -0.05178,0.00473c-0.15629,0 -0.283,-0.1267 -0.283,-0.283c0,-0.07815 0.03168,-0.1489 0.08289,-0.20011l0.24612,-0.24612c0.03286,-0.28135 0.11646,-0.62625 0.20199,-0.97891l-0.18101,-0.04525c-0.15919,0.1099 -0.30804,0.23237 -0.44704,0.36545c0.09984,1.73962 -0.09667,3.5119 -0.70096,4.72853c-0.08919,0.17759 -0.17416,0.36171 -0.25641,0.55056c-0.1118,1.07116 -0.27107,2.13387 -0.47427,3.15481c-0.09047,0.5428 -0.67946,2.40873 -1.37075,3.4646c0.06551,0.03483 0.11571,0.09464 0.13788,0.16674l0.09227,0.27681c0.00262,0.01739 0.0058,0.03361 0.0095,0.0487c0.0462,0.05226 0.09122,0.10512 0.13513,0.15851c0.06888,0.00286 0.1466,-0.0622 0.20041,-0.18037c0.21637,-0.32456 0.28564,-0.55496 0.44567,-0.89464c1.41744,-3.00873 1.22885,2.50474 1.71564,2.78309c0.15285,0.0874 0.50437,0.06428 0.85189,0.03024c0.28097,-0.70179 0.70126,-1.37721 1.04465,-1.63899c2.8057,-2.13889 1.65407,0.9961 -0.15576,2.12912c-0.17357,0.00578 -0.36423,0.0231 -0.56026,0.03862c-0.09882,0.5145 -0.20167,1.25927 0.07801,0.9475c1.45627,-1.22117 2.43294,-2.94647 3.44653,-4.59601c0.02242,-0.0433 0.04466,-0.08677 0.06669,-0.13043zM308.3105,209.31253c0.02584,-0.06234 0.05363,-0.12552 0.08366,-0.18998c0.12489,-0.90569 0.22899,-1.81 0.34416,-2.70822c0,-0.57526 0,-1.15053 0,-1.72579c-0.24248,0.36407 -0.48546,0.73324 -0.73187,1.10302c0.07797,0.90419 0.25184,2.42987 0.30404,3.52096zM301.16698,196.96694c-0.34764,1.0443 -0.49078,2.352 -0.65502,3.66914c0.22442,-0.47083 0.43261,-0.91971 0.59642,-1.27256c0.09471,-0.93508 0.15246,-1.87589 0.17108,-2.79964c-0.0413,0.13381 -0.07873,0.2684 -0.11248,0.40305zM299.50003,204.8672l0.05266,0.01316l-0.03633,0.14533c0.42063,-0.76471 0.95833,-1.52069 1.11273,-2.44707c0.05783,-0.28931 0.11202,-0.58202 0.16251,-0.87737c-0.20182,0.48644 -0.42028,0.96102 -0.67734,1.39695c-0.14841,0.64391 -0.34226,1.24584 -0.61422,1.76899zM299.19729,205.41815c-0.15629,0 -0.283,-0.1267 -0.283,-0.283v-0.32343c0,-0.07876 0.01101,-0.22721 0.02554,-0.41287c-0.11788,0.04093 -0.21844,0.03365 -0.30354,-0.01c-0.12833,0.2722 -0.26177,0.54018 -0.39816,0.8016c0.02302,0.03206 0.04604,0.06354 0.06909,0.09434c0.08664,0.11576 0.18407,0.32371 0.27803,0.53614c0.05189,0.05009 0.08469,0.11983 0.0864,0.19723c0.15858,0.36252 0.29281,0.65472 0.32571,0.40326c0.04735,-0.36189 0.17162,-0.70245 0.3324,-1.03614c-0.03952,0.02098 -0.08461,0.03286 -0.13247,0.03286zM294.13001,204.60636c0.15664,0.10404 0.30272,0.21255 0.44345,0.32674l-0.07381,-0.36908l0.10195,-0.02039c-0.02294,-0.08466 -0.04296,-0.16996 -0.06043,-0.25584c-0.15291,0.11616 -0.29134,0.22401 -0.41116,0.31857zM295.40117,205.7012c0.62334,0.00416 1.2569,0.05621 1.83553,0.09142c0.11451,-0.2151 0.22337,-0.43262 0.32723,-0.65287c-0.38102,-0.65424 -0.79176,-1.2361 -1.23214,-1.20088c-0.35912,0.12494 -0.69305,0.19543 -1.00091,0.21898c-0.04501,0.19126 -0.0938,0.38012 -0.14685,0.56613l-0.03086,0.28349c-0.01144,0.11962 -0.09736,0.21751 -0.21084,0.24677c0.15131,0.14003 0.30182,0.28846 0.45884,0.44697zM298.25541,206.34961c0.00796,0.00717 0.01562,0.01446 0.02296,0.0219c-0.00523,-0.00784 -0.01045,-0.01574 -0.01569,-0.02372zM298.07537,207.13888c-0.29158,0.26913 -0.67245,0.30117 -1.09995,0.18504c-0.16523,0.24603 -0.32496,0.47136 -0.47517,0.67164c-0.04721,0.04737 -0.09321,0.09523 -0.13813,0.14356c0.06903,0.17259 0.13905,0.35 0.20893,0.52811c1.00598,-0.01131 2.72299,0.47711 3.2952,0.66675c0.52325,0.18286 0.96168,0.47921 1.35227,0.84245c0.08816,0.02115 0.17615,0.04164 0.26389,0.06104c-0.31468,-0.39059 -0.61898,-0.82459 -0.93379,-1.2923c-0.23572,-0.35021 -0.86929,-1.34484 -0.90145,-1.92022c-0.05141,-0.07293 -0.0981,-0.15866 -0.13888,-0.25731l-0.05436,-0.16307c-0.27085,0.27171 -0.54668,0.37477 -0.80592,0.19304c-0.09246,-0.06482 -0.18742,-0.1706 -0.28487,-0.30417c0.0703,0.16273 0.00658,0.37373 -0.28778,0.64544zM295.97207,206.86175c-0.04837,0.0078 -0.09705,0.01525 -0.14599,0.02234c0.08985,0.18596 0.19081,0.41589 0.29796,0.67171c0.10793,-0.14574 0.21208,-0.29223 0.31267,-0.4396c-0.15217,-0.07353 -0.30757,-0.15943 -0.46464,-0.25445zM290.10096,197.69638c0,-2.41866 0.51948,-4.72849 2.41777,-6.28512l-0.02541,-0.01694l0.15928,-0.23892c0.05039,-0.07802 0.13811,-0.12967 0.2379,-0.12967c0.15629,0 0.283,0.12671 0.283,0.283c0,0.02589 -0.00347,0.05098 -0.00999,0.0748l-0.07297,0.29187c0.00153,0.76666 -0.0411,2.18175 -0.19885,3.43414c0.05489,0.40741 0.05277,0.83592 0.01227,1.24386c0.01391,-0.04023 0.02776,-0.08056 0.04147,-0.12101c0.49986,-1.47404 0.78381,-3.16058 1.32664,-4.63969l-0.04378,-0.00625l0.07946,-0.55618c0.01764,-0.13934 0.13661,-0.2471 0.28074,-0.2471c0.15629,0 0.283,0.1267 0.283,0.283v0.32343c-0.00148,0.58654 0.00679,0.80624 0.04145,0.80337c-0.00863,-1.14763 -0.01726,-2.29525 -0.02589,-3.44287c-1.56641,-0.74765 -3.03599,-1.57232 -3.03054,-2.87404c-0.37312,-1.11936 -0.22696,-2.67145 -0.14214,-4.02452c-0.32234,0.63205 -0.83294,1.28208 -1.02228,1.83955l-0.0304,0.02487l0.01165,0.00776l-0.18623,0.27934c-0.05039,0.07802 -0.13811,0.12967 -0.2379,0.12967c-0.15629,0 -0.283,-0.1267 -0.283,-0.283v-0.283h0.10738c-0.01168,-0.45578 0.11336,-0.95424 0.31061,-1.4543c-0.00907,-0.11194 -0.01446,-0.22562 -0.01643,-0.34076c-0.51313,0.7904 -0.99855,1.48146 -1.29649,1.94964l-0.00229,0.00194l0.0007,0.00047l-0.18623,0.27934c-0.05039,0.07802 -0.13811,0.12967 -0.2379,0.12967c-0.13911,0 -0.25478,-0.10037 -0.27853,-0.23263l-0.0933,-0.46653l0.13785,-0.02757c-0.0857,-0.75834 0.03333,-1.768 0.30478,-2.8123c-1.34089,2.01333 -1.39145,5.14222 -1.39145,7.31232c0,3.00618 -0.54782,5.95704 -0.11146,9.01019c0.13247,0.93203 0.47717,2.86018 1.1681,3.53238c0.39198,0.38136 1.06749,0.55351 1.64091,0.76887c-0.05259,-1.23923 0.07852,-2.56343 0.07852,-3.5211zM295.56586,190.66662c0,0 0.15698,-0.23547 0.39245,-0.07849c0.23547,0.15698 0.07849,0.39245 0.07849,0.39245c-0.17201,0.24871 -0.36613,0.56199 -0.56058,0.85091c0.00972,1.29241 0.01944,2.58482 0.02916,3.87723c0.11886,-0.71449 0.25122,-1.43532 0.3737,-2.15454c0.06647,-0.47622 0.14022,-0.94963 0.22244,-1.41652c0.05775,-0.41493 0.10696,-0.82754 0.14302,-1.2363l0.04309,-0.47399c0,0 0.02042,-0.22458 0.22528,-0.25457c0.00731,-0.0295 0.01466,-0.05895 0.02206,-0.08834c0.04042,-0.16054 0.05774,-0.33423 0.06546,-0.51343c-0.36298,-0.18684 -0.752,-0.36919 -1.14537,-0.55335c0.00454,0.60356 0.00908,1.20712 0.01362,1.81068c0.03082,-0.05525 0.06319,-0.10938 0.09718,-0.16175zM294.80592,192.6167c-0.16161,1.60361 -1.44665,3.81283 -1.72085,4.98298c-0.0477,0.20357 -0.00169,0.79554 -0.05207,1.24531c0.17659,-0.83467 0.56584,-1.61987 0.70906,-2.48788l0.00128,-0.0077c0,0 0.04653,-0.27915 0.32567,-0.23262c0.27915,0.04652 0.23262,0.32567 0.23262,0.32567l-0.00129,0.00769c-0.05562,0.33012 -0.24231,1.43739 -0.52687,2.47887l0.11496,-0.15328c0.05149,-0.07024 0.13461,-0.11583 0.22837,-0.11583c0.15629,0 0.283,0.1267 0.283,0.283v0.21775c0.31419,0.44121 0.61131,1.43167 0.7637,2.46816c0.07804,-0.74565 0.12918,-1.49691 0.17605,-2.22971c-0.02869,0.00979 -0.05947,0.01511 -0.09147,0.01511c-0.15567,0 -0.28199,-0.1257 -0.28299,-0.28114c-0.00426,-0.56598 -0.01276,-1.69766 -0.01702,-2.26364c-0.01086,-1.44493 -0.02173,-2.88986 -0.0326,-4.33479c-0.0376,0.03296 -0.0742,0.06061 -0.10957,0.08205zM292.82209,199.37485c-0.1629,0.08998 -0.29319,0.13149 -0.3972,0.13612c0.04099,0.31807 0.10352,0.63617 0.27446,0.95658c0.21752,0.40773 0.21688,-0.86621 0.28543,-1.35573c-0.03504,0.12597 -0.08663,0.22102 -0.16269,0.26303zM292.04151,197.25716l-0.06633,-0.199l0.06633,-0.02211c0,-0.0644 0,-0.12882 0,-0.19322c-0.16282,-0.66682 -0.115,-1.37633 0,-2.09636c0,-0.17564 0,-0.35127 0,-0.52691v-0.32343c0,-0.13222 0.09067,-0.24326 0.21323,-0.27433c0.0852,-0.42111 0.16795,-0.84013 0.21982,-1.25066c-0.40833,0.539 -1.04071,1.18124 -1.20462,1.43376c-0.63304,0.97523 -0.60299,2.71608 -0.60299,3.89148c0,0.99421 -0.08769,2.15357 -0.04052,3.26893c0.48099,-1.1285 0.95207,-2.17359 1.05171,-2.48753l0.00116,-0.00149l-0.0006,-0.0002l0.09227,-0.27681c0.03556,-0.11564 0.14323,-0.1997 0.27054,-0.1997c0,-0.24747 0,-0.49495 0,-0.74242zM291.12222,203.47232c0.11709,0.25901 1.52579,0.37902 1.80336,0.51525c0.25239,0.10078 0.4776,0.204 0.68292,0.31129c0.12557,-0.10047 0.2789,-0.22139 0.45397,-0.35519c-1.03257,-0.49576 -1.47446,-1.74427 -1.23835,-2.9967c-0.09928,0.06484 -0.20224,0.08694 -0.30845,0.05594c-0.34197,-0.09983 -0.58334,-0.61999 -0.67932,-1.15969c-0.28409,0.88002 -0.61488,1.85366 -1.00482,2.75887c0.07252,0.30553 0.1674,0.59749 0.2907,0.87023zM300.62356,196.80869c0.25985,-1.04228 0.71987,-2.01545 1.41866,-2.76032c-0.00401,-0.05441 -0.00832,-0.10876 -0.01293,-0.16302l-0.01415,0.0085c-0.0434,0.02708 -0.09467,0.04272 -0.14959,0.04272c-0.15629,0 -0.283,-0.12671 -0.283,-0.283c0,-0.09376 0.0456,-0.17688 0.11584,-0.22837l0.26064,-0.19549c-0.08139,-0.62704 -0.20108,-1.23037 -0.35256,-1.77516c-1.17014,-0.31563 -2.34472,-0.66185 -3.56782,-0.94119c-0.21079,-0.20128 -0.47358,-0.39011 -0.77098,-0.57156c-0.09745,2.81869 -1.13213,5.96123 -1.30248,8.54703c-0.09425,1.41377 -0.16689,2.94261 -0.39104,4.39951c0.96291,-0.60215 2.04528,-1.12862 2.87796,-1.11424c0.17898,-0.87327 0.32156,-1.75761 0.61226,-2.60264l0.05491,-0.03704l-0.01428,-0.01429l0.37733,-0.37733c0.05121,-0.05121 0.12196,-0.08288 0.20011,-0.08288c0.15629,0 0.283,0.1267 0.283,0.283v0.26599c0.18834,-0.82431 0.40261,-1.63469 0.65813,-2.40021zM303.84142,192.71063c0.02026,0.05317 0.03476,0.10882 0.04421,0.16642l0.24996,-0.06248c0.02382,-0.00652 0.04891,-0.00999 0.0748,-0.00999c0.15535,0 0.28146,0.12517 0.28299,0.28016c0.12388,0.04671 0.19889,0.12754 0.2345,0.2312c0.71072,0.04753 1.42215,0.24411 1.458,0.60556c0.09369,0.94465 -1.31767,0.32257 -1.13863,0.78205c0.22812,0.58547 1.78926,0.44592 2.24851,0.44615c0.85386,0.07719 1.48073,0.22181 1.93659,0.42942c0.0088,-0.0629 0.01793,-0.12575 0.02742,-0.18854c-1.31871,-0.852 -2.47579,-1.92307 -2.70251,-2.56782c-1.14507,-0.16066 -1.90275,-0.40035 -2.40408,-0.7686c-0.6463,-0.12009 -1.28446,-0.27014 -1.92159,-0.43441c0.08865,0.35989 0.16438,0.73835 0.22575,1.12791c0.42125,-0.48701 1.09993,-0.78271 1.3841,-0.03702zM312.3455,196.78965c0.05587,-0.03345 0.11154,-0.06602 0.16685,-0.09757c-0.46104,-0.00333 -1.02036,-0.15966 -1.60989,-0.41184c-0.17396,0.02437 -0.36362,0.07516 -0.55125,0.13148l0.11546,0.17318c0.33543,0.07672 0.63907,0.15325 0.76521,0.18855c0.39611,-0.14785 0.78432,-0.17121 1.11362,0.01621zM313.20216,198.1586c-0.00369,0.003 -0.00745,0.00591 -0.01129,0.00872l-0.32079,0.24059l-0.03399,-0.04532c-0.11603,0.06124 -0.23448,0.12165 -0.35306,0.18268c-0.52895,0.44307 -1.05322,0.9701 -1.59058,1.39437c-0.28004,0.61419 -0.50755,1.2376 -0.6965,1.86854c0.08707,0.04825 0.14601,0.14109 0.14601,0.24769c0,0.00766 -0.0003,0.01525 -0.0009,0.02276l-0.02906,0.4126l-0.00668,-0.00047l0.00445,0.02115c-0.59885,2.72674 -0.215,6.43903 -0.92188,9.19986c0.32907,0.00537 0.65647,0.01743 0.97857,0.03921c0.79613,-0.53891 2.47775,-0.84155 2.82983,-0.899l0.47197,-0.1089c0.02228,-0.00564 0.04562,-0.00864 0.06966,-0.00864c0.15629,0 0.283,0.1267 0.283,0.283c0,0.10489 -0.05706,0.19646 -0.14184,0.24534l-0.35435,0.21261c0.33608,0.02342 0.84338,0.14326 1.24824,0.24513c0.28967,-0.12052 0.58944,-0.21719 0.89598,-0.29471c0.00897,-0.10206 0.02682,-0.20869 0.04994,-0.31604c0,-0.03077 0,-0.06155 0,-0.09233c-0.1273,0 -0.23497,-0.08406 -0.27053,-0.19969l-0.09227,-0.27681l0.12397,-0.04132c-0.41939,-1.43383 0.12639,-4.29276 0.72068,-6.61361c0.00256,-0.01386 0.00514,-0.02769 0.00772,-0.04152c0.05696,-0.4969 0.14821,-0.97926 0.27523,-1.44464c0.05184,-1.48748 0.2512,-3.37953 -0.64937,-4.30739c-0.62347,-0.14424 -1.21922,-0.32903 -1.74881,-0.56406c-0.04369,0.00026 -0.09169,0.00062 -0.1436,0.00101c-0.17446,0.24909 -0.43785,0.44841 -0.73977,0.6292zM308.63589,210.13473c0.02775,0.06878 0.05447,0.13653 0.08038,0.20324c0.01179,-0.18114 0.02203,-0.33912 0.02206,-0.45252c0,-0.0342 0,-0.0684 0,-0.1026c-0.03877,0.11665 -0.07205,0.23239 -0.10244,0.35188zM312.70028,213.09949c0.4334,0 0.86695,-0.00172 1.30053,-0.00315c-0.23478,-0.18139 -0.33449,-0.44836 -0.19204,-0.8512c0.02207,-0.01538 0.04424,-0.03056 0.06652,-0.04553c-0.59019,-0.09688 -1.21083,-0.25964 -1.2669,-0.57906c-0.00457,-0.02603 -0.0081,-0.0509 -0.01067,-0.07467c-0.39405,0.08994 -0.77119,0.19724 -1.16436,0.32077c0.42364,0.06617 0.82918,0.15771 1.20692,0.28279h0.24866c0.15629,0 0.283,0.1267 0.283,0.283c0,0.15629 -0.1267,0.283 -0.283,0.283h-0.47166v-0.04939c-0.07502,-0.02291 -0.1511,-0.04456 -0.22816,-0.06502c-0.49306,0.1487 -1.08483,0.27662 -1.53338,0.26112c0.49232,0.15586 1.14692,0.23737 2.04454,0.23737zM319.82041,197.7849c0.30769,-0.156 0.72775,-0.31671 1.20901,-0.46057c0.06723,-0.15318 0.1321,-0.32234 0.19465,-0.50998c0.12543,-0.37631 0.39576,-1.07779 0.7768,-1.74164c-0.13818,-0.0187 -0.24469,-0.13712 -0.24469,-0.28043v-0.25692c-0.36109,-1.45032 -0.37733,-3.04766 -0.37733,-4.55403c0,-1.19506 0.09981,-2.48795 0.13705,-3.77544c-0.54898,-0.39662 -0.9088,-5.05989 -1.0723,-5.94702c-0.18299,-0.54887 -3.47859,1.23191 -3.90296,1.46034c-0.59228,0.31881 -1.7522,0.56621 -2.80605,0.84639c0.14094,0.19293 0.26564,0.43514 0.36939,0.73336c0.19475,0.77736 0.59564,1.80935 0.94827,2.86434c0.29234,0.18199 0.54317,0.41349 0.72565,0.68838c1.1285,-1.2896 2.57009,-2.16577 2.58232,0.01622c0,2.88103 -0.36073,5.22736 -1.04885,8.0032l-0.00781,0.00918l0.00449,0.00149l-0.09227,0.27681c-0.03556,0.11564 -0.14324,0.19969 -0.27054,0.19969c-0.15629,0 -0.283,-0.1267 -0.283,-0.283v-0.56599h0.05918c-0.30322,-2.07355 0.29675,-4.22536 0.39822,-6.3202c-0.36055,0.90866 -1.1552,2.39513 -1.73536,1.94036c-0.12431,-0.09743 -0.24027,-0.2483 -0.34868,-0.44064c-0.24777,0.14052 -0.46901,0.15626 -0.57045,-0.01341c-0.39555,0.3769 -0.6351,0.02261 -0.71458,-0.54769c-0.00483,0.00226 -0.00965,0.0045 -0.01446,0.00673c-0.22901,0.88675 -0.63894,1.81985 -1.08778,2.64512c0.07191,0.64396 -0.07651,1.78542 -0.04375,2.04152c0.08624,0.67429 0.7018,1.72482 0.87157,2.43184c0.54142,-0.15696 0.87698,-0.02311 0.71286,0.67115c0.03454,0.0133 0.06922,0.02646 0.10401,0.0395c0.73121,0.02073 1.27289,0.20559 1.6732,0.50756c1.16954,0.28223 2.40301,0.44549 3.57975,0.50382c0.08959,-0.06455 0.18107,-0.12791 0.27445,-0.19005zM325.73342,200.49921c-0.1477,0.85775 -0.38209,1.73292 -0.63501,2.60468c0.08835,0.45811 0.19518,0.91586 0.32431,1.37399c0.06062,0.21508 0.16831,0.51834 0.26876,0.84991c-0.00661,-1.07852 -0.16201,-2.24554 -0.16201,-3.17758c0.00352,-0.58822 0.10447,-1.16419 0.25104,-1.72983c-0.0157,0.02629 -0.0314,0.05257 -0.04708,0.07883zM323.92285,207.89911c-0.01633,0.6568 -0.03737,1.31657 -0.03861,1.97531c0.2848,-0.47404 0.61495,-0.92168 0.91268,-1.38885c0.0462,-0.24403 0.07404,-0.45989 0.07434,-0.63589l0.01897,-0.0309l-0.01264,-0.00316l0.07942,-0.31768c0.0286,-0.12603 0.14131,-0.2201 0.27598,-0.2201c0.03817,0 0.07458,0.00756 0.10781,0.02126v-0.24361h0.00702c-0.23095,-0.92269 -0.42991,-1.84786 -0.59651,-2.77667c-0.37133,1.25495 -0.71699,2.48294 -0.82846,3.62029zM332.14612,203.98859c0.00019,-1.30872 -0.36229,-3.28925 0.24265,-4.48274v-0.2732c0,-0.15629 0.1267,-0.283 0.283,-0.283c0.15629,0 0.283,0.1267 0.283,0.283v0.32343h-0.04869c0.00589,0.01858 0.01172,0.03723 0.01745,0.05596l0.02366,0.00906c-0.00432,0.00889 -0.00858,0.01781 -0.0128,0.02678c0.30682,1.02336 0.39113,2.2761 0.37495,3.58731c0.00308,-0.0001 0.00617,-0.00015 0.00928,-0.00015c0.15629,0 0.283,0.12671 0.283,0.283v0.40428h-0.06607l-0.02376,0.1366c-0.01216,0.31003 -0.0249,0.63464 -0.04009,0.96892c0.03908,-0.01776 0.07872,-0.0225 0.1188,-0.01244c0.47125,0.11825 0.60863,2.52653 0.7069,4.00297c0.09696,-0.17263 0.11037,-0.28281 0.10851,-0.44481c-0.41067,-2.46656 1.38796,-7.01477 1.40565,-9.33161c0.00094,-2.82512 -0.03417,-5.61332 0.38907,-8.38316c-0.6516,0.10377 -1.34916,-0.7825 -1.93111,-1.83718c-0.34325,0.80575 -0.6702,1.61632 -0.99417,2.43648c-0.0239,0.46006 -0.06725,0.9129 -0.13852,1.35322h0.03356v0.47167c0,0.09034 -0.04234,0.17081 -0.10825,0.22262c0.29864,0.38954 0.75517,0.70593 1.45891,0.93815c1.77877,1.4646 -2.89909,2.20315 -3.75797,2.32587c-0.17653,0.02522 -0.37061,0.14039 -0.56629,0.26547c-0.22904,0.29109 -0.50256,0.54395 -0.76533,0.65194c-0.86322,1.63435 -0.80244,3.4233 -1.45881,5.38482c-0.49282,2.43988 -0.88157,4.80043 -1.79457,7.08292c-0.0623,0.31369 -0.08875,0.57107 -0.08455,0.78229c1.24342,0.01891 2.60849,0.45601 3.85171,0.66194c0.01804,-0.00047 0.03604,-0.00091 0.05403,-0.00133c2.11036,-0.56023 1.9008,-5.8862 2.14687,-7.60906zM334.38864,210.03994c0.62937,0.89908 1.32242,1.13906 1.97883,0.98017c0.70879,-0.80144 1.48101,-1.56808 2.25412,-2.27297c0.29972,-0.63481 0.47826,-1.29543 0.47826,-1.83315c0,-0.07501 -0.00076,-0.1513 -0.00214,-0.22876c-0.06188,0.23196 -0.11665,0.4543 -0.16001,0.66408l-0.08491,0.4237c-0.02379,0.13222 -0.13944,0.23254 -0.27851,0.23254c-0.15629,0 -0.283,-0.1267 -0.283,-0.283v-0.32343h0.05918l0.00186,-0.00924c-0.53723,-2.36807 0.67342,-6.12951 0.99365,-8.3615l0.00764,-0.01263l-0.00461,-0.00114l0.08108,-0.32909c0.02827,-0.12648 0.14119,-0.22101 0.27619,-0.22101c0.12148,0 0.22507,0.07653 0.2652,0.18401l0.15927,0.39816l-0.07693,0.03077c0.11568,0.24441 0.21,0.50656 0.28708,0.78034c0.10314,-1.02575 0.21437,-1.93127 0.21437,-2.24227v-0.40428c0,-0.15629 0.1267,-0.283 0.283,-0.283c0.14205,0 0.25965,0.10466 0.27991,0.24106l0.08009,0.48055l-0.07697,0.01282c0.00004,0.03147 0.00011,0.06327 0.00022,0.09535c0.0285,0.11429 0.05291,0.23071 0.07371,0.3489c0.5314,-1.59352 1.26357,-3.13062 1.67858,-3.65013c0.0706,-0.10508 0.14245,-0.20972 0.21542,-0.31396c0.13067,-0.23113 0.26833,-0.4601 0.41371,-0.68671l-0.02611,-0.0087l0.17692,-0.53076c0.03556,-0.11564 0.14323,-0.19969 0.27054,-0.19969c0.06918,0 0.13255,0.02482 0.18172,0.06604c0.19816,-0.2524 0.39921,-0.50378 0.60093,-0.7549c0.01883,-0.039 0.04634,-0.07302 0.08002,-0.09955c0.14201,-0.17662 0.28419,-0.35316 0.42581,-0.5299c-0.4211,0.21893 -0.79836,0.15931 -0.96116,-0.24278c-0.21491,0.40562 -0.47161,0.78152 -0.6435,0.99423l-0.06817,0.27265c-0.0286,0.12603 -0.14131,0.22009 -0.27598,0.22009c-0.13911,0 -0.25477,-0.10037 -0.27853,-0.23263l-0.07983,-0.39914l0.08723,-0.01745c-0.11612,-0.43871 -0.09399,-0.84221 -0.09272,-1.41261c0.00021,-0.09343 -0.12017,-1.02832 -0.13227,-1.02602c-1.19892,0.22743 -2.70828,3.25422 -3.08854,4.27097c-0.09103,0.13863 -0.18206,0.27727 -0.27309,0.4159l-0.07079,0.28314c-0.0286,0.12603 -0.14131,0.2201 -0.27598,0.2201c-0.15629,0 -0.283,-0.12671 -0.283,-0.283v-0.32342h0.07215l0.01715,-0.06864l0.01953,0.00488c-0.00077,-0.01578 -0.00139,-0.03156 -0.00185,-0.04738l-0.00258,-0.00188c0.0008,-0.00125 0.00161,-0.0025 0.00241,-0.00375c-0.0428,-1.57214 1.3877,-3.35625 0.97779,-4.60107c-0.01664,-0.05053 -0.3201,-0.06421 -0.69993,-0.06264c-0.67993,0.34899 -1.34757,0.82084 -1.98819,1.14737c-0.21797,1.1387 -0.32356,2.29572 -0.32356,3.4377c0,2.66561 1.28271,4.8541 0.64904,7.43704c-0.68741,2.05431 -1.45426,3.95132 -2.18081,5.94383c-0.04022,0.74785 -0.05171,1.45546 -0.44781,1.99668l0.10439,0.10439l-0.283,0.283c-0.05121,0.05121 -0.12196,0.08288 -0.20011,0.08288c-0.05016,0 -0.09726,-0.01305 -0.13811,-0.03594c0.01145,0.11993 0.02318,0.21677 0.03572,0.28475zM332.56252,184.96274c0.02822,0.24192 0.04531,0.5067 0.05362,0.78702c0.02504,-0.08397 0.088,-0.15159 0.16902,-0.18299c-0.07716,-0.20285 -0.148,-0.40453 -0.22264,-0.60402zM330.86403,189.17337c-0.04131,-0.28015 -0.07354,-0.56569 -0.0986,-0.85272c-0.01442,-0.02594 -0.02875,-0.05212 -0.043,-0.07853c-0.00369,0.07811 -0.00531,0.15478 -0.00469,0.22992c-0.00302,0.35355 0.07033,0.70088 0.19357,1.04213c-0.02079,-0.11016 -0.0363,-0.22394 -0.04728,-0.3408zM328.25003,182.93462c-0.18035,-0.0361 -0.39878,-0.10283 -0.64245,-0.18685c-0.09421,0.42294 -0.17543,0.85001 -0.23151,1.28543c-0.00542,0.55482 -0.06949,1.12584 -0.16864,1.70159c-0.00392,0.13235 -0.00667,0.26704 -0.00858,0.4036c0.06104,-0.37846 0.10817,-0.75305 0.12733,-1.12089l0.03809,-0.04668l-0.01749,-0.00868l0.19044,-0.3837c0.04522,-0.09614 0.14296,-0.1627 0.25623,-0.1627c0.12957,0 0.23879,0.08707 0.27236,0.20589l0.05416,0.17598c0.01649,-0.00299 0.03346,-0.00454 0.05081,-0.00454c0.0594,0 0.11452,0.01829 0.16004,0.04956c0.24327,-0.4259 0.49461,-0.54483 0.75128,-0.45589c-0.10924,-0.46476 -0.23437,-0.93367 -0.35451,-1.40146c-0.18858,-0.01182 -0.35547,-0.02625 -0.47755,-0.05066zM324.69797,181.80692c0.00674,0.06732 0.0131,0.13501 0.01911,0.20305c0.19761,0.4153 0.50953,0.55117 0.99532,0.05604c-0.35101,-0.11272 -0.69655,-0.20678 -1.01443,-0.25909zM324.21787,190.14576c-0.05192,0.31146 -0.109,0.62212 -0.1726,0.93139l-0.02675,0.02862l0.01219,0.0061l-0.15897,0.31794c-0.04538,0.09572 -0.14289,0.16192 -0.25586,0.16192c-0.14569,0 -0.26567,-0.11009 -0.28128,-0.25162l-0.06974,-0.5579l0.06515,-0.00815c-0.36895,-1.64232 -0.22973,-3.62861 -0.13495,-5.41632c-0.03174,0.14801 -0.06252,0.29604 -0.09208,0.44407c-0.30532,1.82662 -0.25524,3.63576 -0.25524,5.50692v0.40428c0,0.11513 -0.06874,0.21419 -0.16742,0.2584c-0.06788,0.80943 -0.18867,1.59803 -0.39665,2.34922h0.03851v0.24511c0.63144,-0.89558 1.47571,-1.51388 2.42945,-0.75768c0.50364,0.39933 0.23163,1.60944 0.04981,2.50854c0.52324,-0.62595 0.92004,-1.43472 1.20765,-2.43991c0.11297,-0.56762 0.23215,-1.13281 0.35505,-1.6969c-0.65482,0.69411 -1.379,0.03004 -1.00082,-1.0455c0.1859,-1.30559 0.62632,-2.58553 0.94794,-3.87954c0.07722,-0.81882 0.19052,-1.63631 0.33774,-2.43818c-0.04745,-0.65419 -0.18573,-1.78406 -0.20463,-2.4964c-0.04993,-0.0183 -0.10005,-0.03654 -0.15032,-0.05466c-0.62993,0.75796 -1.13628,0.84451 -1.52218,0.56183c0.11991,2.5467 -0.18887,5.41138 -0.55397,7.31842zM308.41147,186.44698c-0.05681,0.08761 -0.09135,0.23371 -0.11752,0.40903c-0.00881,0.58112 -0.02728,1.16015 -0.02728,1.71035c0,0.98556 0,1.97113 0,2.95669c0.52991,-1.59129 1.97218,-3.17112 2.90216,-4.44478c0.0616,-0.2495 0.18454,-0.4846 0.37953,-0.68414c0.06761,-0.06919 0.13937,-0.13295 0.2147,-0.19142c0.35298,-0.5127 0.87681,-1.17481 1.20274,-1.02168c0.2019,0.09485 0.29167,0.2911 0.32544,0.51433c0.09556,-0.00238 0.1915,-0.0004 0.28729,0.0058l0.01584,-0.02376c0.05039,-0.07802 0.13811,-0.12967 0.2379,-0.12967c0.04016,0 0.07838,0.00837 0.11298,0.02345c-0.15312,-0.88934 -0.27587,-1.67772 -0.38469,-2.11397c-0.11181,-0.34737 -0.29081,-0.57014 -0.51135,-0.69699c-0.49136,0.15166 -0.91706,0.31767 -1.19016,0.51146c-0.02726,0.51086 -0.32018,1.09135 -0.99096,1.76212c-0.70208,0.2485 -1.12677,0.25054 -1.33956,0.09984c-0.43566,0.41887 -0.82392,0.86128 -1.11705,1.31334zM305.89451,186.60907c-0.00284,0.00564 -0.00572,0.01128 -0.0086,0.0169c-0.01123,0.15658 -0.01902,0.30043 -0.01936,0.42528l-0.01508,0.02542l0.01096,0.00219l-0.07983,0.39914c-0.02376,0.13227 -0.13942,0.23264 -0.27853,0.23264c-0.15629,0 -0.283,-0.1267 -0.283,-0.283v-0.56599h0.08121c-0.00901,-0.74989 -0.06912,-1.50468 0.00712,-2.23417c-0.00364,-0.34434 -0.01379,-0.68648 -0.03954,-1.01365c-0.42837,1.20099 -0.94482,2.44652 -1.5115,3.64135c-0.01443,0.27208 -0.01964,0.55125 -0.01964,0.83953c0,0.59163 -0.28418,2.48815 -0.08424,3.25257c1.09444,0.24928 2.20819,0.42638 3.38586,0.42638c0.1648,0 0.33244,-0.00256 0.5012,-0.00904c-0.93626,-1.0509 -1.37382,-3.25784 -1.64703,-5.15555zM298.29756,183.02707c-0.19483,0.36353 -0.36627,1.08358 -0.56605,1.5318c0.01062,0.28539 0.02463,0.57622 0.04307,0.85841c0.29622,-0.18846 0.63285,-0.22535 0.99891,0.14495c0.14068,0.1423 0.18364,0.53003 0.16254,0.97108c0.08576,-0.14834 0.16855,-0.28564 0.24034,-0.40508c0.76603,-0.75134 1.8289,-2.12731 3.00782,-3.21053c-1.0168,-0.80578 -2.11117,-0.70836 -3.88663,0.10938zM295.55656,183.04173c-0.26225,-0.39265 -0.44844,-0.83953 -0.65872,-1.26648c-0.26165,0.39642 -0.5281,0.78976 -0.77473,1.17491l-0.06466,0.32331c-0.02376,0.13227 -0.13942,0.23264 -0.27853,0.23264c-0.15629,0 -0.283,-0.1267 -0.283,-0.283c0,-0.02102 0.00229,-0.04151 0.00664,-0.06123l0.07972,-0.39856l0.00329,0.00066l-0.00189,-0.00724c0.18106,-0.7242 0.1865,-1.48004 0.40052,-2.17078l-0.07554,-0.01888l0.07942,-0.31768c0.0286,-0.12603 0.14131,-0.2201 0.27598,-0.2201c0.09979,0 0.18751,0.05164 0.2379,0.12967l0.14766,0.22149c0.03454,0.03474 0.06791,0.07032 0.10021,0.10669c0.11438,-0.18428 0.23223,-0.36179 0.34995,-0.52532c-0.34779,-0.77695 -0.84351,-1.44299 -1.54924,-1.88349c-0.2241,0.05369 -0.44701,0.11154 -0.66772,0.17271c-0.16,0.26969 -0.33275,0.66079 -0.50931,1.10137c0.04433,0.07581 0.04433,0.15805 0.04433,0.15805l-0.04753,0.25131c-0.05835,0.08752 -0.13733,0.23675 -0.23064,0.42688c0.10739,0.04018 0.18384,0.14373 0.18384,0.26513v0.283c0,1.49826 -0.3812,3.63295 0.09068,5.04861c0.00412,1.04217 1.15087,1.72379 2.46716,2.34096c-0.00362,-0.4815 -0.00724,-0.96302 -0.01086,-1.44452c0,0 -0.00212,-0.28299 0.28087,-0.28512c0.28299,-0.00213 0.28511,0.28087 0.28511,0.28087c0.00429,0.56951 0.00856,1.13902 0.01285,1.70852c0.3919,0.17626 0.78647,0.35062 1.15962,0.53041c0.006,-0.26998 0.02649,-0.53176 0.10595,-0.76c-0.19445,-0.0932 -0.13797,-0.31912 -0.13797,-0.31912l0.0929,-0.37158c0.0286,-0.12603 0.14131,-0.2201 0.27598,-0.2201c0.15629,0 0.283,0.1267 0.283,0.283v0.566h-0.05978c0.05992,0.37782 0.09207,0.76644 0.1018,1.16323c0.41513,0.23285 0.77533,0.48077 1.03576,0.7574c1.0584,0.19195 2.07196,0.4667 3.07557,0.74215c-0.02505,-0.06795 -0.05066,-0.13443 -0.07682,-0.19937c0,0 -0.1051,-0.26276 0.15766,-0.36786c0.26276,-0.1051 0.36786,0.15765 0.36786,0.15765c0.07405,0.18632 0.14381,0.38345 0.20896,0.58961c0.49753,0.13512 0.9945,0.26597 1.49518,0.38247c-0.33087,-0.67164 -0.3604,-1.59837 -0.363,-2.88393c-0.09823,0.18951 -0.19747,0.37677 -0.29756,0.56137l0.00882,0.00177l-0.0933,0.46652c-0.02376,0.13227 -0.13942,0.23263 -0.27853,0.23263c-0.15629,0 -0.283,-0.1267 -0.283,-0.283c0,-0.59245 0,-1.4679 0,-2.06034c-0.57972,0.71006 -1.08427,1.32371 -1.34425,1.7054l-0.0832,0.24959c-0.03556,0.11564 -0.14323,0.1997 -0.27054,0.1997c-0.15629,0 -0.283,-0.12671 -0.283,-0.283v-0.283h0.07902l0.02983,-0.08949l0.01366,0.00455c-0.03931,-0.76756 0.1629,-1.80622 0.52881,-2.86746c-0.64247,0.59895 -1.2218,1.29906 -1.95118,1.76985c-0.07674,0.20662 -0.12447,0.40313 -0.1188,0.56755l-0.02833,0.03834l0.01746,0.00582l-0.09227,0.2768c-0.03556,0.11564 -0.14324,0.1997 -0.27054,0.1997c-0.13468,0 -0.24738,-0.09408 -0.27598,-0.2201l-0.0929,-0.37158l0.12284,-0.03071c-0.00892,-0.04766 -0.0159,-0.09511 -0.02118,-0.14239c-0.55121,0.02423 -0.84184,-0.63055 -0.98803,-1.50717c-0.37001,0.33378 -0.75822,0.60581 -1.04096,0.44977c-0.44061,-0.24317 -0.25077,-1.35112 -0.25077,-1.76244c0,-0.48997 -0.00777,-1.03738 -0.04155,-1.60853c-0.13881,-0.25648 -0.24645,-0.485 -0.31102,-0.61448zM312.83664,197.694l0.11226,-0.02806c0.01302,-0.00356 0.02641,-0.00621 0.0401,-0.00789c0.05935,-0.04147 0.11588,-0.08369 0.16901,-0.12687c-0.09567,-0.00053 -0.19503,-0.00142 -0.29735,-0.00279c-0.0013,0.054 -0.00954,0.10935 -0.02403,0.16561zM297.78988,206.65558c-0.07547,-0.05789 -0.19301,-0.08791 -0.32149,-0.10258c-0.04401,0.07214 -0.08792,0.1432 -0.13165,0.21312c0.41847,0.08597 0.69333,0.07368 0.45314,-0.11054zM309.53336,198.96928l-0.03991,0.00665c-0.00991,0.12992 -0.02026,0.25976 -0.03125,0.38949c0.0226,-0.13432 0.04642,-0.26655 0.07116,-0.39614zM308.74522,200.09908c-0.24604,0.74229 -0.43152,1.85558 -0.41906,2.4834c0.27212,-0.86405 0.42093,-1.74927 0.51913,-2.64351c-0.03219,0.05395 -0.0655,0.10736 -0.10007,0.16012zM311.55433,197.955c0.20103,-0.02854 0.39431,-0.04628 0.56887,-0.04681c0.176,-0.15137 0.26358,-0.28985 0.17463,-0.38646c-0.0018,-0.00196 -0.0036,-0.0039 -0.00541,-0.00583c-0.05106,-0.0016 -0.10247,-0.00334 -0.15416,-0.00525c-0.19774,0.14359 -0.39678,0.2955 -0.58394,0.44434zM331.99517,212.748c0.02308,-0.014 0.04929,-0.02828 0.07788,-0.04271c0.01018,-0.02825 0.02044,-0.05645 0.03075,-0.0846c-0.01074,0.00003 -0.02147,0.00006 -0.0322,0.0001c-0.02235,0.0299 -0.04511,0.06017 -0.06827,0.09081c-0.00282,0.01259 -0.00554,0.02475 -0.00816,0.03641zM339.0973,188.74445c0.27038,-0.12064 0.55649,-0.22716 0.8663,-0.31068c0.41387,-0.06021 0.96,-0.2843 1.48584,-0.4826c-0.29486,0.05574 -0.59026,0.10688 -0.88289,0.17973c-0.53342,0.13279 -1.00992,0.35931 -1.46926,0.61355zM323.89166,182.28522c-0.06429,0.31111 -0.1339,0.62355 -0.2059,0.93694c0.02082,0.02959 0.03611,0.06335 0.04438,0.09977l0.07942,0.31768l-0.01044,0.00261l0.01676,0.03145c0.0033,0.55588 0.0699,1.29941 0.13749,2.11087c-0.0109,-1.10328 -0.05452,-2.20693 -0.05452,-3.28914c0,-0.05887 -0.00272,-0.12981 -0.00721,-0.21019zM298.12807,183.10633c-0.0941,0.04464 -0.19007,0.09119 -0.28801,0.13963c-0.04746,0.01206 -0.09343,0.02253 -0.13795,0.03146c0.00138,0.13133 0.00331,0.27176 0.00597,0.4187c0.14875,-0.21352 0.28702,-0.40947 0.41998,-0.58979zM296.24595,181.05457c-0.01642,-0.2235 -0.00344,-0.64831 -0.00405,-0.99128c-0.05728,-0.10211 -0.11628,-0.2021 -0.17697,-0.30018c-0.07459,0.167 -0.15758,0.335 -0.24707,0.50362c0.34748,0.97632 0.5154,2.06064 0.59364,3.09655c0.22402,0.35821 0.49675,0.77673 0.65575,0.96914c0.00345,-0.3774 0.01545,-0.73313 0.0286,-1.03794c-0.80339,-0.16857 -0.77579,-1.23097 -0.8499,-2.23991zM295.25054,181.2314c0.16411,0.30732 0.30649,0.63116 0.46449,0.94495c-0.06589,-0.42609 -0.15359,-0.84967 -0.27007,-1.25789c-0.06341,0.1043 -0.12836,0.20865 -0.19441,0.31294zM339.658,200.79507c-0.00247,0.01644 -0.00494,0.03288 -0.0074,0.04932c0.00442,-0.00244 0.00892,-0.00476 0.01348,-0.00697c-0.00205,-0.01414 -0.00408,-0.02826 -0.00608,-0.04235zM325.88972,199.02558c0.1673,-0.44981 0.16218,-0.7911 0.03055,-1.04436v0.03858h-0.06957c0.0374,0.32933 0.04884,0.66507 0.03902,1.00578zM310.67781,197.70245c0.00725,0.0883 0.01174,0.17772 0.01409,0.26785c0.1885,-0.15802 0.4074,-0.33016 0.64212,-0.50306c-0.08239,-0.00604 -0.16458,-0.01263 -0.2463,-0.01981c-0.13725,0.0721 -0.2748,0.16006 -0.4099,0.25502zM303.69974,193.92582c-0.10559,0.27306 -0.23127,0.52922 -0.31977,0.72708c0.25365,-0.27951 0.50646,-0.52877 0.666,-0.71348c-0.12238,-0.00044 -0.2361,-0.00357 -0.34623,-0.0136zM304.9994,193.96607c-0.13167,-0.01152 -0.26042,-0.02193 -0.36309,-0.02671c-0.03921,0.08786 -0.08704,0.17743 -0.14149,0.26633c0.03639,-0.01703 0.07701,-0.02655 0.11985,-0.02655c0.01692,0 0.03348,0.00148 0.04959,0.00433c0.08809,-0.09592 0.20298,-0.17159 0.33515,-0.21739zM293.52285,205.03461c-1.17902,0.76426 -1.24115,1.05504 -0.73162,1.12291c0.03495,-0.08311 0.10844,-0.14603 0.1981,-0.16638l0.31768,-0.07942l0.0181,0.07241h0.04171c0.32354,-0.12366 0.6816,-0.1979 1.05765,-0.23914c-0.32118,-0.25441 -0.62672,-0.50161 -0.90161,-0.71039zM311.91845,187.43114c0.0518,-0.212 0.10111,-0.40781 0.14569,-0.58292l0.04244,-0.02975l-0.01911,-0.01274l0.17111,-0.25666c-0.03667,0.02236 -0.07241,0.04602 -0.10714,0.07101c-0.13965,0.22063 -0.2872,0.43428 -0.43867,0.64507c-0.02444,0.12274 -0.02947,0.25242 -0.01714,0.38262c0.06084,-0.04502 0.12139,-0.08912 0.18147,-0.13228c0.01373,-0.02888 0.02752,-0.05702 0.04133,-0.08435zM322.04957,186.79991c0.01184,-0.23669 0.0251,-0.47316 0.03998,-0.70931c-0.00621,0.00525 -0.0124,0.0104 -0.0186,0.01545c-0.00543,0.23127 -0.01285,0.46272 -0.02139,0.69387zM329.82528,184.16181c0.10976,-0.33215 0.24268,-0.67305 0.38817,-1.01363c-0.14869,-0.04682 -0.33496,-0.07731 -0.53555,-0.09891c0.059,0.37381 0.10784,0.74733 0.14738,1.11254zM333.28008,189.35168c0.19243,-0.38451 0.38775,-0.76289 0.58095,-1.13182c-0.28593,-0.60413 -0.52386,-1.19745 -0.68609,-1.6392c0.01658,0.8927 0.07428,1.83047 0.10513,2.77102zM339.67997,185.72044c-0.34259,-0.22366 -0.9288,0.48415 -1.46345,1.34962c-0.19134,0.44547 -0.3618,0.90016 -0.51187,1.36164c1.01976,-0.85169 3.37841,-1.05191 4.60056,-0.86361c-0.87072,-0.62681 -1.73289,-1.26506 -2.62524,-1.84764zM322.84756,212.95722c0.03001,0.00378 0.06001,0.00735 0.09,0.01068c0.14059,-0.00308 0.2696,0.00433 0.37198,0.02933c0.04582,0.00204 0.09148,0.00346 0.13693,0.00424c-0.00187,-0.02137 -0.00371,-0.04269 -0.00552,-0.06399c-0.19819,0.00823 -0.3962,0.01494 -0.5934,0.01973zM309.94939,212.29429c-0.0899,-0.00418 -0.18011,-0.00771 -0.27054,-0.01063c0.09311,0.09713 0.19713,0.18613 0.31539,0.2667c-0.04007,-0.08876 -0.05372,-0.17412 -0.04485,-0.25608zM298.24774,203.46361c-0.02994,-0.31358 -0.01659,-0.64423 0.0243,-0.89145c0.02031,-0.08007 0.03982,-0.16037 0.05868,-0.24085c-0.77478,0.0126 -1.8632,0.61488 -2.79604,1.24282c0.21204,-0.04627 0.4468,-0.11037 0.70645,-0.19394c0.69332,0.02336 1.16386,0.59891 1.5758,1.19509c0.15427,-0.36228 0.29699,-0.73237 0.43081,-1.11167zM299.89981,199.22591c0.00762,0.063 0.01381,0.12684 0.01859,0.19144c0.01423,-0.06389 0.02861,-0.12771 0.04314,-0.19144zM301.85207,195.35828v0.56605c-0.00022,0.55625 -0.01493,1.12067 -0.04363,1.68829c0.20445,-0.81872 0.28756,-1.76991 0.27144,-2.73518c-0.087,0.12411 -0.16843,0.25294 -0.24452,0.38556c0.0167,0.05239 0.0167,0.09528 0.0167,0.09528zM297.92233,205.77533c-0.0078,0.01397 -0.01559,0.02792 -0.02341,0.04183c0.01674,0.00153 0.03331,0.00315 0.04969,0.00487c-0.00874,-0.0155 -0.0175,-0.03107 -0.02628,-0.04671zM309.50138,194.15788l0.00012,-0.0002l-0.00008,-0.00002l0.05105,-0.20419c-0.09412,0.04972 -0.1901,0.09564 -0.28765,0.13736l-0.35426,0.2657c0.15616,0.10624 0.31548,0.21128 0.47557,0.31465c0.03477,-0.17169 0.07301,-0.34282 0.11525,-0.5133zM307.04034,192.33965c-0.12764,0 -0.25464,-0.00183 -0.38104,-0.0054c0.12225,0.02872 0.22419,0.05791 0.29815,0.08829c0.1404,0.4471 0.61114,0.92721 1.21608,1.40015c0.00129,-0.01401 0.0036,-0.02774 0.00686,-0.04108l0.12146,-0.54656l0.10252,0.02279c0.05808,-0.25562 0.1406,-0.51676 0.24358,-0.78151c-0.06029,0.0878 -0.12195,0.17361 -0.18518,0.25714l0.07031,0.04688l-0.31152,0.46728c-0.05039,0.07802 -0.13811,0.12967 -0.2379,0.12967c-0.15629,0 -0.283,-0.1267 -0.283,-0.283c0,-0.25307 0,-0.5152 0,-0.78314c-0.21232,0.01886 -0.43236,0.02848 -0.66033,0.02848zM311.23951,192.75299c-0.45015,0.36078 -0.91478,0.69989 -1.01898,0.76233c-0.05287,0.042 -0.10679,0.08291 -0.16167,0.12261c0.04302,0.03846 0.07421,0.0899 0.08743,0.14815l0.0929,0.37158l-0.11099,0.02775c0.08432,0.32028 0.11043,0.66151 0.09746,1.01332c0.26147,0.16142 0.51321,0.31563 0.74384,0.46031c0.19429,0.01811 0.35476,0.04666 0.45546,0.08023c0.47589,0.00237 0.91423,0.238 1.36481,0.38819l0.06356,0.02119c-0.28019,-0.81565 -0.81104,-1.57145 -0.81338,-2.58268c-0.00042,-0.17968 -0.00235,-0.46793 -0.00032,-0.76399c-0.07156,0.10987 -0.14253,0.21538 -0.21236,0.31594l-0.08278,0.24835c-0.03556,0.11564 -0.14324,0.1997 -0.27054,0.1997c-0.15629,0 -0.283,-0.12671 -0.283,-0.283v-0.283h0.07902l0.00317,-0.00948c-0.01317,-0.07684 -0.02435,-0.15608 -0.03365,-0.23751zM325.63553,209.99348c0.51826,-1.29565 0.86774,-2.60394 1.16115,-3.93777c-0.21283,0.52709 -0.45724,0.97967 -0.73096,1.32452l-0.19151,0.2819c-0.11454,0.26944 -0.25278,0.52409 -0.40328,0.77095c0.04049,0.83743 -0.04051,1.85334 0.09791,2.5086c-0.02536,-0.2756 -0.00545,-0.58996 0.06668,-0.9482zM323.92217,211.06277c0.00125,0.11319 0.00325,0.22551 0.0061,0.33703c0.00057,0.00847 0.00116,0.01694 0.00174,0.02541l0.16448,-0.13159c0.09493,-0.41372 0.20989,-0.84399 0.32193,-1.26168c-0.19605,0.32492 -0.36951,0.66319 -0.49425,1.03083zM328.79819,197.704c-0.03845,-0.04832 -0.06143,-0.10952 -0.06143,-0.17607c0,-0.05946 0.01834,-0.11465 0.04967,-0.1602l0.18652,-0.27977l0.09532,0.06354c0.02504,-0.03466 0.05102,-0.06796 0.07791,-0.09999c0.2422,-0.3945 0.54253,-0.78141 0.92268,-1.16156c0.69556,-0.4442 0.78447,-0.11296 0.58162,0.38555c0.6153,-0.14112 1.27919,-0.21323 1.84561,-0.42401c0.12435,-0.04628 2.35735,-0.78994 1.77628,-0.89931c-0.67404,-0.22869 -1.31085,-0.74862 -1.79364,-1.4222c-0.18964,0.53458 -0.42769,1.18389 -0.74371,1.59888c-0.01046,0.04777 -0.0207,0.0951 -0.03071,0.14201l0.01312,0.00394l-0.04632,0.15443c-0.00664,0.03223 -0.01315,0.06423 -0.01952,0.096l-0.01331,0.0141l0.00826,0.00276l-0.09227,0.27681c-0.03556,0.11564 -0.14323,0.19969 -0.27054,0.19969c-0.15629,0 -0.283,-0.1267 -0.283,-0.283c0,-0.03058 0.00486,-0.06004 0.01383,-0.08762l0.1091,-0.36368c0.21122,-1.05389 0.44616,-2.12493 0.64579,-3.20057c-0.74567,-1.12945 -1.60894,-2.29743 -1.61771,-3.61172c0.00264,-0.40879 0.03482,-0.82526 0.08861,-1.24622c-0.05683,-0.13151 -0.11239,-0.26296 -0.16681,-0.3926l-0.01749,0.15736c-0.01399,0.14322 -0.13475,0.25514 -0.28164,0.25514c-0.13468,0 -0.24738,-0.09408 -0.27598,-0.2201l-0.0929,-0.37158l0.01309,-0.00327l-0.01942,-0.03079c-0.00075,-0.48326 -0.06293,-0.98221 -0.15826,-1.4897c-0.27798,-0.32514 -0.5382,-0.20663 -0.80837,0.7639c0.78693,2.76892 -0.35614,5.47256 -0.35614,8.33213c-0.00252,0.17889 -0.00505,0.35779 -0.00757,0.53668l-0.04513,0.05013l0.02282,0.01141l-0.18593,0.37185c-0.04538,0.09572 -0.14289,0.16192 -0.25586,0.16192c-0.15629,0 -0.283,-0.1267 -0.283,-0.283v-0.47166h0.03737c-0.18989,-0.9764 -0.21401,-1.97915 -0.15569,-2.98992c-0.26386,0.88302 -0.50668,1.70773 -0.64428,2.3962c-0.346,1.21269 -0.85131,2.17419 -1.53164,2.89528c0.98369,0.16843 1.6601,0.65849 1.54005,1.67634c0.01161,-0.00408 0.02356,-0.00743 0.03581,-0.00998c0.05455,-0.32477 0.13585,-0.63294 0.25339,-0.9197c0.02955,-0.203 0.05884,-0.4064 0.08766,-0.61032v-0.36258c0,-0.15629 0.12671,-0.283 0.283,-0.283c0.14413,0 0.26309,0.10774 0.28074,0.24709l0.07945,0.55619l-0.09674,0.01382c-0.0001,0.00075 -0.0002,0.00149 -0.00031,0.00224c0.32188,1.24669 0.384,2.98641 0.22107,4.70996c0.37091,-1.51111 0.48325,-2.90876 1.08652,-4.22124zM313.11963,196.98391c-0.02735,-0.01983 -0.05432,-0.03989 -0.0809,-0.0602c-0.03571,0.0194 -0.07258,0.04018 -0.11045,0.06218c0.06374,-0.00025 0.12753,-0.00097 0.19135,-0.00198zM319.65153,211.85019c0.03111,-0.00472 0.06232,-0.00931 0.09365,-0.01378l-0.03532,-0.03532c-0.01929,0.01703 -0.03873,0.03338 -0.05833,0.04909zM305.60656,209.0271c-0.23304,0.33675 -0.46917,0.68087 -0.70567,1.03777c-0.45802,0.45802 -1.17749,0.71987 -2.01056,0.8302c0.62199,0.54132 1.45964,0.88598 2.73503,0.87703c0.32334,0.00053 0.66302,-0.00592 1.01377,-0.01491c0.27207,-1.52476 0.30444,-3.11207 0.47167,-4.6554c-0.47234,0.66642 -0.96778,1.31726 -1.50423,1.92532zM300.52349,207.23895c0.73372,1.05981 1.15879,2.25143 1.88073,3.14689c0.27599,0.02192 0.54612,0.01745 0.80745,-0.02719c-0.17639,-0.26515 -0.14414,-0.74455 0.00176,-1.26802c-0.6371,0.00712 -1.22292,-0.12723 -1.35771,-0.85783c-0.11025,-0.59757 -0.28353,-1.32747 -0.28666,-1.93197c-0.00075,-0.14514 0.01922,-0.43396 0.03945,-0.65131c-0.13366,0.41493 -0.55951,0.99827 -0.7473,1.27995c-0.10651,0.13763 -0.22102,0.24098 -0.33772,0.30948zM297.18991,209.92772c0.03711,0.02317 0.07444,0.04698 0.11201,0.07126c-0.01433,-0.01881 -0.02802,-0.03761 -0.04104,-0.05641l-0.10194,-0.03398c0.01089,0.00666 0.02124,0.01305 0.03098,0.01913zM300.25484,211.80706c-0.39278,-0.1266 -0.75696,-0.30775 -1.17298,-0.41441c-0.26945,0 -0.98975,-0.29046 -1.69473,-0.68633c0.06312,0.14208 0.11735,0.25383 0.16005,0.32563c1.59552,1.65445 3.4071,1.72699 5.27203,1.8771c-0.51499,-0.68526 -0.99554,-1.39559 -1.54535,-1.97097c-0.48737,-0.03071 -0.98137,-0.09655 -1.45978,-0.19081c0.33551,0.1733 0.62765,0.36157 0.80782,0.58479c0.11598,0.04031 0.23402,0.07889 0.35552,0.11438l0.03115,0.10188l0.0413,-0.02753l0.18652,0.27977c0.03133,0.04555 0.04967,0.10074 0.04967,0.1602c0,0.15629 -0.1267,0.283 -0.283,0.283c-0.06474,0 -0.1244,-0.02173 -0.17209,-0.05831l-0.37504,-0.28129l0.00875,-0.01167c-0.06855,-0.02742 -0.13861,-0.05593 -0.20986,-0.08544zM314.22005,216.12693c0.51977,-0.04345 1.00163,-0.10897 1.42623,-0.19473c0.12624,-0.04208 0.3083,-0.17967 0.46856,-0.29343c-0.62022,0.04991 -1.87214,0.01784 -2.07248,0.03793c-0.31406,0.0315 -0.63182,0.06182 -0.95118,0.09461c0.19375,0.05398 0.37702,0.10909 0.54757,0.16594c0.18979,0.06632 0.38372,0.1295 0.58129,0.18969zM295.02893,208.94722c0.1502,-0.2239 0.30291,-0.44412 0.46612,-0.65745c-0.10901,-0.4164 -0.16393,-0.85868 -0.14151,-1.34135c0.00012,-0.00261 0.00024,-0.00516 0.00033,-0.00763c-0.01262,0.00121 -0.02526,0.00239 -0.03789,0.00355c-0.0648,0.21629 -0.19495,0.84792 -0.26106,1.10859c-0.04641,0.18299 -0.02243,0.55133 -0.02599,0.89428zM303.97604,213.57786c0.44881,0.44713 0.96143,0.82228 1.5924,1.05675c0.92974,0.61983 2.27528,1.03758 3.72965,1.28259c0.27519,-0.0996 0.55798,-0.18862 0.84621,-0.26793c-1.81392,-0.416 -3.69647,-0.90781 -4.74852,-1.74192c-0.47895,-0.15029 -0.95216,-0.25282 -1.41975,-0.32948zM320.75372,217.71503c-2.22843,-0.14233 -4.54077,-0.45744 -6.56841,-1.02339c-1.47174,0.11542 -3.20722,0.0672 -4.82936,-0.18867c-0.27024,0.0991 -0.53487,0.21203 -0.79233,0.34153c-0.2722,0.09119 -1.11851,0.19191 -0.83277,0.21946c2.75368,0.26547 5.37611,0.65107 8.17672,0.65107c1.61538,0 3.23076,0 4.84614,0zM303.87249,208.48908c0.09866,-0.00731 0.18639,-0.01067 0.25588,-0.00647c0.63421,-0.46245 1.71911,-1.16981 1.82268,-2.03367c0.04403,-0.3673 -0.52649,0.52347 -0.82356,0.74394c-0.46843,0.34765 -1.03141,0.71562 -1.255,1.2962zM314.78906,212.32437c-0.19018,0.0864 -0.37582,0.18433 -0.55597,0.29535c-0.66807,0.39184 1.15922,0.38516 2.22388,0.39924c-0.04507,-0.12013 -0.08543,-0.25524 -0.12155,-0.40312c-0.03474,-0.00583 -0.06945,-0.0117 -0.10414,-0.01761c-0.05142,0.07101 -0.135,0.1172 -0.22937,0.1172c-0.12973,0 -0.23906,-0.08729 -0.27249,-0.20634c-0.28307,-0.05237 -0.56411,-0.10803 -0.84255,-0.1675c-0.02666,-0.00569 -0.05957,-0.01138 -0.09781,-0.01721zM319.91144,213.09321c-0.98867,-0.10962 -1.9868,-0.2298 -2.97099,-0.38043c-0.02171,0.10837 -0.0462,0.2135 -0.07369,0.31507c1.01535,0.03799 2.02975,0.05962 3.04467,0.06537zM318.57833,211.68158c-0.50307,0.00679 -1.01323,0.02558 -1.51759,0.07744c-0.00788,0.11867 -0.01776,0.23524 -0.02984,0.34938c0.25706,0.0367 0.51426,0.07309 0.77155,0.10907c-0.00538,-0.0218 -0.00823,-0.04458 -0.00823,-0.06804c0,-0.1273 0.08406,-0.23498 0.19969,-0.27054l0.27681,-0.09227l0.00121,0.00365l0.00916,-0.00688c0.09429,-0.02346 0.19426,-0.06067 0.29723,-0.1018zM329.59493,212.62144c0.1024,0.3994 0.11609,1.22613 0.1726,1.44688c-0.00073,0.09763 0.02967,0.17284 0.08538,0.22826c0.42233,-0.53973 0.82371,-1.1129 1.22502,-1.67434c-0.49434,0.00014 -0.98868,-0.00041 -1.48301,-0.0008zM332.42376,213.67455c0.40608,-0.24541 0.73077,-0.51744 0.85111,-0.76027c-0.24598,0.21885 -0.51038,0.39898 -0.7695,0.5015c-0.02736,0.08627 -0.05455,0.17254 -0.08161,0.25878zM311.20516,191.85772c0.00548,-0.2448 0.02109,-0.49902 0.0447,-0.75838c-0.62483,0.81643 -1.32084,1.59099 -1.97672,2.36251c0.22069,-0.11674 0.43067,-0.25517 0.62427,-0.41123c0.29633,-0.178 0.79224,-0.75077 1.30775,-1.19291zM312.07691,191.32521c0.06261,-0.01566 0.12379,-0.02394 0.18314,-0.02368c0.32555,-0.61563 0.62412,-1.27975 0.82789,-1.92896c-0.11249,0.0278 -0.21214,0.04278 -0.29331,0.04278c-0.13701,-0.00362 -0.26936,-0.02708 -0.39553,-0.06738c-0.03294,0.06188 -0.06658,0.12343 -0.1009,0.18467c-0.06415,0.60597 -0.13695,1.23717 -0.22128,1.79257zM313.36061,187.8117c0.00046,-0.05339 -0.01621,-0.0837 -0.04773,-0.09358c-0.1273,0.17198 -0.26813,0.34367 -0.41844,0.51432c-0.07341,0.20727 -0.15591,0.41057 -0.24635,0.61028c0.0476,0.00636 0.09649,0.0087 0.14653,0.00664c0.10077,0 0.25629,0.01453 0.4301,0.02833c0.0875,-0.36995 0.13721,-0.72941 0.13589,-1.06598zM325.87333,211.81897c-0.00114,-0.00162 -0.00227,-0.00325 -0.00341,-0.00488c-0.30973,-0.02326 -0.60819,-0.03889 -0.89024,-0.0429c-0.00144,0.00579 -0.00289,0.01157 -0.00433,0.01735c0.28247,0.02399 0.58352,0.03251 0.89798,0.03043zM310.77128,216.10517c0.56998,0.051 1.14097,0.07823 1.69587,0.08332c-0.29485,-0.07541 -0.60637,-0.14928 -0.92861,-0.22336c-0.25734,0.04059 -0.51346,0.08663 -0.76726,0.14003zM327.95242,190.62621c0.11421,-0.71162 0.20834,-1.43188 0.21835,-2.17665c-0.08264,0.72256 -0.16418,1.44595 -0.21835,2.17665zM317.22823,200.50542v-0.24186c0,-0.15629 0.12671,-0.283 0.283,-0.283c0.02286,0 0.04509,0.0027 0.06639,0.00782c0.36002,-0.53346 0.79082,-1.02743 1.29609,-1.47587c-0.72883,-0.04692 -1.50496,-0.12917 -2.26414,-0.26296c0.3685,0.71364 0.45448,1.64847 0.46155,2.60576c0.02148,-0.04286 0.04333,-0.08553 0.06559,-0.12798c0.03051,-0.07397 0.06102,-0.14795 0.09153,-0.22192zM320.10114,198.56198c-0.12622,-0.00211 -0.25564,-0.00518 -0.3878,-0.00935c-0.28176,0.21307 -0.54205,0.43918 -0.78157,0.67744c0.42972,-0.2373 0.81925,-0.40432 1.16938,-0.6681zM324.42067,194.26721c-1.5708,-0.72669 -2.34206,1.77333 -2.65966,2.72612c-0.017,0.05101 -0.0342,0.10083 -0.05162,0.14952c0.7849,-0.18567 1.65501,-0.31224 2.44015,-0.30799c0.11151,-0.72971 0.44091,-2.4891 0.27112,-2.56765zM321.34022,197.96504c0.81409,-0.0727 1.51832,-0.26101 2.12314,-0.57316c-0.68665,0.07138 -1.41038,0.22598 -2.03087,0.40132c-0.03026,0.05949 -0.06101,0.11672 -0.09227,0.17184zM294.04275,199.67135c-0.05471,1.55359 -1.00736,3.70012 0.41021,3.96878c-0.10506,-1.32229 0.16325,-2.73035 -0.41021,-3.96878zM290.14554,179.22638c-0.37774,1.04616 -0.55219,2.12279 -0.89498,3.12589c0.45537,-0.76472 0.88651,-1.54305 1.30224,-2.33057c0.07595,-0.36737 0.17156,-0.73521 0.27996,-1.0957c-0.15967,0.06047 -0.31573,0.12139 -0.46762,0.1823c-0.07503,0.03745 -0.14822,0.07683 -0.21959,0.11808zM311.27365,183.00463c-0.35013,0.19487 -0.67727,0.44175 -0.93092,0.68418c0.31736,-0.24141 0.63417,-0.46479 0.93414,-0.66392c-0.00101,-0.00677 -0.00208,-0.01351 -0.00322,-0.02026zM310.57052,184.55234c0.26024,-0.26024 0.44247,-0.5051 0.55832,-0.73606c-0.35301,0.25447 -0.70972,0.53009 -1.05135,0.82139c0.1168,0.0043 0.27888,-0.02161 0.49303,-0.08533zM315.70865,189.03945c0.00725,0.21426 -0.00237,0.41705 -0.03243,0.60512c-0.0709,0.44359 0.4678,-0.76827 0.66845,-1.17019c0.22687,-0.45444 0.33418,-0.6857 0.54627,-0.90564l-0.05148,-0.05148l0.37733,-0.37733c0.05121,-0.05121 0.12196,-0.08288 0.20011,-0.08288c0.15629,0 0.283,0.1267 0.283,0.283v0.283c0,0.35239 0.01097,0.86715 0.01647,1.46386c0.05174,-0.71137 0.07787,-1.44382 0.07787,-2.21805c-0.00135,-1.73679 -0.96598,-0.4988 -1.75621,0.56533c0.03798,0.14931 0.05823,0.30679 0.05823,0.47185c0,0.40732 -0.16293,0.80705 -0.3876,1.13341zM305.52717,181.94552c-0.04778,-0.01174 -0.09596,-0.02103 -0.14452,-0.02796c0.01521,0.02145 0.03024,0.04311 0.04509,0.06497c0.03199,-0.01255 0.06683,-0.01943 0.10328,-0.01943c0.01223,0 0.02427,0.00077 0.03609,0.00228c-0.0107,-0.0083 -0.02395,-0.01495 -0.03994,-0.01986zM303.06156,182.87109c-0.01487,0.02054 -0.02959,0.0413 -0.04418,0.06228c0.23751,0.2481 0.4727,0.53793 0.71,0.87043c0.39464,-0.46509 0.81445,-0.89471 1.26703,-1.26812l-0.04313,-0.03594l0.09958,-0.1195c-0.05401,-0.16439 -0.1191,-0.31595 -0.19755,-0.45151c-0.57757,0.09813 -1.18948,0.45817 -1.79176,0.94235zM302.50523,183.86232c0.18072,0.03971 0.27824,0.486 0.32649,1.10526c0.17064,-0.2413 0.34559,-0.47831 0.52567,-0.70883c-0.21829,-0.31867 -0.42985,-0.59499 -0.64016,-0.83059c-0.07471,0.13989 -0.14522,0.2852 -0.212,0.43415zM301.50832,184.52171c0.058,-0.11901 0.11772,-0.23677 0.17901,-0.35291c-0.59303,0.62874 -1.13681,1.27589 -1.57924,1.77819c0.1822,-0.16835 0.36758,-0.33881 0.56026,-0.51068c0.17369,-0.15478 0.4966,-0.55562 0.83996,-0.9146zM290.90497,177.70196c-0.16858,0.24856 -0.31272,0.5023 -0.43829,0.75957c0.19108,-0.07327 0.38753,-0.14603 0.58845,-0.21758c0.22958,-0.65488 0.48882,-1.26604 0.73182,-1.78141l0.00221,-0.00255l-0.00076,-0.00038l0.13759,-0.27517c-0.43803,0.36697 -0.80382,1.1973 -1.02101,1.51753zM297.81992,185.98957c0.07326,0.76773 0.19043,1.37877 0.3776,1.48453c0.05382,-0.48943 0.18416,-0.98862 0.12985,-1.56355c-0.02786,-0.29491 -0.22882,-0.17434 -0.50746,0.07902zM330.29514,185.91372c0.04126,0.0765 0.08255,0.15433 0.12386,0.23311c0.07924,-0.39878 0.1715,-0.79912 0.27026,-1.19843c0.00049,-0.0588 0.00094,-0.11665 0.00131,-0.1735c-0.12922,0.38159 -0.26034,0.76155 -0.39543,1.13882zM326.35883,201.15011c-0.0003,-0.26961 0.00462,-0.53044 0.016,-0.77181c-0.16299,0.57905 -0.28359,1.17067 -0.27937,1.77191c0,0.46068 0.03304,0.96641 0.06815,1.48776c0.00381,-0.69762 0.06547,-1.38379 0.09042,-1.60989c0.03263,-0.29374 0.06778,-0.58627 0.10481,-0.87798zM336.97828,211.82645c-0.66204,0.5755 -1.30237,1.11814 -1.86924,1.61902c-0.24402,0.35671 -0.46937,0.7189 -0.67142,1.08546c-0.09965,0.18079 0.39034,-0.14683 0.59544,-0.17024c0.69792,-0.07965 1.26847,-0.18887 1.93232,-0.40946c2.10603,-0.4241 4.01141,-1.89583 5.50957,-3.394c0.42672,-0.42672 1.11833,-1.47382 1.69411,-1.97393c-0.83955,0.10603 -1.71417,0.24883 -2.56873,0.46637c-0.37128,0.73325 -0.81551,1.36469 -1.29977,1.74337c-0.63514,0.49666 -2.56481,1.49961 -3.32227,1.03341zM326.19283,189.8858c-0.11818,0.48363 -0.21746,0.94783 -0.27996,1.38387c-0.07911,0.22064 -0.34377,0.75618 -0.11799,0.6932c0.60609,-0.16906 0.42475,-1.57365 0.39795,-2.07707zM321.95036,190.9483c0.00239,-0.3351 0.00539,-0.67086 0.00957,-1.00703c-0.00577,-0.07649 -0.01029,-0.15375 -0.01363,-0.23176c-0.00095,0.09105 -0.00146,0.18167 -0.00146,0.27184c0,0.31931 0.00077,0.64234 0.00552,0.96696zM322.00567,187.85586c-0.00886,0.20419 -0.01755,0.40753 -0.02548,0.60966c0.00326,-0.03772 0.00671,-0.07553 0.01033,-0.11343c0.00453,-0.16543 0.00956,-0.33084 0.01514,-0.49623zM336.4034,195.38997c-0.03297,1.27792 -0.02541,2.56195 -0.02585,3.85425c-0.01498,1.92942 -0.45205,3.76974 -0.76621,5.63404c0.46108,-1.20316 0.92847,-2.4061 1.34362,-3.65617c0.51313,-2.00502 -0.24397,-3.83345 -0.55155,-5.83213zM340.74898,209.29532c-0.66765,0.21747 -1.31066,0.49089 -1.90086,0.83967c-0.43642,0.41763 -0.88457,0.82444 -1.32933,1.21782c0.23714,-0.0466 0.5258,-0.09634 0.67547,-0.139c0.70413,-0.20068 1.63427,-0.66536 2.11518,-1.22477c0.17401,-0.2024 0.3169,-0.43764 0.43953,-0.69372zM297.13148,186.04802c-0.03431,-0.34227 -0.05263,-0.70204 -0.06047,-1.05763c-0.20985,-0.04838 -0.41446,-0.21237 -0.60314,-0.42817c0.00529,0.24179 0.00725,0.47676 0.00725,0.70252c0,1.56553 0.24244,1.27637 0.65636,0.78328zM297.13758,182.37501c-0.09735,-0.38939 -0.20881,-0.75119 -0.33412,-1.09009c-0.02428,0.63873 -0.0096,1.2136 0.32184,1.40033c0.00702,-0.14043 0.01189,-0.24687 0.01229,-0.31024zM294.50989,177.87721c-0.07782,0.01389 -0.15566,0.02841 -0.23349,0.04354c0.51159,0.42196 0.90551,0.95771 1.20844,1.56082c0.08129,-0.08912 0.16043,-0.16687 0.2361,-0.23057c-0.3565,-0.49076 -0.76078,-0.93795 -1.21104,-1.37378zM292.36486,177.81783c0.02484,-0.0073 0.0497,-0.01457 0.0746,-0.02179c0.38207,-0.59265 0.80605,-0.83758 1.28258,-0.32904c0.09362,-0.02071 0.18737,-0.04069 0.2812,-0.05987c-0.45775,-0.409 -0.95618,-0.81827 -1.49372,-1.25516l0.08346,0.25037l-0.13288,0.04429c0.08309,0.39925 0.03797,0.86666 -0.09525,1.3712zM301.43041,187.13029c0.26034,-0.42268 0.52635,-0.85171 0.80208,-1.27602c0.00719,-0.35955 0.0261,-0.86251 0.04756,-1.20009c-0.04251,0.08593 -0.10488,0.17491 -0.17973,0.26423c-0.24565,0.73448 -0.43373,1.46089 -0.61451,1.99707c-0.01854,0.055 -0.03672,0.12844 -0.0554,0.2148zM311.06774,188.1407c0.04449,-0.03724 0.08915,-0.07405 0.13391,-0.11043c-0.00502,-0.01719 -0.00982,-0.03444 -0.01439,-0.05173c-0.03624,0.04895 -0.07244,0.09799 -0.10857,0.14719c-0.00366,0.00498 -0.00731,0.00997 -0.01096,0.01496zM312.72206,185.76375c0.02737,-0.00607 0.05487,-0.01174 0.08248,-0.017c0.00246,-0.00718 0.00497,-0.01418 0.00755,-0.02099c0.04447,-0.11735 -0.00326,-0.07565 -0.09004,0.03799zM312.70956,186.35059c-0.05026,0.01506 -0.09972,0.03187 -0.14822,0.05048c0.05271,0.00935 0.10038,0.03328 0.13869,0.06749c0.00295,-0.03588 0.00605,-0.07568 0.00953,-0.11797zM314.39341,188.00398c-0.04829,0.09138 -0.08576,0.17149 -0.0916,0.21963c-0.00607,0.05002 0.00434,0.19449 0.012,0.36124c0.04862,-0.10793 0.08521,-0.21276 0.08445,-0.30149c0,-0.09834 -0.00163,-0.19141 -0.00485,-0.27938zM314.20669,186.98659c-0.08648,-0.17075 -0.19966,-0.25493 -0.33421,-0.26931c-0.0219,0.06269 -0.04671,0.12555 -0.07422,0.18853c0.09882,0.13061 0.12735,0.33498 0.13324,0.52364c0.07273,-0.18338 0.16441,-0.33776 0.27519,-0.44286zM302.8646,187.01499c0.13214,-0.3236 0.28539,-0.66372 0.4487,-1.0076c-0.14659,0.18699 -0.2947,0.37309 -0.44196,0.55641c-0.00137,0.15118 -0.00372,0.30221 -0.00674,0.45119zM291.49963,179.95191c0.02551,-0.07203 0.05122,-0.14418 0.07716,-0.21623c-0.0168,0.03218 -0.03374,0.06436 -0.05081,0.09654c-0.00878,0.03997 -0.01756,0.07988 -0.02635,0.11969zM326.23314,205.95153c0.07817,-0.20298 0.1421,-0.41205 0.194,-0.62608c-0.09319,-0.11643 -0.15611,-0.32011 -0.19703,-0.57173c0.01741,0.40675 0.02312,0.81048 0.00303,1.19781zM341.01951,208.61881c0.16301,-0.47784 0.29387,-0.9868 0.44504,-1.46888c-0.41131,0.61164 -0.90659,1.21435 -1.44867,1.80174c0.32782,-0.12507 0.66347,-0.23527 1.00364,-0.33286z" fill="#7d5207" stroke="none" stroke-width="0.5" stroke-linecap="butt"/><path d="M299.5508,183.57464c0,0 -1.50004,3.36626 -1.93798,3.06694c-1.00154,-0.6845 -1.71128,-11.57534 -3.70806,-10.30181c-2.55513,1.62963 -1.55587,2.09612 -1.79623,5.48569c-0.27237,3.84105 2.1506,10.08884 -0.39358,8.19814c-2.54418,-1.8907 -0.49565,-5.84988 -1.10105,-8.04008c-0.54239,-1.96225 -1.50725,0.04001 -1.50725,0.04001c0,0 -0.98866,2.36982 -0.74462,5.32975c0.32622,3.95677 1.8396,6.60205 1.09986,8.41638c-1.29311,3.17156 -2.05069,-2.02176 -3.67509,-5.60368c-1.4023,-3.09217 -2.88458,-5.24703 -2.88458,-5.24703l9.18257,23.65961l-6.94898,-11.58162l-3.72266,-16.48314l3.88812,-21.75691l58.78365,5.06466c0,0 7.79072,14.91811 7.32583,24.98322c-0.46489,10.06511 -9.58701,23.97213 -9.58701,23.97213l-10.34994,4.95436c0,0 5.30776,-6.03917 6.2331,-6.70134c0.92534,-0.66217 1.2156,0.47227 2.54503,-1.0657c1.32943,-1.53798 2.81269,-4.38447 2.81269,-4.38447c0,0 0.11188,-2.12292 0.57909,-3.47449c0.46721,-1.35157 1.73725,-3.22631 1.73725,-3.22631c0,0 0.53498,-8.66705 -1.24089,-9.26531c-0.86216,-0.29044 -1.07846,0.39876 -1.66005,1.56863c-0.62969,1.26658 -0.8077,3.30634 -1.97989,3.14674c-2.25489,-0.30703 1.42228,-4.65293 -0.7202,-5.30905c-2.14246,-0.65612 -3.15221,1.63084 -4.18983,3.80539c-1.03762,2.17455 -0.46775,4.53889 -0.88079,6.10711c-0.96537,3.6653 -3.4772,2.24153 -3.22631,0.0292c0.25089,-2.21233 1.42828,-4.64101 1.65452,-5.45991c0.22625,-0.81889 0.44283,-2.13141 0.44283,-2.13141c0,0 -1.05281,1.86325 -1.3528,0.06326c-0.29999,-1.79999 1.16499,-2.43312 0.3309,-4.54993c-0.83409,-2.1168 -0.71641,-4.63692 -3.54261,-3.601c-2.82618,1.03593 -2.47122,4.0008 -3.00246,6.00007c-0.53123,1.99927 0.41802,3.52396 0.06812,5.28473c-0.72298,3.63822 -3.7132,2.33144 -3.78105,0.09246c-0.06785,-2.23898 1.41298,-2.07703 1.57179,-5.45991c0.15882,-3.38287 1.98033,-8.97144 -0.97325,-7.28961c-4.22758,2.40728 -2.0638,9.63811 -4.81757,11.01227c-1.38232,0.68979 -0.52303,-6.43933 -3.35282,-6.56941c-2.8298,-0.13008 -2.80178,1.80278 -3.79151,6.24101c-0.56544,2.53559 -0.20997,7.7677 -0.67885,8.80474c-0.75705,1.67441 -2.27704,0.21857 -2.94091,-0.50547c-0.66387,-0.72405 1.51461,-5.42412 1.18736,-8.83708c-0.32727,-3.41296 -0.47334,-7.27404 -2.83215,-8.31638c-2.35882,-1.04235 -2.81114,2.95954 -2.71409,5.86554c0.12454,3.72933 2.28428,8.24924 -0.87719,8.1638c-3.20719,-0.08668 -0.7836,-5.3344 -0.51131,-9.27495c0.20527,-2.97064 -2.01913,-4.91983 -2.01913,-4.91983z" fill="url(#color-4)" stroke="#000000" stroke-width="0" stroke-linecap="round"/><path d="M335.56127,210.22251c0,0 1.78298,-5.73357 2.23465,-8.22659c0.39912,-2.20299 0.57442,-5.75248 0.57442,-5.75248l0.69832,0.1741c0,0 0.04721,3.60265 -0.3596,5.84802c-0.44676,2.46592 -1.95941,8.14382 -1.95941,8.14382z" fill="#000000" stroke="none" stroke-width="0" stroke-linecap="butt"/><path d="M329.11483,212.63342c0,0 1.50851,-6.08005 2.0094,-9.02464c0.48014,-2.82261 0.93633,-8.02068 0.93633,-8.02068l0.63508,0.13108c0,0 -0.22418,5.23905 -0.68693,7.95942c-0.51381,3.02053 -2.17977,9.28972 -2.17977,9.28972z" fill="#000000" stroke="none" stroke-width="0" stroke-linecap="butt"/><path d="M321.30598,213.95108c0,0 1.88007,-6.07688 2.35713,-8.88139c0.44217,-2.59936 0.40851,-7.37701 0.40851,-7.37701l0.95122,-0.0048c0,0 -0.26218,5.83009 -0.72617,8.75941c-0.39353,2.48448 -1.88138,7.70281 -1.88138,7.70281z" fill="#000000" stroke="none" stroke-width="0" stroke-linecap="butt"/><path d="M313.85863,213.78203l2.62413,-15.42655l1.10935,-0.14068l-3.01936,16.24184z" fill="#000000" stroke="none" stroke-width="0" stroke-linecap="butt"/><path d="M306.14947,211.60558l2.76564,-16.25837l1.03026,-0.0048c0,0 -1.02831,4.4473 -1.45948,6.98204c-0.48448,2.84812 -1.30616,9.48016 -1.30616,9.48016z" fill="#000000" stroke="none" stroke-width="0" stroke-linecap="butt"/><path d="M299.74777,208.84014c0,0 0.9815,-6.23455 1.48123,-9.1723c0.46208,-2.71642 1.41306,-7.84227 1.41306,-7.84227l0.77206,0.13108c0,0 -1.01098,5.13777 -1.47354,7.85703c-0.49938,2.93568 -1.24159,9.22548 -1.24159,9.22548z" fill="#000000" stroke="none" stroke-width="0" stroke-linecap="butt"/><path d="M293.15522,204.26243c0,0 -0.1338,-4.92434 0.3251,-7.50887c0.41039,-2.31132 1.79317,-6.02071 1.79317,-6.02071l0.70358,0.0605c0,0 -0.99072,3.65637 -1.40454,5.98702c-0.45666,2.57197 -0.72954,7.98517 -0.72954,7.98517z" fill="#000000" stroke="none" stroke-width="0" stroke-linecap="butt"/><path d="M316.78116,198.45346c7.40779,0.87751 15.03601,-3.48913 19.20774,-2.98818c4.1717,0.50092 8.7403,6.33298 4.29849,10.92297c-4.29846,4.51826 -14.61091,8.78278 -26.15672,7.41684c-10.1041,-1.19538 -19.92648,-8.70422 -22.582,-12.2695c-2.65552,-3.56528 -0.33874,-11.53293 7.28217,-10.74026c7.6209,0.79267 10.30353,6.78059 17.71133,7.6581z" fill="none" stroke="#000000" stroke-width="1" stroke-linecap="round"/></g><path d="M275.93029,221.94v-83.87989h88.13942v83.87989z" fill="none" stroke="#ffffff" stroke-width="1.5" stroke-linecap="butt"/></g></g></svg>