<svg version="1.1" xmlns="http://www.w3.org/2000/svg" xmlns:xlink="http://www.w3.org/1999/xlink" width="115.15842" height="340.18792" viewBox="0,0,115.15842,340.18792"><defs><linearGradient x1="318.73118" y1="29.51204" x2="318.73118" y2="339.51204" gradientUnits="userSpaceOnUse" id="color-1"><stop offset="0" stop-color="#858585"/><stop offset="1" stop-color="#353535"/></linearGradient></defs><g transform="translate(-262.56269,-9.91653)"><g data-paper-data="{&quot;isPaintingLayer&quot;:true}" fill-rule="nonzero" stroke-linejoin="miter" stroke-miterlimit="10" stroke-dasharray="" stroke-dashoffset="0" style="mix-blend-mode: normal"><path d="M262.56269,9.91653l114.73964,0.17913l0.41671,339.98781l-114.63474,-69.16422z" data-paper-data="{&quot;index&quot;:null}" fill="url(#color-1)" stroke="#000000" stroke-width="0" stroke-linecap="round"/><g data-paper-data="{&quot;index&quot;:null}" stroke-linecap="butt"><g stroke="#000000" stroke-width="0"><path d="M309.62119,131.14597l14.79914,-28.81264l18.52604,46.33335z" fill="#bf0000"/><path d="M313.05853,129.78939l11.24327,-21.88968l14.07469,35.20059z" fill="#ffffff"/></g><text transform="translate(327.00622,132.44568) rotate(-175.3568) scale(0.45608,-0.57808) skewX(-6.97267)" font-size="40" xml:space="preserve" fill="#000000" fill-rule="nonzero" stroke="none" stroke-width="1" stroke-linecap="butt" stroke-linejoin="miter" stroke-miterlimit="10" stroke-dasharray="" stroke-dashoffset="0" font-family="Serif" font-weight="normal" text-anchor="start" style="mix-blend-mode: normal"><tspan x="0" dy="0">!</tspan></text></g><path d="M262.56269,223.74986l114.73964,72.3458l0.41671,53.98781l-114.63474,-69.16422z" data-paper-data="{&quot;index&quot;:null}" fill="#815c00" stroke="#000000" stroke-width="0" stroke-linecap="round"/><path d="M295.07545,244.28895l25.33333,71.25l-10,-6l-25.5,-71.75z" data-paper-data="{&quot;index&quot;:null}" fill="#000000" stroke="#000000" stroke-width="0" stroke-linecap="round"/><path d="M316.57545,257.62228l25.33333,70.75l-10,-6.16667l-25.5,-71.08333z" data-paper-data="{&quot;index&quot;:null}" fill="#000000" stroke="#000000" stroke-width="0" stroke-linecap="round"/><path d="M338.07545,271.28896l25.33333,70.08333l-10,-6.16667l-25.5,-70.41667z" data-paper-data="{&quot;index&quot;:null}" fill="#000000" stroke="#000000" stroke-width="0" stroke-linecap="round"/><path d="M262.66457,248.23749l14.91089,41.46813l-10,-6l-4.71055,-13.25419z" data-paper-data="{&quot;index&quot;:null}" fill="#000000" stroke="#000000" stroke-width="0" stroke-linecap="round"/><path d="M273.57547,230.75562l25.49999,72.08333l-10,-6l-25.5,-72.58334z" data-paper-data="{&quot;index&quot;:null}" fill="#000000" stroke="#000000" stroke-width="0" stroke-linecap="round"/><path d="M359.74213,284.94921l17.91793,49.24044l0.06105,15.9148l-2.64565,-1.56576l-25.5,-69.94067z" data-paper-data="{&quot;index&quot;:null}" fill="#000000" stroke="#000000" stroke-width="0" stroke-linecap="round"/><path d="M377.41553,296.06443l0.03726,13.39608l-6.37733,-17.39153z" data-paper-data="{&quot;index&quot;:null}" fill="#000000" stroke="#000000" stroke-width="0" stroke-linecap="round"/></g></g></svg>