<svg version="1.1" xmlns="http://www.w3.org/2000/svg" xmlns:xlink="http://www.w3.org/1999/xlink" width="58.75001" height="85.20845" viewBox="0,0,58.75001,85.20845"><defs><linearGradient x1="331.90043" y1="139.98991" x2="326.83136" y2="157.96009" gradientUnits="userSpaceOnUse" id="color-1"><stop offset="0" stop-color="#bbb61e"/><stop offset="1" stop-color="#90520e"/></linearGradient><linearGradient x1="320.6977" y1="171.69063" x2="320.6977" y2="201.78525" gradientUnits="userSpaceOnUse" id="color-2"><stop offset="0" stop-color="#090909"/><stop offset="1" stop-color="#505050"/></linearGradient><linearGradient x1="324.18792" y1="178.6157" x2="325.07967" y2="197.89759" gradientUnits="userSpaceOnUse" id="color-3"><stop offset="0" stop-color="#450402"/><stop offset="1" stop-color="#650000"/></linearGradient><linearGradient x1="316.1338" y1="176.27206" x2="316.1338" y2="195.57456" gradientUnits="userSpaceOnUse" id="color-4"><stop offset="0" stop-color="#450402"/><stop offset="1" stop-color="#650000"/></linearGradient><linearGradient x1="320" y1="159.08689" x2="320" y2="178.71189" gradientUnits="userSpaceOnUse" id="color-5"><stop offset="0" stop-color="#ffffff"/><stop offset="1" stop-color="#949494"/></linearGradient><linearGradient x1="318.95106" y1="177.90155" x2="318.95106" y2="180.94842" gradientUnits="userSpaceOnUse" id="color-6"><stop offset="0" stop-color="#181526"/><stop offset="1" stop-color="#231e37"/></linearGradient><linearGradient x1="322.66565" y1="146.72264" x2="338.18739" y2="146.72264" gradientUnits="userSpaceOnUse" id="color-7"><stop offset="0" stop-color="#2b2b2b"/><stop offset="1" stop-color="#000000"/></linearGradient><linearGradient x1="322.56251" y1="152.20518" x2="334.39584" y2="152.20518" gradientUnits="userSpaceOnUse" id="color-8"><stop offset="0" stop-color="#530407"/><stop offset="1" stop-color="#1e0202"/></linearGradient><linearGradient x1="328.12667" y1="150.46162" x2="328.12667" y2="156.92405" gradientUnits="userSpaceOnUse" id="color-9"><stop offset="0" stop-color="#2b2b2b"/><stop offset="1" stop-color="#000000"/></linearGradient><linearGradient x1="327.22702" y1="165.32073" x2="335.36988" y2="165.32073" gradientUnits="userSpaceOnUse" id="color-10"><stop offset="0" stop-color="#e1e1e1"/><stop offset="1" stop-color="#dedede"/></linearGradient><linearGradient x1="301.26912" y1="175.683" x2="301.26912" y2="182.51427" gradientUnits="userSpaceOnUse" id="color-11"><stop offset="0" stop-color="#402b20"/><stop offset="1" stop-color="#190d13"/></linearGradient><linearGradient x1="294.44049" y1="175.72749" x2="294.44049" y2="183.37211" gradientUnits="userSpaceOnUse" id="color-12"><stop offset="0" stop-color="#3e291f"/><stop offset="1" stop-color="#2d1c1a"/></linearGradient><linearGradient x1="322.79746" y1="179.34604" x2="322.79746" y2="182.59487" gradientUnits="userSpaceOnUse" id="color-13"><stop offset="0" stop-color="#181526"/><stop offset="1" stop-color="#231e37"/></linearGradient><linearGradient x1="320.79614" y1="179.02938" x2="320.79614" y2="181.10106" gradientUnits="userSpaceOnUse" id="color-14"><stop offset="0" stop-color="#181526"/><stop offset="1" stop-color="#231e37"/></linearGradient></defs><g transform="translate(-290.6171,-138.11394)"><g data-paper-data="{&quot;isPaintingLayer&quot;:true}" fill-rule="nonzero" stroke-linejoin="miter" stroke-miterlimit="10" stroke-dasharray="" stroke-dashoffset="0" style="mix-blend-mode: normal"><path d="M333.06645,159.12447c0,0 -2.08038,0.06736 -6.0973,-1.12996c-4.56022,-1.35926 -5.95539,-2.41738 -5.95539,-2.41738l10.81836,-15.6065z" fill="url(#color-1)" stroke="#000000" stroke-width="0" stroke-linecap="round"/><path d="M339.62131,211.65751l4.42336,1.72834l-1.05408,8.30084l-4.35675,1.63571l-37.6757,-6.51702l0.54099,-9.48571z" data-paper-data="{&quot;index&quot;:null}" fill-opacity="0.50196" fill="#000000" stroke="#000000" stroke-width="0" stroke-linecap="round"/><path d="M315.13111,180.62239c0.46852,0.58565 -0.11713,1.05417 -0.11713,1.05417l-0.65973,0.48023c-4.80901,1.79122 -9.4018,0.38864 -10.00875,-5.07396c0,0 -0.08283,-0.74542 0.66259,-0.82824c0.74541,-0.08283 0.82824,0.66259 0.82824,0.66259c0.49366,4.44294 4.07535,5.31494 7.99124,3.83513l0.24937,-0.24704c0,0 0.58565,-0.46851 1.05417,0.11713z" fill="#000000" stroke="none" stroke-width="0.5" stroke-linecap="butt"/><path d="M334.31327,192.07496c1.2298,-0.28575 3.03218,-0.43812 3.60874,-1.40096c3.31378,-4.55647 -3.20581,-8.1663 -6.82301,-8.56494c0,0 -0.74542,-0.08282 -0.66259,-0.82824c0.08283,-0.74542 0.82824,-0.66259 0.82824,-0.66259c4.80412,0.5378 11.83104,5.30928 7.90426,10.8896c-0.86805,1.34574 -5.35496,3.51851 -6.96151,2.10738c-1.87714,-1.6488 0.80034,-3.60263 2.10589,-1.54025z" fill="#000000" stroke="none" stroke-width="0.5" stroke-linecap="butt"/><path d="M316.19766,200.82229c0,0 -0.65842,4.62382 -0.66951,6.85742c-0.01117,2.25051 0.60271,6.59528 0.60271,6.59528l-2.96745,2.43755" fill="none" stroke="#000000" stroke-width="1.5" stroke-linecap="round"/><path d="M328.69836,217.35287l-2.99666,-2.10272c0,0 0.44314,-4.43367 0.43702,-6.56964c-0.00674,-2.35082 -0.47577,-6.9526 -0.47577,-6.9526" data-paper-data="{&quot;index&quot;:null}" fill="none" stroke="#000000" stroke-width="1.5" stroke-linecap="round"/><path d="M328.70728,154.96998c0,-0.98601 0.79932,-1.78533 1.78532,-1.78533c0.986,0 1.78533,0.79932 1.78533,1.78533c0,0.98601 -0.79932,1.78533 -1.78533,1.78533c-0.986,0 -1.78532,-0.79932 -1.78532,-1.78533z" fill="#480000" stroke="#000000" stroke-width="0" stroke-linecap="butt"/><path d="M317.33067,171.69063l13,2.09091c0,0 8.56342,33.14612 -12,29.45454c-15.02132,-3.1553 -1,-31.54546 -1,-31.54546z" fill="url(#color-2)" stroke="#000000" stroke-width="0" stroke-linecap="butt"/><path d="M311.45324,192.40681c0,0 2.26409,1.93768 6.90476,3.33334c5.83355,1.7544 12.76191,-0.42857 12.76191,-0.42857c0,0 -1.74683,10.07178 -12.57143,8.09524c-8.69991,-1.58858 -7.09523,-11 -7.09523,-11z" fill="#000000" stroke="#000000" stroke-width="0" stroke-linecap="round"/><path d="M326.12472,178.52612c0,0 -2.40591,5.68362 -3.35643,9.49854c-0.95052,3.81492 -1.79361,10.36435 -0.49724,9.99197c0.649,-0.18643 1.14458,-6.75615 2.03342,-10.14644c0.88884,-3.39029 3.29051,-9.12009 3.29051,-9.12009z" fill="url(#color-3)" stroke="#000000" stroke-width="0" stroke-linecap="round"/><path d="M318.07267,176.27206c0,0 -2.66592,5.5664 -3.79167,9.33333c-1.12575,3.76694 -2.27052,10.27043 -0.95833,9.95833c0.65692,-0.15625 1.45548,-6.69606 2.5,-10.04167c1.04452,-3.3456 3.70833,-8.95833 3.70833,-8.95833z" fill="url(#color-4)" stroke="#000000" stroke-width="0" stroke-linecap="round"/><path d="M302.97322,172.85474l5.14285,-19.48214l38.05358,5l-5.71429,24.33928z" fill="url(#color-5)" stroke="#000000" stroke-width="0" stroke-linecap="butt"/><path d="M340.40424,182.67876l5.74859,-24.23432l3.21429,5.21834l-4.27679,17.8125z" fill="#9e9e9e" stroke="#000000" stroke-width="0" stroke-linecap="round"/><path d="M324.46063,152.22938c0,-0.66184 0.53652,-1.19837 1.19836,-1.19837c0.66184,0 1.19837,0.53653 1.19837,1.19837c0,0.66184 -0.53653,1.19837 -1.19837,1.19837c-0.66184,0 -1.19836,-0.53653 -1.19836,-1.19837z" fill="#480000" stroke="#000000" stroke-width="0" stroke-linecap="butt"/><path d="M320.31836,179.23189c0,0 -0.71138,-0.9405 -1.37778,-1.17778c-0.6664,-0.23728 -1.0369,-0.2279 -1.24444,0.24444c-0.20755,0.47234 0.68889,1.2 0.68889,1.2c0,0 -0.83826,0.45512 -0.8,0.93333c0.03826,0.47821 0.49959,0.53816 0.95556,0.51111c0.45597,-0.02705 1.66667,-0.66667 1.66667,-0.66667z" fill="url(#color-6)" stroke="#000000" stroke-width="0" stroke-linecap="round"/><path d="M328.18739,138.11394l-5.65217,12.78261l11.3913,4.43478l4.26087,-13.04347c0,0 -1.4647,-1.84225 -4.69565,-3.13044c-2.62303,-1.04581 -5.30435,-1.04348 -5.30435,-1.04348z" fill="url(#color-7)" stroke="#000000" stroke-width="0" stroke-linecap="round"/><path d="M322.56251,150.84803l0.8381,-1.82857c0,0 3.22814,0.69453 6.03334,1.87619c3.03256,1.27742 4.9619,2.88572 4.9619,2.88572l-0.63333,1.60952z" fill="url(#color-8)" stroke="#000000" stroke-width="0" stroke-linecap="round"/><path d="M323.01347,152.72264c0,0 -3.75528,-2.23974 -2.43478,-2.26087c1.3205,-0.02113 7.91304,2.21739 7.91304,2.21739c0,0 4.11202,1.29486 6.69565,3.30435c2.58363,2.00949 -2.17392,0.17391 -2.17392,0.17391l-0.08695,-0.56522l-9.34782,-3.69565z" fill="url(#color-9)" stroke="#000000" stroke-width="0" stroke-linecap="round"/><path d="M318.93401,170.14154c-0.02519,0.02001 -0.0205,0.04381 0.02015,0.07171zM319.04046,170.1024c0.15146,0.1727 0.32063,0.4905 0.05014,0.89623c-0.41602,0.62404 -1.04006,0.20801 -1.04006,0.20801l-0.53311,-0.56238c-0.349,-2.7078 3.36018,-2.35914 5.31849,-1.78003c0,0 0.71837,0.21551 0.50286,0.93388c-0.21551,0.71837 -0.93388,0.50286 -0.93388,0.50286c-0.651,-0.19865 -2.82498,-0.31441 -3.36444,-0.19857z" fill="#000000" stroke="none" stroke-width="0.5" stroke-linecap="butt"/><path d="M315.62387,163.5118c0,-0.42851 0.34737,-0.77588 0.77588,-0.77588c0.42851,0 0.77589,0.34737 0.77589,0.77588c0,0.42851 -0.34737,0.77589 -0.77589,0.77589c-0.42851,0 -0.77588,-0.34737 -0.77588,-0.77589z" fill="#000000" stroke="#000000" stroke-width="0" stroke-linecap="butt"/><path d="M326.29845,165.30287c0,-2.75156 2.23059,-4.98214 4.98215,-4.98214c2.75156,0 4.98214,2.23058 4.98214,4.98214c0,2.75156 -2.23058,4.98215 -4.98214,4.98215c-2.75156,0 -4.98215,-2.23058 -4.98215,-4.98215z" fill="#000000" stroke="none" stroke-width="0" stroke-linecap="butt"/><path d="M327.22702,165.32073c0,-2.24859 1.82284,-4.07143 4.07143,-4.07143c2.24859,0 4.07143,1.82284 4.07143,4.07143c0,2.24859 -1.82284,4.07143 -4.07143,4.07143c-2.24859,0 -4.07143,-1.82284 -4.07143,-4.07143z" fill="url(#color-10)" stroke="none" stroke-width="0" stroke-linecap="butt"/><path d="M329.70036,165.57282c0,-0.42851 0.34737,-0.77588 0.77589,-0.77588c0.42851,0 0.77588,0.34737 0.77588,0.77588c0,0.42851 -0.34737,0.77589 -0.77588,0.77589c-0.42851,0 -0.77589,-0.34737 -0.77589,-0.77589z" fill="#000000" stroke="#000000" stroke-width="0" stroke-linecap="butt"/><path d="M319.82866,163.16336c-0.1233,0.73979 -0.86309,0.6165 -0.86309,0.6165l-0.3161,-0.05289c-2.20686,-0.32107 -6.06126,-0.98414 -2.32739,-3.16807c0,0 0.64783,-0.3779 1.02573,0.26993c0.3779,0.64783 -0.26993,1.02574 -0.26993,1.02574c-1.68338,0.97958 0.08805,0.14913 1.78372,0.38748l0.35057,0.05823c0,0 0.73979,0.1233 0.61649,0.86309z" fill="#000000" stroke="none" stroke-width="0.5" stroke-linecap="butt"/><path d="M333.88905,165.29137c-0.1233,0.73979 -0.86309,0.61649 -0.86309,0.61649l-0.3161,-0.05289c-2.20686,-0.32107 -6.06126,-0.98414 -2.32739,-3.16807c0,0 0.64783,-0.3779 1.02573,0.26993c0.3779,0.64783 -0.26993,1.02574 -0.26993,1.02574c-1.68338,0.97958 0.08805,0.14913 1.78372,0.38748l0.35057,0.05823c0,0 0.73979,0.1233 0.61649,0.86309z" fill="#000000" stroke="none" stroke-width="0.5" stroke-linecap="butt"/><path d="M335.30905,166.57282c0,-0.42851 0.34737,-0.77588 0.77589,-0.77588c0.42851,0 0.77588,0.34737 0.77588,0.77588c0,0.42851 -0.34737,0.77589 -0.77588,0.77589c-0.42851,0 -0.77589,-0.34737 -0.77589,-0.77589z" fill="#000000" stroke="#000000" stroke-width="0" stroke-linecap="butt"/><path d="M336.30876,170.02268c-0.04929,2.43691 -0.01423,9.95876 -0.30702,11.22154c-0.16693,0.71995 -0.77267,0.39372 -0.83128,-0.24197c-0.08657,-0.93911 0.12003,-8.53288 0.17912,-11.25883c0.01058,-0.48837 0.08811,-2.07241 0.14794,-2.93494c-0.00806,-0.06153 -0.01171,-0.12606 -0.01038,-0.19251c0.00266,-0.1325 0.02484,-0.25659 0.06155,-0.36391c0.07803,-0.22812 0.22168,-0.38055 0.38297,-0.37731c0.23719,0.00476 0.42271,0.34435 0.41439,0.75848c-0.0009,0.04457 -0.004,0.08819 -0.00912,0.13054c0.16111,0.9492 -0.00733,2.22817 -0.02818,3.25893z" fill="#000000" stroke="none" stroke-width="0.5" stroke-linecap="butt"/><path d="M307.70384,177.12297c0.20086,-0.01685 -0.33999,-1.03177 -0.65217,-1.07826c-0.31218,-0.04649 -4.67376,-0.90667 -7.52174,-0.13913c-2.84798,0.76754 -4.73913,4.04348 -4.73913,4.04348l1.3913,2.56522c0,0 2.2099,-3.87754 4.6087,-5c2.39879,-1.12246 3.71103,-0.12258 6.91305,-0.39131z" fill="url(#color-11)" stroke="#000000" stroke-width="0" stroke-linecap="round"/><path d="M297.79994,175.95735c0,0 -5.07765,-0.40187 -5.96429,-0.14285c-1.81549,0.53036 -1.9706,7.17017 2.10715,7.53571c4.84319,0.43416 4.37239,-5.72387 4.25,-6.28571c-0.26435,-1.21357 -0.39286,-1.10715 -0.39286,-1.10715z" fill="url(#color-12)" stroke="#000000" stroke-width="0" stroke-linecap="round"/><path d="M291.73967,176.14708c0,0 0.64992,-0.18476 2.64326,-0.13476c2.45319,0.06153 2.95049,0.25976 2.95049,0.25976c0,0 -0.23688,0.75997 -2.875,0.78125c-2.78458,0.02246 -2.71875,-0.90625 -2.71875,-0.90625z" fill="#000000" stroke="#000000" stroke-width="0" stroke-linecap="round"/><path d="M321.46491,179.92634c0,0 1.10982,-0.62801 1.87308,-0.5774c0.76326,0.05061 1.12695,0.21899 1.13014,0.77689c0.00319,0.5579 -1.19891,0.89522 -1.19891,0.89522c0,0 0.63656,0.81159 0.39328,1.26978c-0.24328,0.45819 -0.72689,0.31963 -1.16781,0.09702c-0.44092,-0.22261 -1.36791,-1.37721 -1.36791,-1.37721z" data-paper-data="{&quot;index&quot;:null}" fill="url(#color-13)" stroke="#000000" stroke-width="0" stroke-linecap="round"/><path d="M321.90412,180.24343c-0.09063,0.56345 -0.66015,0.94044 -1.27207,0.84201c-0.61192,-0.09842 -1.03452,-0.63498 -0.94389,-1.19843c0.09063,-0.56345 0.66015,-0.94044 1.27207,-0.84201c0.61192,0.09842 1.03452,0.63498 0.94389,1.19843z" fill="url(#color-14)" stroke="none" stroke-width="0" stroke-linecap="butt"/></g></g></svg>