<svg version="1.1" xmlns="http://www.w3.org/2000/svg" xmlns:xlink="http://www.w3.org/1999/xlink" width="35.38572" height="30.44176" viewBox="0,0,35.38572,30.44176"><defs><linearGradient x1="320" y1="164.77913" x2="320" y2="195.2209" gradientUnits="userSpaceOnUse" id="color-1"><stop offset="0" stop-color="#383551"/><stop offset="1" stop-color="#2a284d"/></linearGradient><linearGradient x1="330.55381" y1="181.03026" x2="330.55381" y2="188.46244" gradientUnits="userSpaceOnUse" id="color-2"><stop offset="0" stop-color="#383551"/><stop offset="1" stop-color="#2a284d"/></linearGradient><linearGradient x1="332.88357" y1="181.48852" x2="332.88357" y2="184.76657" gradientUnits="userSpaceOnUse" id="color-3"><stop offset="0" stop-color="#2e2a52"/><stop offset="1" stop-color="#1c1b34"/></linearGradient><linearGradient x1="332.25312" y1="180.09843" x2="332.25312" y2="182.07424" gradientUnits="userSpaceOnUse" id="color-4"><stop offset="0" stop-color="#2e2a52"/><stop offset="1" stop-color="#1c1b34"/></linearGradient><linearGradient x1="331.9123" y1="182.53728" x2="331.9123" y2="188.62936" gradientUnits="userSpaceOnUse" id="color-5"><stop offset="0" stop-color="#2e2a52"/><stop offset="1" stop-color="#1c1b34"/></linearGradient><linearGradient x1="333.10169" y1="182.31889" x2="333.10169" y2="187.40329" gradientUnits="userSpaceOnUse" id="color-6"><stop offset="0" stop-color="#2e2a52"/><stop offset="1" stop-color="#1c1b34"/></linearGradient><linearGradient x1="309.36464" y1="180.77089" x2="309.36464" y2="188.20307" gradientUnits="userSpaceOnUse" id="color-7"><stop offset="0" stop-color="#383551"/><stop offset="1" stop-color="#2a284d"/></linearGradient><linearGradient x1="307.03489" y1="181.22916" x2="307.03489" y2="184.50721" gradientUnits="userSpaceOnUse" id="color-8"><stop offset="0" stop-color="#2e2a52"/><stop offset="1" stop-color="#1c1b34"/></linearGradient><linearGradient x1="307.66534" y1="179.83907" x2="307.66534" y2="181.81488" gradientUnits="userSpaceOnUse" id="color-9"><stop offset="0" stop-color="#2e2a52"/><stop offset="1" stop-color="#1c1b34"/></linearGradient><linearGradient x1="308.00616" y1="182.27792" x2="308.00616" y2="188.37" gradientUnits="userSpaceOnUse" id="color-10"><stop offset="0" stop-color="#2e2a52"/><stop offset="1" stop-color="#1c1b34"/></linearGradient><linearGradient x1="306.81677" y1="182.05952" x2="306.81677" y2="187.14392" gradientUnits="userSpaceOnUse" id="color-11"><stop offset="0" stop-color="#2e2a52"/><stop offset="1" stop-color="#1c1b34"/></linearGradient><linearGradient x1="318.16319" y1="172.49525" x2="318.16319" y2="180.14653" gradientUnits="userSpaceOnUse" id="color-12"><stop offset="0" stop-color="#000000"/><stop offset="1" stop-color="#000000" stop-opacity="0"/></linearGradient><linearGradient x1="327.87375" y1="183.55867" x2="327.87375" y2="187.77336" gradientUnits="userSpaceOnUse" id="color-13"><stop offset="0" stop-color="#250627"/><stop offset="1" stop-color="#4e0d5a"/></linearGradient><linearGradient x1="312.29352" y1="184.20709" x2="312.29352" y2="188.42178" gradientUnits="userSpaceOnUse" id="color-14"><stop offset="0" stop-color="#250627"/><stop offset="1" stop-color="#4e0d5a"/></linearGradient><linearGradient x1="321.14245" y1="180.63695" x2="321.14245" y2="186.53751" gradientUnits="userSpaceOnUse" id="color-15"><stop offset="0" stop-color="#000000" stop-opacity="0"/><stop offset="1" stop-color="#000000" stop-opacity="0.80392"/></linearGradient><linearGradient x1="314.64161" y1="173.46787" x2="314.64161" y2="180.6625" gradientUnits="userSpaceOnUse" id="color-16"><stop offset="0" stop-color="#2d2a41"/><stop offset="1" stop-color="#2a284d"/></linearGradient><linearGradient x1="325.04473" y1="173.30577" x2="325.04473" y2="180.63008" gradientUnits="userSpaceOnUse" id="color-17"><stop offset="0" stop-color="#2d2a41"/><stop offset="1" stop-color="#2a284d"/></linearGradient><radialGradient cx="324.17702" cy="181.47307" r="3.05824" gradientUnits="userSpaceOnUse" id="color-18"><stop offset="0" stop-color="#3f002f"/><stop offset="1" stop-color="#000000"/></radialGradient><radialGradient cx="324.08523" cy="181.56903" r="1.33769" gradientUnits="userSpaceOnUse" id="color-19"><stop offset="0" stop-color="#ff0000"/><stop offset="1" stop-color="#ff0000" stop-opacity="0"/></radialGradient><radialGradient cx="324.11291" cy="181.46435" r="1.33769" gradientUnits="userSpaceOnUse" id="color-20"><stop offset="0" stop-color="#ff0000"/><stop offset="1" stop-color="#ff0000" stop-opacity="0"/></radialGradient><radialGradient cx="324.11982" cy="181.50418" r="0.66654" gradientUnits="userSpaceOnUse" id="color-21"><stop offset="0" stop-color="#ffffff"/><stop offset="1" stop-color="#ffffff" stop-opacity="0"/></radialGradient><radialGradient cx="324.11982" cy="181.56961" r="0.66654" gradientUnits="userSpaceOnUse" id="color-22"><stop offset="0" stop-color="#ffffff"/><stop offset="1" stop-color="#ffffff" stop-opacity="0"/></radialGradient><radialGradient cx="315.59201" cy="181.55088" r="3.05824" gradientUnits="userSpaceOnUse" id="color-23"><stop offset="0" stop-color="#3f002f"/><stop offset="1" stop-color="#000000"/></radialGradient><radialGradient cx="315.50022" cy="181.64684" r="1.33769" gradientUnits="userSpaceOnUse" id="color-24"><stop offset="0" stop-color="#ff0000"/><stop offset="1" stop-color="#ff0000" stop-opacity="0"/></radialGradient><radialGradient cx="315.5279" cy="181.54216" r="1.33769" gradientUnits="userSpaceOnUse" id="color-25"><stop offset="0" stop-color="#ff0000"/><stop offset="1" stop-color="#ff0000" stop-opacity="0"/></radialGradient><radialGradient cx="315.53482" cy="181.58199" r="0.66654" gradientUnits="userSpaceOnUse" id="color-26"><stop offset="0" stop-color="#ffffff"/><stop offset="1" stop-color="#ffffff" stop-opacity="0"/></radialGradient><radialGradient cx="315.53482" cy="181.64742" r="0.66654" gradientUnits="userSpaceOnUse" id="color-27"><stop offset="0" stop-color="#ffffff"/><stop offset="1" stop-color="#ffffff" stop-opacity="0"/></radialGradient><linearGradient x1="319.81072" y1="181.5443" x2="319.81072" y2="193.80593" gradientUnits="userSpaceOnUse" id="color-28"><stop offset="0" stop-color="#c08775"/><stop offset="1" stop-color="#b0746f"/></linearGradient><linearGradient x1="319.61579" y1="183.47101" x2="319.61579" y2="190.47388" gradientUnits="userSpaceOnUse" id="color-29"><stop offset="0" stop-color="#c4766c"/><stop offset="1" stop-color="#c4766c" stop-opacity="0"/></linearGradient><linearGradient x1="319.56699" y1="191.127" x2="319.56699" y2="192.42383" gradientUnits="userSpaceOnUse" id="color-30"><stop offset="0" stop-color="#c4766c" stop-opacity="0.68627"/><stop offset="1" stop-color="#c4766c" stop-opacity="0"/></linearGradient><linearGradient x1="320.24621" y1="185.00662" x2="320.24621" y2="186.34667" gradientUnits="userSpaceOnUse" id="color-31"><stop offset="0" stop-color="#c4766c" stop-opacity="0"/><stop offset="1" stop-color="#c4766c"/></linearGradient><linearGradient x1="319.79606" y1="183.07249" x2="319.79606" y2="185.07815" gradientUnits="userSpaceOnUse" id="color-32"><stop offset="0" stop-color="#191919"/><stop offset="1" stop-color="#000000"/></linearGradient><linearGradient x1="319.11765" y1="186.84465" x2="319.11765" y2="189.08855" gradientUnits="userSpaceOnUse" id="color-33"><stop offset="0" stop-color="#a46717"/><stop offset="1" stop-color="#2c1c06"/></linearGradient><linearGradient x1="320.84333" y1="186.82304" x2="320.84333" y2="189.06693" gradientUnits="userSpaceOnUse" id="color-34"><stop offset="0" stop-color="#a46717"/><stop offset="1" stop-color="#2c1c06"/></linearGradient><linearGradient x1="322.05474" y1="187.20346" x2="322.05474" y2="189.07775" gradientUnits="userSpaceOnUse" id="color-35"><stop offset="0" stop-color="#a46717"/><stop offset="1" stop-color="#2c1c06"/></linearGradient><linearGradient x1="323.22747" y1="187.16221" x2="323.22747" y2="189.40611" gradientUnits="userSpaceOnUse" id="color-36"><stop offset="0" stop-color="#a46717"/><stop offset="1" stop-color="#2c1c06"/></linearGradient><linearGradient x1="324.25297" y1="187.06881" x2="324.25297" y2="188.47422" gradientUnits="userSpaceOnUse" id="color-37"><stop offset="0" stop-color="#a46717"/><stop offset="1" stop-color="#2c1c06"/></linearGradient><linearGradient x1="325.17076" y1="186.95909" x2="325.17076" y2="188.36449" gradientUnits="userSpaceOnUse" id="color-38"><stop offset="0" stop-color="#a46717"/><stop offset="1" stop-color="#2c1c06"/></linearGradient><linearGradient x1="325.54641" y1="186.51969" x2="325.54641" y2="187.54717" gradientUnits="userSpaceOnUse" id="color-39"><stop offset="0" stop-color="#a46717"/><stop offset="1" stop-color="#2c1c06"/></linearGradient><linearGradient x1="315.60804" y1="187.29255" x2="315.60804" y2="188.69795" gradientUnits="userSpaceOnUse" id="color-40"><stop offset="0" stop-color="#a46717"/><stop offset="1" stop-color="#2c1c06"/></linearGradient><linearGradient x1="317.91923" y1="187.24052" x2="317.91923" y2="189.11479" gradientUnits="userSpaceOnUse" id="color-41"><stop offset="0" stop-color="#a46717"/><stop offset="1" stop-color="#2c1c06"/></linearGradient><linearGradient x1="316.60242" y1="187.14368" x2="316.60242" y2="189.38758" gradientUnits="userSpaceOnUse" id="color-42"><stop offset="0" stop-color="#a46717"/><stop offset="1" stop-color="#2c1c06"/></linearGradient><linearGradient x1="314.68174" y1="187.00478" x2="314.68174" y2="188.30712" gradientUnits="userSpaceOnUse" id="color-43"><stop offset="0" stop-color="#a46717"/><stop offset="1" stop-color="#2c1c06"/></linearGradient><linearGradient x1="314.21858" y1="186.72719" x2="314.21858" y2="187.75467" gradientUnits="userSpaceOnUse" id="color-44"><stop offset="0" stop-color="#a46717"/><stop offset="1" stop-color="#2c1c06"/></linearGradient><linearGradient x1="320.04042" y1="189.17748" x2="320.04042" y2="190.48872" gradientUnits="userSpaceOnUse" id="color-45"><stop offset="0" stop-color="#a46717"/><stop offset="1" stop-color="#2c1c06"/></linearGradient><linearGradient x1="318.76273" y1="189.28708" x2="319.11143" y2="190.32191" gradientUnits="userSpaceOnUse" id="color-46"><stop offset="0" stop-color="#a46717"/><stop offset="1" stop-color="#2c1c06"/></linearGradient><linearGradient x1="320.95147" y1="189.29205" x2="320.83959" y2="190.37298" gradientUnits="userSpaceOnUse" id="color-47"><stop offset="0" stop-color="#a46717"/><stop offset="1" stop-color="#2c1c06"/></linearGradient><linearGradient x1="321.86573" y1="189.17677" x2="321.75386" y2="190.2577" gradientUnits="userSpaceOnUse" id="color-48"><stop offset="0" stop-color="#a46717"/><stop offset="1" stop-color="#2c1c06"/></linearGradient><linearGradient x1="318.05791" y1="189.16237" x2="318.16978" y2="190.24329" gradientUnits="userSpaceOnUse" id="color-49"><stop offset="0" stop-color="#a46717"/><stop offset="1" stop-color="#2c1c06"/></linearGradient><linearGradient x1="324.98455" y1="188.9143" x2="325.25494" y2="187.91913" gradientUnits="userSpaceOnUse" id="color-50"><stop offset="0" stop-color="#a46717"/><stop offset="1" stop-color="#2c1c06"/></linearGradient><linearGradient x1="324.26836" y1="189.28894" x2="324.53875" y2="188.29377" gradientUnits="userSpaceOnUse" id="color-51"><stop offset="0" stop-color="#a46717"/><stop offset="1" stop-color="#2c1c06"/></linearGradient><linearGradient x1="323.46076" y1="189.67799" x2="323.73115" y2="188.68282" gradientUnits="userSpaceOnUse" id="color-52"><stop offset="0" stop-color="#a46717"/><stop offset="1" stop-color="#2c1c06"/></linearGradient><linearGradient x1="314.76114" y1="188.97914" x2="314.49075" y2="187.98397" gradientUnits="userSpaceOnUse" id="color-53"><stop offset="0" stop-color="#a46717"/><stop offset="1" stop-color="#2c1c06"/></linearGradient><linearGradient x1="315.47732" y1="189.35377" x2="315.20693" y2="188.35862" gradientUnits="userSpaceOnUse" id="color-54"><stop offset="0" stop-color="#a46717"/><stop offset="1" stop-color="#2c1c06"/></linearGradient><linearGradient x1="316.28492" y1="189.74283" x2="316.01453" y2="188.74766" gradientUnits="userSpaceOnUse" id="color-55"><stop offset="0" stop-color="#a46717"/><stop offset="1" stop-color="#2c1c06"/></linearGradient><linearGradient x1="308.5062" y1="168.99381" x2="308.5062" y2="171.06874" gradientUnits="userSpaceOnUse" id="color-56"><stop offset="0" stop-color="#c08775"/><stop offset="1" stop-color="#b0746f"/></linearGradient><linearGradient x1="331.36528" y1="168.8382" x2="331.36528" y2="170.91312" gradientUnits="userSpaceOnUse" id="color-57"><stop offset="0" stop-color="#c08775"/><stop offset="1" stop-color="#b0746f"/></linearGradient></defs><g transform="translate(-302.30714,-164.77913)"><g data-paper-data="{&quot;isPaintingLayer&quot;:true}" fill-rule="nonzero" stroke-linecap="butt" stroke-linejoin="miter" stroke-miterlimit="10" stroke-dasharray="" stroke-dashoffset="0" style="mix-blend-mode: normal"><path d="M333.133,166.90583c0.01727,-0.00517 -0.94051,5.45841 -0.71179,5.6685c1.00264,0.92096 4.17876,4.04918 4.45915,5.10632c0.63228,2.38383 1.14473,5.8404 0.54747,6.68742c-0.28546,0.40484 -4.8647,-4.39332 -4.84142,-4.36541c1.02082,1.22313 1.88239,2.59729 2.3624,4.15512c0.69896,2.26838 -2.20163,9.53002 -2.62584,10.72935c-0.03169,0.0896 -2.7502,-4.31505 -4.60318,-6.00585c-1.01017,-0.92174 2.06001,-5.87291 1.53185,-10.07054c-0.21802,-1.73274 -0.95056,-2.20864 -1.96488,-2.62133c-3.04114,-1.23734 -6.57794,4.43395 -7.33945,4.50294c-0.61613,-0.26902 -3.82437,-4.27564 -5.88244,-4.57751c-2.9717,0.03629 -3.52779,2.63412 -3.6184,2.9019c-0.98567,2.91313 3.51093,7.10147 1.93212,10.13342c-0.13801,0.26503 -1.81946,1.89394 -2.03297,2.11669c-1.72686,1.80163 -2.77984,4.37579 -3.26194,3.89537c-0.08682,-0.08651 -1.69921,-4.41801 -1.43942,-8.34119c0.08692,-1.31263 -0.03265,-1.87429 0.50927,-2.8965c0.5368,-1.01255 0.43271,-1.64868 0.43271,-1.70308c0,-0.25634 -3.59328,3.16714 -4.10884,3.14119c-0.20911,-0.01053 -0.52544,-4.9932 1.14165,-8.4442c1.34237,-2.77881 3.88732,-3.63421 3.82794,-3.94006c-0.40409,-2.08142 -0.72167,-5.65943 -0.66503,-5.80494c0.11974,-0.30759 6.5604,2.18528 6.6134,1.95019c0.6207,-2.75362 4.01761,-4.34449 6.35639,-4.34449c1.84823,0 5.32889,1.93963 6.28965,3.96476c0.13925,0.29351 5.56618,-1.38131 7.09161,-1.83806z" fill="url(#color-1)" stroke="#000000" stroke-width="0"/><path d="M329.71644,181.1027c0.02306,-0.19223 0.62643,0.02555 0.78436,0.33184c0.40954,0.79426 0.62377,1.2517 0.75928,2.26001c0.27956,2.08011 0.03878,5.25315 0.02476,4.70533c-0.01976,-0.7718 0.07689,0.49886 -0.00437,-0.27662c-0.04546,-0.43385 -0.10436,-2.42491 -0.45236,-3.59027c-0.01277,-0.04275 -1.1859,-2.81163 -1.11167,-3.43029z" data-paper-data="{&quot;index&quot;:null}" fill="url(#color-2)" stroke="#000000" stroke-width="0"/><path d="M329.15743,181.88453c-0.16859,-0.12404 0.44327,-0.41907 0.79248,-0.39456c0.90554,0.06356 1.32293,0.1907 2.31342,0.61325c2.04337,0.8717 4.82661,2.9194 4.31314,2.63682c-0.72341,-0.39811 0.49413,0.2003 -0.25815,-0.14509c-0.42087,-0.19324 -2.2428,-1.24887 -3.46678,-1.56702c-0.0449,-0.01167 -3.1515,-0.74417 -3.6941,-1.14339z" data-paper-data="{&quot;index&quot;:null}" fill="url(#color-3)" stroke="#000000" stroke-width="0"/><path d="M328.97696,182.07424c-0.19249,0.00113 -0.0345,-0.54521 0.1956,-0.71666c0.5967,-0.44463 0.94271,-0.57837 1.85149,-0.80785c1.87479,-0.47341 5.05255,-0.49224 4.53536,-0.4195c-0.72866,0.10248 0.44574,-0.12211 -0.26223,0.03437c-0.39608,0.08754 -2.26966,0.30709 -3.24466,0.73909c-0.03577,0.01585 -2.45603,1.1669 -3.07556,1.17055z" data-paper-data="{&quot;index&quot;:null}" fill="url(#color-4)" stroke="#000000" stroke-width="0"/><path d="M329.47699,182.7019c-0.06982,-0.18184 0.57299,-0.24079 0.85858,-0.03299c0.74059,0.53886 1.14776,0.85832 1.74372,1.70419c1.22946,1.74502 2.50743,4.68775 2.23702,4.20309c-0.38098,-0.68281 0.30367,0.41436 -0.13412,-0.24587c-0.24493,-0.36936 -1.23487,-2.12753 -2.09505,-3.0246c-0.03155,-0.03291 -2.38541,-2.01859 -2.61015,-2.60383z" data-paper-data="{&quot;index&quot;:null}" fill="url(#color-5)" stroke="#000000" stroke-width="0"/><path d="M329.54672,182.52228c-0.13896,-0.16635 0.63795,-0.27312 1.0108,-0.15015c0.96685,0.31889 1.37669,0.55915 2.30511,1.24453c1.91531,1.41393 4.20939,4.1601 3.75134,3.74423c-0.64533,-0.58591 0.46699,0.33191 -0.22918,-0.21197c-0.38948,-0.30428 -1.99539,-1.8304 -3.21728,-2.48285c-0.04483,-0.02394 -3.17355,-1.6084 -3.62079,-2.14379z" data-paper-data="{&quot;index&quot;:null}" fill="url(#color-6)" stroke="#000000" stroke-width="0"/><path d="M309.09034,184.27362c-0.34801,1.16536 -0.4069,3.15642 -0.45236,3.59027c-0.08126,0.77548 0.01538,-0.49518 -0.00436,0.27662c-0.01403,0.54782 -0.2548,-2.62522 0.02475,-4.70533c0.13551,-1.0083 0.34975,-1.46575 0.75928,-2.26001c0.15793,-0.30629 0.7613,-0.52406 0.78436,-0.33184c0.07423,0.61866 -1.09891,3.38754 -1.11167,3.43029z" fill="url(#color-7)" stroke="#000000" stroke-width="0"/><path d="M329.52421,184.08701c0,1.91589 -3.38709,7.08897 -9.87413,7.29465c-4.75615,0.1508 -8.91415,-5.05456 -8.91415,-6.97044c0,-1.91589 5.31647,0.03242 8.91415,0.03242c3.59768,0 9.87413,-2.27251 9.87413,-0.35663z" fill="#000000" stroke="none" stroke-width="0"/><path d="M307.06692,182.76855c-1.22398,0.31815 -3.04591,1.37378 -3.46677,1.56702c-0.75228,0.3454 0.46526,-0.25301 -0.25815,0.14509c-0.51347,0.28257 2.26977,-1.76512 4.31314,-2.63682c0.99049,-0.42255 1.40788,-0.54969 2.31342,-0.61325c0.3492,-0.02451 0.96106,0.27052 0.79248,0.39456c-0.5426,0.39922 -3.6492,1.13172 -3.6941,1.14339z" fill="url(#color-8)" stroke="#000000" stroke-width="0"/><path d="M307.86594,180.64432c-0.97501,-0.43201 -2.84858,-0.65156 -3.24466,-0.73909c-0.70797,-0.15648 0.46643,0.06812 -0.26222,-0.03437c-0.51719,-0.07274 2.66057,-0.05391 4.53535,0.4195c0.90878,0.22948 1.25479,0.36323 1.85149,0.80785c0.2301,0.17146 0.3881,0.7178 0.1956,0.71666c-0.61953,-0.00366 -3.03979,-1.15471 -3.07555,-1.17056z" fill="url(#color-9)" stroke="#000000" stroke-width="0"/><path d="M329.65369,179.66306c0,1.68916 -0.7707,3.70151 -3.05881,4.84424c-1.98066,0.98919 -5.31609,1.22923 -7.62674,1.22923c-4.97995,0 -8.85701,-2.92211 -8.85701,-6.07347c0,-1.68699 2.4012,-5.13525 4.31339,-5.02287c1.65983,0.09754 3.30575,5.62059 5.61982,5.62059c2.40151,0 3.46874,-4.99005 5.77081,-5.11164c3.5168,-0.18576 3.83854,2.88227 3.83854,4.51393z" fill="#000000" stroke="none" stroke-width="0"/><path d="M307.83132,185.04637c-0.86018,0.89707 -1.85012,2.65523 -2.09505,3.0246c-0.43779,0.66022 0.24686,-0.43694 -0.13412,0.24587c-0.27041,0.48466 1.00755,-2.45807 2.23702,-4.20309c0.59597,-0.84587 1.00313,-1.16533 1.74372,-1.70419c0.28559,-0.2078 0.92841,-0.14885 0.85858,0.03299c-0.22474,0.58524 -2.57859,2.57092 -2.61015,2.60383z" fill="url(#color-10)" stroke="#000000" stroke-width="0"/><path d="M306.75095,184.4067c-1.22189,0.65244 -2.82779,2.17857 -3.21728,2.48285c-0.69617,0.54388 0.41615,-0.37393 -0.22918,0.21197c-0.45805,0.41587 1.83603,-2.3303 3.75134,-3.74423c0.92842,-0.68538 1.33827,-0.92565 2.30512,-1.24453c0.37285,-0.12297 1.14976,-0.0162 1.0108,0.15015c-0.44723,0.53539 -3.57597,2.11986 -3.62079,2.14379z" fill="url(#color-11)" stroke="#000000" stroke-width="0"/><path d="M329.01245,176.97437c-1.25937,1.00673 -6.97855,3.51807 -9.27367,3.55038c-0.62166,0.00875 -1.66854,-1.97765 -2.30701,-1.97765c-4.73379,0 -6.51418,1.52927 -6.51418,-0.58357c0,-1.54469 0.89019,-3.14241 3.88258,-4.16894c0.28581,-0.09805 2.39046,2.0952 3.24538,2.31753c0.0433,0.01126 0.11929,-0.25697 -0.04288,-0.55159c-0.10477,-0.19035 -0.32243,-0.35924 -0.4635,-0.53851c-0.20226,-0.25705 -0.28227,-0.49334 -0.24458,-0.48765c0.17304,0.0261 0.00786,-0.78589 0.17533,-0.73806c0.03501,0.00999 -0.10151,0.40275 -0.03245,0.57125c0.10172,0.2482 0.41502,0.30155 0.46308,0.31301c0.04768,0.01136 0.12124,0.1193 0.20512,0.18435c0.10479,0.08126 0.22569,0.12914 0.33239,0.22489c0.11769,0.10561 0.21807,0.21532 0.26046,0.20385c0.03103,-0.0084 0.10672,0.18079 0.15426,0.45351c0.03993,0.22908 0.04655,0.51285 0.12233,0.82963c0.09946,0.4158 0.14316,1.02528 0.25945,1.40493c0.19372,0.63242 0.45366,0.90843 0.51642,0.65268c0.02249,-0.09165 -0.08108,-0.24738 -0.09187,-0.44872c-0.00955,-0.17825 -0.0058,-0.51855 0.05597,-0.75199c0.06543,-0.24732 0.18854,-0.39059 0.15561,-0.67786c-0.02361,-0.20605 -0.16513,-0.38909 -0.20646,-0.601c-0.02905,-0.14893 -0.3331,-0.2823 -0.36263,-0.42726c-0.08477,-0.4161 -0.04702,-0.76018 -0.0439,-1.11476c0.00336,-0.38414 -0.02334,-0.76809 -0.00302,-0.92941c0.0458,-0.36384 -0.19298,-1.23494 -0.13374,-1.47995c0.02278,-0.09423 0.30447,0.55407 0.32697,0.47675c0.07201,-0.24742 0.01197,-0.46871 0.09698,-0.46604c0.04259,0.00133 0.09813,1.24288 0.27884,2.17502c0.09459,0.4879 0.17181,0.69249 0.27816,1.00408c0.058,0.16992 -0.01499,0.3742 0.03711,0.52563c0.05371,0.15608 0.18605,0.22808 0.19423,0.23847c0.01649,0.02096 0.04298,0.16109 0.01243,0.34842c-0.02605,0.15969 -0.10603,0.3537 -0.13342,0.5374c-0.0531,0.35615 -0.02839,0.69657 -0.01141,0.73727c0.1528,0.36637 -0.10336,1.19576 -0.06756,1.1941c0.04272,-0.00198 0.27423,-0.57016 0.40789,-1.147c0.06302,-0.27195 -0.06194,-0.61916 0.02539,-0.84425c0.06979,-0.17986 0.09544,-0.06496 0.19146,-0.13512c0.12182,-0.08901 0.26978,-0.27514 0.30573,-0.30377c0.18034,-0.14366 0.10607,-0.28894 0.5306,-0.44497c0.01064,-0.00391 0.01594,-0.09612 0.03552,-0.19227c0.02377,-0.11679 0.08799,-0.28191 0.13063,-0.44747c0.07854,-0.30498 0.14353,-0.61148 0.16879,-0.62023c0.0421,-0.01457 -0.05208,-0.19299 0.01661,-0.2288c0.06906,-0.036 0.19147,-0.5379 0.26708,-0.56307c0.17267,-0.05749 -0.27542,0.55734 -0.07736,0.56244c0.04321,0.00112 0.41001,-0.14449 0.58518,-0.24937c0.16101,-0.0964 0.13111,-0.15291 0.17467,-0.14964c0.12954,0.00973 -0.52343,0.58075 -0.3891,0.60327c0.02261,0.00379 -0.22721,-0.04162 -0.32609,0.15138c-0.08098,0.15809 -0.01557,0.56148 0.00392,0.56447c1.20759,0.18482 3.65716,-0.43317 4.36848,-0.46086c1.92564,-0.07499 2.95918,1.5059 2.45979,1.9051z" fill="url(#color-12)" stroke="none" stroke-width="0"/><path d="M327.1026,185.87713c0.09541,-0.93127 -0.8361,-1.42052 -0.39985,-1.6184c0.04331,-0.01965 1.1192,-0.70006 1.171,-0.70006c0.9657,0 2.06853,-2.10406 2.06853,-0.9402c0,1.16386 0.5657,2.73414 -0.39999,2.73414c-0.57225,0 -2.27765,1.82833 -2.59196,1.78881c-0.11867,-0.01492 0.0806,-0.56482 0.15227,-1.2643z" data-paper-data="{&quot;index&quot;:null}" fill="url(#color-13)" stroke="none" stroke-width="0"/><path d="M313.21693,187.78984c-0.31431,0.03952 -2.01972,-1.78881 -2.59196,-1.78881c-0.9657,0 -0.39999,-1.57029 -0.39999,-2.73414c0,-1.16386 1.10285,0.9402 2.06854,0.9402c0.05181,0 1.12769,0.68041 1.171,0.70006c0.43626,0.19788 -0.49526,0.68713 -0.39985,1.6184c0.07166,0.69947 0.27093,1.24937 0.15227,1.2643z" fill="url(#color-14)" stroke="none" stroke-width="0"/><path d="M329.37751,185.8636l-0.01763,-0.01962c-0.14613,-0.16342 -0.20841,-0.33108 -0.33065,-0.50209c-0.12166,-0.17018 -0.33852,-0.23876 -0.47435,-0.40377c-0.12658,-0.15376 -0.21241,-0.32404 -0.35815,-0.47106c-0.34669,-0.34973 -0.87586,-0.34757 -0.85823,-0.87059c0,0 0.00456,-0.09324 0.12246,-0.08964c0.1179,0.00361 0.11333,0.09684 0.11333,0.09684c-0.0279,0.41007 0.51666,0.45819 0.80762,0.74772c0.1519,0.15115 0.24329,0.3256 0.3715,0.48586c0.13452,0.16814 0.35027,0.23502 0.48041,0.41164c0.12166,0.1651 0.17559,0.3291 0.31838,0.48695l0.01763,0.01962c0,0 0.06837,0.07605 -0.02778,0.13012c-0.09615,0.05407 -0.16453,-0.02197 -0.16453,-0.02197z" fill="#000000" stroke="none" stroke-width="0.5"/><path d="M327.98424,186.97903l-0.00799,-0.02672c-0.06587,-0.22231 -0.058,-0.41322 -0.10052,-0.63284c-0.04232,-0.21857 -0.20386,-0.37784 -0.26027,-0.59733c-0.05258,-0.20454 -0.06403,-0.408 -0.13557,-0.61407c-0.17019,-0.49017 -0.62648,-0.71252 -0.41954,-1.21815c0,0 0.03811,-0.08954 0.13827,-0.03599c0.10016,0.05355 0.06205,0.14309 0.06205,0.14309c-0.17437,0.39046 0.27673,0.66867 0.42103,1.07613c0.07534,0.21272 0.09004,0.42263 0.14164,0.63423c0.05414,0.22201 0.21533,0.37915 0.2626,0.60763c0.04419,0.21358 0.03048,0.39735 0.09552,0.61278l0.00799,0.02672c0,0 0.03098,0.10361 -0.07162,0.11588c-0.1026,0.01226 -0.13357,-0.09135 -0.13357,-0.09135z" fill="#000000" stroke="none" stroke-width="0.5"/><path d="M329.60194,185.534c-0.1104,0.03291 -0.15202,-0.0544 -0.15202,-0.0544l-0.01074,-0.02252c-0.08589,-0.1818 -0.22784,-0.30874 -0.33315,-0.48072c-0.11265,-0.18398 -0.06239,-0.36289 -0.1637,-0.54502c-0.09656,-0.17358 -0.22857,-0.33093 -0.30235,-0.51497c-0.14133,-0.35253 0.11215,-0.73674 -0.33363,-0.94732c0,0 -0.10037,-0.04905 -0.03834,-0.12843c0.06203,-0.07938 0.16239,-0.03033 0.16239,-0.03033c0.55855,0.28038 0.2609,0.6264 0.4343,1.04911c0.0729,0.17771 0.20362,0.32908 0.29429,0.49797c0.09728,0.18123 0.04818,0.36182 0.15882,0.53665c0.11118,0.17567 0.25231,0.31013 0.34219,0.49723l0.01073,0.02252c0,0 0.04161,0.08731 -0.06879,0.12022z" data-paper-data="{&quot;index&quot;:null}" fill="#000000" stroke="none" stroke-width="0.5"/><path d="M311.32633,186.84556c-0.1127,-0.01964 -0.08312,-0.121 -0.08312,-0.121l0.00763,-0.02615c0.0622,-0.21069 0.03961,-0.3954 0.07909,-0.60575c0.04224,-0.22502 0.21199,-0.37051 0.26202,-0.58857c0.04768,-0.20784 0.05506,-0.41663 0.12864,-0.62388c0.14093,-0.39698 0.62273,-0.64265 0.41588,-1.04556c0,0 -0.04539,-0.09226 0.06194,-0.13859c0.10731,-0.04633 0.1527,0.04594 0.1527,0.04594c0.24724,0.5204 -0.24254,0.70984 -0.40837,1.18764c-0.06971,0.20087 -0.07381,0.40346 -0.12285,0.60415c-0.05262,0.21538 -0.22267,0.36298 -0.2599,0.57845c-0.03741,0.21651 -0.02091,0.40793 -0.08373,0.62544l-0.00763,0.02615c0,0 -0.02959,0.10135 -0.14229,0.08171z" fill="#000000" stroke="none" stroke-width="0.5"/><path d="M311.74343,187.3408c-0.10526,-0.03037 -0.06304,-0.13223 -0.06304,-0.13223l0.01089,-0.02627c0.08844,-0.21167 0.09209,-0.40417 0.1587,-0.61752c0.07126,-0.22824 0.2538,-0.36304 0.33157,-0.58341c0.07412,-0.21004 0.10979,-0.42468 0.20865,-0.63177c0.18935,-0.3967 0.68449,-0.60681 0.54153,-1.04083c0,0 -0.03083,-0.09921 0.0783,-0.13735c0.10914,-0.03815 0.13998,0.06106 0.13998,0.06106c0.16556,0.55879 -0.32953,0.7102 -0.5538,1.18801c-0.09429,0.20087 -0.12595,0.4094 -0.2004,0.61196c-0.07989,0.21737 -0.26299,0.35432 -0.32816,0.57316c-0.06548,0.2199 -0.07589,0.41876 -0.16585,0.63742l-0.01089,0.02627c0,0 -0.04221,0.10186 -0.14748,0.07149z" fill="#000000" stroke="none" stroke-width="0.5"/><path d="M310.32038,185.88801l0.01074,-0.02455c0.08988,-0.20401 0.23102,-0.35061 0.34219,-0.54214c0.11064,-0.19061 0.06154,-0.38751 0.15882,-0.58511c0.09065,-0.18413 0.22139,-0.34917 0.29429,-0.54294c0.1734,-0.46089 -0.12425,-0.83817 0.4343,-1.14386c0,0 0.10037,-0.05348 0.16239,0.03306c0.06203,0.08654 -0.03834,0.14003 -0.03834,0.14003c-0.44578,0.2296 -0.1923,0.6485 -0.33363,1.03287c-0.07379,0.20067 -0.2058,0.37222 -0.30235,0.56148c-0.10131,0.19858 -0.05105,0.39364 -0.1637,0.59423c-0.10531,0.18751 -0.24725,0.32592 -0.33315,0.52414l-0.01074,0.02455c0,0 -0.04161,0.0952 -0.15202,0.05932c-0.1104,-0.03588 -0.06879,-0.13108 -0.06879,-0.13108z" data-paper-data="{&quot;index&quot;:null}" fill="#000000" stroke="none" stroke-width="0.5"/><path d="M330.67373,183.19819c0,0.59792 -7.30908,1.15429 -7.6146,1.61909c-0.52707,0.80185 -0.99552,2.10928 -2.02639,2.10928c-0.87857,0 -1.0777,-1.22743 -1.61788,-1.83743c-0.46103,-0.52062 -8.07797,-0.68677 -8.07797,-1.43706c0,-0.64073 1.40159,-2.2164 3.03506,-2.71234c1.7879,-0.54282 3.84626,1.10796 5.32414,2.0129c0.05788,0.03544 0.34323,-0.84858 0.39884,-0.81506c0.10401,0.0627 0.30321,0.69127 0.39287,0.79246c0.10152,0.11459 0.67789,-0.3798 0.75213,-0.31076c0.1919,0.17844 -0.03058,0.66535 0.05111,0.65455c0.02104,-0.00278 0.21039,-0.56625 0.38827,-0.64948c0.06952,-0.03253 0.18989,0.3961 0.26923,0.357c0.06531,-0.03218 0.14512,-0.60778 0.21633,-0.64572c0.08198,-0.04368 0.33912,0.33225 0.42818,0.28523c1.49411,-0.7888 3.76175,-2.41661 5.43403,-2.26956c2.09641,0.18434 2.64666,2.05787 2.64666,2.84688z" fill="url(#color-15)" stroke="none" stroke-width="0"/><path d="M318.09206,176.19903c-0.03428,0.00003 -0.03432,-0.03239 -0.03432,-0.03239l-0.00002,-0.02255c-0.00019,-0.1851 -0.0423,-0.57069 -0.17988,-0.69931c-0.10559,-0.18143 -0.28108,-0.31051 -0.41806,-0.48546c-0.10436,-0.13327 -0.07974,-0.32985 -0.21483,-0.45566c0,0 -0.02425,-0.02293 0,-0.04585c0.02425,-0.02293 0.04848,0 0.04848,0c0.1186,0.11361 0.14793,0.27086 0.19073,0.41737c0.05551,0.19003 0.34623,0.36726 0.44872,0.53093c0.14464,0.1525 0.19319,0.53047 0.1934,0.73791l0.00002,0.02255c0,0 0.00003,0.03242 -0.03425,0.03245z" fill="#000000" stroke="none" stroke-width="0.5"/><path d="M319.10529,172.06716c0.03407,-0.00624 0.03791,0.04898 0.03791,0.04898l0.00546,0.07834c0.02586,0.37649 0.1319,0.67932 0.1319,1.06626c0,0.77723 -0.00491,1.55494 0.00104,2.33211c0.00967,0.25915 0.08173,0.18163 0.19952,0.28118c0.19397,0.16393 0.41672,0.64023 0.41655,0.93021c-0.00012,0.20268 0.0368,0.44864 -0.10657,0.51353c-0.16662,0.26375 -0.12076,0.87069 -0.03317,1.23037c0.02885,0.11846 -0.05231,0.44307 0.0369,0.41031c0,0 0.03428,0 0.03428,0.05558c0,0.05558 -0.03428,0.05558 -0.03428,0.05558c-0.20445,-0.03586 -0.04403,-0.27185 -0.10024,-0.47893c-0.11518,-0.42434 -0.12515,-1.05386 0.06296,-1.36984c0.07163,-0.02071 0.1341,-0.52265 0.08022,-0.60206c-0.05376,-0.07922 -0.08945,-0.23995 -0.13585,-0.32255c-0.14149,-0.25183 -0.4724,-0.31074 -0.48883,-0.69908c-0.00612,-0.77858 -0.0011,-1.55776 -0.0011,-2.33641c0,-0.38072 -0.10514,-0.68077 -0.13147,-1.05379l-0.00546,-0.07834c0,0 -0.00385,-0.05522 0.03022,-0.06146z" fill="#000000" stroke="none" stroke-width="0.5"/><path d="M319.13644,180.39211c-0.0289,-0.00024 -0.02861,-0.02474 -0.02861,-0.02474l0.03848,-2.69066c-0.00147,-0.33784 -0.30824,-1.19263 -0.30824,-1.54487c0,-0.32019 -0.00669,-0.71645 -0.31298,-0.90724c-0.034,-0.10591 -0.21496,-0.18149 -0.32103,-0.24868c-0.1113,-0.07051 -0.13657,-0.1721 -0.25791,-0.24723c-0.08023,-0.04967 -0.21264,-0.05735 -0.30565,-0.10331c-0.06131,-0.05811 -0.18746,-0.16632 -0.22513,-0.22856c-0.0915,-0.15116 0.03535,-0.43615 0.03535,-0.59403c0,0 0,-0.0245 0.0289,-0.0245c0.0289,0 0.0289,0.0245 0.0289,0.0245c0,0.14655 -0.1255,0.43327 -0.04172,0.57167c0.0332,0.05486 0.15348,0.15801 0.21051,0.21315c0.09773,0.04989 0.21014,0.04729 0.30221,0.10109c0.12339,0.0721 0.15242,0.1802 0.25917,0.24799c0.11159,0.07087 0.29386,0.14805 0.33361,0.25964c0.31328,0.18416 0.32356,0.61358 0.32356,0.9355c0,0.3527 0.32603,1.23549 0.32751,1.57735l-0.05775,2.65867c0,0 -0.00028,0.0245 -0.02919,0.02425z" fill="#000000" stroke="none" stroke-width="0.5"/><path d="M319.21192,180.66173c-1.13915,0.07415 -3.04263,-5.18378 -5.73437,-5.18378c-3.10537,0 -2.88797,5.10605 -3.81709,3.87427c-1.1657,-1.54543 1.22599,-5.88435 4.33136,-5.88435c3.10537,0 5.93133,4.96572 5.93133,6.47872c0,0.20153 -0.40535,0.69522 -0.71125,0.71513z" fill="url(#color-16)" stroke="#000000" stroke-width="0"/><path d="M322.12624,174.07683c0.03428,0 0.03428,0.03243 0.03428,0.03243v0.00017c-0.00001,0.16187 -0.06438,0.21154 -0.07148,0.40404c-0.03061,0.11129 -0.09457,0.06718 -0.13898,0.13925c-0.0217,0.03521 0.01121,0.14364 -0.00127,0.18664c-0.08966,0.30864 -0.18443,0.60959 -0.22829,0.93286c-0.07421,0.08352 -0.06765,0.20149 -0.11143,0.29511c-0.04014,0.08583 -0.166,0.10968 -0.21971,0.16581c-0.17634,0.18427 -0.35523,0.39211 -0.56103,0.56821c-0.05129,0.02452 -0.07442,0.08341 -0.11782,0.11903c-0.03452,0.02834 -0.10481,-0.03057 -0.13714,0c-0.00461,0.00436 0.01004,0.15654 0.01004,0.1716c0,0.21613 0,0.43227 0,0.64842c0,0 0,0.03243 -0.03428,0.03243c-0.03428,0 -0.03428,-0.03243 -0.03428,-0.03243c0,-0.21613 0,-0.43227 0,-0.64842c0,-0.03913 -0.01841,-0.19055 0.01004,-0.21745c0.03233,-0.03057 0.10964,0.03452 0.13714,0c0.04226,-0.05306 0.03196,-0.08204 0.12749,-0.12664c0.19984,-0.17427 0.37417,-0.3791 0.54927,-0.55854c0.04783,-0.04902 0.17551,-0.07252 0.20717,-0.14735c0.03976,-0.09398 0.0383,-0.21232 0.11148,-0.29522c0.02827,-0.31857 0.13745,-0.6224 0.22525,-0.9246c0.0162,-0.05576 -0.0229,-0.15224 0.00825,-0.20227c0.04977,-0.07993 0.11278,-0.01777 0.13011,-0.11467c0.00583,-0.18083 0.07092,-0.25831 0.07092,-0.39581v-0.00017c0,0 0,-0.03242 0.03428,-0.03242z" fill="#000000" stroke="none" stroke-width="0.5"/><path d="M322.88301,174.2066c0.03419,0.00237 0.03169,0.0347 0.03169,0.0347l-0.00018,0.0024c-0.02528,0.18474 -0.59243,0.33571 -0.77409,0.4138c0,0 -0.03121,0.01342 -0.0454,-0.0161c-0.01418,-0.02951 0.01702,-0.04293 0.01702,-0.04293c0.12824,-0.05512 0.73659,-0.24556 0.73408,-0.35949l0.00018,-0.0024c0,0 0.0025,-0.03233 0.0367,-0.02997z" fill="#000000" stroke="none" stroke-width="0.5"/><path d="M322.09255,175.80116c-0.00638,-0.03185 0.0273,-0.03789 0.0273,-0.03789l0.0012,-0.00022c0.02062,-0.00039 0.0429,-0.02583 0.03946,-0.04505c0,-0.18032 -0.09658,-0.7249 0.03365,-0.86196c0.05885,-0.06194 0.24814,-0.09724 0.33076,-0.12849c0,0 0.03183,-0.01204 0.04457,0.01806c0.01274,0.0301 -0.0191,0.04215 -0.0191,0.04215c-0.07474,0.02827 -0.25162,0.05965 -0.3059,0.11233c-0.10655,0.1034 -0.0154,0.67071 -0.0154,0.81791c-0.00432,0.0469 -0.04735,0.09602 -0.09528,0.10876l-0.0012,0.00022c0,0 -0.03368,0.00604 -0.04006,-0.02582z" fill="#000000" stroke="none" stroke-width="0.5"/><path d="M319.82439,180.08803c0,-1.53355 2.9243,-6.78226 6.09046,-6.78226c3.16616,0 5.19502,4.39785 4.0065,5.96426c-0.9473,1.24851 -0.31601,-3.92688 -3.48217,-3.92688c-2.74442,0 -4.68314,5.36131 -5.84459,5.28615c-0.31189,-0.02018 -0.77022,-0.337 -0.77022,-0.54127z" data-paper-data="{&quot;index&quot;:null}" fill="url(#color-17)" stroke="#000000" stroke-width="0"/><path d="M319.58885,172.17796c0.03428,-0.00045 0.03457,0.05512 0.03457,0.05512l0.00042,0.08314c0.00351,0.70137 0.10974,1.37852 0.15316,2.06315c0.01264,0.29741 0.24818,0.65552 0.32479,0.90804c0.03867,0.12748 -0.01485,0.29933 0.03824,0.43031c0.08906,0.21972 0.23576,0.40194 0.23553,0.6882c-0.00992,0.26937 -0.10128,0.38225 -0.13591,0.62007c-0.0567,0.38931 0.00092,0.91902 0.00092,1.32109c0,0 0,0.05558 -0.03428,0.05558c-0.03428,0 -0.03428,-0.05558 -0.03428,-0.05558c0,-0.41171 -0.05724,-0.94732 0.00092,-1.34664c0.03486,-0.23933 0.1244,-0.33546 0.13413,-0.59898c0.00718,-0.24954 -0.14952,-0.43219 -0.22463,-0.62348c-0.05501,-0.14013 -0.0039,-0.31543 -0.04215,-0.44152c-0.08282,-0.27295 -0.30588,-0.61978 -0.33147,-0.94572c-0.04358,-0.68709 -0.14998,-1.36873 -0.15351,-2.07362l-0.00042,-0.08314c0,0 -0.00027,-0.05558 0.03401,-0.05603z" fill="#000000" stroke="none" stroke-width="0.5"/><g stroke="none" stroke-width="0"><path d="M327.13332,181.47307c0,1.59716 -1.32358,2.89192 -2.9563,2.89192c-1.63272,0 -2.9563,-1.29476 -2.9563,-2.89192c0,-1.59716 1.32358,-2.89193 2.9563,-2.89193c1.63272,0 2.9563,1.29476 2.9563,2.89193z" fill="url(#color-18)"/><path d="M325.42293,181.56903c0,0.69861 -0.59891,1.26495 -1.33769,1.26495c-0.73879,0 -1.33769,-0.56633 -1.33769,-1.26495c0,-0.69861 0.59891,-1.26494 1.33769,-1.26494c0.73879,0 1.33769,0.56633 1.33769,1.26494z" fill="url(#color-19)"/><path d="M325.4506,181.46435c0,0.69861 -0.5989,1.26495 -1.33769,1.26495c-0.73879,0 -1.33769,-0.56633 -1.33769,-1.26495c0,-0.69861 0.59891,-1.26495 1.33769,-1.26495c0.73879,0 1.33769,0.56633 1.33769,1.26495z" fill="url(#color-20)"/><path d="M324.78636,181.50418c0,0.34239 -0.29842,0.61995 -0.66654,0.61995c-0.36812,0 -0.66654,-0.27756 -0.66654,-0.61995c0,-0.34239 0.29842,-0.61996 0.66654,-0.61996c0.36811,0 0.66654,0.27757 0.66654,0.61996z" fill="url(#color-21)"/><path d="M324.78636,181.56961c0,0.34239 -0.29842,0.61995 -0.66654,0.61995c-0.36812,0 -0.66654,-0.27756 -0.66654,-0.61995c0,-0.34239 0.29842,-0.61996 0.66654,-0.61996c0.36811,0 0.66654,0.27757 0.66654,0.61996z" fill="url(#color-22)"/></g><g stroke="none" stroke-width="0"><path d="M318.54831,181.55088c0,1.59716 -1.32358,2.89193 -2.9563,2.89193c-1.63272,0 -2.9563,-1.29476 -2.9563,-2.89193c0,-1.59716 1.32358,-2.89193 2.9563,-2.89193c1.63272,0 2.9563,1.29476 2.9563,2.89193z" fill="url(#color-23)"/><path d="M316.83791,181.64684c0,0.69861 -0.5989,1.26495 -1.33769,1.26495c-0.73879,0 -1.33769,-0.56633 -1.33769,-1.26495c0,-0.69861 0.59891,-1.26495 1.33769,-1.26495c0.73879,0 1.33769,0.56633 1.33769,1.26495z" fill="url(#color-24)"/><path d="M316.86559,181.54216c0,0.69861 -0.5989,1.26495 -1.33769,1.26495c-0.73879,0 -1.33769,-0.56633 -1.33769,-1.26495c0,-0.69861 0.59891,-1.26495 1.33769,-1.26495c0.73879,0 1.33769,0.56633 1.33769,1.26495z" fill="url(#color-25)"/><path d="M316.20136,181.58199c0,0.34239 -0.29842,0.61995 -0.66654,0.61995c-0.36812,0 -0.66654,-0.27756 -0.66654,-0.61995c0,-0.34239 0.29842,-0.61995 0.66654,-0.61995c0.36812,0 0.66654,0.27756 0.66654,0.61995z" fill="url(#color-26)"/><path d="M316.20136,181.64742c0,0.34239 -0.29842,0.61996 -0.66654,0.61996c-0.36812,0 -0.66654,-0.27757 -0.66654,-0.61996c0,-0.34239 0.29842,-0.61995 0.66654,-0.61995c0.36812,0 0.66654,0.27756 0.66654,0.61995z" fill="url(#color-27)"/></g><path d="M315.65244,181.66279c0,0.06494 -0.05456,0.11759 -0.12186,0.11759c-0.0673,0 -0.12186,-0.05265 -0.12186,-0.11759c0,-0.06494 0.05456,-0.11759 0.12186,-0.11759c0.0673,0 0.12186,0.05265 0.12186,0.11759z" fill="#000000" stroke="none" stroke-width="0"/><path d="M316.48225,180.96007c0.02931,0.02772 0,0.05543 0,0.05543l-0.01774,0.01512c-0.26039,0.14386 -0.51157,0.38603 -0.75722,0.56034c0,0 -0.03316,0.02351 -0.05803,-0.00784c-0.02487,-0.03136 0.00829,-0.05487 0.00829,-0.05487c0.25132,-0.17814 0.50066,-0.41215 0.76431,-0.56485l0.00177,-0.00333c0,0 0.02931,-0.02772 0.05862,0z" fill="#000000" stroke="none" stroke-width="0.5"/><path d="M314.63879,180.95084l0.00177,0.00333c0.26365,0.1527 0.51298,0.38671 0.76431,0.56485c0,0 0.03316,0.02352 0.00829,0.05487c-0.02487,0.03136 -0.05803,0.00784 -0.05803,0.00784c-0.24565,-0.17432 -0.49683,-0.41649 -0.75722,-0.56034l-0.01773,-0.01512c0,0 -0.02931,-0.02772 0,-0.05543c0.02931,-0.02772 0.05862,0 0.05862,0z" data-paper-data="{&quot;index&quot;:null}" fill="#000000" stroke="none" stroke-width="0.5"/><path d="M314.60942,182.4264c-0.02931,-0.02772 0,-0.05543 0,-0.05543l0.01774,-0.01512c0.26039,-0.14386 0.51157,-0.38603 0.75722,-0.56034c0,0 0.03317,-0.02351 0.05803,0.00784c0.02487,0.03136 -0.00829,0.05488 -0.00829,0.05488c-0.25132,0.17814 -0.50066,0.41215 -0.76431,0.56485l-0.00177,0.00333c0,0 -0.02931,0.02772 -0.05862,0z" data-paper-data="{&quot;index&quot;:null}" fill="#000000" stroke="none" stroke-width="0.5"/><path d="M316.40411,182.4264l-0.00177,-0.00333c-0.26365,-0.1527 -0.51298,-0.38671 -0.76431,-0.56485c0,0 -0.03316,-0.02352 -0.00829,-0.05488c0.02487,-0.03136 0.05803,-0.00784 0.05803,-0.00784c0.24565,0.17432 0.49683,0.41649 0.75722,0.56034l0.01773,0.01512c0,0 0.02931,0.02772 0,0.05544c-0.02931,0.02772 -0.05862,0 -0.05862,0z" data-paper-data="{&quot;index&quot;:null}" fill="#000000" stroke="none" stroke-width="0.5"/><path d="M324.21003,181.53311c0,0.06494 -0.05456,0.11759 -0.12186,0.11759c-0.0673,0 -0.12186,-0.05265 -0.12186,-0.11759c0,-0.06494 0.05456,-0.11759 0.12186,-0.11759c0.0673,0 0.12186,0.05265 0.12186,0.11759z" fill="#000000" stroke="none" stroke-width="0"/><path d="M325.03983,180.77851c0.02931,0.02772 0,0.05544 0,0.05544l-0.01773,0.01512c-0.26039,0.14386 -0.51157,0.38603 -0.75722,0.56034c0,0 -0.03316,0.02351 -0.05803,-0.00784c-0.02487,-0.03136 0.00829,-0.05488 0.00829,-0.05488c0.25132,-0.17814 0.50065,-0.41215 0.76431,-0.56485l0.00177,-0.00333c0,0 0.02931,-0.02772 0.05862,0z" fill="#000000" stroke="none" stroke-width="0.5"/><path d="M323.19637,180.76929l0.00177,0.00333c0.26365,0.1527 0.51298,0.38671 0.76431,0.56485c0,0 0.03316,0.02352 0.00829,0.05488c-0.02487,0.03136 -0.05803,0.00784 -0.05803,0.00784c-0.24565,-0.17432 -0.49683,-0.41649 -0.75722,-0.56034l-0.01773,-0.01512c0,0 -0.02931,-0.02772 0,-0.05543c0.02931,-0.02772 0.05862,0 0.05862,0z" data-paper-data="{&quot;index&quot;:null}" fill="#000000" stroke="none" stroke-width="0.5"/><path d="M323.13958,182.27078c-0.02931,-0.02772 0,-0.05543 0,-0.05543l0.01773,-0.01512c0.26039,-0.14386 0.51157,-0.38603 0.75722,-0.56034c0,0 0.03316,-0.02351 0.05803,0.00784c0.02487,0.03136 -0.0083,0.05488 -0.0083,0.05488c-0.25132,0.17814 -0.50065,0.41215 -0.76431,0.56485l-0.00177,0.00333c0,0 -0.02931,0.02772 -0.05862,0z" data-paper-data="{&quot;index&quot;:null}" fill="#000000" stroke="none" stroke-width="0.5"/><path d="M324.9617,182.24484l-0.00177,-0.00333c-0.26365,-0.1527 -0.51298,-0.38671 -0.76431,-0.56485c0,0 -0.03316,-0.02352 -0.00829,-0.05488c0.02487,-0.03136 0.05803,-0.00784 0.05803,-0.00784c0.24565,0.17432 0.49683,0.41649 0.75722,0.56034l0.01773,0.01512c0,0 0.02931,0.02772 0,0.05543c-0.02931,0.02772 -0.05862,0 -0.05862,0z" data-paper-data="{&quot;index&quot;:null}" fill="#000000" stroke="none" stroke-width="0.5"/><path d="M329.27814,181.60279c0.88834,0.0399 2.09726,0.71455 1.39731,2.43666c-0.7214,1.77488 -2.67326,3.87131 -4.38995,5.77921c-1.64928,1.83298 -2.33478,3.45988 -3.50783,3.45988c-0.65853,0 -2.36668,-0.16194 -3.24911,-0.05723c-0.80459,0.09548 -2.51175,0.34516 -3.32677,-0.1503c-0.16891,-0.10268 -1.5498,-1.52358 -2.56217,-3.02258c-0.01585,-0.02346 0.05891,-1.05896 0.88786,-0.74245c0.24618,0.09399 0.0741,-0.03754 0.41436,0.26946c0.18267,0.16481 0.84767,0.78568 1.05311,0.89572c1.0976,0.5879 2.30322,0.5552 3.86879,0.31986c0.01812,-0.00272 0.16941,-0.02102 0.21607,-0.01857c0.42781,0.0226 1.82509,0.25208 2.36736,0.10552c0.4089,-0.11052 0.98794,-0.33327 1.37845,-0.60733c0.69543,-0.48805 1.15948,-1.18483 1.7315,-1.77256c1.7478,-1.79581 3.42123,-4.26673 4.1301,-4.91188c0.0597,-0.05434 0.13893,-0.07524 0.15805,-0.12266c0.11943,-0.29616 -0.28965,-0.55773 -0.59044,-0.37444c-0.71163,0.43365 -2.02576,1.97188 -3.31267,2.63864c-0.86666,0.44902 -1.67855,0.68023 -2.07956,0.7191c-0.33951,0.0329 -3.97931,-0.4428 -4.00098,-0.44191c-0.50263,0.02076 -2.5269,0.49231 -3.99206,0.5336c-0.29767,0.00839 -1.28708,-0.17094 -2.26036,-0.79728c-1.48613,-0.95636 -3.0912,-2.46156 -3.36728,-2.05949c-0.01203,0.01752 -0.05142,0.12262 -0.00549,0.19929c0.02689,0.04489 0.20021,0.0248 0.24469,0.08699c0.74273,1.03863 3.66119,4.43039 4.386,5.56867c0.14639,0.22989 -0.61716,0.26443 -0.63436,0.29075c-0.27745,0.42441 -0.28944,0.66521 -0.48386,0.43023c-0.57421,-0.69401 -2.91832,-3.51841 -2.99066,-3.59063c-0.69452,-0.69321 -1.91936,-1.73584 -1.95004,-2.86429c-0.02739,-1.00706 0.48649,-1.86614 1.0714,-2.17406c1.51726,-0.17516 1.60272,1.15084 2.73289,2.03726c0.56617,0.31969 0.92643,0.88879 1.76193,1.04293c1.35106,0.24926 2.72381,-0.76964 3.09843,-1.00466c0.62504,-0.39212 1.23335,-1.07049 2.2466,-1.07049c1.86514,0 2.89927,1.56292 4.26908,2.00467c0.74185,0.23924 1.80397,0.0086 2.9631,-0.81727c1.3156,-0.93735 1.70328,-2.24637 2.32652,-2.21838z" fill="url(#color-28)" stroke="none" stroke-width="0"/><path d="M328.73409,185.03842c-0.20439,0.00654 0.13522,-0.24896 0.13522,-0.24896l0.01115,-0.17963c0.09992,-0.29408 0.24022,-0.52981 0.46891,-0.77302c0.03053,-0.03248 0.32452,-0.29481 0.31572,-0.34667c-0.00975,-0.05754 -0.05195,-0.11966 -0.11606,-0.14154c-0.0556,-0.01897 -0.34787,0.14362 -0.39403,0.17833c-0.32348,0.24324 -0.94123,0.4199 -1.2163,0.69483l-0.02374,0.00605c0.35824,-0.35416 1.04242,-1.1191 1.61701,-1.24676c0.31946,-0.07098 0.51916,0.143 0.54045,0.45965c0.01891,0.28123 -0.3694,0.50742 -0.53912,0.72079c-0.12564,0.15795 -0.33792,0.29974 -0.39643,0.4771l-0.17879,0.20984c0,0 -0.01961,0.18344 -0.224,0.18998z" fill="#000000" stroke="none" stroke-width="0.5"/><path d="M329.79849,184.31395c-0.55136,0.81454 -1.54292,2.07212 -2.80432,3.65888c-1.61037,2.02572 -4.08152,4.21077 -7.17267,4.25175c-3.26096,0.04323 -5.34645,-1.95647 -6.68973,-4.06027c-1.11858,-1.20724 -0.69479,-0.9307 -2.12157,-2.74807c0.16951,-0.42165 0.15959,-0.53174 0.45197,-0.20914c0.42105,0.46458 1.47441,1.81711 2.33658,2.94788c0.7187,0.9426 1.179,1.65195 2.20337,2.30447c0.38108,0.24274 0.97782,0.41272 1.54538,0.45056c0.89136,0.05943 1.8113,-0.11193 2.47969,-0.11193c0.60988,0 1.23839,0.17305 1.8424,0.16034c0.61016,-0.01284 1.19577,-0.21345 1.80523,-0.62056c0.76314,-0.50977 1.33998,-1.21496 1.95556,-1.88242c2.0475,-2.22008 3.92206,-5.12913 4.16809,-4.14148z" fill="url(#color-29)" stroke="none" stroke-width="0"/><path d="M323.12122,191.32153c0,0.35811 -1.45243,1.1023 -3.55423,1.1023c-2.1018,0 -2.98281,-0.54967 -2.98281,-0.90778c0,-0.29455 0.24447,0.17578 1.78479,0.23693c0.33237,0.01319 0.66499,-0.0424 1.03803,-0.0424c0.27828,0 0.93775,-0.22241 1.19835,-0.23247c0.50099,-0.01934 0.9951,0.00473 1.34634,-0.03538c0.84601,-0.09662 1.16955,-0.34073 1.16955,-0.12119z" fill="url(#color-30)" stroke="none" stroke-width="0"/><path d="M328.51085,185.08867c0,-0.22178 1.0672,-1.50214 1.16188,-1.50214c0.09468,0 0.36951,-0.2069 0.36951,0.01488c0,0.07866 -1.24392,1.4685 -1.26061,1.57875c-0.03036,0.20058 0.06839,0.39932 0.0073,0.39932c-0.09468,0 -0.27809,-0.26902 -0.27809,-0.49079z" fill="#000000" stroke="none" stroke-width="0"/><path d="M311.17921,185.17054l-0.29368,-0.08108c-0.04014,-0.18188 -0.23695,-0.34239 -0.34588,-0.51106c-0.14715,-0.22786 -0.51055,-0.48843 -0.46303,-0.76663c0.05351,-0.31323 0.27412,-0.50798 0.58485,-0.40817c0.55888,0.17952 1.18921,0.92552 1.50962,1.31072l0.11413,0.17337c-0.24572,-0.29877 -1.00713,-0.63473 -1.30427,-0.90636c-0.0424,-0.03876 -0.31671,-0.22727 -0.37398,-0.21346c-0.06604,0.01593 -0.11438,0.0739 -0.12997,0.13028c-0.01403,0.05082 0.25179,0.33875 0.27887,0.37386c0.2028,0.26295 0.31837,0.51038 0.38781,0.81221l-0.00724,0.17981c0,0 0.31193,0.2853 0.10918,0.26014c-0.20276,-0.02516 -0.06642,-0.35363 -0.06642,-0.35363z" data-paper-data="{&quot;index&quot;:null}" fill="#000000" stroke="none" stroke-width="0.5"/><path d="M311.47173,185.30556c0,0.21487 -0.24575,0.54624 -0.34043,0.54624c-0.06109,0 0.03765,-0.19254 0.0073,-0.38687c-0.01668,-0.1068 -1.01376,-1.37553 -1.01376,-1.45174c0,-0.21487 0.11526,-0.16295 0.20994,-0.16295c0.09468,0 1.13695,1.24046 1.13695,1.45533z" data-paper-data="{&quot;index&quot;:null}" fill="#000000" stroke="none" stroke-width="0"/><path d="M326.01983,185.58401c0,0.2176 -1.58695,0.88905 -2.23717,0.87768c-0.82404,-0.01442 -2.78474,-0.36327 -3.76763,-0.36327c-1.33608,0 -2.2326,0.36331 -4.21876,0.43321c-0.656,0.02309 -2.02557,-0.65945 -2.13084,-0.7883c-0.17633,-0.21579 2.90374,0.03757 3.91675,-0.24335c0.88725,-0.24605 1.55007,-0.49337 2.66404,-0.49337c0.90674,0 1.64431,0.34736 2.5504,0.44463c1.47803,0.15865 3.22323,-0.09663 3.22323,0.13277z" fill="url(#color-31)" stroke="none" stroke-width="0"/><path d="M320.72748,183.91322c0,0.46432 -0.39987,1.16493 -0.91427,1.16493c-0.51441,0 -0.94856,-0.70061 -0.94856,-1.16493c0,-0.46432 0.41701,-0.84073 0.93141,-0.84073c0.51441,0 0.93141,0.37641 0.93141,0.84073z" fill="url(#color-32)" stroke="none" stroke-width="0"/><path d="M319.70235,183.20379c-0.21776,0 -0.504,0.19298 -0.504,0.17507c0,-0.01791 0.32281,-0.23991 0.54056,-0.23991c0.21776,0 0.59542,0.17878 0.59542,0.19668c0,0.01791 -0.41423,-0.13184 -0.63199,-0.13184z" fill-opacity="0.22745" fill="#ffffff" stroke="none" stroke-width="0"/><path d="M311.03981,182.65937c-0.00678,0.03178 -0.04039,0.02537 -0.04039,0.02537l-0.00217,-0.00042c-0.40715,-0.08023 -0.65784,-0.18326 -1.08869,-0.03599c-0.31502,0.18584 -0.46804,0.58448 -0.46804,0.95563c0,0 0,0.03243 -0.03428,0.03243c-0.03428,0 -0.03428,-0.03243 -0.03428,-0.03243c0,-0.4046 0.17064,-0.80344 0.50615,-1.01372c0.44681,-0.15565 0.71035,-0.04686 1.13271,0.03052l0.00217,0.00042c0,0 0.03361,0.00641 0.02683,0.03819z" fill="#a8655c" stroke="none" stroke-width="0.5"/><path d="M328.78224,182.40504l0.00217,-0.00042c0.42236,-0.07738 0.68591,-0.18616 1.13271,-0.03052c0.33551,0.21029 0.50615,0.60913 0.50615,1.01372c0,0 0,0.03242 -0.03428,0.03242c-0.03428,0 -0.03428,-0.03242 -0.03428,-0.03242c0,-0.37115 -0.15301,-0.76979 -0.46804,-0.95563c-0.43086,-0.14728 -0.68154,-0.04424 -1.08869,0.03599l-0.00217,0.00042c0,0 -0.03361,0.00641 -0.04039,-0.02537c-0.00678,-0.03178 0.02683,-0.03819 0.02683,-0.03819z" data-paper-data="{&quot;index&quot;:null}" fill="#a8655c" stroke="none" stroke-width="0.5"/><path d="M325.22089,189.41974c0.01812,0.02997 -0.00906,0.04995 -0.00906,0.04995l-0.04206,0.0298c-0.05057,0.09825 -0.10297,0.19536 -0.15485,0.29279c-0.19888,0.439 -0.6724,0.63918 -1.04292,0.88624c-0.42345,0.28227 -0.66034,0.57453 -1.17428,0.66988c-0.40634,0.07539 -0.94255,0.18948 -1.35101,0.16155c-0.44963,-0.03315 -0.8289,0.00567 -1.26419,0.08089c-0.4291,0.07239 -0.85698,0.10639 -1.28536,0.18977c-0.43745,0.08503 -0.92691,-0.00818 -1.35803,-0.10583c-0.43284,-0.06086 -0.85208,-0.17119 -1.22927,-0.42501c-0.39873,-0.26916 -0.78315,-0.39705 -1.12648,-0.78161c-0.26313,-0.29474 -0.52144,-0.57398 -0.70904,-0.93233c0,0 -0.01628,-0.03123 0.01207,-0.04917c0.02834,-0.01793 0.04461,0.0133 0.04461,0.0133c0.18335,0.35392 0.43986,0.62748 0.69895,0.91768c0.3397,0.3805 0.71937,0.50429 1.11403,0.7707c0.36869,0.24976 0.78197,0.35695 1.20581,0.41537c0.42365,0.0956 0.90603,0.18977 1.336,0.10596c0.4289,-0.08348 0.85727,-0.11757 1.28684,-0.19005c0.4401,-0.07213 0.82409,-0.11506 1.27844,-0.08156c0.3997,0.03201 0.93743,-0.0868 1.3358,-0.16071c0.50545,-0.09377 0.73413,-0.38237 1.15131,-0.66048c0.35908,-0.2393 0.82663,-0.43445 1.01929,-0.85894c0.05466,-0.1028 0.10901,-0.2058 0.16477,-0.30789l0.05333,-0.04029c0,0 0.02719,-0.01998 0.04532,0.00999z" fill="#ae6960" stroke="none" stroke-width="0.5"/><g stroke="none" stroke-width="0"><path d="M319.04687,186.84673c0.26967,-0.03188 0.6137,0.31362 0.64634,0.36143c0.07376,0.10807 0.05755,0.41547 -0.00578,0.81566c-0.08417,0.53185 -0.07138,1.06474 -0.15421,1.06474c-0.07884,0 -0.28733,-0.47873 -0.54496,-0.85221c-0.21677,-0.31425 -0.49503,-0.57014 -0.49503,-0.72559c0,-0.19917 0.1728,-0.61898 0.55365,-0.66402z" data-paper-data="{&quot;index&quot;:null}" fill="url(#color-33)"/><path d="M321.46775,187.48914c0,0.15546 -0.27826,0.41134 -0.49503,0.72559c-0.25763,0.37348 -0.46612,0.85221 -0.54495,0.85221c-0.08284,0 -0.07006,-0.5329 -0.15422,-1.06475c-0.06333,-0.40017 -0.07953,-0.70759 -0.00578,-0.81566c0.03263,-0.04782 0.37667,-0.39332 0.64633,-0.36143c0.38085,0.04504 0.55365,0.46485 0.55365,0.66402z" data-paper-data="{&quot;index&quot;:null}" fill="url(#color-34)"/><path d="M322.42861,187.76981c0,0.12984 -0.11638,0.4234 -0.29744,0.68587c-0.21519,0.31196 -0.51592,0.60211 -0.58177,0.60211c-0.06919,0 0.07863,-0.42516 0.00832,-0.8694c-0.0529,-0.33426 -0.04534,-0.59103 0.01628,-0.6813c0.02726,-0.03994 0.23023,-0.34847 0.45548,-0.32185c0.21262,0.02764 0.39915,0.41821 0.39915,0.58456z" data-paper-data="{&quot;index&quot;:null}" fill="url(#color-35)"/><path d="M323.56705,187.8283c0,0.15546 -0.07782,0.29164 -0.31569,0.81537c-0.16268,0.37348 -0.59271,1.33104 -0.67155,1.33104c-0.08284,0 -0.19664,-0.87206 -0.28081,-1.40391c-0.02589,-0.16361 0.11981,-0.39164 0.1939,-0.56427c0.10714,-0.24961 0.16813,-0.42692 0.21174,-0.4908c0.03263,-0.04782 0.25007,-0.41327 0.51975,-0.38138c0.38085,0.04504 0.34266,0.49478 0.34266,0.69395z" data-paper-data="{&quot;index&quot;:null}" fill="url(#color-36)"/><path d="M324.45797,187.52895c-0.16136,0.23392 -0.30246,0.87045 -0.35185,0.87045c-0.05188,0 -0.15203,-0.29885 -0.20475,-0.63196c-0.03966,-0.25063 -0.06564,-0.22371 -0.08274,-0.39115c0.02044,-0.02995 0.24648,-0.34111 0.41537,-0.32114c0.15943,0.02073 0.35972,0.27698 0.22395,0.4738z" data-paper-data="{&quot;index&quot;:null}" fill="url(#color-37)"/><path d="M324.99598,187.41922c-0.08829,0.04221 -0.07394,0.20878 -0.11575,0.35155c-0.07729,0.26394 -0.18295,0.5189 -0.21499,0.5189c-0.05188,0 -0.04653,-0.06941 -0.09925,-0.40252c-0.03966,-0.25063 0.0504,-0.39329 0.17044,-0.6206c0.02044,-0.02995 0.22538,-0.41093 0.39428,-0.39096c0.15943,0.02073 0.00104,0.34681 -0.13472,0.54363z" data-paper-data="{&quot;index&quot;:null}" fill="url(#color-38)"/><path d="M325.59352,187.54717c-0.04953,0 -0.27956,-0.56905 -0.27956,-0.64343c0,-0.07438 0.40937,-0.38407 0.45889,-0.38407c0.03978,0 -0.12982,1.02748 -0.17933,1.02748z" fill="url(#color-39)"/><path d="M315.62699,187.27889c0.1689,-0.01997 0.39493,0.29119 0.41537,0.32113c-0.0171,0.16744 -0.04308,0.14051 -0.08274,0.39115c-0.05272,0.33311 -0.15286,0.63196 -0.20475,0.63196c-0.04938,0 -0.19049,-0.63654 -0.35184,-0.87045c-0.13577,-0.19682 0.06452,-0.45307 0.22395,-0.4738z" data-paper-data="{&quot;index&quot;:null}" fill="url(#color-40)"/><path d="M317.94451,187.2223c0.22525,-0.02664 0.42822,0.28191 0.45548,0.32185c0.06161,0.09027 0.06917,0.34704 0.01628,0.6813c-0.07031,0.44424 0.07752,0.8694 0.00832,0.8694c-0.06585,0 -0.36659,-0.29015 -0.58177,-0.6021c-0.18107,-0.26248 -0.29744,-0.55603 -0.29744,-0.68588c0,-0.16637 0.18653,-0.55693 0.39915,-0.58456z" data-paper-data="{&quot;index&quot;:null}" fill="url(#color-41)"/><path d="M316.60549,187.11582c0.26967,-0.03188 0.48711,0.33357 0.51975,0.38138c0.0436,0.06388 0.1046,0.2412 0.21174,0.4908c0.0741,0.17263 0.2198,0.40066 0.1939,0.56427c-0.08417,0.53185 -0.19798,1.40392 -0.28081,1.40392c-0.07884,0 -0.50886,-0.95757 -0.67155,-1.33104c-0.23787,-0.52374 -0.31569,-0.65992 -0.31569,-0.81537c0,-0.19917 -0.03819,-0.64892 0.34266,-0.69395z" data-paper-data="{&quot;index&quot;:null}" fill="url(#color-42)"/><path d="M314.72181,186.92741c0.1689,-0.01851 0.37384,0.33455 0.39428,0.36229c0.12004,0.21063 0.2101,0.34283 0.17044,0.57509c-0.05272,0.30869 -0.04737,0.373 -0.09925,0.373c-0.03204,0 -0.1377,-0.23626 -0.21499,-0.48085c-0.04181,-0.1323 -0.02746,-0.28666 -0.11575,-0.32577c-0.13577,-0.18239 -0.29415,-0.48456 -0.13472,-0.50376z" data-paper-data="{&quot;index&quot;:null}" fill="url(#color-43)"/><path d="M313.99212,186.72719c0.04953,0 0.45889,0.30969 0.45889,0.38406c0,0.07438 -0.23003,0.64343 -0.27956,0.64343c-0.04953,0 -0.21911,-1.02748 -0.17933,-1.02748z" data-paper-data="{&quot;index&quot;:null}" fill="url(#color-44)"/><path d="M320.40612,190.17892c0,0.36208 -0.27996,0.56916 -0.38095,0.56916c-0.10099,0 -0.51809,-0.2503 -0.51809,-0.61239c0,-0.36208 0.34091,-1.31845 0.44189,-1.31845c0.10099,0 0.45714,0.99958 0.45714,1.36167z" fill="url(#color-45)"/><path d="M319.31765,189.99045c0.09628,0.28576 -0.06959,0.51576 -0.14929,0.53977c-0.0797,0.02401 -0.47544,-0.07435 -0.57173,-0.3601c-0.09628,-0.28576 -0.08156,-1.12159 -0.00186,-1.1456c0.0797,-0.02401 0.62658,0.68017 0.72288,0.96593z" fill="url(#color-46)"/><path d="M321.05756,189.00207c0.08325,0.0077 0.28269,0.82209 0.2518,1.12058c-0.03089,0.29849 -0.39608,0.47301 -0.47933,0.46531c-0.08325,-0.0077 -0.29637,-0.19977 -0.26547,-0.49826c0.03089,-0.29849 0.40977,-1.09533 0.49302,-1.08763z" data-paper-data="{&quot;index&quot;:null}" fill="url(#color-47)"/><path d="M321.97184,188.88679c0.08325,0.0077 0.28269,0.82209 0.2518,1.12058c-0.03089,0.29849 -0.39608,0.473 -0.47933,0.46531c-0.08325,-0.0077 -0.29637,-0.19977 -0.26547,-0.49826c0.03089,-0.29849 0.40977,-1.09533 0.49302,-1.08763z" data-paper-data="{&quot;index&quot;:null}" fill="url(#color-48)"/><path d="M318.44483,189.96001c0.03089,0.29849 -0.18223,0.49055 -0.26547,0.49826c-0.08325,0.0077 -0.44844,-0.16682 -0.47933,-0.46531c-0.03089,-0.29849 0.16855,-1.11287 0.2518,-1.12058c0.08325,-0.0077 0.46213,0.78914 0.49302,1.08763z" data-paper-data="{&quot;index&quot;:null}" fill="url(#color-49)"/><path d="M325.2093,187.90804c0.04796,0.01165 0.12101,0.61693 0.10144,0.68897c-0.01957,0.07204 -0.49756,0.27564 -0.54553,0.26399c-0.03852,-0.00936 0.39613,-0.96461 0.44408,-0.95296z" data-paper-data="{&quot;index&quot;:null}" fill="url(#color-50)"/><path d="M324.49312,188.28269c0.04796,0.01165 0.12101,0.61693 0.10144,0.68897c-0.00775,0.0285 -0.17869,0.19289 -0.27495,0.2411c-0.14699,0.07364 -0.27206,-0.05652 -0.30105,-0.06356c-0.015,-0.00365 0.12253,-0.10873 0.20586,-0.27023c0.13073,-0.25333 0.2394,-0.6034 0.2687,-0.59628z" data-paper-data="{&quot;index&quot;:null}" fill="url(#color-51)"/><path d="M323.68552,188.67173c0.04796,0.01165 0.12101,0.61693 0.10144,0.68897c-0.01154,0.04244 -0.14703,0.29727 -0.3038,0.33135c-0.10934,0.02377 -0.2525,-0.16343 -0.2722,-0.16822c-0.03852,-0.00936 0.42659,-0.86375 0.47456,-0.8521z" data-paper-data="{&quot;index&quot;:null}" fill="url(#color-52)"/><path d="M314.98047,188.92586c-0.04797,0.01165 -0.52595,-0.19196 -0.54553,-0.264c-0.01957,-0.07204 0.05348,-0.67732 0.10144,-0.68897c0.04797,-0.01165 0.48261,0.94361 0.44408,0.95297z" data-paper-data="{&quot;index&quot;:null}" fill="url(#color-53)"/><path d="M315.52126,188.9438c0.08333,0.1615 0.22086,0.26658 0.20586,0.27023c-0.02899,0.00704 -0.15406,0.13721 -0.30105,0.06357c-0.09625,-0.04822 -0.26721,-0.2126 -0.27495,-0.2411c-0.01957,-0.07204 0.05348,-0.67732 0.10144,-0.68897c0.02929,-0.00711 0.13797,0.34294 0.2687,0.59628z" data-paper-data="{&quot;index&quot;:null}" fill="url(#color-54)"/><path d="M316.53473,189.58867c-0.01971,0.00479 -0.16287,0.19199 -0.2722,0.16822c-0.15677,-0.03408 -0.29226,-0.28891 -0.3038,-0.33135c-0.01957,-0.07204 0.05348,-0.67732 0.10144,-0.68897c0.04797,-0.01165 0.51308,0.84274 0.47456,0.8521z" data-paper-data="{&quot;index&quot;:null}" fill="url(#color-55)"/></g><path d="M312.42843,170.05721c0,0.57298 -3.33064,2.59365 -3.78508,2.59365c-0.45445,0 -1.11272,-4.25359 -0.65828,-4.25359c0.45445,0 4.44336,1.08696 4.44336,1.65994z" fill="url(#color-56)" stroke="#000000" stroke-width="0"/><path d="M331.88642,168.24166c0.45445,0 -0.20383,4.25359 -0.65828,4.25359c-0.45445,0 -3.78509,-2.02068 -3.78509,-2.59365c0,-0.57297 3.98892,-1.65994 4.44336,-1.65994z" data-paper-data="{&quot;index&quot;:null}" fill="url(#color-57)" stroke="#000000" stroke-width="0"/></g></g></svg>